<?xml version="1.0" standalone="yes"?>
<svg width="900" height="900">
<path style="fill:#040404; stroke:none;" d="M233 388C233.402 407.48 241.658 429.281 249.281 447C251.656 452.521 253.994 461.221 258.637 465.258C262.058 468.233 268.743 467.98 273 467.999C287.457 468.063 303.938 462.318 310 448L312 448C315.827 457.041 324.135 464.212 331 470.996C359.851 499.504 400.528 510.94 440 503.196C460.742 499.127 481.307 485.463 503 488.289C538.001 492.849 554.093 531.247 558 562L559 562C566.146 548.574 582.547 529.742 582.802 514C582.955 504.549 575.512 492.809 570.796 485C554.127 457.394 527.065 436.558 494 435.104C467.779 433.951 454.093 453.59 432 462.547C391.874 478.815 348.592 451.459 328.458 417.004C321.952 405.871 334.497 383.867 339.15 373C345.788 357.5 353.671 342.785 363.424 329C368.682 321.569 377.48 314.301 381.062 306C383.002 301.502 381.773 295.791 382.425 291C383.822 280.74 386.912 271.09 389 261C378.59 266.185 369.611 275.145 361 282.834C342.048 299.757 319.46 321.988 308 345L307 345C307 306.468 313.895 271.523 329.15 236C333.575 225.698 339.263 207.807 348.213 200.699C357.434 193.376 373.921 189.539 385 185.657C409.304 177.14 433.713 168.939 459 163.801C471.893 161.181 484.906 158.573 498 157.166C504.871 156.428 514.27 157.171 520.576 154.146C532.463 148.443 547.499 131.648 555 121C514.824 121 474.688 124.394 435 130.92C421.31 133.171 402.653 133.566 390.09 139.514C380.179 144.207 375.741 159.478 367.826 166.772C361.844 172.286 352.394 170.651 346.21 175.563C337.132 182.775 334.683 197.133 327.39 205.892C322.489 211.78 313.536 210.817 308.637 216.278C301.936 223.748 298.802 237.629 295.667 247C286.611 274.064 279.717 302.322 279.015 331C278.778 340.668 279.254 350.389 280.17 360C280.591 364.42 282.861 370.792 280.933 374.999C272.792 392.757 248.111 391.456 233 388z"/>
</svg>
