<?xml version="1.0" standalone="yes"?>
<svg width="900" height="900">
<path style="fill:#040404; stroke:none;" d="M457 216L495 208.804L510.49 205.822L518.692 185L541 126C528.722 126 516.212 126.668 504 127.83C499.847 128.226 493.937 126.795 490.225 129.028C484.687 132.359 481.914 145.215 479.6 151C471.611 170.973 458.886 194.396 457 216M401 327L447 303C449.728 324.563 456.004 345.398 467.461 364C489.234 399.354 523.224 425.036 544.548 461C565.921 497.049 577.133 539.26 578.961 581C579.847 601.254 576.863 620.901 576 641L526 654.656L442 679C446.379 657.786 450.986 636.779 451 615L412 627.371L397.027 632.564L394.576 649L387 689L414 685L408 705L409 706L434 701L435 702L428 723C460.838 720.409 493.733 711.35 526 705.001C535.62 703.108 555.695 703.681 563.436 697.825C569.308 693.383 567.824 679.45 570.728 673.109C574.26 665.395 585.482 671.044 589.987 665.411C595.497 658.522 590.167 645.205 595.858 638.514C599.166 634.625 608.318 635.039 613 635C615.736 620.265 615 604.935 615 590C615 537.008 603.105 486.204 578.742 439C556.893 396.669 521.291 361.087 507.025 315C499.832 291.761 501.803 269.784 502 246C476.413 248.09 449.849 259.058 426 267.95C419.515 270.367 404.024 273.698 400.028 279.499C397.783 282.758 399 289.231 399 293C399 304.52 399.556 315.574 401 327z"/>
</svg>
