<?xml version="1.0" standalone="yes"?>
<svg width="900" height="900">
<path style="fill:#050505; stroke:none;" d="M436 654C452.352 650.116 469.049 639.763 483 630.656C487.745 627.559 495.195 624.057 497.972 618.91C500.951 613.389 499.077 602.917 498.079 597C492.495 563.861 467.233 552.234 438 544L456.573 516L464.303 498.028L483 497L485 471L505 475C507.026 468.147 507.026 457.853 505 451L528 461L531 440L555 457L561 441L581 465L583 465L593 454L609 485L636 474C633.895 466.303 626.718 444.712 618.815 441.618C614.021 439.741 608.076 445.804 604.015 442.472C592.754 433.233 586.6 407.714 571 427L570 427L546 407L545 407L537 421L508 410L505 428L479 424L482 445L459 448C460.306 453.644 466.318 465.224 462.958 470.697C461.11 473.705 456.121 474.115 453 474.79C445.45 476.423 422.923 483.716 416.603 477.397C413.087 473.88 413.923 461.954 413 457C406.66 456.495 391.293 455.354 389.318 447.956C387.735 442.028 392.058 431.6 388.933 426.634C385.251 420.785 374.942 420.168 372.492 412.961C369.756 404.915 378.494 395.997 377.498 388C376.639 381.097 367.644 377.113 367.046 370C366.319 361.365 377.403 352.926 379.729 345C381.762 338.076 373.98 331.06 375.916 324C378.73 313.737 392.38 308.954 396.731 299.83C399.698 293.609 394.803 285.586 398.938 279.184C405.046 269.73 419.221 267.707 426.262 259.39C429.899 255.093 430.749 245.455 432 240C417.553 246.015 403.707 254.499 391 263.579C386.031 267.13 379.094 270.608 375.938 276.015C371.548 283.535 375.688 293.831 371.258 301C366.531 308.648 355.462 314.057 352.912 323C350.577 331.188 357.158 339.962 355.718 348C354.169 356.647 343.077 363.93 343.743 373C344.333 381.028 351.762 387.426 353.716 395C355.463 401.771 348.909 410.109 348.383 417C347.789 424.785 360.808 434.788 367 438L363 460L388 472L384 491L412 498C408.814 507.357 399.061 528.003 388 529.729C377.454 531.375 358.379 517.512 350 511.997C316.217 489.764 289.796 457.787 275.062 420C251.692 360.066 254.118 293.843 273.025 233C278.163 216.467 283.904 199.862 290.861 184C295.155 174.211 302.126 163.51 304 153C295.6 155 279.096 149.747 272.394 154.029C266.219 157.973 263.009 174.287 260.657 181C251.667 206.652 243.538 232.305 238.2 259C217.042 364.803 243.971 478.85 335 544.576C372.52 571.666 450.338 594.466 436 654z"/>
</svg>
