<?xml version="1.0" standalone="yes"?>
<svg width="900" height="900">
<path style="fill:#040404; stroke:none;" d="M463 250L462 251L464 269L435 257L435 274L404 264C402.586 296.832 377.787 322.213 356 344C326.301 373.699 292.941 405.685 276 445L294 447L280 476L296 481C293.4 487.703 283.739 503.496 286.644 510.61C288.239 514.517 295.569 516.426 299 518.312C307.973 523.242 316.277 529.6 324 536.282C357.851 565.573 389.727 605.307 432 623L434 605L462 619L466 603L496 615C506.389 584.488 532.016 563.984 554 542C587.489 508.511 625.694 466.711 637 419L621 417C622.715 410.718 633.193 391.484 628.958 385.728C626.606 382.532 618.683 381.544 615 381C616.432 374.063 624.191 354.882 619.958 348.649C617.399 344.882 609.01 342.771 605 340.752C595.121 335.778 586.088 329.593 577 323.341C539.703 297.683 505.29 267.607 463 250M440 586C423.622 580.568 408.063 561.524 396.95 549C376.874 526.375 362.499 499.112 341.91 477C332.543 466.939 321.977 460.816 311 453L311 452C327.831 430.163 343.93 409.883 366 392.887C405.581 362.408 451.913 343.717 463 290C486.627 297.528 510.726 323.262 527.17 341.015C543.961 359.142 560.186 378.489 579 394.572C583.833 398.703 601.665 406.471 603.187 412.213C604.337 416.556 599.608 423.289 597.753 427C590.864 440.779 582.727 454.093 572.916 466C554.94 487.815 533.61 505.242 510 520.656C482.822 538.399 453.129 554.465 440 586z"/>
</svg>
