<?xml version="1.0" standalone="yes"?>
<svg width="900" height="900">
<path style="fill:#040404; stroke:none;" d="M556 537L489 546C488.829 483.924 457.272 425.628 456 364L410 372C411.28 433.999 442.484 492.651 443 555C426.033 556.341 408.888 560.098 392 562.424C387.586 563.032 376.31 566.374 372.603 563.227C369.123 560.271 370.229 549.289 369.715 545C367.666 527.929 364.91 510.958 362.08 494C350.355 423.731 338 355.482 338 284C327.616 284 317.384 285 307 285C304.02 285 298.147 283.927 296.028 286.603C293.105 290.294 295 300.487 295 305C295 321.766 296.549 338.304 296.985 355C298.848 426.353 321.992 496.708 322 568L347 567L348 588L373 587L375 609L421 603.845L559 586L558 561L579 560L578 535L599 534C599 492.145 589.359 449.325 583.272 408C576.126 359.493 572 310.997 572 262C560.063 262 547.846 262.317 536 263.714C532.788 264.093 526.28 262.759 524.028 265.603C521.221 269.148 523 278.68 523 283C523 298.789 524.247 314.282 524.961 330C526.922 373.207 537.433 415.489 544.565 458C548.903 483.861 549.961 511.632 556 537z"/>
</svg>
