<?xml version="1.0" standalone="yes"?>
<svg width="900" height="900">
<path style="fill:#0a0a0a; stroke:none;" d="M222.333 190.667L222.667 191.333L222.333 190.667M233 190L233 192L235 192L241 192L241 190L239 190L233 190M305 190L305 192L307 192L310 192L312 192L312 190L310 190L307 190L305 190M434 190L434 192L439 192L439 190L434 190M454 190L454 192L460 192L460 190L454 190M470 190L470 192L472 192L472 190L470 190M506 190L506 192L508 192L511 192L513 192L513 190L511 190L508 190L506 190M222 197L222 201L222 202L222 203L222 204L222 205L222 206L222 207L222 208L222 209L222 210L222 211L222 212L222 213L222 214L222 215L222 216L222 217L222 218L222 219L222 220L222 221L222 222L222 223L222 224L222 225L222 226L222 227L222 228L222 229L222 230L222 231L222 232L222 233L222 234L222 235L222 236L222 237L222 238L222 239L222 240L222 241L222 242L222 243L222 244L222 245L222 246L222 247L222 248L222 249L222 250L222 251L222 252L222 253L222 254L222 255L222 256L222 257L222 258L222 259L222 260L222 266L223 266L223 263L223 259L223 258L223 257L223 256L223 255L223 254L223 253L223 252L223 251L223 250L223 249L223 248L223 247L223 246L223 245L223 244L223 243L223 242L223 241L223 240L223 239L223 238L223 237L223 236L223 235L223 234L223 233L223 232L223 231L223 230L223 229L223 228L223 227L223 226L223 225L223 224L223 223L223 222L223 221L223 220L223 219L223 218L223 217L223 216L223 215L223 214L223 213L223 212L223 211L223 210L223 209L223 208L223 207L223 206L223 205L223 204L222 197M233 197L233 201L233 202L233 203L233 204L233 205L233 206L233 207L233 208L233 209L233 210L233 211L233 212L233 213L233 214L233 215L233 216L233 217L233 218L233 219L233 220L233 221L233 222L233 223L233 224L233 225L233 226L233 227L233 228L233 229L233 230L233 231L233 232L233 233L233 234L233 235L233 236L233 237L233 238L233 239L233 240L233 241L233 242L233 243L233 244L233 245L233 246L233 247L233 248L233 249L233 250L233 251L233 252L233 253L233 254L233 255L233 256L233 257L233 258L233 259L233 260L233 266L241 266L241 262L241 261L241 260L241 259L241 258L241 257L241 256L241 255L241 254L241 253L241 252L241 251L241 250L241 249L241 248L241 247L241 246L241 245L241 244L241 243L241 242L241 241L241 240L241 239L241 238L241 237L241 236L241 235L241 234L241 233L241 232L241 231L241 230L241 229L241 228L241 227L241 226L241 225L241 224L241 223L241 222L241 221L241 220L241 219L241 218L241 217L241 216L241 215L241 214L241 213L241 212L241 211L241 210L241 209L241 208L241 207L241 206L241 205L241 204L241 203L241 197L233 197M305 197L305 201L305 202L305 203L305 204L305 205L305 206L305 207L305 208L305 209L305 210L305 211L305 212L305 213L305 214L305 215L305 216L305 217L305 218L305 219L305 220L305 221L305 222L305 223L305 224L305 225L305 226L305 227L305 228L305 229L305 230L305 231L305 232L305 233L305 234L305 235L305 236L305 237L305 238L305 239L305 240L305 241L305 242L305 243L305 244L305 245L305 246L305 247L305 248L305 249L305 250L305 251L305 252L305 253L305 254L305 255L305 256L305 257L305 258L305 259L305 260L305 266L312 266L312 262L312 261L312 260L312 259L312 258L312 257L312 256L312 255L312 254L312 253L312 252L312 251L312 250L312 249L312 248L312 247L312 246L312 245L312 244L312 243L312 242L312 241L312 240L312 239L312 238L312 237L312 236L312 235L312 234L312 233L312 232L312 231L312 230L312 229L312 228L312 227L312 226L312 225L312 224L312 223L312 222L312 221L312 220L312 219L312 218L312 217L312 216L312 215L312 214L312 213L312 212L312 211L312 210L312 209L312 208L312 207L312 206L312 205L312 204L312 203L312 197L305 197M434 197L434 201L434 202L434 203L434 204L434 205L434 206L434 207L434 208L434 209L434 210L434 211L434 212L434 213L434 214L434 215L434 216L434 217L434 218L434 219L434 220L434 221L434 222L434 223L434 224L434 225L434 226L434 227L434 228L434 229L434 230L434 231L434 232L434 233L434 234L434 235L434 236L434 237L434 238L434 239L434 240L434 241L434 242L434 243L434 244L434 245L434 246L434 247L434 248L434 249L434 250L434 251L434 252L434 253L434 254L434 255L434 256L434 257L434 258L434 259L434 260L434 266L431 266L431 267L431 271L431 272L431 273L431 274L431 275L431 276L431 277L431 278L431 279L431 280L431 281L431 282L431 283L431 284L431 285L431 286L431 287L431 288L431 289L431 290L431 291L431 292L431 293L431 294L431 295L431 296L431 297L431 298L431 299L431 300L431 301L431 302L431 303L431 304L431 305L431 306L431 307L431 308L431 309L431 310L431 311L431 312L431 313L431 314L431 315L431 316L431 317L431 318L431 319L431 320L431 321L431 322L431 323L431 324L431 325L431 326L431 327L431 328L431 329L431 330L431 331L431 332L431 333L431 334L431 335L431 336L431 337L431 338L431 339L431 340L431 341L431 342L431 343L431 344L431 345L431 346L431 347L431 348L431 349L431 350L431 351L431 352L431 353L431 354L431 355L431 356L431 357L431 358L431 359L431 360L431 361L431 362L431 363L431 364L431 365L431 366L431 367L431 368L431 369L431 370L431 371L431 372L431 373L431 374L431 375L431 376L431 377L431 378L431 379L431 380L431 381L431 382L431 383L431 384L431 385L431 386L431 387L431 388L431 389L431 390L431 391L431 392L431 393L431 394L431 395L431 396L431 397L431 398L431 399L431 400L431 401L431 402L431 403L431 404L431 405L431 406L431 407L431 408L431 409L431 410L431 411L431 412L431 413L431 414L431 415L431 416L431 417L431 418L431 419L431 420L431 421L431 422L431 423L431 424L431 425L431 426L431 427L431 428L431 429L431 430L431 431L431 432L431 433L431 434L431 435L431 436L431 437L431 438L431 439L431 440L431 441L431 442L431 443L431 444L431 445L431 446L431 447L431 448L431 449L431 450L431 451L431 452L431 453L431 454L431 455L431 456L431 457L431 458L431 459L431 460L431 461L431 462L431 463L431 464L431 465L431 466L431 467L431 468L431 469L431 470L431 471L431 472L431 473L431 474L431 475L431 476L431 477L431 478L431 479L431 480L431 481L431 482L431 483L431 484L431 485L431 486L431 487L431 488L431 489L431 490L431 491L431 492L431 493L431 494L431 495L431 496L431 497L431 498L431 499L431 500L431 501L431 502L431 503L431 504L431 505L431 506L431 507L431 508L431 509L431 510L431 511L431 512L431 513L431 514L431 515L431 516L431 517L431 518L431 519L431 520L431 521L431 522L431 523L431 524L431 525L431 526L431 527L431 528L431 529L431 530L431 531L431 532L431 533L431 534L431 535L431 536L431 537L431 538L431 539L431 540L431 541L431 542L431 543L431 544L431 545L431 546L431 547L431 548L431 549L431 550L431 551L431 552L431 553L431 554L431 555L431 556L431 557L431 558L431 559L431 560L431 561L431 562L431 563L431 564L431 565L431 566L431 567L431 568L431 569L431 570L431 571L431 572L431 573L431 574L431 575L431 576L431 577L431 578L431 579L431 580L431 581L431 582L431 583L431 584L431 585L431 586L431 587L431 588L431 589L431 590L431 591L431 592L431 593L431 594L431 595L431 596L431 597L431 598L431 599L431 600L431 601L431 602L431 608L435 608L436 608L437 608L438 608L439 608L440 608L441 608L442 608L449 608L449 604L449 603L449 602L449 601L449 600L449 599L449 598L449 597L449 596L449 595L449 594L449 593L449 592L449 591L449 590L449 589L449 588L449 587L449 586L449 585L449 584L449 583L449 582L449 581L449 580L449 579L449 578L449 577L449 576L449 575L449 574L449 573L449 572L449 571L449 570L449 569L449 568L449 567L449 566L449 565L449 564L449 563L449 562L449 561L449 560L449 559L449 558L449 557L449 556L449 555L449 554L449 553L449 552L449 551L449 550L449 549L449 548L449 547L449 546L449 545L449 540L442 540L442 536L442 535L442 534L442 533L442 532L442 531L442 530L442 529L442 528L442 527L442 526L442 525L442 524L442 523L442 522L442 521L442 520L442 519L442 518L442 517L442 516L442 515L442 514L442 513L442 512L442 511L442 510L442 509L442 508L442 507L442 506L442 505L442 504L442 503L442 502L442 501L442 500L442 499L442 498L442 497L442 496L442 495L442 494L442 493L442 492L442 491L442 490L442 489L442 488L442 487L442 486L442 485L442 484L442 483L442 482L442 481L442 480L442 479L442 478L442 477L442 476L442 475L442 474L442 473L442 472L442 471L442 470L442 469L442 468L442 467L442 466L442 465L442 464L442 463L442 462L442 461L442 460L442 459L442 458L442 457L442 456L442 455L442 454L442 453L442 452L442 451L442 450L442 449L442 448L442 447L442 446L442 445L442 444L442 443L442 442L442 441L442 440L442 439L442 438L442 437L442 436L442 435L442 434L442 433L442 432L442 431L442 430L442 429L442 428L442 427L442 426L442 425L442 424L442 423L442 422L442 421L442 420L442 419L442 418L442 417L442 416L442 415L442 414L442 413L442 412L442 411L442 410L442 409L442 408L442 407L442 406L442 405L442 404L442 403L442 402L442 401L442 400L442 399L442 398L442 397L442 396L442 395L442 394L442 393L442 392L442 391L442 390L442 389L442 388L442 387L442 386L442 385L442 384L442 383L442 382L442 381L442 380L442 379L442 378L442 377L442 376L442 375L442 374L442 373L442 372L442 371L442 370L442 369L442 368L442 367L442 366L442 365L442 364L442 363L442 362L442 361L442 360L442 359L442 358L442 357L442 356L442 355L442 354L442 353L442 352L442 351L442 350L442 349L442 348L442 347L442 346L442 345L442 344L442 343L442 342L442 341L442 334L450 334L450 330L450 329L450 328L450 327L450 326L450 325L450 324L450 323L450 322L450 321L450 320L450 319L450 318L450 317L450 316L450 315L450 314L450 313L450 312L450 311L450 310L450 309L450 308L450 307L450 306L450 305L450 304L450 303L450 302L450 301L450 300L450 299L450 298L450 297L450 296L450 295L450 294L450 293L450 292L450 291L450 290L450 289L450 288L450 287L450 286L450 285L450 284L450 283L450 282L450 281L450 280L450 279L450 278L450 277L450 276L450 275L450 274L450 273L450 272L450 271L450 266L446 266L445 266L444 266L443 266L439 266L439 262L439 261L439 260L439 259L439 258L439 257L439 256L439 255L439 254L439 253L439 252L439 251L439 250L439 249L439 248L439 247L439 246L439 245L439 244L439 243L439 242L439 241L439 240L439 239L439 238L439 237L439 236L439 235L439 234L439 233L439 232L439 231L439 230L439 229L439 228L439 227L439 226L439 225L439 224L439 223L439 222L439 221L439 220L439 219L439 218L439 217L439 216L439 215L439 214L439 213L439 212L439 211L439 210L439 209L439 208L439 207L439 206L439 205L439 204L439 203L439 197L434 197M454 197L454 201L454 202L454 203L454 204L454 205L454 206L454 207L454 208L454 209L454 210L454 211L454 212L454 213L454 214L454 215L454 216L454 217L454 218L454 219L454 220L454 221L454 222L454 223L454 224L454 225L454 226L454 227L454 228L454 229L454 230L454 231L454 232L454 233L454 234L454 235L454 236L454 237L454 238L454 239L454 240L454 241L454 242L454 243L454 244L454 245L454 246L454 247L454 248L454 249L454 250L454 251L454 252L454 253L454 254L454 255L454 256L454 257L454 258L454 259L454 260L454 266L451 266L451 267L451 271L451 272L451 273L451 274L451 275L451 276L451 277L451 278L451 279L451 280L451 281L451 282L451 283L451 284L451 285L451 286L451 287L451 288L451 289L451 290L451 291L451 292L451 293L451 294L451 295L451 296L451 297L451 298L451 299L451 300L451 301L451 302L451 303L451 304L451 305L451 306L451 307L451 308L451 309L451 310L451 311L451 312L451 313L451 314L451 315L451 316L451 317L451 318L451 319L451 320L451 321L451 322L451 323L451 324L451 325L451 326L451 327L451 328L451 329L451 330L451 331L451 332L451 333L451 334L451 335L451 336L451 337L451 338L451 339L451 340L451 341L451 342L451 343L451 344L451 345L451 346L451 347L451 348L451 349L451 350L451 351L451 352L451 353L451 354L451 355L451 356L451 357L451 358L451 359L451 360L451 361L451 362L451 363L451 364L451 365L451 366L451 367L451 368L451 369L451 370L451 371L451 372L451 373L451 374L451 375L451 376L451 377L451 378L451 379L451 380L451 381L451 382L451 383L451 384L451 385L451 386L451 387L451 388L451 389L451 390L451 391L451 392L451 393L451 394L451 395L451 396L451 397L451 398L451 399L451 400L451 401L451 402L451 403L451 404L451 405L451 406L451 407L451 408L451 409L451 410L451 411L451 412L451 413L451 414L451 415L451 416L451 417L451 418L451 419L451 420L451 421L451 422L451 423L451 424L451 425L451 426L451 427L451 428L451 429L451 430L451 431L451 432L451 433L451 434L451 435L451 436L451 437L451 438L451 439L451 440L451 441L451 442L451 443L451 444L451 445L451 446L451 447L451 448L451 449L451 450L451 451L451 452L451 453L451 454L451 455L451 456L451 457L451 458L451 459L451 460L451 461L451 462L451 463L451 464L451 465L451 466L451 467L451 468L451 469L451 470L451 471L451 472L451 473L451 474L451 475L451 476L451 477L451 478L451 479L451 480L451 481L451 482L451 483L451 484L451 485L451 486L451 487L451 488L451 489L451 490L451 491L451 492L451 493L451 494L451 495L451 496L451 497L451 498L451 499L451 500L451 501L451 502L451 503L451 504L451 505L451 506L451 507L451 508L451 509L451 510L451 511L451 512L451 513L451 514L451 515L451 516L451 517L451 518L451 519L451 520L451 521L451 522L451 523L451 524L451 525L451 526L451 527L451 528L451 529L451 530L451 531L451 532L451 533L451 534L451 535L451 536L451 537L451 538L451 539L451 540L451 541L451 542L451 543L451 544L451 545L451 546L451 547L451 548L451 549L451 550L451 551L451 552L451 553L451 554L451 555L451 556L451 557L451 558L451 559L451 560L451 561L451 562L451 563L451 564L451 565L451 566L451 567L451 568L451 569L451 570L451 571L451 572L451 573L451 574L451 575L451 576L451 577L451 578L451 579L451 580L451 581L451 582L451 583L451 584L451 585L451 586L451 587L451 588L451 589L451 590L451 591L451 592L451 593L451 594L451 595L451 596L451 597L451 598L451 599L451 600L451 601L451 602L451 608L455 608L456 608L457 608L458 608L459 608L460 608L461 608L462 608L469 608L469 604L469 603L469 602L469 601L469 600L469 599L469 598L469 597L469 596L469 595L469 594L469 593L469 592L469 591L469 590L469 589L469 588L469 587L469 586L469 585L469 584L469 583L469 582L469 581L469 580L469 579L469 578L469 577L469 576L469 575L469 574L469 573L469 572L469 571L469 570L469 569L469 568L469 567L469 566L469 565L469 564L469 563L469 562L469 561L469 560L469 559L469 558L469 557L469 556L469 555L469 554L469 553L469 552L469 551L469 550L469 549L469 548L469 547L469 546L469 545L469 540L462 540L462 536L462 535L462 534L462 533L462 532L462 531L462 530L462 529L462 528L462 527L462 526L462 525L462 524L462 523L462 522L462 521L462 520L462 519L462 518L462 517L462 516L462 515L462 514L462 513L462 512L462 511L462 510L462 509L462 508L462 507L462 506L462 505L462 504L462 503L462 502L462 501L462 500L462 499L462 498L462 497L462 496L462 495L462 494L462 493L462 492L462 491L462 490L462 489L462 488L462 487L462 486L462 485L462 484L462 483L462 482L462 481L462 480L462 479L462 478L462 477L462 476L462 475L462 474L462 473L462 472L462 471L462 470L462 469L462 468L462 467L462 466L462 465L462 464L462 463L462 462L462 461L462 460L462 459L462 458L462 457L462 456L462 455L462 454L462 453L462 452L462 451L462 450L462 449L462 448L462 447L462 446L462 445L462 444L462 443L462 442L462 441L462 440L462 439L462 438L462 437L462 436L462 435L462 434L462 433L462 432L462 431L462 430L462 429L462 428L462 427L462 426L462 425L462 424L462 423L462 422L462 421L462 420L462 419L462 418L462 417L462 416L462 415L462 414L462 413L462 412L462 411L462 410L462 409L462 408L462 407L462 406L462 405L462 404L462 403L462 402L462 401L462 400L462 399L462 398L462 397L462 396L462 395L462 394L462 393L462 392L462 391L462 390L462 389L462 388L462 387L462 386L462 385L462 384L462 383L462 382L462 381L462 380L462 379L462 378L462 377L462 376L462 375L462 374L462 373L462 372L462 371L462 370L462 369L462 368L462 367L462 366L462 365L462 364L462 363L462 362L462 361L462 360L462 359L462 358L462 357L462 356L462 355L462 354L462 353L462 352L462 351L462 350L462 349L462 348L462 347L462 346L462 345L462 344L462 343L462 342L462 341L462 334L472 334L472 330L472 329L472 328L472 327L472 326L472 325L472 324L472 323L472 322L472 321L472 320L472 319L472 318L472 317L472 316L472 315L472 314L472 313L472 312L472 311L472 310L472 309L472 308L472 307L472 306L472 305L472 304L472 303L472 302L472 301L472 300L472 299L472 298L472 297L472 296L472 295L472 294L472 293L472 292L472 291L472 290L472 289L472 288L472 287L472 286L472 285L472 284L472 283L472 282L472 281L472 280L472 279L472 278L472 277L472 276L472 275L472 274L472 273L472 272L472 271L472 270L472 269L472 268L472 267L472 266L472 265L472 264L472 263L472 262L472 261L472 260L472 259L472 258L472 257L472 256L472 255L472 254L472 253L472 252L472 251L472 250L472 249L472 248L472 247L472 246L472 245L472 244L472 243L472 242L472 241L472 240L472 239L472 238L472 237L472 236L472 235L472 234L472 233L472 232L472 231L472 230L472 229L472 228L472 227L472 226L472 225L472 224L472 223L472 222L472 221L472 220L472 219L472 218L472 217L472 216L472 215L472 214L472 213L472 212L472 211L472 210L472 209L472 208L472 207L472 206L472 205L472 204L472 203L472 197L470 197L470 199L470 203L470 204L470 205L470 206L470 207L470 208L470 209L470 210L470 211L470 212L470 213L470 214L470 215L470 216L470 217L470 218L470 219L470 220L470 221L470 222L470 223L470 224L470 225L470 226L470 227L470 228L470 229L470 230L470 231L470 232L470 233L470 234L470 235L470 236L470 237L470 238L470 239L470 240L470 241L470 242L470 243L470 244L470 245L470 246L470 247L470 248L470 249L470 250L470 251L470 252L470 253L470 254L470 255L470 256L470 257L470 258L470 259L470 260L470 261L470 262L470 266L460 266L460 262L460 261L460 260L460 259L460 258L460 257L460 256L460 255L460 254L460 253L460 252L460 251L460 250L460 249L460 248L460 247L460 246L460 245L460 244L460 243L460 242L460 241L460 240L460 239L460 238L460 237L460 236L460 235L460 234L460 233L460 232L460 231L460 230L460 229L460 228L460 227L460 226L460 225L460 224L460 223L460 222L460 221L460 220L460 219L460 218L460 217L460 216L460 215L460 214L460 213L460 212L460 211L460 210L460 209L460 208L460 207L460 206L460 205L460 204L460 203L460 197L454 197M506 197L506 201L506 202L506 203L506 204L506 205L506 206L506 207L506 208L506 209L506 210L506 211L506 212L506 213L506 214L506 215L506 216L506 217L506 218L506 219L506 220L506 221L506 222L506 223L506 224L506 225L506 226L506 227L506 228L506 229L506 230L506 231L506 232L506 233L506 234L506 235L506 236L506 237L506 238L506 239L506 240L506 241L506 242L506 243L506 244L506 245L506 246L506 247L506 248L506 249L506 250L506 251L506 252L506 253L506 254L506 255L506 256L506 257L506 258L506 259L506 260L506 261L506 262L506 263L506 264L506 265L506 266L506 267L506 268L506 269L506 270L506 271L506 272L506 273L506 274L506 275L506 276L506 277L506 278L506 279L506 280L506 281L506 282L506 283L506 284L506 285L506 286L506 287L506 288L506 289L506 290L506 291L506 292L506 293L506 294L506 295L506 296L506 297L506 298L506 299L506 300L506 301L506 302L506 303L506 304L506 305L506 306L506 307L506 308L506 309L506 310L506 311L506 312L506 313L506 314L506 315L506 316L506 317L506 318L506 319L506 320L506 321L506 322L506 323L506 324L506 325L506 326L506 327L506 328L506 329L506 330L506 331L506 332L506 333L506 334L506 335L506 336L506 337L506 338L506 339L506 340L506 341L506 342L506 343L506 344L506 345L506 346L506 347L506 348L506 349L506 350L506 351L506 352L506 353L506 354L506 355L506 356L506 357L506 358L506 359L506 360L506 361L506 362L506 363L506 364L506 365L506 366L506 367L506 368L506 369L506 370L506 371L506 372L506 373L506 374L506 375L506 376L506 377L506 378L506 379L506 380L506 381L506 382L506 383L506 384L506 385L506 386L506 387L506 388L506 389L506 390L506 391L506 392L506 393L506 394L506 395L506 396L506 397L506 398L506 399L506 400L506 401L506 402L506 403L506 404L506 405L506 406L506 407L506 408L506 409L506 410L506 411L506 412L506 413L506 414L506 415L506 416L506 417L506 418L506 419L506 420L506 421L506 422L506 423L506 424L506 425L506 426L506 427L506 428L506 429L506 430L506 431L506 432L506 433L506 434L506 435L506 436L506 437L506 438L506 439L506 440L506 441L506 442L506 443L506 444L506 445L506 446L506 447L506 448L506 449L506 450L506 451L506 452L506 453L506 454L506 455L506 456L506 457L506 458L506 459L506 460L506 461L506 462L506 463L506 464L506 465L506 466L506 467L506 468L506 469L506 470L506 471L506 472L506 473L506 474L506 475L506 476L506 477L506 478L506 479L506 480L506 481L506 482L506 483L506 484L506 485L506 486L506 487L506 488L506 489L506 490L506 491L506 492L506 493L506 494L506 495L506 496L506 497L506 498L506 499L506 500L506 501L506 502L506 503L506 504L506 505L506 506L506 507L506 508L506 509L506 510L506 511L506 512L506 513L506 514L506 515L506 516L506 517L506 518L506 519L506 520L506 521L506 522L506 523L506 524L506 525L506 526L506 527L506 528L506 529L506 530L506 531L506 532L506 533L506 534L506 535L506 536L506 537L506 538L506 539L506 540L506 541L506 542L506 543L506 544L506 545L506 546L506 547L506 548L506 549L506 550L506 551L506 552L506 553L506 554L506 555L506 556L506 557L506 558L506 559L506 560L506 561L506 562L506 563L506 564L506 565L506 566L506 567L506 568L506 569L506 570L506 571L506 572L506 573L506 574L506 575L506 576L506 577L506 578L506 579L506 580L506 581L506 582L506 583L506 584L506 585L506 586L506 587L506 588L506 589L506 590L506 591L506 592L506 593L506 594L506 595L506 596L506 597L506 598L506 599L506 600L506 601L506 602L506 603L506 604L506 608L510 608L510 604L510 603L510 602L510 601L510 600L510 599L510 598L510 597L510 596L510 595L510 594L510 593L510 592L510 591L510 590L510 589L510 588L510 587L510 586L510 585L510 584L510 583L510 582L510 581L510 580L510 579L510 578L510 577L510 576L510 575L510 574L510 573L510 572L510 571L510 570L510 569L510 568L510 567L510 566L510 565L510 564L510 563L510 562L510 561L510 560L510 559L510 558L510 557L510 556L510 555L510 554L510 553L510 552L510 551L510 550L510 549L510 548L510 547L510 546L510 545L510 544L510 543L510 542L510 541L510 540L510 539L510 538L510 537L510 536L510 535L510 534L510 533L510 532L510 531L510 530L510 529L510 528L510 527L510 526L510 525L510 524L510 523L510 522L510 521L510 520L510 519L510 518L510 517L510 516L510 515L510 514L510 513L510 512L510 511L510 510L510 509L510 508L510 507L510 506L510 505L510 504L510 503L510 502L510 501L510 500L510 499L510 498L510 497L510 496L510 495L510 494L510 493L510 492L510 491L510 490L510 489L510 488L510 487L510 486L510 485L510 484L510 483L510 482L510 481L510 480L510 479L510 478L510 477L510 472L509 472L509 469L509 465L509 464L509 463L509 462L509 461L509 460L509 459L509 458L509 457L509 456L509 455L509 454L509 453L509 452L509 451L509 450L509 449L509 448L509 447L509 446L509 445L509 444L509 443L509 442L509 441L509 440L509 439L509 438L509 437L509 436L509 435L509 434L509 433L509 432L509 431L509 430L509 429L509 428L509 427L509 426L509 425L509 424L509 423L509 422L509 421L509 420L509 419L509 418L509 417L509 416L509 415L509 414L509 413L509 412L509 411L509 410L509 409L509 408L509 407L509 406L509 405L509 404L509 403L509 402L509 401L509 400L509 399L509 398L509 397L509 396L509 395L509 394L509 393L509 392L509 391L509 390L509 389L509 388L509 387L509 386L509 385L509 384L509 383L509 382L509 381L509 380L509 379L509 378L509 377L509 376L509 375L509 374L509 373L509 372L509 371L509 370L509 369L509 368L509 367L509 366L509 365L509 364L509 363L509 362L509 361L509 360L509 359L509 358L509 357L509 356L509 355L509 354L509 353L509 352L509 351L509 350L509 349L509 348L509 347L509 346L509 345L509 344L509 343L509 342L509 335L510 334L512 334L521 334L521 330L521 329L521 328L521 327L521 326L521 325L521 324L521 323L521 322L521 321L521 320L521 319L521 318L521 317L521 316L521 315L521 314L521 313L521 312L521 311L521 310L521 309L521 308L521 307L521 306L521 305L521 304L521 303L521 302L521 301L521 300L521 299L521 298L521 297L521 296L521 295L521 294L521 293L521 292L521 291L521 290L521 289L521 288L521 287L521 286L521 285L521 284L521 283L521 282L521 281L521 280L521 279L521 278L521 277L521 276L521 275L521 274L521 273L521 272L521 271L521 266L513 266L513 262L513 261L513 260L513 259L513 258L513 257L513 256L513 255L513 254L513 253L513 252L513 251L513 250L513 249L513 248L513 247L513 246L513 245L513 244L513 243L513 242L513 241L513 240L513 239L513 238L513 237L513 236L513 235L513 234L513 233L513 232L513 231L513 230L513 229L513 228L513 227L513 226L513 225L513 224L513 223L513 222L513 221L513 220L513 219L513 218L513 217L513 216L513 215L513 214L513 213L513 212L513 211L513 210L513 209L513 208L513 207L513 206L513 205L513 204L513 203L513 197L506 197M470 540L470 544L470 545L470 546L470 547L470 548L470 549L470 550L470 551L470 552L470 553L470 554L470 555L470 556L470 557L470 558L470 559L470 560L470 561L470 562L470 563L470 564L470 565L470 566L470 567L470 568L470 569L470 570L470 571L470 572L470 573L470 574L470 575L470 576L470 577L470 578L470 579L470 580L470 581L470 582L470 583L470 584L470 585L470 586L470 587L470 588L470 589L470 590L470 591L470 592L470 593L470 594L470 595L470 596L470 597L470 598L470 599L470 600L470 601L470 602L470 603L470 608L471 608L471 605L471 601L471 600L471 599L471 598L471 597L471 596L471 595L471 594L471 593L471 592L471 591L471 590L471 589L471 588L471 587L471 586L471 585L471 584L471 583L471 582L471 581L471 580L471 579L471 578L471 577L471 576L471 575L471 574L471 573L471 572L471 571L471 570L471 569L471 568L471 567L471 566L471 565L471 564L471 563L471 562L471 561L471 560L471 559L471 558L471 557L471 556L471 555L471 554L471 553L471 552L471 551L471 550L471 549L471 548L471 547L471 546L470 540M431 677L431 681L431 682L431 683L431 684L431 685L431 686L431 687L431 688L431 689L431 690L431 691L431 692L431 693L431 694L431 695L431 696L431 697L431 698L431 699L431 700L431 701L431 702L431 703L431 704L431 705L431 706L431 707L431 708L431 709L431 710L431 711L431 712L431 713L431 714L431 715L431 716L431 717L431 718L431 719L431 720L431 721L431 722L431 723L431 724L431 725L431 726L431 727L431 728L431 729L431 730L431 731L431 732L431 733L431 734L431 735L431 736L431 737L431 738L431 739L431 740L431 745L435 745L436 745L437 745L438 745L444 745L444 741L444 740L444 739L444 738L444 737L444 736L444 735L444 734L444 733L444 732L444 731L444 730L444 729L444 728L444 727L444 726L444 725L444 724L444 723L444 722L444 721L444 720L444 719L444 718L444 717L444 716L444 715L444 714L444 713L444 712L444 711L444 710L444 709L444 708L444 707L444 706L444 705L444 704L444 703L444 702L444 701L444 700L444 699L444 698L444 697L444 696L444 695L444 694L444 693L444 692L444 691L444 690L444 689L444 688L444 687L444 686L444 685L444 684L444 683L444 682L444 677L440 677L439 677L438 677L437 677L431 677M451 677L451 681L451 682L451 683L451 684L451 685L451 686L451 687L451 688L451 689L451 690L451 691L451 692L451 693L451 694L451 695L451 696L451 697L451 698L451 699L451 700L451 701L451 702L451 703L451 704L451 705L451 706L451 707L451 708L451 709L451 710L451 711L451 712L451 713L451 714L451 715L451 716L451 717L451 718L451 719L451 720L451 721L451 722L451 723L451 724L451 725L451 726L451 727L451 728L451 729L451 730L451 731L451 732L451 733L451 734L451 735L451 736L451 737L451 738L451 739L451 740L451 745L455 745L456 745L457 745L458 745L464 745L464 741L464 740L464 739L464 738L464 737L464 736L464 735L464 734L464 733L464 732L464 731L464 730L464 729L464 728L464 727L464 726L464 725L464 724L464 723L464 722L464 721L464 720L464 719L464 718L464 717L464 716L464 715L464 714L464 713L464 712L464 711L464 710L464 709L464 708L464 707L464 706L464 705L464 704L464 703L464 702L464 701L464 700L464 699L464 698L464 697L464 696L464 695L464 694L464 693L464 692L464 691L464 690L464 689L464 688L464 687L464 686L464 685L464 684L464 683L464 682L464 677L460 677L459 677L458 677L457 677L451 677M506 677L506 681L506 682L506 683L506 684L506 685L506 686L506 687L506 688L506 689L506 690L506 691L506 692L506 693L506 694L506 695L506 696L506 697L506 698L506 699L506 700L506 701L506 702L506 703L506 704L506 705L506 706L506 707L506 708L506 709L506 710L506 711L506 712L506 713L506 714L506 715L506 716L506 717L506 718L506 719L506 720L506 721L506 722L506 723L506 724L506 725L506 726L506 727L506 728L506 729L506 730L506 731L506 732L506 733L506 734L506 735L506 736L506 737L506 738L506 739L506 740L506 745L513 745L513 741L513 740L513 739L513 738L513 737L513 736L513 735L513 734L513 733L513 732L513 731L513 730L513 729L513 728L513 727L513 726L513 725L513 724L513 723L513 722L513 721L513 720L513 719L513 718L513 717L513 716L513 715L513 714L513 713L513 712L513 711L513 710L513 709L513 708L513 707L513 706L513 705L513 704L513 703L513 702L513 701L513 700L513 699L513 698L513 697L513 696L513 695L513 694L513 693L513 692L513 691L513 690L513 689L513 688L513 687L513 686L513 685L513 684L513 683L513 682L513 677L506 677M519 677L519 681L519 682L519 683L519 684L519 685L519 686L519 687L519 688L519 689L519 690L519 691L519 692L519 693L519 694L519 695L519 696L519 697L519 698L519 699L519 700L519 701L519 702L519 703L519 704L519 705L519 706L519 707L519 708L519 709L519 710L519 711L519 712L519 713L519 714L519 715L519 716L519 717L519 718L519 719L519 720L519 721L519 722L519 723L519 724L519 725L519 726L519 727L519 728L519 729L519 730L519 731L519 732L519 733L519 734L519 735L519 736L519 737L519 738L519 739L519 740L519 745L520 745L520 742L520 738L520 737L520 736L520 735L520 734L520 733L520 732L520 731L520 730L520 729L520 728L520 727L520 726L520 725L520 724L520 723L520 722L520 721L520 720L520 719L520 718L520 717L520 716L520 715L520 714L520 713L520 712L520 711L520 710L520 709L520 708L520 707L520 706L520 705L520 704L520 703L520 702L520 701L520 700L520 699L520 698L520 697L520 696L520 695L520 694L520 693L520 692L520 691L520 690L520 689L520 688L520 687L520 686L520 685L520 684L520 683L519 677z"/>
</svg>
