<?xml version="1.0" standalone="yes"?>
<svg width="900" height="900">
<path style="fill:#060606; stroke:none;" d="M241 266L241 270L241 271L241 272L241 273L241 274L241 275L241 276L241 277L241 278L241 279L241 280L241 281L241 282L241 283L241 284L241 285L241 286L241 287L241 288L241 289L241 290L241 291L241 292L241 293L241 294L241 295L241 296L241 297L241 298L241 299L241 300L241 301L241 302L241 303L241 304L241 305L241 306L241 307L241 308L241 309L241 310L241 311L241 312L241 313L241 314L241 315L241 316L241 317L241 318L241 319L241 320L241 321L241 322L241 323L241 324L241 325L241 326L241 327L241 328L241 329L241 334L242 334L242 331L242 327L242 326L242 325L242 324L242 323L242 322L242 321L242 320L242 319L242 318L242 317L242 316L242 315L242 314L242 313L242 312L242 311L242 310L242 309L242 308L242 307L242 306L242 305L242 304L242 303L242 302L242 301L242 300L242 299L242 298L242 297L242 296L242 295L242 294L242 293L242 292L242 291L242 290L242 289L242 288L242 287L242 286L242 285L242 284L242 283L242 282L242 281L242 280L242 279L242 278L242 277L242 276L242 275L242 274L242 273L242 272L241 266M315 266L315 270L315 271L315 272L315 273L315 274L315 275L315 276L315 277L315 278L315 279L315 280L315 281L315 282L315 283L315 284L315 285L315 286L315 287L315 288L315 289L315 290L315 291L315 292L315 293L315 294L315 295L315 296L315 297L315 298L315 299L315 300L315 301L315 302L315 303L315 304L315 305L315 306L315 307L315 308L315 309L315 310L315 311L315 312L315 313L315 314L315 315L315 316L315 317L315 318L315 319L315 320L315 321L315 322L315 323L315 324L315 325L315 326L315 327L315 328L315 329L315 334L316 334L316 331L316 327L316 326L316 325L316 324L316 323L316 322L316 321L316 320L316 319L316 318L316 317L316 316L316 315L316 314L316 313L316 312L316 311L316 310L316 309L316 308L316 307L316 306L316 305L316 304L316 303L316 302L316 301L316 300L316 299L316 298L316 297L316 296L316 295L316 294L316 293L316 292L316 291L316 290L316 289L316 288L316 287L316 286L316 285L316 284L316 283L316 282L316 281L316 280L316 279L316 278L316 277L316 276L316 275L316 274L316 273L316 272L315 266M326 266L326 270L326 271L326 272L326 273L326 274L326 275L326 276L326 277L326 278L326 279L326 280L326 281L326 282L326 283L326 284L326 285L326 286L326 287L326 288L326 289L326 290L326 291L326 292L326 293L326 294L326 295L326 296L326 297L326 298L326 299L326 300L326 301L326 302L326 303L326 304L326 305L326 306L326 307L326 308L326 309L326 310L326 311L326 312L326 313L326 314L326 315L326 316L326 317L326 318L326 319L326 320L326 321L326 322L326 323L326 324L326 325L326 326L326 327L326 328L326 329L326 334L327 334L327 331L327 327L327 326L327 325L327 324L327 323L327 322L327 321L327 320L327 319L327 318L327 317L327 316L327 315L327 314L327 313L327 312L327 311L327 310L327 309L327 308L327 307L327 306L327 305L327 304L327 303L327 302L327 301L327 300L327 299L327 298L327 297L327 296L327 295L327 294L327 293L327 292L327 291L327 290L327 289L327 288L327 287L327 286L327 285L327 284L327 283L327 282L327 281L327 280L327 279L327 278L327 277L327 276L327 275L327 274L327 273L327 272L326 266M503 266L503 270L503 271L503 272L503 273L503 274L503 275L503 276L503 277L503 278L503 279L503 280L503 281L503 282L503 283L503 284L503 285L503 286L503 287L503 288L503 289L503 290L503 291L503 292L503 293L503 294L503 295L503 296L503 297L503 298L503 299L503 300L503 301L503 302L503 303L503 304L503 305L503 306L503 307L503 308L503 309L503 310L503 311L503 312L503 313L503 314L503 315L503 316L503 317L503 318L503 319L503 320L503 321L503 322L503 323L503 324L503 325L503 326L503 327L503 328L503 329L503 334L505 334L505 332L505 328L505 327L505 326L505 325L505 324L505 323L505 322L505 321L505 320L505 319L505 318L505 317L505 316L505 315L505 314L505 313L505 312L505 311L505 310L505 309L505 308L505 307L505 306L505 305L505 304L505 303L505 302L505 301L505 300L505 299L505 298L505 297L505 296L505 295L505 294L505 293L505 292L505 291L505 290L505 289L505 288L505 287L505 286L505 285L505 284L505 283L505 282L505 281L505 280L505 279L505 278L505 277L505 276L505 275L505 274L505 273L505 266L503 266M336 335L336 339L336 340L336 341L336 342L336 343L336 344L336 345L336 346L336 347L336 348L336 349L336 350L336 351L336 352L336 353L336 354L336 355L336 356L336 357L336 358L336 359L336 360L336 361L336 362L336 363L336 364L336 365L336 366L336 367L336 368L336 369L336 370L336 371L336 372L336 373L336 374L336 375L336 376L336 377L336 378L336 379L336 380L336 381L336 382L336 383L336 384L336 385L336 386L336 387L336 388L336 389L336 390L336 391L336 392L336 393L336 394L336 395L336 396L336 397L336 398L336 403L340 403L340 407L340 408L340 409L340 410L340 411L340 412L340 413L340 414L340 415L340 416L340 417L340 418L340 419L340 420L340 421L340 422L340 423L340 424L340 425L340 426L340 427L340 428L340 429L340 430L340 431L340 432L340 433L340 434L340 435L340 436L340 437L340 438L340 439L340 440L340 441L340 442L340 443L340 444L340 445L340 446L340 447L340 448L340 449L340 450L340 451L340 452L340 453L340 454L340 455L340 456L340 457L340 458L340 459L340 460L340 461L340 462L340 463L340 464L340 465L340 466L340 467L340 468L340 469L340 470L340 471L340 472L340 473L340 474L340 475L340 476L340 477L340 478L340 479L340 480L340 481L340 482L340 483L340 484L340 485L340 486L340 487L340 488L340 489L340 490L340 491L340 492L340 493L340 494L340 495L340 496L340 497L340 498L340 499L340 500L340 501L340 502L340 503L340 504L340 505L340 506L340 507L340 508L340 509L340 510L340 511L340 512L340 513L340 514L340 515L340 516L340 517L340 518L340 519L340 520L340 521L340 522L340 523L340 524L340 525L340 526L340 527L340 528L340 529L340 530L340 531L340 532L340 533L340 534L340 540L337 540L337 541L337 545L337 546L337 547L337 548L337 549L337 550L337 551L337 552L337 553L337 554L337 555L337 556L337 557L337 558L337 559L337 560L337 561L337 562L337 563L337 564L337 565L337 566L337 567L337 568L337 569L337 570L337 571L337 572L337 573L337 574L337 575L337 576L337 577L337 578L337 579L337 580L337 581L337 582L337 583L337 584L337 585L337 586L337 587L337 588L337 589L337 590L337 591L337 592L337 593L337 594L337 595L337 596L337 597L337 598L337 599L337 600L337 601L337 602L337 603L337 604L337 609L338 609L338 612L338 616L338 617L338 618L338 619L338 620L338 621L338 622L338 623L338 624L338 625L338 626L338 627L338 628L338 629L338 630L338 631L338 632L338 633L338 634L338 635L338 636L338 637L338 638L338 639L338 640L338 641L338 642L338 643L338 644L338 645L338 646L338 647L338 648L338 649L338 650L338 651L338 652L338 653L338 654L338 655L338 656L338 657L338 658L338 659L338 660L338 661L338 662L338 663L338 664L338 665L338 666L338 667L338 668L338 669L338 670L338 671L338 677L336 677L336 679L336 683L336 684L336 685L336 686L336 687L336 688L336 689L336 690L336 691L336 692L336 693L336 694L336 695L336 696L336 697L336 698L336 699L336 700L336 701L336 702L336 703L336 704L336 705L336 706L336 707L336 708L336 709L336 710L336 711L336 712L336 713L336 714L336 715L336 716L336 717L336 718L336 719L336 720L336 721L336 722L336 723L336 724L336 725L336 726L336 727L336 728L336 729L336 730L336 731L336 732L336 733L336 734L336 735L336 736L336 737L336 738L336 745L340 745L341 745L342 745L343 745L344 745L345 745L346 745L347 745L348 745L349 745L350 745L351 745L356 745L356 741L356 740L356 739L356 738L356 737L356 736L356 735L356 734L356 733L356 732L356 731L356 730L356 729L356 728L356 727L356 726L356 725L356 724L356 723L356 722L356 721L356 720L356 719L356 718L356 717L356 716L356 715L356 714L356 713L356 712L356 711L356 710L356 709L356 708L356 707L356 706L356 705L356 704L356 703L356 702L356 701L356 700L356 699L356 698L356 697L356 696L356 695L356 694L356 693L356 692L356 691L356 690L356 689L356 688L356 687L356 686L356 685L356 684L356 683L356 682L356 681L356 680L356 679L356 678L356 677L356 676L356 675L356 674L356 673L356 672L356 671L356 670L356 669L356 668L356 667L356 666L356 665L356 664L356 663L356 662L356 661L356 660L356 659L356 658L356 657L356 656L356 655L356 654L356 653L356 652L356 651L356 650L356 649L356 648L356 647L356 646L356 645L356 644L356 643L356 642L356 641L356 640L356 639L356 638L356 637L356 636L356 635L356 634L356 633L356 632L356 631L356 630L356 629L356 628L356 627L356 626L356 625L356 624L356 623L356 622L356 621L356 620L356 619L356 618L356 617L356 616L356 615L356 614L356 613L356 612L356 611L356 610L356 609L356 608L356 607L356 606L356 605L356 604L356 603L356 602L356 601L356 600L356 599L356 598L356 597L356 596L356 595L356 594L356 593L356 592L356 591L356 590L356 589L356 588L356 587L356 586L356 585L356 584L356 583L356 582L356 581L356 580L356 579L356 578L356 577L356 576L356 575L356 574L356 573L356 572L356 571L356 570L356 569L356 568L356 567L356 566L356 565L356 564L356 563L356 562L356 561L356 560L356 559L356 558L356 557L356 556L356 555L356 554L356 553L356 552L356 551L356 550L356 549L356 548L356 547L356 546L356 545L356 544L356 543L356 542L356 541L356 540L356 539L356 538L356 537L356 536L356 535L356 534L356 533L356 532L356 531L356 530L356 529L356 528L356 527L356 526L356 525L356 524L356 523L356 522L356 521L356 520L356 519L356 518L356 517L356 516L356 515L356 514L356 513L356 512L356 511L356 510L356 509L356 508L356 507L356 506L356 505L356 504L356 503L356 502L356 501L356 500L356 499L356 498L356 497L356 496L356 495L356 494L356 493L356 492L356 491L356 490L356 489L356 488L356 487L356 486L356 485L356 484L356 483L356 482L356 481L356 480L356 479L356 478L356 477L356 476L356 475L356 474L356 473L356 472L356 471L356 470L356 469L356 468L356 467L356 466L356 465L356 464L356 463L356 462L356 461L356 460L356 459L356 458L356 457L356 456L356 455L356 454L356 453L356 452L356 451L356 450L356 449L356 448L356 447L356 446L356 445L356 444L356 443L356 442L356 441L356 440L356 439L356 438L356 437L356 436L356 435L356 434L356 433L356 432L356 431L356 430L356 429L356 428L356 427L356 426L356 425L356 424L356 423L356 422L356 421L356 420L356 419L356 418L356 417L356 416L356 415L356 414L356 413L356 412L356 411L356 410L356 409L356 408L356 407L356 406L356 405L356 404L356 403L356 402L356 401L356 400L356 399L356 398L356 397L356 396L356 395L356 394L356 393L356 392L356 391L356 390L356 389L356 388L356 387L356 386L356 385L356 384L356 383L356 382L356 381L356 380L356 379L356 378L356 377L356 376L356 375L356 374L356 373L356 372L356 371L356 370L356 369L356 368L356 367L356 366L356 365L356 364L356 363L356 362L356 361L356 360L356 359L356 358L356 357L356 356L356 355L356 354L356 353L356 352L356 351L356 350L356 349L356 348L356 347L356 346L356 345L356 344L356 343L356 342L356 335L352 335L351 335L350 335L349 335L348 335L347 335L346 335L345 335L344 335L343 335L342 335L341 335L336 335M390 335L390 339L390 340L390 341L390 342L390 343L390 344L390 345L390 346L390 347L390 348L390 349L390 350L390 351L390 352L390 353L390 354L390 355L390 356L390 357L390 358L390 359L390 360L390 361L390 362L390 363L390 364L390 365L390 366L390 367L390 368L390 369L390 370L390 371L390 372L390 373L390 374L390 375L390 376L390 377L390 378L390 379L390 380L390 381L390 382L390 383L390 384L390 385L390 386L390 387L390 388L390 389L390 390L390 391L390 392L390 393L390 394L390 395L390 396L390 397L390 398L390 399L390 400L390 401L390 402L390 403L390 404L390 405L390 406L390 407L390 408L390 409L390 410L390 411L390 412L390 413L390 414L390 415L390 416L390 417L390 418L390 419L390 420L390 421L390 422L390 423L390 424L390 425L390 426L390 427L390 428L390 429L390 430L390 431L390 432L390 433L390 434L390 435L390 436L390 437L390 438L390 439L390 440L390 441L390 442L390 443L390 444L390 445L390 446L390 447L390 448L390 449L390 450L390 451L390 452L390 453L390 454L390 455L390 456L390 457L390 458L390 459L390 460L390 461L390 462L390 463L390 464L390 465L390 466L390 467L390 468L390 469L390 470L390 471L390 472L390 473L390 474L390 475L390 476L390 477L390 478L390 479L390 480L390 481L390 482L390 483L390 484L390 485L390 486L390 487L390 488L390 489L390 490L390 491L390 492L390 493L390 494L390 495L390 496L390 497L390 498L390 499L390 500L390 501L390 502L390 503L390 504L390 505L390 506L390 507L390 508L390 509L390 510L390 511L390 512L390 513L390 514L390 515L390 516L390 517L390 518L390 519L390 520L390 521L390 522L390 523L390 524L390 525L390 526L390 527L390 528L390 529L390 530L390 531L390 532L390 533L390 534L390 535L390 536L390 537L390 538L390 539L390 540L390 541L390 542L390 543L390 544L390 545L390 546L390 547L390 548L390 549L390 550L390 551L390 552L390 553L390 554L390 555L390 556L390 557L390 558L390 559L390 560L390 561L390 562L390 563L390 564L390 565L390 566L390 567L390 568L390 569L390 570L390 571L390 572L390 573L390 574L390 575L390 576L390 577L390 578L390 579L390 580L390 581L390 582L390 583L390 584L390 585L390 586L390 587L390 588L390 589L390 590L390 591L390 592L390 593L390 594L390 595L390 596L390 597L390 598L390 599L390 600L390 601L390 602L390 603L390 604L390 605L390 606L390 607L390 608L390 609L390 610L390 611L390 612L390 613L390 614L390 615L390 616L390 617L390 618L390 619L390 620L390 621L390 622L390 623L390 624L390 625L390 626L390 627L390 628L390 629L390 630L390 631L390 632L390 633L390 634L390 635L390 636L390 637L390 638L390 639L390 640L390 641L390 642L390 643L390 644L390 645L390 646L390 647L390 648L390 649L390 650L390 651L390 652L390 653L390 654L390 655L390 656L390 657L390 658L390 659L390 660L390 661L390 662L390 663L390 664L390 665L390 666L390 667L390 668L390 669L390 670L390 671L390 672L390 673L390 674L390 675L390 676L390 677L390 678L390 679L390 680L390 681L390 682L390 683L390 684L390 685L390 686L390 687L390 688L390 689L390 690L390 691L390 692L390 693L390 694L390 695L390 696L390 697L390 698L390 699L390 700L390 701L390 702L390 703L390 704L390 705L390 706L390 707L390 708L390 709L390 710L390 711L390 712L390 713L390 714L390 715L390 716L390 717L390 718L390 719L390 720L390 721L390 722L390 723L390 724L390 725L390 726L390 727L390 728L390 729L390 730L390 731L390 732L390 733L390 734L390 735L390 736L390 737L390 738L390 745L394 745L395 745L396 745L397 745L398 745L399 745L400 745L401 745L406 745L406 741L406 740L406 739L406 738L406 737L406 736L406 735L406 734L406 733L406 732L406 731L406 730L406 729L406 728L406 727L406 726L406 725L406 724L406 723L406 722L406 721L406 720L406 719L406 718L406 717L406 716L406 715L406 714L406 713L406 712L406 711L406 710L406 709L406 708L406 707L406 706L406 705L406 704L406 703L406 702L406 701L406 700L406 699L406 698L406 697L406 696L406 695L406 694L406 693L406 692L406 691L406 690L406 689L406 688L406 687L406 686L406 685L406 684L406 683L406 682L406 681L406 680L406 679L406 678L406 677L406 676L406 675L406 674L406 673L406 672L406 671L406 670L406 669L406 668L406 667L406 666L406 665L406 664L406 663L406 662L406 661L406 660L406 659L406 658L406 657L406 656L406 655L406 654L406 653L406 652L406 651L406 650L406 649L406 648L406 647L406 646L406 645L406 644L406 643L406 642L406 641L406 640L406 639L406 638L406 637L406 636L406 635L406 634L406 633L406 632L406 631L406 630L406 629L406 628L406 627L406 626L406 625L406 624L406 623L406 622L406 621L406 620L406 619L406 618L406 617L406 616L406 615L406 614L406 608L409 608L409 607L409 603L409 602L409 601L409 600L409 599L409 598L409 597L409 596L409 595L409 594L409 593L409 592L409 591L409 590L409 589L409 588L409 587L409 586L409 585L409 584L409 583L409 582L409 581L409 580L409 579L409 578L409 577L409 576L409 575L409 574L409 573L409 572L409 571L409 570L409 569L409 568L409 567L409 566L409 565L409 564L409 563L409 562L409 561L409 560L409 559L409 558L409 557L409 556L409 555L409 554L409 553L409 552L409 551L409 550L409 549L409 548L409 547L409 546L409 545L409 544L409 540L406 540L406 539L406 535L406 534L406 533L406 532L406 531L406 530L406 529L406 528L406 527L406 526L406 525L406 524L406 523L406 522L406 521L406 520L406 519L406 518L406 517L406 516L406 515L406 514L406 513L406 512L406 511L406 510L406 509L406 508L406 507L406 506L406 505L406 504L406 503L406 502L406 501L406 500L406 499L406 498L406 497L406 496L406 495L406 494L406 493L406 492L406 491L406 490L406 489L406 488L406 487L406 486L406 485L406 484L406 483L406 482L406 481L406 480L406 479L406 478L406 477L406 476L406 475L406 474L406 473L406 472L406 471L406 470L406 469L406 468L406 467L406 466L406 465L406 464L406 463L406 462L406 461L406 460L406 459L406 458L406 457L406 456L406 455L406 454L406 453L406 452L406 451L406 450L406 449L406 448L406 447L406 446L406 445L406 444L406 443L406 442L406 441L406 440L406 439L406 438L406 437L406 436L406 435L406 434L406 433L406 432L406 431L406 430L406 429L406 428L406 427L406 426L406 425L406 424L406 423L406 422L406 421L406 420L406 419L406 418L406 417L406 416L406 415L406 414L406 413L406 412L406 411L406 410L406 409L406 408L406 403L410 403L410 399L410 398L410 397L410 396L410 395L410 394L410 393L410 392L410 391L410 390L410 389L410 388L410 387L410 386L410 385L410 384L410 383L410 382L410 381L410 380L410 379L410 378L410 377L410 376L410 375L410 374L410 373L410 372L410 371L410 370L410 369L410 368L410 367L410 366L410 365L410 364L410 363L410 362L410 361L410 360L410 359L410 358L410 357L410 356L410 355L410 354L410 353L410 352L410 351L410 350L410 349L410 348L410 347L410 346L410 345L410 344L410 343L410 342L410 341L410 340L410 335L406 335L405 335L404 335L403 335L402 335L401 335L400 335L399 335L398 335L397 335L396 335L395 335L390 335M407 677L407 681L407 682L407 683L407 684L407 685L407 686L407 687L407 688L407 689L407 690L407 691L407 692L407 693L407 694L407 695L407 696L407 697L407 698L407 699L407 700L407 701L407 702L407 703L407 704L407 705L407 706L407 707L407 708L407 709L407 710L407 711L407 712L407 713L407 714L407 715L407 716L407 717L407 718L407 719L407 720L407 721L407 722L407 723L407 724L407 725L407 726L407 727L407 728L407 729L407 730L407 731L407 732L407 733L407 734L407 735L407 736L407 737L407 738L407 739L407 740L407 745L408 745L408 742L408 738L408 737L408 736L408 735L408 734L408 733L408 732L408 731L408 730L408 729L408 728L408 727L408 726L408 725L408 724L408 723L408 722L408 721L408 720L408 719L408 718L408 717L408 716L408 715L408 714L408 713L408 712L408 711L408 710L408 709L408 708L408 707L408 706L408 705L408 704L408 703L408 702L408 701L408 700L408 699L408 698L408 697L408 696L408 695L408 694L408 693L408 692L408 691L408 690L408 689L408 688L408 687L408 686L408 685L408 684L408 683L407 677z"/>
</svg>
