<?xml version="1.0" standalone="yes"?>
<svg width="900" height="900">
<path style="fill:#0c0c0c; stroke:none;" d="M215 266L214 269L214 273L214 274L214 275L214 276L214 277L214 278L214 279L214 280L214 281L214 282L214 283L214 284L214 285L214 286L214 287L214 288L214 289L214 290L214 291L214 292L214 293L214 294L214 295L214 296L214 297L214 298L214 299L214 300L214 301L214 302L214 303L214 304L214 305L214 306L214 307L214 308L214 309L214 310L214 311L214 312L214 313L214 314L214 315L214 316L214 317L214 318L214 319L214 320L214 321L214 322L214 323L214 324L214 325L214 326L214 327L214 328L214 334L216 334L216 332L216 328L216 327L216 326L216 325L216 324L216 323L216 322L216 321L216 320L216 319L216 318L216 317L216 316L216 315L216 314L216 313L216 312L216 311L216 310L216 309L216 308L216 307L216 306L216 305L216 304L216 303L216 302L216 301L216 300L216 299L216 298L216 297L216 296L216 295L216 294L216 293L216 292L216 291L216 290L216 289L216 288L216 287L216 286L216 285L216 284L216 283L216 282L216 281L216 280L216 279L216 278L216 277L216 276L216 275L216 274L216 273L215 266M264 266L264 270L264 271L264 272L264 273L264 274L264 275L264 276L264 277L264 278L264 279L264 280L264 281L264 282L264 283L264 284L264 285L264 286L264 287L264 288L264 289L264 290L264 291L264 292L264 293L264 294L264 295L264 296L264 297L264 298L264 299L264 300L264 301L264 302L264 303L264 304L264 305L264 306L264 307L264 308L264 309L264 310L264 311L264 312L264 313L264 314L264 315L264 316L264 317L264 318L264 319L264 320L264 321L264 322L264 323L264 324L264 325L264 326L264 327L264 328L264 329L264 335L265 335L266 333L266 329L266 328L266 327L266 326L266 325L266 324L266 323L266 322L266 321L266 320L266 319L266 318L266 317L266 316L266 315L266 314L266 313L266 312L266 311L266 310L266 309L266 308L266 307L266 306L266 305L266 304L266 303L266 302L266 301L266 300L266 299L266 298L266 297L266 296L266 295L266 294L266 293L266 292L266 291L266 290L266 289L266 288L266 287L266 286L266 285L266 284L266 283L266 282L266 281L266 280L266 279L266 278L266 277L266 276L266 275L266 274L264 266M285 266L285 270L285 271L285 272L285 273L285 274L285 275L285 276L285 277L285 278L285 279L285 280L285 281L285 282L285 283L285 284L285 285L285 286L285 287L285 288L285 289L285 290L285 291L285 292L285 293L285 294L285 295L285 296L285 297L285 298L285 299L285 300L285 301L285 302L285 303L285 304L285 305L285 306L285 307L285 308L285 309L285 310L285 311L285 312L285 313L285 314L285 315L285 316L285 317L285 318L285 319L285 320L285 321L285 322L285 323L285 324L285 325L285 326L285 327L285 328L285 329L285 335L286 335L287 333L287 329L287 328L287 327L287 326L287 325L287 324L287 323L287 322L287 321L287 320L287 319L287 318L287 317L287 316L287 315L287 314L287 313L287 312L287 311L287 310L287 309L287 308L287 307L287 306L287 305L287 304L287 303L287 302L287 301L287 300L287 299L287 298L287 297L287 296L287 295L287 294L287 293L287 292L287 291L287 290L287 289L287 288L287 287L287 286L287 285L287 284L287 283L287 282L287 281L287 280L287 279L287 278L287 277L287 276L287 275L287 274L285 266M326 266L326 270L326 271L326 272L326 273L326 274L326 275L326 276L326 277L326 278L326 279L326 280L326 281L326 282L326 283L326 284L326 285L326 286L326 287L326 288L326 289L326 290L326 291L326 292L326 293L326 294L326 295L326 296L326 297L326 298L326 299L326 300L326 301L326 302L326 303L326 304L326 305L326 306L326 307L326 308L326 309L326 310L326 311L326 312L326 313L326 314L326 315L326 316L326 317L326 318L326 319L326 320L326 321L326 322L326 323L326 324L326 325L326 326L326 327L326 328L326 329L326 334L327 334L327 331L327 327L327 326L327 325L327 324L327 323L327 322L327 321L327 320L327 319L327 318L327 317L327 316L327 315L327 314L327 313L327 312L327 311L327 310L327 309L327 308L327 307L327 306L327 305L327 304L327 303L327 302L327 301L327 300L327 299L327 298L327 297L327 296L327 295L327 294L327 293L327 292L327 291L327 290L327 289L327 288L327 287L327 286L327 285L327 284L327 283L327 282L327 281L327 280L327 279L327 278L327 277L327 276L327 275L327 274L327 273L327 272L326 266M480 266L480 270L480 271L480 272L480 273L480 274L480 275L480 276L480 277L480 278L480 279L480 280L480 281L480 282L480 283L480 284L480 285L480 286L480 287L480 288L480 289L480 290L480 291L480 292L480 293L480 294L480 295L480 296L480 297L480 298L480 299L480 300L480 301L480 302L480 303L480 304L480 305L480 306L480 307L480 308L480 309L480 310L480 311L480 312L480 313L480 314L480 315L480 316L480 317L480 318L480 319L480 320L480 321L480 322L480 323L480 324L480 325L480 326L480 327L480 328L480 329L480 335L481 335L482 333L482 329L482 328L482 327L482 326L482 325L482 324L482 323L482 322L482 321L482 320L482 319L482 318L482 317L482 316L482 315L482 314L482 313L482 312L482 311L482 310L482 309L482 308L482 307L482 306L482 305L482 304L482 303L482 302L482 301L482 300L482 299L482 298L482 297L482 296L482 295L482 294L482 293L482 292L482 291L482 290L482 289L482 288L482 287L482 286L482 285L482 284L482 283L482 282L482 281L482 280L482 279L482 278L482 277L482 276L482 275L482 274L480 266M524 266L524 270L524 271L524 272L524 273L524 274L524 275L524 276L524 277L524 278L524 279L524 280L524 281L524 282L524 283L524 284L524 285L524 286L524 287L524 288L524 289L524 290L524 291L524 292L524 293L524 294L524 295L524 296L524 297L524 298L524 299L524 300L524 301L524 302L524 303L524 304L524 305L524 306L524 307L524 308L524 309L524 310L524 311L524 312L524 313L524 314L524 315L524 316L524 317L524 318L524 319L524 320L524 321L524 322L524 323L524 324L524 325L524 326L524 327L524 328L524 329L524 334L525 335L527 335L533 335L533 331L533 330L533 329L533 328L533 327L533 326L533 325L533 324L533 323L533 322L533 321L533 320L533 319L533 318L533 317L533 316L533 315L533 314L533 313L533 312L533 311L533 310L533 309L533 308L533 307L533 306L533 305L533 304L533 303L533 302L533 301L533 300L533 299L533 298L533 297L533 296L533 295L533 294L533 293L533 292L533 291L533 290L533 289L533 288L533 287L533 286L533 285L533 284L533 283L533 282L533 281L533 280L533 279L533 278L533 277L533 276L533 275L533 274L533 273L533 272L533 266L524 266M217 267L217 271L217 272L217 273L217 274L217 275L217 276L217 277L217 278L217 279L217 280L217 281L217 282L217 283L217 284L217 285L217 286L217 287L217 288L217 289L217 290L217 291L217 292L217 293L217 294L217 295L217 296L217 297L217 298L217 299L217 300L217 301L217 302L217 303L217 304L217 305L217 306L217 307L217 308L217 309L217 310L217 311L217 312L217 313L217 314L217 315L217 316L217 317L217 318L217 319L217 320L217 321L217 322L217 323L217 324L217 325L217 326L217 327L217 328L217 329L217 330L217 334L218 334L218 331L218 327L218 326L218 325L218 324L218 323L218 322L218 321L218 320L218 319L218 318L218 317L218 316L218 315L218 314L218 313L218 312L218 311L218 310L218 309L218 308L218 307L218 306L218 305L218 304L218 303L218 302L218 301L218 300L218 299L218 298L218 297L218 296L218 295L218 294L218 293L218 292L218 291L218 290L218 289L218 288L218 287L218 286L218 285L218 284L218 283L218 282L218 281L218 280L218 279L218 278L218 277L218 276L218 275L218 274L218 273L218 272L217 267M415 267L415 271L415 272L415 273L415 274L415 275L415 276L415 277L415 278L415 279L415 280L415 281L415 282L415 283L415 284L415 285L415 286L415 287L415 288L415 289L415 290L415 291L415 292L415 293L415 294L415 295L415 296L415 297L415 298L415 299L415 300L415 301L415 302L415 303L415 304L415 305L415 306L415 307L415 308L415 309L415 310L415 311L415 312L415 313L415 314L415 315L415 316L415 317L415 318L415 319L415 320L415 321L415 322L415 323L415 324L415 325L415 326L415 327L415 328L415 329L415 330L415 334L416 334L416 331L416 327L416 326L416 325L416 324L416 323L416 322L416 321L416 320L416 319L416 318L416 317L416 316L416 315L416 314L416 313L416 312L416 311L416 310L416 309L416 308L416 307L416 306L416 305L416 304L416 303L416 302L416 301L416 300L416 299L416 298L416 297L416 296L416 295L416 294L416 293L416 292L416 291L416 290L416 289L416 288L416 287L416 286L416 285L416 284L416 283L416 282L416 281L416 280L416 279L416 278L416 277L416 276L416 275L416 274L416 273L416 272L415 267M478 267L478 271L478 272L478 273L478 274L478 275L478 276L478 277L478 278L478 279L478 280L478 281L478 282L478 283L478 284L478 285L478 286L478 287L478 288L478 289L478 290L478 291L478 292L478 293L478 294L478 295L478 296L478 297L478 298L478 299L478 300L478 301L478 302L478 303L478 304L478 305L478 306L478 307L478 308L478 309L478 310L478 311L478 312L478 313L478 314L478 315L478 316L478 317L478 318L478 319L478 320L478 321L478 322L478 323L478 324L478 325L478 326L478 327L478 328L478 329L478 330L478 334L479 334L479 331L479 327L479 326L479 325L479 324L479 323L479 322L479 321L479 320L479 319L479 318L479 317L479 316L479 315L479 314L479 313L479 312L479 311L479 310L479 309L479 308L479 307L479 306L479 305L479 304L479 303L479 302L479 301L479 300L479 299L479 298L479 297L479 296L479 295L479 294L479 293L479 292L479 291L479 290L479 289L479 288L479 287L479 286L479 285L479 284L479 283L479 282L479 281L479 280L479 279L479 278L479 277L479 276L479 275L479 274L479 273L479 272L478 267M228 334L227 335L227 337L227 341L227 342L227 343L227 344L227 345L227 346L227 347L227 348L227 349L227 350L227 351L227 352L227 353L227 354L227 355L227 356L227 357L227 358L227 359L227 360L227 361L227 362L227 363L227 364L227 365L227 366L227 367L227 368L227 369L227 370L227 371L227 372L227 373L227 374L227 375L227 376L227 377L227 378L227 379L227 380L227 381L227 382L227 383L227 384L227 385L227 386L227 387L227 388L227 389L227 390L227 391L227 392L227 393L227 394L227 395L227 396L227 403L234 403L234 399L234 398L234 397L234 396L234 395L234 394L234 393L234 392L234 391L234 390L234 389L234 388L234 387L234 386L234 385L234 384L234 383L234 382L234 381L234 380L234 379L234 378L234 377L234 376L234 375L234 374L234 373L234 372L234 371L234 370L234 369L234 368L234 367L234 366L234 365L234 364L234 363L234 362L234 361L234 360L234 359L234 358L234 357L234 356L234 355L234 354L234 353L234 352L234 351L234 350L234 349L234 348L234 347L234 346L234 345L234 344L234 343L234 342L234 341L234 340L234 334L228 334M297 334L297 338L297 339L297 340L297 341L297 342L297 343L297 344L297 345L297 346L297 347L297 348L297 349L297 350L297 351L297 352L297 353L297 354L297 355L297 356L297 357L297 358L297 359L297 360L297 361L297 362L297 363L297 364L297 365L297 366L297 367L297 368L297 369L297 370L297 371L297 372L297 373L297 374L297 375L297 376L297 377L297 378L297 379L297 380L297 381L297 382L297 383L297 384L297 385L297 386L297 387L297 388L297 389L297 390L297 391L297 392L297 393L297 394L297 395L297 396L297 397L297 403L307 403L307 399L307 398L307 397L307 396L307 395L307 394L307 393L307 392L307 391L307 390L307 389L307 388L307 387L307 386L307 385L307 384L307 383L307 382L307 381L307 380L307 379L307 378L307 377L307 376L307 375L307 374L307 373L307 372L307 371L307 370L307 369L307 368L307 367L307 366L307 365L307 364L307 363L307 362L307 361L307 360L307 359L307 358L307 357L307 356L307 355L307 354L307 353L307 352L307 351L307 350L307 349L307 348L307 347L307 346L307 345L307 344L307 343L307 342L307 341L307 340L307 335L306 334L304 334L297 334M220 335L220 339L220 340L220 341L220 342L220 343L220 344L220 345L220 346L220 347L220 348L220 349L220 350L220 351L220 352L220 353L220 354L220 355L220 356L220 357L220 358L220 359L220 360L220 361L220 362L220 363L220 364L220 365L220 366L220 367L220 368L220 369L220 370L220 371L220 372L220 373L220 374L220 375L220 376L220 377L220 378L220 379L220 380L220 381L220 382L220 383L220 384L220 385L220 386L220 387L220 388L220 389L220 390L220 391L220 392L220 393L220 394L220 395L220 396L220 397L220 398L220 402L221 402L221 399L221 395L221 394L221 393L221 392L221 391L221 390L221 389L221 388L221 387L221 386L221 385L221 384L221 383L221 382L221 381L221 380L221 379L221 378L221 377L221 376L221 375L221 374L221 373L221 372L221 371L221 370L221 369L221 368L221 367L221 366L221 365L221 364L221 363L221 362L221 361L221 360L221 359L221 358L221 357L221 356L221 355L221 354L221 353L221 352L221 351L221 350L221 349L221 348L221 347L221 346L221 345L221 344L221 343L221 342L221 341L221 340L220 335M223 335L223 339L223 340L223 341L223 342L223 343L223 344L223 345L223 346L223 347L223 348L223 349L223 350L223 351L223 352L223 353L223 354L223 355L223 356L223 357L223 358L223 359L223 360L223 361L223 362L223 363L223 364L223 365L223 366L223 367L223 368L223 369L223 370L223 371L223 372L223 373L223 374L223 375L223 376L223 377L223 378L223 379L223 380L223 381L223 382L223 383L223 384L223 385L223 386L223 387L223 388L223 389L223 390L223 391L223 392L223 393L223 394L223 395L223 396L223 397L223 398L223 402L224 402L224 399L224 395L224 394L224 393L224 392L224 391L224 390L224 389L224 388L224 387L224 386L224 385L224 384L224 383L224 382L224 381L224 380L224 379L224 378L224 377L224 376L224 375L224 374L224 373L224 372L224 371L224 370L224 369L224 368L224 367L224 366L224 365L224 364L224 363L224 362L224 361L224 360L224 359L224 358L224 357L224 356L224 355L224 354L224 353L224 352L224 351L224 350L224 349L224 348L224 347L224 346L224 345L224 344L224 343L224 342L224 341L224 340L223 335M330 403L330 407L330 408L330 409L330 410L330 411L330 412L330 413L330 414L330 415L330 416L330 417L330 418L330 419L330 420L330 421L330 422L330 423L330 424L330 425L330 426L330 427L330 428L330 429L330 430L330 431L330 432L330 433L330 434L330 435L330 436L330 437L330 438L330 439L330 440L330 441L330 442L330 443L330 444L330 445L330 446L330 447L330 448L330 449L330 450L330 451L330 452L330 453L330 454L330 455L330 456L330 457L330 458L330 459L330 460L330 461L330 462L330 463L330 464L330 465L330 466L330 472L334 472L335 472L336 472L337 472L338 472L339 472L340 472L341 472L346 472L346 468L346 467L346 466L346 465L346 464L346 463L346 462L346 461L346 460L346 459L346 458L346 457L346 456L346 455L346 454L346 453L346 452L346 451L346 450L346 449L346 448L346 447L346 446L346 445L346 444L346 443L346 442L346 441L346 440L346 439L346 438L346 437L346 436L346 435L346 434L346 433L346 432L346 431L346 430L346 429L346 428L346 427L346 426L346 425L346 424L346 423L346 422L346 421L346 420L346 419L346 418L346 417L346 416L346 415L346 414L346 413L346 412L346 411L346 410L346 409L346 403L342 403L341 403L340 403L339 403L338 403L337 403L336 403L335 403L330 403M379 403L379 407L379 408L379 409L379 410L379 411L379 412L379 413L379 414L379 415L379 416L379 417L379 418L379 419L379 420L379 421L379 422L379 423L379 424L379 425L379 426L379 427L379 428L379 429L379 430L379 431L379 432L379 433L379 434L379 435L379 436L379 437L379 438L379 439L379 440L379 441L379 442L379 443L379 444L379 445L379 446L379 447L379 448L379 449L379 450L379 451L379 452L379 453L379 454L379 455L379 456L379 457L379 458L379 459L379 460L379 461L379 462L379 463L379 464L379 465L379 466L379 471L380 472L382 472L386 472L387 472L388 472L389 472L390 472L391 472L392 472L393 472L397 472L397 468L397 467L397 466L397 465L397 464L397 463L397 462L397 461L397 460L397 459L397 458L397 457L397 456L397 455L397 454L397 453L397 452L397 451L397 450L397 449L397 448L397 447L397 446L397 445L397 444L397 443L397 442L397 441L397 440L397 439L397 438L397 437L397 436L397 435L397 434L397 433L397 432L397 431L397 430L397 429L397 428L397 427L397 426L397 425L397 424L397 423L397 422L397 421L397 420L397 419L397 418L397 417L397 416L397 415L397 414L397 413L397 412L397 411L397 410L397 409L397 403L393 403L392 403L391 403L390 403L389 403L388 403L387 403L386 403L379 403M358 472L358 476L358 477L358 478L358 479L358 480L358 481L358 482L358 483L358 484L358 485L358 486L358 487L358 488L358 489L358 490L358 491L358 492L358 493L358 494L358 495L358 496L358 497L358 498L358 499L358 500L358 501L358 502L358 503L358 504L358 505L358 506L358 507L358 508L358 509L358 510L358 511L358 512L358 513L358 514L358 515L358 516L358 517L358 518L358 519L358 520L358 521L358 522L358 523L358 524L358 525L358 526L358 527L358 528L358 529L358 530L358 531L358 532L358 533L358 534L358 535L358 540L362 540L363 540L364 540L365 540L366 540L367 540L368 540L369 540L373 540L373 536L373 535L373 534L373 533L373 532L373 531L373 530L373 529L373 528L373 527L373 526L373 525L373 524L373 523L373 522L373 521L373 520L373 519L373 518L373 517L373 516L373 515L373 514L373 513L373 512L373 511L373 510L373 509L373 508L373 507L373 506L373 505L373 504L373 503L373 502L373 501L373 500L373 499L373 498L373 497L373 496L373 495L373 494L373 493L373 492L373 491L373 490L373 489L373 488L373 487L373 486L373 485L373 484L373 483L373 482L373 481L373 480L373 479L373 478L373 477L373 472L369 472L368 472L367 472L366 472L365 472L364 472L363 472L362 472L358 472M410 472L410 476L410 477L410 478L410 479L410 480L410 481L410 482L410 483L410 484L410 485L410 486L410 487L410 488L410 489L410 490L410 491L410 492L410 493L410 494L410 495L410 496L410 497L410 498L410 499L410 500L410 501L410 502L410 503L410 504L410 505L410 506L410 507L410 508L410 509L410 510L410 511L410 512L410 513L410 514L410 515L410 516L410 517L410 518L410 519L410 520L410 521L410 522L410 523L410 524L410 525L410 526L410 527L410 528L410 529L410 530L410 531L410 532L410 533L410 534L410 535L410 540L414 540L415 540L416 540L417 540L418 540L419 540L420 540L421 540L427 540L427 536L427 535L427 534L427 533L427 532L427 531L427 530L427 529L427 528L427 527L427 526L427 525L427 524L427 523L427 522L427 521L427 520L427 519L427 518L427 517L427 516L427 515L427 514L427 513L427 512L427 511L427 510L427 509L427 508L427 507L427 506L427 505L427 504L427 503L427 502L427 501L427 500L427 499L427 498L427 497L427 496L427 495L427 494L427 493L427 492L427 491L427 490L427 489L427 488L427 487L427 486L427 485L427 484L427 483L427 482L427 481L427 480L427 479L427 478L427 477L427 472L423 472L422 472L421 472L420 472L419 472L418 472L417 472L416 472L410 472M430 540L430 544L430 545L430 546L430 547L430 548L430 549L430 550L430 551L430 552L430 553L430 554L430 555L430 556L430 557L430 558L430 559L430 560L430 561L430 562L430 563L430 564L430 565L430 566L430 567L430 568L430 569L430 570L430 571L430 572L430 573L430 574L430 575L430 576L430 577L430 578L430 579L430 580L430 581L430 582L430 583L430 584L430 585L430 586L430 587L430 588L430 589L430 590L430 591L430 592L430 593L430 594L430 595L430 596L430 597L430 598L430 599L430 600L430 601L430 602L430 603L430 608L434 608L435 608L436 608L437 608L438 608L439 608L440 608L441 608L442 608L443 608L444 608L445 608L450 608L450 604L450 603L450 602L450 601L450 600L450 599L450 598L450 597L450 596L450 595L450 594L450 593L450 592L450 591L450 590L450 589L450 588L450 587L450 586L450 585L450 584L450 583L450 582L450 581L450 580L450 579L450 578L450 577L450 576L450 575L450 574L450 573L450 572L450 571L450 570L450 569L450 568L450 567L450 566L450 565L450 564L450 563L450 562L450 561L450 560L450 559L450 558L450 557L450 556L450 555L450 554L450 553L450 552L450 551L450 550L450 549L450 548L450 547L450 546L450 545L450 540L446 540L445 540L444 540L443 540L442 540L441 540L440 540L439 540L438 540L437 540L436 540L435 540L430 540M451 540L451 544L451 545L451 546L451 547L451 548L451 549L451 550L451 551L451 552L451 553L451 554L451 555L451 556L451 557L451 558L451 559L451 560L451 561L451 562L451 563L451 564L451 565L451 566L451 567L451 568L451 569L451 570L451 571L451 572L451 573L451 574L451 575L451 576L451 577L451 578L451 579L451 580L451 581L451 582L451 583L451 584L451 585L451 586L451 587L451 588L451 589L451 590L451 591L451 592L451 593L451 594L451 595L451 596L451 597L451 598L451 599L451 600L451 601L451 602L451 603L451 608L455 608L456 608L457 608L458 608L459 608L460 608L461 608L462 608L463 608L464 608L465 608L466 608L472 608L472 604L472 603L472 602L472 601L472 600L472 599L472 598L472 597L472 596L472 595L472 594L472 593L472 592L472 591L472 590L472 589L472 588L472 587L472 586L472 585L472 584L472 583L472 582L472 581L472 580L472 579L472 578L472 577L472 576L472 575L472 574L472 573L472 572L472 571L472 570L472 569L472 568L472 567L472 566L472 565L472 564L472 563L472 562L472 561L472 560L472 559L472 558L472 557L472 556L472 555L472 554L472 553L472 552L472 551L472 550L472 549L472 548L472 547L472 546L472 545L472 540L468 540L467 540L466 540L465 540L464 540L463 540L462 540L461 540L460 540L459 540L458 540L457 540L451 540M505 540L505 544L505 545L505 546L505 547L505 548L505 549L505 550L505 551L505 552L505 553L505 554L505 555L505 556L505 557L505 558L505 559L505 560L505 561L505 562L505 563L505 564L505 565L505 566L505 567L505 568L505 569L505 570L505 571L505 572L505 573L505 574L505 575L505 576L505 577L505 578L505 579L505 580L505 581L505 582L505 583L505 584L505 585L505 586L505 587L505 588L505 589L505 590L505 591L505 592L505 593L505 594L505 595L505 596L505 597L505 598L505 599L505 600L505 601L505 602L505 603L505 608L509 608L510 608L511 608L512 608L518 608L518 604L518 603L518 602L518 601L518 600L518 599L518 598L518 597L518 596L518 595L518 594L518 593L518 592L518 591L518 590L518 589L518 588L518 587L518 586L518 585L518 584L518 583L518 582L518 581L518 580L518 579L518 578L518 577L518 576L518 575L518 574L518 573L518 572L518 571L518 570L518 569L518 568L518 567L518 566L518 565L518 564L518 563L518 562L518 561L518 560L518 559L518 558L518 557L518 556L518 555L518 554L518 553L518 552L518 551L518 550L518 549L518 548L518 547L518 546L518 545L518 540L514 540L513 540L512 540L511 540L505 540M523 540L523 544L523 545L523 546L523 547L523 548L523 549L523 550L523 551L523 552L523 553L523 554L523 555L523 556L523 557L523 558L523 559L523 560L523 561L523 562L523 563L523 564L523 565L523 566L523 567L523 568L523 569L523 570L523 571L523 572L523 573L523 574L523 575L523 576L523 577L523 578L523 579L523 580L523 581L523 582L523 583L523 584L523 585L523 586L523 587L523 588L523 589L523 590L523 591L523 592L523 593L523 594L523 595L523 596L523 597L523 598L523 599L523 600L523 601L523 602L523 603L523 608L524 608L524 605L524 601L524 600L524 599L524 598L524 597L524 596L524 595L524 594L524 593L524 592L524 591L524 590L524 589L524 588L524 587L524 586L524 585L524 584L524 583L524 582L524 581L524 580L524 579L524 578L524 577L524 576L524 575L524 574L524 573L524 572L524 571L524 570L524 569L524 568L524 567L524 566L524 565L524 564L524 563L524 562L524 561L524 560L524 559L524 558L524 557L524 556L524 555L524 554L524 553L524 552L524 551L524 550L524 549L524 548L524 547L524 546L523 540z"/>
</svg>
