<?xml version="1.0" standalone="yes"?>
<svg width="900" height="900">
<path style="fill:#121212; stroke:none;" d="M230 266L230 270L230 271L230 272L230 273L230 274L230 275L230 276L230 277L230 278L230 279L230 280L230 281L230 282L230 283L230 284L230 285L230 286L230 287L230 288L230 289L230 290L230 291L230 292L230 293L230 294L230 295L230 296L230 297L230 298L230 299L230 300L230 301L230 302L230 303L230 304L230 305L230 306L230 307L230 308L230 309L230 310L230 311L230 312L230 313L230 314L230 315L230 316L230 317L230 318L230 319L230 320L230 321L230 322L230 323L230 324L230 325L230 326L230 327L230 328L230 329L230 334L227 335L227 339L227 340L227 341L227 342L227 343L227 344L227 345L227 346L227 347L227 348L227 349L227 350L227 351L227 352L227 353L227 354L227 355L227 356L227 357L227 358L227 359L227 360L227 361L227 362L227 363L227 364L227 365L227 366L227 367L227 368L227 369L227 370L227 371L227 372L227 373L227 374L227 375L227 376L227 377L227 378L227 379L227 380L227 381L227 382L227 383L227 384L227 385L227 386L227 387L227 388L227 389L227 390L227 391L227 392L227 393L227 394L227 395L227 396L227 397L227 398L227 403L224 403L224 404L224 408L224 409L224 410L224 411L224 412L224 413L224 414L224 415L224 416L224 417L224 418L224 419L224 420L224 421L224 422L224 423L224 424L224 425L224 426L224 427L224 428L224 429L224 430L224 431L224 432L224 433L224 434L224 435L224 436L224 437L224 438L224 439L224 440L224 441L224 442L224 443L224 444L224 445L224 446L224 447L224 448L224 449L224 450L224 451L224 452L224 453L224 454L224 455L224 456L224 457L224 458L224 459L224 460L224 461L224 462L224 463L224 464L224 465L224 466L224 467L224 472L218 472L218 476L218 477L218 478L218 479L218 480L218 481L218 482L218 483L218 484L218 485L218 486L218 487L218 488L218 489L218 490L218 491L218 492L218 493L218 494L218 495L218 496L218 497L218 498L218 499L218 500L218 501L218 502L218 503L218 504L218 505L218 506L218 507L218 508L218 509L218 510L218 511L218 512L218 513L218 514L218 515L218 516L218 517L218 518L218 519L218 520L218 521L218 522L218 523L218 524L218 525L218 526L218 527L218 528L218 529L218 530L218 531L218 532L218 533L218 534L218 535L218 536L218 537L218 538L218 539L218 540L218 541L218 542L218 543L218 544L218 545L218 546L218 547L218 548L218 549L218 550L218 551L218 552L218 553L218 554L218 555L218 556L218 557L218 558L218 559L218 560L218 561L218 562L218 563L218 564L218 565L218 566L218 567L218 568L218 569L218 570L218 571L218 572L218 573L218 574L218 575L218 576L218 577L218 578L218 579L218 580L218 581L218 582L218 583L218 584L218 585L218 586L218 587L218 588L218 589L218 590L218 591L218 592L218 593L218 594L218 595L218 596L218 597L218 598L218 599L218 600L218 601L218 602L218 603L218 608L219 608L219 605L219 601L219 600L219 599L219 598L219 597L219 596L219 595L219 594L219 593L219 592L219 591L219 590L219 589L219 588L219 587L219 586L219 585L219 584L219 583L219 582L219 581L219 580L219 579L219 578L219 577L219 576L219 575L219 574L219 573L219 572L219 571L219 570L219 569L219 568L219 567L219 566L219 565L219 564L219 563L219 562L219 561L219 560L219 559L219 558L219 557L219 556L219 555L219 554L219 553L219 552L219 551L219 550L219 549L219 548L219 547L219 546L219 540L223 540L224 540L225 540L226 540L230 540L230 536L230 535L230 534L230 533L230 532L230 531L230 530L230 529L230 528L230 527L230 526L230 525L230 524L230 523L230 522L230 521L230 520L230 519L230 518L230 517L230 516L230 515L230 514L230 513L230 512L230 511L230 510L230 509L230 508L230 507L230 506L230 505L230 504L230 503L230 502L230 501L230 500L230 499L230 498L230 497L230 496L230 495L230 494L230 493L230 492L230 491L230 490L230 489L230 488L230 487L230 486L230 485L230 484L230 483L230 482L230 481L230 480L230 479L230 478L230 477L230 476L230 475L230 474L230 473L230 472L230 471L230 470L230 469L230 468L230 467L230 466L230 465L230 464L230 463L230 462L230 461L230 460L230 459L230 458L230 457L230 456L230 455L230 454L230 453L230 452L230 451L230 450L230 449L230 448L230 447L230 446L230 445L230 444L230 443L230 442L230 441L230 440L230 439L230 438L230 437L230 436L230 435L230 434L230 433L230 432L230 431L230 430L230 429L230 428L230 427L230 426L230 425L230 424L230 423L230 422L230 421L230 420L230 419L230 418L230 417L230 416L230 415L230 414L230 413L230 412L230 411L230 410L230 409L230 408L230 407L230 406L230 405L230 404L230 403L230 402L230 401L230 400L230 399L230 398L230 397L230 396L230 395L230 394L230 393L230 392L230 391L230 390L230 389L230 388L230 387L230 386L230 385L230 384L230 383L230 382L230 381L230 380L230 379L230 378L230 377L230 376L230 375L230 374L230 373L230 372L230 371L230 370L230 369L230 368L230 367L230 366L230 365L230 364L230 363L230 362L230 361L230 360L230 359L230 358L230 357L230 356L230 355L230 354L230 353L230 352L230 351L230 350L230 349L230 348L230 347L230 346L230 345L230 344L230 343L230 342L230 341L230 335L233 334L233 330L233 329L233 328L233 327L233 326L233 325L233 324L233 323L233 322L233 321L233 320L233 319L233 318L233 317L233 316L233 315L233 314L233 313L233 312L233 311L233 310L233 309L233 308L233 307L233 306L233 305L233 304L233 303L233 302L233 301L233 300L233 299L233 298L233 297L233 296L233 295L233 294L233 293L233 292L233 291L233 290L233 289L233 288L233 287L233 286L233 285L233 284L233 283L233 282L233 281L233 280L233 279L233 278L233 277L233 276L233 275L233 274L233 273L233 272L233 271L232 266L230 266M305 266L305 270L305 271L305 272L305 273L305 274L305 275L305 276L305 277L305 278L305 279L305 280L305 281L305 282L305 283L305 284L305 285L305 286L305 287L305 288L305 289L305 290L305 291L305 292L305 293L305 294L305 295L305 296L305 297L305 298L305 299L305 300L305 301L305 302L305 303L305 304L305 305L305 306L305 307L305 308L305 309L305 310L305 311L305 312L305 313L305 314L305 315L305 316L305 317L305 318L305 319L305 320L305 321L305 322L305 323L305 324L305 325L305 326L305 327L305 328L305 329L305 334L295 334L295 338L295 339L295 340L295 341L295 342L295 343L295 344L295 345L295 346L295 347L295 348L295 349L295 350L295 351L295 352L295 353L295 354L295 355L295 356L295 357L295 358L295 359L295 360L295 361L295 362L295 363L295 364L295 365L295 366L295 367L295 368L295 369L295 370L295 371L295 372L295 373L295 374L295 375L295 376L295 377L295 378L295 379L295 380L295 381L295 382L295 383L295 384L295 385L295 386L295 387L295 388L295 389L295 390L295 391L295 392L295 393L295 394L295 395L295 396L295 397L295 403L290 403L290 407L290 408L290 409L290 410L290 411L290 412L290 413L290 414L290 415L290 416L290 417L290 418L290 419L290 420L290 421L290 422L290 423L290 424L290 425L290 426L290 427L290 428L290 429L290 430L290 431L290 432L290 433L290 434L290 435L290 436L290 437L290 438L290 439L290 440L290 441L290 442L290 443L290 444L290 445L290 446L290 447L290 448L290 449L290 450L290 451L290 452L290 453L290 454L290 455L290 456L290 457L290 458L290 459L290 460L290 461L290 462L290 463L290 464L290 465L290 466L290 472L291 472L291 475L291 479L291 480L291 481L291 482L291 483L291 484L291 485L291 486L291 487L291 488L291 489L291 490L291 491L291 492L291 493L291 494L291 495L291 496L291 497L291 498L291 499L291 500L291 501L291 502L291 503L291 504L291 505L291 506L291 507L291 508L291 509L291 510L291 511L291 512L291 513L291 514L291 515L291 516L291 517L291 518L291 519L291 520L291 521L291 522L291 523L291 524L291 525L291 526L291 527L291 528L291 529L291 530L291 531L291 532L291 533L291 534L291 540L295 540L295 544L295 545L295 546L295 547L295 548L295 549L295 550L295 551L295 552L295 553L295 554L295 555L295 556L295 557L295 558L295 559L295 560L295 561L295 562L295 563L295 564L295 565L295 566L295 567L295 568L295 569L295 570L295 571L295 572L295 573L295 574L295 575L295 576L295 577L295 578L295 579L295 580L295 581L295 582L295 583L295 584L295 585L295 586L295 587L295 588L295 589L295 590L295 591L295 592L295 593L295 594L295 595L295 596L295 597L295 598L295 599L295 600L295 601L295 602L295 603L295 608L305 608L305 604L305 603L305 602L305 601L305 600L305 599L305 598L305 597L305 596L305 595L305 594L305 593L305 592L305 591L305 590L305 589L305 588L305 587L305 586L305 585L305 584L305 583L305 582L305 581L305 580L305 579L305 578L305 577L305 576L305 575L305 574L305 573L305 572L305 571L305 570L305 569L305 568L305 567L305 566L305 565L305 564L305 563L305 562L305 561L305 560L305 559L305 558L305 557L305 556L305 555L305 554L305 553L305 552L305 551L305 550L305 549L305 548L305 547L305 546L305 545L305 544L305 543L305 542L305 541L305 540L305 539L305 538L305 537L305 536L305 535L305 534L305 533L305 532L305 531L305 530L305 529L305 528L305 527L305 526L305 525L305 524L305 523L305 522L305 521L305 520L305 519L305 518L305 517L305 516L305 515L305 514L305 513L305 512L305 511L305 510L305 509L305 508L305 507L305 506L305 505L305 504L305 503L305 502L305 501L305 500L305 499L305 498L305 497L305 496L305 495L305 494L305 493L305 492L305 491L305 490L305 489L305 488L305 487L305 486L305 485L305 484L305 483L305 482L305 481L305 480L305 479L305 478L305 477L305 476L305 475L305 474L305 473L305 472L305 471L305 470L305 469L305 468L305 467L305 466L305 465L305 464L305 463L305 462L305 461L305 460L305 459L305 458L305 457L305 456L305 455L305 454L305 453L305 452L305 451L305 450L305 449L305 448L305 447L305 446L305 445L305 444L305 443L305 442L305 441L305 440L305 439L305 438L305 437L305 436L305 435L305 434L305 433L305 432L305 431L305 430L305 429L305 428L305 427L305 426L305 425L305 424L305 423L305 422L305 421L305 420L305 419L305 418L305 417L305 416L305 415L305 414L305 413L305 412L305 411L305 410L305 409L305 408L305 407L305 406L305 405L305 404L305 403L305 402L305 401L305 400L305 399L305 398L305 397L305 396L305 395L305 394L305 393L305 392L305 391L305 390L305 389L305 388L305 387L305 386L305 385L305 384L305 383L305 382L305 381L305 380L305 379L305 378L305 377L305 376L305 375L305 374L305 373L305 372L305 371L305 370L305 369L305 368L305 367L305 366L305 365L305 364L305 363L305 362L305 361L305 360L305 359L305 358L305 357L305 356L305 355L305 354L305 353L305 352L305 351L305 350L305 349L305 348L305 347L305 346L305 345L305 344L305 343L305 342L305 341L305 335L306 335L306 332L306 328L306 327L306 326L306 325L306 324L306 323L306 322L306 321L306 320L306 319L306 318L306 317L306 316L306 315L306 314L306 313L306 312L306 311L306 310L306 309L306 308L306 307L306 306L306 305L306 304L306 303L306 302L306 301L306 300L306 299L306 298L306 297L306 296L306 295L306 294L306 293L306 292L306 291L306 290L306 289L306 288L306 287L306 286L306 285L306 284L306 283L306 282L306 281L306 280L306 279L306 278L306 277L306 276L306 275L306 274L306 273L305 266M326 266L326 270L326 271L326 272L326 273L326 274L326 275L326 276L326 277L326 278L326 279L326 280L326 281L326 282L326 283L326 284L326 285L326 286L326 287L326 288L326 289L326 290L326 291L326 292L326 293L326 294L326 295L326 296L326 297L326 298L326 299L326 300L326 301L326 302L326 303L326 304L326 305L326 306L326 307L326 308L326 309L326 310L326 311L326 312L326 313L326 314L326 315L326 316L326 317L326 318L326 319L326 320L326 321L326 322L326 323L326 324L326 325L326 326L326 327L326 328L326 329L326 334L327 334L327 331L327 327L327 326L327 325L327 324L327 323L327 322L327 321L327 320L327 319L327 318L327 317L327 316L327 315L327 314L327 313L327 312L327 311L327 310L327 309L327 308L327 307L327 306L327 305L327 304L327 303L327 302L327 301L327 300L327 299L327 298L327 297L327 296L327 295L327 294L327 293L327 292L327 291L327 290L327 289L327 288L327 287L327 286L327 285L327 284L327 283L327 282L327 281L327 280L327 279L327 278L327 277L327 276L327 275L327 274L327 273L327 272L326 266M439 266L439 270L439 271L439 272L439 273L439 274L439 275L439 276L439 277L439 278L439 279L439 280L439 281L439 282L439 283L439 284L439 285L439 286L439 287L439 288L439 289L439 290L439 291L439 292L439 293L439 294L439 295L439 296L439 297L439 298L439 299L439 300L439 301L439 302L439 303L439 304L439 305L439 306L439 307L439 308L439 309L439 310L439 311L439 312L439 313L439 314L439 315L439 316L439 317L439 318L439 319L439 320L439 321L439 322L439 323L439 324L439 325L439 326L439 327L439 328L439 329L439 335L440 335L440 338L440 342L440 343L440 344L440 345L440 346L440 347L440 348L440 349L440 350L440 351L440 352L440 353L440 354L440 355L440 356L440 357L440 358L440 359L440 360L440 361L440 362L440 363L440 364L440 365L440 366L440 367L440 368L440 369L440 370L440 371L440 372L440 373L440 374L440 375L440 376L440 377L440 378L440 379L440 380L440 381L440 382L440 383L440 384L440 385L440 386L440 387L440 388L440 389L440 390L440 391L440 392L440 393L440 394L440 395L440 396L440 397L440 403L450 403L450 399L450 398L450 397L450 396L450 395L450 394L450 393L450 392L450 391L450 390L450 389L450 388L450 387L450 386L450 385L450 384L450 383L450 382L450 381L450 380L450 379L450 378L450 377L450 376L450 375L450 374L450 373L450 372L450 371L450 370L450 369L450 368L450 367L450 366L450 365L450 364L450 363L450 362L450 361L450 360L450 359L450 358L450 357L450 356L450 355L450 354L450 353L450 352L450 351L450 350L450 349L450 348L450 347L450 346L450 345L450 344L450 343L450 342L450 341L450 340L450 334L440 334L440 330L440 329L440 328L440 327L440 326L440 325L440 324L440 323L440 322L440 321L440 320L440 319L440 318L440 317L440 316L440 315L440 314L440 313L440 312L440 311L440 310L440 309L440 308L440 307L440 306L440 305L440 304L440 303L440 302L440 301L440 300L440 299L440 298L440 297L440 296L440 295L440 294L440 293L440 292L440 291L440 290L440 289L440 288L440 287L440 286L440 285L440 284L440 283L440 282L440 281L440 280L440 279L440 278L440 277L440 276L440 275L440 274L440 273L440 272L440 271L439 266M460 266L460 270L460 271L460 272L460 273L460 274L460 275L460 276L460 277L460 278L460 279L460 280L460 281L460 282L460 283L460 284L460 285L460 286L460 287L460 288L460 289L460 290L460 291L460 292L460 293L460 294L460 295L460 296L460 297L460 298L460 299L460 300L460 301L460 302L460 303L460 304L460 305L460 306L460 307L460 308L460 309L460 310L460 311L460 312L460 313L460 314L460 315L460 316L460 317L460 318L460 319L460 320L460 321L460 322L460 323L460 324L460 325L460 326L460 327L460 328L460 329L460 335L461 335L461 338L461 342L461 343L461 344L461 345L461 346L461 347L461 348L461 349L461 350L461 351L461 352L461 353L461 354L461 355L461 356L461 357L461 358L461 359L461 360L461 361L461 362L461 363L461 364L461 365L461 366L461 367L461 368L461 369L461 370L461 371L461 372L461 373L461 374L461 375L461 376L461 377L461 378L461 379L461 380L461 381L461 382L461 383L461 384L461 385L461 386L461 387L461 388L461 389L461 390L461 391L461 392L461 393L461 394L461 395L461 396L461 397L461 403L471 403L471 399L471 398L471 397L471 396L471 395L471 394L471 393L471 392L471 391L471 390L471 389L471 388L471 387L471 386L471 385L471 384L471 383L471 382L471 381L471 380L471 379L471 378L471 377L471 376L471 375L471 374L471 373L471 372L471 371L471 370L471 369L471 368L471 367L471 366L471 365L471 364L471 363L471 362L471 361L471 360L471 359L471 358L471 357L471 356L471 355L471 354L471 353L471 352L471 351L471 350L471 349L471 348L471 347L471 346L471 345L471 344L471 343L471 342L471 341L471 340L471 334L461 334L461 330L461 329L461 328L461 327L461 326L461 325L461 324L461 323L461 322L461 321L461 320L461 319L461 318L461 317L461 316L461 315L461 314L461 313L461 312L461 311L461 310L461 309L461 308L461 307L461 306L461 305L461 304L461 303L461 302L461 301L461 300L461 299L461 298L461 297L461 296L461 295L461 294L461 293L461 292L461 291L461 290L461 289L461 288L461 287L461 286L461 285L461 284L461 283L461 282L461 281L461 280L461 279L461 278L461 277L461 276L461 275L461 274L461 273L461 272L461 271L460 266M513 266L513 270L513 271L513 272L513 273L513 274L513 275L513 276L513 277L513 278L513 279L513 280L513 281L513 282L513 283L513 284L513 285L513 286L513 287L513 288L513 289L513 290L513 291L513 292L513 293L513 294L513 295L513 296L513 297L513 298L513 299L513 300L513 301L513 302L513 303L513 304L513 305L513 306L513 307L513 308L513 309L513 310L513 311L513 312L513 313L513 314L513 315L513 316L513 317L513 318L513 319L513 320L513 321L513 322L513 323L513 324L513 325L513 326L513 327L513 328L513 329L513 335L515 335L515 337L515 341L515 342L515 343L515 344L515 345L515 346L515 347L515 348L515 349L515 350L515 351L515 352L515 353L515 354L515 355L515 356L515 357L515 358L515 359L515 360L515 361L515 362L515 363L515 364L515 365L515 366L515 367L515 368L515 369L515 370L515 371L515 372L515 373L515 374L515 375L515 376L515 377L515 378L515 379L515 380L515 381L515 382L515 383L515 384L515 385L515 386L515 387L515 388L515 389L515 390L515 391L515 392L515 393L515 394L515 395L515 396L515 403L518 403L518 402L518 398L518 397L518 396L518 395L518 394L518 393L518 392L518 391L518 390L518 389L518 388L518 387L518 386L518 385L518 384L518 383L518 382L518 381L518 380L518 379L518 378L518 377L518 376L518 375L518 374L518 373L518 372L518 371L518 370L518 369L518 368L518 367L518 366L518 365L518 364L518 363L518 362L518 361L518 360L518 359L518 358L518 357L518 356L518 355L518 354L518 353L518 352L518 351L518 350L518 349L518 348L518 347L518 346L518 345L518 344L518 343L518 342L518 341L518 340L518 339L518 334L515 334L515 333L515 329L515 328L515 327L515 326L515 325L515 324L515 323L515 322L515 321L515 320L515 319L515 318L515 317L515 316L515 315L515 314L515 313L515 312L515 311L515 310L515 309L515 308L515 307L515 306L515 305L515 304L515 303L515 302L515 301L515 300L515 299L515 298L515 297L515 296L515 295L515 294L515 293L515 292L515 291L515 290L515 289L515 288L515 287L515 286L515 285L515 284L515 283L515 282L515 281L515 280L515 279L515 278L515 277L515 276L515 275L515 274L515 273L515 272L515 271L515 270L515 266L513 266M415 267L415 271L415 272L415 273L415 274L415 275L415 276L415 277L415 278L415 279L415 280L415 281L415 282L415 283L415 284L415 285L415 286L415 287L415 288L415 289L415 290L415 291L415 292L415 293L415 294L415 295L415 296L415 297L415 298L415 299L415 300L415 301L415 302L415 303L415 304L415 305L415 306L415 307L415 308L415 309L415 310L415 311L415 312L415 313L415 314L415 315L415 316L415 317L415 318L415 319L415 320L415 321L415 322L415 323L415 324L415 325L415 326L415 327L415 328L415 329L415 330L415 334L416 334L416 331L416 327L416 326L416 325L416 324L416 323L416 322L416 321L416 320L416 319L416 318L416 317L416 316L416 315L416 314L416 313L416 312L416 311L416 310L416 309L416 308L416 307L416 306L416 305L416 304L416 303L416 302L416 301L416 300L416 299L416 298L416 297L416 296L416 295L416 294L416 293L416 292L416 291L416 290L416 289L416 288L416 287L416 286L416 285L416 284L416 283L416 282L416 281L416 280L416 279L416 278L416 277L416 276L416 275L416 274L416 273L416 272L415 267M213 335L213 339L213 340L213 341L213 342L213 343L213 344L213 345L213 346L213 347L213 348L213 349L213 350L213 351L213 352L213 353L213 354L213 355L213 356L213 357L213 358L213 359L213 360L213 361L213 362L213 363L213 364L213 365L213 366L213 367L213 368L213 369L213 370L213 371L213 372L213 373L213 374L213 375L213 376L213 377L213 378L213 379L213 380L213 381L213 382L213 383L213 384L213 385L213 386L213 387L213 388L213 389L213 390L213 391L213 392L213 393L213 394L213 395L213 396L213 397L213 398L213 403L214 403L214 400L214 396L214 395L214 394L214 393L214 392L214 391L214 390L214 389L214 388L214 387L214 386L214 385L214 384L214 383L214 382L214 381L214 380L214 379L214 378L214 377L214 376L214 375L214 374L214 373L214 372L214 371L214 370L214 369L214 368L214 367L214 366L214 365L214 364L214 363L214 362L214 361L214 360L214 359L214 358L214 357L214 356L214 355L214 354L214 353L214 352L214 351L214 350L214 349L214 348L214 347L214 346L214 345L214 344L214 343L214 342L214 341L213 335M223 335L223 339L223 340L223 341L223 342L223 343L223 344L223 345L223 346L223 347L223 348L223 349L223 350L223 351L223 352L223 353L223 354L223 355L223 356L223 357L223 358L223 359L223 360L223 361L223 362L223 363L223 364L223 365L223 366L223 367L223 368L223 369L223 370L223 371L223 372L223 373L223 374L223 375L223 376L223 377L223 378L223 379L223 380L223 381L223 382L223 383L223 384L223 385L223 386L223 387L223 388L223 389L223 390L223 391L223 392L223 393L223 394L223 395L223 396L223 397L223 398L223 402L224 402L224 399L224 395L224 394L224 393L224 392L224 391L224 390L224 389L224 388L224 387L224 386L224 385L224 384L224 383L224 382L224 381L224 380L224 379L224 378L224 377L224 376L224 375L224 374L224 373L224 372L224 371L224 370L224 369L224 368L224 367L224 366L224 365L224 364L224 363L224 362L224 361L224 360L224 359L224 358L224 357L224 356L224 355L224 354L224 353L224 352L224 351L224 350L224 349L224 348L224 347L224 346L224 345L224 344L224 343L224 342L224 341L224 340L223 335M274 335L274 339L274 340L274 341L274 342L274 343L274 344L274 345L274 346L274 347L274 348L274 349L274 350L274 351L274 352L274 353L274 354L274 355L274 356L274 357L274 358L274 359L274 360L274 361L274 362L274 363L274 364L274 365L274 366L274 367L274 368L274 369L274 370L274 371L274 372L274 373L274 374L274 375L274 376L274 377L274 378L274 379L274 380L274 381L274 382L274 383L274 384L274 385L274 386L274 387L274 388L274 389L274 390L274 391L274 392L274 393L274 394L274 395L274 396L274 397L274 398L274 403L269 403L269 407L269 408L269 409L269 410L269 411L269 412L269 413L269 414L269 415L269 416L269 417L269 418L269 419L269 420L269 421L269 422L269 423L269 424L269 425L269 426L269 427L269 428L269 429L269 430L269 431L269 432L269 433L269 434L269 435L269 436L269 437L269 438L269 439L269 440L269 441L269 442L269 443L269 444L269 445L269 446L269 447L269 448L269 449L269 450L269 451L269 452L269 453L269 454L269 455L269 456L269 457L269 458L269 459L269 460L269 461L269 462L269 463L269 464L269 465L269 466L269 472L270 472L270 475L270 479L270 480L270 481L270 482L270 483L270 484L270 485L270 486L270 487L270 488L270 489L270 490L270 491L270 492L270 493L270 494L270 495L270 496L270 497L270 498L270 499L270 500L270 501L270 502L270 503L270 504L270 505L270 506L270 507L270 508L270 509L270 510L270 511L270 512L270 513L270 514L270 515L270 516L270 517L270 518L270 519L270 520L270 521L270 522L270 523L270 524L270 525L270 526L270 527L270 528L270 529L270 530L270 531L270 532L270 533L270 534L270 540L274 540L274 544L274 545L274 546L274 547L274 548L274 549L274 550L274 551L274 552L274 553L274 554L274 555L274 556L274 557L274 558L274 559L274 560L274 561L274 562L274 563L274 564L274 565L274 566L274 567L274 568L274 569L274 570L274 571L274 572L274 573L274 574L274 575L274 576L274 577L274 578L274 579L274 580L274 581L274 582L274 583L274 584L274 585L274 586L274 587L274 588L274 589L274 590L274 591L274 592L274 593L274 594L274 595L274 596L274 597L274 598L274 599L274 600L274 601L274 602L274 603L274 608L275 608L275 605L275 601L275 600L275 599L275 598L275 597L275 596L275 595L275 594L275 593L275 592L275 591L275 590L275 589L275 588L275 587L275 586L275 585L275 584L275 583L275 582L275 581L275 580L275 579L275 578L275 577L275 576L275 575L275 574L275 573L275 572L275 571L275 570L275 569L275 568L275 567L275 566L275 565L275 564L275 563L275 562L275 561L275 560L275 559L275 558L275 557L275 556L275 555L275 554L275 553L275 552L275 551L275 550L275 549L275 548L275 547L275 546L275 545L275 544L275 543L275 542L275 541L275 540L275 539L275 538L275 537L275 536L275 535L275 534L275 533L275 532L275 531L275 530L275 529L275 528L275 527L275 526L275 525L275 524L275 523L275 522L275 521L275 520L275 519L275 518L275 517L275 516L275 515L275 514L275 513L275 512L275 511L275 510L275 509L275 508L275 507L275 506L275 505L275 504L275 503L275 502L275 501L275 500L275 499L275 498L275 497L275 496L275 495L275 494L275 493L275 492L275 491L275 490L275 489L275 488L275 487L275 486L275 485L275 484L275 483L275 482L275 481L275 480L275 479L275 478L275 477L275 476L275 475L275 474L275 473L275 472L275 471L275 470L275 469L275 468L275 467L275 466L275 465L275 464L275 463L275 462L275 461L275 460L275 459L275 458L275 457L275 456L275 455L275 454L275 453L275 452L275 451L275 450L275 449L275 448L275 447L275 446L275 445L275 444L275 443L275 442L275 441L275 440L275 439L275 438L275 437L275 436L275 435L275 434L275 433L275 432L275 431L275 430L275 429L275 428L275 427L275 426L275 425L275 424L275 423L275 422L275 421L275 420L275 419L275 418L275 417L275 416L275 415L275 414L275 413L275 412L275 411L275 410L275 409L275 408L275 407L275 406L275 405L275 404L275 403L275 402L275 401L275 400L275 399L275 398L275 397L275 396L275 395L275 394L275 393L275 392L275 391L275 390L275 389L275 388L275 387L275 386L275 385L275 384L275 383L275 382L275 381L275 380L275 379L275 378L275 377L275 376L275 375L275 374L275 373L275 372L275 371L275 370L275 369L275 368L275 367L275 366L275 365L275 364L275 363L275 362L275 361L275 360L275 359L275 358L275 357L275 356L275 355L275 354L275 353L275 352L275 351L275 350L275 349L275 348L275 347L275 346L275 345L275 344L275 343L275 342L274 335M531 335L531 339L531 340L531 341L531 342L531 343L531 344L531 345L531 346L531 347L531 348L531 349L531 350L531 351L531 352L531 353L531 354L531 355L531 356L531 357L531 358L531 359L531 360L531 361L531 362L531 363L531 364L531 365L531 366L531 367L531 368L531 369L531 370L531 371L531 372L531 373L531 374L531 375L531 376L531 377L531 378L531 379L531 380L531 381L531 382L531 383L531 384L531 385L531 386L531 387L531 388L531 389L531 390L531 391L531 392L531 393L531 394L531 395L531 396L531 397L531 398L531 403L532 403L532 400L532 396L532 395L532 394L532 393L532 392L532 391L532 390L532 389L532 388L532 387L532 386L532 385L532 384L532 383L532 382L532 381L532 380L532 379L532 378L532 377L532 376L532 375L532 374L532 373L532 372L532 371L532 370L532 369L532 368L532 367L532 366L532 365L532 364L532 363L532 362L532 361L532 360L532 359L532 358L532 357L532 356L532 355L532 354L532 353L532 352L532 351L532 350L532 349L532 348L532 347L532 346L532 345L532 344L532 343L532 342L532 341L531 335M265 472L265 476L265 477L265 478L265 479L265 480L265 481L265 482L265 483L265 484L265 485L265 486L265 487L265 488L265 489L265 490L265 491L265 492L265 493L265 494L265 495L265 496L265 497L265 498L265 499L265 500L265 501L265 502L265 503L265 504L265 505L265 506L265 507L265 508L265 509L265 510L265 511L265 512L265 513L265 514L265 515L265 516L265 517L265 518L265 519L265 520L265 521L265 522L265 523L265 524L265 525L265 526L265 527L265 528L265 529L265 530L265 531L265 532L265 533L265 534L265 535L265 536L265 537L265 538L265 539L265 540L265 541L265 542L265 543L265 544L265 545L265 546L265 547L265 548L265 549L265 550L265 551L265 552L265 553L265 554L265 555L265 556L265 557L265 558L265 559L265 560L265 561L265 562L265 563L265 564L265 565L265 566L265 567L265 568L265 569L265 570L265 571L265 572L265 573L265 574L265 575L265 576L265 577L265 578L265 579L265 580L265 581L265 582L265 583L265 584L265 585L265 586L265 587L265 588L265 589L265 590L265 591L265 592L265 593L265 594L265 595L265 596L265 597L265 598L265 599L265 600L265 601L265 602L265 603L265 608L266 608L266 605L266 601L266 600L266 599L266 598L266 597L266 596L266 595L266 594L266 593L266 592L266 591L266 590L266 589L266 588L266 587L266 586L266 585L266 584L266 583L266 582L266 581L266 580L266 579L266 578L266 577L266 576L266 575L266 574L266 573L266 572L266 571L266 570L266 569L266 568L266 567L266 566L266 565L266 564L266 563L266 562L266 561L266 560L266 559L266 558L266 557L266 556L266 555L266 554L266 553L266 552L266 551L266 550L266 549L266 548L266 547L266 546L266 545L266 544L266 543L266 542L266 541L266 540L266 539L266 538L266 537L266 536L266 535L266 534L266 533L266 532L266 531L266 530L266 529L266 528L266 527L266 526L266 525L266 524L266 523L266 522L266 521L266 520L266 519L266 518L266 517L266 516L266 515L266 514L266 513L266 512L266 511L266 510L266 509L266 508L266 507L266 506L266 505L266 504L266 503L266 502L266 501L266 500L266 499L266 498L266 497L266 496L266 495L266 494L266 493L266 492L266 491L266 490L266 489L266 488L266 487L266 486L266 485L266 484L266 483L266 482L266 481L266 480L266 479L266 478L265 472M286 472L286 476L286 477L286 478L286 479L286 480L286 481L286 482L286 483L286 484L286 485L286 486L286 487L286 488L286 489L286 490L286 491L286 492L286 493L286 494L286 495L286 496L286 497L286 498L286 499L286 500L286 501L286 502L286 503L286 504L286 505L286 506L286 507L286 508L286 509L286 510L286 511L286 512L286 513L286 514L286 515L286 516L286 517L286 518L286 519L286 520L286 521L286 522L286 523L286 524L286 525L286 526L286 527L286 528L286 529L286 530L286 531L286 532L286 533L286 534L286 535L286 536L286 537L286 538L286 539L286 540L286 541L286 542L286 543L286 544L286 545L286 546L286 547L286 548L286 549L286 550L286 551L286 552L286 553L286 554L286 555L286 556L286 557L286 558L286 559L286 560L286 561L286 562L286 563L286 564L286 565L286 566L286 567L286 568L286 569L286 570L286 571L286 572L286 573L286 574L286 575L286 576L286 577L286 578L286 579L286 580L286 581L286 582L286 583L286 584L286 585L286 586L286 587L286 588L286 589L286 590L286 591L286 592L286 593L286 594L286 595L286 596L286 597L286 598L286 599L286 600L286 601L286 602L286 603L286 608L287 608L287 605L287 601L287 600L287 599L287 598L287 597L287 596L287 595L287 594L287 593L287 592L287 591L287 590L287 589L287 588L287 587L287 586L287 585L287 584L287 583L287 582L287 581L287 580L287 579L287 578L287 577L287 576L287 575L287 574L287 573L287 572L287 571L287 570L287 569L287 568L287 567L287 566L287 565L287 564L287 563L287 562L287 561L287 560L287 559L287 558L287 557L287 556L287 555L287 554L287 553L287 552L287 551L287 550L287 549L287 548L287 547L287 546L287 545L287 544L287 543L287 542L287 541L287 540L287 539L287 538L287 537L287 536L287 535L287 534L287 533L287 532L287 531L287 530L287 529L287 528L287 527L287 526L287 525L287 524L287 523L287 522L287 521L287 520L287 519L287 518L287 517L287 516L287 515L287 514L287 513L287 512L287 511L287 510L287 509L287 508L287 507L287 506L287 505L287 504L287 503L287 502L287 501L287 500L287 499L287 498L287 497L287 496L287 495L287 494L287 493L287 492L287 491L287 490L287 489L287 488L287 487L287 486L287 485L287 484L287 483L287 482L287 481L287 480L287 479L287 478L286 472M268 540L268 544L268 545L268 546L268 547L268 548L268 549L268 550L268 551L268 552L268 553L268 554L268 555L268 556L268 557L268 558L268 559L268 560L268 561L268 562L268 563L268 564L268 565L268 566L268 567L268 568L268 569L268 570L268 571L268 572L268 573L268 574L268 575L268 576L268 577L268 578L268 579L268 580L268 581L268 582L268 583L268 584L268 585L268 586L268 587L268 588L268 589L268 590L268 591L268 592L268 593L268 594L268 595L268 596L268 597L268 598L268 599L268 600L268 601L268 602L268 603L268 608L269 608L269 605L269 601L269 600L269 599L269 598L269 597L269 596L269 595L269 594L269 593L269 592L269 591L269 590L269 589L269 588L269 587L269 586L269 585L269 584L269 583L269 582L269 581L269 580L269 579L269 578L269 577L269 576L269 575L269 574L269 573L269 572L269 571L269 570L269 569L269 568L269 567L269 566L269 565L269 564L269 563L269 562L269 561L269 560L269 559L269 558L269 557L269 556L269 555L269 554L269 553L269 552L269 551L269 550L269 549L269 548L269 547L269 546L268 540M288 540L288 544L288 545L288 546L288 547L288 548L288 549L288 550L288 551L288 552L288 553L288 554L288 555L288 556L288 557L288 558L288 559L288 560L288 561L288 562L288 563L288 564L288 565L288 566L288 567L288 568L288 569L288 570L288 571L288 572L288 573L288 574L288 575L288 576L288 577L288 578L288 579L288 580L288 581L288 582L288 583L288 584L288 585L288 586L288 587L288 588L288 589L288 590L288 591L288 592L288 593L288 594L288 595L288 596L288 597L288 598L288 599L288 600L288 601L288 602L288 603L288 608L289 608L289 605L289 601L289 600L289 599L289 598L289 597L289 596L289 595L289 594L289 593L289 592L289 591L289 590L289 589L289 588L289 587L289 586L289 585L289 584L289 583L289 582L289 581L289 580L289 579L289 578L289 577L289 576L289 575L289 574L289 573L289 572L289 571L289 570L289 569L289 568L289 567L289 566L289 565L289 564L289 563L289 562L289 561L289 560L289 559L289 558L289 557L289 556L289 555L289 554L289 553L289 552L289 551L289 550L289 549L289 548L289 547L289 546L288 540M440 540L440 544L440 545L440 546L440 547L440 548L440 549L440 550L440 551L440 552L440 553L440 554L440 555L440 556L440 557L440 558L440 559L440 560L440 561L440 562L440 563L440 564L440 565L440 566L440 567L440 568L440 569L440 570L440 571L440 572L440 573L440 574L440 575L440 576L440 577L440 578L440 579L440 580L440 581L440 582L440 583L440 584L440 585L440 586L440 587L440 588L440 589L440 590L440 591L440 592L440 593L440 594L440 595L440 596L440 597L440 598L440 599L440 600L440 601L440 602L440 603L440 608L450 608L450 604L450 603L450 602L450 601L450 600L450 599L450 598L450 597L450 596L450 595L450 594L450 593L450 592L450 591L450 590L450 589L450 588L450 587L450 586L450 585L450 584L450 583L450 582L450 581L450 580L450 579L450 578L450 577L450 576L450 575L450 574L450 573L450 572L450 571L450 570L450 569L450 568L450 567L450 566L450 565L450 564L450 563L450 562L450 561L450 560L450 559L450 558L450 557L450 556L450 555L450 554L450 553L450 552L450 551L450 550L450 549L450 548L450 547L450 546L450 545L450 540L440 540M461 540L461 544L461 545L461 546L461 547L461 548L461 549L461 550L461 551L461 552L461 553L461 554L461 555L461 556L461 557L461 558L461 559L461 560L461 561L461 562L461 563L461 564L461 565L461 566L461 567L461 568L461 569L461 570L461 571L461 572L461 573L461 574L461 575L461 576L461 577L461 578L461 579L461 580L461 581L461 582L461 583L461 584L461 585L461 586L461 587L461 588L461 589L461 590L461 591L461 592L461 593L461 594L461 595L461 596L461 597L461 598L461 599L461 600L461 601L461 602L461 603L461 608L470 608L470 604L470 603L470 602L470 601L470 600L470 599L470 598L470 597L470 596L470 595L470 594L470 593L470 592L470 591L470 590L470 589L470 588L470 587L470 586L470 585L470 584L470 583L470 582L470 581L470 580L470 579L470 578L470 577L470 576L470 575L470 574L470 573L470 572L470 571L470 570L470 569L470 568L470 567L470 566L470 565L470 564L470 563L470 562L470 561L470 560L470 559L470 558L470 557L470 556L470 555L470 554L470 553L470 552L470 551L470 550L470 549L470 548L470 547L470 546L470 545L470 540L461 540M474 540L474 544L474 545L474 546L474 547L474 548L474 549L474 550L474 551L474 552L474 553L474 554L474 555L474 556L474 557L474 558L474 559L474 560L474 561L474 562L474 563L474 564L474 565L474 566L474 567L474 568L474 569L474 570L474 571L474 572L474 573L474 574L474 575L474 576L474 577L474 578L474 579L474 580L474 581L474 582L474 583L474 584L474 585L474 586L474 587L474 588L474 589L474 590L474 591L474 592L474 593L474 594L474 595L474 596L474 597L474 598L474 599L474 600L474 601L474 602L474 603L474 608L476 608L476 606L476 602L476 601L476 600L476 599L476 598L476 597L476 596L476 595L476 594L476 593L476 592L476 591L476 590L476 589L476 588L476 587L476 586L476 585L476 584L476 583L476 582L476 581L476 580L476 579L476 578L476 577L476 576L476 575L476 574L476 573L476 572L476 571L476 570L476 569L476 568L476 567L476 566L476 565L476 564L476 563L476 562L476 561L476 560L476 559L476 558L476 557L476 556L476 555L476 554L476 553L476 552L476 551L476 550L476 549L476 548L476 547L476 540L474 540M478 540L478 544L478 545L478 546L478 547L478 548L478 549L478 550L478 551L478 552L478 553L478 554L478 555L478 556L478 557L478 558L478 559L478 560L478 561L478 562L478 563L478 564L478 565L478 566L478 567L478 568L478 569L478 570L478 571L478 572L478 573L478 574L478 575L478 576L478 577L478 578L478 579L478 580L478 581L478 582L478 583L478 584L478 585L478 586L478 587L478 588L478 589L478 590L478 591L478 592L478 593L478 594L478 595L478 596L478 597L478 598L478 599L478 600L478 601L478 602L478 603L478 608L479 608L479 605L479 601L479 600L479 599L479 598L479 597L479 596L479 595L479 594L479 593L479 592L479 591L479 590L479 589L479 588L479 587L479 586L479 585L479 584L479 583L479 582L479 581L479 580L479 579L479 578L479 577L479 576L479 575L479 574L479 573L479 572L479 571L479 570L479 569L479 568L479 567L479 566L479 565L479 564L479 563L479 562L479 561L479 560L479 559L479 558L479 557L479 556L479 555L479 554L479 553L479 552L479 551L479 550L479 549L479 548L479 547L479 546L478 540M480 540L480 544L480 545L480 546L480 547L480 548L480 549L480 550L480 551L480 552L480 553L480 554L480 555L480 556L480 557L480 558L480 559L480 560L480 561L480 562L480 563L480 564L480 565L480 566L480 567L480 568L480 569L480 570L480 571L480 572L480 573L480 574L480 575L480 576L480 577L480 578L480 579L480 580L480 581L480 582L480 583L480 584L480 585L480 586L480 587L480 588L480 589L480 590L480 591L480 592L480 593L480 594L480 595L480 596L480 597L480 598L480 599L480 600L480 601L480 602L480 603L480 608L481 608L481 605L481 601L481 600L481 599L481 598L481 597L481 596L481 595L481 594L481 593L481 592L481 591L481 590L481 589L481 588L481 587L481 586L481 585L481 584L481 583L481 582L481 581L481 580L481 579L481 578L481 577L481 576L481 575L481 574L481 573L481 572L481 571L481 570L481 569L481 568L481 567L481 566L481 565L481 564L481 563L481 562L481 561L481 560L481 559L481 558L481 557L481 556L481 555L481 554L481 553L481 552L481 551L481 550L481 549L481 548L481 547L481 546L480 540M523 540L523 544L523 545L523 546L523 547L523 548L523 549L523 550L523 551L523 552L523 553L523 554L523 555L523 556L523 557L523 558L523 559L523 560L523 561L523 562L523 563L523 564L523 565L523 566L523 567L523 568L523 569L523 570L523 571L523 572L523 573L523 574L523 575L523 576L523 577L523 578L523 579L523 580L523 581L523 582L523 583L523 584L523 585L523 586L523 587L523 588L523 589L523 590L523 591L523 592L523 593L523 594L523 595L523 596L523 597L523 598L523 599L523 600L523 601L523 602L523 603L523 608L524 608L524 605L524 601L524 600L524 599L524 598L524 597L524 596L524 595L524 594L524 593L524 592L524 591L524 590L524 589L524 588L524 587L524 586L524 585L524 584L524 583L524 582L524 581L524 580L524 579L524 578L524 577L524 576L524 575L524 574L524 573L524 572L524 571L524 570L524 569L524 568L524 567L524 566L524 565L524 564L524 563L524 562L524 561L524 560L524 559L524 558L524 557L524 556L524 555L524 554L524 553L524 552L524 551L524 550L524 549L524 548L524 547L524 546L523 540M525 540L525 544L525 545L525 546L525 547L525 548L525 549L525 550L525 551L525 552L525 553L525 554L525 555L525 556L525 557L525 558L525 559L525 560L525 561L525 562L525 563L525 564L525 565L525 566L525 567L525 568L525 569L525 570L525 571L525 572L525 573L525 574L525 575L525 576L525 577L525 578L525 579L525 580L525 581L525 582L525 583L525 584L525 585L525 586L525 587L525 588L525 589L525 590L525 591L525 592L525 593L525 594L525 595L525 596L525 597L525 598L525 599L525 600L525 601L525 602L525 603L525 608L532 608L532 604L532 603L532 602L532 601L532 600L532 599L532 598L532 597L532 596L532 595L532 594L532 593L532 592L532 591L532 590L532 589L532 588L532 587L532 586L532 585L532 584L532 583L532 582L532 581L532 580L532 579L532 578L532 577L532 576L532 575L532 574L532 573L532 572L532 571L532 570L532 569L532 568L532 567L532 566L532 565L532 564L532 563L532 562L532 561L532 560L532 559L532 558L532 557L532 556L532 555L532 554L532 553L532 552L532 551L532 550L532 549L532 548L532 547L532 546L532 545L532 540L525 540M533 540L533 544L533 545L533 546L533 547L533 548L533 549L533 550L533 551L533 552L533 553L533 554L533 555L533 556L533 557L533 558L533 559L533 560L533 561L533 562L533 563L533 564L533 565L533 566L533 567L533 568L533 569L533 570L533 571L533 572L533 573L533 574L533 575L533 576L533 577L533 578L533 579L533 580L533 581L533 582L533 583L533 584L533 585L533 586L533 587L533 588L533 589L533 590L533 591L533 592L533 593L533 594L533 595L533 596L533 597L533 598L533 599L533 600L533 601L533 602L533 603L533 608L534 608L534 605L534 601L534 600L534 599L534 598L534 597L534 596L534 595L534 594L534 593L534 592L534 591L534 590L534 589L534 588L534 587L534 586L534 585L534 584L534 583L534 582L534 581L534 580L534 579L534 578L534 577L534 576L534 575L534 574L534 573L534 572L534 571L534 570L534 569L534 568L534 567L534 566L534 565L534 564L534 563L534 562L534 561L534 560L534 559L534 558L534 557L534 556L534 555L534 554L534 553L534 552L534 551L534 550L534 549L534 548L534 547L534 546L533 540M535 540L535 544L535 545L535 546L535 547L535 548L535 549L535 550L535 551L535 552L535 553L535 554L535 555L535 556L535 557L535 558L535 559L535 560L535 561L535 562L535 563L535 564L535 565L535 566L535 567L535 568L535 569L535 570L535 571L535 572L535 573L535 574L535 575L535 576L535 577L535 578L535 579L535 580L535 581L535 582L535 583L535 584L535 585L535 586L535 587L535 588L535 589L535 590L535 591L535 592L535 593L535 594L535 595L535 596L535 597L535 598L535 599L535 600L535 601L535 602L535 603L535 608L536 608L536 605L536 601L536 600L536 599L536 598L536 597L536 596L536 595L536 594L536 593L536 592L536 591L536 590L536 589L536 588L536 587L536 586L536 585L536 584L536 583L536 582L536 581L536 580L536 579L536 578L536 577L536 576L536 575L536 574L536 573L536 572L536 571L536 570L536 569L536 568L536 567L536 566L536 565L536 564L536 563L536 562L536 561L536 560L536 559L536 558L536 557L536 556L536 555L536 554L536 553L536 552L536 551L536 550L536 549L536 548L536 547L536 546L535 540z"/>
</svg>
