<?xml version="1.0" standalone="yes"?>
<svg width="900" height="900">
<path style="fill:#0a0a0a; stroke:none;" d="M327 334L326 335L326 337L326 341L326 342L326 343L326 344L326 345L326 346L326 347L326 348L326 349L326 350L326 351L326 352L326 353L326 354L326 355L326 356L326 357L326 358L326 359L326 360L326 361L326 362L326 363L326 364L326 365L326 366L326 367L326 368L326 369L326 370L326 371L326 372L326 373L326 374L326 375L326 376L326 377L326 378L326 379L326 380L326 381L326 382L326 383L326 384L326 385L326 386L326 387L326 388L326 389L326 390L326 391L326 392L326 393L326 394L326 395L326 396L326 403L330 403L330 407L330 408L330 409L330 410L330 411L330 412L330 413L330 414L330 415L330 416L330 417L330 418L330 419L330 420L330 421L330 422L330 423L330 424L330 425L330 426L330 427L330 428L330 429L330 430L330 431L330 432L330 433L330 434L330 435L330 436L330 437L330 438L330 439L330 440L330 441L330 442L330 443L330 444L330 445L330 446L330 447L330 448L330 449L330 450L330 451L330 452L330 453L330 454L330 455L330 456L330 457L330 458L330 459L330 460L330 461L330 462L330 463L330 464L330 465L330 466L330 472L327 472L327 473L327 477L327 478L327 479L327 480L327 481L327 482L327 483L327 484L327 485L327 486L327 487L327 488L327 489L327 490L327 491L327 492L327 493L327 494L327 495L327 496L327 497L327 498L327 499L327 500L327 501L327 502L327 503L327 504L327 505L327 506L327 507L327 508L327 509L327 510L327 511L327 512L327 513L327 514L327 515L327 516L327 517L327 518L327 519L327 520L327 521L327 522L327 523L327 524L327 525L327 526L327 527L327 528L327 529L327 530L327 531L327 532L327 533L327 534L327 535L327 536L327 540L326 540L326 543L326 547L326 548L326 549L326 550L326 551L326 552L326 553L326 554L326 555L326 556L326 557L326 558L326 559L326 560L326 561L326 562L326 563L326 564L326 565L326 566L326 567L326 568L326 569L326 570L326 571L326 572L326 573L326 574L326 575L326 576L326 577L326 578L326 579L326 580L326 581L326 582L326 583L326 584L326 585L326 586L326 587L326 588L326 589L326 590L326 591L326 592L326 593L326 594L326 595L326 596L326 597L326 598L326 599L326 600L326 601L326 602L326 608L331 608L331 612L331 613L331 614L331 615L331 616L331 617L331 618L331 619L331 620L331 621L331 622L331 623L331 624L331 625L331 626L331 627L331 628L331 629L331 630L331 631L331 632L331 633L331 634L331 635L331 636L331 637L331 638L331 639L331 640L331 641L331 642L331 643L331 644L331 645L331 646L331 647L331 648L331 649L331 650L331 651L331 652L331 653L331 654L331 655L331 656L331 657L331 658L331 659L331 660L331 661L331 662L331 663L331 664L331 665L331 666L331 667L331 668L331 669L331 670L331 671L331 677L334 677L334 678L334 682L334 683L334 684L334 685L334 686L334 687L334 688L334 689L334 690L334 691L334 692L334 693L334 694L334 695L334 696L334 697L334 698L334 699L334 700L334 701L334 702L334 703L334 704L334 705L334 706L334 707L334 708L334 709L334 710L334 711L334 712L334 713L334 714L334 715L334 716L334 717L334 718L334 719L334 720L334 721L334 722L334 723L334 724L334 725L334 726L334 727L334 728L334 729L334 730L334 731L334 732L334 733L334 734L334 735L334 736L334 737L334 738L334 739L334 740L334 741L334 745L335 745L335 742L335 738L335 737L335 736L335 735L335 734L335 733L335 732L335 731L335 730L335 729L335 728L335 727L335 726L335 725L335 724L335 723L335 722L335 721L335 720L335 719L335 718L335 717L335 716L335 715L335 714L335 713L335 712L335 711L335 710L335 709L335 708L335 707L335 706L335 705L335 704L335 703L335 702L335 701L335 700L335 699L335 698L335 697L335 696L335 695L335 694L335 693L335 692L335 691L335 690L335 689L335 688L335 687L335 686L335 685L335 684L335 683L335 677L339 677L340 677L341 677L342 677L346 677L346 673L346 672L346 671L346 670L346 669L346 668L346 667L346 666L346 665L346 664L346 663L346 662L346 661L346 660L346 659L346 658L346 657L346 656L346 655L346 654L346 653L346 652L346 651L346 650L346 649L346 648L346 647L346 646L346 645L346 644L346 643L346 642L346 641L346 640L346 639L346 638L346 637L346 636L346 635L346 634L346 633L346 632L346 631L346 630L346 629L346 628L346 627L346 626L346 625L346 624L346 623L346 622L346 621L346 620L346 619L346 618L346 617L346 616L346 615L346 614L346 613L346 612L346 611L346 610L346 609L346 608L346 607L346 606L346 605L346 604L346 603L346 602L346 601L346 600L346 599L346 598L346 597L346 596L346 595L346 594L346 593L346 592L346 591L346 590L346 589L346 588L346 587L346 586L346 585L346 584L346 583L346 582L346 581L346 580L346 579L346 578L346 577L346 576L346 575L346 574L346 573L346 572L346 571L346 570L346 569L346 568L346 567L346 566L346 565L346 564L346 563L346 562L346 561L346 560L346 559L346 558L346 557L346 556L346 555L346 554L346 553L346 552L346 551L346 550L346 549L346 548L346 547L346 546L346 545L346 544L346 543L346 542L346 541L346 540L346 539L346 538L346 537L346 536L346 535L346 534L346 533L346 532L346 531L346 530L346 529L346 528L346 527L346 526L346 525L346 524L346 523L346 522L346 521L346 520L346 519L346 518L346 517L346 516L346 515L346 514L346 513L346 512L346 511L346 510L346 509L346 508L346 507L346 506L346 505L346 504L346 503L346 502L346 501L346 500L346 499L346 498L346 497L346 496L346 495L346 494L346 493L346 492L346 491L346 490L346 489L346 488L346 487L346 486L346 485L346 484L346 483L346 482L346 481L346 480L346 479L346 478L346 477L346 476L346 475L346 474L346 473L346 472L346 471L346 470L346 469L346 468L346 467L346 466L346 465L346 464L346 463L346 462L346 461L346 460L346 459L346 458L346 457L346 456L346 455L346 454L346 453L346 452L346 451L346 450L346 449L346 448L346 447L346 446L346 445L346 444L346 443L346 442L346 441L346 440L346 439L346 438L346 437L346 436L346 435L346 434L346 433L346 432L346 431L346 430L346 429L346 428L346 427L346 426L346 425L346 424L346 423L346 422L346 421L346 420L346 419L346 418L346 417L346 416L346 415L346 414L346 413L346 412L346 411L346 410L346 409L346 408L346 407L346 406L346 405L346 404L346 403L346 402L346 401L346 400L346 399L346 398L346 397L346 396L346 395L346 394L346 393L346 392L346 391L346 390L346 389L346 388L346 387L346 386L346 385L346 384L346 383L346 382L346 381L346 380L346 379L346 378L346 377L346 376L346 375L346 374L346 373L346 372L346 371L346 370L346 369L346 368L346 367L346 366L346 365L346 364L346 363L346 362L346 361L346 360L346 359L346 358L346 357L346 356L346 355L346 354L346 353L346 352L346 351L346 350L346 349L346 348L346 347L346 346L346 345L346 344L346 343L346 342L346 335L345 334L343 334L339 334L338 334L337 334L336 334L335 334L334 334L333 334L332 334L327 334M380 334L379 335L379 337L379 341L379 342L379 343L379 344L379 345L379 346L379 347L379 348L379 349L379 350L379 351L379 352L379 353L379 354L379 355L379 356L379 357L379 358L379 359L379 360L379 361L379 362L379 363L379 364L379 365L379 366L379 367L379 368L379 369L379 370L379 371L379 372L379 373L379 374L379 375L379 376L379 377L379 378L379 379L379 380L379 381L379 382L379 383L379 384L379 385L379 386L379 387L379 388L379 389L379 390L379 391L379 392L379 393L379 394L379 395L379 396L379 397L379 398L379 399L379 400L379 401L379 402L379 403L379 404L379 405L379 406L379 407L379 408L379 409L379 410L379 411L379 412L379 413L379 414L379 415L379 416L379 417L379 418L379 419L379 420L379 421L379 422L379 423L379 424L379 425L379 426L379 427L379 428L379 429L379 430L379 431L379 432L379 433L379 434L379 435L379 436L379 437L379 438L379 439L379 440L379 441L379 442L379 443L379 444L379 445L379 446L379 447L379 448L379 449L379 450L379 451L379 452L379 453L379 454L379 455L379 456L379 457L379 458L379 459L379 460L379 461L379 462L379 463L379 464L379 465L379 466L379 467L379 468L379 469L379 470L379 471L379 472L379 473L379 474L379 475L379 476L379 477L379 478L379 479L379 480L379 481L379 482L379 483L379 484L379 485L379 486L379 487L379 488L379 489L379 490L379 491L379 492L379 493L379 494L379 495L379 496L379 497L379 498L379 499L379 500L379 501L379 502L379 503L379 504L379 505L379 506L379 507L379 508L379 509L379 510L379 511L379 512L379 513L379 514L379 515L379 516L379 517L379 518L379 519L379 520L379 521L379 522L379 523L379 524L379 525L379 526L379 527L379 528L379 529L379 530L379 531L379 532L379 533L379 534L379 535L379 536L379 537L379 538L379 539L379 540L379 541L379 542L379 543L379 544L379 545L379 546L379 547L379 548L379 549L379 550L379 551L379 552L379 553L379 554L379 555L379 556L379 557L379 558L379 559L379 560L379 561L379 562L379 563L379 564L379 565L379 566L379 567L379 568L379 569L379 570L379 571L379 572L379 573L379 574L379 575L379 576L379 577L379 578L379 579L379 580L379 581L379 582L379 583L379 584L379 585L379 586L379 587L379 588L379 589L379 590L379 591L379 592L379 593L379 594L379 595L379 596L379 597L379 598L379 599L379 600L379 601L379 602L379 603L379 604L379 605L379 606L379 607L379 608L379 609L379 610L379 611L379 612L379 613L379 614L379 615L379 616L379 617L379 618L379 619L379 620L379 621L379 622L379 623L379 624L379 625L379 626L379 627L379 628L379 629L379 630L379 631L379 632L379 633L379 634L379 635L379 636L379 637L379 638L379 639L379 640L379 641L379 642L379 643L379 644L379 645L379 646L379 647L379 648L379 649L379 650L379 651L379 652L379 653L379 654L379 655L379 656L379 657L379 658L379 659L379 660L379 661L379 662L379 663L379 664L379 665L379 666L379 667L379 668L379 669L379 670L379 671L379 672L379 677L383 677L384 677L385 677L386 677L387 677L388 677L389 677L390 677L391 677L392 677L393 677L394 677L398 677L398 681L398 682L398 683L398 684L398 685L398 686L398 687L398 688L398 689L398 690L398 691L398 692L398 693L398 694L398 695L398 696L398 697L398 698L398 699L398 700L398 701L398 702L398 703L398 704L398 705L398 706L398 707L398 708L398 709L398 710L398 711L398 712L398 713L398 714L398 715L398 716L398 717L398 718L398 719L398 720L398 721L398 722L398 723L398 724L398 725L398 726L398 727L398 728L398 729L398 730L398 731L398 732L398 733L398 734L398 735L398 736L398 737L398 738L398 739L398 740L398 745L400 745L400 743L400 739L400 738L400 737L400 736L400 735L400 734L400 733L400 732L400 731L400 730L400 729L400 728L400 727L400 726L400 725L400 724L400 723L400 722L400 721L400 720L400 719L400 718L400 717L400 716L400 715L400 714L400 713L400 712L400 711L400 710L400 709L400 708L400 707L400 706L400 705L400 704L400 703L400 702L400 701L400 700L400 699L400 698L400 697L400 696L400 695L400 694L400 693L400 692L400 691L400 690L400 689L400 688L400 687L400 686L400 685L400 684L400 683L400 682L400 681L400 680L400 679L400 678L400 677L400 676L400 675L400 674L400 673L400 672L400 671L400 670L400 669L400 668L400 667L400 666L400 665L400 664L400 663L400 662L400 661L400 660L400 659L400 658L400 657L400 656L400 655L400 654L400 653L400 652L400 651L400 650L400 649L400 648L400 647L400 646L400 645L400 644L400 643L400 642L400 641L400 640L400 639L400 638L400 637L400 636L400 635L400 634L400 633L400 632L400 631L400 630L400 629L400 628L400 627L400 626L400 625L400 624L400 623L400 622L400 621L400 620L400 619L400 618L400 617L400 616L400 615L400 614L400 613L400 612L400 611L400 610L400 609L400 608L400 607L400 606L400 605L400 604L400 603L400 602L400 601L400 600L400 599L400 598L400 597L400 596L400 595L400 594L400 593L400 592L400 591L400 590L400 589L400 588L400 587L400 586L400 585L400 584L400 583L400 582L400 581L400 580L400 579L400 578L400 577L400 576L400 575L400 574L400 573L400 572L400 571L400 570L400 569L400 568L400 567L400 566L400 565L400 564L400 563L400 562L400 561L400 560L400 559L400 558L400 557L400 556L400 555L400 554L400 553L400 552L400 551L400 550L400 549L400 548L400 547L400 546L400 545L400 544L400 540L398 540L398 538L398 534L398 533L398 532L398 531L398 530L398 529L398 528L398 527L398 526L398 525L398 524L398 523L398 522L398 521L398 520L398 519L398 518L398 517L398 516L398 515L398 514L398 513L398 512L398 511L398 510L398 509L398 508L398 507L398 506L398 505L398 504L398 503L398 502L398 501L398 500L398 499L398 498L398 497L398 496L398 495L398 494L398 493L398 492L398 491L398 490L398 489L398 488L398 487L398 486L398 485L398 484L398 483L398 482L398 481L398 480L398 479L398 472L397 472L397 469L397 465L397 464L397 463L397 462L397 461L397 460L397 459L397 458L397 457L397 456L397 455L397 454L397 453L397 452L397 451L397 450L397 449L397 448L397 447L397 446L397 445L397 444L397 443L397 442L397 441L397 440L397 439L397 438L397 437L397 436L397 435L397 434L397 433L397 432L397 431L397 430L397 429L397 428L397 427L397 426L397 425L397 424L397 423L397 422L397 421L397 420L397 419L397 418L397 417L397 416L397 415L397 414L397 413L397 412L397 411L397 410L397 403L400 403L400 402L400 398L400 397L400 396L400 395L400 394L400 393L400 392L400 391L400 390L400 389L400 388L400 387L400 386L400 385L400 384L400 383L400 382L400 381L400 380L400 379L400 378L400 377L400 376L400 375L400 374L400 373L400 372L400 371L400 370L400 369L400 368L400 367L400 366L400 365L400 364L400 363L400 362L400 361L400 360L400 359L400 358L400 357L400 356L400 355L400 354L400 353L400 352L400 351L400 350L400 349L400 348L400 347L400 346L400 345L400 344L400 343L400 342L400 341L400 340L400 339L400 335L399 334L397 334L393 334L392 334L391 334L390 334L389 334L388 334L387 334L386 334L380 334z"/>
</svg>
