<?xml version="1.0" standalone="yes"?>
<svg width="900" height="900">
<path style="fill:#020202; stroke:none;" d="M512 311L512 358L510.397 375.397L499 377L469 377L347 377L347 442L328 442L328 377L305 377L305 442L275 442L275 450L305 450L305 460L328 460L328 450L347 450L347 460L469 460L499 460C502.306 460 507.812 459.019 510.397 461.603C515.546 466.753 512 487.926 512 495L512 592L542 592L542 311L512 311M573 311L573 592L584 592L584 311L573 311M328 442L328 450L305 450L305 442L328 442M512 442L512 450L347 450L347 442L512 442M275 461L275 592L305 592L305 461L275 461M328 461L328 592L347 592L347 461L328 461z"/>
</svg>
