<?xml version="1.0" standalone="yes"?>
<svg width="900" height="900">
<path style="fill:#010101; stroke:none;" d="M253 251L255 254L253 251M257 251L258 260L259 260L257 251M261 251L261 255L261 256L261 257L261 258L262 264L263 264L263 260L263 259L263 258L263 257L261 251M265 251L265 255L265 256L265 257L265 258L265 259L265 260L265 261L265 262L265 266L267 268L268 268L268 269L269 269L269 270L270 270L270 271L271 271L271 272L272 272L272 273L273 273L273 274L274 274L274 275L275 275L275 276L276 276L276 277L277 277L277 278L278 278L278 279L279 279L279 280L280 280L280 281L281 281L281 282L282 282L282 283L283 283L283 284L284 284L284 285L285 285L285 286L286 286L286 287L287 287L287 288L288 288L288 289L289 289L289 290L290 290L290 291L291 291L291 292L292 292L292 293L293 293L293 294L294 294L294 295L295 295L295 296L296 296L296 297L297 297L297 298L298 298L298 299L299 299L299 300L300 300L300 301L301 301L301 302L302 302L302 303L303 303L303 304L304 304L304 305L305 305L305 306L306 306L306 307L307 307L307 308L308 308L308 309L309 309L309 310L310 310L310 311L311 311L311 312L312 312L312 313L313 313L313 314L314 314L314 315L315 315L317 317L319 314L320 322L321 322L321 314L323 314L323 316L324 325L325 325L325 321L325 320L325 319L325 318L325 314L327 314L327 316L327 320L327 321L327 322L327 323L328 329L329 329L329 325L329 324L329 323L329 322L329 321L329 320L329 319L329 318L329 314L333 314L334 314L335 314L336 314L337 314L338 314L339 314L340 314L341 314L342 314L343 314L344 314L345 314L346 314L347 314L348 314L349 314L350 314L351 314L352 314L353 314L354 314L355 314L356 314L357 314L358 314L359 314L360 314L361 314L362 314L363 314L364 314L365 314L366 314L367 314L368 314L369 314L370 314L371 314L372 314L373 314L374 314L375 314L376 314L377 314L378 314L379 314L380 314L381 314L382 314L383 314L384 314L385 314L386 314L387 314L388 314L389 314L390 314L391 314L392 314L393 314L394 314L395 314L396 314L397 314L398 314L399 314L400 314L401 314L402 314L403 314L404 314L405 314L406 314L407 314L408 314L409 314L410 314L411 314L412 314L413 314L414 314L415 314L416 314L417 314L418 314L419 314L420 314L421 314L422 314L423 314L424 314L425 314L426 314L427 314L428 314L429 314L430 314L431 314L432 314L433 314L434 314L435 314L436 314L437 314L438 314L439 314L440 314L441 314L442 314L443 314L444 314L445 314L446 314L447 314L448 314L449 314L450 314L451 314L452 314L453 314L454 314L455 314L456 314L457 314L458 314L459 314L460 314L461 314L462 314L463 314L464 314L465 314L466 314L467 314L468 314L469 314L470 314L471 314L472 314L473 314L474 314L475 314L476 314L477 314L478 314L479 314L480 314L481 314L482 314L483 314L484 314L485 314L486 314L487 314L488 314L489 314L490 314L491 314L492 314L493 314L494 314L495 314L496 314L497 314L498 314L499 314L500 314L501 314L502 314L503 314L504 314L505 314L506 314L507 314L508 314L509 314L510 314L511 314L512 314L513 314L514 314L515 314L516 314L517 314L518 314L519 314L520 314L521 314L522 314L523 314L524 314L525 314L526 314L527 314L528 314L529 314L530 314L531 314L532 314L533 314L534 314L535 314L536 314L537 314L538 314L539 314L540 314L541 314L542 314L543 314L544 314L545 314L546 314L547 314L548 314L549 314L550 314L551 314L552 314L553 314L554 314L555 314L556 314L557 314L558 314L559 314L560 314L561 314L562 314L563 314L564 314L565 314L566 314L567 314L568 314L569 314L570 314L571 314L572 314L573 314L574 314L575 314L576 314L577 314L578 314L579 314L580 314L586 314L588 312L588 311L589 311L589 310L590 310L590 309L591 309L591 308L592 308L592 307L593 307L593 306L594 306L594 305L595 305L595 304L596 304L596 303L597 303L597 302L598 302L598 301L599 301L599 300L600 300L600 299L601 299L601 298L602 298L602 297L603 297L603 296L604 296L604 295L605 295L605 294L606 294L606 293L607 293L607 292L608 292L608 291L609 291L609 290L610 290L610 289L611 289L611 288L612 288L612 287L613 287L613 286L614 286L614 285L615 285L615 284L616 284L616 283L617 283L617 282L618 282L618 281L619 281L619 280L620 280L620 279L621 279L621 278L622 278L622 277L623 277L623 276L624 276L624 275L625 275L625 274L626 274L626 273L627 273L627 272L628 272L628 271L629 271L629 270L630 270L630 269L631 269L631 268L634 266L634 262L634 261L634 260L634 259L634 258L634 257L634 256L634 255L634 251L632 253L631 253L631 254L630 254L630 255L629 255L629 256L628 256L628 257L627 257L627 258L626 258L624 260L624 262L623 263L621 265L620 265L620 266L619 266L619 267L618 267L618 268L617 268L617 269L616 269L616 270L615 270L613 272L613 274L612 275L610 277L609 277L609 278L608 278L608 279L607 279L607 280L606 280L606 281L605 281L605 282L604 282L602 284L602 286L601 287L599 289L598 289L598 290L597 290L597 291L596 291L596 292L595 292L595 293L594 293L594 294L593 294L591 296L591 298L590 299L588 301L587 301L587 302L586 302L586 303L585 303L585 304L584 304L584 305L583 305L583 306L582 306L581 308L577 308L576 308L575 308L574 308L573 308L572 308L571 308L570 308L569 308L568 308L567 308L566 308L565 308L564 308L563 308L562 308L561 308L560 308L559 308L558 308L557 308L556 308L555 308L554 308L553 308L552 308L551 308L550 308L549 308L548 308L547 308L546 308L545 308L544 308L543 308L542 308L541 308L540 308L539 308L538 308L537 308L536 308L535 308L534 308L533 308L532 308L531 308L530 308L529 308L528 308L527 308L526 308L525 308L524 308L523 308L522 308L521 308L520 308L519 308L518 308L517 308L516 308L515 308L514 308L513 308L512 308L511 308L510 308L509 308L508 308L507 308L506 308L505 308L504 308L503 308L502 308L501 308L500 308L499 308L498 308L497 308L496 308L495 308L494 308L493 308L492 308L491 308L490 308L489 308L488 308L487 308L486 308L485 308L484 308L483 308L482 308L481 308L480 308L479 308L478 308L477 308L476 308L475 308L474 308L473 308L472 308L471 308L470 308L469 308L468 308L467 308L466 308L465 308L464 308L463 308L462 308L461 308L460 308L459 308L458 308L457 308L456 308L455 308L454 308L453 308L452 308L451 308L450 308L449 308L448 308L447 308L446 308L445 308L444 308L443 308L442 308L441 308L440 308L439 308L438 308L437 308L436 308L435 308L434 308L433 308L432 308L431 308L430 308L429 308L428 308L427 308L426 308L425 308L424 308L423 308L422 308L421 308L420 308L419 308L418 308L417 308L416 308L415 308L414 308L413 308L412 308L411 308L410 308L409 308L408 308L407 308L406 308L405 308L404 308L403 308L402 308L401 308L400 308L399 308L398 308L397 308L396 308L395 308L394 308L393 308L392 308L391 308L390 308L389 308L388 308L387 308L386 308L385 308L384 308L383 308L382 308L381 308L380 308L379 308L378 308L377 308L376 308L375 308L374 308L373 308L372 308L371 308L370 308L369 308L368 308L367 308L366 308L365 308L364 308L363 308L362 308L361 308L360 308L359 308L358 308L357 308L356 308L355 308L354 308L353 308L352 308L351 308L350 308L349 308L348 308L347 308L346 308L345 308L344 308L343 308L342 308L341 308L340 308L339 308L338 308L337 308L336 308L335 308L334 308L333 308L332 308L331 308L330 308L329 308L328 308L327 308L326 308L325 308L324 308L323 308L322 308L318 308L316 306L316 305L315 305L315 304L314 304L314 303L313 303L313 302L311 298L310 297L308 298L307 295L305 293L304 293L304 292L303 292L301 290L302 288L301 287L300 286L297 286L296 283L292 280L293 278L292 277L286 274L283 270L284 268L283 267L281 265L280 265L280 264L279 264L275 262L274 259L272 257L271 257L271 256L270 256L270 255L269 255L269 254L268 254L265 251M349 252L350 253L349 252M548 252L549 253L548 252M316 253L318 255L316 253M383.333 253.667L383.667 254.333L383.333 253.667M514.333 253.667L514.667 254.333L514.333 253.667M582 253L581 255L582 253M300 254L303 257L300 254M350 254L351 255L350 254M400 254L400 257L401 257L401 256L401 255L400 254M497 254L497 257L498 257L498 256L498 255L497 254M547 254L548 255L547 254M598 254L596 257L598 254M291 255L295 259L291 255M331 255L333 259L334 259L331 255M371 255L372 259L373 259L371 255M411 255L411 259L412 259L411 255M487 255L487 259L488 259L487 255M527 255L526 259L527 259L527 255M567 255L565 259L566 259L567 255M607 255L604 259L607 255M285 256L290 261L285 256M318 256L320 258L318 256M351 256L352 257L351 256M384.333 256.667L384.667 257.333L384.333 256.667M417 256L417 261L418 261L417 256M480 256L480 261L481 261L480 256M513.333 256.667L513.667 257.333L513.333 256.667M546 256L547 257L546 256M580 256L579 258L580 256M613 256L609 261L613 256M282 257L284 259L284 260L285 260L285 261L288 263L286 261L286 260L285 260L285 259L282 257M309 257L312 260L309 257M338 257L341 263L342 263L338 257M365 257L367 263L368 263L365 257M394 257L394 260L395 260L395 259L395 258L394 257M421 257L421 263L422 263L421 257M477 257L477 263L478 263L477 257M503 257L503 260L504 260L504 259L504 258L503 257M533 257L531 263L532 263L533 257M559 257L558 260L557 260L557 262L556 263L557 263L558 260L559 260L559 258C560.397 257.302 560.396 257.698 559 257M589 257L587 260L589 257M615 257L613 259L613 260L612 260L612 261L610 263L612 261L613 261L613 260L614 260L615 257M280 258L282 260L282 261L283 261L283 262L286 264L284 262L284 261L283 261L283 260L280 258M303 258L306 261L303 258M329 258L331 262L332 262L329 258M352 258L353 259L352 258M375 258L376 262L377 262L375 258M401 258L401 261L402 261L402 260L402 259L401 258M424 258L424 264L425 264L424 258M473 258L473 264L474 264L473 258M496 258L496 261L497 261L497 260L497 259L496 258M523 258L522 262L523 262L523 258M545 258L546 259L545 258M568 258L566 262L567 262L568 258M595 258L593 261L595 258M618 258L616 260L616 261L615 261L615 262L613 264L615 262L616 262L616 261L617 261L618 258M278 259L280 261L280 262L281 262L281 263L285 266L283 264L283 263L282 263L282 262L278 259M300 259L303 262L300 259M320 259L322 261L320 259M343 259L344 260L343 259M362 259L363 260L362 259M385.333 259.667L385.667 260.333L385.333 259.667M405 259L405 262L406 262L406 261L406 260L405 259M428 259L428 266L429 266L428 259M470 259L470 266L471 266L470 259M493 259L493 262L494 262L494 261L494 260L493 259M512.333 259.667L512.667 260.333L512.333 259.667M535 259L536 260L535 259M555 259L556 260L555 259M578 259L577 261L578 259M597 259L595 262L597 259M620 259L618 261L618 262L617 262L617 263L614 266L616 264L617 264L617 263L618 263L620 259M295 260L299 264L295 260M314 260L316 262L316 264L319 266L317 264L317 262L314 260M334 260L336 264L337 264L334 260M353 260L354 261L353 260M373 260L374 264L375 264L373 260M392 260L393 266L394 266L392 260M412 260L412 264L413 264L412 260M486 260L486 264L487 264L486 260M506 260L505 266L506 266L506 260M525 260L524 264L525 264L525 260M544 260L545 261L544 260M564 260L562 264L563 264L564 260M583 260L581 262L581 264L579 266L582 264L582 262L583 260M603 260L600 264L603 260M292 261L297 266L292 261M312 261L314 263L312 261M328 261L330 263L328 261M344 261L347 267L348 267L344 261M363 261L365 267L366 267L363 261M379.333 261.667L379.667 262.333L379.333 261.667M395.333 261.667L395.667 262.333L395.333 261.667M415 261L415 266L416 266L415 261M431 261L431 269L432 269L431 261M467 261L467 269L468 269L467 261M483 261L483 266L484 266L483 261M502.333 261.667L502.667 262.333L502.333 261.667M518.333 261.667L518.667 262.333L518.333 261.667M534 261L532 267L533 267L534 261M554 261L553 264L552 264L552 266L551 267L552 267L553 264L554 264L554 262C555.396 261.302 555.396 261.698 554 261M570 261L569 263L570 261M586 261L585 263L586 261M605 261L601 266L605 261M621 261L619 263L619 264L618 264L618 265L617 265L617 266L616 266L616 267L614 269L616 267L617 267L617 266L618 266L618 265L619 265L619 264L620 264L621 261M277 262L279 264L279 265L280 265L280 266L283 269L281 267L280 267L280 266L279 266L277 262M306 262L309 265L306 262M322 262L324 264L322 262M338 262L340 266L341 266L338 262M354 262L355 263L354 262M370 262L371 266L372 266L370 262M386.333 262.667L386.667 263.333L386.333 262.667M402 262L402 265L403 265L403 264L403 263L402 262M495 262L495 265L496 265L496 264L496 263L495 262M511.333 262.667L511.667 263.333L511.333 262.667M527 262L526 266L527 266L527 262M543 262L544 263L543 262M560 262L558 266L559 266L560 262M576 262L575 264L576 262M592 262L590 265L592 262M291 263L295 267L291 263M303 263L306 266L303 263M320 263L322 265L320 263M332 263L334 265L332 263M348 263L349 264L348 263M361 263L362 264L361 263M377.333 263.667L377.667 264.333L377.333 263.667M390.333 263.667L390.667 264.333L390.333 263.667M406 263L406 266L407 266L407 265L407 264L406 263M418 263L418 267L419 267L418 263M479 263L479 267L480 267L479 263M492 263L492 266L493 266L493 265L493 264L492 263M508.333 263.667L508.667 264.333L508.333 263.667M521.333 263.667L521.667 264.333L521.333 263.667M537 263L538 264L537 263M549 263L550 264L549 263M565 263L564 265L565 263M578 263L577 265L578 263M594 263L592 266L594 263M607 263L604 267L607 263M288 264L293 269L288 264M301 264L305 268L301 264M314 264L317 267L314 264M330 264L332 268L333 268L330 264M342 264L343 265L342 264M355 264L356 265L355 264M368 264L369 265L368 264M380 264L381 268L382 268L380 264M396 264L396 267L397 267L397 266L397 265L396 264M409 264L409 268L410 268L409 264M422 264L422 269L423 269L422 264M434 264L434 273L435 273L435 270L435 267L434 264M463 264L463 273L464 273L464 270L464 267L463 264M476 264L476 269L477 269L476 264M488 264L488 268L489 268L488 264M501 264L501 267L502 267L502 266L502 265L501 264M517 264L516 268L517 268L517 264M530 264L531 265L530 264M542 264L543 265L542 264M555 264L556 265L555 264M568 264L566 268L567 268L568 264M584 264L582 267L584 264M597 264L594 268L597 264M609 264L605 269L609 264M311 265L314 268L311 265M324 265L326 267L324 265M337 265L339 269L340 269L337 265M349 265L350 266L349 265M362 265L363 266L362 265M375 265L376 269L377 269L375 265M387.333 265.667L387.667 266.333L387.333 265.667M400 265L400 268L401 268L401 267L401 266L400 265M498 265L498 268L499 268L499 267L499 266L498 265M510.333 265.667L510.667 266.333L510.333 265.667M523 265L522 269L523 269L523 265M536 265L537 266L536 265M548 265L549 266L548 265M561 265L559 269L560 269L561 265M574 265L573 267L574 265M586 265L584 268L586 265M287 266L289 268L289 269L290 269L290 270L293 272L291 270L291 269L290 269L290 268L287 266M300 266L303 269L300 266M309 266L312 269L309 266M322 266L324 268L322 266M334 266L335 267L334 266M343 266L345 270L346 270L343 266M356 266L357 267L356 266M369 266L370 270L371 270L369 266M378 266L379 267L378 266M391.333 266.667L391.667 267.333L391.333 266.667M403 266L403 269L404 269L404 268L404 267L403 266M413 266L413 269L414 269L414 268L414 267L413 266M425 266L425 272L426 272L425 266M472 266L472 272L473 272L472 266M485 266L485 269L486 269L486 268L486 267L485 266M494 266L494 269L495 269L495 268L495 267L494 266M507.333 266.667L507.667 267.333L507.333 266.667M520 266L521 267L520 266M529 266L528 270L529 270L529 266M541 266L542 267L541 266M554 266L552 270L553 270L554 266M563 266L564 267L563 266M576 266L575 268L576 266M589 266L587 269L589 266M598 266L596 269L598 266M611 266L609 268L609 269L608 269L608 270L606 272L608 270L609 270L609 269L610 269L611 266M297 267L301 271L297 267M319 267L321 269L319 267M328 267L330 269L328 267M341 267L342 268L341 267M350 267L351 268L350 267M363 267L364 268L363 267M372 267L373 268L372 267M385.333 267.667L385.667 268.333L385.333 267.667M394.333 267.667L394.667 268.333L394.333 267.667M416 267L416 271L417 271L416 267M482 267L482 271L483 271L482 267M504.333 267.667L504.667 268.333L504.333 267.667M513.333 267.667L513.667 268.333L513.333 267.667M525 267L526 268L525 267M535 267L536 268L535 267M547 267L548 268L547 267M557 267L558 268L557 267M569 267L568 269L569 267M578 267L577 269L578 267M600 267L597 271L600 267M307 268L310 271L307 268M317 268L319 270L317 268M326 268L328 270L326 268M335 268L337 270L335 268M348 268L349 269L348 268M357 268L358 269L357 268M366 268L367 269L366 268M379.333 268.667L379.667 269.333L379.333 268.667M388.333 268.667L388.667 269.333L388.333 268.667M397.333 268.667L397.667 269.333L397.333 268.667M407 268L407 271L408 271L408 270L408 269L407 268M491 268L491 271L492 271L492 270L492 269L491 268M500.333 268.667L500.667 269.333L500.333 268.667M509.333 268.667L509.667 269.333L509.333 268.667M519.333 268.667L519.667 269.333L519.333 268.667M531 268L532 269L531 268M540 268L541 269L540 268M550 268L551 269L550 268M562 268L561 270L562 268M572 268L571 270L572 268M581 268L580 270L581 268M590 268L588 271L590 268M253 269L255 271L253 269M287 269L289 271L289 272L290 272L290 273L293 275L291 273L291 272L290 272L290 271L287 269M296 269L300 273L296 269M305 269L308 272L305 269M314 269L317 272L314 269M324 269L326 271L324 269M333 269L335 271L333 269M342 269L344 271L342 269M351 269L353 273L354 273L351 269M364 269L365 273L366 273L364 269M373.333 269.667L373.667 270.333L373.333 269.667M382.333 269.667L382.667 270.333L382.333 269.667M392.333 269.667L392.667 270.333L392.333 269.667M401 269L401 272L402 272L402 271L402 270L401 269M410 269L410 272L411 272L411 271L411 270L410 269M419 269L419 273L420 273L419 269M429 269L429 275L430 275L429 269M438 269L438 279L439 279L439 276L438 269M460 269L460 279L461 279L461 276L460 269M469 269L469 275L470 275L469 269M478 269L478 273L479 273L478 269M487 269L487 272L488 272L488 271L488 270L487 269M497 269L497 272L498 272L498 271L498 270L497 269M506.333 269.667L506.667 270.333L506.333 269.667M515.333 269.667L515.667 270.333L515.333 269.667M524.333 269.667L524.667 270.333L524.333 269.667M534 269L533 273L534 273L534 269M546 269L544 273L545 273L546 269M556 269L555 271L556 269M565 269L564 271L565 269M574 269L573 271L574 269M583 269L581 272L583 269M593 269L591 272L593 269M602 269L599 273L602 269M611 269L609 271L609 272L608 272L608 273L606 275L608 273L609 273L609 272L610 272L611 269M321 270L323 272L321 270M330 270L332 272L330 270M340 270L342 272L340 270M349 270L350 271L349 270M358 270L359 271L358 270M367 270L368 271L367 270M377.333 270.667L377.667 271.333L377.333 270.667M386.333 270.667L386.667 271.333L386.333 270.667M395.333 270.667L395.667 271.333L395.333 270.667M503.333 270.667L503.667 271.333L503.333 270.667M512.333 270.667L512.667 271.333L512.333 270.667M521.333 270.667L521.667 271.333L521.333 270.667M530 270L531 271L530 270M539 270L540 271L539 270M549 270L550 271L549 270M558 270L557 272L558 270M567 270L566 272L567 270M576 270L575 272L576 270M304 271L307 274L304 271M313 271L315 273L313 271M328 271L330 273L328 271M337 271L339 273L337 271M346 271L347 272L346 271M356 271L357 272L356 271M362 271L363 272L362 271M371 271L372 272L371 271M380.333 271.667L380.667 272.333L380.333 271.667M389.333 271.667L389.667 272.333L389.333 271.667M404.333 271.667L404.667 272.333L404.333 271.667M414 271L414 274L415 274L415 273L415 272L414 271M484 271L484 274L485 274L485 273L485 272L484 271M493.333 271.667L493.667 272.333L493.333 271.667M508.333 271.667L508.667 272.333L508.333 271.667M518.333 271.667L518.667 272.333L518.333 271.667M527 271L528 272L527 271M536 271L537 272L536 271M542 271L543 272L542 271M551 271L552 272L551 271M560 271L559 273L560 271M570 271L569 273L570 271M585 271L584 273L585 271M594 271L592 274L594 271M295 272L299 276L295 272M310 272L313 275L310 272M320 272L322 274L320 272M326 272L328 274L326 272M335 272L337 274L335 272M344 272L345 273L344 272M350 272L352 276L353 276L350 272M359 272L360 273L359 272M368 272L369 276L370 276L368 272M374 272L375 273L374 272M383.333 272.667L383.667 273.333L383.333 272.667M393.333 272.667L393.667 273.333L393.333 272.667M398.333 272.667L398.667 273.333L398.333 272.667M408 272L408 275L409 275L409 274L409 273L408 272M423 272L423 276L424 276L423 272M475 272L475 276L476 276L475 272M490 272L490 275L491 275L491 274L491 273L490 272M499.333 272.667L499.667 273.333L499.333 272.667M505.333 272.667L505.667 273.333L505.333 272.667M514.333 272.667L514.667 273.333L514.333 272.667M523 272L524 273L523 272M529 272L528 276L529 276L529 272M538 272L539 273L538 272M548 272L546 276L547 276L548 272M554 272L555 273L554 272M563 272L562 274L563 272M572 272L571 274L572 272M578 272L577 274L578 272M587 272L585 275L587 272M602 272L599 276L602 272M302 273L305 276L302 273M317 273L319 275L317 273M332 273L334 275L332 273M342 273L343 274L342 273M347 273L348 274L347 273M357 273L358 274L357 273M363 273L364 274L363 273M372 273L373 274L372 273M378 273L379 274L378 273M387.333 273.667L387.667 274.333L387.333 273.667M402.333 273.667L402.667 274.333L402.333 273.667M417 273L417 276L418 276L418 275L418 274L417 273M432 273L432 279L433 279L432 273M466 273L466 279L467 279L466 273M481 273L481 276L482 276L482 275L482 274L481 273M496.333 273.667L496.667 274.333L496.333 273.667M511.333 273.667L511.667 274.333L511.333 273.667M520 273L521 274L520 273M526 273L527 274L526 273M535 273L536 274L535 273M541 273L542 274L541 273M550 273L551 274L550 273M556 273L557 274L556 273M565 273L564 275L565 273M580 273L579 275L580 273M595 273L593 276L595 273M610 273L608 275L608 276L607 276L607 277L605 279L607 277L608 277L608 276L609 276L610 273M288 274L292 279L288 274M309 274L312 277L309 274M324 274L326 276L324 274M330 274L332 276L330 274M339 274L340 275L339 274M345 274L346 275L345 274M354 274L355 275L354 274M360 274L361 275L360 274M366 274L367 275L366 274M375 274L376 275L375 274M381 274L382 275L381 274M390.333 274.667L390.667 275.333L390.333 274.667M396.333 274.667L396.667 275.333L396.333 274.667M411 274L411 277L412 277L412 276L412 275L411 274M486 274L486 277L487 277L487 276L487 275L486 274M502.333 274.667L502.667 275.333L502.333 274.667M507.333 274.667L507.667 275.333L507.333 274.667M517 274L518 275L517 274M522 274L523 275L522 274M532 274L533 275L532 274M537 274L538 275L537 274M543 274L544 275L543 274M553 274L554 275L553 274M558 274L559 275L558 274M568 274L567 276L568 274M573 274L572 276L573 274M589 274L587 277L589 274M295 275L299 279L295 275M316 275L318 277L316 275M322 275L324 277L322 275M337 275L338 276L337 275M343 275L345 277L343 275M348 275L350 277L348 275M358 275L359 276L358 275M364 275L365 276L364 275M373.333 275.667L373.667 276.333L373.333 275.667M379.333 275.667L379.667 276.333L379.333 275.667M384 275L385 276L384 275M399.333 275.667L399.667 276.333L399.333 275.667M405.333 275.667L405.667 276.333L405.333 275.667M426 275L426 279L427 279L426 275M471 275L471 279L472 279L471 275M492.333 275.667L492.667 276.333L492.333 275.667M498.333 275.667L498.667 276.333L498.333 275.667M513 275L514 276L513 275M519.333 275.667L519.667 276.333L519.333 275.667M525.333 275.667L525.667 276.333L525.333 275.667M534 275L535 276L534 275M540 275L541 276L540 275M549 275L548 277L549 275M555 275L554 277L555 275M561 275L562 276L561 275M576 275L575 277L576 275M582 275L581 277L582 275M603 275L600 279L603 275M302 276L305 279L302 276M308 276L311 279L308 276M329 276L330 277L329 276M334 276L336 278L334 276M340 276L342 278L340 276M355 276L356 277L355 276M361 276L362 277L361 276M367 276L368 277L367 276M382.333 276.667L382.667 277.333L382.333 276.667M388.333 276.667L388.667 277.333L388.333 276.667M394 276L395 277L394 276M415 276L415 279L416 279L416 278L416 277L415 276M420 276L420 279L421 279L421 278L421 277L420 276M477 276L477 279L478 279L478 278L478 277L477 276M483 276L483 279L484 279L484 278L484 277L483 276M504 276L505 277L504 276M510.333 276.667L510.667 277.333L510.333 276.667M516.333 276.667L516.667 277.333L516.333 276.667M531 276L532 277L531 276M536 276L537 277L536 276M542 276L543 277L542 276M557 276L556 278L557 276M563 276L562 278L563 276M569 276L570 277L569 276M590 276L588 279L590 276M596 276L594 279L596 276M314 277L316 279L314 277M320 277L322 279L320 277M326 277L328 279L326 277M332 277L334 279L332 277M347 277L348 278L347 277M353 277L354 278L353 277M359 277L360 278L359 277M365 277L366 278L365 277M370 277L371 278L370 277M376 277L377 278L376 277M391.333 277.667L391.667 278.333L391.333 277.667M397.333 277.667L397.667 278.333L397.333 277.667M403.333 277.667L403.667 278.333L403.333 277.667M409.333 277.667L409.667 278.333L409.333 277.667M489.333 277.667L489.667 278.333L489.333 277.667M495.333 277.667L495.667 278.333L495.333 277.667M501.333 277.667L501.667 278.333L501.333 277.667M506.333 277.667L506.667 278.333L506.333 277.667M521 277L522 278L521 277M527 277L528 278L527 277M533 277L534 278L533 277M539 277L540 278L539 277M545 277L546 278L545 277M551 277L552 278L551 277M566 277L565 279L566 277M571 277L570 279L571 277M577 277L576 279L577 277M583 277L582 279L583 277M339 278L340 279L339 278M345 278L346 279L345 278M350 278L351 279L350 278M356 278L357 279L356 278M362 278L363 279L362 278M368 278L369 279L368 278M374 278L375 279L374 278M380 278L381 279L380 278M385 278L386 279L385 278M512 278L513 279L512 278M518 278L519 279L518 278M524 278L525 279L524 278M530 278L531 279L530 278M535 278L536 279L535 278M541 278L542 279L541 278M547 278L548 279L547 278M553 278L554 279L553 278M559 278L560 279L559 278M296 279L300 283L296 279M301 279L304 282L301 279M307 279L310 282L307 279M313 279L315 281L313 279M319 279L321 281L319 279M325 279L327 281L325 279M331 279L333 281L331 279M336 279L337 280L336 279M342 279L343 280L342 279M348 279L349 280L348 279M354 279L355 280L354 279M360 279L361 280L360 279M366 279L367 280L366 279M371 279L372 280L371 279M377 279L378 280L377 279M383 279L384 280L383 279M389 279L390 280L389 279M395.333 279.667L395.667 280.333L395.333 279.667M400.333 279.667L400.667 280.333L400.333 279.667M406.333 279.667L406.667 280.333L406.333 279.667M412.333 279.667L412.667 280.333L412.333 279.667M418 279L418 282L419 282L419 281L419 280L418 279M424 279L424 282L425 282L425 281L425 280L424 279M430 279L430 283L431 283L430 279M435 279L435 285L436 285L435 279M441 279L441 289L442 289L442 286L441 279M456 279L456 289L457 289L457 286L456 279M462 279L462 285L463 285L462 279M468 279L468 283L469 283L468 279M474 279L474 282L475 282L475 281L475 280L474 279M480 279L480 282L481 282L481 281L481 280L480 279M485.333 279.667L485.667 280.333L485.333 279.667M491.333 279.667L491.667 280.333L491.333 279.667M497.333 279.667L497.667 280.333L497.333 279.667M503.333 279.667L503.667 280.333L503.333 279.667M509 279L510 280L509 279M515 279L516 280L515 279M520 279L521 280L520 279M526 279L527 280L526 279M532 279L533 280L532 279M538 279L539 280L538 279M544 279L545 280L544 279M550 279L551 280L550 279M555 279L556 280L555 279M561 279L562 280L561 279M567 279L566 281L567 279M573 279L572 281L573 279M579 279L578 281L579 279M585 279L584 281L585 279M590 279L588 282L590 279M596 279L594 282L596 279M602 279L599 283L602 279M340 280L342 282L340 280M346 280L347 281L346 280M351 280L352 281L351 280M357 280L358 281L357 280M363 280L364 281L363 280M369 280L370 281L369 280M375 280L376 281L375 280M381 280L382 281L381 280M386.333 280.667L386.667 281.333L386.333 280.667M511.333 280.667L511.667 281.333L511.333 280.667M517 280L518 281L517 280M523 280L524 281L523 280M529 280L530 281L529 280M534 280L535 281L534 280M540 280L541 281L540 280M546 280L547 281L546 280M552 280L553 281L552 280M558 280L557 282L558 280M317 281L319 283L317 281M323 281L325 283L323 281M329 281L330 282L329 281M335 281L336 282L335 281M349 281L351 283L349 281M355 281L356 282L355 281M361 281L362 282L361 281M367 281L368 282L367 281M372 281L373 282L372 281M378.333 281.667L378.667 282.333L378.333 281.667M392 281L393 282L392 281M398 281L399 282L398 281M404.333 281.667L404.667 282.333L404.333 281.667M410.333 281.667L410.667 282.333L410.333 281.667M488.333 281.667L488.667 282.333L488.333 281.667M494.333 281.667L494.667 282.333L494.333 281.667M500 281L501 282L500 281M505 281L506 282L505 281M519.333 281.667L519.667 282.333L519.333 281.667M525 281L526 282L525 281M531 281L532 282L531 281M537 281L538 282L537 281M543 281L544 282L543 281M549 281L548 283L549 281M563 281L564 282L563 281M568 281L569 282L568 281M574 281L573 283L574 281M580 281L579 283L580 281M307 282L310 285L307 282M313 282L315 284L313 282M333 282L335 284L333 282M338 282L339 283L338 282M344 282L345 283L344 282M358 282L359 283L358 282M364 282L365 283L364 282M370 282L371 283L370 282M384 282L385 283L384 282M390 282L391 283L390 282M396.333 282.667L396.667 283.333L396.333 282.667M416.333 282.667L416.667 283.333L416.333 282.667M421 282L421 285L422 285L422 284L422 283L421 282M476 282L476 285L477 285L477 284L477 283L476 282M482.333 282.667L482.667 283.333L482.333 282.667M502.333 282.667L502.667 283.333L502.333 282.667M508 282L509 283L508 282M514 282L515 283L514 282M528 282L529 283L528 282M533 282L534 283L533 282M539 282L540 283L539 282M553 282L554 283L553 282M559 282L560 283L559 282M565 282L564 284L565 282M585 282L584 284L585 282M591 282L589 285L591 282M302 283L305 286L302 283M322 283L324 285L322 283M328 283L329 284L328 283M342 283L343 284L342 283M348 283L349 284L348 283M353 283L354 284L353 283M362 283L363 284L362 283M368 283L369 284L368 283M376 283L377 284L376 283M382 283L383 284L382 283M387 283L388 284L387 283M401 283L402 284L401 283M407.333 283.667L407.667 284.333L407.333 283.667M427 283L427 286L428 286L428 285L428 284L427 283M470 283L470 286L471 286L471 285L471 284L470 283M490.333 283.667L490.667 284.333L490.333 283.667M496 283L497 284L496 283M510 283L511 284L510 283M516 283L517 284L516 283M522 283L523 284L522 283M530 283L531 284L530 283M536 283L537 284L536 283M544 283L545 284L544 283M550 283L551 284L550 283M556 283L557 284L556 283M570 283L571 284L570 283M576 283L575 285L576 283M596 283L594 286L596 283M317 284L319 286L317 284M331 284L333 286L331 284M337 284L338 285L337 284M345 284L346 285L345 284M351 284L352 285L351 284M359 284L360 285L359 284M365 284L366 285L365 284M371 284L372 285L371 284M379 284L380 285L379 284M385 284L386 285L385 284M393 284L394 285L393 284M399.333 284.667L399.667 285.333L399.333 284.667M413.333 284.667L413.667 285.333L413.333 284.667M484.333 284.667L484.667 285.333L484.333 284.667M499.333 284.667L499.667 285.333L499.333 284.667M504 284L505 285L504 284M513 284L514 285L513 284M518 284L519 285L518 284M527 284L528 285L527 284M532 284L533 285L532 284M538 284L539 285L538 284M547 284L548 285L547 284M552 284L553 285L552 284M561 284L562 285L561 284M566 284L565 286L566 284M581 284L580 286L581 284M312 285L314 287L312 285M326 285L327 286L326 285M340 285L341 286L340 285M349 285L350 286L349 285M354 285L355 286L354 285M363 285L364 286L363 285M369 285L370 286L369 285M377 285L378 286L377 285M383 285L384 286L383 285M391 285L392 286L391 285M405 285L406 286L405 285M419.333 285.667L419.667 286.333L419.333 285.667M433 285L433 289L434 289L433 285M465 285L465 289L466 289L465 285M479.333 285.667L479.667 286.333L479.333 285.667M493 285L494 286L493 285M507 285L508 286L507 285M515 285L516 286L515 285M521 285L522 286L521 285M529 285L530 286L529 285M535 285L536 286L535 285M543 285L544 286L543 285M549 285L550 286L549 285M557 285L558 286L557 285M571 285L572 286L571 285M585 285L584 287L585 285M599 285L596 289L599 285M299 286L301 289L299 286M307 286L310 289L307 286M321 286L322 287L321 286M330 286L332 288L330 286M336 286L337 287L336 286M344 286L345 287L344 286M352 286L353 287L352 286M358 286L359 287L358 286M366 286L367 287L366 286M374 286L375 287L374 286M380 286L381 287L380 286M388 286L389 287L388 286M397 286L398 287L397 286M402.333 286.667L402.667 287.333L402.333 286.667M411 286L412 287L411 286M425 286L425 289L426 289L426 288L426 287L425 286M473 286L473 289L474 289L474 288L474 287L473 286M487 286L488 287L487 286M495.333 286.667L495.667 287.333L495.333 286.667M501 286L502 287L501 286M509 286L510 287L509 286M517 286L518 287L517 286M523 286L524 287L523 286M531 286L532 287L531 286M540 286L541 287L540 286M546 286L547 287L546 286M554 286L555 287L554 286M562 286L563 287L562 286M568 286L567 288L568 286M576 286L577 287L576 286M590 286L588 289L590 286M317 287L319 289L317 287M325 287L327 289L325 287M339 287L340 288L339 287M347 287L348 288L347 287M355 287L356 288L355 287M364 287L365 288L364 287M370 287L371 288L370 287M378 287L379 288L378 287M386 287L387 288L386 287M394 287L395 288L394 287M408.333 287.667L408.667 288.333L408.333 287.667M417.333 287.667L417.667 288.333L417.333 287.667M481.333 287.667L481.667 288.333L481.333 287.667M489.333 287.667L489.667 288.333L489.333 287.667M503 287L504 288L503 287M512 287L513 288L512 287M520 287L521 288L520 287M528 287L529 288L528 287M534 287L535 288L534 287M542 287L543 288L542 287M550 287L551 288L550 287M559 287L560 288L559 287M573 287L572 289L573 287M581 287L580 289L581 287M334 288L335 289L334 288M342 288L343 289L342 288M351 288L352 289L351 288M359 288L360 289L359 288M367 288L368 289L367 288M375 288L376 289L375 288M384 288L385 289L384 288M392 288L393 289L392 288M400 288L401 289L400 288M498 288L499 289L498 288M506 288L507 289L506 288M514 288L515 289L514 288M522 288L523 289L522 288M530 288L531 289L530 288M539 288L540 289L539 288M547 288L548 289L547 288M555 288L556 289L555 288M563 288L564 289L563 288M305 289L308 292L305 289M313 289L315 291L313 289M321 289L322 290L321 289M329 289L330 290L329 289M338 289L339 290L338 289M346 289L347 290L346 289M354 289L355 290L354 289M362 289L363 290L362 289M373 289L374 290L373 289M381 289L382 290L381 289M389 289L390 290L389 289M398 289L399 290L398 289M406 289L407 290L406 289M414 289L415 290L414 289M422.333 289.667L422.667 290.333L422.333 289.667M431 289L431 292L432 292L432 291L432 290L431 289M439 289L439 294L440 294L439 289M459 289L459 294L460 294L459 289M467 289L467 292L468 292L468 291L468 290L467 289M475.333 289.667L475.667 290.333L475.333 289.667M483 289L484 290L483 289M492 289L493 290L492 289M500 289L501 290L500 289M508 289L509 290L508 289M516 289L517 290L516 289M525 289L526 290L525 289M535 289L536 290L535 289M544 289L545 290L544 289M552 289L553 290L552 289M560 289L561 290L560 289M568 289L569 290L568 289M577 289L578 290L577 289M585 289L584 291L585 289M593 289L591 292L593 289M324 290L326 292L324 290M333 290L334 291L333 290M341 290L342 291L341 290M349 290L350 291L349 290M360 290L361 291L360 290M368 290L369 291L368 290M376 290L377 291L376 290M387 290L388 291L387 290M395 290L396 291L395 290M403 290L404 291L403 290M412.333 290.667L412.667 291.333L412.333 290.667M486.333 290.667L486.667 291.333L486.333 290.667M494 290L495 291L494 290M502 290L503 291L502 290M511 290L512 291L511 290M521 290L522 291L521 290M529 290L530 291L529 290M538 290L539 291L538 290M548 290L549 291L548 290M557 290L558 291L557 290M565 290L566 291L565 290M573 290L572 292L573 290M317 291L318 292L317 291M336 291L337 292L336 291M344 291L345 292L344 291M355 291L356 292L355 291M363 291L364 292L363 291M374 291L375 292L374 291M382 291L383 292L382 291M393 291L394 292L393 291M401 291L402 292L401 291M420 291L421 292L420 291M478 291L479 292L478 291M497 291L498 292L497 291M505 291L506 292L505 291M515 291L516 292L515 291M524 291L525 292L524 291M534 291L535 292L534 291M543 291L544 292L543 291M553 291L554 292L553 291M561 291L562 292L561 291M580 291L581 292L580 291M253 292L255 294L253 292M310 292L312 294L310 292M321 292L323 294L321 292M329 292L330 293L329 292M340 292L341 293L340 292M350 292L351 293L350 292M358 292L359 293L358 292M369 292L370 293L369 292M380 292L381 293L380 292M388 292L389 293L388 292M399 292L400 293L399 292M409 292L410 293L409 292M418.333 292.667L418.667 293.333L418.333 292.667M428.333 292.667L428.667 293.333L428.333 292.667M469.333 292.667L469.667 293.333L469.333 292.667M480.333 292.667L480.667 293.333L480.333 292.667M488 292L489 293L488 292M499 292L500 293L499 292M510 292L511 293L510 292M518 292L519 293L518 292M528 292L529 293L528 292M539 292L540 293L539 292M547 292L548 293L547 292M558 292L559 293L558 292M569 292L570 293L569 292M577 292L576 294L577 292M588 292L587 294L588 292M277 293L279 295L279 296L280 296L280 297L281 297L281 298L282 298L282 299L285 301L283 299L283 298L282 298L282 297L281 297L281 296L280 296L280 295L277 293M332 293L333 294L332 293M343 293L344 294L343 293M354 293L355 294L354 293M364 293L365 294L364 293M375 293L376 294L375 293M386 293L387 294L386 293M396 293L397 294L396 293M407 293L408 294L407 293M491 293L492 294L491 293M501 293L502 294L501 293M512 293L513 294L512 293M523 293L524 294L523 293M533 293L534 294L533 293M544 293L545 294L544 293M555 293L556 294L555 293M565 293L566 294L565 293M620 293L618 295L618 296L617 296L617 297L616 297L616 298L615 298L615 299L613 301L615 299L616 299L616 298L617 298L617 297L618 297L618 296L619 296L620 293M274 294L276 296L276 297L277 297L277 298L278 298L278 299L279 299L279 300L282 302L280 300L280 299L279 299L279 298L278 298L278 297L277 297L277 296L274 294M314 294L315 295L314 294M325 294L326 295L325 294M336 294L337 295L336 294M349 294L350 295L349 294M359 294L360 295L359 294M370 294L371 295L370 294M381 294L382 295L381 294M391 294L392 295L391 294M404 294L405 295L404 294M415 294L416 295L415 294M426 294L427 295L426 294M436 294L436 297L437 297L437 296L437 295L436 294M461 294L461 297L462 297L462 296L462 295L461 294M472 294L473 295L472 294M482 294L483 295L482 294M493 294L494 295L493 294M506 294L507 295L506 294M517 294L518 295L517 294M527 294L528 295L527 294M538 294L539 295L538 294M549 294L550 295L549 294M562 294L563 295L562 294M573 294L574 295L573 294M583 294L584 295L583 294M623 294L621 296L621 297L620 297L620 298L619 298L619 299L618 299L618 300L616 302L618 300L619 300L619 299L620 299L620 298L621 298L621 297L622 297L623 294M282 295L284 297L284 298L285 298L285 299L286 299L286 300L287 300L287 301L291 304L289 302L289 301L288 301L288 300L287 300L287 299L286 299L286 298L282 295M318 295L320 297L318 295M328 295L329 296L328 295M342 295L343 296L342 295M352 295L353 296L352 295M365 295L366 296L365 295M376 295L377 296L376 295M389 295L390 296L389 295M400 295L401 296L400 295M413 295L414 296L413 295M423.333 295.667L423.667 296.333L423.333 295.667M474.333 295.667L474.667 296.333L474.333 295.667M485 295L486 296L485 295M498 295L499 296L498 295M509 295L510 296L509 295M522 295L523 296L522 295M532 295L533 296L532 295M545 295L546 296L545 295M556 295L557 296L556 295M569 295L570 296L569 295M580 295L579 297L580 295M615 295L613 297L613 298L612 298L612 299L611 299L611 300L610 300L610 301L607 304L609 302L610 302L610 301L611 301L611 300L612 300L612 299L613 299L615 295M273 296L275 298L275 299L276 299L276 300L279 302L277 300L277 299L276 299L276 298L273 296M332 296L333 297L332 296M345 296L346 297L345 296M358 296L359 297L358 296M371 296L372 297L371 296M384 296L385 297L384 296M397 296L398 297L397 296M410 296L411 297L410 296M487 296L488 297L487 296M500 296L501 297L500 296M513 296L514 297L513 296M526 296L527 297L526 296M540 296L541 297L540 296M553 296L554 297L553 296M566 296L567 297L566 296M624 296L622 298L622 299L621 299L621 300L619 302L621 300L622 300L622 299L623 299L624 296M271 297L273 299L273 300L274 300L274 301L277 303L275 301L275 300L274 300L274 299L271 297M322 297L323 298L322 297M338 297L339 298L338 297M351 297L352 298L351 297M364 297L365 298L364 297M379 297L380 298L379 297M392 297L393 298L392 297M405 297L406 298L405 297M421 297L422 298L421 297M434.333 297.667L434.667 298.333L434.333 297.667M464.333 297.667L464.667 298.333L464.333 297.667M477 297L478 298L477 297M492 297L493 298L492 297M505 297L506 298L505 297M518 297L519 298L518 297M534 297L535 298L534 297M547 297L548 298L547 297M560 297L561 298L560 297M575 297L576 298L575 297M588 297L587 299L588 297M626 297L624 299L624 300L623 300L623 301L621 303L623 301L624 301L624 300L625 300L626 297M310 298L309 299L310 298M326 298L327 299L326 298M341 298L342 299L341 298M357 298L358 299L357 298M372 298L373 299L372 298M388 298L389 299L388 298M403 298L404 299L403 298M419 298L420 299L419 298M479 298L480 299L479 298M495 298L496 299L495 298M510 298L511 299L510 298M525 298L526 299L525 298M541 298L542 299L541 298M556 298L557 299L556 298M572 298L573 299L572 298M314 299L315 300L314 299M331 299L332 300L331 299M347 299L348 300L347 299M365 299L366 300L365 299M380 299L381 300L380 299M398 299L399 300L398 299M414 299L415 300L414 299M432 299L433 300L432 299M466 299L467 300L466 299M484 299L485 300L484 299M499 299L500 300L499 299M517 299L518 300L517 299M533 299L534 300L533 299M551 299L552 300L551 299M566 299L567 300L566 299M584 299L585 300L584 299M291 300L293 302L293 303L294 303L294 304L295 304L295 305L296 305L296 306L300 309L298 307L298 306L297 306L297 305L296 305L296 304L295 304L295 303L291 300M317 300L318 301L317 300M335 300L336 301L335 300M355 300L356 301L355 300M373 300L374 301L373 300M391 300L392 301L391 300M411 300L412 301L411 300M429 300L430 301L429 300M468 300L469 301L468 300M486 300L487 301L486 300M507 300L508 301L507 300M524 300L525 301L524 300M542 300L543 301L542 300M563 300L564 301L563 300M581 300L582 301L581 300M606 300L604 302L604 303L603 303L603 304L602 304L602 305L601 305L601 306L598 309L600 307L601 307L601 306L602 306L602 305L603 305L603 304L604 304L606 300M320 301L321 302L320 301M341 301L342 302L341 301M363 301L364 302L363 301M384 301L385 302L384 301M406 301L407 302L406 301M427 301L428 302L427 301M471 301L472 302L471 301M491 301L492 302L491 301M514 301L515 302L514 301M534 301L535 302L534 301M557 301L558 302L557 301M577 301L578 302L577 301M324 302L325 303L324 302M349 302L350 303L349 302M374 302L375 303L374 302M399 302L400 303L399 302M424 302L425 303L424 302M473 302L474 303L473 302M498 302L499 303L498 302M523 302L524 303L523 302M549 302L550 303L549 302M574 302L575 303L574 302M270 303L274 307L270 303M330 303L331 304L330 303M360 303L361 304L360 303M390 303L391 304L390 303M420 303L421 304L420 303M478 303L479 304L478 303M508 303L509 304L508 303M538 303L539 304L538 303M568 303L569 304L568 303M627 303L624 307L627 303M279 304L284 309L279 304M282 304L287 309L282 304M285 304L287 306L287 307L288 307L288 308L291 310L289 308L289 307L288 307L288 306L285 304M338 304L339 305L338 304M375 304L376 305L375 304M412 304L413 305L412 304M485 304L486 305L485 304M522 304L523 305L522 304M560 304L561 305L560 304M612 304L610 306L610 307L609 307L609 308L607 310L609 308L610 308L610 307L611 307L612 304M615 304L611 309L615 304M618 304L614 309L618 304M351 305L352 306L351 305M400 305L401 306L400 305M497 305L498 306L497 305M547 305L548 306L547 305M269 306L273 310L269 306M277 306L282 311L277 306M291 306L296 311L291 306M376 306L377 307L376 306M521 306L522 307L521 306M606 306L602 311L606 306M620 306L616 311L620 306M628 306L625 310L628 306M276 308L280 312L276 308M621 308L618 312L621 308M274 310L278 314L274 310M623 310L620 314L623 310M287 311L291 315L287 311M610 311L608 314L610 311M284 312L288 316L284 312M291 312L294 315L291 312M300 312L304 316L300 312M597 312L596 314L597 312M606 312L605 314L606 312M613 312L612 314L613 312M282 313L285 316L282 313M615 313L616 314L615 313M296 314L300 318L296 314M268 315L271 318L268 315M280 315L283 318L280 315M273 316L276 319L273 316M278 316L282 320L278 316M294 317L297 320L294 317M272 318L275 321L272 318M288 318L291 321L288 318M291 318L294 321L291 318M304 318L307 321L304 318M277 319L280 322L277 319M285 319L288 322L285 319M283 320L286 323L283 320M300 320L302 322L300 320M276 321L279 324L276 321M275 323L278 326L275 323M282 323L284 325L282 323M294 323L296 325L294 323M297 323L300 326L297 323M271 324L273 327L275 327L277 329L275 326L273 326L271 324M280 324L283 327L280 324M288 324L291 327L288 324M291 324L293 326L291 324M302 324L304 326L302 324M307 324L309 326L307 324M279 326L282 329L279 326M286 326L288 328L286 326M284 327L287 330L284 327M293 328L295 330L293 328M296 328L298 330L296 328M300 328L301 329L300 328M309 328L310 329L309 328M274 329L276 331L274 329M278 329L280 331L278 329M283 329L285 331L283 329M304 329L306 331L304 329M288 330L291 333L288 330M291 330L293 332L291 330M267 331L269 333L267 331M277 331L279 333L277 331M310 331L311 332L310 331M282 332L283 333L282 332M287 332L288 333L287 332M298 332L300 334L298 332M301 332L303 334L301 332M306 333L307 334L306 333M317 333L317 334L321 336L317 333M281 334L282 335L281 334M285 334L286 335L285 334M291 334L292 335L291 334M296 334L299 338L301 338L303 341L305 341L307 344L309 344L311 347L313 347L314 348L318 353L320 353L322 356L324 356L326 359L328 359L329 361L331 361L333 364L335 364L337 367L339 367L341 370L337 368L342 374L342 379C344.649 378.47 345.607 378.572 345 381C347.649 380.47 348.607 380.572 348 383C350.649 382.47 351.607 382.572 351 385C353.649 384.47 354.607 384.572 354 387C356.649 386.47 357.607 386.572 357 389L360 391L357 390L357 391L360 394L357 393L356 391L354 391L353 389L351 388L348 389L345 387L345 388L351 389L351 392L354 391L353 393L356 392L355 394C357.649 393.47 358.607 393.572 358 396L361 398L357 399L357 396L356 396L354 399L354 400L357 399L357 402L353 403L354 401L351 402L351 403L355 405L352 406L352 407L354 408L358 407L358 410L359 410L358 408L359 408L362 409L362 410L364 410L364 411L366 411L366 412L368 412L368 413L370 413L375 414L375 413L372 414L373 412L370 413L372 410L375 411L375 412L377 412L382 412L383 416L383 417L381 419L385 420L385 429L390 430L391 430C393.64 429.12 393.566 428.735 393 431C395.95 430.017 396.622 429.513 396 432C398.95 431.017 399.622 430.513 399 433C401.95 432.017 402.622 431.513 402 434L406 433L406 434L402 435L402 436L399 436L399 437L396 437L396 438L393 438L387 440L387 441L391 442L393 439L396 438L399 438L402 437L402 438L400 439L398 439L396 441L403 442L403 443L408 443L408 445L406 445L402 444L401 447L392 446L392 450L392 451L392 452L392 453L392 460L398 460L398 459L403 459L403 458L406 458L413 458L419 460L419 459L416 459L416 458L420 459L422 459L423 458L430 458L430 459L425 459L425 462L423 460L420 461L417 461L412 460L407 463L407 464L413 464L413 465L408 468L414 468L414 469C410.806 469.013 408.729 468.597 408 472L414 472L414 470L419 469L418 471L420 471L420 480L423 480L423 479L423 472L426 471L430 467L430 472L428 474L427 474L427 475L426 475L424 477L424 482L426 482L424 486L429 482C429.53 484.649 429.428 485.607 427 485L427 486L429 487L432 485L431 482L433 483L433 481L437 481L438 481L439 481L440 481L445 481L445 487L444 487L444 493L440 493L439 493L438 493L437 493L436 493L435 493L434 493L433 493L432 493L431 493L430 493L429 493L424 496L428 496L429 496L430 496L431 496L432 496L433 496L434 496L435 496L436 496L437 496L438 496L439 496L445 496L445 505L444 505L444 508L444 515L446 515L446 513L446 509L446 508L446 507L446 506L446 505L446 504L446 503L446 502L446 496L448 496L448 498L448 502L448 503L448 504L448 505L448 506L448 507L448 508L448 509L448 515L450 515L450 513L450 509L450 508L450 507L450 506L450 505L450 504L450 503L450 502L450 496L452 496L452 498L452 502L452 503L452 504L452 505L452 506L452 507L452 508L452 509L452 515L454 515L454 513L454 505L453 505L453 502L453 499L455 496L454 493L454 484L455 484L455 490L456 490L456 493L456 497L456 498L456 499L456 500L456 501L456 502L456 503L456 504L456 505L456 506L456 507L456 508L456 515L460 515L461 515L462 515L463 515C465.993 514.936 467.346 515.054 468 512L469 512L469 515L473 517L475 524L476 524L474 520L473 515L476 517L476 520L478 523L479 523L478 519L476 517L476 509L480 507L478 511L481 509L479 513L482 511L480 515L483 513L481 517L484 515L482 519L485 517L483 520L484 524L485 524L485 526L486 528L487 526L488 526L487 529L487 530L488 533L486 536L488 536L488 541L490 541L490 537L491 537L492 541L493 541L493 536L494 536L495 539L496 539L496 541L497 541L497 543L498 543L498 545L499 545L499 547L500 547L500 549L501 549L502 553L506 556L506 552L505 552L505 548L502 550L503 547L501 548L502 545L500 546L501 543L499 544L500 541L498 542L498 541L499 536L500 536L502 539L503 545L505 544L504 547L506 547L507 552L510 552L512 555L511 558L514 558L513 561L515 565L517 563L520 568L519 571L519 577L521 579L521 581L522 581L522 585L526 582L524 578L523 578L524 583L521 578L523 577L523 576L521 574L520 570L526 573L525 576L528 579L529 583L531 586L532 586L529 579L532 579L532 576L529 578L530 575L528 572L526 569L524 566L521 565L521 559L524 559L524 563L526 566L529 567L530 567L532 565L535 569L535 571L538 573L538 575L541 577L541 579L543 580L543 582L546 584L546 586L548 587L548 591L548 592L547 597L549 600L551 600L551 604L551 605L551 606L551 607L551 608L551 609L551 610L551 611L551 612L551 613L551 614L551 615L551 619L550 619L549 613L548 613L547 615L548 618L547 618L547 623L544 623L545 620L543 621L544 618C540.955 617.609 540.927 615.874 541 613L540 613L539 615L540 617L540 618L538 619L538 620L538 624L539 631L535 631L534 631L533 631L532 631L531 631L530 631L529 631L528 631L527 631L526 631L525 631L524 631L523 631L522 631L521 631L520 631L519 631L518 631L517 631L516 631L515 631L514 631L513 631L512 631L511 631L510 631L509 631L508 631L507 631L506 631L505 631L504 631L503 631L502 631L501 631L500 631L499 631L498 631L497 631L496 631L495 631L494 631L493 631L492 631L491 631L490 631L489 631L488 631L487 631L486 631L485 631L484 631L483 631L482 631L481 631L480 631L479 631L478 631L477 631L476 631L475 631L474 631L473 631L472 631L471 631L470 631L469 631L468 631L467 631L466 631L465 631L464 631L463 631L462 631L461 631L460 631L459 631L458 631L457 631L456 631L455 631L454 631L453 631L452 631L451 631L450 631L449 631L448 631L447 631L446 631L445 631L444 631L443 631L442 631L441 631L440 631L439 631L438 631L437 631L436 631L435 631L434 631L433 631L432 631L431 631L430 631L429 631L428 631L427 631L426 631L425 631L424 631L423 631L422 631L421 631L420 631L419 631L418 631L417 631L416 631L415 631L414 631L413 631L412 631L411 631L410 631L409 631L408 631L407 631L406 631L405 631L404 631L403 631L402 631L401 631L400 631L399 631L398 631L397 631L396 631L395 631L394 631L393 631L392 631L391 631L390 631L389 631L388 631L387 631L386 631L385 631L384 631L383 631L382 631L381 631L380 631L379 631L378 631L377 631L376 631L375 631L374 631L373 631L372 631L371 631L370 631L369 631L368 631L367 631L366 631L365 631L364 631L363 631L362 631L361 631L360 631L359 631L358 631L357 631L356 631L355 631L354 631L353 631L352 631L351 631L350 631L349 631L348 631L347 631L346 631L345 631L344 631L343 631L342 631L341 631L340 631L339 631L338 631L337 631L336 631L335 631L334 631L333 631L332 631L331 631L330 631L329 631L328 631L327 631L326 631L325 631L324 631L323 631L322 631L321 631L320 631L319 631L318 631L317 631L316 631L315 631L314 631L313 631L312 631L311 631L310 631L309 631L308 631L301 631L299 633L299 634L298 634L298 635L296 636L296 638L295 639L293 640L292 641L292 643L291 644L287 647L287 649L286 650L284 651L283 652L283 654L282 655L278 658L278 660L277 661L275 662L274 663L274 665L273 666L269 669L269 671L268 672L266 673L265 676L269 676L270 676L271 676L272 676L273 676L274 676L275 676L276 676L277 676L278 676L279 676L280 676L281 676L282 676L283 676L284 676L285 676L286 676L287 676L288 676L289 676L290 676L291 676L292 676L293 676L294 676L295 676L296 676L297 676L298 676L299 676L300 676L301 676L302 676L303 676L304 676L305 676L306 676L307 676L308 676L309 676L310 676L311 676L312 676L313 676L314 676L315 676L316 676L317 676L318 676L319 676L320 676L321 676L322 676L323 676L324 676L325 676L326 676L327 676L328 676L329 676L330 676L331 676L332 676L333 676L334 676L335 676L336 676L337 676L338 676L339 676L340 676L341 676L342 676L343 676L344 676L345 676L346 676L347 676L348 676L349 676L350 676L351 676L352 676L353 676L354 676L355 676L356 676L357 676L358 676L359 676L360 676L361 676L362 676L363 676L364 676L365 676L366 676L367 676L368 676L369 676L370 676L371 676L372 676L373 676L374 676L375 676L376 676L377 676L378 676L379 676L380 676L381 676L382 676L383 676L384 676L385 676L386 676L387 676L388 676L389 676L390 676L391 676L392 676L393 676L394 676L395 676L396 676L397 676L398 676L399 676L400 676L401 676L402 676L403 676L404 676L405 676L406 676L407 676L408 676L409 676L410 676L411 676L412 676L413 676L414 676L415 676L416 676L417 676L418 676L419 676L420 676L421 676L422 676L423 676L424 676L425 676L426 676L427 676L428 676L429 676L430 676L431 676L432 676L433 676L434 676L435 676L436 676L437 676L438 676L439 676L440 676L441 676L442 676L443 676L444 676L445 676L446 676L447 676L448 676L449 676L450 676L451 676L452 676L453 676L454 676L455 676L456 676L457 676L458 676L459 676L460 676L461 676L462 676L463 676L464 676L465 676L466 676L467 676L468 676L469 676L470 676L471 676L472 676L473 676L474 676L475 676L476 676L477 676L478 676L479 676L480 676L481 676L482 676L483 676L484 676L485 676L486 676L487 676L488 676L489 676L490 676L491 676L492 676L493 676L494 676L495 676L496 676L497 676L498 676L499 676L500 676L501 676L502 676L503 676L504 676L505 676L506 676L507 676L508 676L509 676L510 676L511 676L512 676L513 676L514 676L515 676L516 676L517 676L518 676L519 676L520 676L521 676L522 676L523 676L524 676L525 676L526 676L527 676L528 676L529 676L530 676L531 676L532 676L533 676L534 676L535 676L536 676L537 676L538 676L539 676L540 676L541 676L542 676L543 676L544 676L545 676L546 676L547 676L548 676L549 676L550 676L551 676L552 676L553 676L554 676L555 676L556 676L557 676L558 676L559 676L560 676L561 676L562 676L563 676L564 676L565 676L566 676L567 676L568 676L569 676L570 676L571 676L572 676L573 676L574 676L575 676L576 676L577 676L578 676L579 676L580 676L581 676L582 676L583 676L584 676L585 676L586 676L587 676L588 676L589 676L590 676L591 676L592 676L593 676L594 676L595 676L596 676L597 676L598 676L599 676L600 676L601 676L602 676L603 676L604 676L605 676L606 676L607 676L608 676L609 676L610 676L611 676L612 676L613 676L614 676L615 676L616 676L617 676L618 676L619 676L620 676L621 676L622 676L623 676L624 676L625 676L626 676L627 676L628 676L634 676L633 673L631 672L630 671L631 668L625 665L626 662L621 660L621 656L616 654L616 650L612 649L610 646L611 644L607 643L606 638L605 637L603 638L601 632L600 631L598 632L596 626L594 625L591 620L589 619L585 616L585 614L581 610L585 610L586 610L587 610L588 610L589 610L590 610L591 610L592 610L593 610L594 610L595 610L596 610L603 610L602 607L600 605L599 605L599 604L598 604L598 603L597 603L597 602L596 602L594 599L590 599L589 599L588 599L587 599L583 599L580 595L582 599L576 595L578 599L572 595L574 599L571 597L570 596L566 593L566 591L565 590L561 587L561 585L560 584L556 581L556 579L555 578L551 575L551 573L550 572L543 566L542 566L539 568L536 564L536 562L535 561L533 560L532 559L532 557L531 556L529 555L528 554L528 552L527 551L525 550L524 549L524 547L523 546L521 545L520 544L520 542L519 541L517 540L515 536L511 534L510 534L507 536L505 533L505 531L503 530L503 528L501 527L501 525L499 524L499 522L497 521L497 519L495 518L495 516L493 515L493 513L491 511L494 512L495 515L497 516L497 518L499 519L499 521L501 522L501 524L503 525L503 527L508 529L508 528L506 529L507 526L504 526L504 522L503 521L501 522L501 518L497 515L498 514L500 515L503 518L503 520L506 522L505 519L501 516L501 514L497 510L501 511L505 515L501 510L504 511L500 506L506 508L504 504L499 505L498 505L496 504L488 504L487 501L486 504L483 501L482 504L479 500L481 501L479 499L479 495L479 491L478 491L477 496L479 499L478 505L477 505L476 502L475 502L475 500L474 500L474 498L473 498L473 496L472 496L472 494L471 494L471 492L470 492L469 489L474 488L474 492L475 492L476 490L475 487L471 483L472 480L470 477L472 476L475 478L474 474L473 473L472 472L468 472L467 472L466 472L465 472L464 472L463 472L462 472L461 472L456 472L457 468L455 468L456 465L455 463L455 462L456 462L456 458L455 455L455 451L455 450L455 449L455 448L456 442L455 442L454 444L454 448L454 449L454 450L454 451L454 452L454 453L454 454L454 455L454 456L454 457L454 458L454 459L454 460L454 461L454 462L454 463L454 464L454 465L454 466L454 467L454 472L452 472L452 470L452 466L452 465L452 464L452 463L452 462L452 461L452 460L452 459L452 458L452 457L452 456L452 455L452 454L452 453L452 452L452 451L452 450L452 449L452 448L452 447L452 443L450 443L450 445L450 449L450 450L450 451L450 452L450 453L450 454L450 455L450 456L450 457L450 458L450 459L450 460L450 461L450 462L450 463L450 464L450 465L450 466L450 467L450 468L450 472L448 472L448 470L448 466L448 465L448 464L448 463L448 462L448 461L448 460L448 459L448 458L448 457L448 456L448 455L448 454L448 453L448 452L448 451L448 450L448 449L448 448L448 447L448 443L446 443L446 445L446 449L446 450L446 451L446 452L446 453L446 454L446 455L446 456L446 457L446 458L446 459L446 460L446 461L446 462L446 463L446 464L446 465L446 466L446 467L446 468L446 472L444 472L444 470L444 466L444 465L444 464L444 463L444 462L444 461L444 460L444 459L444 458L444 457L444 456L444 455L444 454L444 453L444 452L444 451L444 450L444 449L444 448L444 447L444 443L437 441L438 443L437 443L435 443L431 443L430 443L429 443L428 443L427 443L426 443L425 443L424 443L420 443L420 442L416 442L416 441L412 438L416 439L416 438L412 434L416 435L416 432L412 433L414 430L414 429L412 428L412 421L406 417L409 421L403 417L404 421L399 421L396 418L394 418L393 416L391 416L390 414L388 414L387 412L385 412L379 410L382 406L382 405L382 402L382 401L380 397L377 395L378 398L375 395L373 395L371 392L369 392L367 389L365 389L363 386L361 386L359 383L357 383L355 380L353 380L352 379L352 378L351 377L349 374L353 376L349 373L348 369L347 368L346 367L344 367L343 366L340 362L338 362L337 361L336 359L335 358L333 358L332 357L329 353L327 353L326 352L325 350L324 349L322 349L321 348L320 346L317 345L318 349L319 350L320 351L322 351L324 354L326 354L328 357L330 357L332 360L334 360L336 363L338 363L341 367L337 364L335 364L333 361L331 361L329 358L327 358L325 355L323 355L321 352L319 352L317 349L315 349L313 346L311 346L309 343L307 343L305 340L303 340L301 337L299 337L296 334M273 335L274 336L273 335M288 336L288 337L291 337L288 336M300 335L301 336L300 335M311 335L312 336L311 335M284 336L285 337L284 336M294 336L295 337L294 336M303 336L304 337L303 336M307 337L308 338L307 337M317 337L317 338L321 340L317 337M322 337L325 340L322 337M285 338L286 339L285 338M287 338L288 339L287 338M291 338L292 339L291 338M304 338L305 339L304 338M275 339L276 340L275 339M279 339L280 340L279 339M254 340L255 341L254 340M288 340L289 341L288 340M308 340L309 341L308 340M299 341L300 342L299 341M312 341L313 342L312 341M317 341L317 342L321 344L317 341M322 341L325 344L322 341M326 341L329 344L326 341M333 341L334 342L333 341M335 341L336 342L335 341M337 341L338 342L337 341M287 342L288 343L287 342M291 342L292 343L291 342M295 342L296 343L295 342M271 343L272 344L271 343M275 343L276 344L275 343M281 343L282 344L281 343M285 343L286 344L285 343M289 343L291 345L289 343M253 344L254 345L253 344M294 344L295 345L294 344M286 345L286 348L287 348L286 345M322 345L324 347L322 345M326 345L329 348L326 345M330 345L332 347L332 348L333 348L333 349L334 349L334 350L335 350L335 351L336 351L336 352L337 352L337 353L340 356L342 356L343 357L349 362L349 361L346 360L344 358L344 357L343 357L343 356L342 356L342 355L341 355L341 354L339 352L337 352L336 351L334 349L334 348L333 348L333 347L330 345M333 345L335 347L335 348L336 348L336 349L338 351L340 350L341 351L342 353L343 354L345 353L346 354L347 356L349 357L349 355L349 354L348 354L348 353L349 352L347 350L346 350L346 349L345 349L345 348L344 348L344 347L343 347L342 345L340 345L339 345L339 346L338 346L338 345L337 345L337 346L336 346L333 345M299 346L300 347L299 346M336 346L338 346L338 347L339 347L339 346L342 346L344 348L344 349L345 349L345 350L348 352L348 355L345 352L343 353L342 352L341 350L340 349L338 350L337 349L336 348L336 346M351 346L352 353L353 353L351 346M355 346L356 356L357 356L355 346M359 346L359 350L359 351L359 352L359 353L359 354L359 355L359 356L359 357L360 363L361 363L361 359L361 358L361 357L361 356L361 355L361 354L361 353L361 352L359 346M337 347L337 348L340 348L343 352L345 351L347 353L345 351L345 350L344 350L344 349L342 347L337 347M302 348L303 349L302 348M342 348L344 351L342 348M305 349L306 350L305 349M328 350L330 352L330 353L331 353L331 354L334 357L336 357L337 358L338 360L339 361L341 361L342 362L345 366L347 366L349 368L347 365L345 365L344 364L341 360L339 360L338 359L335 355L333 355L332 354L328 350M333 351L335 353L335 354L336 354L336 355L337 355L337 356L338 356L338 357L340 359L342 359L343 360L346 364L348 364L349 366L351 366L353 368L351 365L349 365L348 363L346 363L345 362L341 357L339 357L338 356L333 351M299 352L301 354L299 352M285 354L286 355L285 354M302 354L304 356L302 354M312 355L313 356L312 355M344 355L348 359L344 355M305 356L307 358L305 356M315 356L316 357L315 356M312 357L314 359L312 357M304 358L306 360L304 358M308 358L310 360L308 358M315 359L317 361L315 359M307 360L309 362L307 360M311 360L312 361L311 360M326 360L328 362L326 360M318 361L320 363L318 361M310 362L311 363L310 362M314 362L315 363L314 362M329 362L331 364L329 362M301 363L304 365L304 364L301 363M312 363L314 365L312 363M321 363L323 365L321 363M309 364L310 365L309 364M317 364L318 365L317 364M333 365L335 367L333 365M354 365L357 368L354 365M358 365L361 368L358 365M362 365L363 366L362 365M320 366L321 367L320 366M322 368L326 368L325 370L328 369L328 368L325 366L322 368M328 366L329 367L328 366M330 366L331 367L330 366M312 367L313 368L312 367M314 367L315 368L314 367M316 367L317 368L316 367M318 367L319 368L318 367M324 367L323 368L324 367M308 368L309 369L308 368M310 368L311 369L310 368M329 368L330 369L329 368M331 368L332 369L331 368M317 369L318 370L317 369M321 369L322 370L321 369M350 369L353 372L350 369M354 369L357 372L354 369M358 369L361 372L358 369M362 369L363 370L362 369M364 369L365 370L364 369M330 370L331 371L330 370M332 370L333 371L332 370M334 370L335 371L334 370M290 371L291 372L290 371M316 371L317 372L316 371M318 371L319 372L318 371M320 371L321 372L320 371M324 371L325 372L324 371M326 371L327 372L326 371M328 371L329 372L328 371M312 372L313 373L312 372M314 372L315 373L314 372M322 372L320 375L322 372M333 372L334 373L333 372M335 372L336 373L335 372M337 372L338 373L337 372M325 373L322 376L326 376L325 378L329 376L329 375L325 373M329 373L330 374L329 373M331 373L332 374L331 373M354 373L357 376L354 373M358 373L361 376L358 373M362 373L363 374L362 373M364 373L365 374L364 373M366 373L367 374L366 373M368 373L369 374L368 373M286 374L287 375L286 374M336 374L337 375L336 374M338 374L339 375L338 374M324 375L323 376L324 375M332 375L333 376L332 375M334 375L335 376L334 375M343 375L346 378L348 378L349 380L351 380L353 383L355 383L356 385L358 385L359 387L361 387L363 390L361 388L359 388L358 386L356 386L355 384L353 384L351 381L349 381L348 379L346 379L342 376L343 375M319 376L320 377L319 376M330 376L329 378L330 376M339 376L340 377L339 376M335 377L336 378L335 377M337 377L338 378L337 377M362 377L363 378L362 377M364 377L367 381L369 380L371 383L373 382L374 383L377 387L380 387L380 384L378 382L377 382L377 381L376 381L376 380L375 380L375 379L374 379L373 377L371 377L370 377L370 378L369 378L369 377L368 377L368 378L367 378L364 377M331 378L334 382L338 383L339 385L341 385L341 386L345 386L345 385C342.351 385.53 341.393 385.428 342 383C339.49 383.502 336.355 382.579 337 380C334.351 380.53 333.393 380.428 334 378L331 378M367 378L369 378L369 379L370 379L370 378L373 378L375 380L375 381L376 381L376 382L379 385L378 386L376 385L373 381L371 382L366 379L367 378M383 378L383 386L384 386L383 378M387 378L387 382L387 383L387 384L387 385L387 389L388 389L388 386L387 378M391 378L391 382L391 383L391 384L391 385L391 392L392 392L392 389L392 385L392 384L392 383L392 382L391 378M338 379L339 380L338 379M340 379L341 380L340 379M370 379L370 380L373 380L378 385L376 383L376 382L375 382L375 381L373 379L370 379M317 381L318 382L317 381M343 382L344 383L343 382M335 384L335 385L339 387L339 386L335 384M346 384L347 385L346 384M363 384L366 387L363 384M372 384L375 387L372 384M349 386L350 387L349 386M340 387L341 388L340 387M322 388L323 389L322 388M326 388L327 389L326 388M342 388L343 389L342 388M368 388L370 390L368 388M375 388L379 392L375 388M378 388L380 390L378 388M337 389L338 390L337 389M344 389L346 391L344 389M339 390L340 391L339 390M352 390L351 391L352 390M374 390L377 393L374 390M330 391L331 392L330 391M341 391L342 392L341 391M347 391L348 392L347 391M363 393L360 392L363 393M372 391L374 393L372 391M332 392L333 393L332 392M343 392L344 393L343 392M349 392L350 393L349 392M334 393L335 394L334 393M336 394L337 395L336 394M346 394L347 395L346 394M363 396L360 395L363 396M379 394L380 395L379 394M338 395L339 396L338 395M348 395L349 396L348 395M354 395L355 396L354 395M340 396L341 397L340 396M350 396L351 397L350 396M383 396L385 398L383 396M387 396L389 398L387 396M391 396L393 398L391 396M381 397L382 398L381 397M318 398L319 399L318 398M322 398L323 399L322 398M326 398L327 399L326 398M330 398L331 399L330 398M334 398L335 399L334 398M337 398L336 400L337 398M352 398L353 399L352 398M363 398L368 401L369 403L371 403L372 405L376 406L379 408L377 410L382 410L385 412L385 413L381 411L380 413L379 413L377 411L375 411L375 410L372 409L370 412L366 411L366 410L364 410L364 409L362 409L362 408L360 408L360 407L358 406L354 407L354 406L357 405L355 403L359 402L357 400L361 398L363 398M332 399L333 400L332 399M339 399L338 401L339 399M359 400L361 402L357 403L358 406L361 405L360 407L363 406L362 408L366 406L364 409L368 407L366 410L370 408L368 411L372 409L370 407C372.649 406.47 373.607 406.572 373 409L376 408L375 410L376 410L377 408L372 406L371 404L369 404L368 402L363 399L359 400M341 400L342 401L341 400M362 400L366 402L367 404L371 406L368 407L363 404L364 406L359 404L359 403L362 400M383 400L385 402L383 400M387 400L389 402L387 400M391 400L393 402L391 400M349 401L350 402L349 401M396 401L397 402L396 401M322 402L323 403L322 402M326 402L327 403L326 402M330 402L331 403L330 402M334 402L335 403L334 402M337 402L336 404L337 402M340 402L339 404L340 402M343 402L342 404L343 402M346 402L344 405L346 402M363 402L361 403L361 404L363 402M348 403L347 405L348 403M365 403L367 405L365 403M350 404L351 405L350 404M383 404L385 406L383 404M387 404L389 406L387 404M391 404L393 406L391 404M368 405L369 406L368 405M396 405L397 406L396 405M398 405L399 406L398 405M322 406L323 407L322 406M326 406L327 407L326 406M330 406L331 407L330 406M343 406L344 407L343 406M346 406L347 407L346 406M349 406L350 407L349 406M333 407L334 408L333 407M340 407L341 408L340 407M336 408L337 409L336 408M348 408L349 409L348 408M351 408L350 410L351 408M383 408L384 409L383 408M387 408L389 410L387 408M391 408L394 411L391 408M396 409L398 412L402 411L404 414L406 413L407 414L412 419L410 417L410 416L409 416L409 415L408 415L408 414L407 414L407 413L406 413L406 412L405 412L405 411L403 409L401 409L400 409L400 410L399 410L396 409M386 410L387 411L386 410M390 410L392 412L390 410M399 410L398 411L399 410M401 410L400 411L401 410M403 410L405 413L403 410M415 410L415 416L416 416L415 410M419 410L419 420L420 420L420 417L419 410M423 410L423 414L423 415L423 416L423 417L423 423L424 423L424 420L423 410M395 411L398 414L395 411M389 412L390 413L389 412M394 413L395 414L394 413M401 413L404 416L401 413M367 414L368 415L367 414M376 414L375 416L376 414M385 416L382 415L385 416M392 414L393 415L392 414M399 414L400 418L401 418L402 417L402 416L399 414M349 415L350 416L349 415M369 415L370 416L369 415M378 415L377 417L378 415M397 415L398 416L397 415M405 415L406 416L405 415M365 416L365 417L369 418L369 417L365 416M371 416L372 417L371 416M380 416L379 418L380 416M395 416L396 417L395 416M401 416L400 417L401 416M374 417L375 418L374 417M384 417.333C384.773 417.333 384.16 417.831 383.667 417.667L384 417.333M370 418L371 419L370 418M376 418L377 419L376 418M398 418L399 419L398 418M372.667 419.333L373.333 419.667L372.667 419.333M378 419L379 420L378 419M405 419L406 421L405 419M375 420L376 421L375 420M368.667 421.333L369.333 421.667L368.667 421.333M349.667 422.333L350.333 422.667L349.667 422.333M363.667 422.333L364.333 422.667L363.667 422.333M371 422L372 423L371 422M380 422L381 423L380 422M366.667 423.333L367.333 423.667L366.667 423.333M374 423L375 424L374 423M369.667 424.333L370.333 424.667L369.667 424.333M377 424L378 425L377 424M372.667 425.333L373.333 425.667L372.667 425.333M376 426L377 427L376 426M364 428L364 429L369 428L364 428M379 427L380 428L379 427M371 428L372 429L371 428M382 428L383 429L382 428M415 428L417 430L415 428M419 428L421 430L419 428M423 428L425 430L423 428M364 430L365 431L364 430M385.667 430.333L386.333 430.667L385.667 430.333M368 431L365 432L365 433L369 432L368 431M389 431L386 432L386 433L390 432L389 431M349 432L350 433L349 432M357.667 432.333L358.333 432.667L357.667 432.333M372 432L373 433L372 432M379 432L379 433L382 433L382 436L387 435L387 434L382 435L379 432M392 432L393 433L392 432M419 432L420 433L419 432M423 432L424 433L423 432M395 433L396 434L395 433M417 433L418 434L417 433M428 433L429 434L428 433M430 433L431 434L430 433M357.667 434.333L358.333 434.667L357.667 434.333M365.667 434.333L366.333 434.667L365.667 434.333M398 434L399 435L398 434M407 434.333C407.773 434.333 407.16 434.831 406.667 434.667L407 434.333M370.667 435.333L371.333 435.667L370.667 435.333M390 435L387 436L388 438L387 438L381 439L381 440L374 440L374 439L368 439L368 438L362 438L362 439L364 440L373 440L373 441L383 442L383 441L381 441L381 440L385 440L391 438L390 435M354 436L355 437L354 436M362 436L362 437L363 437L364 437L365 437L365 436L364 436L362 436M375.667 436.333L376.333 436.667L375.667 436.333M394 436L395 437L394 436M403 436L408 437L408 438L402 437L403 436M423 436L424 437L423 436M380.667 437.333L381.333 437.667L380.667 437.333M418 437L420 439L418 437M425 437L426 438L425 437M430 437L431 438L430 437M432 437L433 438L432 437M404 439L404 440L408 440L408 441L404 440L402 440L398 441L398 440L400 439L404 439M423 439L424 440L423 439M393 443L393 444L397 444L397 443L393 443M381.667 458.333L382.333 458.667L381.667 458.333M460 460L460 461L463 461L467 461L468 461L469 461L470 461L474 461L474 460L471 460L467 460L466 460L465 460L464 460L460 460M392 461L392 464L393 464L396 463L400 463L400 462L404 462L404 461L401 461L392 461M423 462L423 463L420 463L420 464L425 464L425 465L423 466L421 466L420 469L415 469L413 466L415 464L420 462L423 462M430 464L428 467L426 467L423 469L423 468L426 466L428 466L430 464M463 464L464 465L463 464M465 464L465 465L469 465L469 464L465 464M470 464L470 465L475 465L475 464L470 464M388 465L389 466L388 465M392 465L392 468L393 468L396 467L399 467L402 466L402 465L392 465M420 465L421 466L420 465M418 466L419 467L418 466M405 467L406 468L405 467M416 467L417 468L416 467M468 468L469 469L468 468M471 468L471 469L475 469L475 468L471 468M482 468L483 469L482 468M381.667 469.333L382.333 469.667L381.667 469.333M392 472L400 470L400 469L393 469L392 472M389 470L390 471L389 470M386 471L387 472L386 471M417 473L418 474L417 473M479 473L480 474L479 473M412 474L413 475L412 474M414 475L413 477L414 475M428 475L425 478L428 475M482 475L484 477L482 475M416 477L417 478L416 477M478 478L479 479L478 478M428 480L426 482L428 480M471 480L470 481L471 480M430 481L429 482L430 481M448 481L448 485L448 486L448 487L448 488L448 493L446 493L446 491L446 481L448 481M452 481L452 485L452 486L452 487L452 488L452 493L450 493L450 491L450 481L452 481M474 481L476 483L474 481M422 483L420 486L422 483M436 483L437 484L436 483M418 484L416 486L416 488L416 489L417 489L417 490L417 492L418 492L419 489L418 484M439 484L440 485L439 484M435.333 485.667L435.667 486.333L435.333 485.667M441.333 485.667L441.667 486.333L441.333 485.667M418 486L417 487L418 486M478 486L480 489L478 486M482 486L484 489L482 486M432 487L433 488L432 487M438.333 487.667L438.667 488.333L438.333 487.667M471 487L470 488L471 487M473 487L472 488L473 487M486.333 487.667L486.667 488.333L486.333 487.667M414 488L412 492L414 488M418 488L417 489L418 488M427 488L428 489L427 488M421 489L420 491L421 489M431 489L432 490L431 489M426 490L427 491L426 490M476 492L475 494L476 492M492.667 492.333L493.333 492.667L492.667 492.333M495 492L495 493L499 493L499 492L495 492M500 492L501 493L500 492M504 492L505 493L504 492M510 492L511 493L510 492M413 493L412 494L412 495L412 496L415 493L413 493M417 493L416 494L416 495L416 496L419 493L417 493M421 493L420 494L420 495L420 496L423 493L421 493M483 493L484 494L483 493M475 495L476 496L475 495M479 496L478 497L479 496M481 496L483 498L481 496M424 497L425 498L424 497M416 498L417 499L416 498M432 498L433 499L432 498M436 499L437 500L436 499M484 500L485 501L484 500M414 501L415 502L414 501M422 501L423 502L422 501M431 501L432 502L431 501M439 501L440 502L439 501M425 502L426 503L425 502M433 502L434 503L433 502M416 503L417 504L416 503M421 503L422 504L421 503M427 503L428 504L427 503M479 505L477 508L479 505M500 505L499 506L500 505M510 507L511 508L510 507M518 507L519 508L518 507M500 508L501 510L500 508M495 511L497 515L495 511M514 512L515 513L514 512M506 515L507 516L506 515M518 516L519 517L518 516M470 517L471 518L470 517M506 517L507 518L506 517M466 518L467 519L466 518M464 519L465 520L464 519M486 519L487 526L486 519M510 519L511 520L510 519M461 520L462 521L461 520M471 520L472 521L471 520M459.333 521.667L459.667 522.333L459.333 521.667M469 521L470 522L469 521M485 521L486 522L485 521M510 521L511 522L510 521M467 522L468 523L467 522M503 522L502 523L503 522M514 522L515 523L514 522M472 523L473 524L472 523M486 523L487 524L486 523M505 523L506 524L505 523M507 524L508 525L507 524M514 524L515 525L514 524M517 524L518 525L517 524M527 524L528 525L527 524M529 524L530 525L529 524M535 524L536 525L535 524M537 524L538 525L537 524M546 524L547 525L546 524M456 525L456 528L457 528L457 527L457 526L456 525M462 525L462 528L463 528L463 527L463 526L462 525M470 525L471 526L470 525M476 525L477 526L476 525M468.333 526.667L468.667 527.333L468.333 526.667M473 526L472 528L473 526M480.333 526.667L480.667 527.333L480.333 526.667M494 526L496 531L498 532L499 536L498 536L497 532L495 531L495 529L494 529L494 527C492.604 526.302 492.604 526.698 494 526M500 526L501 529L503 530L503 532L505 533L505 535L507 536L507 538L509 539L510 543L512 544L512 546L514 547L514 549L516 550L516 552L518 553L519 555L518 558L519 560L519 565L518 565L517 561L515 563L514 556L513 558L512 558L513 555L511 551L509 550L508 546L506 545L505 541L503 540L502 536L500 535L499 533L499 530L499 529L500 526M506 526L505 527L506 526M514 526L515 527L514 526M477 528L478 529L477 528M509 528L510 529L509 528M516 528L517 529L516 528M523 528L524 529L523 528M531 528L532 529L531 528M534 528L535 529L534 528M536 528L537 529L536 528M542 528L543 529L542 528M546 528L547 529L546 528M460 529L460 532L461 532L461 531L461 530L460 529M466 529L467 530L466 529M469 529L469 532L470 532L470 531L470 530L469 529M474 529L473 531L474 529M481 529L482 530L481 529M500 529L500 533L504 535L503 538L506 541L507 545L509 546L510 550L512 551L513 555L515 556L515 561L518 561L517 558L518 556L518 555L515 552L515 550L513 549L513 547L511 546L511 544L509 543L508 539L506 538L506 536L504 535L504 533L502 532L500 529M478.333 530.667L478.667 531.333L478.333 530.667M485 530L486 531L485 530M518 530L519 531L518 530M514 531L514 534L516 533L516 532L514 531M502 532L503 535L502 535L502 532M508 532L509 533L508 532M512 532L513 533L512 532M520 532L521 533L520 532M522 532L523 533L522 532M535 532L536 533L535 532M538 532L539 533L538 532M463 533L464 534L463 533M467.333 533.667L467.667 534.333L467.333 533.667M470 533L470 536L471 536L471 535L471 534L470 533M474 533L475 534L474 533M479 533L480 536L480 539L482 541L479 533M483.333 533.667L483.667 534.333L483.333 533.667M518 533L519 534L518 533M476 535L478 541L476 535M484 536L486 541L484 536M521 536L523 538L523 540L524 541L528 544L528 546L529 547L531 548L532 549L532 551L533 552L535 554L536 554L536 555L537 555L539 557L539 553L534 549L535 547L534 544L537 547L536 549L539 551L539 549L539 548L538 548L538 547L539 546L538 545L536 546L535 543L531 537L530 536L527 536L530 539L529 541L531 542L530 544L532 548L528 544L529 542L527 541L528 539L527 538L526 537L524 536L526 541L521 536M497 537L498 540L497 540L497 537M505 537L506 540L508 541L509 545L511 546L511 548L513 549L514 553L516 554L517 557L516 557L515 554L513 553L512 549L510 548L510 546L508 545L507 541L505 540L505 537M530 537L529 538L530 537M531 540L534 544L533 545L532 545L531 544L531 540M527 541L528 543L527 541M480 543L481 544L480 543M532 543L533 544L532 543M481 546L482 547L481 546M538 546L537 547L538 546M477 547L478 548L477 547M490 547L491 548L490 547M534 547L534 550L538 555L537 555L536 552L534 547M485 548L486 549L485 548M527 548L528 549L527 548M538 548L537 549L538 548M493 549L494 550L493 549M522 549L524 551L524 553L527 555L527 557L530 559L530 561L533 563L533 565L536 567L536 569L539 571L539 573L542 575L542 577L545 579L545 581L548 583L548 585L551 589L550 589L547 585L547 583L544 581L544 579L541 577L541 575L538 573L538 571L535 569L535 567L531 562L530 562L530 566L527 564L527 562L521 558L521 557L523 558L523 557L521 555L521 552L523 553L523 552L522 549M480 550L481 551L480 550M488 550L489 551L488 550M504 550L506 555L505 555L504 550M542 550L543 551L542 550M494 551L495 552L494 551M492 552L493 553L492 552M542 552L543 553L542 552M481 553L482 554L481 553M489 553L490 554L489 553M496 553L497 554L496 553M508 553L509 554L508 553M522 554L522 555L524 558L525 559L527 558L526 561L529 565L530 565L530 561L526 557L526 555L524 553L522 554M531 553L532 554L531 553M493 554L494 555L493 554M542.333 554.667L542.667 555.333L542.333 554.667M546.333 554.667L546.667 555.333L546.333 554.667M484 555L485 556L484 555M490 555L491 556L490 555M497 555L498 556L497 555M509 555L510 556L509 555M507 556L508 557L507 556M565 556L565 557L569 557L569 556L565 556M480.333 557.667L480.667 558.333L480.333 557.667M488 557L489 558L488 557M494 557L495 558L494 557M499 557L500 558L499 557M509 557L510 558L509 557M526 557L525 558L526 557M485 558L486 559L485 558M491 558L492 559L491 558M497 558L498 559L497 558M535 558L537 560L535 558M489 559L490 560L489 559M495 559L496 560L495 559M500 559L501 560L500 559M528 560L529 562L528 560M542 560L543 561L542 560M560 560L561 561L560 560M574 560L575 561L574 560M481.333 561.667L481.667 562.333L481.333 561.667M492 561L493 562L492 561M496.333 561.667L496.667 562.333L496.333 561.667M501 561L502 562L501 561M484.333 562.667L484.667 563.333L484.333 562.667M490 562L491 563L490 562M499.333 562.667L499.667 563.333L499.333 562.667M493 563L494 564L493 563M502 563L503 564L502 563M523 564L524 565L523 564M540 564L541 565L540 564M545 564L547 566L545 564M548 564L549 565L548 564M476 565L476 568L477 568L477 567L477 566L476 565M485.333 565.667L485.667 566.333L485.333 565.667M491 565L492 566L491 565M494.333 565.667L494.667 566.333L494.333 565.667M500 565L501 566L500 565M503 565L501 568L503 565M488.333 566.667L488.667 567.333L488.333 566.667M498.333 566.667L498.667 567.333L498.333 566.667M514 566L515 567L514 566M550 566L551 567L550 566M504 567L505 568L504 567M522 567L525 573L524 573L522 567M525 567L526 568L525 567M528 568L529 569L528 568M548 568L550 570L550 571L551 571L551 572L553 573L553 575L554 576L558 579L558 581L559 582L563 585L563 587L564 588L566 590L567 590L567 591L568 591L571 594L569 592L569 590L568 589L563 585L563 583L562 582L557 578L557 576L556 575L548 568M552 568L553 571L555 573L556 573L556 574L557 574L559 576L559 578L560 579L564 582L563 579L561 577L560 577L560 576L559 576L557 574L557 572L556 571L552 568M555 568L557 570L557 571L558 571L558 572L559 572L559 573L560 573L560 574L563 576L563 578L564 579L566 581L567 581L567 582L568 582L571 585L569 583L569 582L568 582L568 581L567 581L567 580L566 580L566 579L564 578L564 576L563 575L561 573L560 573L560 572L559 572L559 571L558 571L558 570L557 570L555 568M578 568L579 569L578 568M531 569L532 570L531 569M515 570L516 578L517 578L518 574L515 570M527 570L528 571L527 570M561 570L563 572L563 573L564 573L564 574L568 577L566 575L566 574L565 574L565 573L561 570M507 571C507 574.363 506.284 577.204 510 578L507 571M511 571C511 574.363 510.284 577.204 514 578L514 575L511 571M530 571L531 572L530 571M533 572L534 573L533 572M529 573L530 574L529 573M535 573L536 574L535 573M582 573L583 574L582 573M532 574L533 575L532 574M527 575L529 579L528 579L527 575M535 575L537 577L535 575M517 576L516 577L517 576M522 576L521 577L522 576M582 576L583 577L582 576M534 577L535 578L534 577M538 577L539 578L538 577M531 578L530 579L531 578M536 578L537 579L536 578M533 579L532 583L533 583L533 579M538 579L539 580L538 579M582 579L583 580L582 579M536 580L538 582L536 580M540 580L541 581L540 580M515 581L516 582L515 581M582 581L583 582L582 581M535 582L534 586L535 586L535 582M540 582L541 583L540 582M516 583L517 584L516 583M525 584L525 585L528 587L529 587L527 583L525 584M537 583L538 584L537 583M542 583L544 585L542 583M507 584L508 585L507 584M539 584L540 585L539 584M565 584L567 586L567 587L568 587L568 588L571 590L569 588L569 587L568 587L568 586L565 584M517 585L518 586L517 585M537 585L538 586L537 585M541 585L542 586L541 585M523 586L524 587L523 586M539 586L540 587L539 586M543 586L544 587L543 586M541 587L542 588L541 587M545 587L546 588L545 587M573 587L575 590L573 587M588 587L588 588L591 588L591 587L588 587M595 587L595 588L599 589L599 588L595 587M601 587L603 589L601 587M539 588L540 589L539 588M543 588L544 589L543 588M549 588L551 593L550 593L549 588M606 588L607 589L606 588M509 589L510 590L509 589M519 589L520 590L519 589M526 589L526 590L529 590L529 589L526 589M534.333 589.667L534.667 590.333L534.333 589.667M541 589L542 590L541 589M545 589L546 590L545 589M524 590L525 591L524 590M537 590L538 591L537 590M543 590L544 591L543 590M541 591L542 592L541 591M545 591L546 592L545 591M572 591L575 594L572 591M576 591L579 594L576 591M592 591L594 593L592 591M598 591L600 593L598 591M601 591L603 593L601 591M543 592L544 593L543 592M549 592L551 597L550 597L549 592M513 593L514 594L513 593M521 593L522 594L521 593M527 593L528 594L527 593M539 593L540 594L539 593M545 593L546 594L545 593M508 594L509 595L508 594M516 594L517 595L516 594M525 594L526 595L525 594M531 594L532 595L531 594M543 594L544 595L543 594M545 595L546 596L545 595M596 595L598 597L596 595M602 595L603 596L602 595M541 596L542 597L541 596M509 597L510 598L509 597M515 597L516 598L515 597M523 597L524 598L523 597M525 597L526 598L525 597M529 597L529 598L532 598L532 597L529 597M534 597L533 599L534 597M536 597L537 598L536 597M545 597L546 598L545 597M507 598L508 599L507 598M513 598L514 599L513 598M521 598L522 599L521 598M527 598L528 599L527 598M541 598L542 599L541 598M547 598L548 599L547 598M544 599L545 600L544 599M600 599L603 602L600 599M606 599L607 600L606 599M610 599L611 600L610 599M541 600L542 601L541 600M547 600L548 601L547 600M544 601L545 602L544 601M549 601L550 602L549 601M539 602L540 603L539 602M543 603L544 604L543 603M549 603L550 604L549 603M610 603L611 604L610 603M614 603L615 604L614 603M539 604L539 609L540 609L542 605L539 604M548 605L549 606L548 605M606 605L607 606L606 605M610 606L611 607L610 606M548 607L549 608L548 607M606 607L607 608L606 607M614 607L615 608L614 607M541 609L542 610L541 609M548 609L549 610L548 609M606 609L607 610L606 609M610 609L611 610L610 609M544 610L543 613L544 613L544 610M614 610L615 611L614 610M539 611L540 612L539 611M548 611L549 612L548 611M545 612L546 613L545 612M614 613L615 614L614 613M544 614L545 615L544 614M588 615L589 616L588 615M592 616L593 617L592 616M595 617L596 618L595 617M541 618L543 621L544 625C545.896 622.63 545.104 622.63 547 625L548 618L549 618L551 621L550 624L551 626L551 631L550 631L549 629L549 627L548 625L547 625L546 627L547 631L546 631L545 629L545 627L544 625L543 625L542 627L543 631L542 631L541 629L541 627L540 627L539 625L541 618M598 618L599 619L598 618M266 619L265 621L266 619M272 619L271 621L272 619M296 619L297 620L296 619M312 619L313 620L312 619M315 619L314 621L315 619M322 619L321 621L322 619M328 619L329 620L328 619M335 619L334 621L335 619M347 619L348 620L347 619M354 619L353 621L354 619M363 619L364 620L363 619M373.333 619.667L373.667 620.333L373.333 619.667M376.333 619.667L376.667 620.333L376.333 619.667M379 619L380 620L379 619M392.333 619.667L392.667 620.333L392.333 619.667M399 619L400 620L399 619M412.333 619.667L412.667 620.333L412.333 619.667M415 619L416 620L415 619M431 619L432 620L431 619M467 619L468 620L467 619M483 619L484 620L483 619M486.333 619.667L486.667 620.333L486.333 619.667M499 619L500 620L499 619M506.333 619.667L506.667 620.333L506.333 619.667M518 619L519 620L518 619M522.333 619.667L522.667 620.333L522.333 619.667M525.333 619.667L525.667 620.333L525.333 619.667M534 619L535 620L534 619M602 619L603 620L602 619M620 619L620 620L622 621L625 621L625 620L620 619M626 619L629 621L628 619L626 619M630 619L633 621L632 619L630 619M261 620L262 621L261 620M292 620L293 621L292 620M306 620L307 621L306 620M340 620L341 621L340 620M540 620L541 627L542 627L543 625L543 623L540 620M605 620L607 622L605 620M549 621L549 627L550 627L549 621M593 621L595 623L593 621M258 623L259 624L258 623M287 623L286 625L287 623M300 623L301 624L300 623M309 623L308 625L309 623M319 623L318 625L319 623M332 623L333 624L332 623M345 623L344 625L345 623M361 623L362 624L361 623M377.333 623.667L377.667 624.333L377.333 623.667M391 623L392 624L391 623M414.333 623.667L414.667 624.333L414.333 623.667M421 623L422 624L421 623M477 623L478 624L477 623M484.333 623.667L484.667 624.333L484.333 623.667M507 623L508 624L507 623M520.333 623.667L520.667 624.333L520.333 623.667M536 623L537 624L536 623M541.667 623.667L541.333 624.333L541.667 623.667M598 623L599 624L598 623M611 623L613 625L611 623M624 623L624 624L626 625L629 625L629 624L624 623M630 623L633 625L632 623L630 623M254 624L255 625L254 624M298 624L299 625L298 624M601 624L603 626L601 624M545.333 625.667L545.667 626.333L545.333 625.667M257 627L258 628L257 627M266 627L265 629L266 627M280 627L279 629L280 627M291 627L292 628L291 627M298 627L299 628L298 627M359 627L360 628L359 627M598 627L600 629L598 627M606 627L607 628L606 627M617 627L619 629L617 627M628 627L628 628L630 629L633 629L633 628L628 627M288 628L289 629L288 628M296 628L297 629L296 628M610 628L611 629L610 628M253 631L254 632L253 631M262 631L261 633L262 631M274 631L272 633L272 634L271 634L271 635L270 635L270 636L269 636L269 637L268 637L268 638L267 638L267 639L265 641L267 639L268 639L268 638L269 638L269 637L270 637L270 636L271 636L271 635L272 635L272 634L273 634L274 631M282 631L278 636L282 631M292 631L291 633L292 631M298 631L299 632L298 631M607 631L610 634L607 631M615 631L620 636L615 631M624 631L626 633L626 634L627 634L627 635L628 635L628 636L629 636L629 637L630 637L630 638L631 638L631 639L634 641L632 639L632 638L631 638L631 637L630 637L630 636L629 636L629 635L628 635L628 634L627 634L627 633L624 631M296 632L297 633L296 632M600 632L599 633L600 632M257 633L258 634L257 633M289 633L290 634L289 633M293 633L294 634L293 633M603 633L606 636L603 633M285 634L282 638L285 634M291 634L287 638L287 641L288 641L288 638L291 634M612 634L616 638L612 634M258 635L259 636L258 635M254 636L253 638L254 636M275 636L273 638L273 639L272 639L272 640L270 642L272 640L273 640L273 639L274 639L275 636M609 636L612 639L609 636M623 636L625 638L625 639L626 639L626 640L629 642L627 640L627 639L626 639L626 638L623 636M293 637L294 638L293 637M279 638L276 642L279 638M291 638L292 639L291 638M605 638L604 639L605 638M619 638L623 642L619 638M285 639L285 642L281 646L282 647L283 647L284 646L286 642L285 639M608 639L611 642L608 639M614 639L617 642L614 639M282 641L283 642L282 641M266 642L265 644L266 642M272 642L270 644L270 645L269 645L269 646L266 649L268 647L269 647L269 646L270 646L272 642M278 642L274 647L278 642M289 642L288 644L289 642M614 642L618 646L614 642M619 642L624 647L619 642M625 642L627 644L627 645L628 645L628 646L632 649L630 647L630 646L629 646L629 645L625 642M631 642L634 645L631 642M609 643L610 645L609 643M286 644L287 645L286 644M283 645L282 646L283 645M613 645L617 649L613 645M262 646L261 648L262 646M279 646L277 648L278 650L275 653L276 654L279 652L278 650L281 647L279 646M620 646L625 651L620 646M271 647L269 649L269 650L268 650L268 651L266 653L268 651L269 651L269 650L270 650L271 647M280 647L278 649L280 647M627 647L629 649L629 650L630 650L630 651L633 653L631 651L631 650L630 650L630 649L627 647M284 648L283 650L284 648M275 649L274 651L275 649M614 649L615 651L614 649M620 649L624 653L620 649M258 650L257 652L258 650M262 650L261 652L262 650M281 650L282 651L281 650M270 651L268 653L268 654L267 654L267 655L265 657L267 655L268 655L268 654L269 654L270 651M278 651L276 653L278 651M618 651L623 656L618 651M627 651L629 653L629 654L630 654L630 655L633 657L631 655L631 654L630 654L630 653L627 651M262 653L261 655L262 653M273 653L270 657L273 653M280 653L278 656L280 653M626 653L628 655L628 656L629 656L629 657L632 659L630 657L630 656L629 656L629 655L626 653M258 654L257 656L258 654M618 654L620 657L618 654M276 656L277 657L276 656M626 656L631 661L626 656M258 657L257 659L258 657M262 657L261 659L262 657M268 657L267 659L268 657M273 657L271 660L273 657M623 657L628 662L623 657M254 658L255 659L254 658M275 659L273 662L275 659M262 660L261 662L262 660M268 660L269 661L268 660M623 660L625 663L623 660M254 661L255 662L254 661M258 661L257 663L258 661M266 661L265 663L266 661M633 661L634 662L633 661M271 662L272 663L271 662M631 662L634 665L631 662M268 663L265 667L268 663M258 664L257 666L258 664M271 664L268 668L271 664M261 665L262 666L261 665M627 665L630 669L627 665M262.333 667.667L262.667 668.333L262.333 667.667M266 668L267 669L266 668M258 670L257 672L258 670M262 670L261 672L262 670M266 670L265 672L266 670M254 673L253 676L254 673M258 673L257 676L258 673M262 673L261 676L262 673M335 677L336 678L335 677M563 677L564 678L563 677M295 678L296 679L295 678M371 678L372 679L371 678M526 678L527 679L526 678M602 678L603 679L602 678M278 679L279 680L278 679M334 679L335 680L334 679M391 679L392 680L391 679M507 679L508 680L507 679M564 679L565 680L564 679M620 679L621 680L620 679M265 680L266 681L265 680M311 680L312 681L311 680M356 680L357 681L356 680M403 680L404 681L403 680M495 680L496 681L495 680M542 680L543 681L542 680M586 680L587 681L586 680M633 680L634 681L633 680M293 681L294 682L293 681M333 681L334 682L333 681M370 681L371 682L370 681M410 681L411 682L410 681M488 681L489 682L488 681M527 681L528 682L527 681M565 681L566 682L565 681M604 681L605 682L604 681M283 682L284 683L283 682M315 682L316 683L315 682M350 682L351 683L350 682M382 682L383 683L382 682M415 682L416 683L415 682M483 682L484 683L483 682M515 682L516 683L515 682M548 682L549 683L548 682M582 682L583 683L582 682M615 682L616 683L615 682M261 685L262 686L261 685M283 685L284 686L283 685M308 685L309 686L308 685M331 685L332 686L331 685M354 685L355 686L354 685M379 685L380 686L379 685M402 685L403 686L402 685M424 685L425 686L424 685M473 685L474 686L473 685M496 685L497 686L496 685M519 685L520 686L519 685M544 685L545 686L544 685M567 685L568 686L567 685M589 685L590 686L589 685M614 685L615 686L614 685M277 686L278 687L277 686M298 686L299 687L298 686M320 686L321 687L320 686M341 686L342 687L341 686M363 686L364 687L363 686M384 686L385 687L384 686M406 686L407 687L406 686M427 686L428 687L427 686M471 686L472 687L471 686M491 686L492 687L491 686M514 686L515 687L514 686M534 686L535 687L534 686M557 686L558 687L557 686M577 686L578 687L577 686M600 686L601 687L600 686M620 686L621 687L620 686M278 689L279 690L278 689M296 689L297 690L296 689M311 689L312 690L311 689M329 689L330 690L329 689M347 689L348 690L347 689M362 689L363 690L362 689M380 689L381 690L380 689M398 689L399 690L398 689M414 689L415 690L414 689M432.333 689.667L432.667 690.333L432.333 689.667M466.333 689.667L466.667 690.333L466.333 689.667M484 689L485 690L484 689M499 689L500 690L499 689M517 689L518 690L517 689M535 689L536 690L535 689M551 689L552 690L551 689M569 689L570 690L569 689M586 689L587 690L586 689M602 689L603 690L602 689M620 689L621 690L620 689M257 690L258 691L257 690M272 690L273 691L272 690M287 690L288 691L287 690M305 690L306 691L305 690M321 690L322 691L321 690M336 690L337 691L336 690M352 690L353 691L352 690M367 690L368 691L367 690M385 690L386 691L385 690M401 690L402 691L401 690M416 690L417 691L416 690M481 690L482 691L481 690M497 690L498 691L497 690M512 690L513 691L512 690M530 690L531 691L530 690M546 690L547 691L546 690M561 690L562 691L561 690M577 690L578 691L577 690M592 690L593 691L592 690M610 690L611 691L610 690M626 690L627 691L626 690M272 693L273 694L272 693M285 693L286 694L285 693M301 693L302 694L301 693M314 693L315 694L314 693M327 693L328 694L327 693M340 693L341 694L340 693M353 693L354 694L353 693M366 693L367 694L366 693M382 693L383 694L382 693M395 693L396 694L395 693M408 693L409 694L408 693M421 693L422 694L421 693M434 693L435 694L434 693M464 693L465 694L464 693M477 693L478 694L477 693M490 693L491 694L490 693M503 693L504 694L503 693M516 693L517 694L516 693M531 693L532 694L531 693M544 693L545 694L544 693M557 693L558 694L557 693M571 693L572 694L571 693M584 693L585 694L584 693M597 693L598 694L597 693M612 693L613 694L612 693M625 693L626 694L625 693M269 694L270 695L269 694M282 694L283 695L282 694M295 694L296 695L295 694M308 694L309 695L308 694M321 694L322 695L321 694M332 694L333 695L332 694M345 694L346 695L345 694M358 694L359 695L358 694M371 694L372 695L371 694M384 694L385 695L384 694M397 694L398 695L397 694M410 694L411 695L410 694M487 694L488 695L487 694M500 694L501 695L500 694M513 694L514 695L513 694M526 694L527 695L526 694M540 694L541 695L540 694M553 694L554 695L553 694M566 694L567 695L566 694M576 694L577 695L576 694M589 694L590 695L589 694M602 694L603 695L602 694M616 694L617 695L616 694M629 694L630 695L629 694z"/>
</svg>
