<?xml version="1.0" standalone="yes"?>
<svg width="900" height="900">
<path style="fill:#030303; stroke:none;" d="M369 239L369 243L369 244L369 245L369 246L369 247L369 248L369 249L369 250L369 251L369 252L369 253L369 254L369 255L369 256L369 257L369 258L369 259L369 260L369 261L369 262L369 263L369 264L369 265L369 266L369 267L369 268L369 269L369 270L369 271L369 272L369 273L369 274L369 275L369 276L369 277L369 278L369 282L365 282L364 282L363 282L362 282L361 282L360 282L359 282L358 282L357 282L356 282L355 282L354 282L353 282L352 282L351 282L350 282L349 282L348 282L347 282L346 282L339 282L339 286L339 287L339 288L339 289L339 290L339 291L339 292L339 293L339 299L334 299L334 295L334 294L334 293L334 292L334 291L334 290L334 289L334 288L334 287L334 286L334 285L334 284L334 283L334 282L334 281L334 280L334 279L334 278L334 277L334 276L334 275L334 274L334 273L334 272L334 271L334 270L334 269L334 268L334 267L334 266L334 265L334 264L334 263L334 262L334 261L334 260L334 255L333 255L332 257L332 261L332 262L332 263L332 264L332 265L332 266L332 267L332 268L332 269L332 270L332 271L332 272L332 273L332 274L332 275L332 276L332 277L332 278L332 279L332 280L332 281L332 282L332 283L332 284L332 285L332 286L332 287L332 288L332 289L332 290L332 291L332 292L332 293L332 294L332 295L332 296L332 302L334 302L334 304L334 308L334 309L334 310L334 311L334 312L334 313L334 314L334 315L334 316L334 317L334 318L334 319L334 320L334 321L334 322L334 323L334 324L334 325L334 326L334 327L334 328L334 329L334 330L334 331L334 332L334 333L334 334L334 335L334 336L334 337L334 338L334 339L334 345L339 345L339 341L339 340L339 339L339 338L339 337L339 336L339 335L339 334L339 329L343 329L344 329L345 329L346 329L347 329L348 329L349 329L350 329L351 329L352 329L353 329L354 329L355 329L356 329L357 329L358 329L359 329L360 329L361 329L362 329L369 329L369 325L369 324L369 323L369 322L369 321L369 320L369 319L369 318L369 317L369 316L369 315L369 314L369 313L369 312L369 311L369 310L369 309L369 308L369 307L369 306L369 305L369 304L369 303L369 302L369 301L369 300L369 299L369 298L369 297L369 296L369 295L369 294L369 293L369 292L369 291L369 290L369 285L374 285L374 289L374 290L374 291L374 292L374 293L374 294L374 295L374 296L374 297L374 298L374 299L374 300L374 301L374 302L374 303L374 304L374 305L374 306L374 307L374 308L374 312L376 312L376 310L376 306L376 305L376 304L376 303L376 302L376 301L376 300L376 299L376 298L376 297L376 296L376 295L376 294L376 293L376 292L376 291L376 285L377 285L377 288L377 292L377 293L377 294L377 295L377 296L377 297L377 298L377 299L377 300L377 301L377 302L377 303L377 304L377 305L377 306L377 307L377 312L381 312L381 308L381 307L381 306L381 305L381 304L381 303L381 302L381 301L381 300L381 299L381 298L381 297L381 296L381 295L381 294L381 293L381 292L381 291L381 290L381 289L381 285L382 285L382 288L382 292L382 293L382 294L382 295L382 296L382 297L382 298L382 299L382 300L382 301L382 302L382 303L382 304L382 305L382 306L382 307L382 312L384 312L384 310L384 306L384 305L384 304L384 303L384 302L384 301L384 300L384 299L384 298L384 297L384 296L384 295L384 294L384 293L384 292L384 291L384 285L387 285L387 286L387 290L387 291L387 292L387 293L387 294L387 295L387 296L387 297L387 298L387 299L387 300L387 301L387 302L387 303L387 304L387 305L387 312L388 312L388 309L388 305L388 304L388 303L388 302L388 301L388 300L388 299L388 298L388 297L388 296L388 295L388 294L388 293L388 292L388 291L388 290L388 285L389 285L389 288L389 292L389 293L389 294L389 295L389 296L389 297L389 298L389 299L389 300L389 301L389 302L389 303L389 304L389 305L389 306L389 307L389 312L390 312L390 309L390 305L390 304L390 303L390 302L390 301L390 300L390 299L390 298L390 297L390 296L390 295L390 294L390 293L390 292L390 291L390 290L390 285L391 285L391 288L391 292L391 293L391 294L391 295L391 296L391 297L391 298L391 299L391 300L391 301L391 302L391 303L391 304L391 305L391 306L391 307L391 312L393 312L393 310L393 306L393 305L393 304L393 303L393 302L393 301L393 300L393 299L393 298L393 297L393 296L393 295L393 294L393 293L393 292L393 291L393 285L394 285L394 288L394 292L394 293L394 294L394 295L394 296L394 297L394 298L394 299L394 300L394 301L394 302L394 303L394 304L394 305L394 306L394 307L394 312L396 312L396 310L396 306L396 305L396 304L396 303L396 302L396 301L396 300L396 299L396 298L396 297L396 296L396 295L396 294L396 293L396 292L396 291L396 285L400 285L400 289L400 290L400 291L400 292L400 293L400 294L400 295L400 296L400 297L400 298L400 299L400 300L400 305L404 305L405 305L406 305L407 305L408 305L409 305L410 305L411 305L412 305L413 305L414 305L415 305L416 305L417 305L418 305L419 305L420 305L421 305L422 305L423 305L424 305L425 305L426 305L427 305L431 305L431 309L431 310L431 311L431 312L431 313L431 314L431 315L431 316L431 317L431 318L431 319L431 320L431 321L431 322L431 323L431 324L431 325L431 326L431 327L431 328L431 329L431 330L431 331L431 332L431 333L431 334L431 335L431 336L431 337L431 338L431 339L431 340L431 341L431 342L431 343L431 344L431 349L435 349L436 349L437 349L438 349L439 349L440 349L441 349L442 349L443 349L444 349L445 349L446 349L447 349L448 349L449 349L450 349L451 349L452 349L453 349L454 349L455 349L456 349L457 349L458 349L462 349L462 345L462 344L462 343L462 342L462 341L462 340L462 339L462 338L462 331L467 331L467 327L467 326L467 325L467 324L467 323L467 322L467 321L467 320L467 319L467 318L467 317L467 316L467 315L467 314L467 313L467 312L467 311L467 310L467 309L467 308L467 307L467 306L467 305L467 304L467 303L467 302L467 301L467 300L467 299L467 298L467 297L467 296L467 290L468 290L468 293L468 297L468 298L468 299L468 300L468 301L468 302L468 303L468 304L468 305L468 306L468 307L468 308L468 309L468 310L468 311L468 312L468 313L468 314L468 315L468 316L468 317L468 318L468 319L468 320L468 321L468 322L468 323L468 324L468 331L471 331L471 330L471 326L471 325L471 324L471 323L471 322L471 321L471 320L471 319L471 318L471 317L471 316L471 315L471 314L471 313L471 312L471 311L471 310L471 309L471 308L471 307L471 306L471 305L471 304L471 303L471 302L471 301L471 300L471 299L471 298L471 297L471 296L471 295L471 290L472 290L472 293L472 297L472 298L472 299L472 300L472 301L472 302L472 303L472 304L472 305L472 306L472 307L472 308L472 309L472 310L472 311L472 312L472 313L472 314L472 315L472 316L472 317L472 318L472 319L472 320L472 321L472 322L472 323L472 324L472 331L473 331L473 328L473 324L473 323L473 322L473 321L473 320L473 319L473 318L473 317L473 316L473 315L473 314L473 313L473 312L473 311L473 310L473 309L473 308L473 307L473 306L473 305L473 304L473 303L473 302L473 301L473 300L473 299L473 298L473 297L473 290L474 290L474 293L474 297L474 298L474 299L474 300L474 301L474 302L474 303L474 304L474 305L474 306L474 307L474 308L474 309L474 310L474 311L474 312L474 313L474 314L474 315L474 316L474 317L474 318L474 319L474 320L474 321L474 322L474 323L474 324L474 331L478 331L479 331L480 331L481 331L485 331L485 327L485 326L485 325L485 324L485 323L485 322L485 321L485 320L485 319L485 318L485 317L485 316L485 315L485 314L485 313L485 312L485 311L485 310L485 309L485 308L485 307L485 306L485 305L485 304L485 303L485 302L485 301L485 300L485 299L485 298L485 297L485 296L485 290L486 290L486 293L486 297L486 298L486 299L486 300L486 301L486 302L486 303L486 304L486 305L486 306L486 307L486 308L486 309L486 310L486 311L486 312L486 313L486 314L486 315L486 316L486 317L486 318L486 319L486 320L486 321L486 322L486 323L486 324L486 331L488 331L488 329L488 325L488 324L488 323L488 322L488 321L488 320L488 319L488 318L488 317L488 316L488 315L488 314L488 313L488 312L488 311L488 310L488 309L488 308L488 307L488 306L488 305L488 304L488 303L488 302L488 301L488 300L488 299L488 298L488 297L488 296L488 295L488 294L488 290L489 290L489 293L489 297L489 298L489 299L489 300L489 301L489 302L489 303L489 304L489 305L489 306L489 307L489 308L489 309L489 310L489 311L489 312L489 313L489 314L489 315L489 316L489 317L489 318L489 319L489 320L489 321L489 322L489 323L489 324L489 331L492 331L492 330L492 326L492 325L492 324L492 323L492 322L492 321L492 320L492 319L492 318L492 317L492 316L492 315L492 309L493 309L493 306L493 297L494 297L494 300L494 309L495 309L495 306L495 297L496 297L496 300L496 309L497 309L497 306L497 297L498 297L498 300L498 309L499 309L499 306L499 297L500 297L500 300L500 309L504 309L504 305L504 304L504 303L504 302L504 297L507 297L507 298L507 302L507 303L507 304L507 305L507 309L508 309L508 306L508 297L509 297L509 300L509 309L510 309L510 306L510 297L511 297L511 300L511 309L512 309L512 306L512 297L513 297L513 300L513 309L514 309L514 306L514 297L515 297L515 300L515 309L516 309L516 306L516 297L517 297L517 300L517 309L521 309L521 305L521 304L521 303L521 302L521 297L523 297L523 295L523 291L523 290L523 289L523 288L523 287L523 286L523 285L523 284L523 283L523 282L523 281L523 280L523 279L523 278L523 277L523 276L523 275L523 274L523 273L523 272L523 271L523 270L523 269L523 268L523 267L523 266L523 265L523 264L523 263L523 262L523 261L523 260L523 259L523 258L523 257L523 256L523 250L522 250L521 252L521 256L521 257L521 258L521 259L521 263L517 263L517 259L517 258L517 257L517 256L517 251L516 251L516 254L516 263L515 263L515 260L515 251L514 251L514 254L514 263L513 263L513 260L513 251L512 251L512 254L512 263L511 263L511 260L511 251L510 251L510 254L510 263L509 263L509 260L509 251L508 251L508 254L508 263L507 263L507 260C506.997 256.013 507.598 252.332 504 250L504 254L504 255L504 256L504 257L504 263L500 263L500 259L500 258L500 257L500 256L500 251L499 251L499 254L499 263L498 263L498 260L498 251L497 251L497 254L497 263L496 263L496 260L496 251L495 251L495 254L495 263L494 263L494 260L494 251L493 251L493 254L493 263L492 263L492 266L492 270L492 271L492 272L492 273L492 274L492 275L492 276L492 277L492 284L489 284L489 283L489 279L489 278L489 277L489 276L489 275L489 274L489 273L489 272L489 271L489 270L489 269L489 268L489 267L489 266L489 265L489 264L489 263L489 262L489 261L489 260L489 259L489 258L489 257L489 256L489 255L489 254L489 253L489 252L489 251L489 250L489 249L489 248L489 244L488 244L488 247L488 251L488 252L488 253L488 254L488 255L488 256L488 257L488 258L488 259L488 260L488 261L488 262L488 263L488 264L488 265L488 266L488 267L488 268L488 269L488 270L488 271L488 272L488 273L488 274L488 275L488 276L488 277L488 278L488 284L486 284L486 282L486 278L486 277L486 276L486 275L486 274L486 273L486 272L486 271L486 270L486 269L486 268L486 267L486 266L486 265L486 264L486 263L486 262L486 261L486 260L486 259L486 258L486 257L486 256L486 255L486 254L486 253L486 252L486 251L486 244L485 244L485 247L485 251L485 252L485 253L485 254L485 255L485 256L485 257L485 258L485 259L485 260L485 261L485 262L485 263L485 264L485 265L485 266L485 267L485 268L485 269L485 270L485 271L485 272L485 273L485 274L485 275L485 276L485 277L485 278L485 284L481 284L480 284L479 284L478 284L474 284L474 280L474 279L474 278L474 277L474 276L474 275L474 274L474 273L474 272L474 271L474 270L474 269L474 268L474 267L474 266L474 265L474 264L474 263L474 262L474 261L474 260L474 259L474 258L474 257L474 256L474 255L474 254L474 253L474 252L474 251L474 250L474 249L474 244L473 244L473 247L473 251L473 252L473 253L473 254L473 255L473 256L473 257L473 258L473 259L473 260L473 261L473 262L473 263L473 264L473 265L473 266L473 267L473 268L473 269L473 270L473 271L473 272L473 273L473 274L473 275L473 276L473 277L473 278L473 284L472 284L472 281L472 277L472 276L472 275L472 274L472 273L472 272L472 271L472 270L472 269L472 268L472 267L472 266L472 265L472 264L472 263L472 262L472 261L472 260L472 259L472 258L472 257L472 256L472 255L472 254L472 253L472 252L472 251L472 250L472 244L471 244L471 247L471 251L471 252L471 253L471 254L471 255L471 256L471 257L471 258L471 259L471 260L471 261L471 262L471 263L471 264L471 265L471 266L471 267L471 268L471 269L471 270L471 271L471 272L471 273L471 274L471 275L471 276L471 277L471 278L471 284L468 284L468 283L468 279L468 278L468 277L468 276L468 275L468 274L468 273L468 272L468 271L468 270L468 269L468 268L468 267L468 266L468 265L468 264L468 263L468 262L468 261L468 260L468 259L468 258L468 257L468 256L468 255L468 254L468 253L468 252L468 251L468 250L468 249L468 248L468 244L467 244L467 247L467 251L467 252L467 253L467 254L467 255L467 256L467 257L467 258L467 259L467 260L467 261L467 262L467 263L467 264L467 265L467 266L467 267L467 268L467 269L467 270L467 271L467 272L467 273L467 274L467 275L467 276L467 277L467 278L467 284L462 284L462 288L462 289L462 290L462 291L462 292L462 293L462 294L462 295L462 296L462 297L462 298L462 299L462 303L458 303L457 303L456 303L455 303L454 303L453 303L452 303L451 303L450 303L449 303L448 303L447 303L446 303L445 303L444 303L443 303L442 303L441 303L440 303L439 303L438 303L437 303L436 303L435 303L431 303L431 299L431 298L431 297L431 296L431 295L431 294L431 293L431 292L431 291L431 290L431 289L431 288L431 287L431 286L431 285L431 284L431 283L431 282L431 281L431 280L431 279L431 278L431 277L431 276L431 275L431 274L431 273L431 272L431 271L431 270L431 269L431 268L431 267L431 266L431 265L431 264L431 259L427 259L426 259L425 259L424 259L423 259L422 259L421 259L420 259L419 259L418 259L417 259L416 259L415 259L414 259L413 259L412 259L411 259L410 259L409 259L408 259L407 259L406 259L405 259L404 259L400 259L400 255L400 254L400 253L400 252L400 251L400 250L400 249L400 248L400 247L400 246L400 245L400 244L400 239L396 239L396 243L396 244L396 245L396 246L396 247L396 248L396 249L396 250L396 251L396 252L396 253L396 254L396 255L396 256L396 257L396 258L396 265L394 265L394 263L394 259L394 258L394 257L394 256L394 255L394 254L394 253L394 252L394 251L394 250L394 249L394 248L394 247L394 246L394 245L394 244L394 239L393 239L393 242L393 246L393 247L393 248L393 249L393 250L393 251L393 252L393 253L393 254L393 255L393 256L393 257L393 258L393 259L393 260L393 261L393 265L391 265L391 263L391 259L391 258L391 257L391 256L391 255L391 254L391 253L391 252L391 251L391 250L391 249L391 248L391 247L391 246L391 245L391 244L391 239L390 239L390 242L390 246L390 247L390 248L390 249L390 250L390 251L390 252L390 253L390 254L390 255L390 256L390 257L390 258L390 259L390 260L390 261L390 265L389 265L389 262L389 258L389 257L389 256L389 255L389 254L389 253L389 252L389 251L389 250L389 249L389 248L389 247L389 246L389 245L389 244L389 243L389 239L388 239L388 242L388 246L388 247L388 248L388 249L388 250L388 251L388 252L388 253L388 254L388 255L388 256L388 257L388 258L388 259L388 260L388 261L388 265L387 265L387 262L387 258L387 257L387 256L387 255L387 254L387 253L387 252L387 251L387 250L387 249L387 248L387 247L387 246L387 245L387 244L387 243L387 239L384 239L384 240L384 244L384 245L384 246L384 247L384 248L384 249L384 250L384 251L384 252L384 253L384 254L384 255L384 256L384 257L384 258L384 259L384 265L382 265L382 263L382 259L382 258L382 257L382 256L382 255L382 254L382 253L382 252L382 251L382 250L382 249L382 248L382 247L382 246L382 245L382 244L382 239L381 239L381 242L381 246L381 247L381 248L381 249L381 250L381 251L381 252L381 253L381 254L381 255L381 256L381 257L381 258L381 259L381 260L381 261L381 265L377 265L377 261L377 260L377 259L377 258L377 257L377 256L377 255L377 254L377 253L377 252L377 251L377 250L377 249L377 248L377 247L377 246L377 239L376 239L376 242L376 246L376 247L376 248L376 249L376 250L376 251L376 252L376 253L376 254L376 255L376 256L376 257L376 258L376 259L376 260L376 261L376 265L374 265L374 263L374 259L374 258L374 257L374 256L374 255L374 254L374 253L374 252L374 251L374 250L374 249L374 248L374 247L374 246L374 245L374 244L374 239L369 239M524 264L524 268L524 269L524 270L524 271L524 272L524 273L524 274L524 275L524 276L524 277L524 278L524 279L524 280L524 281L524 282L524 283L524 284L524 285L524 286L524 287L524 288L524 289L524 290L524 291L524 292L524 293L524 294L524 295L524 299L523 299L523 302L523 306L523 307L523 308L523 309L523 310L523 311L523 312L523 313L523 314L523 315L523 316L523 317L523 318L523 319L523 320L523 321L523 322L523 323L523 324L523 325L523 326L523 327L523 328L523 329L523 330L523 331L523 332L523 333L523 334L523 335L523 336L523 337L523 338L523 339L523 340L523 341L523 345L524 345L524 342L524 338L524 337L524 336L524 335L524 334L524 333L524 332L524 331L524 330L524 329L524 328L524 327L524 326L524 325L524 324L524 323L524 322L524 321L524 320L524 319L524 318L524 317L524 316L524 315L524 310L525 310L525 313L525 317L525 318L525 319L525 320L525 321L525 322L525 323L525 324L525 325L525 326L525 327L525 328L525 329L525 330L525 331L525 332L525 333L525 334L525 335L525 336L525 337L525 338L525 339L525 340L525 345L526 345L526 342L526 338L526 337L526 336L526 335L526 334L526 333L526 332L526 331L526 330L526 329L526 328L526 327L526 326L526 325L526 324L526 323L526 322L526 321L526 320L526 319L526 318L526 317L526 316L526 315L526 310L527 310L527 313L527 317L527 318L527 319L527 320L527 321L527 322L527 323L527 324L527 325L527 326L527 327L527 328L527 329L527 330L527 331L527 332L527 333L527 334L527 335L527 336L527 337L527 338L527 339L527 340L527 345L528 345L528 342L528 338L528 337L528 336L528 335L528 334L528 333L528 332L528 331L528 330L528 329L528 328L528 327L528 326L528 325L528 324L528 323L528 322L528 321L528 320L528 319L528 318L528 317L528 316L528 315L528 310L529 310L529 313L529 317L529 318L529 319L529 320L529 321L529 322L529 323L529 324L529 325L529 326L529 327L529 328L529 329L529 330L529 331L529 332L529 333L529 334L529 335L529 336L529 337L529 338L529 339L529 340L529 345L532 345L532 344L532 340L532 339L532 338L532 337L532 336L532 335L532 334L532 333L532 332L532 331L532 330L532 329L532 328L532 327L532 326L532 325L532 324L532 323L532 322L532 321L532 320L532 319L532 318L532 317L532 310L533 310L533 313L533 317L533 318L533 319L533 320L533 321L533 322L533 323L533 324L533 325L533 326L533 327L533 328L533 329L533 330L533 331L533 332L533 333L533 334L533 335L533 336L533 337L533 338L533 339L533 340L533 345L534 345L534 342L534 338L534 337L534 336L534 335L534 334L534 333L534 332L534 331L534 330L534 329L534 328L534 327L534 326L534 325L534 324L534 323L534 322L534 321L534 320L534 319L534 318L534 317L534 316L534 315L534 310L538 310L538 314L538 315L538 316L538 317L538 318L538 319L538 320L538 321L538 322L538 323L538 324L538 325L538 326L538 327L538 328L538 329L538 330L538 331L538 332L538 333L538 334L538 335L538 336L538 337L538 338L538 339L538 340L538 341L538 345L542 345L541 348L542 351L542 352L541 354L541 358L541 359L541 360L541 361L541 362L541 363L541 364L541 365L541 366L541 367L541 368L541 369L542 376L542 379L541 379L541 383L541 384L541 385L541 386L541 387L541 388L541 389L541 390L541 391L541 392L541 393L541 394L541 395L541 396L541 397L541 398L541 399L541 400L541 401L541 402L541 403L541 404L541 405L541 406L541 407L541 408L541 409L541 410L541 415L538 415L538 414L538 410L538 409L538 408L538 407L538 406L538 405L538 404L538 403L538 402L538 401L538 400L538 399L538 398L538 397L538 396L538 395L538 394L538 393L538 392L538 391L538 390L538 389L538 388L538 387L538 380L534 380L534 384L534 385L534 386L534 387L534 388L534 389L534 390L534 391L534 392L534 393L534 394L534 395L534 396L534 397L534 398L534 399L534 400L534 401L534 402L534 403L534 404L534 405L534 406L534 407L534 408L534 409L534 410L534 411L534 415L533 415L533 412L533 408L533 407L533 406L533 405L533 404L533 403L533 402L533 401L533 400L533 399L533 398L533 397L533 396L533 395L533 394L533 393L533 392L533 391L533 390L533 389L533 388L533 387L533 386L533 385L533 380L532 380L532 383L532 387L532 388L532 389L532 390L532 391L532 392L532 393L532 394L532 395L532 396L532 397L532 398L532 399L532 400L532 401L532 402L532 403L532 404L532 405L532 406L532 407L532 408L532 409L532 410L532 415L529 415L529 414L529 410L529 409L529 408L529 407L529 406L529 405L529 404L529 403L529 402L529 401L529 400L529 399L529 398L529 397L529 396L529 395L529 394L529 393L529 392L529 391L529 390L529 389L529 388L529 387L529 380L528 380L528 383L528 387L528 388L528 389L528 390L528 391L528 392L528 393L528 394L528 395L528 396L528 397L528 398L528 399L528 400L528 401L528 402L528 403L528 404L528 405L528 406L528 407L528 408L528 409L528 410L528 415L527 415L527 412L527 408L527 407L527 406L527 405L527 404L527 403L527 402L527 401L527 400L527 399L527 398L527 397L527 396L527 395L527 394L527 393L527 392L527 391L527 390L527 389L527 388L527 387L527 386L527 385L527 380L526 380L526 383L526 387L526 388L526 389L526 390L526 391L526 392L526 393L526 394L526 395L526 396L526 397L526 398L526 399L526 400L526 401L526 402L526 403L526 404L526 405L526 406L526 407L526 408L526 409L526 410L526 415L525 415L525 412L525 408L525 407L525 406L525 405L525 404L525 403L525 402L525 401L525 400L525 399L525 398L525 397L525 396L525 395L525 394L525 393L525 392L525 391L525 390L525 389L525 388L525 387L525 386L525 385L525 380L524 380L524 383L524 387L524 388L524 389L524 390L524 391L524 392L524 393L524 394L524 395L524 396L524 397L524 398L524 399L524 400L524 401L524 402L524 403L524 404L524 405L524 406L524 407L524 408L524 409L524 410L524 415L523 415L523 418L523 422L523 423L523 424L523 425L523 426L523 427L523 428L523 429L523 430L523 431L523 432L523 433L523 434L523 435L523 436L523 437L523 438L523 439L523 440L523 441L523 442L523 443L523 444L523 445L523 446L523 447L523 448L523 449L523 450L523 451L523 452L523 453L523 454L523 455L523 456L523 457L523 461L524 461L524 458L524 454L524 453L524 452L524 451L524 450L524 449L524 448L524 447L524 446L524 445L524 444L524 443L524 442L524 441L524 440L524 439L524 438L524 437L524 436L524 435L524 434L524 433L524 432L524 431L524 427L525 427L525 430L525 434L525 435L525 436L525 437L525 438L525 439L525 440L525 441L525 442L525 443L525 444L525 445L525 446L525 447L525 448L525 449L525 450L525 451L525 452L525 453L525 454L525 455L525 456L525 457L525 461L526 461L526 458L526 454L526 453L526 452L526 451L526 450L526 449L526 448L526 447L526 446L526 445L526 444L526 443L526 442L526 441L526 440L526 439L526 438L526 437L526 436L526 435L526 434L526 433L526 432L526 431L526 427L527 427L527 430L527 434L527 435L527 436L527 437L527 438L527 439L527 440L527 441L527 442L527 443L527 444L527 445L527 446L527 447L527 448L527 449L527 450L527 451L527 452L527 453L527 454L527 455L527 456L527 457L527 462L528 462L528 459L528 455L528 454L528 453L528 452L528 451L528 450L528 449L528 448L528 447L528 446L528 445L528 444L528 443L528 442L528 441L528 440L528 439L528 438L528 437L528 436L528 435L528 434L528 433L528 432L528 427L529 427L529 430L529 434L529 435L529 436L529 437L529 438L529 439L529 440L529 441L529 442L529 443L529 444L529 445L529 446L529 447L529 448L529 449L529 450L529 451L529 452L529 453L529 454L529 455L529 456L529 457L529 462L532 462L532 458L532 457L532 456L532 455L532 454L532 453L532 452L532 451L532 450L532 449L532 448L532 447L532 446L532 445L532 444L532 443L532 442L532 441L532 440L532 439L532 438L532 437L532 436L532 435L532 434L532 433L532 432L532 431L532 427L533 427L533 430L533 434L533 435L533 436L533 437L533 438L533 439L533 440L533 441L533 442L533 443L533 444L533 445L533 446L533 447L533 448L533 449L533 450L533 451L533 452L533 453L533 454L533 455L533 456L533 457L533 461L534 461L534 458L534 454L534 453L534 452L534 451L534 450L534 449L534 448L534 447L534 446L534 445L534 444L534 443L534 442L534 441L534 440L534 439L534 438L534 437L534 436L534 435L534 434L534 433L534 432L534 431L534 427L538 427L538 431L538 432L538 433L538 434L538 435L538 436L538 437L538 438L538 439L538 440L538 441L538 442L538 443L538 444L538 445L538 446L538 447L538 448L538 449L538 450L538 451L538 452L538 453L538 454L538 461L542 462L541 465L541 469L541 470L541 471L541 472L541 473L541 474L541 475L541 476L541 477L541 478L541 479L541 480L541 481L541 482L541 483L541 484L541 485L541 486L541 487L541 488L541 489L541 490L541 491L541 492L541 493L541 494L541 495L541 496L541 497L541 498L541 499L541 500L541 501L541 502L541 503L541 504L541 505L541 506L541 507L541 508L541 509L541 510L541 511L541 512L541 513L541 514L541 515L541 516L541 517L541 518L541 519L541 520L541 521L541 522L541 523L541 524L541 525L541 526L541 527L541 528L541 529L541 530L541 531L541 532L541 539L542 542L541 545L541 549L541 550L541 551L541 552L541 553L541 554L541 555L541 556L541 557L541 558L541 559L541 560L541 561L541 562L541 563L541 564L541 565L541 566L541 567L541 568L541 569L541 570L541 571L541 572L541 578L538 578L538 577L538 573L538 572L538 571L538 570L538 569L538 568L538 567L538 566L538 565L538 564L538 563L538 562L538 561L538 560L538 559L538 558L538 557L538 556L538 555L538 554L538 553L538 552L538 551L538 550L538 543L534 543L534 547L534 548L534 549L534 550L534 551L534 552L534 553L534 554L534 555L534 556L534 557L534 558L534 559L534 560L534 561L534 562L534 563L534 564L534 565L534 566L534 567L534 568L534 569L534 570L534 571L534 572L534 573L534 574L534 578L533 578L533 575L533 571L533 570L533 569L533 568L533 567L533 566L533 565L533 564L533 563L533 562L533 561L533 560L533 559L533 558L533 557L533 556L533 555L533 554L533 553L533 552L533 551L533 550L533 549L533 548L533 543L532 543L532 546L532 550L532 551L532 552L532 553L532 554L532 555L532 556L532 557L532 558L532 559L532 560L532 561L532 562L532 563L532 564L532 565L532 566L532 567L532 568L532 569L532 570L532 571L532 572L532 573L532 578L529 578L529 577L529 573L529 572L529 571L529 570L529 569L529 568L529 567L529 566L529 565L529 564L529 563L529 562L529 561L529 560L529 559L529 558L529 557L529 556L529 555L529 554L529 553L529 552L529 551L529 550L529 543L528 543L528 546L528 550L528 551L528 552L528 553L528 554L528 555L528 556L528 557L528 558L528 559L528 560L528 561L528 562L528 563L528 564L528 565L528 566L528 567L528 568L528 569L528 570L528 571L528 572L528 573L528 578L527 578L527 575L527 571L527 570L527 569L527 568L527 567L527 566L527 565L527 564L527 563L527 562L527 561L527 560L527 559L527 558L527 557L527 556L527 555L527 554L527 553L527 552L527 551L527 550L527 549L527 548L527 543L526 543L526 546L526 550L526 551L526 552L526 553L526 554L526 555L526 556L526 557L526 558L526 559L526 560L526 561L526 562L526 563L526 564L526 565L526 566L526 567L526 568L526 569L526 570L526 571L526 572L526 573L526 578L525 578L525 575L525 571L525 570L525 569L525 568L525 567L525 566L525 565L525 564L525 563L525 562L525 561L525 560L525 559L525 558L525 557L525 556L525 555L525 554L525 553L525 552L525 551L525 550L525 549L525 548L525 543L524 543L524 546L524 550L524 551L524 552L524 553L524 554L524 555L524 556L524 557L524 558L524 559L524 560L524 561L524 562L524 563L524 564L524 565L524 566L524 567L524 568L524 569L524 570L524 571L524 572L524 573L524 578L523 578L523 581L523 585L523 586L523 587L523 588L523 589L523 590L523 591L523 592L523 593L523 594L523 595L523 596L523 597L523 598L523 599L523 600L523 601L523 602L523 603L523 604L523 605L523 606L523 607L523 608L523 609L523 610L523 611L523 612L523 613L523 614L523 615L523 616L523 617L523 618L523 619L523 620L523 624L524 624L524 621L524 617L524 616L524 615L524 614L524 613L524 612L524 611L524 610L524 609L524 608L524 607L524 606L524 605L524 604L524 603L524 602L524 601L524 600L524 599L524 598L524 597L524 596L524 595L524 594L524 589L525 589L525 592L525 596L525 597L525 598L525 599L525 600L525 601L525 602L525 603L525 604L525 605L525 606L525 607L525 608L525 609L525 610L525 611L525 612L525 613L525 614L525 615L525 616L525 617L525 618L525 619L525 624L526 624L526 621L526 617L526 616L526 615L526 614L526 613L526 612L526 611L526 610L526 609L526 608L526 607L526 606L526 605L526 604L526 603L526 602L526 601L526 600L526 599L526 598L526 597L526 596L526 595L526 594L526 589L527 589L527 592L527 596L527 597L527 598L527 599L527 600L527 601L527 602L527 603L527 604L527 605L527 606L527 607L527 608L527 609L527 610L527 611L527 612L527 613L527 614L527 615L527 616L527 617L527 618L527 619L527 624L528 624L528 621L528 617L528 616L528 615L528 614L528 613L528 612L528 611L528 610L528 609L528 608L528 607L528 606L528 605L528 604L528 603L528 602L528 601L528 600L528 599L528 598L528 597L528 596L528 595L528 594L528 589L529 589L529 592L529 596L529 597L529 598L529 599L529 600L529 601L529 602L529 603L529 604L529 605L529 606L529 607L529 608L529 609L529 610L529 611L529 612L529 613L529 614L529 615L529 616L529 617L529 618L529 619L529 624L532 624L532 623L532 619L532 618L532 617L532 616L532 615L532 614L532 613L532 612L532 611L532 610L532 609L532 608L532 607L532 606L532 605L532 604L532 603L532 602L532 601L532 600L532 599L532 598L532 597L532 596L532 589L533 589L533 592L533 596L533 597L533 598L533 599L533 600L533 601L533 602L533 603L533 604L533 605L533 606L533 607L533 608L533 609L533 610L533 611L533 612L533 613L533 614L533 615L533 616L533 617L533 618L533 619L533 624L534 624L534 621L534 617L534 616L534 615L534 614L534 613L534 612L534 611L534 610L534 609L534 608L534 607L534 606L534 605L534 604L534 603L534 602L534 601L534 600L534 599L534 598L534 597L534 596L534 595L534 594L534 589L538 589L538 593L538 594L538 595L538 596L538 597L538 598L538 599L538 600L538 601L538 602L538 603L538 604L538 605L538 606L538 607L538 608L538 609L538 610L538 611L538 612L538 613L538 614L538 615L538 616L538 617L538 618L538 619L538 620L538 624L541 624L541 623L541 619L541 618L541 617L541 616L541 615L541 614L541 613L541 612L541 611L541 610L541 609L541 608L541 607L541 606L541 605L541 604L541 603L541 602L541 601L541 600L541 599L541 598L541 597L541 596L541 589L542 589L542 592L542 596L542 597L542 598L542 599L542 600L542 601L542 602L542 603L542 604L542 605L542 606L542 607L542 608L542 609L542 610L542 611L542 612L542 613L542 614L542 615L542 616L542 617L542 618L542 619L542 624L543 624L543 621L543 617L543 616L543 615L543 614L543 613L543 612L543 611L543 610L543 609L543 608L543 607L543 606L543 605L543 604L543 603L543 602L543 601L543 600L543 599L543 598L543 597L543 596L543 595L543 594L543 589L544 589L544 592L544 596L544 597L544 598L544 599L544 600L544 601L544 602L544 603L544 604L544 605L544 606L544 607L544 608L544 609L544 610L544 611L544 612L544 613L544 614L544 615L544 616L544 617L544 618L544 619L544 624L545 624L545 621L545 617L545 616L545 615L545 614L545 613L545 612L545 611L545 610L545 609L545 608L545 607L545 606L545 605L545 604L545 603L545 602L545 601L545 600L545 599L545 598L545 597L545 596L545 595L545 594L545 589L546 589L546 592L546 596L546 597L546 598L546 599L546 600L546 601L546 602L546 603L546 604L546 605L546 606L546 607L546 608L546 609L546 610L546 611L546 612L546 613L546 614L546 615L546 616L546 617L546 618L546 619L546 624L547 624L547 621L547 617L547 616L547 615L547 614L547 613L547 612L547 611L547 610L547 609L547 608L547 607L547 606L547 605L547 604L547 603L547 602L547 601L547 600L547 599L547 598L547 597L547 596L547 595L547 594L547 589L548 589L548 592L548 596L548 597L548 598L548 599L548 600L548 601L548 602L548 603L548 604L548 605L548 606L548 607L548 608L548 609L548 610L548 611L548 612L548 613L548 614L548 615L548 616L548 617L548 618L548 619L548 624L549 624L549 621L549 617L549 616L549 615L549 614L549 613L549 612L549 611L549 610L549 609L549 608L549 607L549 606L549 605L549 604L549 603L549 602L549 601L549 600L549 599L549 598L549 597L549 596L549 595L549 594L549 589L554 589L554 593L554 594L554 595L554 596L554 597L554 598L554 599L554 600L554 601L554 602L554 603L554 604L554 608L555 608L555 605L555 601L555 600L555 599L555 598L555 597L555 596L555 595L555 594L555 589L558 589L558 590L558 594L558 595L558 596L558 597L558 598L558 599L558 600L558 601L558 608L559 608L559 605L559 601L559 600L559 599L559 598L559 597L559 596L559 595L559 594L559 589L560 589L560 592L560 596L560 597L560 598L560 599L560 600L560 601L560 602L560 603L560 608L561 608L561 605L561 601L561 600L561 599L561 598L561 597L561 596L561 595L561 594L561 589L562 589L562 592L562 596L562 597L562 598L562 599L562 600L562 601L562 602L562 603L562 608L563 608L563 605L563 601L563 600L563 599L563 598L563 597L563 596L563 595L563 594L563 589L566 589L566 590L566 594L566 595L566 596L566 597L566 598L566 599L566 600L566 601L566 608L570 608L570 604L570 603L570 602L570 601L570 600L570 599L570 598L570 597L570 596L570 595L570 594L570 593L570 589L571 589L571 592L571 596L571 597L571 598L571 599L571 600L571 601L571 602L571 603L571 608L572 608L572 605L572 601L572 600L572 599L572 598L572 597L572 596L572 595L572 594L572 589L575 589L575 590L575 594L575 595L575 596L575 597L575 598L575 599L575 600L575 601L575 608L576 608L576 605L576 601L576 600L576 599L576 598L576 597L576 596L576 595L576 594L576 589L577 589L577 592L577 596L577 597L577 598L577 599L577 600L577 601L577 602L577 603L577 608L578 608L578 605L578 601L578 600L578 599L578 598L578 597L578 596L578 595L578 594L578 589L579 589L579 592L579 596L579 597L579 598L579 599L579 600L579 601L579 602L579 603L579 608L580 608L580 605L580 601L580 600L580 599L580 598L580 597L580 596L580 595L580 594L580 589L581 589L581 592L581 596L581 597L581 598L581 599L581 600L581 601L581 602L581 603L581 608L582 608L582 605L582 601L582 600L582 599L582 598L582 597L582 596L582 595L582 594L582 589L583 589L583 592L583 596L583 597L583 598L583 599L583 600L583 601L583 602L583 603L583 608L585 608L585 606L585 602L585 601L585 600L585 599L585 598L585 597L585 596L585 595L585 594L585 593L585 592L585 591L585 590L585 589L585 588L585 587L585 586L585 585L585 584L585 583L585 582L585 581L585 580L585 579L585 578L585 577L585 576L585 575L585 568L587 568L587 570L587 574L587 575L587 576L587 577L587 578L587 579L587 580L587 581L587 582L587 583L587 584L587 585L587 586L587 587L587 588L587 589L587 590L587 591L587 592L587 593L587 594L587 595L587 596L587 597L587 601L588 601L588 598L588 594L588 593L588 592L588 591L588 590L588 589L588 588L588 587L588 586L588 585L588 584L588 583L588 582L588 581L588 580L588 579L588 578L588 577L588 576L588 575L588 574L588 573L588 572L588 571L588 570L588 569L588 568L588 567L588 566L588 565L588 564L588 563L588 562L588 561L588 560L588 559L588 558L588 557L588 556L588 555L588 554L588 553L588 552L588 551L588 550L588 549L588 548L588 547L588 546L588 545L588 544L588 543L588 542L588 541L588 540L588 539L588 538L588 537L588 536L588 535L588 534L588 533L588 532L588 531L588 530L588 529L588 528L588 527L588 526L588 525L588 524L588 523L588 522L588 521L588 520L588 519L588 518L588 517L588 516L588 515L588 514L588 513L588 512L588 511L588 510L588 509L588 508L588 507L588 506L588 505L588 504L588 503L588 502L588 501L588 500L588 499L588 498L588 497L588 496L588 495L588 494L588 493L588 492L588 491L588 490L588 489L588 488L588 487L588 486L588 485L588 484L588 483L588 482L588 481L588 480L588 479L588 478L588 477L588 476L588 475L588 474L588 473L588 472L588 471L588 470L588 469L588 468L588 467L588 466L588 465L588 464L588 463L588 462L588 461L588 460L588 459L588 458L588 457L588 456L588 455L588 454L588 453L588 452L588 451L588 450L588 449L588 448L588 447L588 446L588 445L588 444L588 443L588 442L588 441L588 440L588 439L588 438L588 437L588 436L588 435L588 434L588 433L588 432L588 431L588 430L588 429L588 428L588 427L588 426L588 425L588 424L588 423L588 422L588 421L588 420L588 419L588 418L588 417L588 416L588 415L588 414L588 413L588 412L588 411L588 410L588 409L588 408L588 407L588 406L588 405L588 404L588 403L588 402L588 401L588 400L588 399L588 398L588 397L588 396L588 395L588 394L588 393L588 392L588 391L588 390L588 389L588 388L588 387L588 386L588 385L588 384L588 383L588 382L588 381L588 380L588 379L588 378L588 377L588 376L588 375L588 374L588 373L588 372L588 371L588 370L588 369L588 368L588 367L588 366L588 365L588 364L588 363L588 362L588 361L588 360L588 359L588 358L588 357L588 356L588 355L588 354L588 353L588 352L588 351L588 350L588 349L588 348L588 347L588 346L588 345L588 344L588 343L588 342L588 341L588 340L588 339L588 338L588 337L588 336L588 335L588 334L588 333L588 332L588 331L588 330L588 329L588 328L588 327L588 322L587 322L587 319L587 315L587 314L587 313L587 312L587 311L587 310L587 309L587 308L587 307L587 306L587 305L587 304L587 303L587 302L587 301L587 300L587 299L587 298L587 297L587 296L587 289L585 289L585 291L585 295L585 296L585 297L585 298L585 299L585 300L585 301L585 302L585 303L585 304L585 305L585 306L585 307L585 308L585 309L585 310L585 311L585 312L585 313L585 314L585 315L585 316L585 317L585 318L585 319L585 320L585 321L585 322L585 329L583 329L583 327L583 323L583 322L583 321L583 320L583 319L583 318L583 317L583 316L583 310L582 310L582 313L582 317L582 318L582 319L582 320L582 321L582 322L582 323L582 324L582 329L581 329L581 326L581 322L581 321L581 320L581 319L581 318L581 317L581 316L581 315L581 310L580 310L580 313L580 317L580 318L580 319L580 320L580 321L580 322L580 323L580 324L580 329L579 329L579 326L579 322L579 321L579 320L579 319L579 318L579 317L579 316L579 315L579 310L578 310L578 313L578 317L578 318L578 319L578 320L578 321L578 322L578 323L578 324L578 329L577 329L577 326L577 322L577 321L577 320L577 319L577 318L577 317L577 316L577 315L577 310L576 310L576 313L576 317L576 318L576 319L576 320L576 321L576 322L576 323L576 324L576 329L575 329L575 326L575 322L575 321L575 320L575 319L575 318L575 317L575 316L575 315L575 310L572 310L572 311L572 315L572 316L572 317L572 318L572 319L572 320L572 321L572 322L572 329L571 329L571 326L571 322L571 321L571 320L571 319L571 318L571 317L571 316L571 315L571 310L570 310L570 313L570 317L570 318L570 319L570 320L570 321L570 322L570 323L570 324L570 329L566 329L566 325L566 324L566 323L566 322L566 321L566 320L566 319L566 318L566 317L566 316L566 315L566 314L566 310L565 310L565 307L565 303L565 302L565 301L565 300L565 299L565 298L565 297L565 296L565 295L565 294L565 293L565 292L565 287L563 287L563 289L563 293L563 294L563 295L563 296L563 297L563 298L563 299L563 300L563 306L562 306L562 303L562 299L562 298L562 297L562 296L562 295L562 294L562 293L562 292L562 287L561 287L561 290L561 294L561 295L561 296L561 297L561 298L561 299L561 300L561 301L561 306L560 306L560 303L560 299L560 298L560 297L560 296L560 295L560 294L560 293L560 292L560 287L559 287L559 290L559 294L559 295L559 296L559 297L559 298L559 299L559 300L559 301L559 306L558 306L558 303L558 299L558 298L558 297L558 296L558 295L558 294L558 293L558 292L558 287L555 287L555 288L555 292L555 293L555 294L555 295L555 296L555 297L555 298L555 299L555 306L554 306L554 303L554 299L554 298L554 297L554 296L554 295L554 294L554 293L554 292L554 287L549 287L549 291L549 292L549 293L549 294L549 295L549 296L549 297L549 298L549 299L549 300L549 301L549 302L549 303L549 304L549 305L549 306L549 307L549 308L549 309L549 310L549 311L549 312L549 313L549 314L549 315L549 316L549 317L549 318L549 322L548 322L548 319L548 315L548 314L548 313L548 312L548 311L548 310L548 309L548 308L548 307L548 306L548 305L548 304L548 303L548 302L548 301L548 300L548 299L548 298L548 297L548 296L548 295L548 294L548 293L548 292L548 287L547 287L547 290L547 294L547 295L547 296L547 297L547 298L547 299L547 300L547 301L547 302L547 303L547 304L547 305L547 306L547 307L547 308L547 309L547 310L547 311L547 312L547 313L547 314L547 315L547 316L547 317L547 322L546 322L546 319L546 315L546 314L546 313L546 312L546 311L546 310L546 309L546 308L546 307L546 306L546 305L546 304L546 303L546 302L546 301L546 300L546 299L546 298L546 297L546 296L546 295L546 294L546 293L546 292L546 287L545 287L545 290L545 294L545 295L545 296L545 297L545 298L545 299L545 300L545 301L545 302L545 303L545 304L545 305L545 306L545 307L545 308L545 309L545 310L545 311L545 312L545 313L545 314L545 315L545 316L545 317L545 322L544 322L544 319L544 315L544 314L544 313L544 312L544 311L544 310L544 309L544 308L544 307L544 306L544 305L544 304L544 303L544 302L544 301L544 300L544 299L544 298L544 297L544 296L544 295L544 294L544 293L544 292L544 287L543 287L543 290L543 294L543 295L543 296L543 297L543 298L543 299L543 300L543 301L543 302L543 303L543 304L543 305L543 306L543 307L543 308L543 309L543 310L543 311L543 312L543 313L543 314L543 315L543 316L543 317L543 322L542 322L541 320L541 312L542 312L542 309L542 305L542 304L542 303L542 302L542 301L542 300L542 299L542 298L542 297L542 296L542 295L542 294L542 293L542 292L542 291L542 290L542 286L541 286L541 289L541 299L538 299L538 298L538 294L538 293L538 292L538 291L538 290L538 289L538 288L538 287L538 286L538 285L538 284L538 283L538 282L538 281L538 280L538 279L538 278L538 277L538 276L538 275L538 274L538 273L538 272L538 271L538 264L534 264L534 268L534 269L534 270L534 271L534 272L534 273L534 274L534 275L534 276L534 277L534 278L534 279L534 280L534 281L534 282L534 283L534 284L534 285L534 286L534 287L534 288L534 289L534 290L534 291L534 292L534 293L534 294L534 295L534 299L533 299L533 296L533 292L533 291L533 290L533 289L533 288L533 287L533 286L533 285L533 284L533 283L533 282L533 281L533 280L533 279L533 278L533 277L533 276L533 275L533 274L533 273L533 272L533 271L533 270L533 269L533 264L532 264L532 267L532 271L532 272L532 273L532 274L532 275L532 276L532 277L532 278L532 279L532 280L532 281L532 282L532 283L532 284L532 285L532 286L532 287L532 288L532 289L532 290L532 291L532 292L532 293L532 294L532 299L529 299L529 298L529 294L529 293L529 292L529 291L529 290L529 289L529 288L529 287L529 286L529 285L529 284L529 283L529 282L529 281L529 280L529 279L529 278L529 277L529 276L529 275L529 274L529 273L529 272L529 271L529 264L528 264L528 267L528 271L528 272L528 273L528 274L528 275L528 276L528 277L528 278L528 279L528 280L528 281L528 282L528 283L528 284L528 285L528 286L528 287L528 288L528 289L528 290L528 291L528 292L528 293L528 294L528 299L527 299L527 296L527 292L527 291L527 290L527 289L527 288L527 287L527 286L527 285L527 284L527 283L527 282L527 281L527 280L527 279L527 278L527 277L527 276L527 275L527 274L527 273L527 272L527 271L527 270L527 269L527 264L526 264L526 267L526 271L526 272L526 273L526 274L526 275L526 276L526 277L526 278L526 279L526 280L526 281L526 282L526 283L526 284L526 285L526 286L526 287L526 288L526 289L526 290L526 291L526 292L526 293L526 294L526 299L525 299L525 296L525 292L525 291L525 290L525 289L525 288L525 287L525 286L525 285L525 284L525 283L525 282L525 281L525 280L525 279L525 278L525 277L525 276L525 275L525 274L525 273L525 272L525 271L525 270L525 269L524 264M541 280L542 281L541 280M541 284L542 285L541 284M542 324L542 328L542 329L542 330L542 331L542 332L542 333L542 334L542 335L542 336L542 337L542 338L542 339L542 344L541 344L541 341L541 337L541 336L541 335L541 334L541 333L541 332L541 331L541 330L542 324M369 355L369 359L369 360L369 361L369 362L369 363L369 364L369 365L369 366L369 367L369 368L369 369L369 370L369 371L369 372L369 373L369 374L369 375L369 376L369 377L369 378L369 379L369 380L369 381L369 382L369 383L369 384L369 385L369 386L369 387L369 388L369 389L369 390L369 391L369 392L369 393L369 394L369 398L365 398L364 398L363 398L362 398L355 399L356 402L356 406L356 407L356 408L356 409L356 410L356 411L356 412L356 413L356 414L356 415L356 416L356 417L356 421L355 422L353 422L349 422L348 422L347 422L346 422L339 422L339 426L339 427L339 428L339 429L339 430L339 431L339 432L339 433L339 438L334 438L334 434L334 433L334 432L334 431L334 430L334 429L334 428L334 427L334 426L334 425L334 424L334 423L334 422L334 421L334 420L334 419L334 418L334 417L334 416L334 415L334 414L334 413L334 412L334 411L334 410L334 409L334 408L334 407L334 406L334 405L334 404L334 403L334 402L334 401L334 400L334 399L334 395L332 395L332 397L332 401L332 402L332 403L332 404L332 405L332 406L332 407L332 408L332 409L332 410L332 411L332 412L332 418L327 418L327 422L327 423L327 424L327 425L327 426L327 427L327 428L327 429L327 430L327 431L327 432L327 433L327 434L327 435L327 436L327 437L327 438L327 439L327 440L327 441L327 442L327 443L327 444L327 445L327 446L327 447L327 448L327 449L327 450L327 451L327 452L327 453L327 454L327 455L327 456L327 457L327 462L325 462L325 460L325 456L325 455L325 454L325 453L325 452L325 451L325 450L325 449L325 448L325 447L325 446L325 445L325 444L325 443L325 442L325 441L325 440L325 439L325 438L325 437L325 436L325 435L325 434L325 433L325 432L325 431L325 430L325 429L325 428L325 427L325 426L325 425L325 418L324 418L324 421L324 425L324 426L324 427L324 428L324 429L324 430L324 431L324 432L324 433L324 434L324 435L324 436L324 437L324 438L324 439L324 440L324 441L324 442L324 443L324 444L324 445L324 446L324 447L324 448L324 449L324 450L324 451L324 452L324 453L324 454L324 455L324 456L324 462L318 462L318 458L318 457L318 456L318 455L318 454L318 453L318 452L318 451L318 450L318 449L318 448L318 447L318 446L318 445L318 444L318 443L318 442L318 441L318 440L318 439L318 438L318 437L318 436L318 435L318 434L318 433L318 432L318 431L318 430L318 429L318 428L318 427L318 426L318 425L318 424L318 423L318 418L311 418L311 422L311 423L311 424L311 425L311 426L311 427L311 428L311 429L311 430L311 431L311 432L311 433L311 434L311 435L311 436L311 437L311 438L311 439L311 440L311 441L311 442L311 443L311 444L311 445L311 446L311 447L311 448L311 449L311 450L311 451L311 452L311 453L311 454L311 455L311 456L311 457L311 462L309 462L309 464L309 468L309 469L309 470L309 471L309 472L309 473L309 474L309 475L309 476L309 477L309 478L309 479L309 480L309 481L309 482L309 483L309 484L309 485L309 486L309 487L309 488L309 489L309 490L309 491L309 492L309 493L309 494L309 495L309 496L309 497L309 498L309 499L309 500L309 501L309 502L309 503L309 504L309 505L309 506L309 507L309 508L309 509L309 510L309 511L309 512L309 513L309 514L309 515L309 516L309 517L309 518L309 519L309 520L309 521L309 522L309 523L309 524L309 525L309 526L309 527L309 528L309 529L309 530L309 531L309 532L309 533L309 534L309 535L309 536L309 537L309 538L309 539L309 540L309 541L309 542L309 543L309 544L309 545L309 546L309 547L309 548L309 549L309 550L309 551L309 552L309 553L309 554L309 555L309 556L309 557L309 558L309 559L309 560L309 561L309 562L309 563L309 564L309 565L309 566L309 567L309 568L309 569L309 570L309 571L309 578L311 578L311 576L311 572L311 571L311 570L311 569L311 568L311 567L311 566L311 565L311 564L311 563L311 562L311 561L311 560L311 559L311 558L311 557L311 556L311 555L311 554L311 553L311 552L311 551L311 550L311 549L311 548L311 547L311 546L311 545L311 544L311 543L311 542L311 541L311 534L318 534L318 538L318 539L318 540L318 541L318 542L318 543L318 544L318 545L318 546L318 547L318 548L318 549L318 550L318 551L318 552L318 553L318 554L318 555L318 556L318 557L318 558L318 559L318 560L318 561L318 562L318 563L318 564L318 565L318 566L318 567L318 568L318 569L318 570L318 571L318 572L318 573L318 578L324 578L324 574L324 573L324 572L324 571L324 570L324 569L324 568L324 567L324 566L324 565L324 564L324 563L324 562L324 561L324 560L324 559L324 558L324 557L324 556L324 555L324 554L324 553L324 552L324 551L324 550L324 549L324 548L324 547L324 546L324 545L324 544L324 543L324 542L324 541L324 540L324 539L324 534L325 534L325 537L325 541L325 542L325 543L325 544L325 545L325 546L325 547L325 548L325 549L325 550L325 551L325 552L325 553L325 554L325 555L325 556L325 557L325 558L325 559L325 560L325 561L325 562L325 563L325 564L325 565L325 566L325 567L325 568L325 569L325 570L325 571L325 572L325 578L327 578L327 576L327 572L327 571L327 570L327 569L327 568L327 567L327 566L327 565L327 564L327 563L327 562L327 561L327 560L327 559L327 558L327 557L327 556L327 555L327 554L327 553L327 552L327 551L327 550L327 549L327 548L327 547L327 546L327 545L327 544L327 543L327 542L327 541L327 534L332 534L332 538L332 539L332 540L332 541L332 542L332 543L332 544L332 545L332 546L332 547L332 548L332 549L332 550L332 551L332 552L332 553L332 557L334 558L334 559L334 563L334 564L334 565L334 566L334 567L334 568L334 569L334 570L334 571L334 572L334 573L334 574L334 575L334 576L334 577L334 578L334 579L334 580L334 581L334 582L334 583L334 584L334 585L334 586L334 587L334 588L334 589L334 590L334 591L334 592L334 593L334 594L334 601L339 601L339 597L339 596L339 595L339 594L339 593L339 592L339 591L339 590L339 584L343 584L344 584L345 584L346 584L347 584L348 584L349 584L350 584L355 584L356 585L355 589L355 592L356 595L355 602L355 603L356 608L360 608L361 608L362 608L363 608L369 608L369 604L369 603L369 602L369 601L369 600L369 599L369 598L369 597L369 596L369 595L369 594L369 593L369 592L369 591L369 590L369 589L369 588L369 587L369 586L369 585L369 584L369 583L369 582L369 581L369 580L369 579L369 578L369 577L369 576L369 575L369 574L369 573L369 572L369 571L369 570L369 569L369 564L374 564L374 568L374 569L374 570L374 571L374 572L374 573L374 574L374 575L374 576L374 577L374 578L374 579L374 580L374 581L374 582L374 583L374 584L374 585L374 586L374 587L374 591L376 591L376 589L376 585L376 584L376 583L376 582L376 581L376 580L376 579L376 578L376 577L376 576L376 575L376 574L376 573L376 572L376 571L376 570L376 564L377 564L377 567L377 571L377 572L377 573L377 574L377 575L377 576L377 577L377 578L377 579L377 580L377 581L377 582L377 583L377 584L377 585L377 586L377 591L381 591L381 587L381 586L381 585L381 584L381 583L381 582L381 581L381 580L381 579L381 578L381 577L381 576L381 575L381 574L381 573L381 572L381 571L381 570L381 569L381 568L381 564L382 564L382 567L382 571L382 572L382 573L382 574L382 575L382 576L382 577L382 578L382 579L382 580L382 581L382 582L382 583L382 584L382 585L382 586L382 591L384 591L384 589L384 585L384 584L384 583L384 582L384 581L384 580L384 579L384 578L384 577L384 576L384 575L384 574L384 573L384 572L384 571L384 570L384 564L387 564L387 565L387 569L387 570L387 571L387 572L387 573L387 574L387 575L387 576L387 577L387 578L387 579L387 580L387 581L387 582L387 583L387 584L387 591L388 591L388 588L388 584L388 583L388 582L388 581L388 580L388 579L388 578L388 577L388 576L388 575L388 574L388 573L388 572L388 571L388 570L388 569L388 564L389 564L389 567L389 571L389 572L389 573L389 574L389 575L389 576L389 577L389 578L389 579L389 580L389 581L389 582L389 583L389 584L389 585L389 586L389 591L390 591L390 588L390 584L390 583L390 582L390 581L390 580L390 579L390 578L390 577L390 576L390 575L390 574L390 573L390 572L390 571L390 570L390 569L390 564L391 564L391 567L391 571L391 572L391 573L391 574L391 575L391 576L391 577L391 578L391 579L391 580L391 581L391 582L391 583L391 584L391 585L391 586L391 591L393 591L393 589L393 585L393 584L393 583L393 582L393 581L393 580L393 579L393 578L393 577L393 576L393 575L393 574L393 573L393 572L393 571L393 570L393 564L394 564L394 567L394 571L394 572L394 573L394 574L394 575L394 576L394 577L394 578L394 579L394 580L394 581L394 582L394 583L394 584L394 585L394 586L394 591L396 591L396 589L396 585L396 584L396 583L396 582L396 581L396 580L396 579L396 578L396 577L396 576L396 575L396 574L396 573L396 572L396 571L396 570L396 564L400 564L400 568L400 569L400 570L400 571L400 572L400 573L400 574L400 575L400 576L400 577L400 578L400 579L400 584L404 584L405 584L406 584L407 584L408 584L409 584L410 584L411 584L412 584L413 584L414 584L415 584L416 584L417 584L418 584L419 584L420 584L421 584L422 584L423 584L431 584L431 588L431 589L431 590L431 591L431 592L431 593L431 594L431 595L431 596L431 597L431 598L431 599L431 600L431 601L431 602L431 603L431 604L431 605L431 606L431 607L431 608L431 609L431 610L431 611L431 612L431 613L431 614L431 615L431 616L431 617L431 618L431 619L431 620L431 621L431 622L431 623L431 628L435 628L436 628L437 628L438 628L439 628L440 628L441 628L442 628L443 628L444 628L445 628L446 628L447 628L448 628L449 628L450 628L451 628L452 628L453 628L454 628L455 628L456 628L457 628L458 628L462 628L462 624L462 623L462 622L462 621L462 620L462 619L462 618L462 617L462 610L467 610L467 606L467 605L467 604L467 603L467 602L467 601L467 600L467 599L467 598L467 597L467 596L467 595L467 594L467 593L467 592L467 591L467 590L467 589L467 588L467 587L467 586L467 585L467 584L467 583L467 582L467 581L467 580L467 579L467 578L467 577L467 576L467 575L467 569L468 569L468 572L468 576L468 577L468 578L468 579L468 580L468 581L468 582L468 583L468 584L468 585L468 586L468 587L468 588L468 589L468 590L468 591L468 592L468 593L468 594L468 595L468 596L468 597L468 598L468 599L468 600L468 601L468 602L468 603L468 610L471 610L471 609L471 605L471 604L471 603L471 602L471 601L471 600L471 599L471 598L471 597L471 596L471 595L471 594L471 593L471 592L471 591L471 590L471 589L471 588L471 587L471 586L471 585L471 584L471 583L471 582L471 581L471 580L471 579L471 578L471 577L471 576L471 575L471 574L471 569L472 569L472 572L472 576L472 577L472 578L472 579L472 580L472 581L472 582L472 583L472 584L472 585L472 586L472 587L472 588L472 589L472 590L472 591L472 592L472 593L472 594L472 595L472 596L472 597L472 598L472 599L472 600L472 601L472 602L472 603L472 610L473 610L473 607L473 603L473 602L473 601L473 600L473 599L473 598L473 597L473 596L473 595L473 594L473 593L473 592L473 591L473 590L473 589L473 588L473 587L473 586L473 585L473 584L473 583L473 582L473 581L473 580L473 579L473 578L473 577L473 576L473 569L474 569L474 572L474 576L474 577L474 578L474 579L474 580L474 581L474 582L474 583L474 584L474 585L474 586L474 587L474 588L474 589L474 590L474 591L474 592L474 593L474 594L474 595L474 596L474 597L474 598L474 599L474 600L474 601L474 602L474 603L474 610L478 610L479 610L480 610L481 610L485 610L485 606L485 605L485 604L485 603L485 602L485 601L485 600L485 599L485 598L485 597L485 596L485 595L485 594L485 593L485 592L485 591L485 590L485 589L485 588L485 587L485 586L485 585L485 584L485 583L485 582L485 581L485 580L485 579L485 578L485 577L485 576L485 575L485 569L486 569L486 572L486 576L486 577L486 578L486 579L486 580L486 581L486 582L486 583L486 584L486 585L486 586L486 587L486 588L486 589L486 590L486 591L486 592L486 593L486 594L486 595L486 596L486 597L486 598L486 599L486 600L486 601L486 602L486 603L486 610L488 610L488 608L488 604L488 603L488 602L488 601L488 600L488 599L488 598L488 597L488 596L488 595L488 594L488 593L488 592L488 591L488 590L488 589L488 588L488 587L488 586L488 585L488 584L488 583L488 582L488 581L488 580L488 579L488 578L488 577L488 576L488 575L488 574L488 573L488 569L489 569L489 572L489 576L489 577L489 578L489 579L489 580L489 581L489 582L489 583L489 584L489 585L489 586L489 587L489 588L489 589L489 590L489 591L489 592L489 593L489 594L489 595L489 596L489 597L489 598L489 599L489 600L489 601L489 602L489 603L489 610L492 610L492 609L492 605L492 604L492 603L492 602L492 601L492 600L492 599L492 598L492 597L492 596L492 595L492 594L492 588L493 588L493 585L493 576L494 576L494 579L494 588L495 588L495 585L495 576L496 576L496 579L496 588L497 588L497 585L497 576L498 576L498 579L498 588L499 588L499 585L499 576L500 576L500 579L500 588L504 588L504 584L504 583L504 582L504 581L504 576L507 576L507 577L507 581L507 582L507 583L507 584L507 588L508 588L508 585L508 576L509 576L509 579L509 588L510 588L510 585L510 576L511 576L511 579L511 588L512 588L512 585L512 576L513 576L513 579L513 588L514 588L514 585L514 576L515 576L515 579L515 588L516 588L516 585L516 576L517 576L517 579L517 588L521 588L521 584L521 583L521 582L521 581L521 576L523 576L523 574L523 570L523 569L523 568L523 567L523 566L523 565L523 564L523 563L523 562L523 561L523 560L523 559L523 558L523 557L523 556L523 555L523 554L523 553L523 552L523 551L523 550L523 549L523 548L523 547L523 546L523 545L523 544L523 543L523 542L523 541L523 540L523 539L523 538L523 537L523 536L523 535L523 529L522 529L521 531L521 535L521 536L521 537L521 538L521 542L517 542L517 538L517 537L517 536L517 535L517 529L516 529L516 532L516 542L515 542L515 539L515 530L514 530L514 533L514 542L513 542L513 539L513 530L512 530L512 533L512 542L511 542L511 539L511 530L510 530L510 533L510 542L509 542L509 539L509 530L508 530L508 533L508 542L507 542L507 539L507 529L504 530L504 534L504 535L504 536L504 537L504 542L500 542L500 538L500 537L500 536L500 535L500 530L499 530L499 533L499 542L498 542L498 539L498 530L497 530L497 533L497 542L496 542L496 539L496 529L495 529L495 532L495 542L494 542L494 539L494 529L493 529L493 532L493 542L492 542L492 545L492 549L492 550L492 551L492 552L492 553L492 554L492 555L492 556L492 563L489 563L489 562L489 558L489 557L489 556L489 555L489 554L489 553L489 552L489 551L489 550L489 549L489 548L489 547L489 546L489 545L489 544L489 543L489 542L489 541L489 540L489 539L489 538L489 537L489 536L489 535L489 534L489 533L489 532L489 531L489 530L489 529L489 528L489 527L489 523L488 523L488 526L488 530L488 531L488 532L488 533L488 534L488 535L488 536L488 537L488 538L488 539L488 540L488 541L488 542L488 543L488 544L488 545L488 546L488 547L488 548L488 549L488 550L488 551L488 552L488 553L488 554L488 555L488 556L488 557L488 563L486 563L486 561L486 557L486 556L486 555L486 554L486 553L486 552L486 551L486 550L486 549L486 548L486 547L486 546L486 545L486 544L486 543L486 542L486 541L486 540L486 539L486 538L486 537L486 536L486 535L486 534L486 533L486 532L486 531L486 530L486 523L485 523L485 526L485 530L485 531L485 532L485 533L485 534L485 535L485 536L485 537L485 538L485 539L485 540L485 541L485 542L485 543L485 544L485 545L485 546L485 547L485 548L485 549L485 550L485 551L485 552L485 553L485 554L485 555L485 556L485 557L485 563L481 563L480 563L479 563L478 563L474 563L474 559L474 558L474 557L474 556L474 555L474 554L474 553L474 552L474 551L474 550L474 549L474 548L474 547L474 546L474 545L474 544L474 543L474 542L474 541L474 540L474 539L474 538L474 537L474 536L474 535L474 534L474 533L474 532L474 531L474 530L474 529L474 528L474 523L473 523L473 526L473 530L473 531L473 532L473 533L473 534L473 535L473 536L473 537L473 538L473 539L473 540L473 541L473 542L473 543L473 544L473 545L473 546L473 547L473 548L473 549L473 550L473 551L473 552L473 553L473 554L473 555L473 556L473 557L473 563L472 563L472 560L472 556L472 555L472 554L472 553L472 552L472 551L472 550L472 549L472 548L472 547L472 546L472 545L472 544L472 543L472 542L472 541L472 540L472 539L472 538L472 537L472 536L472 535L472 534L472 533L472 532L472 531L472 530L472 529L472 523L471 523L471 526L471 530L471 531L471 532L471 533L471 534L471 535L471 536L471 537L471 538L471 539L471 540L471 541L471 542L471 543L471 544L471 545L471 546L471 547L471 548L471 549L471 550L471 551L471 552L471 553L471 554L471 555L471 556L471 557L471 563L468 563L468 562L468 558L468 557L468 556L468 555L468 554L468 553L468 552L468 551L468 550L468 549L468 548L468 547L468 546L468 545L468 544L468 543L468 542L468 541L468 540L468 539L468 538L468 537L468 536L468 535L468 534L468 533L468 532L468 531L468 530L468 529L468 528L468 527L468 523L467 523L467 526L467 530L467 531L467 532L467 533L467 534L467 535L467 536L467 537L467 538L467 539L467 540L467 541L467 542L467 543L467 544L467 545L467 546L467 547L467 548L467 549L467 550L467 551L467 552L467 553L467 554L467 555L467 556L467 557L467 563L462 563L462 567L462 568L462 569L462 570L462 571L462 572L462 573L462 574L462 575L462 576L462 577L462 578L462 582L458 582L457 582L456 582L455 582L454 582L453 582L452 582L451 582L450 582L449 582L448 582L447 582L446 582L445 582L444 582L443 582L442 582L441 582L440 582L439 582L438 582L437 582L436 582L435 582L431 582L431 578L431 577L431 576L431 575L431 574L431 573L431 572L431 571L431 570L431 569L431 568L431 567L431 566L431 565L431 564L431 563L431 562L431 561L431 560L431 559L431 558L431 557L431 556L431 555L431 554L431 553L431 552L431 551L431 550L431 549L431 548L431 547L431 546L431 545L431 544L431 543L431 538L427 538L426 538L425 538L424 538L423 538L422 538L421 538L420 538L419 538L418 538L417 538L416 538L415 538L414 538L413 538L412 538L411 538L410 538L409 538L408 538L407 538L406 538L405 538L404 538L400 538L400 534L400 533L400 532L400 531L400 530L400 529L400 528L400 527L400 526L400 525L400 524L400 523L400 518L396 518L396 522L396 523L396 524L396 525L396 526L396 527L396 528L396 529L396 530L396 531L396 532L396 533L396 534L396 535L396 536L396 537L396 544L394 544L394 542L394 538L394 537L394 536L394 535L394 534L394 533L394 532L394 531L394 530L394 529L394 528L394 527L394 526L394 525L394 524L394 523L394 518L393 518L393 521L393 525L393 526L393 527L393 528L393 529L393 530L393 531L393 532L393 533L393 534L393 535L393 536L393 537L393 538L393 539L393 540L393 544L391 544L391 542L391 538L391 537L391 536L391 535L391 534L391 533L391 532L391 531L391 530L391 529L391 528L391 527L391 526L391 525L391 524L391 523L391 518L390 518L390 521L390 525L390 526L390 527L390 528L390 529L390 530L390 531L390 532L390 533L390 534L390 535L390 536L390 537L390 538L390 539L390 540L390 544L389 544L389 541L389 537L389 536L389 535L389 534L389 533L389 532L389 531L389 530L389 529L389 528L389 527L389 526L389 525L389 524L389 523L389 522L389 518L388 518L388 521L388 525L388 526L388 527L388 528L388 529L388 530L388 531L388 532L388 533L388 534L388 535L388 536L388 537L388 538L388 539L388 540L388 544L387 544L387 541L387 537L387 536L387 535L387 534L387 533L387 532L387 531L387 530L387 529L387 528L387 527L387 526L387 525L387 524L387 523L387 522L387 518L384 518L384 519L384 523L384 524L384 525L384 526L384 527L384 528L384 529L384 530L384 531L384 532L384 533L384 534L384 535L384 536L384 537L384 538L384 544L382 544L382 542L382 538L382 537L382 536L382 535L382 534L382 533L382 532L382 531L382 530L382 529L382 528L382 527L382 526L382 525L382 524L382 523L382 518L381 518L381 521L381 525L381 526L381 527L381 528L381 529L381 530L381 531L381 532L381 533L381 534L381 535L381 536L381 537L381 538L381 539L381 540L381 544L377 544L377 540L377 539L377 538L377 537L377 536L377 535L377 534L377 533L377 532L377 531L377 530L377 529L377 528L377 527L377 526L377 525L377 518L376 518L376 521L376 525L376 526L376 527L376 528L376 529L376 530L376 531L376 532L376 533L376 534L376 535L376 536L376 537L376 538L376 539L376 540L376 544L374 544L374 542L374 538L374 537L374 536L374 535L374 534L374 533L374 532L374 531L374 530L374 529L374 528L374 527L374 526L374 525L374 524L374 523L374 518L369 518L369 522L369 523L369 524L369 525L369 526L369 527L369 528L369 529L369 530L369 531L369 532L369 533L369 534L369 535L369 536L369 537L369 538L369 539L369 540L369 541L369 542L369 543L369 544L369 545L369 546L369 547L369 548L369 549L369 550L369 551L369 552L369 553L369 554L369 555L369 556L369 557L369 561L365 561L364 561L363 561L362 561L356 561L355 560L355 558L355 554L355 553L355 552L355 551L355 550L355 549L355 548L355 547L355 546L355 545L355 544L355 543L355 542L355 541L355 540L355 539L355 538L355 537L355 536L355 535L355 534L355 533L355 532L355 531L355 530L355 529L355 528L355 527L355 526L355 525L355 524L355 523L355 522L355 521L355 520L355 519L355 518L355 517L355 516L355 515L355 514L355 513L355 512L355 511L355 510L355 509L355 508L355 507L355 506L355 505L355 504L355 503L355 502L355 501L355 500L355 499L355 498L355 497L355 496L355 495L355 494L355 493L355 492L355 491L355 490L355 489L355 488L355 487L355 486L355 485L355 484L355 483L355 482L355 481L355 480L355 479L355 478L355 477L355 476L355 475L355 474L355 473L355 472L355 471L355 470L355 469L355 468L355 467L355 466L355 465L355 464L355 463L355 462L355 461L355 460L355 459L355 458L355 457L355 456L355 455L355 454L355 453L355 452L355 451L355 446L356 445L358 445L362 445L363 445L364 445L365 445L369 445L369 441L369 440L369 439L369 438L369 437L369 436L369 435L369 434L369 433L369 432L369 431L369 430L369 429L369 428L369 427L369 426L369 425L369 424L369 423L369 422L369 421L369 420L369 419L369 418L369 417L369 416L369 415L369 414L369 413L369 412L369 411L369 410L369 409L369 408L369 407L369 406L369 402L374 402L374 406L374 407L374 408L374 409L374 410L374 411L374 412L374 413L374 414L374 415L374 416L374 417L374 418L374 419L374 420L374 421L374 428L376 428L376 426L376 422L376 421L376 420L376 419L376 418L376 417L376 416L376 415L376 414L376 413L376 412L376 411L376 410L376 409L376 408L376 407L376 402L377 402L377 405L377 409L377 410L377 411L377 412L377 413L377 414L377 415L377 416L377 417L377 418L377 419L377 420L377 421L377 422L377 423L377 424L377 428L381 428L381 424L381 423L381 422L381 421L381 420L381 419L381 418L381 417L381 416L381 415L381 414L381 413L381 412L381 411L381 410L381 409L381 402L382 402L382 405L382 409L382 410L382 411L382 412L382 413L382 414L382 415L382 416L382 417L382 418L382 419L382 420L382 421L382 422L382 423L382 424L382 428L384 428L384 426L384 422L384 421L384 420L384 419L384 418L384 417L384 416L384 415L384 414L384 413L384 412L384 411L384 410L384 409L384 408L384 407L384 402L387 402L387 403L387 407L387 408L387 409L387 410L387 411L387 412L387 413L387 414L387 415L387 416L387 417L387 418L387 419L387 420L387 421L387 422L387 428L388 428L388 425L388 421L388 420L388 419L388 418L388 417L388 416L388 415L388 414L388 413L388 412L388 411L388 410L388 409L388 408L388 407L388 406L388 402L389 402L389 405L389 409L389 410L389 411L389 412L389 413L389 414L389 415L389 416L389 417L389 418L389 419L389 420L389 421L389 422L389 423L389 424L389 428L390 428L390 425L390 421L390 420L390 419L390 418L390 417L390 416L390 415L390 414L390 413L390 412L390 411L390 410L390 409L390 408L390 407L390 406L390 402L391 402L391 405L391 409L391 410L391 411L391 412L391 413L391 414L391 415L391 416L391 417L391 418L391 419L391 420L391 421L391 422L391 423L391 424L391 428L393 428L393 426L393 422L393 421L393 420L393 419L393 418L393 417L393 416L393 415L393 414L393 413L393 412L393 411L393 410L393 409L393 408L393 407L393 402L394 402L394 405L394 409L394 410L394 411L394 412L394 413L394 414L394 415L394 416L394 417L394 418L394 419L394 420L394 421L394 422L394 423L394 424L394 428L396 428L396 426L396 422L396 421L396 420L396 419L396 418L396 417L396 416L396 415L396 414L396 413L396 412L396 411L396 410L396 409L396 408L396 407L396 402L400 402L400 406L400 407L400 408L400 409L400 410L400 411L400 412L400 413L400 414L400 415L400 416L400 417L400 422L404 422L405 422L406 422L407 422L408 422L409 422L410 422L411 422L412 422L413 422L414 422L415 422L416 422L417 422L418 422L419 422L420 422L421 422L422 422L423 422L424 422L425 422L426 422L427 422L431 422L431 426L431 427L431 428L431 429L431 430L431 431L431 432L431 433L431 434L431 435L431 436L431 437L431 438L431 439L431 440L431 441L431 442L431 443L431 444L431 445L431 446L431 447L431 448L431 449L431 450L431 451L431 452L431 453L431 454L431 455L431 456L431 457L431 458L431 459L431 460L431 461L431 466L435 466L436 466L437 466L438 466L439 466L440 466L441 466L442 466L443 466L444 466L445 466L446 466L447 466L448 466L449 466L450 466L451 466L452 466L453 466L454 466L455 466L456 466L457 466L458 466L462 466L462 462L462 461L462 460L462 459L462 458L462 457L462 456L462 455L462 454L462 453L462 452L462 451L462 447L467 447L467 443L467 442L467 441L467 440L467 439L467 438L467 437L467 436L467 435L467 434L467 433L467 432L467 431L467 430L467 429L467 428L467 427L467 426L467 425L467 424L467 423L467 422L467 421L467 420L467 419L467 418L467 417L467 416L467 415L467 414L467 413L467 412L467 407L468 407L468 410L468 414L468 415L468 416L468 417L468 418L468 419L468 420L468 421L468 422L468 423L468 424L468 425L468 426L468 427L468 428L468 429L468 430L468 431L468 432L468 433L468 434L468 435L468 436L468 437L468 438L468 439L468 440L468 441L468 447L471 447L471 446L471 442L471 441L471 440L471 439L471 438L471 437L471 436L471 435L471 434L471 433L471 432L471 431L471 430L471 429L471 428L471 427L471 426L471 425L471 424L471 423L471 422L471 421L471 420L471 419L471 418L471 417L471 416L471 415L471 414L471 413L471 412L471 411L471 407L472 407L472 410L472 414L472 415L472 416L472 417L472 418L472 419L472 420L472 421L472 422L472 423L472 424L472 425L472 426L472 427L472 428L472 429L472 430L472 431L472 432L472 433L472 434L472 435L472 436L472 437L472 438L472 439L472 440L472 441L472 447L473 447L473 444L473 440L473 439L473 438L473 437L473 436L473 435L473 434L473 433L473 432L473 431L473 430L473 429L473 428L473 427L473 426L473 425L473 424L473 423L473 422L473 421L473 420L473 419L473 418L473 417L473 416L473 415L473 414L473 413L473 407L474 407L474 410L474 414L474 415L474 416L474 417L474 418L474 419L474 420L474 421L474 422L474 423L474 424L474 425L474 426L474 427L474 428L474 429L474 430L474 431L474 432L474 433L474 434L474 435L474 436L474 437L474 438L474 439L474 440L474 441L474 447L478 447L479 447L480 447L481 447L485 447L485 443L485 442L485 441L485 440L485 439L485 438L485 437L485 436L485 435L485 434L485 433L485 432L485 431L485 430L485 429L485 428L485 427L485 426L485 425L485 424L485 423L485 422L485 421L485 420L485 419L485 418L485 417L485 416L485 415L485 414L485 413L485 412L485 407L486 407L486 410L486 414L486 415L486 416L486 417L486 418L486 419L486 420L486 421L486 422L486 423L486 424L486 425L486 426L486 427L486 428L486 429L486 430L486 431L486 432L486 433L486 434L486 435L486 436L486 437L486 438L486 439L486 440L486 441L486 447L488 447L488 445L488 441L488 440L488 439L488 438L488 437L488 436L488 435L488 434L488 433L488 432L488 431L488 430L488 429L488 428L488 427L488 426L488 425L488 424L488 423L488 422L488 421L488 420L488 419L488 418L488 417L488 416L488 415L488 414L488 407L489 407L489 410L489 414L489 415L489 416L489 417L489 418L489 419L489 420L489 421L489 422L489 423L489 424L489 425L489 426L489 427L489 428L489 429L489 430L489 431L489 432L489 433L489 434L489 435L489 436L489 437L489 438L489 439L489 440L489 441L489 447L492 447L492 446L492 442L492 441L492 440L492 439L492 438L492 437L492 436L492 435L492 434L492 433L492 432L492 431L492 426L493 426L493 423L493 413L494 413L494 416L494 426L495 426L495 423L495 413L496 413L496 416L496 426L497 426L497 423L497 413L498 413L498 416L498 426L499 426L499 423L499 413L500 413L500 416L500 426L504 426L504 422L504 421L504 420L504 419L504 413L507 413L507 414L507 418L507 419L507 420L507 421L507 426L508 426L508 423L508 413L509 413L509 416L509 426L510 426L510 423L510 413L511 413L511 416L511 426L512 426L512 423L512 413L513 413L513 416L513 426L514 426L514 423L514 413L515 413L515 416L515 426L516 426L516 423L516 413L517 413L517 416L517 426L521 426L521 422L521 421L521 420L521 419L521 413L523 413L523 411L523 407L523 406L523 405L523 404L523 403L523 402L523 401L523 400L523 399L523 398L523 397L523 396L523 395L523 394L523 393L523 392L523 391L523 390L523 389L523 388L523 387L523 386L523 385L523 384L523 383L523 382L523 381L523 380L523 379L523 378L523 377L523 376L523 375L523 374L523 373L523 372L523 367L521 367L521 369L521 379L517 379L517 375L517 374L517 373L517 372L517 367L516 367L516 370L516 379L515 379L515 376L515 367L514 367L514 370L514 379L513 379L513 376L513 367L512 367L512 370L512 379L511 379L511 376L511 367L510 367L510 370L510 379L509 379L509 376L509 367L508 367L508 370L508 379L507 379L507 376L507 367L504 367L504 368L504 372L504 373L504 374L504 375L504 379L500 379L500 375L500 374L500 373L500 372L500 367L499 367L499 370L499 379L498 379L498 376L498 367L497 367L497 370L497 379L496 379L496 376L496 367L495 367L495 370L495 379L494 379L494 376L494 367L493 367L493 370L493 379L492 379L492 382L492 386L492 387L492 388L492 389L492 390L492 391L492 392L492 393L492 400L489 400L489 399L489 395L489 394L489 393L489 392L489 391L489 390L489 389L489 388L489 387L489 386L489 385L489 384L489 383L489 382L489 381L489 380L489 379L489 378L489 377L489 376L489 375L489 374L489 373L489 372L489 371L489 370L489 369L489 368L489 367L489 366L489 365L489 364L489 360L488 360L488 363L488 367L488 368L488 369L488 370L488 371L488 372L488 373L488 374L488 375L488 376L488 377L488 378L488 379L488 380L488 381L488 382L488 383L488 384L488 385L488 386L488 387L488 388L488 389L488 390L488 391L488 392L488 393L488 394L488 400L486 400L486 398L486 394L486 393L486 392L486 391L486 390L486 389L486 388L486 387L486 386L486 385L486 384L486 383L486 382L486 381L486 380L486 379L486 378L486 377L486 376L486 375L486 374L486 373L486 372L486 371L486 370L486 369L486 368L486 367L486 360L485 360L485 363L485 367L485 368L485 369L485 370L485 371L485 372L485 373L485 374L485 375L485 376L485 377L485 378L485 379L485 380L485 381L485 382L485 383L485 384L485 385L485 386L485 387L485 388L485 389L485 390L485 391L485 392L485 393L485 394L485 400L481 400L480 400L479 400L478 400L474 400L474 396L474 395L474 394L474 393L474 392L474 391L474 390L474 389L474 388L474 387L474 386L474 385L474 384L474 383L474 382L474 381L474 380L474 379L474 378L474 377L474 376L474 375L474 374L474 373L474 372L474 371L474 370L474 369L474 368L474 367L474 366L474 365L474 360L473 360L473 363L473 367L473 368L473 369L473 370L473 371L473 372L473 373L473 374L473 375L473 376L473 377L473 378L473 379L473 380L473 381L473 382L473 383L473 384L473 385L473 386L473 387L473 388L473 389L473 390L473 391L473 392L473 393L473 394L473 400L472 400L472 397L472 393L472 392L472 391L472 390L472 389L472 388L472 387L472 386L472 385L472 384L472 383L472 382L472 381L472 380L472 379L472 378L472 377L472 376L472 375L472 374L472 373L472 372L472 371L472 370L472 369L472 368L472 367L472 366L472 360L471 360L471 363L471 367L471 368L471 369L471 370L471 371L471 372L471 373L471 374L471 375L471 376L471 377L471 378L471 379L471 380L471 381L471 382L471 383L471 384L471 385L471 386L471 387L471 388L471 389L471 390L471 391L471 392L471 393L471 394L471 400L468 400L468 399L468 395L468 394L468 393L468 392L468 391L468 390L468 389L468 388L468 387L468 386L468 385L468 384L468 383L468 382L468 381L468 380L468 379L468 378L468 377L468 376L468 375L468 374L468 373L468 372L468 371L468 370L468 369L468 368L468 367L468 366L468 365L468 364L468 360L467 360L467 363L467 367L467 368L467 369L467 370L467 371L467 372L467 373L467 374L467 375L467 376L467 377L467 378L467 379L467 380L467 381L467 382L467 383L467 384L467 385L467 386L467 387L467 388L467 389L467 390L467 391L467 392L467 393L467 394L467 400L462 400L462 404L462 405L462 406L462 407L462 408L462 409L462 410L462 411L462 412L462 413L462 414L462 415L462 419L458 419L457 419L456 419L455 419L454 419L453 419L452 419L451 419L450 419L449 419L448 419L447 419L446 419L445 419L444 419L443 419L442 419L441 419L440 419L439 419L438 419L437 419L436 419L435 419L431 419L431 415L431 414L431 413L431 412L431 411L431 410L431 409L431 408L431 407L431 406L431 405L431 404L431 403L431 402L431 401L431 400L431 399L431 398L431 397L431 396L431 395L431 394L431 393L431 392L431 391L431 390L431 389L431 388L431 387L431 386L431 385L431 384L431 383L431 382L431 381L431 380L431 375L427 375L426 375L425 375L424 375L423 375L422 375L421 375L420 375L419 375L418 375L417 375L416 375L415 375L414 375L413 375L412 375L411 375L410 375L409 375L408 375L407 375L406 375L405 375L404 375L400 375L400 371L400 370L400 369L400 368L400 367L400 366L400 365L400 364L400 363L400 362L400 361L400 360L400 355L396 355L396 359L396 360L396 361L396 362L396 363L396 364L396 365L396 366L396 367L396 368L396 369L396 370L396 371L396 372L396 373L396 374L396 381L394 381L394 379L394 375L394 374L394 373L394 372L394 371L394 370L394 369L394 368L394 367L394 366L394 365L394 364L394 363L394 362L394 361L394 360L394 355L393 355L393 358L393 362L393 363L393 364L393 365L393 366L393 367L393 368L393 369L393 370L393 371L393 372L393 373L393 374L393 375L393 376L393 377L393 381L391 381L391 379L391 375L391 374L391 373L391 372L391 371L391 370L391 369L391 368L391 367L391 366L391 365L391 364L391 363L391 362L391 361L391 360L391 355L390 355L390 358L390 362L390 363L390 364L390 365L390 366L390 367L390 368L390 369L390 370L390 371L390 372L390 373L390 374L390 375L390 376L390 377L390 381L389 381L389 378L389 374L389 373L389 372L389 371L389 370L389 369L389 368L389 367L389 366L389 365L389 364L389 363L389 362L389 361L389 360L389 359L389 355L388 355L388 358L388 362L388 363L388 364L388 365L388 366L388 367L388 368L388 369L388 370L388 371L388 372L388 373L388 374L388 375L388 376L388 377L388 381L387 381L387 378L387 374L387 373L387 372L387 371L387 370L387 369L387 368L387 367L387 366L387 365L387 364L387 363L387 362L387 361L387 360L387 359L387 355L384 355L384 356L384 360L384 361L384 362L384 363L384 364L384 365L384 366L384 367L384 368L384 369L384 370L384 371L384 372L384 373L384 374L384 375L384 381L382 381L382 379L382 375L382 374L382 373L382 372L382 371L382 370L382 369L382 368L382 367L382 366L382 365L382 364L382 363L382 362L382 361L382 360L382 355L381 355L381 358L381 362L381 363L381 364L381 365L381 366L381 367L381 368L381 369L381 370L381 371L381 372L381 373L381 374L381 375L381 376L381 377L381 381L377 381L377 377L377 376L377 375L377 374L377 373L377 372L377 371L377 370L377 369L377 368L377 367L377 366L377 365L377 364L377 363L377 362L377 355L376 355L376 358L376 362L376 363L376 364L376 365L376 366L376 367L376 368L376 369L376 370L376 371L376 372L376 373L376 374L376 375L376 376L376 377L376 381L374 381L374 379L374 375L374 374L374 373L374 372L374 371L374 370L374 369L374 368L374 367L374 366L374 365L374 364L374 363L374 362L374 361L374 360L374 355L369 355M542 428L542 432L542 433L542 434L542 435L542 436L542 437L542 438L542 439L542 440L542 441L542 442L542 443L542 444L542 445L542 446L542 447L542 448L542 449L542 450L542 451L542 456L541 456L541 453L541 449L541 448L541 447L541 446L541 445L541 444L541 443L541 442L541 441L541 440L541 439L541 438L541 437L541 436L541 435L541 434L542 428M542 457L542 460L541 460L541 459L541 458L542 457z"/>
</svg>
