<?xml version="1.0" standalone="yes"?>
<svg width="900" height="900">
<path style="fill:#040404; stroke:none;" d="M310 133C307.386 141.842 309 152.805 309 162C309 186.015 311.976 212.236 308.572 236C304.74 262.748 292.73 287.962 285.884 314C272.18 366.124 269.847 421.53 291.427 472C303.586 500.434 322.014 523.538 344 544.985C355.508 556.211 372.002 565.363 379.597 580C389.93 599.913 356.743 615.41 344 624L344 625C400.776 632.175 457.861 627.393 507 594.997C519.73 586.604 531.953 577.51 543 566.961C553.602 556.836 569.046 535.981 585 535.279C590.007 535.058 594.609 538.016 599 540C602.047 523.59 602.088 505.523 600 489L612 501C611.337 485.564 608.708 469.722 604 455L620 472C612.6 433.845 595.628 397.763 567.999 370C555.73 357.672 542.324 347.203 529 336.08C522.324 330.508 513.985 323.912 511.829 315C508.464 301.094 528.331 288.967 538 283L538 282L493 281L493 280L511 268L471 272L494 257L494 256C458.83 256.023 422.827 267.79 391 281.862C365.575 293.103 344.317 308.726 316 301C328.619 274.339 348.194 244.939 354.331 216C359.747 190.462 355 159.126 355 133C341.836 135.444 323.054 136.108 310 133M445 291C435.379 304.67 406.881 329.41 418.09 348.999C422.617 356.911 430.531 357.751 438.715 358.174C454.231 358.976 469.542 357.842 485 360.435C526.511 367.399 573.71 397.335 586 440C575.764 434.637 563.627 430.673 556.533 443.004C548.454 457.046 549.887 477.489 545.576 493C534.705 532.108 508.731 570.87 470 587C474.699 575.769 486.388 558.41 471.96 548.995C465.046 544.483 456.735 545.627 449 544.714C431.635 542.666 415.033 542.722 398 537.706C338.567 520.203 298 460.18 298 399C303.312 401.628 307.725 405.264 314 404.891C331.57 403.846 343.751 372.443 352.745 360C375.693 328.255 407.59 303.193 445 291z"/>
</svg>
