<?xml version="1.0" standalone="no"?>
            <!DOCTYPE svg PUBLIC "-//W3C//DTD SVG 1.1//EN" "http://www.w3.org/Graphics/SVG/1.1/DTD/svg11.dtd" >
            <svg xmlns="http://www.w3.org/2000/svg">
            <metadata>
                Copyright : Etienne Ozeray et Lucas Leujeune, Brussels 2014
                </metadata>
            <defs><font id="Beta" horiz-adv-x="800" ><font-face font-family="Beta" font-weight="regular" units-per-em="900" x-height="282" ascent="431" descent="-150" /><missing-glyph horiz-adv-x="800" /><glyph unicode=" " horiz-adv-x="800" /><glyph unicode="&#x09;" horiz-adv-x="800" /><glyph unicode="&#xa0;" horiz-adv-x="800" /><glyph unicode="a" horiz-adv-x="800" d="M512 311L512 358L510.397 375.397L499 377L469 377L347 377L347 442L328 442L328 377L305 377L305 442L275 442L275 450L305 450L305 460L328 460L328 450L347 450L347 460L469 460L499 460C502.306 460 507.812 459.019 510.397 461.603C515.546 466.753 512 487.926 512 495L512 592L542 592L542 311L512 311M573 311L573 592L584 592L584 311L573 311M328 442L328 450L305 450L305 442L328 442M512 442L512 450L347 450L347 442L512 442M275 461L275 592L305 592L305 461L275 461M328 461L328 592L347 592L347 461L328 461z"/>

<glyph unicode="b" horiz-adv-x="800" d="M275 161L275 173L305 173L305 161L275 161M328 161L328 173L347 173L347 161L328 161M275 180L275 592L305 592L305 180L275 180M328 180L328 592L347 592L347 180L328 180M512 311L512 592L542 592L542 311L512 311M573 311L573 592L584 592L584 311L573 311z"/>

<glyph unicode="c" horiz-adv-x="800" d="M275 311L275 592L305 592L305 311L275 311M328 311L328 592L347 592L347 311L328 311M512 311L512 376L542 376L542 311L512 311M573 311L573 376L584 376L584 311L573 311M512 527L512 592L542 592L542 527L512 527M573 527L573 592L584 592L584 527L573 527z"/>

<glyph unicode="d" horiz-adv-x="800" d="M512 161L512 173L542 173L542 161L512 161M573 161L573 173L584 173L584 161L573 161M512 180L512 592L542 592L542 180L512 180M573 180L573 592L584 592L584 180L573 180M275 311L275 592L305 592L305 311L275 311M328 311L328 592L347 592L347 311L328 311z"/>

<glyph unicode="e" horiz-adv-x="800" d="M275 311L275 592L305 592L305 311L275 311M328 311L328 592L347 592L347 311L328 311M512 311L512 442L542 442L542 311L512 311M573 311L573 442L584 442L584 311L573 311M512 450L512 460L542 460L542 450L512 450M573 450L573 460L584 460L584 450L573 450M512 527L512 592L542 592L542 527L512 527M573 527L573 592L584 592L584 527L573 527z"/>

<glyph unicode="f" horiz-adv-x="800" d="M378 161L378 173L409 173L409 161L378 161M378 180L378 592L409 592L409 180L378 180z"/>

<glyph unicode="g" horiz-adv-x="800" d="M275 311L275 592L305 592L305 311L275 311M328 311L328 592L347 592L347 311L328 311M512 311L512 657L332 657L332 672L512 672C509.39 676.733 504.902 676 500 676L468 676L332 676L332 722L527 722L527 676L542 676L542 672L527 672L527 657L542 657L542 311L512 311M573 311L573 657L584 657L584 311L573 311M290 657L290 672L328 672L328 657L290 657M573 672L573 676L584 676L584 672L573 672M290 676L290 722L328 722L328 676L290 676M290 728L290 741L328 741L328 728L290 728M332 728L332 741L527 741L527 728L332 728z"/>

<glyph unicode="h" horiz-adv-x="800" d="M275 161L275 173L305 173L305 161L275 161M328 161L328 173L347 173L347 161L328 161M275 180L275 592L305 592L305 180L275 180M328 180L328 592L347 592L347 180L328 180M512 311L512 592L542 592L542 311L512 311M573 311L573 592L584 592L584 311L573 311z"/>

<glyph unicode="i" horiz-adv-x="800" d="M393 161L393 173L424 173L424 161L393 161M450 161L450 173L466 173L466 161L450 161M393 180L393 227L424 227L424 180L393 180M450 180L450 227L466 227L466 180L450 180M393 229L393 246L424 246L424 229L393 229M450 229L450 246L466 246L466 229L450 229M393 311L393 592L424 592L424 311L393 311M450 311L450 592L466 592L466 311L450 311z"/>

<glyph unicode="j" horiz-adv-x="800" d="M497 161L497 173L527 173L527 161L497 161M497 180L497 227L527 227L527 180L497 180M497 229L497 246L527 246L527 229L497 229M497 311L497 657L362 657L362 592L332 592L332 657L347 657L347 672L332 672L332 676L347 676L347 722L511 722L511 676L527 676L527 672L511 672L511 657L527 657L527 311L497 311M290 592L290 657L305 657L305 672L290 672L290 676L305 676L305 722L328 722L328 676L321 676L321 672L328 672L328 657L321 657L321 592L290 592M497 672C494.483 679.584 471.994 676 465 676L362 676L362 672L497 672M305 728L305 741L328 741L328 728L305 728M347 728L347 741L511 741L511 728L347 728z"/>

<glyph unicode="k" horiz-adv-x="800" d="M275 161L275 173L305 173L305 161L275 161M328 161L328 173L347 173L347 161L328 161M275 180L275 592L305 592L305 180L275 180M328 180L328 592L347 592L347 180L328 180M424 311L424 376L450 376L450 311L424 311M466 311L466 376L496 376L496 311L466 311M378 377L378 526L409 526L409 377L378 377M424 527L424 592L450 592L450 527L424 527M466 527L466 592L496 592L496 527L466 527z"/>

<glyph unicode="l" horiz-adv-x="800" d="M393 161L393 173L424 173L424 161L393 161M450 161L450 173L466 173L466 161L450 161M393 180L393 592L424 592L424 180L393 180M450 180L450 592L466 592L466 180L450 180z"/>

<glyph unicode="m" horiz-adv-x="800" d="M275 311L275 592L305 592L305 311L275 311M328 311L328 592L347 592L347 311L328 311M393 311L393 592L424 592L424 311L393 311M450 311L450 592L466 592L466 311L450 311M512 311L512 592L542 592L542 311L512 311M573 311L573 592L584 592L584 311L573 311z"/>

<glyph unicode="n" horiz-adv-x="800" d="M275 311L275 592L305 592L305 311L275 311M328 311L328 592L347 592L347 311L328 311M512 311L512 592L542 592L542 311L512 311M573 311L573 592L584 592L584 311L573 311z"/>

<glyph unicode="o" horiz-adv-x="800" d="M275 311L275 592L305 592L305 311L275 311M328 311L328 592L347 592L347 311L328 311M512 311L512 592L542 592L542 311L512 311M573 311L573 592L584 592L584 311L573 311z"/>

<glyph unicode="p" horiz-adv-x="800" d="M275 311L275 722L305 722L305 311L275 311M328 311L328 722L347 722L347 311L328 311M512 311L512 592L542 592L542 311L512 311M573 311L573 592L584 592L584 311L573 311M275 728L275 741L305 741L305 728L275 728M328 728L328 741L347 741L347 728L328 728z"/>

<glyph unicode="q" horiz-adv-x="800" d="M275 311L275 592L305 592L305 311L275 311M328 311L328 592L347 592L347 311L328 311M512 311L512 722L542 722L542 311L512 311M573 311L573 722L584 722L584 311L573 311M512 728L512 741L542 741L542 728L512 728M573 728L573 741L584 741L584 728L573 728z"/>

<glyph unicode="r" horiz-adv-x="800" d="M275 311L275 592L305 592L305 311L275 311M321 311L321 376C328.879 376.601 328 382.547 328 389L328 427L328 592L347 592L347 311L321 311M362 311L362 376L393 376L393 311L362 311z"/>

<glyph unicode="s" horiz-adv-x="800" d="M275 311L275 442L305 442L305 311L275 311M328 311L328 442L347 442L347 311L328 311M512 311L512 376L542 376L542 311L512 311M573 311L573 376L584 376L584 311L573 311M512 442L512 450L542 450L542 442L512 442M573 442L573 450L584 450L584 442L573 442M275 450L275 460L305 460L305 450L275 450M328 450L328 460L347 460L347 450L328 450M512 461L512 592L542 592L542 461L512 461M573 461L573 592L584 592L584 461L573 461M275 527L275 592L305 592L305 527L275 527M328 527L328 592L347 592L347 527L328 527z"/>

<glyph unicode="t" horiz-adv-x="800" d="M378 161L378 173L409 173L409 161L378 161M378 180L378 592L409 592L409 180L378 180z"/>

<glyph unicode="u" horiz-adv-x="800" d="M275 311L275 592L305 592L305 311L275 311M328 311L328 592L347 592L347 311L328 311M512 311L512 592L542 592L542 311L512 311M573 311L573 592L584 592L584 311L573 311z"/>

<glyph unicode="v" horiz-adv-x="800" d="M275 311L275 376L290 376L290 442L305 442L305 450L290 450L290 460L305 460L305 526L321 526L321 592L328 592L328 461L321 461L321 450L328 450L328 442L321 442L321 377L306.603 375.397L305 358L305 311L275 311M328 311L328 376C333.8 379.198 332 387.193 332 393L332 442L347 442L347 450L332 450L332 460L347 460L347 526L362 526L362 592L393 592L393 527L378 527L378 461C367.77 461 362.009 461.808 362 450L378 450L378 442L362 442L362 377L348.603 375.397L347 358L347 311L328 311M512 311L512 358L510.397 375.397L497 377L497 424L495.397 440.397L481 442L481 450L497 450C496.991 461.808 491.23 461 481 461L481 508L479.397 525.397L466 527L466 592L496 592L496 545L497.603 527.603L511 526L511 479L512.603 461.603L527 460L527 450L511 450L511 442L527 442L527 395L528.603 377.603L542 376L542 311L512 311M573 311L573 376L584 376L584 311L573 311M440 442L440 450L450 450L450 442L440 442M440 461L440 508L438.397 525.397L424 527L424 592L450 592L450 461L440 461z"/>

<glyph unicode="w" horiz-adv-x="800" d="M275 311L275 592L305 592L305 311L275 311M328 311L328 592L347 592L347 311L328 311M512 311L512 592L542 592L542 311L512 311M573 311L573 592L584 592L584 311L573 311M393 377L393 592L424 592L424 377L393 377M450 377L450 592L466 592L466 377L450 377z"/>

<glyph unicode="x" horiz-adv-x="800" d="M275 311L275 376L305 376L305 311L275 311M328 311L328 376L347 376L347 311L328 311M512 311L512 376L542 376L542 311L512 311M573 311L573 376L584 376L584 311L573 311M321 377L321 526L328 526L328 377L321 377M362 377L362 526L393 526L393 377L362 377M424 377L424 526L450 526L450 377L424 377M466 377L466 526L496 526L496 377L466 377M275 527L275 592L305 592L305 527L275 527M328 527L328 592L347 592L347 527L328 527M512 527L512 592L542 592L542 527L512 527M573 527L573 592L584 592L584 527L573 527z"/>

<glyph unicode="y" horiz-adv-x="800" d="M275 311L275 592L305 592L305 311L275 311M328 311L328 592L347 592L347 311L328 311M512 311L512 657L332 657L332 672L512 672C509.39 676.733 504.902 676 500 676L468 676L332 676L332 722L527 722L527 676L542 676L542 672L527 672L527 657L542 657L542 311L512 311M573 311L573 657L584 657L584 311L573 311M290 657L290 672L328 672L328 657L290 657M573 672L573 676L584 676L584 672L573 672M290 676L290 722L328 722L328 676L290 676M290 728L290 741L328 741L328 728L290 728M332 728L332 741L527 741L527 728L332 728z"/>

<glyph unicode="z" horiz-adv-x="800" d="M497 311L497 376L527 376L527 311L497 311M409 377L409 442L439 442L439 377L409 377M450 377L450 442L481 442L481 377L450 377M321 442L321 450L328 450L328 442L321 442M362 442L362 450L393 450L393 442L362 442M409 450L409 460L439 460L439 450L409 450M450 450L450 460L481 460L481 450L450 450M321 461L321 526L328 526L328 461L321 461M362 461L362 526L393 526L393 461L362 461M275 527L275 592L305 592L305 527L275 527M328 527L328 592L347 592L347 527L328 527z"/>

</font>
</defs>
</svg>
