<?xml version="1.0" standalone="yes"?>
<svg width="900" height="900">
<path style="fill:#040404; stroke:none;" d="M497 161L497 173L527 173L527 161L497 161M497 180L497 227L527 227L527 180L497 180M497 229L497 246L527 246L527 229L497 229M497 311L497 657L362 657L362 592L332 592L332 657L347 657L347 672L332 672L332 676L347 676L347 722L511 722L511 676L527 676L527 672L511 672L511 657L527 657L527 311L497 311M290 592L290 657L305 657L305 672L290 672L290 676L305 676L305 722L328 722L328 676L321 676L321 672L328 672L328 657L321 657L321 592L290 592M497 672C494.483 679.584 471.994 676 465 676L362 676L362 672L497 672M305 728L305 741L328 741L328 728L305 728M347 728L347 741L511 741L511 728L347 728z"/>
</svg>
