<?xml version="1.0" standalone="yes"?>
<svg width="900" height="900">
<path style="fill:#040404; stroke:none;" d="M275 311L275 592L305 592L305 311L275 311M328 311L328 592L347 592L347 311L328 311M512 311L512 657L332 657L332 672L512 672C509.39 676.733 504.902 676 500 676L468 676L332 676L332 722L527 722L527 676L542 676L542 672L527 672L527 657L542 657L542 311L512 311M573 311L573 657L584 657L584 311L573 311M290 657L290 672L328 672L328 657L290 657M573 672L573 676L584 676L584 672L573 672M290 676L290 722L328 722L328 676L290 676M290 728L290 741L328 741L328 728L290 728M332 728L332 741L527 741L527 728L332 728z"/>
</svg>
