<?xml version="1.0" standalone="yes"?>
<svg width="900" height="900">
<path style="fill:#020202; stroke:none;" d="M275 311L275 442L305 442L305 311L275 311M328 311L328 442L347 442L347 311L328 311M512 311L512 376L542 376L542 311L512 311M573 311L573 376L584 376L584 311L573 311M512 442L512 450L542 450L542 442L512 442M573 442L573 450L584 450L584 442L573 442M275 450L275 460L305 460L305 450L275 450M328 450L328 460L347 460L347 450L328 450M512 461L512 592L542 592L542 461L512 461M573 461L573 592L584 592L584 461L573 461M275 527L275 592L305 592L305 527L275 527M328 527L328 592L347 592L347 527L328 527z"/>
</svg>
