<?xml version="1.0" standalone="yes"?>
<svg width="900" height="900">
<path style="fill:#070707; stroke:none;" d="M497 311L497 376L527 376L527 311L497 311M409 377L409 442L439 442L439 377L409 377M450 377L450 442L481 442L481 377L450 377M321 442L321 450L328 450L328 442L321 442M362 442L362 450L393 450L393 442L362 442M409 450L409 460L439 460L439 450L409 450M450 450L450 460L481 460L481 450L450 450M321 461L321 526L328 526L328 461L321 461M362 461L362 526L393 526L393 461L362 461M275 527L275 592L305 592L305 527L275 527M328 527L328 592L347 592L347 527L328 527z"/>
</svg>
