<?xml version="1.0" standalone="yes"?>
<svg width="900" height="900">
<path style="fill:#0b0b0b; stroke:none;" d="M215 266L214 269L214 273L214 274L214 275L214 276L214 277L214 278L214 279L214 280L214 281L214 282L214 283L214 284L214 285L214 286L214 287L214 288L214 289L214 290L214 291L214 292L214 293L214 294L214 295L214 296L214 297L214 298L214 299L214 300L214 301L214 302L214 303L214 304L214 305L214 306L214 307L214 308L214 309L214 310L214 311L214 312L214 313L214 314L214 315L214 316L214 317L214 318L214 319L214 320L214 321L214 322L214 323L214 324L214 325L214 326L214 327L214 328L214 334L213 334L213 337L213 341L213 342L213 343L213 344L213 345L213 346L213 347L213 348L213 349L213 350L213 351L213 352L213 353L213 354L213 355L213 356L213 357L213 358L213 359L213 360L213 361L213 362L213 363L213 364L213 365L213 366L213 367L213 368L213 369L213 370L213 371L213 372L213 373L213 374L213 375L213 376L213 377L213 378L213 379L213 380L213 381L213 382L213 383L213 384L213 385L213 386L213 387L213 388L213 389L213 390L213 391L213 392L213 393L213 394L213 395L213 396L213 403L214 403L214 400L214 396L214 395L214 394L214 393L214 392L214 391L214 390L214 389L214 388L214 387L214 386L214 385L214 384L214 383L214 382L214 381L214 380L214 379L214 378L214 377L214 376L214 375L214 374L214 373L214 372L214 371L214 370L214 369L214 368L214 367L214 366L214 365L214 364L214 363L214 362L214 361L214 360L214 359L214 358L214 357L214 356L214 355L214 354L214 353L214 352L214 351L214 350L214 349L214 348L214 347L214 346L214 345L214 344L214 343L214 342L214 341L214 334L216 334L216 332L216 328L216 327L216 326L216 325L216 324L216 323L216 322L216 321L216 320L216 319L216 318L216 317L216 316L216 315L216 314L216 313L216 312L216 311L216 310L216 309L216 308L216 307L216 306L216 305L216 304L216 303L216 302L216 301L216 300L216 299L216 298L216 297L216 296L216 295L216 294L216 293L216 292L216 291L216 290L216 289L216 288L216 287L216 286L216 285L216 284L216 283L216 282L216 281L216 280L216 279L216 278L216 277L216 276L216 275L216 274L216 273L215 266M264 266L264 270L264 271L264 272L264 273L264 274L264 275L264 276L264 277L264 278L264 279L264 280L264 281L264 282L264 283L264 284L264 285L264 286L264 287L264 288L264 289L264 290L264 291L264 292L264 293L264 294L264 295L264 296L264 297L264 298L264 299L264 300L264 301L264 302L264 303L264 304L264 305L264 306L264 307L264 308L264 309L264 310L264 311L264 312L264 313L264 314L264 315L264 316L264 317L264 318L264 319L264 320L264 321L264 322L264 323L264 324L264 325L264 326L264 327L264 328L264 329L264 335L265 335L266 333L266 329L266 328L266 327L266 326L266 325L266 324L266 323L266 322L266 321L266 320L266 319L266 318L266 317L266 316L266 315L266 314L266 313L266 312L266 311L266 310L266 309L266 308L266 307L266 306L266 305L266 304L266 303L266 302L266 301L266 300L266 299L266 298L266 297L266 296L266 295L266 294L266 293L266 292L266 291L266 290L266 289L266 288L266 287L266 286L266 285L266 284L266 283L266 282L266 281L266 280L266 279L266 278L266 277L266 276L266 275L266 274L264 266M285 266L285 270L285 271L285 272L285 273L285 274L285 275L285 276L285 277L285 278L285 279L285 280L285 281L285 282L285 283L285 284L285 285L285 286L285 287L285 288L285 289L285 290L285 291L285 292L285 293L285 294L285 295L285 296L285 297L285 298L285 299L285 300L285 301L285 302L285 303L285 304L285 305L285 306L285 307L285 308L285 309L285 310L285 311L285 312L285 313L285 314L285 315L285 316L285 317L285 318L285 319L285 320L285 321L285 322L285 323L285 324L285 325L285 326L285 327L285 328L285 329L285 335L286 335L287 333L287 329L287 328L287 327L287 326L287 325L287 324L287 323L287 322L287 321L287 320L287 319L287 318L287 317L287 316L287 315L287 314L287 313L287 312L287 311L287 310L287 309L287 308L287 307L287 306L287 305L287 304L287 303L287 302L287 301L287 300L287 299L287 298L287 297L287 296L287 295L287 294L287 293L287 292L287 291L287 290L287 289L287 288L287 287L287 286L287 285L287 284L287 283L287 282L287 281L287 280L287 279L287 278L287 277L287 276L287 275L287 274L285 266M217 267L217 271L217 272L217 273L217 274L217 275L217 276L217 277L217 278L217 279L217 280L217 281L217 282L217 283L217 284L217 285L217 286L217 287L217 288L217 289L217 290L217 291L217 292L217 293L217 294L217 295L217 296L217 297L217 298L217 299L217 300L217 301L217 302L217 303L217 304L217 305L217 306L217 307L217 308L217 309L217 310L217 311L217 312L217 313L217 314L217 315L217 316L217 317L217 318L217 319L217 320L217 321L217 322L217 323L217 324L217 325L217 326L217 327L217 328L217 329L217 330L217 334L218 334L218 331L218 327L218 326L218 325L218 324L218 323L218 322L218 321L218 320L218 319L218 318L218 317L218 316L218 315L218 314L218 313L218 312L218 311L218 310L218 309L218 308L218 307L218 306L218 305L218 304L218 303L218 302L218 301L218 300L218 299L218 298L218 297L218 296L218 295L218 294L218 293L218 292L218 291L218 290L218 289L218 288L218 287L218 286L218 285L218 284L218 283L218 282L218 281L218 280L218 279L218 278L218 277L218 276L218 275L218 274L218 273L218 272L217 267M228 334L227 337L227 341L227 342L227 343L227 344L227 345L227 346L227 347L227 348L227 349L227 350L227 351L227 352L227 353L227 354L227 355L227 356L227 357L227 358L227 359L227 360L227 361L227 362L227 363L227 364L227 365L227 366L227 367L227 368L227 369L227 370L227 371L227 372L227 373L227 374L227 375L227 376L227 377L227 378L227 379L227 380L227 381L227 382L227 383L227 384L227 385L227 386L227 387L227 388L227 389L227 390L227 391L227 392L227 393L227 394L227 395L227 396L227 403L224 403L224 404L224 408L224 409L224 410L224 411L224 412L224 413L224 414L224 415L224 416L224 417L224 418L224 419L224 420L224 421L224 422L224 423L224 424L224 425L224 426L224 427L224 428L224 429L224 430L224 431L224 432L224 433L224 434L224 435L224 436L224 437L224 438L224 439L224 440L224 441L224 442L224 443L224 444L224 445L224 446L224 447L224 448L224 449L224 450L224 451L224 452L224 453L224 454L224 455L224 456L224 457L224 458L224 459L224 460L224 461L224 462L224 463L224 464L224 465L224 466L224 467L224 472L218 472L218 476L218 477L218 478L218 479L218 480L218 481L218 482L218 483L218 484L218 485L218 486L218 487L218 488L218 489L218 490L218 491L218 492L218 493L218 494L218 495L218 496L218 497L218 498L218 499L218 500L218 501L218 502L218 503L218 504L218 505L218 506L218 507L218 508L218 509L218 510L218 511L218 512L218 513L218 514L218 515L218 516L218 517L218 518L218 519L218 520L218 521L218 522L218 523L218 524L218 525L218 526L218 527L218 528L218 529L218 530L218 531L218 532L218 533L218 534L218 535L218 536L218 537L218 538L218 539L218 540L218 541L218 542L218 543L218 544L218 545L218 546L218 547L218 548L218 549L218 550L218 551L218 552L218 553L218 554L218 555L218 556L218 557L218 558L218 559L218 560L218 561L218 562L218 563L218 564L218 565L218 566L218 567L218 568L218 569L218 570L218 571L218 572L218 573L218 574L218 575L218 576L218 577L218 578L218 579L218 580L218 581L218 582L218 583L218 584L218 585L218 586L218 587L218 588L218 589L218 590L218 591L218 592L218 593L218 594L218 595L218 596L218 597L218 598L218 599L218 600L218 601L218 602L218 603L218 608L222 608L223 608L224 608L225 608L230 608L230 604L230 603L230 602L230 601L230 600L230 599L230 598L230 597L230 596L230 595L230 594L230 593L230 592L230 591L230 590L230 589L230 588L230 587L230 586L230 585L230 584L230 583L230 582L230 581L230 580L230 579L230 578L230 577L230 576L230 575L230 574L230 573L230 572L230 571L230 570L230 569L230 568L230 567L230 566L230 565L230 564L230 563L230 562L230 561L230 560L230 559L230 558L230 557L230 556L230 555L230 554L230 553L230 552L230 551L230 550L230 549L230 548L230 547L230 546L230 545L230 540L234 540L235 540L236 540L237 540L241 540L241 536L241 535L241 534L241 533L241 532L241 531L241 530L241 529L241 528L241 527L241 526L241 525L241 524L241 523L241 522L241 521L241 520L241 519L241 518L241 517L241 516L241 515L241 514L241 513L241 512L241 511L241 510L241 509L241 508L241 507L241 506L241 505L241 504L241 503L241 502L241 501L241 500L241 499L241 498L241 497L241 496L241 495L241 494L241 493L241 492L241 491L241 490L241 489L241 488L241 487L241 486L241 485L241 484L241 483L241 482L241 481L241 480L241 479L241 478L241 477L241 472L237 472L236 472L235 472L234 472L230 472L230 468L230 467L230 466L230 465L230 464L230 463L230 462L230 461L230 460L230 459L230 458L230 457L230 456L230 455L230 454L230 453L230 452L230 451L230 450L230 449L230 448L230 447L230 446L230 445L230 444L230 443L230 442L230 441L230 440L230 439L230 438L230 437L230 436L230 435L230 434L230 433L230 432L230 431L230 430L230 429L230 428L230 427L230 426L230 425L230 424L230 423L230 422L230 421L230 420L230 419L230 418L230 417L230 416L230 415L230 414L230 413L230 412L230 411L230 410L230 409L230 408L230 407L230 406L230 405L230 404L230 403L230 402L230 401L230 400L230 399L230 398L230 397L230 396L230 395L230 394L230 393L230 392L230 391L230 390L230 389L230 388L230 387L230 386L230 385L230 384L230 383L230 382L230 381L230 380L230 379L230 378L230 377L230 376L230 375L230 374L230 373L230 372L230 371L230 370L230 369L230 368L230 367L230 366L230 365L230 364L230 363L230 362L230 361L230 360L230 359L230 358L230 357L230 356L230 355L230 354L230 353L230 352L230 351L230 350L230 349L230 348L230 347L230 346L230 345L230 344L230 343L230 342L230 341L230 334L228 334M295 334L295 338L295 339L295 340L295 341L295 342L295 343L295 344L295 345L295 346L295 347L295 348L295 349L295 350L295 351L295 352L295 353L295 354L295 355L295 356L295 357L295 358L295 359L295 360L295 361L295 362L295 363L295 364L295 365L295 366L295 367L295 368L295 369L295 370L295 371L295 372L295 373L295 374L295 375L295 376L295 377L295 378L295 379L295 380L295 381L295 382L295 383L295 384L295 385L295 386L295 387L295 388L295 389L295 390L295 391L295 392L295 393L295 394L295 395L295 396L295 397L295 403L290 403L290 407L290 408L290 409L290 410L290 411L290 412L290 413L290 414L290 415L290 416L290 417L290 418L290 419L290 420L290 421L290 422L290 423L290 424L290 425L290 426L290 427L290 428L290 429L290 430L290 431L290 432L290 433L290 434L290 435L290 436L290 437L290 438L290 439L290 440L290 441L290 442L290 443L290 444L290 445L290 446L290 447L290 448L290 449L290 450L290 451L290 452L290 453L290 454L290 455L290 456L290 457L290 458L290 459L290 460L290 461L290 462L290 463L290 464L290 465L290 466L290 472L287 472L287 473L287 477L287 478L287 479L287 480L287 481L287 482L287 483L287 484L287 485L287 486L287 487L287 488L287 489L287 490L287 491L287 492L287 493L287 494L287 495L287 496L287 497L287 498L287 499L287 500L287 501L287 502L287 503L287 504L287 505L287 506L287 507L287 508L287 509L287 510L287 511L287 512L287 513L287 514L287 515L287 516L287 517L287 518L287 519L287 520L287 521L287 522L287 523L287 524L287 525L287 526L287 527L287 528L287 529L287 530L287 531L287 532L287 533L287 534L287 535L287 536L287 540L286 540L286 543L286 547L286 548L286 549L286 550L286 551L286 552L286 553L286 554L286 555L286 556L286 557L286 558L286 559L286 560L286 561L286 562L286 563L286 564L286 565L286 566L286 567L286 568L286 569L286 570L286 571L286 572L286 573L286 574L286 575L286 576L286 577L286 578L286 579L286 580L286 581L286 582L286 583L286 584L286 585L286 586L286 587L286 588L286 589L286 590L286 591L286 592L286 593L286 594L286 595L286 596L286 597L286 598L286 599L286 600L286 601L286 602L286 608L290 608L291 608L292 608L293 608L294 608L295 608L296 608L297 608L298 608L299 608L300 608L301 608L305 608L305 604L305 603L305 602L305 601L305 600L305 599L305 598L305 597L305 596L305 595L305 594L305 593L305 592L305 591L305 590L305 589L305 588L305 587L305 586L305 585L305 584L305 583L305 582L305 581L305 580L305 579L305 578L305 577L305 576L305 575L305 574L305 573L305 572L305 571L305 570L305 569L305 568L305 567L305 566L305 565L305 564L305 563L305 562L305 561L305 560L305 559L305 558L305 557L305 556L305 555L305 554L305 553L305 552L305 551L305 550L305 549L305 548L305 547L305 546L305 545L305 540L315 540L315 536L315 535L315 534L315 533L315 532L315 531L315 530L315 529L315 528L315 527L315 526L315 525L315 524L315 523L315 522L315 521L315 520L315 519L315 518L315 517L315 516L315 515L315 514L315 513L315 512L315 511L315 510L315 509L315 508L315 507L315 506L315 505L315 504L315 503L315 502L315 501L315 500L315 499L315 498L315 497L315 496L315 495L315 494L315 493L315 492L315 491L315 490L315 489L315 488L315 487L315 486L315 485L315 484L315 483L315 482L315 481L315 480L315 479L315 478L315 477L315 472L305 472L305 468L305 467L305 466L305 465L305 464L305 463L305 462L305 461L305 460L305 459L305 458L305 457L305 456L305 455L305 454L305 453L305 452L305 451L305 450L305 449L305 448L305 447L305 446L305 445L305 444L305 443L305 442L305 441L305 440L305 439L305 438L305 437L305 436L305 435L305 434L305 433L305 432L305 431L305 430L305 429L305 428L305 427L305 426L305 425L305 424L305 423L305 422L305 421L305 420L305 419L305 418L305 417L305 416L305 415L305 414L305 413L305 412L305 411L305 410L305 409L305 408L305 407L305 406L305 405L305 404L305 403L305 402L305 401L305 400L305 399L305 398L305 397L305 396L305 395L305 394L305 393L305 392L305 391L305 390L305 389L305 388L305 387L305 386L305 385L305 384L305 383L305 382L305 381L305 380L305 379L305 378L305 377L305 376L305 375L305 374L305 373L305 372L305 371L305 370L305 369L305 368L305 367L305 366L305 365L305 364L305 363L305 362L305 361L305 360L305 359L305 358L305 357L305 356L305 355L305 354L305 353L305 352L305 351L305 350L305 349L305 348L305 347L305 346L305 345L305 344L305 343L305 342L305 341L305 334L295 334M223 335L223 339L223 340L223 341L223 342L223 343L223 344L223 345L223 346L223 347L223 348L223 349L223 350L223 351L223 352L223 353L223 354L223 355L223 356L223 357L223 358L223 359L223 360L223 361L223 362L223 363L223 364L223 365L223 366L223 367L223 368L223 369L223 370L223 371L223 372L223 373L223 374L223 375L223 376L223 377L223 378L223 379L223 380L223 381L223 382L223 383L223 384L223 385L223 386L223 387L223 388L223 389L223 390L223 391L223 392L223 393L223 394L223 395L223 396L223 397L223 398L223 402L224 402L224 399L224 395L224 394L224 393L224 392L224 391L224 390L224 389L224 388L224 387L224 386L224 385L224 384L224 383L224 382L224 381L224 380L224 379L224 378L224 377L224 376L224 375L224 374L224 373L224 372L224 371L224 370L224 369L224 368L224 367L224 366L224 365L224 364L224 363L224 362L224 361L224 360L224 359L224 358L224 357L224 356L224 355L224 354L224 353L224 352L224 351L224 350L224 349L224 348L224 347L224 346L224 345L224 344L224 343L224 342L224 341L224 340L223 335M274 335L274 339L274 340L274 341L274 342L274 343L274 344L274 345L274 346L274 347L274 348L274 349L274 350L274 351L274 352L274 353L274 354L274 355L274 356L274 357L274 358L274 359L274 360L274 361L274 362L274 363L274 364L274 365L274 366L274 367L274 368L274 369L274 370L274 371L274 372L274 373L274 374L274 375L274 376L274 377L274 378L274 379L274 380L274 381L274 382L274 383L274 384L274 385L274 386L274 387L274 388L274 389L274 390L274 391L274 392L274 393L274 394L274 395L274 396L274 397L274 398L274 403L269 403L269 407L269 408L269 409L269 410L269 411L269 412L269 413L269 414L269 415L269 416L269 417L269 418L269 419L269 420L269 421L269 422L269 423L269 424L269 425L269 426L269 427L269 428L269 429L269 430L269 431L269 432L269 433L269 434L269 435L269 436L269 437L269 438L269 439L269 440L269 441L269 442L269 443L269 444L269 445L269 446L269 447L269 448L269 449L269 450L269 451L269 452L269 453L269 454L269 455L269 456L269 457L269 458L269 459L269 460L269 461L269 462L269 463L269 464L269 465L269 466L269 472L267 472L267 474L267 478L267 479L267 480L267 481L267 482L267 483L267 484L267 485L267 486L267 487L267 488L267 489L267 490L267 491L267 492L267 493L267 494L267 495L267 496L267 497L267 498L267 499L267 500L267 501L267 502L267 503L267 504L267 505L267 506L267 507L267 508L267 509L267 510L267 511L267 512L267 513L267 514L267 515L267 516L267 517L267 518L267 519L267 520L267 521L267 522L267 523L267 524L267 525L267 526L267 527L267 528L267 529L267 530L267 531L267 532L267 533L267 540L265 540L265 542L265 546L265 547L265 548L265 549L265 550L265 551L265 552L265 553L265 554L265 555L265 556L265 557L265 558L265 559L265 560L265 561L265 562L265 563L265 564L265 565L265 566L265 567L265 568L265 569L265 570L265 571L265 572L265 573L265 574L265 575L265 576L265 577L265 578L265 579L265 580L265 581L265 582L265 583L265 584L265 585L265 586L265 587L265 588L265 589L265 590L265 591L265 592L265 593L265 594L265 595L265 596L265 597L265 598L265 599L265 600L265 601L265 608L275 608L275 604L275 603L275 602L275 601L275 600L275 599L275 598L275 597L275 596L275 595L275 594L275 593L275 592L275 591L275 590L275 589L275 588L275 587L275 586L275 585L275 584L275 583L275 582L275 581L275 580L275 579L275 578L275 577L275 576L275 575L275 574L275 573L275 572L275 571L275 570L275 569L275 568L275 567L275 566L275 565L275 564L275 563L275 562L275 561L275 560L275 559L275 558L275 557L275 556L275 555L275 554L275 553L275 552L275 551L275 550L275 549L275 548L275 547L275 546L275 545L275 544L275 543L275 542L275 541L275 540L275 539L275 538L275 537L275 536L275 535L275 534L275 533L275 532L275 531L275 530L275 529L275 528L275 527L275 526L275 525L275 524L275 523L275 522L275 521L275 520L275 519L275 518L275 517L275 516L275 515L275 514L275 513L275 512L275 511L275 510L275 509L275 508L275 507L275 506L275 505L275 504L275 503L275 502L275 501L275 500L275 499L275 498L275 497L275 496L275 495L275 494L275 493L275 492L275 491L275 490L275 489L275 488L275 487L275 486L275 485L275 484L275 483L275 482L275 481L275 480L275 479L275 478L275 477L275 476L275 475L275 474L275 473L275 472L275 471L275 470L275 469L275 468L275 467L275 466L275 465L275 464L275 463L275 462L275 461L275 460L275 459L275 458L275 457L275 456L275 455L275 454L275 453L275 452L275 451L275 450L275 449L275 448L275 447L275 446L275 445L275 444L275 443L275 442L275 441L275 440L275 439L275 438L275 437L275 436L275 435L275 434L275 433L275 432L275 431L275 430L275 429L275 428L275 427L275 426L275 425L275 424L275 423L275 422L275 421L275 420L275 419L275 418L275 417L275 416L275 415L275 414L275 413L275 412L275 411L275 410L275 409L275 408L275 407L275 406L275 405L275 404L275 403L275 402L275 401L275 400L275 399L275 398L275 397L275 396L275 395L275 394L275 393L275 392L275 391L275 390L275 389L275 388L275 387L275 386L275 385L275 384L275 383L275 382L275 381L275 380L275 379L275 378L275 377L275 376L275 375L275 374L275 373L275 372L275 371L275 370L275 369L275 368L275 367L275 366L275 365L275 364L275 363L275 362L275 361L275 360L275 359L275 358L275 357L275 356L275 355L275 354L275 353L275 352L275 351L275 350L275 349L275 348L275 347L275 346L275 345L275 344L275 343L275 342L275 341L274 335M242 540L242 544L242 545L242 546L242 547L242 548L242 549L242 550L242 551L242 552L242 553L242 554L242 555L242 556L242 557L242 558L242 559L242 560L242 561L242 562L242 563L242 564L242 565L242 566L242 567L242 568L242 569L242 570L242 571L242 572L242 573L242 574L242 575L242 576L242 577L242 578L242 579L242 580L242 581L242 582L242 583L242 584L242 585L242 586L242 587L242 588L242 589L242 590L242 591L242 592L242 593L242 594L242 595L242 596L242 597L242 598L242 599L242 600L242 601L242 602L242 603L242 608L243 608L243 605L243 601L243 600L243 599L243 598L243 597L243 596L243 595L243 594L243 593L243 592L243 591L243 590L243 589L243 588L243 587L243 586L243 585L243 584L243 583L243 582L243 581L243 580L243 579L243 578L243 577L243 576L243 575L243 574L243 573L243 572L243 571L243 570L243 569L243 568L243 567L243 566L243 565L243 564L243 563L243 562L243 561L243 560L243 559L243 558L243 557L243 556L243 555L243 554L243 553L243 552L243 551L243 550L243 549L243 548L243 547L243 546L242 540M244 540L244 544L244 545L244 546L244 547L244 548L244 549L244 550L244 551L244 552L244 553L244 554L244 555L244 556L244 557L244 558L244 559L244 560L244 561L244 562L244 563L244 564L244 565L244 566L244 567L244 568L244 569L244 570L244 571L244 572L244 573L244 574L244 575L244 576L244 577L244 578L244 579L244 580L244 581L244 582L244 583L244 584L244 585L244 586L244 587L244 588L244 589L244 590L244 591L244 592L244 593L244 594L244 595L244 596L244 597L244 598L244 599L244 600L244 601L244 602L244 603L244 608L246 608L246 606L246 602L246 601L246 600L246 599L246 598L246 597L246 596L246 595L246 594L246 593L246 592L246 591L246 590L246 589L246 588L246 587L246 586L246 585L246 584L246 583L246 582L246 581L246 580L246 579L246 578L246 577L246 576L246 575L246 574L246 573L246 572L246 571L246 570L246 569L246 568L246 567L246 566L246 565L246 564L246 563L246 562L246 561L246 560L246 559L246 558L246 557L246 556L246 555L246 554L246 553L246 552L246 551L246 550L246 549L246 548L246 547L246 540L244 540M317 540L317 544L317 545L317 546L317 547L317 548L317 549L317 550L317 551L317 552L317 553L317 554L317 555L317 556L317 557L317 558L317 559L317 560L317 561L317 562L317 563L317 564L317 565L317 566L317 567L317 568L317 569L317 570L317 571L317 572L317 573L317 574L317 575L317 576L317 577L317 578L317 579L317 580L317 581L317 582L317 583L317 584L317 585L317 586L317 587L317 588L317 589L317 590L317 591L317 592L317 593L317 594L317 595L317 596L317 597L317 598L317 599L317 600L317 601L317 602L317 603L317 608L318 608L318 605L318 601L318 600L318 599L318 598L318 597L318 596L318 595L318 594L318 593L318 592L318 591L318 590L318 589L318 588L318 587L318 586L318 585L318 584L318 583L318 582L318 581L318 580L318 579L318 578L318 577L318 576L318 575L318 574L318 573L318 572L318 571L318 570L318 569L318 568L318 567L318 566L318 565L318 564L318 563L318 562L318 561L318 560L318 559L318 558L318 557L318 556L318 555L318 554L318 553L318 552L318 551L318 550L318 549L318 548L318 547L318 546L317 540M326 540L326 544L326 545L326 546L326 547L326 548L326 549L326 550L326 551L326 552L326 553L326 554L326 555L326 556L326 557L326 558L326 559L326 560L326 561L326 562L326 563L326 564L326 565L326 566L326 567L326 568L326 569L326 570L326 571L326 572L326 573L326 574L326 575L326 576L326 577L326 578L326 579L326 580L326 581L326 582L326 583L326 584L326 585L326 586L326 587L326 588L326 589L326 590L326 591L326 592L326 593L326 594L326 595L326 596L326 597L326 598L326 599L326 600L326 601L326 602L326 603L326 608L336 608L336 604L336 603L336 602L336 601L336 600L336 599L336 598L336 597L336 596L336 595L336 594L336 593L336 592L336 591L336 590L336 589L336 588L336 587L336 586L336 585L336 584L336 583L336 582L336 581L336 580L336 579L336 578L336 577L336 576L336 575L336 574L336 573L336 572L336 571L336 570L336 569L336 568L336 567L336 566L336 565L336 564L336 563L336 562L336 561L336 560L336 559L336 558L336 557L336 556L336 555L336 554L336 553L336 552L336 551L336 550L336 549L336 548L336 547L336 546L336 545L336 540L326 540M379 540L379 544L379 545L379 546L379 547L379 548L379 549L379 550L379 551L379 552L379 553L379 554L379 555L379 556L379 557L379 558L379 559L379 560L379 561L379 562L379 563L379 564L379 565L379 566L379 567L379 568L379 569L379 570L379 571L379 572L379 573L379 574L379 575L379 576L379 577L379 578L379 579L379 580L379 581L379 582L379 583L379 584L379 585L379 586L379 587L379 588L379 589L379 590L379 591L379 592L379 593L379 594L379 595L379 596L379 597L379 598L379 599L379 600L379 601L379 602L379 603L379 608L383 608L384 608L385 608L386 608L390 608L390 604L390 603L390 602L390 601L390 600L390 599L390 598L390 597L390 596L390 595L390 594L390 593L390 592L390 591L390 590L390 589L390 588L390 587L390 586L390 585L390 584L390 583L390 582L390 581L390 580L390 579L390 578L390 577L390 576L390 575L390 574L390 573L390 572L390 571L390 570L390 569L390 568L390 567L390 566L390 565L390 564L390 563L390 562L390 561L390 560L390 559L390 558L390 557L390 556L390 555L390 554L390 553L390 552L390 551L390 550L390 549L390 548L390 547L390 546L390 545L390 540L386 540L385 540L384 540L383 540L379 540z"/>
</svg>
