<?xml version="1.0" standalone="yes"?>
<svg width="900" height="900">
<path style="fill:#0b0b0b; stroke:none;" d="M215 266L215 270L215 271L215 272L215 273L215 274L215 275L215 276L215 277L215 278L215 279L215 280L215 281L215 282L215 283L215 284L215 285L215 286L215 287L215 288L215 289L215 290L215 291L215 292L215 293L215 294L215 295L215 296L215 297L215 298L215 299L215 300L215 301L215 302L215 303L215 304L215 305L215 306L215 307L215 308L215 309L215 310L215 311L215 312L215 313L215 314L215 315L215 316L215 317L215 318L215 319L215 320L215 321L215 322L215 323L215 324L215 325L215 326L215 327L215 328L215 329L215 334L216 334L216 331L216 327L216 326L216 325L216 324L216 323L216 322L216 321L216 320L216 319L216 318L216 317L216 316L216 315L216 314L216 313L216 312L216 311L216 310L216 309L216 308L216 307L216 306L216 305L216 304L216 303L216 302L216 301L216 300L216 299L216 298L216 297L216 296L216 295L216 294L216 293L216 292L216 291L216 290L216 289L216 288L216 287L216 286L216 285L216 284L216 283L216 282L216 281L216 280L216 279L216 278L216 277L216 276L216 275L216 274L216 273L216 272L215 266M264 266L264 270L264 271L264 272L264 273L264 274L264 275L264 276L264 277L264 278L264 279L264 280L264 281L264 282L264 283L264 284L264 285L264 286L264 287L264 288L264 289L264 290L264 291L264 292L264 293L264 294L264 295L264 296L264 297L264 298L264 299L264 300L264 301L264 302L264 303L264 304L264 305L264 306L264 307L264 308L264 309L264 310L264 311L264 312L264 313L264 314L264 315L264 316L264 317L264 318L264 319L264 320L264 321L264 322L264 323L264 324L264 325L264 326L264 327L264 328L264 329L264 334L265 334L265 331L265 327L265 326L265 325L265 324L265 323L265 322L265 321L265 320L265 319L265 318L265 317L265 316L265 315L265 314L265 313L265 312L265 311L265 310L265 309L265 308L265 307L265 306L265 305L265 304L265 303L265 302L265 301L265 300L265 299L265 298L265 297L265 296L265 295L265 294L265 293L265 292L265 291L265 290L265 289L265 288L265 287L265 286L265 285L265 284L265 283L265 282L265 281L265 280L265 279L265 278L265 277L265 276L265 275L265 274L265 273L265 272L264 266M285 266L285 270L285 271L285 272L285 273L285 274L285 275L285 276L285 277L285 278L285 279L285 280L285 281L285 282L285 283L285 284L285 285L285 286L285 287L285 288L285 289L285 290L285 291L285 292L285 293L285 294L285 295L285 296L285 297L285 298L285 299L285 300L285 301L285 302L285 303L285 304L285 305L285 306L285 307L285 308L285 309L285 310L285 311L285 312L285 313L285 314L285 315L285 316L285 317L285 318L285 319L285 320L285 321L285 322L285 323L285 324L285 325L285 326L285 327L285 328L285 329L285 334L286 334L286 331L286 327L286 326L286 325L286 324L286 323L286 322L286 321L286 320L286 319L286 318L286 317L286 316L286 315L286 314L286 313L286 312L286 311L286 310L286 309L286 308L286 307L286 306L286 305L286 304L286 303L286 302L286 301L286 300L286 299L286 298L286 297L286 296L286 295L286 294L286 293L286 292L286 291L286 290L286 289L286 288L286 287L286 286L286 285L286 284L286 283L286 282L286 281L286 280L286 279L286 278L286 277L286 276L286 275L286 274L286 273L286 272L285 266M336 266L336 270L336 271L336 272L336 273L336 274L336 275L336 276L336 277L336 278L336 279L336 280L336 281L336 282L336 283L336 284L336 285L336 286L336 287L336 288L336 289L336 290L336 291L336 292L336 293L336 294L336 295L336 296L336 297L336 298L336 299L336 300L336 301L336 302L336 303L336 304L336 305L336 306L336 307L336 308L336 309L336 310L336 311L336 312L336 313L336 314L336 315L336 316L336 317L336 318L336 319L336 320L336 321L336 322L336 323L336 324L336 325L336 326L336 327L336 328L336 329L336 330L336 331L336 332L336 333L336 334L336 335L336 336L336 337L336 338L336 339L336 340L336 341L336 342L336 343L336 344L336 345L336 346L336 347L336 348L336 349L336 350L336 351L336 352L336 353L336 354L336 355L336 356L336 357L336 358L336 359L336 360L336 361L336 362L336 363L336 364L336 365L336 366L336 367L336 368L336 369L336 370L336 371L336 372L336 373L336 374L336 375L336 376L336 377L336 378L336 379L336 380L336 381L336 382L336 383L336 384L336 385L336 386L336 387L336 388L336 389L336 390L336 391L336 392L336 393L336 394L336 395L336 396L336 397L336 403L340 403L340 407L340 408L340 409L340 410L340 411L340 412L340 413L340 414L340 415L340 416L340 417L340 418L340 419L340 420L340 421L340 422L340 423L340 424L340 425L340 426L340 427L340 428L340 429L340 430L340 431L340 432L340 433L340 434L340 435L340 436L340 437L340 438L340 439L340 440L340 441L340 442L340 443L340 444L340 445L340 446L340 447L340 448L340 449L340 450L340 451L340 452L340 453L340 454L340 455L340 456L340 457L340 458L340 459L340 460L340 461L340 462L340 463L340 464L340 465L340 466L340 467L340 468L340 469L340 470L340 471L340 472L340 473L340 474L340 475L340 476L340 477L340 478L340 479L340 480L340 481L340 482L340 483L340 484L340 485L340 486L340 487L340 488L340 489L340 490L340 491L340 492L340 493L340 494L340 495L340 496L340 497L340 498L340 499L340 500L340 501L340 502L340 503L340 504L340 505L340 506L340 507L340 508L340 509L340 510L340 511L340 512L340 513L340 514L340 515L340 516L340 517L340 518L340 519L340 520L340 521L340 522L340 523L340 524L340 525L340 526L340 527L340 528L340 529L340 530L340 531L340 532L340 533L340 534L340 540L339 540L339 537L339 533L339 532L339 531L339 530L339 529L339 528L339 527L339 526L339 525L339 524L339 523L339 522L339 521L339 520L339 519L339 518L339 517L339 516L339 515L339 514L339 513L339 512L339 511L339 510L339 509L339 508L339 507L339 506L339 505L339 504L339 503L339 502L339 501L339 500L339 499L339 498L339 497L339 496L339 495L339 494L339 493L339 492L339 491L339 490L339 489L339 488L339 487L339 486L339 485L339 484L339 483L339 482L339 481L339 480L339 479L339 478L339 472L336 472L336 473L336 477L336 478L336 479L336 480L336 481L336 482L336 483L336 484L336 485L336 486L336 487L336 488L336 489L336 490L336 491L336 492L336 493L336 494L336 495L336 496L336 497L336 498L336 499L336 500L336 501L336 502L336 503L336 504L336 505L336 506L336 507L336 508L336 509L336 510L336 511L336 512L336 513L336 514L336 515L336 516L336 517L336 518L336 519L336 520L336 521L336 522L336 523L336 524L336 525L336 526L336 527L336 528L336 529L336 530L336 531L336 532L336 533L336 534L336 535L336 536L336 537L336 538L336 539L336 540L336 541L336 542L336 543L336 544L336 545L336 546L336 547L336 548L336 549L336 550L336 551L336 552L336 553L336 554L336 555L336 556L336 557L336 558L336 559L336 560L336 561L336 562L336 563L336 564L336 565L336 566L336 567L336 568L336 569L336 570L336 571L336 572L336 573L336 574L336 575L336 576L336 577L336 578L336 579L336 580L336 581L336 582L336 583L336 584L336 585L336 586L336 587L336 588L336 589L336 590L336 591L336 592L336 593L336 594L336 595L336 596L336 597L336 598L336 599L336 600L336 601L336 602L336 603L336 604L336 608L340 608L341 608L342 608L343 608L344 608L345 608L346 608L347 608L348 608L349 608L350 608L351 608L356 608L356 604L356 603L356 602L356 601L356 600L356 599L356 598L356 597L356 596L356 595L356 594L356 593L356 592L356 591L356 590L356 589L356 588L356 587L356 586L356 585L356 584L356 583L356 582L356 581L356 580L356 579L356 578L356 577L356 576L356 575L356 574L356 573L356 572L356 571L356 570L356 569L356 568L356 567L356 566L356 565L356 564L356 563L356 562L356 561L356 560L356 559L356 558L356 557L356 556L356 555L356 554L356 553L356 552L356 551L356 550L356 549L356 548L356 547L356 546L356 545L356 544L356 543L356 542L356 541L356 540L356 539L356 538L356 537L356 536L356 535L356 534L356 533L356 532L356 531L356 530L356 529L356 528L356 527L356 526L356 525L356 524L356 523L356 522L356 521L356 520L356 519L356 518L356 517L356 516L356 515L356 514L356 513L356 512L356 511L356 510L356 509L356 508L356 507L356 506L356 505L356 504L356 503L356 502L356 501L356 500L356 499L356 498L356 497L356 496L356 495L356 494L356 493L356 492L356 491L356 490L356 489L356 488L356 487L356 486L356 485L356 484L356 483L356 482L356 481L356 480L356 479L356 478L356 477L356 476L356 475L356 474L356 473L356 472L356 471L356 470L356 469L356 468L356 467L356 466L356 465L356 464L356 463L356 462L356 461L356 460L356 459L356 458L356 457L356 456L356 455L356 454L356 453L356 452L356 451L356 450L356 449L356 448L356 447L356 446L356 445L356 444L356 443L356 442L356 441L356 440L356 439L356 438L356 437L356 436L356 435L356 434L356 433L356 432L356 431L356 430L356 429L356 428L356 427L356 426L356 425L356 424L356 423L356 422L356 421L356 420L356 419L356 418L356 417L356 416L356 415L356 414L356 413L356 412L356 411L356 410L356 409L356 408L356 407L356 406L356 405L356 404L356 403L356 402L356 401L356 400L356 399L356 398L356 397L356 396L356 395L356 394L356 393L356 392L356 391L356 390L356 389L356 388L356 387L356 386L356 385L356 384L356 383L356 382L356 381L356 380L356 379L356 378L356 377L356 376L356 375L356 374L356 373L356 372L356 371L356 370L356 369L356 368L356 367L356 366L356 365L356 364L356 363L356 362L356 361L356 360L356 359L356 358L356 357L356 356L356 355L356 354L356 353L356 352L356 351L356 350L356 349L356 348L356 347L356 346L356 345L356 344L356 343L356 342L356 341L356 335L352 335L351 335L350 335L349 335L348 335L347 335L346 335L345 335L344 335L343 335L342 335L341 335L337 335L337 331L337 330L337 329L337 328L337 327L337 326L337 325L337 324L337 323L337 322L337 321L337 320L337 319L337 318L337 317L337 316L337 315L337 314L337 313L337 312L337 311L337 310L337 309L337 308L337 307L337 306L337 305L337 304L337 303L337 302L337 301L337 300L337 299L337 298L337 297L337 296L337 295L337 294L337 293L337 292L337 291L337 290L337 289L337 288L337 287L337 286L337 285L337 284L337 283L337 282L337 281L337 280L337 279L337 278L337 277L337 276L337 275L337 274L337 273L337 272L336 266M480 266L480 270L480 271L480 272L480 273L480 274L480 275L480 276L480 277L480 278L480 279L480 280L480 281L480 282L480 283L480 284L480 285L480 286L480 287L480 288L480 289L480 290L480 291L480 292L480 293L480 294L480 295L480 296L480 297L480 298L480 299L480 300L480 301L480 302L480 303L480 304L480 305L480 306L480 307L480 308L480 309L480 310L480 311L480 312L480 313L480 314L480 315L480 316L480 317L480 318L480 319L480 320L480 321L480 322L480 323L480 324L480 325L480 326L480 327L480 328L480 329L480 334L481 334L481 331L481 327L481 326L481 325L481 324L481 323L481 322L481 321L481 320L481 319L481 318L481 317L481 316L481 315L481 314L481 313L481 312L481 311L481 310L481 309L481 308L481 307L481 306L481 305L481 304L481 303L481 302L481 301L481 300L481 299L481 298L481 297L481 296L481 295L481 294L481 293L481 292L481 291L481 290L481 289L481 288L481 287L481 286L481 285L481 284L481 283L481 282L481 281L481 280L481 279L481 278L481 277L481 276L481 275L481 274L481 273L481 272L480 266M524 266L524 270L524 271L524 272L524 273L524 274L524 275L524 276L524 277L524 278L524 279L524 280L524 281L524 282L524 283L524 284L524 285L524 286L524 287L524 288L524 289L524 290L524 291L524 292L524 293L524 294L524 295L524 296L524 297L524 298L524 299L524 300L524 301L524 302L524 303L524 304L524 305L524 306L524 307L524 308L524 309L524 310L524 311L524 312L524 313L524 314L524 315L524 316L524 317L524 318L524 319L524 320L524 321L524 322L524 323L524 324L524 325L524 326L524 327L524 328L524 329L524 334L531 334L531 338L531 339L531 340L531 341L531 342L531 343L531 344L531 345L531 346L531 347L531 348L531 349L531 350L531 351L531 352L531 353L531 354L531 355L531 356L531 357L531 358L531 359L531 360L531 361L531 362L531 363L531 364L531 365L531 366L531 367L531 368L531 369L531 370L531 371L531 372L531 373L531 374L531 375L531 376L531 377L531 378L531 379L531 380L531 381L531 382L531 383L531 384L531 385L531 386L531 387L531 388L531 389L531 390L531 391L531 392L531 393L531 394L531 395L531 396L531 397L531 403L532 403L532 400L532 396L532 395L532 394L532 393L532 392L532 391L532 390L532 389L532 388L532 387L532 386L532 385L532 384L532 383L532 382L532 381L532 380L532 379L532 378L532 377L532 376L532 375L532 374L532 373L532 372L532 371L532 370L532 369L532 368L532 367L532 366L532 365L532 364L532 363L532 362L532 361L532 360L532 359L532 358L532 357L532 356L532 355L532 354L532 353L532 352L532 351L532 350L532 349L532 348L532 347L532 346L532 345L532 344L532 343L532 342L532 341L532 334L533 334L533 331L533 327L533 326L533 325L533 324L533 323L533 322L533 321L533 320L533 319L533 318L533 317L533 316L533 315L533 314L533 313L533 312L533 311L533 310L533 309L533 308L533 307L533 306L533 305L533 304L533 303L533 302L533 301L533 300L533 299L533 298L533 297L533 296L533 295L533 294L533 293L533 292L533 291L533 290L533 289L533 288L533 287L533 286L533 285L533 284L533 283L533 282L533 281L533 280L533 279L533 278L533 277L533 276L533 275L533 274L533 273L533 272L533 266L524 266M409 334L406 335L402 335L401 335L400 335L399 335L398 335L397 335L396 335L395 335L390 335L390 339L390 340L390 341L390 342L390 343L390 344L390 345L390 346L390 347L390 348L390 349L390 350L390 351L390 352L390 353L390 354L390 355L390 356L390 357L390 358L390 359L390 360L390 361L390 362L390 363L390 364L390 365L390 366L390 367L390 368L390 369L390 370L390 371L390 372L390 373L390 374L390 375L390 376L390 377L390 378L390 379L390 380L390 381L390 382L390 383L390 384L390 385L390 386L390 387L390 388L390 389L390 390L390 391L390 392L390 393L390 394L390 395L390 396L390 397L390 398L390 399L390 400L390 401L390 402L390 403L390 404L390 405L390 406L390 407L390 408L390 409L390 410L390 411L390 412L390 413L390 414L390 415L390 416L390 417L390 418L390 419L390 420L390 421L390 422L390 423L390 424L390 425L390 426L390 427L390 428L390 429L390 430L390 431L390 432L390 433L390 434L390 435L390 436L390 437L390 438L390 439L390 440L390 441L390 442L390 443L390 444L390 445L390 446L390 447L390 448L390 449L390 450L390 451L390 452L390 453L390 454L390 455L390 456L390 457L390 458L390 459L390 460L390 461L390 462L390 463L390 464L390 465L390 466L390 467L390 468L390 469L390 470L390 471L390 472L390 473L390 474L390 475L390 476L390 477L390 478L390 479L390 480L390 481L390 482L390 483L390 484L390 485L390 486L390 487L390 488L390 489L390 490L390 491L390 492L390 493L390 494L390 495L390 496L390 497L390 498L390 499L390 500L390 501L390 502L390 503L390 504L390 505L390 506L390 507L390 508L390 509L390 510L390 511L390 512L390 513L390 514L390 515L390 516L390 517L390 518L390 519L390 520L390 521L390 522L390 523L390 524L390 525L390 526L390 527L390 528L390 529L390 530L390 531L390 532L390 533L390 534L390 535L390 536L390 537L390 538L390 539L390 540L390 541L390 542L390 543L390 544L390 545L390 546L390 547L390 548L390 549L390 550L390 551L390 552L390 553L390 554L390 555L390 556L390 557L390 558L390 559L390 560L390 561L390 562L390 563L390 564L390 565L390 566L390 567L390 568L390 569L390 570L390 571L390 572L390 573L390 574L390 575L390 576L390 577L390 578L390 579L390 580L390 581L390 582L390 583L390 584L390 585L390 586L390 587L390 588L390 589L390 590L390 591L390 592L390 593L390 594L390 595L390 596L390 597L390 598L390 599L390 600L390 601L390 602L390 608L394 608L395 608L396 608L397 608L398 608L399 608L400 608L401 608L402 608L403 608L404 608L405 608L410 608L410 604L410 603L410 602L410 601L410 600L410 599L410 598L410 597L410 596L410 595L410 594L410 593L410 592L410 591L410 590L410 589L410 588L410 587L410 586L410 585L410 584L410 583L410 582L410 581L410 580L410 579L410 578L410 577L410 576L410 575L410 574L410 573L410 572L410 571L410 570L410 569L410 568L410 567L410 566L410 565L410 564L410 563L410 562L410 561L410 560L410 559L410 558L410 557L410 556L410 555L410 554L410 553L410 552L410 551L410 550L410 549L410 548L410 547L410 546L410 545L410 540L408 540L408 538L408 534L408 533L408 532L408 531L408 530L408 529L408 528L408 527L408 526L408 525L408 524L408 523L408 522L408 521L408 520L408 519L408 518L408 517L408 516L408 515L408 514L408 513L408 512L408 511L408 510L408 509L408 508L408 507L408 506L408 505L408 504L408 503L408 502L408 501L408 500L408 499L408 498L408 497L408 496L408 495L408 494L408 493L408 492L408 491L408 490L408 489L408 488L408 487L408 486L408 485L408 484L408 483L408 482L408 481L408 480L408 479L408 472L406 472L406 470L406 466L406 465L406 464L406 463L406 462L406 461L406 460L406 459L406 458L406 457L406 456L406 455L406 454L406 453L406 452L406 451L406 450L406 449L406 448L406 447L406 446L406 445L406 444L406 443L406 442L406 441L406 440L406 439L406 438L406 437L406 436L406 435L406 434L406 433L406 432L406 431L406 430L406 429L406 428L406 427L406 426L406 425L406 424L406 423L406 422L406 421L406 420L406 419L406 418L406 417L406 416L406 415L406 414L406 413L406 412L406 411L406 410L406 409L406 408L406 407L406 403L410 403L410 399L410 398L410 397L410 396L410 395L410 394L410 393L410 392L410 391L410 390L410 389L410 388L410 387L410 386L410 385L410 384L410 383L410 382L410 381L410 380L410 379L410 378L410 377L410 376L410 375L410 374L410 373L410 372L410 371L410 370L410 369L410 368L410 367L410 366L410 365L410 364L410 363L410 362L410 361L410 360L410 359L410 358L410 357L410 356L410 355L410 354L410 353L410 352L410 351L410 350L410 349L410 348L410 347L410 346L410 345L410 344L410 343L410 342L410 341L410 340L409 334M213 335L213 339L213 340L213 341L213 342L213 343L213 344L213 345L213 346L213 347L213 348L213 349L213 350L213 351L213 352L213 353L213 354L213 355L213 356L213 357L213 358L213 359L213 360L213 361L213 362L213 363L213 364L213 365L213 366L213 367L213 368L213 369L213 370L213 371L213 372L213 373L213 374L213 375L213 376L213 377L213 378L213 379L213 380L213 381L213 382L213 383L213 384L213 385L213 386L213 387L213 388L213 389L213 390L213 391L213 392L213 393L213 394L213 395L213 396L213 397L213 398L213 403L214 403L214 400L214 396L214 395L214 394L214 393L214 392L214 391L214 390L214 389L214 388L214 387L214 386L214 385L214 384L214 383L214 382L214 381L214 380L214 379L214 378L214 377L214 376L214 375L214 374L214 373L214 372L214 371L214 370L214 369L214 368L214 367L214 366L214 365L214 364L214 363L214 362L214 361L214 360L214 359L214 358L214 357L214 356L214 355L214 354L214 353L214 352L214 351L214 350L214 349L214 348L214 347L214 346L214 345L214 344L214 343L214 342L214 341L213 335M227 335L227 339L227 340L227 341L227 342L227 343L227 344L227 345L227 346L227 347L227 348L227 349L227 350L227 351L227 352L227 353L227 354L227 355L227 356L227 357L227 358L227 359L227 360L227 361L227 362L227 363L227 364L227 365L227 366L227 367L227 368L227 369L227 370L227 371L227 372L227 373L227 374L227 375L227 376L227 377L227 378L227 379L227 380L227 381L227 382L227 383L227 384L227 385L227 386L227 387L227 388L227 389L227 390L227 391L227 392L227 393L227 394L227 395L227 396L227 397L227 398L227 403L224 403L224 404L224 408L224 409L224 410L224 411L224 412L224 413L224 414L224 415L224 416L224 417L224 418L224 419L224 420L224 421L224 422L224 423L224 424L224 425L224 426L224 427L224 428L224 429L224 430L224 431L224 432L224 433L224 434L224 435L224 436L224 437L224 438L224 439L224 440L224 441L224 442L224 443L224 444L224 445L224 446L224 447L224 448L224 449L224 450L224 451L224 452L224 453L224 454L224 455L224 456L224 457L224 458L224 459L224 460L224 461L224 462L224 463L224 464L224 465L224 466L224 467L224 472L218 472L218 476L218 477L218 478L218 479L218 480L218 481L218 482L218 483L218 484L218 485L218 486L218 487L218 488L218 489L218 490L218 491L218 492L218 493L218 494L218 495L218 496L218 497L218 498L218 499L218 500L218 501L218 502L218 503L218 504L218 505L218 506L218 507L218 508L218 509L218 510L218 511L218 512L218 513L218 514L218 515L218 516L218 517L218 518L218 519L218 520L218 521L218 522L218 523L218 524L218 525L218 526L218 527L218 528L218 529L218 530L218 531L218 532L218 533L218 534L218 535L218 536L218 537L218 538L218 539L218 540L218 541L218 542L218 543L218 544L218 545L218 546L218 547L218 548L218 549L218 550L218 551L218 552L218 553L218 554L218 555L218 556L218 557L218 558L218 559L218 560L218 561L218 562L218 563L218 564L218 565L218 566L218 567L218 568L218 569L218 570L218 571L218 572L218 573L218 574L218 575L218 576L218 577L218 578L218 579L218 580L218 581L218 582L218 583L218 584L218 585L218 586L218 587L218 588L218 589L218 590L218 591L218 592L218 593L218 594L218 595L218 596L218 597L218 598L218 599L218 600L218 601L218 602L218 603L218 608L222 608L223 608L224 608L225 608L230 608L230 604L230 603L230 602L230 601L230 600L230 599L230 598L230 597L230 596L230 595L230 594L230 593L230 592L230 591L230 590L230 589L230 588L230 587L230 586L230 585L230 584L230 583L230 582L230 581L230 580L230 579L230 578L230 577L230 576L230 575L230 574L230 573L230 572L230 571L230 570L230 569L230 568L230 567L230 566L230 565L230 564L230 563L230 562L230 561L230 560L230 559L230 558L230 557L230 556L230 555L230 554L230 553L230 552L230 551L230 550L230 549L230 548L230 547L230 546L230 545L230 544L230 543L230 542L230 541L230 540L230 539L230 538L230 537L230 536L230 535L230 534L230 533L230 532L230 531L230 530L230 529L230 528L230 527L230 526L230 525L230 524L230 523L230 522L230 521L230 520L230 519L230 518L230 517L230 516L230 515L230 514L230 513L230 512L230 511L230 510L230 509L230 508L230 507L230 506L230 505L230 504L230 503L230 502L230 501L230 500L230 499L230 498L230 497L230 496L230 495L230 494L230 493L230 492L230 491L230 490L230 489L230 488L230 487L230 486L230 485L230 484L230 483L230 482L230 481L230 480L230 479L230 478L230 477L230 476L230 475L230 474L230 473L230 472L230 471L230 470L230 469L230 468L230 467L230 466L230 465L230 464L230 463L230 462L230 461L230 460L230 459L230 458L230 457L230 456L230 455L230 454L230 453L230 452L230 451L230 450L230 449L230 448L230 447L230 446L230 445L230 444L230 443L230 442L230 441L230 440L230 439L230 438L230 437L230 436L230 435L230 434L230 433L230 432L230 431L230 430L230 429L230 428L230 427L230 426L230 425L230 424L230 423L230 422L230 421L230 420L230 419L230 418L230 417L230 416L230 415L230 414L230 413L230 412L230 411L230 410L230 409L230 408L230 407L230 406L230 405L230 404L230 403L230 402L230 401L230 400L230 399L230 398L230 397L230 396L230 395L230 394L230 393L230 392L230 391L230 390L230 389L230 388L230 387L230 386L230 385L230 384L230 383L230 382L230 381L230 380L230 379L230 378L230 377L230 376L230 375L230 374L230 373L230 372L230 371L230 370L230 369L230 368L230 367L230 366L230 365L230 364L230 363L230 362L230 361L230 360L230 359L230 358L230 357L230 356L230 355L230 354L230 353L230 352L230 351L230 350L230 349L230 348L230 347L230 346L230 345L230 344L230 343L230 342L230 341L230 335L227 335M295 335L295 339L295 340L295 341L295 342L295 343L295 344L295 345L295 346L295 347L295 348L295 349L295 350L295 351L295 352L295 353L295 354L295 355L295 356L295 357L295 358L295 359L295 360L295 361L295 362L295 363L295 364L295 365L295 366L295 367L295 368L295 369L295 370L295 371L295 372L295 373L295 374L295 375L295 376L295 377L295 378L295 379L295 380L295 381L295 382L295 383L295 384L295 385L295 386L295 387L295 388L295 389L295 390L295 391L295 392L295 393L295 394L295 395L295 396L295 397L295 398L295 403L290 403L290 407L290 408L290 409L290 410L290 411L290 412L290 413L290 414L290 415L290 416L290 417L290 418L290 419L290 420L290 421L290 422L290 423L290 424L290 425L290 426L290 427L290 428L290 429L290 430L290 431L290 432L290 433L290 434L290 435L290 436L290 437L290 438L290 439L290 440L290 441L290 442L290 443L290 444L290 445L290 446L290 447L290 448L290 449L290 450L290 451L290 452L290 453L290 454L290 455L290 456L290 457L290 458L290 459L290 460L290 461L290 462L290 463L290 464L290 465L290 466L290 472L291 472L291 475L291 479L291 480L291 481L291 482L291 483L291 484L291 485L291 486L291 487L291 488L291 489L291 490L291 491L291 492L291 493L291 494L291 495L291 496L291 497L291 498L291 499L291 500L291 501L291 502L291 503L291 504L291 505L291 506L291 507L291 508L291 509L291 510L291 511L291 512L291 513L291 514L291 515L291 516L291 517L291 518L291 519L291 520L291 521L291 522L291 523L291 524L291 525L291 526L291 527L291 528L291 529L291 530L291 531L291 532L291 533L291 534L291 540L290 540L290 543L290 547L290 548L290 549L290 550L290 551L290 552L290 553L290 554L290 555L290 556L290 557L290 558L290 559L290 560L290 561L290 562L290 563L290 564L290 565L290 566L290 567L290 568L290 569L290 570L290 571L290 572L290 573L290 574L290 575L290 576L290 577L290 578L290 579L290 580L290 581L290 582L290 583L290 584L290 585L290 586L290 587L290 588L290 589L290 590L290 591L290 592L290 593L290 594L290 595L290 596L290 597L290 598L290 599L290 600L290 601L290 602L290 608L294 608L295 608L296 608L297 608L298 608L299 608L300 608L301 608L305 608L305 604L305 603L305 602L305 601L305 600L305 599L305 598L305 597L305 596L305 595L305 594L305 593L305 592L305 591L305 590L305 589L305 588L305 587L305 586L305 585L305 584L305 583L305 582L305 581L305 580L305 579L305 578L305 577L305 576L305 575L305 574L305 573L305 572L305 571L305 570L305 569L305 568L305 567L305 566L305 565L305 564L305 563L305 562L305 561L305 560L305 559L305 558L305 557L305 556L305 555L305 554L305 553L305 552L305 551L305 550L305 549L305 548L305 547L305 546L305 545L305 544L305 543L305 542L305 541L305 540L305 539L305 538L305 537L305 536L305 535L305 534L305 533L305 532L305 531L305 530L305 529L305 528L305 527L305 526L305 525L305 524L305 523L305 522L305 521L305 520L305 519L305 518L305 517L305 516L305 515L305 514L305 513L305 512L305 511L305 510L305 509L305 508L305 507L305 506L305 505L305 504L305 503L305 502L305 501L305 500L305 499L305 498L305 497L305 496L305 495L305 494L305 493L305 492L305 491L305 490L305 489L305 488L305 487L305 486L305 485L305 484L305 483L305 482L305 481L305 480L305 479L305 478L305 477L305 476L305 475L305 474L305 473L305 472L305 471L305 470L305 469L305 468L305 467L305 466L305 465L305 464L305 463L305 462L305 461L305 460L305 459L305 458L305 457L305 456L305 455L305 454L305 453L305 452L305 451L305 450L305 449L305 448L305 447L305 446L305 445L305 444L305 443L305 442L305 441L305 440L305 439L305 438L305 437L305 436L305 435L305 434L305 433L305 432L305 431L305 430L305 429L305 428L305 427L305 426L305 425L305 424L305 423L305 422L305 421L305 420L305 419L305 418L305 417L305 416L305 415L305 414L305 413L305 412L305 411L305 410L305 409L305 408L305 407L305 406L305 405L305 404L305 403L305 402L305 401L305 400L305 399L305 398L305 397L305 396L305 395L305 394L305 393L305 392L305 391L305 390L305 389L305 388L305 387L305 386L305 385L305 384L305 383L305 382L305 381L305 380L305 379L305 378L305 377L305 376L305 375L305 374L305 373L305 372L305 371L305 370L305 369L305 368L305 367L305 366L305 365L305 364L305 363L305 362L305 361L305 360L305 359L305 358L305 357L305 356L305 355L305 354L305 353L305 352L305 351L305 350L305 349L305 348L305 347L305 346L305 345L305 344L305 343L305 342L305 341L305 335L295 335M440 335L440 339L440 340L440 341L440 342L440 343L440 344L440 345L440 346L440 347L440 348L440 349L440 350L440 351L440 352L440 353L440 354L440 355L440 356L440 357L440 358L440 359L440 360L440 361L440 362L440 363L440 364L440 365L440 366L440 367L440 368L440 369L440 370L440 371L440 372L440 373L440 374L440 375L440 376L440 377L440 378L440 379L440 380L440 381L440 382L440 383L440 384L440 385L440 386L440 387L440 388L440 389L440 390L440 391L440 392L440 393L440 394L440 395L440 396L440 397L440 398L440 399L440 400L440 401L440 402L440 403L440 404L440 405L440 406L440 407L440 408L440 409L440 410L440 411L440 412L440 413L440 414L440 415L440 416L440 417L440 418L440 419L440 420L440 421L440 422L440 423L440 424L440 425L440 426L440 427L440 428L440 429L440 430L440 431L440 432L440 433L440 434L440 435L440 436L440 437L440 438L440 439L440 440L440 441L440 442L440 443L440 444L440 445L440 446L440 447L440 448L440 449L440 450L440 451L440 452L440 453L440 454L440 455L440 456L440 457L440 458L440 459L440 460L440 461L440 462L440 463L440 464L440 465L440 466L440 467L440 468L440 469L440 470L440 471L440 472L440 473L440 474L440 475L440 476L440 477L440 478L440 479L440 480L440 481L440 482L440 483L440 484L440 485L440 486L440 487L440 488L440 489L440 490L440 491L440 492L440 493L440 494L440 495L440 496L440 497L440 498L440 499L440 500L440 501L440 502L440 503L440 504L440 505L440 506L440 507L440 508L440 509L440 510L440 511L440 512L440 513L440 514L440 515L440 516L440 517L440 518L440 519L440 520L440 521L440 522L440 523L440 524L440 525L440 526L440 527L440 528L440 529L440 530L440 531L440 532L440 533L440 534L440 535L440 536L440 537L440 538L440 539L440 540L440 541L440 542L440 543L440 544L440 545L440 546L440 547L440 548L440 549L440 550L440 551L440 552L440 553L440 554L440 555L440 556L440 557L440 558L440 559L440 560L440 561L440 562L440 563L440 564L440 565L440 566L440 567L440 568L440 569L440 570L440 571L440 572L440 573L440 574L440 575L440 576L440 577L440 578L440 579L440 580L440 581L440 582L440 583L440 584L440 585L440 586L440 587L440 588L440 589L440 590L440 591L440 592L440 593L440 594L440 595L440 596L440 597L440 598L440 599L440 600L440 601L440 602L440 608L450 608L450 604L450 603L450 602L450 601L450 600L450 599L450 598L450 597L450 596L450 595L450 594L450 593L450 592L450 591L450 590L450 589L450 588L450 587L450 586L450 585L450 584L450 583L450 582L450 581L450 580L450 579L450 578L450 577L450 576L450 575L450 574L450 573L450 572L450 571L450 570L450 569L450 568L450 567L450 566L450 565L450 564L450 563L450 562L450 561L450 560L450 559L450 558L450 557L450 556L450 555L450 554L450 553L450 552L450 551L450 550L450 549L450 548L450 547L450 546L450 545L450 544L450 543L450 542L450 541L450 540L450 539L450 538L450 537L450 536L450 535L450 534L450 533L450 532L450 531L450 530L450 529L450 528L450 527L450 526L450 525L450 524L450 523L450 522L450 521L450 520L450 519L450 518L450 517L450 516L450 515L450 514L450 513L450 512L450 511L450 510L450 509L450 508L450 507L450 506L450 505L450 504L450 503L450 502L450 501L450 500L450 499L450 498L450 497L450 496L450 495L450 494L450 493L450 492L450 491L450 490L450 489L450 488L450 487L450 486L450 485L450 484L450 483L450 482L450 481L450 480L450 479L450 478L450 477L450 476L450 475L450 474L450 473L450 472L450 471L450 470L450 469L450 468L450 467L450 466L450 465L450 464L450 463L450 462L450 461L450 460L450 459L450 458L450 457L450 456L450 455L450 454L450 453L450 452L450 451L450 450L450 449L450 448L450 447L450 446L450 445L450 444L450 443L450 442L450 441L450 440L450 439L450 438L450 437L450 436L450 435L450 434L450 433L450 432L450 431L450 430L450 429L450 428L450 427L450 426L450 425L450 424L450 423L450 422L450 421L450 420L450 419L450 418L450 417L450 416L450 415L450 414L450 413L450 412L450 411L450 410L450 409L450 408L450 407L450 406L450 405L450 404L450 403L450 402L450 401L450 400L450 399L450 398L450 397L450 396L450 395L450 394L450 393L450 392L450 391L450 390L450 389L450 388L450 387L450 386L450 385L450 384L450 383L450 382L450 381L450 380L450 379L450 378L450 377L450 376L450 375L450 374L450 373L450 372L450 371L450 370L450 369L450 368L450 367L450 366L450 365L450 364L450 363L450 362L450 361L450 360L450 359L450 358L450 357L450 356L450 355L450 354L450 353L450 352L450 351L450 350L450 349L450 348L450 347L450 346L450 345L450 344L450 343L450 342L450 341L450 335L440 335M461 335L461 339L461 340L461 341L461 342L461 343L461 344L461 345L461 346L461 347L461 348L461 349L461 350L461 351L461 352L461 353L461 354L461 355L461 356L461 357L461 358L461 359L461 360L461 361L461 362L461 363L461 364L461 365L461 366L461 367L461 368L461 369L461 370L461 371L461 372L461 373L461 374L461 375L461 376L461 377L461 378L461 379L461 380L461 381L461 382L461 383L461 384L461 385L461 386L461 387L461 388L461 389L461 390L461 391L461 392L461 393L461 394L461 395L461 396L461 397L461 398L461 399L461 400L461 401L461 402L461 403L461 404L461 405L461 406L461 407L461 408L461 409L461 410L461 411L461 412L461 413L461 414L461 415L461 416L461 417L461 418L461 419L461 420L461 421L461 422L461 423L461 424L461 425L461 426L461 427L461 428L461 429L461 430L461 431L461 432L461 433L461 434L461 435L461 436L461 437L461 438L461 439L461 440L461 441L461 442L461 443L461 444L461 445L461 446L461 447L461 448L461 449L461 450L461 451L461 452L461 453L461 454L461 455L461 456L461 457L461 458L461 459L461 460L461 461L461 462L461 463L461 464L461 465L461 466L461 467L461 468L461 469L461 470L461 471L461 472L461 473L461 474L461 475L461 476L461 477L461 478L461 479L461 480L461 481L461 482L461 483L461 484L461 485L461 486L461 487L461 488L461 489L461 490L461 491L461 492L461 493L461 494L461 495L461 496L461 497L461 498L461 499L461 500L461 501L461 502L461 503L461 504L461 505L461 506L461 507L461 508L461 509L461 510L461 511L461 512L461 513L461 514L461 515L461 516L461 517L461 518L461 519L461 520L461 521L461 522L461 523L461 524L461 525L461 526L461 527L461 528L461 529L461 530L461 531L461 532L461 533L461 534L461 535L461 536L461 537L461 538L461 539L461 540L461 541L461 542L461 543L461 544L461 545L461 546L461 547L461 548L461 549L461 550L461 551L461 552L461 553L461 554L461 555L461 556L461 557L461 558L461 559L461 560L461 561L461 562L461 563L461 564L461 565L461 566L461 567L461 568L461 569L461 570L461 571L461 572L461 573L461 574L461 575L461 576L461 577L461 578L461 579L461 580L461 581L461 582L461 583L461 584L461 585L461 586L461 587L461 588L461 589L461 590L461 591L461 592L461 593L461 594L461 595L461 596L461 597L461 598L461 599L461 600L461 601L461 602L461 608L470 608L470 604L470 603L470 602L470 601L470 600L470 599L470 598L470 597L470 596L470 595L470 594L470 593L470 592L470 591L470 590L470 589L470 588L470 587L470 586L470 585L470 584L470 583L470 582L470 581L470 580L470 579L470 578L470 577L470 576L470 575L470 574L470 573L470 572L470 571L470 570L470 569L470 568L470 567L470 566L470 565L470 564L470 563L470 562L470 561L470 560L470 559L470 558L470 557L470 556L470 555L470 554L470 553L470 552L470 551L470 550L470 549L470 548L470 547L470 546L470 545L470 540L471 540L471 537L471 533L471 532L471 531L471 530L471 529L471 528L471 527L471 526L471 525L471 524L471 523L471 522L471 521L471 520L471 519L471 518L471 517L471 516L471 515L471 514L471 513L471 512L471 511L471 510L471 509L471 508L471 507L471 506L471 505L471 504L471 503L471 502L471 501L471 500L471 499L471 498L471 497L471 496L471 495L471 494L471 493L471 492L471 491L471 490L471 489L471 488L471 487L471 486L471 485L471 484L471 483L471 482L471 481L471 480L471 479L471 478L471 477L471 476L471 475L471 474L471 473L471 472L471 471L471 470L471 469L471 468L471 467L471 466L471 465L471 464L471 463L471 462L471 461L471 460L471 459L471 458L471 457L471 456L471 455L471 454L471 453L471 452L471 451L471 450L471 449L471 448L471 447L471 446L471 445L471 444L471 443L471 442L471 441L471 440L471 439L471 438L471 437L471 436L471 435L471 434L471 433L471 432L471 431L471 430L471 429L471 428L471 427L471 426L471 425L471 424L471 423L471 422L471 421L471 420L471 419L471 418L471 417L471 416L471 415L471 414L471 413L471 412L471 411L471 410L471 409L471 408L471 407L471 406L471 405L471 404L471 403L471 402L471 401L471 400L471 399L471 398L471 397L471 396L471 395L471 394L471 393L471 392L471 391L471 390L471 389L471 388L471 387L471 386L471 385L471 384L471 383L471 382L471 381L471 380L471 379L471 378L471 377L471 376L471 375L471 374L471 373L471 372L471 371L471 370L471 369L471 368L471 367L471 366L471 365L471 364L471 363L471 362L471 361L471 360L471 359L471 358L471 357L471 356L471 355L471 354L471 353L471 352L471 351L471 350L471 349L471 348L471 347L471 346L471 345L471 344L471 343L471 342L471 335L461 335M515 335L515 339L515 340L515 341L515 342L515 343L515 344L515 345L515 346L515 347L515 348L515 349L515 350L515 351L515 352L515 353L515 354L515 355L515 356L515 357L515 358L515 359L515 360L515 361L515 362L515 363L515 364L515 365L515 366L515 367L515 368L515 369L515 370L515 371L515 372L515 373L515 374L515 375L515 376L515 377L515 378L515 379L515 380L515 381L515 382L515 383L515 384L515 385L515 386L515 387L515 388L515 389L515 390L515 391L515 392L515 393L515 394L515 395L515 396L515 397L515 398L515 399L515 400L515 401L515 402L515 403L515 404L515 405L515 406L515 407L515 408L515 409L515 410L515 411L515 412L515 413L515 414L515 415L515 416L515 417L515 418L515 419L515 420L515 421L515 422L515 423L515 424L515 425L515 426L515 427L515 428L515 429L515 430L515 431L515 432L515 433L515 434L515 435L515 436L515 437L515 438L515 439L515 440L515 441L515 442L515 443L515 444L515 445L515 446L515 447L515 448L515 449L515 450L515 451L515 452L515 453L515 454L515 455L515 456L515 457L515 458L515 459L515 460L515 461L515 462L515 463L515 464L515 465L515 466L515 467L515 468L515 469L515 470L515 471L515 472L515 473L515 474L515 475L515 476L515 477L515 478L515 479L515 480L515 481L515 482L515 483L515 484L515 485L515 486L515 487L515 488L515 489L515 490L515 491L515 492L515 493L515 494L515 495L515 496L515 497L515 498L515 499L515 500L515 501L515 502L515 503L515 504L515 505L515 506L515 507L515 508L515 509L515 510L515 511L515 512L515 513L515 514L515 515L515 516L515 517L515 518L515 519L515 520L515 521L515 522L515 523L515 524L515 525L515 526L515 527L515 528L515 529L515 530L515 531L515 532L515 533L515 534L515 540L518 540L518 539L518 535L518 534L518 533L518 532L518 531L518 530L518 529L518 528L518 527L518 526L518 525L518 524L518 523L518 522L518 521L518 520L518 519L518 518L518 517L518 516L518 515L518 514L518 513L518 512L518 511L518 510L518 509L518 508L518 507L518 506L518 505L518 504L518 503L518 502L518 501L518 500L518 499L518 498L518 497L518 496L518 495L518 494L518 493L518 492L518 491L518 490L518 489L518 488L518 487L518 486L518 485L518 484L518 483L518 482L518 481L518 480L518 479L518 478L518 477L518 476L518 475L518 474L518 473L518 472L518 471L518 470L518 469L518 468L518 467L518 466L518 465L518 464L518 463L518 462L518 461L518 460L518 459L518 458L518 457L518 456L518 455L518 454L518 453L518 452L518 451L518 450L518 449L518 448L518 447L518 446L518 445L518 444L518 443L518 442L518 441L518 440L518 439L518 438L518 437L518 436L518 435L518 434L518 433L518 432L518 431L518 430L518 429L518 428L518 427L518 426L518 425L518 424L518 423L518 422L518 421L518 420L518 419L518 418L518 417L518 416L518 415L518 414L518 413L518 412L518 411L518 410L518 409L518 408L518 407L518 406L518 405L518 404L518 403L518 402L518 401L518 400L518 399L518 398L518 397L518 396L518 395L518 394L518 393L518 392L518 391L518 390L518 389L518 388L518 387L518 386L518 385L518 384L518 383L518 382L518 381L518 380L518 379L518 378L518 377L518 376L518 375L518 374L518 373L518 372L518 371L518 370L518 369L518 368L518 367L518 366L518 365L518 364L518 363L518 362L518 361L518 360L518 359L518 358L518 357L518 356L518 355L518 354L518 353L518 352L518 351L518 350L518 349L518 348L518 347L518 346L518 345L518 344L518 343L518 342L518 341L518 340L518 335L515 335M274 402L269 403L269 407L269 408L269 409L269 410L269 411L269 412L269 413L269 414L269 415L269 416L269 417L269 418L269 419L269 420L269 421L269 422L269 423L269 424L269 425L269 426L269 427L269 428L269 429L269 430L269 431L269 432L269 433L269 434L269 435L269 436L269 437L269 438L269 439L269 440L269 441L269 442L269 443L269 444L269 445L269 446L269 447L269 448L269 449L269 450L269 451L269 452L269 453L269 454L269 455L269 456L269 457L269 458L269 459L269 460L269 461L269 462L269 463L269 464L269 465L269 466L269 472L270 472L270 475L270 479L270 480L270 481L270 482L270 483L270 484L270 485L270 486L270 487L270 488L270 489L270 490L270 491L270 492L270 493L270 494L270 495L270 496L270 497L270 498L270 499L270 500L270 501L270 502L270 503L270 504L270 505L270 506L270 507L270 508L270 509L270 510L270 511L270 512L270 513L270 514L270 515L270 516L270 517L270 518L270 519L270 520L270 521L270 522L270 523L270 524L270 525L270 526L270 527L270 528L270 529L270 530L270 531L270 532L270 533L270 534L270 540L269 540L269 543L269 547L269 548L269 549L269 550L269 551L269 552L269 553L269 554L269 555L269 556L269 557L269 558L269 559L269 560L269 561L269 562L269 563L269 564L269 565L269 566L269 567L269 568L269 569L269 570L269 571L269 572L269 573L269 574L269 575L269 576L269 577L269 578L269 579L269 580L269 581L269 582L269 583L269 584L269 585L269 586L269 587L269 588L269 589L269 590L269 591L269 592L269 593L269 594L269 595L269 596L269 597L269 598L269 599L269 600L269 601L269 602L269 608L275 608L275 604L275 603L275 602L275 601L275 600L275 599L275 598L275 597L275 596L275 595L275 594L275 593L275 592L275 591L275 590L275 589L275 588L275 587L275 586L275 585L275 584L275 583L275 582L275 581L275 580L275 579L275 578L275 577L275 576L275 575L275 574L275 573L275 572L275 571L275 570L275 569L275 568L275 567L275 566L275 565L275 564L275 563L275 562L275 561L275 560L275 559L275 558L275 557L275 556L275 555L275 554L275 553L275 552L275 551L275 550L275 549L275 548L275 547L275 546L275 545L275 544L275 543L275 542L275 541L275 540L275 539L275 538L275 537L275 536L275 535L275 534L275 533L275 532L275 531L275 530L275 529L275 528L275 527L275 526L275 525L275 524L275 523L275 522L275 521L275 520L275 519L275 518L275 517L275 516L275 515L275 514L275 513L275 512L275 511L275 510L275 509L275 508L275 507L275 506L275 505L275 504L275 503L275 502L275 501L275 500L275 499L275 498L275 497L275 496L275 495L275 494L275 493L275 492L275 491L275 490L275 489L275 488L275 487L275 486L275 485L275 484L275 483L275 482L275 481L275 480L275 479L275 478L275 477L275 476L275 475L275 474L275 473L275 472L275 471L275 470L275 469L275 468L275 467L275 466L275 465L275 464L275 463L275 462L275 461L275 460L275 459L275 458L275 457L275 456L275 455L275 454L275 453L275 452L275 451L275 450L275 449L275 448L275 447L275 446L275 445L275 444L275 443L275 442L275 441L275 440L275 439L275 438L275 437L275 436L275 435L275 434L275 433L275 432L275 431L275 430L275 429L275 428L275 427L275 426L275 425L275 424L275 423L275 422L275 421L275 420L275 419L275 418L275 417L275 416L275 415L275 414L275 413L275 412L275 411L275 410L275 409L274 402M288 540L288 544L288 545L288 546L288 547L288 548L288 549L288 550L288 551L288 552L288 553L288 554L288 555L288 556L288 557L288 558L288 559L288 560L288 561L288 562L288 563L288 564L288 565L288 566L288 567L288 568L288 569L288 570L288 571L288 572L288 573L288 574L288 575L288 576L288 577L288 578L288 579L288 580L288 581L288 582L288 583L288 584L288 585L288 586L288 587L288 588L288 589L288 590L288 591L288 592L288 593L288 594L288 595L288 596L288 597L288 598L288 599L288 600L288 601L288 602L288 603L288 608L289 608L289 605L289 601L289 600L289 599L289 598L289 597L289 596L289 595L289 594L289 593L289 592L289 591L289 590L289 589L289 588L289 587L289 586L289 585L289 584L289 583L289 582L289 581L289 580L289 579L289 578L289 577L289 576L289 575L289 574L289 573L289 572L289 571L289 570L289 569L289 568L289 567L289 566L289 565L289 564L289 563L289 562L289 561L289 560L289 559L289 558L289 557L289 556L289 555L289 554L289 553L289 552L289 551L289 550L289 549L289 548L289 547L289 546L288 540M474 540L474 544L474 545L474 546L474 547L474 548L474 549L474 550L474 551L474 552L474 553L474 554L474 555L474 556L474 557L474 558L474 559L474 560L474 561L474 562L474 563L474 564L474 565L474 566L474 567L474 568L474 569L474 570L474 571L474 572L474 573L474 574L474 575L474 576L474 577L474 578L474 579L474 580L474 581L474 582L474 583L474 584L474 585L474 586L474 587L474 588L474 589L474 590L474 591L474 592L474 593L474 594L474 595L474 596L474 597L474 598L474 599L474 600L474 601L474 602L474 603L474 608L475 608L475 605L475 601L475 600L475 599L475 598L475 597L475 596L475 595L475 594L475 593L475 592L475 591L475 590L475 589L475 588L475 587L475 586L475 585L475 584L475 583L475 582L475 581L475 580L475 579L475 578L475 577L475 576L475 575L475 574L475 573L475 572L475 571L475 570L475 569L475 568L475 567L475 566L475 565L475 564L475 563L475 562L475 561L475 560L475 559L475 558L475 557L475 556L475 555L475 554L475 553L475 552L475 551L475 550L475 549L475 548L475 547L475 546L474 540M480 540L480 544L480 545L480 546L480 547L480 548L480 549L480 550L480 551L480 552L480 553L480 554L480 555L480 556L480 557L480 558L480 559L480 560L480 561L480 562L480 563L480 564L480 565L480 566L480 567L480 568L480 569L480 570L480 571L480 572L480 573L480 574L480 575L480 576L480 577L480 578L480 579L480 580L480 581L480 582L480 583L480 584L480 585L480 586L480 587L480 588L480 589L480 590L480 591L480 592L480 593L480 594L480 595L480 596L480 597L480 598L480 599L480 600L480 601L480 602L480 603L480 608L481 608L481 605L481 601L481 600L481 599L481 598L481 597L481 596L481 595L481 594L481 593L481 592L481 591L481 590L481 589L481 588L481 587L481 586L481 585L481 584L481 583L481 582L481 581L481 580L481 579L481 578L481 577L481 576L481 575L481 574L481 573L481 572L481 571L481 570L481 569L481 568L481 567L481 566L481 565L481 564L481 563L481 562L481 561L481 560L481 559L481 558L481 557L481 556L481 555L481 554L481 553L481 552L481 551L481 550L481 549L481 548L481 547L481 546L480 540M525 540L525 544L525 545L525 546L525 547L525 548L525 549L525 550L525 551L525 552L525 553L525 554L525 555L525 556L525 557L525 558L525 559L525 560L525 561L525 562L525 563L525 564L525 565L525 566L525 567L525 568L525 569L525 570L525 571L525 572L525 573L525 574L525 575L525 576L525 577L525 578L525 579L525 580L525 581L525 582L525 583L525 584L525 585L525 586L525 587L525 588L525 589L525 590L525 591L525 592L525 593L525 594L525 595L525 596L525 597L525 598L525 599L525 600L525 601L525 602L525 603L525 608L532 608L532 604L532 603L532 602L532 601L532 600L532 599L532 598L532 597L532 596L532 595L532 594L532 593L532 592L532 591L532 590L532 589L532 588L532 587L532 586L532 585L532 584L532 583L532 582L532 581L532 580L532 579L532 578L532 577L532 576L532 575L532 574L532 573L532 572L532 571L532 570L532 569L532 568L532 567L532 566L532 565L532 564L532 563L532 562L532 561L532 560L532 559L532 558L532 557L532 556L532 555L532 554L532 553L532 552L532 551L532 550L532 549L532 548L532 547L532 546L532 545L532 540L525 540M533 540L533 544L533 545L533 546L533 547L533 548L533 549L533 550L533 551L533 552L533 553L533 554L533 555L533 556L533 557L533 558L533 559L533 560L533 561L533 562L533 563L533 564L533 565L533 566L533 567L533 568L533 569L533 570L533 571L533 572L533 573L533 574L533 575L533 576L533 577L533 578L533 579L533 580L533 581L533 582L533 583L533 584L533 585L533 586L533 587L533 588L533 589L533 590L533 591L533 592L533 593L533 594L533 595L533 596L533 597L533 598L533 599L533 600L533 601L533 602L533 603L533 608L534 608L534 605L534 601L534 600L534 599L534 598L534 597L534 596L534 595L534 594L534 593L534 592L534 591L534 590L534 589L534 588L534 587L534 586L534 585L534 584L534 583L534 582L534 581L534 580L534 579L534 578L534 577L534 576L534 575L534 574L534 573L534 572L534 571L534 570L534 569L534 568L534 567L534 566L534 565L534 564L534 563L534 562L534 561L534 560L534 559L534 558L534 557L534 556L534 555L534 554L534 553L534 552L534 551L534 550L534 549L534 548L534 547L534 546L533 540z"/>
</svg>
