<?xml version="1.0" standalone="yes"?>
<svg width="900" height="900">
<path style="fill:#090909; stroke:none;" d="M420 266L420 270L420 271L420 272L420 273L420 274L420 275L420 276L420 277L420 278L420 279L420 280L420 281L420 282L420 283L420 284L420 285L420 286L420 287L420 288L420 289L420 290L420 291L420 292L420 293L420 294L420 295L420 296L420 297L420 298L420 299L420 300L420 301L420 302L420 303L420 304L420 305L420 306L420 307L420 308L420 309L420 310L420 311L420 312L420 313L420 314L420 315L420 316L420 317L420 318L420 319L420 320L420 321L420 322L420 323L420 324L420 325L420 326L420 327L420 328L420 329L420 335L417 334L415 334L410 335L410 339L410 340L410 341L410 342L410 343L410 344L410 345L410 346L410 347L410 348L410 349L410 350L410 351L410 352L410 353L410 354L410 355L410 356L410 357L410 358L410 359L410 360L410 361L410 362L410 363L410 364L410 365L410 366L410 367L410 368L410 369L410 370L410 371L410 372L410 373L410 374L410 375L410 376L410 377L410 378L410 379L410 380L410 381L410 382L410 383L410 384L410 385L410 386L410 387L410 388L410 389L410 390L410 391L410 392L410 393L410 394L410 395L410 396L410 397L410 398L410 403L414 403L415 403L416 403L417 403L421 403L421 407L421 408L421 409L421 410L421 411L421 412L421 413L421 414L421 415L421 416L421 417L421 418L421 419L421 420L421 421L421 422L421 423L421 424L421 425L421 426L421 427L421 428L421 429L421 430L421 431L421 432L421 433L421 434L421 435L421 436L421 437L421 438L421 439L421 440L421 441L421 442L421 443L421 444L421 445L421 446L421 447L421 448L421 449L421 450L421 451L421 452L421 453L421 454L421 455L421 456L421 457L421 458L421 459L421 460L421 461L421 462L421 463L421 464L421 465L421 466L421 472L431 472L431 476L431 477L431 478L431 479L431 480L431 481L431 482L431 483L431 484L431 485L431 486L431 487L431 488L431 489L431 490L431 491L431 492L431 493L431 494L431 495L431 496L431 497L431 498L431 499L431 500L431 501L431 502L431 503L431 504L431 505L431 506L431 507L431 508L431 509L431 510L431 511L431 512L431 513L431 514L431 515L431 516L431 517L431 518L431 519L431 520L431 521L431 522L431 523L431 524L431 525L431 526L431 527L431 528L431 529L431 530L431 531L431 532L431 533L431 534L431 535L431 540L440 540L440 544L440 545L440 546L440 547L440 548L440 549L440 550L440 551L440 552L440 553L440 554L440 555L440 556L440 557L440 558L440 559L440 560L440 561L440 562L440 563L440 564L440 565L440 566L440 567L440 568L440 569L440 570L440 571L440 572L440 573L440 574L440 575L440 576L440 577L440 578L440 579L440 580L440 581L440 582L440 583L440 584L440 585L440 586L440 587L440 588L440 589L440 590L440 591L440 592L440 593L440 594L440 595L440 596L440 597L440 598L440 599L440 600L440 601L440 602L440 603L440 608L450 608L450 604L450 603L450 602L450 601L450 600L450 599L450 598L450 597L450 596L450 595L450 594L450 593L450 592L450 591L450 590L450 589L450 588L450 587L450 586L450 585L450 584L450 583L450 582L450 581L450 580L450 579L450 578L450 577L450 576L450 575L450 574L450 573L450 572L450 571L450 570L450 569L450 568L450 567L450 566L450 565L450 564L450 563L450 562L450 561L450 560L450 559L450 558L450 557L450 556L450 555L450 554L450 553L450 552L450 551L450 550L450 549L450 548L450 547L450 546L450 545L450 540L442 540L442 536L442 535L442 534L442 533L442 532L442 531L442 530L442 529L442 528L442 527L442 526L442 525L442 524L442 523L442 522L442 521L442 520L442 519L442 518L442 517L442 516L442 515L442 514L442 513L442 512L442 511L442 510L442 509L442 508L442 507L442 506L442 505L442 504L442 503L442 502L442 501L442 500L442 499L442 498L442 497L442 496L442 495L442 494L442 493L442 492L442 491L442 490L442 489L442 488L442 487L442 486L442 485L442 484L442 483L442 482L442 481L442 480L442 479L442 478L442 477L442 472L433 472L433 468L433 467L433 466L433 465L433 464L433 463L433 462L433 461L433 460L433 459L433 458L433 457L433 456L433 455L433 454L433 453L433 452L433 451L433 450L433 449L433 448L433 447L433 446L433 445L433 444L433 443L433 442L433 441L433 440L433 439L433 438L433 437L433 436L433 435L433 434L433 433L433 432L433 431L433 430L433 429L433 428L433 427L433 426L433 425L433 424L433 423L433 422L433 421L433 420L433 419L433 418L433 417L433 416L433 415L433 414L433 413L433 412L433 411L433 410L433 409L433 403L430 402L430 398L430 397L430 396L430 395L430 394L430 393L430 392L430 391L430 390L430 389L430 388L430 387L430 386L430 385L430 384L430 383L430 382L430 381L430 380L430 379L430 378L430 377L430 376L430 375L430 374L430 373L430 372L430 371L430 370L430 369L430 368L430 367L430 366L430 365L430 364L430 363L430 362L430 361L430 360L430 359L430 358L430 357L430 356L430 355L430 354L430 353L430 352L430 351L430 350L430 349L430 348L430 347L430 346L430 345L430 344L430 343L430 342L430 341L430 340L430 339L430 335L421 335L421 331L421 330L421 329L421 328L421 327L421 326L421 325L421 324L421 323L421 322L421 321L421 320L421 319L421 318L421 317L421 316L421 315L421 314L421 313L421 312L421 311L421 310L421 309L421 308L421 307L421 306L421 305L421 304L421 303L421 302L421 301L421 300L421 299L421 298L421 297L421 296L421 295L421 294L421 293L421 292L421 291L421 290L421 289L421 288L421 287L421 286L421 285L421 284L421 283L421 282L421 281L421 280L421 279L421 278L421 277L421 276L421 275L421 274L421 273L421 272L420 266M315 335L315 339L315 340L315 341L315 342L315 343L315 344L315 345L315 346L315 347L315 348L315 349L315 350L315 351L315 352L315 353L315 354L315 355L315 356L315 357L315 358L315 359L315 360L315 361L315 362L315 363L315 364L315 365L315 366L315 367L315 368L315 369L315 370L315 371L315 372L315 373L315 374L315 375L315 376L315 377L315 378L315 379L315 380L315 381L315 382L315 383L315 384L315 385L315 386L315 387L315 388L315 389L315 390L315 391L315 392L315 393L315 394L315 395L315 396L315 397L315 398L315 403L313 403L313 405L313 409L313 410L313 411L313 412L313 413L313 414L313 415L313 416L313 417L313 418L313 419L313 420L313 421L313 422L313 423L313 424L313 425L313 426L313 427L313 428L313 429L313 430L313 431L313 432L313 433L313 434L313 435L313 436L313 437L313 438L313 439L313 440L313 441L313 442L313 443L313 444L313 445L313 446L313 447L313 448L313 449L313 450L313 451L313 452L313 453L313 454L313 455L313 456L313 457L313 458L313 459L313 460L313 461L313 462L313 463L313 464L313 465L313 466L313 467L313 468L313 472L309 472L308 472L307 472L306 472L305 472L304 472L303 472L302 472L298 472L298 476L298 477L298 478L298 479L298 480L298 481L298 482L298 483L298 484L298 485L298 486L298 487L298 488L298 489L298 490L298 491L298 492L298 493L298 494L298 495L298 496L298 497L298 498L298 499L298 500L298 501L298 502L298 503L298 504L298 505L298 506L298 507L298 508L298 509L298 510L298 511L298 512L298 513L298 514L298 515L298 516L298 517L298 518L298 519L298 520L298 521L298 522L298 523L298 524L298 525L298 526L298 527L298 528L298 529L298 530L298 531L298 532L298 533L298 534L298 535L298 540L294 540L293 540L292 540L291 540L287 540L287 544L287 545L287 546L287 547L287 548L287 549L287 550L287 551L287 552L287 553L287 554L287 555L287 556L287 557L287 558L287 559L287 560L287 561L287 562L287 563L287 564L287 565L287 566L287 567L287 568L287 569L287 570L287 571L287 572L287 573L287 574L287 575L287 576L287 577L287 578L287 579L287 580L287 581L287 582L287 583L287 584L287 585L287 586L287 587L287 588L287 589L287 590L287 591L287 592L287 593L287 594L287 595L287 596L287 597L287 598L287 599L287 600L287 601L287 602L287 603L287 608L291 608L292 608L293 608L294 608L295 608L296 608L297 608L298 608L305 608L305 604L305 603L305 602L305 601L305 600L305 599L305 598L305 597L305 596L305 595L305 594L305 593L305 592L305 591L305 590L305 589L305 588L305 587L305 586L305 585L305 584L305 583L305 582L305 581L305 580L305 579L305 578L305 577L305 576L305 575L305 574L305 573L305 572L305 571L305 570L305 569L305 568L305 567L305 566L305 565L305 564L305 563L305 562L305 561L305 560L305 559L305 558L305 557L305 556L305 555L305 554L305 553L305 552L305 551L305 550L305 549L305 548L305 547L305 546L305 545L305 540L315 540L315 536L315 535L315 534L315 533L315 532L315 531L315 530L315 529L315 528L315 527L315 526L315 525L315 524L315 523L315 522L315 521L315 520L315 519L315 518L315 517L315 516L315 515L315 514L315 513L315 512L315 511L315 510L315 509L315 508L315 507L315 506L315 505L315 504L315 503L315 502L315 501L315 500L315 499L315 498L315 497L315 496L315 495L315 494L315 493L315 492L315 491L315 490L315 489L315 488L315 487L315 486L315 485L315 484L315 483L315 482L315 481L315 480L315 479L315 478L315 477L315 472L319 472L320 472L321 472L322 472L326 472L326 468L326 467L326 466L326 465L326 464L326 463L326 462L326 461L326 460L326 459L326 458L326 457L326 456L326 455L326 454L326 453L326 452L326 451L326 450L326 449L326 448L326 447L326 446L326 445L326 444L326 443L326 442L326 441L326 440L326 439L326 438L326 437L326 436L326 435L326 434L326 433L326 432L326 431L326 430L326 429L326 428L326 427L326 426L326 425L326 424L326 423L326 422L326 421L326 420L326 419L326 418L326 417L326 416L326 415L326 414L326 413L326 412L326 411L326 410L326 409L326 403L336 403L336 399L336 398L336 397L336 396L336 395L336 394L336 393L336 392L336 391L336 390L336 389L336 388L336 387L336 386L336 385L336 384L336 383L336 382L336 381L336 380L336 379L336 378L336 377L336 376L336 375L336 374L336 373L336 372L336 371L336 370L336 369L336 368L336 367L336 366L336 365L336 364L336 363L336 362L336 361L336 360L336 359L336 358L336 357L336 356L336 355L336 354L336 353L336 352L336 351L336 350L336 349L336 348L336 347L336 346L336 345L336 344L336 343L336 342L336 341L336 340L336 335L332 335L331 335L330 335L329 335L328 335L327 335L326 335L325 335L324 335L323 335L322 335L321 335L315 335M356 335L356 339L356 340L356 341L356 342L356 343L356 344L356 345L356 346L356 347L356 348L356 349L356 350L356 351L356 352L356 353L356 354L356 355L356 356L356 357L356 358L356 359L356 360L356 361L356 362L356 363L356 364L356 365L356 366L356 367L356 368L356 369L356 370L356 371L356 372L356 373L356 374L356 375L356 376L356 377L356 378L356 379L356 380L356 381L356 382L356 383L356 384L356 385L356 386L356 387L356 388L356 389L356 390L356 391L356 392L356 393L356 394L356 395L356 396L356 397L356 398L356 403L366 403L366 407L366 408L366 409L366 410L366 411L366 412L366 413L366 414L366 415L366 416L366 417L366 418L366 419L366 420L366 421L366 422L366 423L366 424L366 425L366 426L366 427L366 428L366 429L366 430L366 431L366 432L366 433L366 434L366 435L366 436L366 437L366 438L366 439L366 440L366 441L366 442L366 443L366 444L366 445L366 446L366 447L366 448L366 449L366 450L366 451L366 452L366 453L366 454L366 455L366 456L366 457L366 458L366 459L366 460L366 461L366 462L366 463L366 464L366 465L366 466L366 472L370 472L371 472L372 472L373 472L379 472L379 468L379 467L379 466L379 465L379 464L379 463L379 462L379 461L379 460L379 459L379 458L379 457L379 456L379 455L379 454L379 453L379 452L379 451L379 450L379 449L379 448L379 447L379 446L379 445L379 444L379 443L379 442L379 441L379 440L379 439L379 438L379 437L379 436L379 435L379 434L379 433L379 432L379 431L379 430L379 429L379 428L379 427L379 426L379 425L379 424L379 423L379 422L379 421L379 420L379 419L379 418L379 417L379 416L379 415L379 414L379 413L379 412L379 411L379 410L379 409L379 403L383 403L384 403L385 403L386 403L390 403L390 399L390 398L390 397L390 396L390 395L390 394L390 393L390 392L390 391L390 390L390 389L390 388L390 387L390 386L390 385L390 384L390 383L390 382L390 381L390 380L390 379L390 378L390 377L390 376L390 375L390 374L390 373L390 372L390 371L390 370L390 369L390 368L390 367L390 366L390 365L390 364L390 363L390 362L390 361L390 360L390 359L390 358L390 357L390 356L390 355L390 354L390 353L390 352L390 351L390 350L390 349L390 348L390 347L390 346L390 345L390 344L390 343L390 342L390 341L390 340L390 335L386 335L385 335L384 335L383 335L382 335L381 335L380 335L379 335L378 335L377 335L376 335L375 335L374 335L373 335L372 335L371 335L370 335L369 335L368 335L367 335L366 335L365 335L364 335L363 335L356 335M450 335L450 339L450 340L450 341L450 342L450 343L450 344L450 345L450 346L450 347L450 348L450 349L450 350L450 351L450 352L450 353L450 354L450 355L450 356L450 357L450 358L450 359L450 360L450 361L450 362L450 363L450 364L450 365L450 366L450 367L450 368L450 369L450 370L450 371L450 372L450 373L450 374L450 375L450 376L450 377L450 378L450 379L450 380L450 381L450 382L450 383L450 384L450 385L450 386L450 387L450 388L450 389L450 390L450 391L450 392L450 393L450 394L450 395L450 396L450 397L450 398L450 399L450 400L450 401L450 402L450 403L450 404L450 405L450 406L450 407L450 408L450 409L450 410L450 411L450 412L450 413L450 414L450 415L450 416L450 417L450 418L450 419L450 420L450 421L450 422L450 423L450 424L450 425L450 426L450 427L450 428L450 429L450 430L450 431L450 432L450 433L450 434L450 435L450 436L450 437L450 438L450 439L450 440L450 441L450 442L450 443L450 444L450 445L450 446L450 447L450 448L450 449L450 450L450 451L450 452L450 453L450 454L450 455L450 456L450 457L450 458L450 459L450 460L450 461L450 462L450 463L450 464L450 465L450 466L450 472L451 472L451 475L451 479L451 480L451 481L451 482L451 483L451 484L451 485L451 486L451 487L451 488L451 489L451 490L451 491L451 492L451 493L451 494L451 495L451 496L451 497L451 498L451 499L451 500L451 501L451 502L451 503L451 504L451 505L451 506L451 507L451 508L451 509L451 510L451 511L451 512L451 513L451 514L451 515L451 516L451 517L451 518L451 519L451 520L451 521L451 522L451 523L451 524L451 525L451 526L451 527L451 528L451 529L451 530L451 531L451 532L451 533L451 534L451 540L461 540L461 544L461 545L461 546L461 547L461 548L461 549L461 550L461 551L461 552L461 553L461 554L461 555L461 556L461 557L461 558L461 559L461 560L461 561L461 562L461 563L461 564L461 565L461 566L461 567L461 568L461 569L461 570L461 571L461 572L461 573L461 574L461 575L461 576L461 577L461 578L461 579L461 580L461 581L461 582L461 583L461 584L461 585L461 586L461 587L461 588L461 589L461 590L461 591L461 592L461 593L461 594L461 595L461 596L461 597L461 598L461 599L461 600L461 601L461 602L461 603L461 608L465 608L466 608L467 608L468 608L469 608L470 608L471 608L472 608L479 608L479 604L479 603L479 602L479 601L479 600L479 599L479 598L479 597L479 596L479 595L479 594L479 593L479 592L479 591L479 590L479 589L479 588L479 587L479 586L479 585L479 584L479 583L479 582L479 581L479 580L479 579L479 578L479 577L479 576L479 575L479 574L479 573L479 572L479 571L479 570L479 569L479 568L479 567L479 566L479 565L479 564L479 563L479 562L479 561L479 560L479 559L479 558L479 557L479 556L479 555L479 554L479 553L479 552L479 551L479 550L479 549L479 548L479 547L479 546L479 545L479 540L475 540L474 540L473 540L472 540L471 540L470 540L469 540L468 540L462 540L462 536L462 535L462 534L462 533L462 532L462 531L462 530L462 529L462 528L462 527L462 526L462 525L462 524L462 523L462 522L462 521L462 520L462 519L462 518L462 517L462 516L462 515L462 514L462 513L462 512L462 511L462 510L462 509L462 508L462 507L462 506L462 505L462 504L462 503L462 502L462 501L462 500L462 499L462 498L462 497L462 496L462 495L462 494L462 493L462 492L462 491L462 490L462 489L462 488L462 487L462 486L462 485L462 484L462 483L462 482L462 481L462 480L462 479L462 478L462 477L462 472L453 472L453 468L453 467L453 466L453 465L453 464L453 463L453 462L453 461L453 460L453 459L453 458L453 457L453 456L453 455L453 454L453 453L453 452L453 451L453 450L453 449L453 448L453 447L453 446L453 445L453 444L453 443L453 442L453 441L453 440L453 439L453 438L453 437L453 436L453 435L453 434L453 433L453 432L453 431L453 430L453 429L453 428L453 427L453 426L453 425L453 424L453 423L453 422L453 421L453 420L453 419L453 418L453 417L453 416L453 415L453 414L453 413L453 412L453 411L453 410L453 409L453 403L451 403L451 401L451 397L451 396L451 395L451 394L451 393L451 392L451 391L451 390L451 389L451 388L451 387L451 386L451 385L451 384L451 383L451 382L451 381L451 380L451 379L451 378L451 377L451 376L451 375L451 374L451 373L451 372L451 371L451 370L451 369L451 368L451 367L451 366L451 365L451 364L451 363L451 362L451 361L451 360L451 359L451 358L451 357L451 356L451 355L451 354L451 353L451 352L451 351L451 350L451 349L451 348L451 347L451 346L451 345L451 344L451 343L451 342L450 335M240 403L240 407L240 408L240 409L240 410L240 411L240 412L240 413L240 414L240 415L240 416L240 417L240 418L240 419L240 420L240 421L240 422L240 423L240 424L240 425L240 426L240 427L240 428L240 429L240 430L240 431L240 432L240 433L240 434L240 435L240 436L240 437L240 438L240 439L240 440L240 441L240 442L240 443L240 444L240 445L240 446L240 447L240 448L240 449L240 450L240 451L240 452L240 453L240 454L240 455L240 456L240 457L240 458L240 459L240 460L240 461L240 462L240 463L240 464L240 465L240 466L240 472L235 472L235 476L235 477L235 478L235 479L235 480L235 481L235 482L235 483L235 484L235 485L235 486L235 487L235 488L235 489L235 490L235 491L235 492L235 493L235 494L235 495L235 496L235 497L235 498L235 499L235 500L235 501L235 502L235 503L235 504L235 505L235 506L235 507L235 508L235 509L235 510L235 511L235 512L235 513L235 514L235 515L235 516L235 517L235 518L235 519L235 520L235 521L235 522L235 523L235 524L235 525L235 526L235 527L235 528L235 529L235 530L235 531L235 532L235 533L235 534L235 535L235 540L241 540L241 536L241 535L241 534L241 533L241 532L241 531L241 530L241 529L241 528L241 527L241 526L241 525L241 524L241 523L241 522L241 521L241 520L241 519L241 518L241 517L241 516L241 515L241 514L241 513L241 512L241 511L241 510L241 509L241 508L241 507L241 506L241 505L241 504L241 503L241 502L241 501L241 500L241 499L241 498L241 497L241 496L241 495L241 494L241 493L241 492L241 491L241 490L241 489L241 488L241 487L241 486L241 485L241 484L241 483L241 482L241 481L241 480L241 479L241 478L241 477L241 472L246 472L246 468L246 467L246 466L246 465L246 464L246 463L246 462L246 461L246 460L246 459L246 458L246 457L246 456L246 455L246 454L246 453L246 452L246 451L246 450L246 449L246 448L246 447L246 446L246 445L246 444L246 443L246 442L246 441L246 440L246 439L246 438L246 437L246 436L246 435L246 434L246 433L246 432L246 431L246 430L246 429L246 428L246 427L246 426L246 425L246 424L246 423L246 422L246 421L246 420L246 419L246 418L246 417L246 416L246 415L246 414L246 413L246 412L246 411L246 410L246 409L246 403L240 403M506 472L506 476L506 477L506 478L506 479L506 480L506 481L506 482L506 483L506 484L506 485L506 486L506 487L506 488L506 489L506 490L506 491L506 492L506 493L506 494L506 495L506 496L506 497L506 498L506 499L506 500L506 501L506 502L506 503L506 504L506 505L506 506L506 507L506 508L506 509L506 510L506 511L506 512L506 513L506 514L506 515L506 516L506 517L506 518L506 519L506 520L506 521L506 522L506 523L506 524L506 525L506 526L506 527L506 528L506 529L506 530L506 531L506 532L506 533L506 534L506 535L506 540L510 540L510 536L510 535L510 534L510 533L510 532L510 531L510 530L510 529L510 528L510 527L510 526L510 525L510 524L510 523L510 522L510 521L510 520L510 519L510 518L510 517L510 516L510 515L510 514L510 513L510 512L510 511L510 510L510 509L510 508L510 507L510 506L510 505L510 504L510 503L510 502L510 501L510 500L510 499L510 498L510 497L510 496L510 495L510 494L510 493L510 492L510 491L510 490L510 489L510 488L510 487L510 486L510 485L510 484L510 483L510 482L510 481L510 480L510 479L510 478L510 477L510 472L506 472M218 540L218 544L218 545L218 546L218 547L218 548L218 549L218 550L218 551L218 552L218 553L218 554L218 555L218 556L218 557L218 558L218 559L218 560L218 561L218 562L218 563L218 564L218 565L218 566L218 567L218 568L218 569L218 570L218 571L218 572L218 573L218 574L218 575L218 576L218 577L218 578L218 579L218 580L218 581L218 582L218 583L218 584L218 585L218 586L218 587L218 588L218 589L218 590L218 591L218 592L218 593L218 594L218 595L218 596L218 597L218 598L218 599L218 600L218 601L218 602L218 603L218 608L222 608L223 608L224 608L225 608L230 608L230 604L230 603L230 602L230 601L230 600L230 599L230 598L230 597L230 596L230 595L230 594L230 593L230 592L230 591L230 590L230 589L230 588L230 587L230 586L230 585L230 584L230 583L230 582L230 581L230 580L230 579L230 578L230 577L230 576L230 575L230 574L230 573L230 572L230 571L230 570L230 569L230 568L230 567L230 566L230 565L230 564L230 563L230 562L230 561L230 560L230 559L230 558L230 557L230 556L230 555L230 554L230 553L230 552L230 551L230 550L230 549L230 548L230 547L230 546L230 545L230 540L226 540L225 540L224 540L223 540L218 540M266 540L266 544L266 545L266 546L266 547L266 548L266 549L266 550L266 551L266 552L266 553L266 554L266 555L266 556L266 557L266 558L266 559L266 560L266 561L266 562L266 563L266 564L266 565L266 566L266 567L266 568L266 569L266 570L266 571L266 572L266 573L266 574L266 575L266 576L266 577L266 578L266 579L266 580L266 581L266 582L266 583L266 584L266 585L266 586L266 587L266 588L266 589L266 590L266 591L266 592L266 593L266 594L266 595L266 596L266 597L266 598L266 599L266 600L266 601L266 602L266 603L266 608L275 608L275 604L275 603L275 602L275 601L275 600L275 599L275 598L275 597L275 596L275 595L275 594L275 593L275 592L275 591L275 590L275 589L275 588L275 587L275 586L275 585L275 584L275 583L275 582L275 581L275 580L275 579L275 578L275 577L275 576L275 575L275 574L275 573L275 572L275 571L275 570L275 569L275 568L275 567L275 566L275 565L275 564L275 563L275 562L275 561L275 560L275 559L275 558L275 557L275 556L275 555L275 554L275 553L275 552L275 551L275 550L275 549L275 548L275 547L275 546L275 545L275 540L266 540M515 540L515 544L515 545L515 546L515 547L515 548L515 549L515 550L515 551L515 552L515 553L515 554L515 555L515 556L515 557L515 558L515 559L515 560L515 561L515 562L515 563L515 564L515 565L515 566L515 567L515 568L515 569L515 570L515 571L515 572L515 573L515 574L515 575L515 576L515 577L515 578L515 579L515 580L515 581L515 582L515 583L515 584L515 585L515 586L515 587L515 588L515 589L515 590L515 591L515 592L515 593L515 594L515 595L515 596L515 597L515 598L515 599L515 600L515 601L515 602L515 603L515 608L518 608L518 607L518 603L518 602L518 601L518 600L518 599L518 598L518 597L518 596L518 595L518 594L518 593L518 592L518 591L518 590L518 589L518 588L518 587L518 586L518 585L518 584L518 583L518 582L518 581L518 580L518 579L518 578L518 577L518 576L518 575L518 574L518 573L518 572L518 571L518 570L518 569L518 568L518 567L518 566L518 565L518 564L518 563L518 562L518 561L518 560L518 559L518 558L518 557L518 556L518 555L518 554L518 553L518 552L518 551L518 550L518 549L518 548L518 547L518 546L518 545L518 544L518 540L515 540z"/>
</svg>
