<?xml version="1.0" standalone="yes"?>
<svg width="900" height="900">
<path style="fill:#0b0b0b; stroke:none;" d="M444 190L444 192L450 192L450 190L444 190M464 190L464 192L470 192L470 190L464 190M515 190L515 192L517 192L520 192L522 192L522 190L520 190L517 190L515 190M444 197L444 201L444 202L444 203L444 204L444 205L444 206L444 207L444 208L444 209L444 210L444 211L444 212L444 213L444 214L444 215L444 216L444 217L444 218L444 219L444 220L444 221L444 222L444 223L444 224L444 225L444 226L444 227L444 228L444 229L444 230L444 231L444 232L444 233L444 234L444 235L444 236L444 237L444 238L444 239L444 240L444 241L444 242L444 243L444 244L444 245L444 246L444 247L444 248L444 249L444 250L444 251L444 252L444 253L444 254L444 255L444 256L444 257L444 258L444 259L444 260L444 266L439 266L439 270L439 271L439 272L439 273L439 274L439 275L439 276L439 277L439 278L439 279L439 280L439 281L439 282L439 283L439 284L439 285L439 286L439 287L439 288L439 289L439 290L439 291L439 292L439 293L439 294L439 295L439 296L439 297L439 298L439 299L439 300L439 301L439 302L439 303L439 304L439 305L439 306L439 307L439 308L439 309L439 310L439 311L439 312L439 313L439 314L439 315L439 316L439 317L439 318L439 319L439 320L439 321L439 322L439 323L439 324L439 325L439 326L439 327L439 328L439 329L439 334L440 334L440 337L440 341L440 342L440 343L440 344L440 345L440 346L440 347L440 348L440 349L440 350L440 351L440 352L440 353L440 354L440 355L440 356L440 357L440 358L440 359L440 360L440 361L440 362L440 363L440 364L440 365L440 366L440 367L440 368L440 369L440 370L440 371L440 372L440 373L440 374L440 375L440 376L440 377L440 378L440 379L440 380L440 381L440 382L440 383L440 384L440 385L440 386L440 387L440 388L440 389L440 390L440 391L440 392L440 393L440 394L440 395L440 396L440 397L440 398L440 399L440 400L440 401L440 402L440 403L440 404L440 405L440 406L440 407L440 408L440 409L440 410L440 411L440 412L440 413L440 414L440 415L440 416L440 417L440 418L440 419L440 420L440 421L440 422L440 423L440 424L440 425L440 426L440 427L440 428L440 429L440 430L440 431L440 432L440 433L440 434L440 435L440 436L440 437L440 438L440 439L440 440L440 441L440 442L440 443L440 444L440 445L440 446L440 447L440 448L440 449L440 450L440 451L440 452L440 453L440 454L440 455L440 456L440 457L440 458L440 459L440 460L440 461L440 462L440 463L440 464L440 465L440 466L440 467L440 468L440 469L440 470L440 471L440 472L440 473L440 474L440 475L440 476L440 477L440 478L440 479L440 480L440 481L440 482L440 483L440 484L440 485L440 486L440 487L440 488L440 489L440 490L440 491L440 492L440 493L440 494L440 495L440 496L440 497L440 498L440 499L440 500L440 501L440 502L440 503L440 504L440 505L440 506L440 507L440 508L440 509L440 510L440 511L440 512L440 513L440 514L440 515L440 516L440 517L440 518L440 519L440 520L440 521L440 522L440 523L440 524L440 525L440 526L440 527L440 528L440 529L440 530L440 531L440 532L440 533L440 534L440 535L440 536L440 537L440 538L440 539L440 540L440 541L440 542L440 543L440 544L440 545L440 546L440 547L440 548L440 549L440 550L440 551L440 552L440 553L440 554L440 555L440 556L440 557L440 558L440 559L440 560L440 561L440 562L440 563L440 564L440 565L440 566L440 567L440 568L440 569L440 570L440 571L440 572L440 573L440 574L440 575L440 576L440 577L440 578L440 579L440 580L440 581L440 582L440 583L440 584L440 585L440 586L440 587L440 588L440 589L440 590L440 591L440 592L440 593L440 594L440 595L440 596L440 597L440 598L440 599L440 600L440 601L440 602L440 603L440 604L440 608L450 608L450 604L450 603L450 602L450 601L450 600L450 599L450 598L450 597L450 596L450 595L450 594L450 593L450 592L450 591L450 590L450 589L450 588L450 587L450 586L450 585L450 584L450 583L450 582L450 581L450 580L450 579L450 578L450 577L450 576L450 575L450 574L450 573L450 572L450 571L450 570L450 569L450 568L450 567L450 566L450 565L450 564L450 563L450 562L450 561L450 560L450 559L450 558L450 557L450 556L450 555L450 554L450 553L450 552L450 551L450 550L450 549L450 548L450 547L450 546L450 545L450 544L450 543L450 542L450 541L450 540L450 539L450 538L450 537L450 536L450 535L450 534L450 533L450 532L450 531L450 530L450 529L450 528L450 527L450 526L450 525L450 524L450 523L450 522L450 521L450 520L450 519L450 518L450 517L450 516L450 515L450 514L450 513L450 512L450 511L450 510L450 509L450 508L450 507L450 506L450 505L450 504L450 503L450 502L450 501L450 500L450 499L450 498L450 497L450 496L450 495L450 494L450 493L450 492L450 491L450 490L450 489L450 488L450 487L450 486L450 485L450 484L450 483L450 482L450 481L450 480L450 479L450 478L450 477L450 476L450 475L450 474L450 473L450 472L450 471L450 470L450 469L450 468L450 467L450 466L450 465L450 464L450 463L450 462L450 461L450 460L450 459L450 458L450 457L450 456L450 455L450 454L450 453L450 452L450 451L450 450L450 449L450 448L450 447L450 446L450 445L450 444L450 443L450 442L450 441L450 440L450 439L450 438L450 437L450 436L450 435L450 434L450 433L450 432L450 431L450 430L450 429L450 428L450 427L450 426L450 425L450 424L450 423L450 422L450 421L450 420L450 419L450 418L450 417L450 416L450 415L450 414L450 413L450 412L450 411L450 410L450 409L450 408L450 407L450 406L450 405L450 404L450 403L450 402L450 401L450 400L450 399L450 398L450 397L450 396L450 395L450 394L450 393L450 392L450 391L450 390L450 389L450 388L450 387L450 386L450 385L450 384L450 383L450 382L450 381L450 380L450 379L450 378L450 377L450 376L450 375L450 374L450 373L450 372L450 371L450 370L450 369L450 368L450 367L450 366L450 365L450 364L450 363L450 362L450 361L450 360L450 359L450 358L450 357L450 356L450 355L450 354L450 353L450 352L450 351L450 350L450 349L450 348L450 347L450 346L450 345L450 344L450 343L450 342L450 341L450 340L450 339L450 338L450 337L450 336L450 335L450 334L450 333L450 332L450 331L450 330L450 329L450 328L450 327L450 326L450 325L450 324L450 323L450 322L450 321L450 320L450 319L450 318L450 317L450 316L450 315L450 314L450 313L450 312L450 311L450 310L450 309L450 308L450 307L450 306L450 305L450 304L450 303L450 302L450 301L450 300L450 299L450 298L450 297L450 296L450 295L450 294L450 293L450 292L450 291L450 290L450 289L450 288L450 287L450 286L450 285L450 284L450 283L450 282L450 281L450 280L450 279L450 278L450 277L450 276L450 275L450 274L450 273L450 272L450 271L450 270L450 269L450 268L450 267L450 266L450 265L450 264L450 263L450 262L450 261L450 260L450 259L450 258L450 257L450 256L450 255L450 254L450 253L450 252L450 251L450 250L450 249L450 248L450 247L450 246L450 245L450 244L450 243L450 242L450 241L450 240L450 239L450 238L450 237L450 236L450 235L450 234L450 233L450 232L450 231L450 230L450 229L450 228L450 227L450 226L450 225L450 224L450 223L450 222L450 221L450 220L450 219L450 218L450 217L450 216L450 215L450 214L450 213L450 212L450 211L450 210L450 209L450 208L450 207L450 206L450 205L450 204L450 203L450 202L450 201L450 197L444 197M464 197L464 201L464 202L464 203L464 204L464 205L464 206L464 207L464 208L464 209L464 210L464 211L464 212L464 213L464 214L464 215L464 216L464 217L464 218L464 219L464 220L464 221L464 222L464 223L464 224L464 225L464 226L464 227L464 228L464 229L464 230L464 231L464 232L464 233L464 234L464 235L464 236L464 237L464 238L464 239L464 240L464 241L464 242L464 243L464 244L464 245L464 246L464 247L464 248L464 249L464 250L464 251L464 252L464 253L464 254L464 255L464 256L464 257L464 258L464 259L464 260L464 266L460 266L460 270L460 271L460 272L460 273L460 274L460 275L460 276L460 277L460 278L460 279L460 280L460 281L460 282L460 283L460 284L460 285L460 286L460 287L460 288L460 289L460 290L460 291L460 292L460 293L460 294L460 295L460 296L460 297L460 298L460 299L460 300L460 301L460 302L460 303L460 304L460 305L460 306L460 307L460 308L460 309L460 310L460 311L460 312L460 313L460 314L460 315L460 316L460 317L460 318L460 319L460 320L460 321L460 322L460 323L460 324L460 325L460 326L460 327L460 328L460 329L460 334L461 334L461 337L461 341L461 342L461 343L461 344L461 345L461 346L461 347L461 348L461 349L461 350L461 351L461 352L461 353L461 354L461 355L461 356L461 357L461 358L461 359L461 360L461 361L461 362L461 363L461 364L461 365L461 366L461 367L461 368L461 369L461 370L461 371L461 372L461 373L461 374L461 375L461 376L461 377L461 378L461 379L461 380L461 381L461 382L461 383L461 384L461 385L461 386L461 387L461 388L461 389L461 390L461 391L461 392L461 393L461 394L461 395L461 396L461 397L461 398L461 399L461 400L461 401L461 402L461 403L461 404L461 405L461 406L461 407L461 408L461 409L461 410L461 411L461 412L461 413L461 414L461 415L461 416L461 417L461 418L461 419L461 420L461 421L461 422L461 423L461 424L461 425L461 426L461 427L461 428L461 429L461 430L461 431L461 432L461 433L461 434L461 435L461 436L461 437L461 438L461 439L461 440L461 441L461 442L461 443L461 444L461 445L461 446L461 447L461 448L461 449L461 450L461 451L461 452L461 453L461 454L461 455L461 456L461 457L461 458L461 459L461 460L461 461L461 462L461 463L461 464L461 465L461 466L461 467L461 468L461 469L461 470L461 471L461 472L461 473L461 474L461 475L461 476L461 477L461 478L461 479L461 480L461 481L461 482L461 483L461 484L461 485L461 486L461 487L461 488L461 489L461 490L461 491L461 492L461 493L461 494L461 495L461 496L461 497L461 498L461 499L461 500L461 501L461 502L461 503L461 504L461 505L461 506L461 507L461 508L461 509L461 510L461 511L461 512L461 513L461 514L461 515L461 516L461 517L461 518L461 519L461 520L461 521L461 522L461 523L461 524L461 525L461 526L461 527L461 528L461 529L461 530L461 531L461 532L461 533L461 534L461 535L461 536L461 537L461 538L461 539L461 540L461 541L461 542L461 543L461 544L461 545L461 546L461 547L461 548L461 549L461 550L461 551L461 552L461 553L461 554L461 555L461 556L461 557L461 558L461 559L461 560L461 561L461 562L461 563L461 564L461 565L461 566L461 567L461 568L461 569L461 570L461 571L461 572L461 573L461 574L461 575L461 576L461 577L461 578L461 579L461 580L461 581L461 582L461 583L461 584L461 585L461 586L461 587L461 588L461 589L461 590L461 591L461 592L461 593L461 594L461 595L461 596L461 597L461 598L461 599L461 600L461 601L461 602L461 603L461 604L461 608L465 608L466 608L467 608L468 608L469 608L470 608L471 608L472 608L479 608L479 604L479 603L479 602L479 601L479 600L479 599L479 598L479 597L479 596L479 595L479 594L479 593L479 592L479 591L479 590L479 589L479 588L479 587L479 586L479 585L479 584L479 583L479 582L479 581L479 580L479 579L479 578L479 577L479 576L479 575L479 574L479 573L479 572L479 571L479 570L479 569L479 568L479 567L479 566L479 565L479 564L479 563L479 562L479 561L479 560L479 559L479 558L479 557L479 556L479 555L479 554L479 553L479 552L479 551L479 550L479 549L479 548L479 547L479 546L479 545L479 540L471 540L471 536L471 535L471 534L471 533L471 532L471 531L471 530L471 529L471 528L471 527L471 526L471 525L471 524L471 523L471 522L471 521L471 520L471 519L471 518L471 517L471 516L471 515L471 514L471 513L471 512L471 511L471 510L471 509L471 508L471 507L471 506L471 505L471 504L471 503L471 502L471 501L471 500L471 499L471 498L471 497L471 496L471 495L471 494L471 493L471 492L471 491L471 490L471 489L471 488L471 487L471 486L471 485L471 484L471 483L471 482L471 481L471 480L471 479L471 478L471 477L471 476L471 475L471 474L471 473L471 472L471 471L471 470L471 469L471 468L471 467L471 466L471 465L471 464L471 463L471 462L471 461L471 460L471 459L471 458L471 457L471 456L471 455L471 454L471 453L471 452L471 451L471 450L471 449L471 448L471 447L471 446L471 445L471 444L471 443L471 442L471 441L471 440L471 439L471 438L471 437L471 436L471 435L471 434L471 433L471 432L471 431L471 430L471 429L471 428L471 427L471 426L471 425L471 424L471 423L471 422L471 421L471 420L471 419L471 418L471 417L471 416L471 415L471 414L471 413L471 412L471 411L471 410L471 409L471 408L471 407L471 406L471 405L471 404L471 403L471 402L471 401L471 400L471 399L471 398L471 397L471 396L471 395L471 394L471 393L471 392L471 391L471 390L471 389L471 388L471 387L471 386L471 385L471 384L471 383L471 382L471 381L471 380L471 379L471 378L471 377L471 376L471 375L471 374L471 373L471 372L471 371L471 370L471 369L471 368L471 367L471 366L471 365L471 364L471 363L471 362L471 361L471 360L471 359L471 358L471 357L471 356L471 355L471 354L471 353L471 352L471 351L471 350L471 349L471 348L471 347L471 346L471 345L471 344L471 343L471 342L471 341L471 334L481 334L481 330L481 329L481 328L481 327L481 326L481 325L481 324L481 323L481 322L481 321L481 320L481 319L481 318L481 317L481 316L481 315L481 314L481 313L481 312L481 311L481 310L481 309L481 308L481 307L481 306L481 305L481 304L481 303L481 302L481 301L481 300L481 299L481 298L481 297L481 296L481 295L481 294L481 293L481 292L481 291L481 290L481 289L481 288L481 287L481 286L481 285L481 284L481 283L481 282L481 281L481 280L481 279L481 278L481 277L481 276L481 275L481 274L481 273L481 272L481 271L481 266L477 266L476 266L475 266L474 266L470 266L470 262L470 261L470 260L470 259L470 258L470 257L470 256L470 255L470 254L470 253L470 252L470 251L470 250L470 249L470 248L470 247L470 246L470 245L470 244L470 243L470 242L470 241L470 240L470 239L470 238L470 237L470 236L470 235L470 234L470 233L470 232L470 231L470 230L470 229L470 228L470 227L470 226L470 225L470 224L470 223L470 222L470 221L470 220L470 219L470 218L470 217L470 216L470 215L470 214L470 213L470 212L470 211L470 210L470 209L470 208L470 207L470 206L470 205L470 204L470 203L470 197L464 197M515 197L515 201L515 202L515 203L515 204L515 205L515 206L515 207L515 208L515 209L515 210L515 211L515 212L515 213L515 214L515 215L515 216L515 217L515 218L515 219L515 220L515 221L515 222L515 223L515 224L515 225L515 226L515 227L515 228L515 229L515 230L515 231L515 232L515 233L515 234L515 235L515 236L515 237L515 238L515 239L515 240L515 241L515 242L515 243L515 244L515 245L515 246L515 247L515 248L515 249L515 250L515 251L515 252L515 253L515 254L515 255L515 256L515 257L515 258L515 259L515 260L515 266L513 266L513 268L513 272L513 273L513 274L513 275L513 276L513 277L513 278L513 279L513 280L513 281L513 282L513 283L513 284L513 285L513 286L513 287L513 288L513 289L513 290L513 291L513 292L513 293L513 294L513 295L513 296L513 297L513 298L513 299L513 300L513 301L513 302L513 303L513 304L513 305L513 306L513 307L513 308L513 309L513 310L513 311L513 312L513 313L513 314L513 315L513 316L513 317L513 318L513 319L513 320L513 321L513 322L513 323L513 324L513 325L513 326L513 327L513 334L515 334L515 336L515 340L515 341L515 342L515 343L515 344L515 345L515 346L515 347L515 348L515 349L515 350L515 351L515 352L515 353L515 354L515 355L515 356L515 357L515 358L515 359L515 360L515 361L515 362L515 363L515 364L515 365L515 366L515 367L515 368L515 369L515 370L515 371L515 372L515 373L515 374L515 375L515 376L515 377L515 378L515 379L515 380L515 381L515 382L515 383L515 384L515 385L515 386L515 387L515 388L515 389L515 390L515 391L515 392L515 393L515 394L515 395L515 396L515 397L515 398L515 399L515 400L515 401L515 402L515 403L515 404L515 405L515 406L515 407L515 408L515 409L515 410L515 411L515 412L515 413L515 414L515 415L515 416L515 417L515 418L515 419L515 420L515 421L515 422L515 423L515 424L515 425L515 426L515 427L515 428L515 429L515 430L515 431L515 432L515 433L515 434L515 435L515 436L515 437L515 438L515 439L515 440L515 441L515 442L515 443L515 444L515 445L515 446L515 447L515 448L515 449L515 450L515 451L515 452L515 453L515 454L515 455L515 456L515 457L515 458L515 459L515 460L515 461L515 462L515 463L515 464L515 465L515 466L515 467L515 468L515 469L515 470L515 471L515 472L515 473L515 474L515 475L515 476L515 477L515 478L515 479L515 480L515 481L515 482L515 483L515 484L515 485L515 486L515 487L515 488L515 489L515 490L515 491L515 492L515 493L515 494L515 495L515 496L515 497L515 498L515 499L515 500L515 501L515 502L515 503L515 504L515 505L515 506L515 507L515 508L515 509L515 510L515 511L515 512L515 513L515 514L515 515L515 516L515 517L515 518L515 519L515 520L515 521L515 522L515 523L515 524L515 525L515 526L515 527L515 528L515 529L515 530L515 531L515 532L515 533L515 534L515 535L515 536L515 537L515 538L515 539L515 540L515 541L515 542L515 543L515 544L515 545L515 546L515 547L515 548L515 549L515 550L515 551L515 552L515 553L515 554L515 555L515 556L515 557L515 558L515 559L515 560L515 561L515 562L515 563L515 564L515 565L515 566L515 567L515 568L515 569L515 570L515 571L515 572L515 573L515 574L515 575L515 576L515 577L515 578L515 579L515 580L515 581L515 582L515 583L515 584L515 585L515 586L515 587L515 588L515 589L515 590L515 591L515 592L515 593L515 594L515 595L515 596L515 597L515 598L515 599L515 600L515 601L515 602L515 603L515 608L518 608L518 607L518 603L518 602L518 601L518 600L518 599L518 598L518 597L518 596L518 595L518 594L518 593L518 592L518 591L518 590L518 589L518 588L518 587L518 586L518 585L518 584L518 583L518 582L518 581L518 580L518 579L518 578L518 577L518 576L518 575L518 574L518 573L518 572L518 571L518 570L518 569L518 568L518 567L518 566L518 565L518 564L518 563L518 562L518 561L518 560L518 559L518 558L518 557L518 556L518 555L518 554L518 553L518 552L518 551L518 550L518 549L518 548L518 547L518 546L518 545L518 544L518 543L518 542L518 541L518 540L518 539L518 538L518 537L518 536L518 535L518 534L518 533L518 532L518 531L518 530L518 529L518 528L518 527L518 526L518 525L518 524L518 523L518 522L518 521L518 520L518 519L518 518L518 517L518 516L518 515L518 514L518 513L518 512L518 511L518 510L518 509L518 508L518 507L518 506L518 505L518 504L518 503L518 502L518 501L518 500L518 499L518 498L518 497L518 496L518 495L518 494L518 493L518 492L518 491L518 490L518 489L518 488L518 487L518 486L518 485L518 484L518 483L518 482L518 481L518 480L518 479L518 478L518 477L518 476L518 475L518 474L518 473L518 472L518 471L518 470L518 469L518 468L518 467L518 466L518 465L518 464L518 463L518 462L518 461L518 460L518 459L518 458L518 457L518 456L518 455L518 454L518 453L518 452L518 451L518 450L518 449L518 448L518 447L518 446L518 445L518 444L518 443L518 442L518 441L518 440L518 439L518 438L518 437L518 436L518 435L518 434L518 433L518 432L518 431L518 430L518 429L518 428L518 427L518 426L518 425L518 424L518 423L518 422L518 421L518 420L518 419L518 418L518 417L518 416L518 415L518 414L518 413L518 412L518 411L518 410L518 409L518 408L518 407L518 406L518 405L518 404L518 403L518 402L518 401L518 400L518 399L518 398L518 397L518 396L518 395L518 394L518 393L518 392L518 391L518 390L518 389L518 388L518 387L518 386L518 385L518 384L518 383L518 382L518 381L518 380L518 379L518 378L518 377L518 376L518 375L518 374L518 373L518 372L518 371L518 370L518 369L518 368L518 367L518 366L518 365L518 364L518 363L518 362L518 361L518 360L518 359L518 358L518 357L518 356L518 355L518 354L518 353L518 352L518 351L518 350L518 349L518 348L518 347L518 346L518 345L518 344L518 343L518 342L518 341L518 340L518 335L521 334L521 330L521 329L521 328L521 327L521 326L521 325L521 324L521 323L521 322L521 321L521 320L521 319L521 318L521 317L521 316L521 315L521 314L521 313L521 312L521 311L521 310L521 309L521 308L521 307L521 306L521 305L521 304L521 303L521 302L521 301L521 300L521 299L521 298L521 297L521 296L521 295L521 294L521 293L521 292L521 291L521 290L521 289L521 288L521 287L521 286L521 285L521 284L521 283L521 282L521 281L521 280L521 279L521 278L521 277L521 276L521 275L521 274L521 273L521 272L521 271L521 266L522 266L522 263L522 259L522 258L522 257L522 256L522 255L522 254L522 253L522 252L522 251L522 250L522 249L522 248L522 247L522 246L522 245L522 244L522 243L522 242L522 241L522 240L522 239L522 238L522 237L522 236L522 235L522 234L522 233L522 232L522 231L522 230L522 229L522 228L522 227L522 226L522 225L522 224L522 223L522 222L522 221L522 220L522 219L522 218L522 217L522 216L522 215L522 214L522 213L522 212L522 211L522 210L522 209L522 208L522 207L522 206L522 205L522 204L522 197L515 197M230 266L230 270L230 271L230 272L230 273L230 274L230 275L230 276L230 277L230 278L230 279L230 280L230 281L230 282L230 283L230 284L230 285L230 286L230 287L230 288L230 289L230 290L230 291L230 292L230 293L230 294L230 295L230 296L230 297L230 298L230 299L230 300L230 301L230 302L230 303L230 304L230 305L230 306L230 307L230 308L230 309L230 310L230 311L230 312L230 313L230 314L230 315L230 316L230 317L230 318L230 319L230 320L230 321L230 322L230 323L230 324L230 325L230 326L230 327L230 328L230 329L230 334L232 334L232 332L232 328L232 327L232 326L232 325L232 324L232 323L232 322L232 321L232 320L232 319L232 318L232 317L232 316L232 315L232 314L232 313L232 312L232 311L232 310L232 309L232 308L232 307L232 306L232 305L232 304L232 303L232 302L232 301L232 300L232 299L232 298L232 297L232 296L232 295L232 294L232 293L232 292L232 291L232 290L232 289L232 288L232 287L232 286L232 285L232 284L232 283L232 282L232 281L232 280L232 279L232 278L232 277L232 276L232 275L232 274L232 273L232 266L230 266M305 266L305 270L305 271L305 272L305 273L305 274L305 275L305 276L305 277L305 278L305 279L305 280L305 281L305 282L305 283L305 284L305 285L305 286L305 287L305 288L305 289L305 290L305 291L305 292L305 293L305 294L305 295L305 296L305 297L305 298L305 299L305 300L305 301L305 302L305 303L305 304L305 305L305 306L305 307L305 308L305 309L305 310L305 311L305 312L305 313L305 314L305 315L305 316L305 317L305 318L305 319L305 320L305 321L305 322L305 323L305 324L305 325L305 326L305 327L305 328L305 329L305 334L306 334L306 331L306 327L306 326L306 325L306 324L306 323L306 322L306 321L306 320L306 319L306 318L306 317L306 316L306 315L306 314L306 313L306 312L306 311L306 310L306 309L306 308L306 307L306 306L306 305L306 304L306 303L306 302L306 301L306 300L306 299L306 298L306 297L306 296L306 295L306 294L306 293L306 292L306 291L306 290L306 289L306 288L306 287L306 286L306 285L306 284L306 283L306 282L306 281L306 280L306 279L306 278L306 277L306 276L306 275L306 274L306 273L306 272L305 266M326 266L326 270L326 271L326 272L326 273L326 274L326 275L326 276L326 277L326 278L326 279L326 280L326 281L326 282L326 283L326 284L326 285L326 286L326 287L326 288L326 289L326 290L326 291L326 292L326 293L326 294L326 295L326 296L326 297L326 298L326 299L326 300L326 301L326 302L326 303L326 304L326 305L326 306L326 307L326 308L326 309L326 310L326 311L326 312L326 313L326 314L326 315L326 316L326 317L326 318L326 319L326 320L326 321L326 322L326 323L326 324L326 325L326 326L326 327L326 328L326 329L326 334L327 334L327 331L327 327L327 326L327 325L327 324L327 323L327 322L327 321L327 320L327 319L327 318L327 317L327 316L327 315L327 314L327 313L327 312L327 311L327 310L327 309L327 308L327 307L327 306L327 305L327 304L327 303L327 302L327 301L327 300L327 299L327 298L327 297L327 296L327 295L327 294L327 293L327 292L327 291L327 290L327 289L327 288L327 287L327 286L327 285L327 284L327 283L327 282L327 281L327 280L327 279L327 278L327 277L327 276L327 275L327 274L327 273L327 272L326 266M213 335L213 339L213 340L213 341L213 342L213 343L213 344L213 345L213 346L213 347L213 348L213 349L213 350L213 351L213 352L213 353L213 354L213 355L213 356L213 357L213 358L213 359L213 360L213 361L213 362L213 363L213 364L213 365L213 366L213 367L213 368L213 369L213 370L213 371L213 372L213 373L213 374L213 375L213 376L213 377L213 378L213 379L213 380L213 381L213 382L213 383L213 384L213 385L213 386L213 387L213 388L213 389L213 390L213 391L213 392L213 393L213 394L213 395L213 396L213 397L213 398L213 403L214 403L214 400L214 396L214 395L214 394L214 393L214 392L214 391L214 390L214 389L214 388L214 387L214 386L214 385L214 384L214 383L214 382L214 381L214 380L214 379L214 378L214 377L214 376L214 375L214 374L214 373L214 372L214 371L214 370L214 369L214 368L214 367L214 366L214 365L214 364L214 363L214 362L214 361L214 360L214 359L214 358L214 357L214 356L214 355L214 354L214 353L214 352L214 351L214 350L214 349L214 348L214 347L214 346L214 345L214 344L214 343L214 342L214 341L213 335M227 335L227 339L227 340L227 341L227 342L227 343L227 344L227 345L227 346L227 347L227 348L227 349L227 350L227 351L227 352L227 353L227 354L227 355L227 356L227 357L227 358L227 359L227 360L227 361L227 362L227 363L227 364L227 365L227 366L227 367L227 368L227 369L227 370L227 371L227 372L227 373L227 374L227 375L227 376L227 377L227 378L227 379L227 380L227 381L227 382L227 383L227 384L227 385L227 386L227 387L227 388L227 389L227 390L227 391L227 392L227 393L227 394L227 395L227 396L227 397L227 398L227 403L224 403L224 404L224 408L224 409L224 410L224 411L224 412L224 413L224 414L224 415L224 416L224 417L224 418L224 419L224 420L224 421L224 422L224 423L224 424L224 425L224 426L224 427L224 428L224 429L224 430L224 431L224 432L224 433L224 434L224 435L224 436L224 437L224 438L224 439L224 440L224 441L224 442L224 443L224 444L224 445L224 446L224 447L224 448L224 449L224 450L224 451L224 452L224 453L224 454L224 455L224 456L224 457L224 458L224 459L224 460L224 461L224 462L224 463L224 464L224 465L224 466L224 467L224 472L218 472L218 476L218 477L218 478L218 479L218 480L218 481L218 482L218 483L218 484L218 485L218 486L218 487L218 488L218 489L218 490L218 491L218 492L218 493L218 494L218 495L218 496L218 497L218 498L218 499L218 500L218 501L218 502L218 503L218 504L218 505L218 506L218 507L218 508L218 509L218 510L218 511L218 512L218 513L218 514L218 515L218 516L218 517L218 518L218 519L218 520L218 521L218 522L218 523L218 524L218 525L218 526L218 527L218 528L218 529L218 530L218 531L218 532L218 533L218 534L218 535L218 536L218 537L218 538L218 539L218 540L218 541L218 542L218 543L218 544L218 545L218 546L218 547L218 548L218 549L218 550L218 551L218 552L218 553L218 554L218 555L218 556L218 557L218 558L218 559L218 560L218 561L218 562L218 563L218 564L218 565L218 566L218 567L218 568L218 569L218 570L218 571L218 572L218 573L218 574L218 575L218 576L218 577L218 578L218 579L218 580L218 581L218 582L218 583L218 584L218 585L218 586L218 587L218 588L218 589L218 590L218 591L218 592L218 593L218 594L218 595L218 596L218 597L218 598L218 599L218 600L218 601L218 602L218 603L218 608L222 608L223 608L224 608L225 608L230 608L230 604L230 603L230 602L230 601L230 600L230 599L230 598L230 597L230 596L230 595L230 594L230 593L230 592L230 591L230 590L230 589L230 588L230 587L230 586L230 585L230 584L230 583L230 582L230 581L230 580L230 579L230 578L230 577L230 576L230 575L230 574L230 573L230 572L230 571L230 570L230 569L230 568L230 567L230 566L230 565L230 564L230 563L230 562L230 561L230 560L230 559L230 558L230 557L230 556L230 555L230 554L230 553L230 552L230 551L230 550L230 549L230 548L230 547L230 546L230 545L230 544L230 543L230 542L230 541L230 540L230 539L230 538L230 537L230 536L230 535L230 534L230 533L230 532L230 531L230 530L230 529L230 528L230 527L230 526L230 525L230 524L230 523L230 522L230 521L230 520L230 519L230 518L230 517L230 516L230 515L230 514L230 513L230 512L230 511L230 510L230 509L230 508L230 507L230 506L230 505L230 504L230 503L230 502L230 501L230 500L230 499L230 498L230 497L230 496L230 495L230 494L230 493L230 492L230 491L230 490L230 489L230 488L230 487L230 486L230 485L230 484L230 483L230 482L230 481L230 480L230 479L230 478L230 477L230 476L230 475L230 474L230 473L230 472L230 471L230 470L230 469L230 468L230 467L230 466L230 465L230 464L230 463L230 462L230 461L230 460L230 459L230 458L230 457L230 456L230 455L230 454L230 453L230 452L230 451L230 450L230 449L230 448L230 447L230 446L230 445L230 444L230 443L230 442L230 441L230 440L230 439L230 438L230 437L230 436L230 435L230 434L230 433L230 432L230 431L230 430L230 429L230 428L230 427L230 426L230 425L230 424L230 423L230 422L230 421L230 420L230 419L230 418L230 417L230 416L230 415L230 414L230 413L230 412L230 411L230 410L230 409L230 408L230 407L230 406L230 405L230 404L230 403L230 402L230 401L230 400L230 399L230 398L230 397L230 396L230 395L230 394L230 393L230 392L230 391L230 390L230 389L230 388L230 387L230 386L230 385L230 384L230 383L230 382L230 381L230 380L230 379L230 378L230 377L230 376L230 375L230 374L230 373L230 372L230 371L230 370L230 369L230 368L230 367L230 366L230 365L230 364L230 363L230 362L230 361L230 360L230 359L230 358L230 357L230 356L230 355L230 354L230 353L230 352L230 351L230 350L230 349L230 348L230 347L230 346L230 345L230 344L230 343L230 342L230 341L230 335L227 335M295 335L295 339L295 340L295 341L295 342L295 343L295 344L295 345L295 346L295 347L295 348L295 349L295 350L295 351L295 352L295 353L295 354L295 355L295 356L295 357L295 358L295 359L295 360L295 361L295 362L295 363L295 364L295 365L295 366L295 367L295 368L295 369L295 370L295 371L295 372L295 373L295 374L295 375L295 376L295 377L295 378L295 379L295 380L295 381L295 382L295 383L295 384L295 385L295 386L295 387L295 388L295 389L295 390L295 391L295 392L295 393L295 394L295 395L295 396L295 397L295 398L295 403L290 403L290 407L290 408L290 409L290 410L290 411L290 412L290 413L290 414L290 415L290 416L290 417L290 418L290 419L290 420L290 421L290 422L290 423L290 424L290 425L290 426L290 427L290 428L290 429L290 430L290 431L290 432L290 433L290 434L290 435L290 436L290 437L290 438L290 439L290 440L290 441L290 442L290 443L290 444L290 445L290 446L290 447L290 448L290 449L290 450L290 451L290 452L290 453L290 454L290 455L290 456L290 457L290 458L290 459L290 460L290 461L290 462L290 463L290 464L290 465L290 466L290 472L291 472L291 475L291 479L291 480L291 481L291 482L291 483L291 484L291 485L291 486L291 487L291 488L291 489L291 490L291 491L291 492L291 493L291 494L291 495L291 496L291 497L291 498L291 499L291 500L291 501L291 502L291 503L291 504L291 505L291 506L291 507L291 508L291 509L291 510L291 511L291 512L291 513L291 514L291 515L291 516L291 517L291 518L291 519L291 520L291 521L291 522L291 523L291 524L291 525L291 526L291 527L291 528L291 529L291 530L291 531L291 532L291 533L291 534L291 540L287 540L287 544L287 545L287 546L287 547L287 548L287 549L287 550L287 551L287 552L287 553L287 554L287 555L287 556L287 557L287 558L287 559L287 560L287 561L287 562L287 563L287 564L287 565L287 566L287 567L287 568L287 569L287 570L287 571L287 572L287 573L287 574L287 575L287 576L287 577L287 578L287 579L287 580L287 581L287 582L287 583L287 584L287 585L287 586L287 587L287 588L287 589L287 590L287 591L287 592L287 593L287 594L287 595L287 596L287 597L287 598L287 599L287 600L287 601L287 602L287 603L287 608L291 608L292 608L293 608L294 608L295 608L296 608L297 608L298 608L305 608L305 604L305 603L305 602L305 601L305 600L305 599L305 598L305 597L305 596L305 595L305 594L305 593L305 592L305 591L305 590L305 589L305 588L305 587L305 586L305 585L305 584L305 583L305 582L305 581L305 580L305 579L305 578L305 577L305 576L305 575L305 574L305 573L305 572L305 571L305 570L305 569L305 568L305 567L305 566L305 565L305 564L305 563L305 562L305 561L305 560L305 559L305 558L305 557L305 556L305 555L305 554L305 553L305 552L305 551L305 550L305 549L305 548L305 547L305 546L305 545L305 544L305 543L305 542L305 541L305 540L305 539L305 538L305 537L305 536L305 535L305 534L305 533L305 532L305 531L305 530L305 529L305 528L305 527L305 526L305 525L305 524L305 523L305 522L305 521L305 520L305 519L305 518L305 517L305 516L305 515L305 514L305 513L305 512L305 511L305 510L305 509L305 508L305 507L305 506L305 505L305 504L305 503L305 502L305 501L305 500L305 499L305 498L305 497L305 496L305 495L305 494L305 493L305 492L305 491L305 490L305 489L305 488L305 487L305 486L305 485L305 484L305 483L305 482L305 481L305 480L305 479L305 478L305 477L305 476L305 475L305 474L305 473L305 472L305 471L305 470L305 469L305 468L305 467L305 466L305 465L305 464L305 463L305 462L305 461L305 460L305 459L305 458L305 457L305 456L305 455L305 454L305 453L305 452L305 451L305 450L305 449L305 448L305 447L305 446L305 445L305 444L305 443L305 442L305 441L305 440L305 439L305 438L305 437L305 436L305 435L305 434L305 433L305 432L305 431L305 430L305 429L305 428L305 427L305 426L305 425L305 424L305 423L305 422L305 421L305 420L305 419L305 418L305 417L305 416L305 415L305 414L305 413L305 412L305 411L305 410L305 409L305 408L305 407L305 406L305 405L305 404L305 403L305 402L305 401L305 400L305 399L305 398L305 397L305 396L305 395L305 394L305 393L305 392L305 391L305 390L305 389L305 388L305 387L305 386L305 385L305 384L305 383L305 382L305 381L305 380L305 379L305 378L305 377L305 376L305 375L305 374L305 373L305 372L305 371L305 370L305 369L305 368L305 367L305 366L305 365L305 364L305 363L305 362L305 361L305 360L305 359L305 358L305 357L305 356L305 355L305 354L305 353L305 352L305 351L305 350L305 349L305 348L305 347L305 346L305 345L305 344L305 343L305 342L305 341L305 335L295 335M531 335L531 339L531 340L531 341L531 342L531 343L531 344L531 345L531 346L531 347L531 348L531 349L531 350L531 351L531 352L531 353L531 354L531 355L531 356L531 357L531 358L531 359L531 360L531 361L531 362L531 363L531 364L531 365L531 366L531 367L531 368L531 369L531 370L531 371L531 372L531 373L531 374L531 375L531 376L531 377L531 378L531 379L531 380L531 381L531 382L531 383L531 384L531 385L531 386L531 387L531 388L531 389L531 390L531 391L531 392L531 393L531 394L531 395L531 396L531 397L531 398L531 403L532 403L532 400L532 396L532 395L532 394L532 393L532 392L532 391L532 390L532 389L532 388L532 387L532 386L532 385L532 384L532 383L532 382L532 381L532 380L532 379L532 378L532 377L532 376L532 375L532 374L532 373L532 372L532 371L532 370L532 369L532 368L532 367L532 366L532 365L532 364L532 363L532 362L532 361L532 360L532 359L532 358L532 357L532 356L532 355L532 354L532 353L532 352L532 351L532 350L532 349L532 348L532 347L532 346L532 345L532 344L532 343L532 342L532 341L531 335M274 402L269 403L269 407L269 408L269 409L269 410L269 411L269 412L269 413L269 414L269 415L269 416L269 417L269 418L269 419L269 420L269 421L269 422L269 423L269 424L269 425L269 426L269 427L269 428L269 429L269 430L269 431L269 432L269 433L269 434L269 435L269 436L269 437L269 438L269 439L269 440L269 441L269 442L269 443L269 444L269 445L269 446L269 447L269 448L269 449L269 450L269 451L269 452L269 453L269 454L269 455L269 456L269 457L269 458L269 459L269 460L269 461L269 462L269 463L269 464L269 465L269 466L269 472L270 472L270 475L270 479L270 480L270 481L270 482L270 483L270 484L270 485L270 486L270 487L270 488L270 489L270 490L270 491L270 492L270 493L270 494L270 495L270 496L270 497L270 498L270 499L270 500L270 501L270 502L270 503L270 504L270 505L270 506L270 507L270 508L270 509L270 510L270 511L270 512L270 513L270 514L270 515L270 516L270 517L270 518L270 519L270 520L270 521L270 522L270 523L270 524L270 525L270 526L270 527L270 528L270 529L270 530L270 531L270 532L270 533L270 534L270 540L266 540L266 544L266 545L266 546L266 547L266 548L266 549L266 550L266 551L266 552L266 553L266 554L266 555L266 556L266 557L266 558L266 559L266 560L266 561L266 562L266 563L266 564L266 565L266 566L266 567L266 568L266 569L266 570L266 571L266 572L266 573L266 574L266 575L266 576L266 577L266 578L266 579L266 580L266 581L266 582L266 583L266 584L266 585L266 586L266 587L266 588L266 589L266 590L266 591L266 592L266 593L266 594L266 595L266 596L266 597L266 598L266 599L266 600L266 601L266 602L266 603L266 608L275 608L275 604L275 603L275 602L275 601L275 600L275 599L275 598L275 597L275 596L275 595L275 594L275 593L275 592L275 591L275 590L275 589L275 588L275 587L275 586L275 585L275 584L275 583L275 582L275 581L275 580L275 579L275 578L275 577L275 576L275 575L275 574L275 573L275 572L275 571L275 570L275 569L275 568L275 567L275 566L275 565L275 564L275 563L275 562L275 561L275 560L275 559L275 558L275 557L275 556L275 555L275 554L275 553L275 552L275 551L275 550L275 549L275 548L275 547L275 546L275 545L275 544L275 543L275 542L275 541L275 540L275 539L275 538L275 537L275 536L275 535L275 534L275 533L275 532L275 531L275 530L275 529L275 528L275 527L275 526L275 525L275 524L275 523L275 522L275 521L275 520L275 519L275 518L275 517L275 516L275 515L275 514L275 513L275 512L275 511L275 510L275 509L275 508L275 507L275 506L275 505L275 504L275 503L275 502L275 501L275 500L275 499L275 498L275 497L275 496L275 495L275 494L275 493L275 492L275 491L275 490L275 489L275 488L275 487L275 486L275 485L275 484L275 483L275 482L275 481L275 480L275 479L275 478L275 477L275 476L275 475L275 474L275 473L275 472L275 471L275 470L275 469L275 468L275 467L275 466L275 465L275 464L275 463L275 462L275 461L275 460L275 459L275 458L275 457L275 456L275 455L275 454L275 453L275 452L275 451L275 450L275 449L275 448L275 447L275 446L275 445L275 444L275 443L275 442L275 441L275 440L275 439L275 438L275 437L275 436L275 435L275 434L275 433L275 432L275 431L275 430L275 429L275 428L275 427L275 426L275 425L275 424L275 423L275 422L275 421L275 420L275 419L275 418L275 417L275 416L275 415L275 414L275 413L275 412L275 411L275 410L275 409L274 402z"/>
</svg>
