<?xml version="1.0" standalone="yes"?>
<svg width="900" height="900">
<path style="fill:#0a0a0a; stroke:none;" d="M215 266L215 270L215 271L215 272L215 273L215 274L215 275L215 276L215 277L215 278L215 279L215 280L215 281L215 282L215 283L215 284L215 285L215 286L215 287L215 288L215 289L215 290L215 291L215 292L215 293L215 294L215 295L215 296L215 297L215 298L215 299L215 300L215 301L215 302L215 303L215 304L215 305L215 306L215 307L215 308L215 309L215 310L215 311L215 312L215 313L215 314L215 315L215 316L215 317L215 318L215 319L215 320L215 321L215 322L215 323L215 324L215 325L215 326L215 327L215 328L215 329L215 334L216 334L216 331L216 327L216 326L216 325L216 324L216 323L216 322L216 321L216 320L216 319L216 318L216 317L216 316L216 315L216 314L216 313L216 312L216 311L216 310L216 309L216 308L216 307L216 306L216 305L216 304L216 303L216 302L216 301L216 300L216 299L216 298L216 297L216 296L216 295L216 294L216 293L216 292L216 291L216 290L216 289L216 288L216 287L216 286L216 285L216 284L216 283L216 282L216 281L216 280L216 279L216 278L216 277L216 276L216 275L216 274L216 273L216 272L215 266M264 266L264 270L264 271L264 272L264 273L264 274L264 275L264 276L264 277L264 278L264 279L264 280L264 281L264 282L264 283L264 284L264 285L264 286L264 287L264 288L264 289L264 290L264 291L264 292L264 293L264 294L264 295L264 296L264 297L264 298L264 299L264 300L264 301L264 302L264 303L264 304L264 305L264 306L264 307L264 308L264 309L264 310L264 311L264 312L264 313L264 314L264 315L264 316L264 317L264 318L264 319L264 320L264 321L264 322L264 323L264 324L264 325L264 326L264 327L264 328L264 329L264 334L265 334L265 331L265 327L265 326L265 325L265 324L265 323L265 322L265 321L265 320L265 319L265 318L265 317L265 316L265 315L265 314L265 313L265 312L265 311L265 310L265 309L265 308L265 307L265 306L265 305L265 304L265 303L265 302L265 301L265 300L265 299L265 298L265 297L265 296L265 295L265 294L265 293L265 292L265 291L265 290L265 289L265 288L265 287L265 286L265 285L265 284L265 283L265 282L265 281L265 280L265 279L265 278L265 277L265 276L265 275L265 274L265 273L265 272L264 266M285 266L285 270L285 271L285 272L285 273L285 274L285 275L285 276L285 277L285 278L285 279L285 280L285 281L285 282L285 283L285 284L285 285L285 286L285 287L285 288L285 289L285 290L285 291L285 292L285 293L285 294L285 295L285 296L285 297L285 298L285 299L285 300L285 301L285 302L285 303L285 304L285 305L285 306L285 307L285 308L285 309L285 310L285 311L285 312L285 313L285 314L285 315L285 316L285 317L285 318L285 319L285 320L285 321L285 322L285 323L285 324L285 325L285 326L285 327L285 328L285 329L285 334L286 334L286 331L286 327L286 326L286 325L286 324L286 323L286 322L286 321L286 320L286 319L286 318L286 317L286 316L286 315L286 314L286 313L286 312L286 311L286 310L286 309L286 308L286 307L286 306L286 305L286 304L286 303L286 302L286 301L286 300L286 299L286 298L286 297L286 296L286 295L286 294L286 293L286 292L286 291L286 290L286 289L286 288L286 287L286 286L286 285L286 284L286 283L286 282L286 281L286 280L286 279L286 278L286 277L286 276L286 275L286 274L286 273L286 272L285 266M480 266L480 270L480 271L480 272L480 273L480 274L480 275L480 276L480 277L480 278L480 279L480 280L480 281L480 282L480 283L480 284L480 285L480 286L480 287L480 288L480 289L480 290L480 291L480 292L480 293L480 294L480 295L480 296L480 297L480 298L480 299L480 300L480 301L480 302L480 303L480 304L480 305L480 306L480 307L480 308L480 309L480 310L480 311L480 312L480 313L480 314L480 315L480 316L480 317L480 318L480 319L480 320L480 321L480 322L480 323L480 324L480 325L480 326L480 327L480 328L480 329L480 334L481 334L481 331L481 327L481 326L481 325L481 324L481 323L481 322L481 321L481 320L481 319L481 318L481 317L481 316L481 315L481 314L481 313L481 312L481 311L481 310L481 309L481 308L481 307L481 306L481 305L481 304L481 303L481 302L481 301L481 300L481 299L481 298L481 297L481 296L481 295L481 294L481 293L481 292L481 291L481 290L481 289L481 288L481 287L481 286L481 285L481 284L481 283L481 282L481 281L481 280L481 279L481 278L481 277L481 276L481 275L481 274L481 273L481 272L480 266M524 266L524 270L524 271L524 272L524 273L524 274L524 275L524 276L524 277L524 278L524 279L524 280L524 281L524 282L524 283L524 284L524 285L524 286L524 287L524 288L524 289L524 290L524 291L524 292L524 293L524 294L524 295L524 296L524 297L524 298L524 299L524 300L524 301L524 302L524 303L524 304L524 305L524 306L524 307L524 308L524 309L524 310L524 311L524 312L524 313L524 314L524 315L524 316L524 317L524 318L524 319L524 320L524 321L524 322L524 323L524 324L524 325L524 326L524 327L524 328L524 329L524 334L533 334L533 330L533 329L533 328L533 327L533 326L533 325L533 324L533 323L533 322L533 321L533 320L533 319L533 318L533 317L533 316L533 315L533 314L533 313L533 312L533 311L533 310L533 309L533 308L533 307L533 306L533 305L533 304L533 303L533 302L533 301L533 300L533 299L533 298L533 297L533 296L533 295L533 294L533 293L533 292L533 291L533 290L533 289L533 288L533 287L533 286L533 285L533 284L533 283L533 282L533 281L533 280L533 279L533 278L533 277L533 276L533 275L533 274L533 273L533 272L533 271L533 266L524 266M227 335L227 339L227 340L227 341L227 342L227 343L227 344L227 345L227 346L227 347L227 348L227 349L227 350L227 351L227 352L227 353L227 354L227 355L227 356L227 357L227 358L227 359L227 360L227 361L227 362L227 363L227 364L227 365L227 366L227 367L227 368L227 369L227 370L227 371L227 372L227 373L227 374L227 375L227 376L227 377L227 378L227 379L227 380L227 381L227 382L227 383L227 384L227 385L227 386L227 387L227 388L227 389L227 390L227 391L227 392L227 393L227 394L227 395L227 396L227 397L227 398L227 403L234 403L234 399L234 398L234 397L234 396L234 395L234 394L234 393L234 392L234 391L234 390L234 389L234 388L234 387L234 386L234 385L234 384L234 383L234 382L234 381L234 380L234 379L234 378L234 377L234 376L234 375L234 374L234 373L234 372L234 371L234 370L234 369L234 368L234 367L234 366L234 365L234 364L234 363L234 362L234 361L234 360L234 359L234 358L234 357L234 356L234 355L234 354L234 353L234 352L234 351L234 350L234 349L234 348L234 347L234 346L234 345L234 344L234 343L234 342L234 341L234 340L234 335L227 335M297 335L297 339L297 340L297 341L297 342L297 343L297 344L297 345L297 346L297 347L297 348L297 349L297 350L297 351L297 352L297 353L297 354L297 355L297 356L297 357L297 358L297 359L297 360L297 361L297 362L297 363L297 364L297 365L297 366L297 367L297 368L297 369L297 370L297 371L297 372L297 373L297 374L297 375L297 376L297 377L297 378L297 379L297 380L297 381L297 382L297 383L297 384L297 385L297 386L297 387L297 388L297 389L297 390L297 391L297 392L297 393L297 394L297 395L297 396L297 397L297 398L297 403L307 403L307 399L307 398L307 397L307 396L307 395L307 394L307 393L307 392L307 391L307 390L307 389L307 388L307 387L307 386L307 385L307 384L307 383L307 382L307 381L307 380L307 379L307 378L307 377L307 376L307 375L307 374L307 373L307 372L307 371L307 370L307 369L307 368L307 367L307 366L307 365L307 364L307 363L307 362L307 361L307 360L307 359L307 358L307 357L307 356L307 355L307 354L307 353L307 352L307 351L307 350L307 349L307 348L307 347L307 346L307 345L307 344L307 343L307 342L307 341L307 340L307 335L297 335M439 335L439 339L439 340L439 341L439 342L439 343L439 344L439 345L439 346L439 347L439 348L439 349L439 350L439 351L439 352L439 353L439 354L439 355L439 356L439 357L439 358L439 359L439 360L439 361L439 362L439 363L439 364L439 365L439 366L439 367L439 368L439 369L439 370L439 371L439 372L439 373L439 374L439 375L439 376L439 377L439 378L439 379L439 380L439 381L439 382L439 383L439 384L439 385L439 386L439 387L439 388L439 389L439 390L439 391L439 392L439 393L439 394L439 395L439 396L439 397L439 398L439 403L449 403L449 399L449 398L449 397L449 396L449 395L449 394L449 393L449 392L449 391L449 390L449 389L449 388L449 387L449 386L449 385L449 384L449 383L449 382L449 381L449 380L449 379L449 378L449 377L449 376L449 375L449 374L449 373L449 372L449 371L449 370L449 369L449 368L449 367L449 366L449 365L449 364L449 363L449 362L449 361L449 360L449 359L449 358L449 357L449 356L449 355L449 354L449 353L449 352L449 351L449 350L449 349L449 348L449 347L449 346L449 345L449 344L449 343L449 342L449 341L449 340L449 335L439 335M460 335L460 339L460 340L460 341L460 342L460 343L460 344L460 345L460 346L460 347L460 348L460 349L460 350L460 351L460 352L460 353L460 354L460 355L460 356L460 357L460 358L460 359L460 360L460 361L460 362L460 363L460 364L460 365L460 366L460 367L460 368L460 369L460 370L460 371L460 372L460 373L460 374L460 375L460 376L460 377L460 378L460 379L460 380L460 381L460 382L460 383L460 384L460 385L460 386L460 387L460 388L460 389L460 390L460 391L460 392L460 393L460 394L460 395L460 396L460 397L460 398L460 403L469 403L469 399L469 398L469 397L469 396L469 395L469 394L469 393L469 392L469 391L469 390L469 389L469 388L469 387L469 386L469 385L469 384L469 383L469 382L469 381L469 380L469 379L469 378L469 377L469 376L469 375L469 374L469 373L469 372L469 371L469 370L469 369L469 368L469 367L469 366L469 365L469 364L469 363L469 362L469 361L469 360L469 359L469 358L469 357L469 356L469 355L469 354L469 353L469 352L469 351L469 350L469 349L469 348L469 347L469 346L469 345L469 344L469 343L469 342L469 341L469 340L469 335L460 335M506 335L506 339L506 340L506 341L506 342L506 343L506 344L506 345L506 346L506 347L506 348L506 349L506 350L506 351L506 352L506 353L506 354L506 355L506 356L506 357L506 358L506 359L506 360L506 361L506 362L506 363L506 364L506 365L506 366L506 367L506 368L506 369L506 370L506 371L506 372L506 373L506 374L506 375L506 376L506 377L506 378L506 379L506 380L506 381L506 382L506 383L506 384L506 385L506 386L506 387L506 388L506 389L506 390L506 391L506 392L506 393L506 394L506 395L506 396L506 397L506 398L506 403L510 403L511 403L512 403L513 403L518 403L518 399L518 398L518 397L518 396L518 395L518 394L518 393L518 392L518 391L518 390L518 389L518 388L518 387L518 386L518 385L518 384L518 383L518 382L518 381L518 380L518 379L518 378L518 377L518 376L518 375L518 374L518 373L518 372L518 371L518 370L518 369L518 368L518 367L518 366L518 365L518 364L518 363L518 362L518 361L518 360L518 359L518 358L518 357L518 356L518 355L518 354L518 353L518 352L518 351L518 350L518 349L518 348L518 347L518 346L518 345L518 344L518 343L518 342L518 341L518 340L518 335L514 335L513 335L512 335L511 335L506 335M330 403L330 407L330 408L330 409L330 410L330 411L330 412L330 413L330 414L330 415L330 416L330 417L330 418L330 419L330 420L330 421L330 422L330 423L330 424L330 425L330 426L330 427L330 428L330 429L330 430L330 431L330 432L330 433L330 434L330 435L330 436L330 437L330 438L330 439L330 440L330 441L330 442L330 443L330 444L330 445L330 446L330 447L330 448L330 449L330 450L330 451L330 452L330 453L330 454L330 455L330 456L330 457L330 458L330 459L330 460L330 461L330 462L330 463L330 464L330 465L330 466L330 472L334 472L335 472L336 472L337 472L338 472L339 472L340 472L341 472L342 472L343 472L344 472L345 472L346 472L347 472L348 472L349 472L350 472L351 472L352 472L353 472L354 472L355 472L356 472L357 472L358 472L359 472L360 472L361 472L366 472L366 476L366 477L366 478L366 479L366 480L366 481L366 482L366 483L366 484L366 485L366 486L366 487L366 488L366 489L366 490L366 491L366 492L366 493L366 494L366 495L366 496L366 497L366 498L366 499L366 500L366 501L366 502L366 503L366 504L366 505L366 506L366 507L366 508L366 509L366 510L366 511L366 512L366 513L366 514L366 515L366 516L366 517L366 518L366 519L366 520L366 521L366 522L366 523L366 524L366 525L366 526L366 527L366 528L366 529L366 530L366 531L366 532L366 533L366 534L366 535L366 540L370 540L371 540L372 540L373 540L379 540L379 536L379 535L379 534L379 533L379 532L379 531L379 530L379 529L379 528L379 527L379 526L379 525L379 524L379 523L379 522L379 521L379 520L379 519L379 518L379 517L379 516L379 515L379 514L379 513L379 512L379 511L379 510L379 509L379 508L379 507L379 506L379 505L379 504L379 503L379 502L379 501L379 500L379 499L379 498L379 497L379 496L379 495L379 494L379 493L379 492L379 491L379 490L379 489L379 488L379 487L379 486L379 485L379 484L379 483L379 482L379 481L379 480L379 479L379 478L379 477L379 472L375 472L374 472L373 472L372 472L366 472L366 468L366 467L366 466L366 465L366 464L366 463L366 462L366 461L366 460L366 459L366 458L366 457L366 456L366 455L366 454L366 453L366 452L366 451L366 450L366 449L366 448L366 447L366 446L366 445L366 444L366 443L366 442L366 441L366 440L366 439L366 438L366 437L366 436L366 435L366 434L366 433L366 432L366 431L366 430L366 429L366 428L366 427L366 426L366 425L366 424L366 423L366 422L366 421L366 420L366 419L366 418L366 417L366 416L366 415L366 414L366 413L366 412L366 411L366 410L366 409L366 403L362 403L361 403L360 403L359 403L358 403L357 403L356 403L355 403L354 403L353 403L352 403L351 403L350 403L349 403L348 403L347 403L346 403L345 403L344 403L343 403L342 403L341 403L340 403L339 403L338 403L337 403L336 403L335 403L330 403M380 403L380 407L380 408L380 409L380 410L380 411L380 412L380 413L380 414L380 415L380 416L380 417L380 418L380 419L380 420L380 421L380 422L380 423L380 424L380 425L380 426L380 427L380 428L380 429L380 430L380 431L380 432L380 433L380 434L380 435L380 436L380 437L380 438L380 439L380 440L380 441L380 442L380 443L380 444L380 445L380 446L380 447L380 448L380 449L380 450L380 451L380 452L380 453L380 454L380 455L380 456L380 457L380 458L380 459L380 460L380 461L380 462L380 463L380 464L380 465L380 466L380 472L384 472L385 472L386 472L387 472L388 472L389 472L390 472L391 472L392 472L393 472L394 472L395 472L396 472L397 472L398 472L399 472L400 472L401 472L402 472L403 472L404 472L405 472L406 472L407 472L408 472L409 472L410 472L411 472L415 472L415 468L415 467L415 466L415 465L415 464L415 463L415 462L415 461L415 460L415 459L415 458L415 457L415 456L415 455L415 454L415 453L415 452L415 451L415 450L415 449L415 448L415 447L415 446L415 445L415 444L415 443L415 442L415 441L415 440L415 439L415 438L415 437L415 436L415 435L415 434L415 433L415 432L415 431L415 430L415 429L415 428L415 427L415 426L415 425L415 424L415 423L415 422L415 421L415 420L415 419L415 418L415 417L415 416L415 415L415 414L415 413L415 412L415 411L415 410L415 409L415 403L411 403L410 403L409 403L408 403L407 403L406 403L405 403L404 403L403 403L402 403L401 403L400 403L399 403L398 403L397 403L396 403L395 403L394 403L393 403L392 403L391 403L390 403L389 403L388 403L387 403L386 403L385 403L384 403L380 403M235 472L235 476L235 477L235 478L235 479L235 480L235 481L235 482L235 483L235 484L235 485L235 486L235 487L235 488L235 489L235 490L235 491L235 492L235 493L235 494L235 495L235 496L235 497L235 498L235 499L235 500L235 501L235 502L235 503L235 504L235 505L235 506L235 507L235 508L235 509L235 510L235 511L235 512L235 513L235 514L235 515L235 516L235 517L235 518L235 519L235 520L235 521L235 522L235 523L235 524L235 525L235 526L235 527L235 528L235 529L235 530L235 531L235 532L235 533L235 534L235 535L235 540L239 540L240 540L241 540L242 540L246 540L246 536L246 535L246 534L246 533L246 532L246 531L246 530L246 529L246 528L246 527L246 526L246 525L246 524L246 523L246 522L246 521L246 520L246 519L246 518L246 517L246 516L246 515L246 514L246 513L246 512L246 511L246 510L246 509L246 508L246 507L246 506L246 505L246 504L246 503L246 502L246 501L246 500L246 499L246 498L246 497L246 496L246 495L246 494L246 493L246 492L246 491L246 490L246 489L246 488L246 487L246 486L246 485L246 484L246 483L246 482L246 481L246 480L246 479L246 478L246 477L246 472L242 472L241 472L240 472L239 472L235 472M305 472L305 476L305 477L305 478L305 479L305 480L305 481L305 482L305 483L305 484L305 485L305 486L305 487L305 488L305 489L305 490L305 491L305 492L305 493L305 494L305 495L305 496L305 497L305 498L305 499L305 500L305 501L305 502L305 503L305 504L305 505L305 506L305 507L305 508L305 509L305 510L305 511L305 512L305 513L305 514L305 515L305 516L305 517L305 518L305 519L305 520L305 521L305 522L305 523L305 524L305 525L305 526L305 527L305 528L305 529L305 530L305 531L305 532L305 533L305 534L305 535L305 540L301 540L300 540L299 540L298 540L297 540L296 540L295 540L294 540L287 540L287 544L287 545L287 546L287 547L287 548L287 549L287 550L287 551L287 552L287 553L287 554L287 555L287 556L287 557L287 558L287 559L287 560L287 561L287 562L287 563L287 564L287 565L287 566L287 567L287 568L287 569L287 570L287 571L287 572L287 573L287 574L287 575L287 576L287 577L287 578L287 579L287 580L287 581L287 582L287 583L287 584L287 585L287 586L287 587L287 588L287 589L287 590L287 591L287 592L287 593L287 594L287 595L287 596L287 597L287 598L287 599L287 600L287 601L287 602L287 603L287 608L291 608L292 608L293 608L294 608L295 608L296 608L297 608L298 608L305 608L305 604L305 603L305 602L305 601L305 600L305 599L305 598L305 597L305 596L305 595L305 594L305 593L305 592L305 591L305 590L305 589L305 588L305 587L305 586L305 585L305 584L305 583L305 582L305 581L305 580L305 579L305 578L305 577L305 576L305 575L305 574L305 573L305 572L305 571L305 570L305 569L305 568L305 567L305 566L305 565L305 564L305 563L305 562L305 561L305 560L305 559L305 558L305 557L305 556L305 555L305 554L305 553L305 552L305 551L305 550L305 549L305 548L305 547L305 546L305 545L305 540L306 540L306 537L306 533L306 532L306 531L306 530L306 529L306 528L306 527L306 526L306 525L306 524L306 523L306 522L306 521L306 520L306 519L306 518L306 517L306 516L306 515L306 514L306 513L306 512L306 511L306 510L306 509L306 508L306 507L306 506L306 505L306 504L306 503L306 502L306 501L306 500L306 499L306 498L306 497L306 496L306 495L306 494L306 493L306 492L306 491L306 490L306 489L306 488L306 487L306 486L306 485L306 484L306 483L306 482L306 481L306 480L306 479L306 478L305 472M309 472L309 476L309 477L309 478L309 479L309 480L309 481L309 482L309 483L309 484L309 485L309 486L309 487L309 488L309 489L309 490L309 491L309 492L309 493L309 494L309 495L309 496L309 497L309 498L309 499L309 500L309 501L309 502L309 503L309 504L309 505L309 506L309 507L309 508L309 509L309 510L309 511L309 512L309 513L309 514L309 515L309 516L309 517L309 518L309 519L309 520L309 521L309 522L309 523L309 524L309 525L309 526L309 527L309 528L309 529L309 530L309 531L309 532L309 533L309 534L309 535L309 540L313 540L314 540L315 540L316 540L317 540L318 540L319 540L320 540L326 540L326 536L326 535L326 534L326 533L326 532L326 531L326 530L326 529L326 528L326 527L326 526L326 525L326 524L326 523L326 522L326 521L326 520L326 519L326 518L326 517L326 516L326 515L326 514L326 513L326 512L326 511L326 510L326 509L326 508L326 507L326 506L326 505L326 504L326 503L326 502L326 501L326 500L326 499L326 498L326 497L326 496L326 495L326 494L326 493L326 492L326 491L326 490L326 489L326 488L326 487L326 486L326 485L326 484L326 483L326 482L326 481L326 480L326 479L326 478L326 477L326 472L322 472L321 472L320 472L319 472L318 472L317 472L316 472L315 472L309 472M421 472L421 476L421 477L421 478L421 479L421 480L421 481L421 482L421 483L421 484L421 485L421 486L421 487L421 488L421 489L421 490L421 491L421 492L421 493L421 494L421 495L421 496L421 497L421 498L421 499L421 500L421 501L421 502L421 503L421 504L421 505L421 506L421 507L421 508L421 509L421 510L421 511L421 512L421 513L421 514L421 515L421 516L421 517L421 518L421 519L421 520L421 521L421 522L421 523L421 524L421 525L421 526L421 527L421 528L421 529L421 530L421 531L421 532L421 533L421 534L421 535L421 540L425 540L426 540L427 540L428 540L433 540L433 536L433 535L433 534L433 533L433 532L433 531L433 530L433 529L433 528L433 527L433 526L433 525L433 524L433 523L433 522L433 521L433 520L433 519L433 518L433 517L433 516L433 515L433 514L433 513L433 512L433 511L433 510L433 509L433 508L433 507L433 506L433 505L433 504L433 503L433 502L433 501L433 500L433 499L433 498L433 497L433 496L433 495L433 494L433 493L433 492L433 491L433 490L433 489L433 488L433 487L433 486L433 485L433 484L433 483L433 482L433 481L433 480L433 479L433 478L433 477L433 472L429 472L428 472L427 472L426 472L421 472M450 472L450 476L450 477L450 478L450 479L450 480L450 481L450 482L450 483L450 484L450 485L450 486L450 487L450 488L450 489L450 490L450 491L450 492L450 493L450 494L450 495L450 496L450 497L450 498L450 499L450 500L450 501L450 502L450 503L450 504L450 505L450 506L450 507L450 508L450 509L450 510L450 511L450 512L450 513L450 514L450 515L450 516L450 517L450 518L450 519L450 520L450 521L450 522L450 523L450 524L450 525L450 526L450 527L450 528L450 529L450 530L450 531L450 532L450 533L450 534L450 535L450 540L440 540L440 544L440 545L440 546L440 547L440 548L440 549L440 550L440 551L440 552L440 553L440 554L440 555L440 556L440 557L440 558L440 559L440 560L440 561L440 562L440 563L440 564L440 565L440 566L440 567L440 568L440 569L440 570L440 571L440 572L440 573L440 574L440 575L440 576L440 577L440 578L440 579L440 580L440 581L440 582L440 583L440 584L440 585L440 586L440 587L440 588L440 589L440 590L440 591L440 592L440 593L440 594L440 595L440 596L440 597L440 598L440 599L440 600L440 601L440 602L440 603L440 608L450 608L450 604L450 603L450 602L450 601L450 600L450 599L450 598L450 597L450 596L450 595L450 594L450 593L450 592L450 591L450 590L450 589L450 588L450 587L450 586L450 585L450 584L450 583L450 582L450 581L450 580L450 579L450 578L450 577L450 576L450 575L450 574L450 573L450 572L450 571L450 570L450 569L450 568L450 567L450 566L450 565L450 564L450 563L450 562L450 561L450 560L450 559L450 558L450 557L450 556L450 555L450 554L450 553L450 552L450 551L450 550L450 549L450 548L450 547L450 546L450 545L450 540L453 540L453 539L453 535L453 534L453 533L453 532L453 531L453 530L453 529L453 528L453 527L453 526L453 525L453 524L453 523L453 522L453 521L453 520L453 519L453 518L453 517L453 516L453 515L453 514L453 513L453 512L453 511L453 510L453 509L453 508L453 507L453 506L453 505L453 504L453 503L453 502L453 501L453 500L453 499L453 498L453 497L453 496L453 495L453 494L453 493L453 492L453 491L453 490L453 489L453 488L453 487L453 486L453 485L453 484L453 483L453 482L453 481L453 480L453 479L453 478L453 477L453 476L453 472L450 472M507 472L507 476L507 477L507 478L507 479L507 480L507 481L507 482L507 483L507 484L507 485L507 486L507 487L507 488L507 489L507 490L507 491L507 492L507 493L507 494L507 495L507 496L507 497L507 498L507 499L507 500L507 501L507 502L507 503L507 504L507 505L507 506L507 507L507 508L507 509L507 510L507 511L507 512L507 513L507 514L507 515L507 516L507 517L507 518L507 519L507 520L507 521L507 522L507 523L507 524L507 525L507 526L507 527L507 528L507 529L507 530L507 531L507 532L507 533L507 534L507 535L507 540L508 540L508 537L508 533L508 532L508 531L508 530L508 529L508 528L508 527L508 526L508 525L508 524L508 523L508 522L508 521L508 520L508 519L508 518L508 517L508 516L508 515L508 514L508 513L508 512L508 511L508 510L508 509L508 508L508 507L508 506L508 505L508 504L508 503L508 502L508 501L508 500L508 499L508 498L508 497L508 496L508 495L508 494L508 493L508 492L508 491L508 490L508 489L508 488L508 487L508 486L508 485L508 484L508 483L508 482L508 481L508 480L508 479L508 478L507 472M218 540L218 544L218 545L218 546L218 547L218 548L218 549L218 550L218 551L218 552L218 553L218 554L218 555L218 556L218 557L218 558L218 559L218 560L218 561L218 562L218 563L218 564L218 565L218 566L218 567L218 568L218 569L218 570L218 571L218 572L218 573L218 574L218 575L218 576L218 577L218 578L218 579L218 580L218 581L218 582L218 583L218 584L218 585L218 586L218 587L218 588L218 589L218 590L218 591L218 592L218 593L218 594L218 595L218 596L218 597L218 598L218 599L218 600L218 601L218 602L218 603L218 608L222 608L223 608L224 608L225 608L230 608L230 604L230 603L230 602L230 601L230 600L230 599L230 598L230 597L230 596L230 595L230 594L230 593L230 592L230 591L230 590L230 589L230 588L230 587L230 586L230 585L230 584L230 583L230 582L230 581L230 580L230 579L230 578L230 577L230 576L230 575L230 574L230 573L230 572L230 571L230 570L230 569L230 568L230 567L230 566L230 565L230 564L230 563L230 562L230 561L230 560L230 559L230 558L230 557L230 556L230 555L230 554L230 553L230 552L230 551L230 550L230 549L230 548L230 547L230 546L230 545L230 540L226 540L225 540L224 540L223 540L218 540M266 540L266 544L266 545L266 546L266 547L266 548L266 549L266 550L266 551L266 552L266 553L266 554L266 555L266 556L266 557L266 558L266 559L266 560L266 561L266 562L266 563L266 564L266 565L266 566L266 567L266 568L266 569L266 570L266 571L266 572L266 573L266 574L266 575L266 576L266 577L266 578L266 579L266 580L266 581L266 582L266 583L266 584L266 585L266 586L266 587L266 588L266 589L266 590L266 591L266 592L266 593L266 594L266 595L266 596L266 597L266 598L266 599L266 600L266 601L266 602L266 603L266 608L275 608L275 604L275 603L275 602L275 601L275 600L275 599L275 598L275 597L275 596L275 595L275 594L275 593L275 592L275 591L275 590L275 589L275 588L275 587L275 586L275 585L275 584L275 583L275 582L275 581L275 580L275 579L275 578L275 577L275 576L275 575L275 574L275 573L275 572L275 571L275 570L275 569L275 568L275 567L275 566L275 565L275 564L275 563L275 562L275 561L275 560L275 559L275 558L275 557L275 556L275 555L275 554L275 553L275 552L275 551L275 550L275 549L275 548L275 547L275 546L275 545L275 540L266 540M461 540L461 544L461 545L461 546L461 547L461 548L461 549L461 550L461 551L461 552L461 553L461 554L461 555L461 556L461 557L461 558L461 559L461 560L461 561L461 562L461 563L461 564L461 565L461 566L461 567L461 568L461 569L461 570L461 571L461 572L461 573L461 574L461 575L461 576L461 577L461 578L461 579L461 580L461 581L461 582L461 583L461 584L461 585L461 586L461 587L461 588L461 589L461 590L461 591L461 592L461 593L461 594L461 595L461 596L461 597L461 598L461 599L461 600L461 601L461 602L461 603L461 608L465 608L466 608L467 608L468 608L469 608L470 608L471 608L472 608L479 608L479 604L479 603L479 602L479 601L479 600L479 599L479 598L479 597L479 596L479 595L479 594L479 593L479 592L479 591L479 590L479 589L479 588L479 587L479 586L479 585L479 584L479 583L479 582L479 581L479 580L479 579L479 578L479 577L479 576L479 575L479 574L479 573L479 572L479 571L479 570L479 569L479 568L479 567L479 566L479 565L479 564L479 563L479 562L479 561L479 560L479 559L479 558L479 557L479 556L479 555L479 554L479 553L479 552L479 551L479 550L479 549L479 548L479 547L479 546L479 545L479 540L475 540L474 540L473 540L472 540L471 540L470 540L469 540L468 540L461 540M515 540L515 544L515 545L515 546L515 547L515 548L515 549L515 550L515 551L515 552L515 553L515 554L515 555L515 556L515 557L515 558L515 559L515 560L515 561L515 562L515 563L515 564L515 565L515 566L515 567L515 568L515 569L515 570L515 571L515 572L515 573L515 574L515 575L515 576L515 577L515 578L515 579L515 580L515 581L515 582L515 583L515 584L515 585L515 586L515 587L515 588L515 589L515 590L515 591L515 592L515 593L515 594L515 595L515 596L515 597L515 598L515 599L515 600L515 601L515 602L515 603L515 608L518 608L518 607L518 603L518 602L518 601L518 600L518 599L518 598L518 597L518 596L518 595L518 594L518 593L518 592L518 591L518 590L518 589L518 588L518 587L518 586L518 585L518 584L518 583L518 582L518 581L518 580L518 579L518 578L518 577L518 576L518 575L518 574L518 573L518 572L518 571L518 570L518 569L518 568L518 567L518 566L518 565L518 564L518 563L518 562L518 561L518 560L518 559L518 558L518 557L518 556L518 555L518 554L518 553L518 552L518 551L518 550L518 549L518 548L518 547L518 546L518 545L518 544L518 540L515 540z"/>
</svg>
