<?xml version="1.0" standalone="yes"?>
<svg width="900" height="900">
<path style="fill:#0b0b0b; stroke:none;" d="M480 266L480 270L480 271L480 272L480 273L480 274L480 275L480 276L480 277L480 278L480 279L480 280L480 281L480 282L480 283L480 284L480 285L480 286L480 287L480 288L480 289L480 290L480 291L480 292L480 293L480 294L480 295L480 296L480 297L480 298L480 299L480 300L480 301L480 302L480 303L480 304L480 305L480 306L480 307L480 308L480 309L480 310L480 311L480 312L480 313L480 314L480 315L480 316L480 317L480 318L480 319L480 320L480 321L480 322L480 323L480 324L480 325L480 326L480 327L480 328L480 329L480 335L481 335L482 333L482 329L482 328L482 327L482 326L482 325L482 324L482 323L482 322L482 321L482 320L482 319L482 318L482 317L482 316L482 315L482 314L482 313L482 312L482 311L482 310L482 309L482 308L482 307L482 306L482 305L482 304L482 303L482 302L482 301L482 300L482 299L482 298L482 297L482 296L482 295L482 294L482 293L482 292L482 291L482 290L482 289L482 288L482 287L482 286L482 285L482 284L482 283L482 282L482 281L482 280L482 279L482 278L482 277L482 276L482 275L482 274L480 266M524 266L524 270L524 271L524 272L524 273L524 274L524 275L524 276L524 277L524 278L524 279L524 280L524 281L524 282L524 283L524 284L524 285L524 286L524 287L524 288L524 289L524 290L524 291L524 292L524 293L524 294L524 295L524 296L524 297L524 298L524 299L524 300L524 301L524 302L524 303L524 304L524 305L524 306L524 307L524 308L524 309L524 310L524 311L524 312L524 313L524 314L524 315L524 316L524 317L524 318L524 319L524 320L524 321L524 322L524 323L524 324L524 325L524 326L524 327L524 328L524 329L524 334L525 335L527 335L533 335L533 331L533 330L533 329L533 328L533 327L533 326L533 325L533 324L533 323L533 322L533 321L533 320L533 319L533 318L533 317L533 316L533 315L533 314L533 313L533 312L533 311L533 310L533 309L533 308L533 307L533 306L533 305L533 304L533 303L533 302L533 301L533 300L533 299L533 298L533 297L533 296L533 295L533 294L533 293L533 292L533 291L533 290L533 289L533 288L533 287L533 286L533 285L533 284L533 283L533 282L533 281L533 280L533 279L533 278L533 277L533 276L533 275L533 274L533 273L533 272L533 266L524 266M415 267L415 271L415 272L415 273L415 274L415 275L415 276L415 277L415 278L415 279L415 280L415 281L415 282L415 283L415 284L415 285L415 286L415 287L415 288L415 289L415 290L415 291L415 292L415 293L415 294L415 295L415 296L415 297L415 298L415 299L415 300L415 301L415 302L415 303L415 304L415 305L415 306L415 307L415 308L415 309L415 310L415 311L415 312L415 313L415 314L415 315L415 316L415 317L415 318L415 319L415 320L415 321L415 322L415 323L415 324L415 325L415 326L415 327L415 328L415 329L415 330L415 334L416 334L416 331L416 327L416 326L416 325L416 324L416 323L416 322L416 321L416 320L416 319L416 318L416 317L416 316L416 315L416 314L416 313L416 312L416 311L416 310L416 309L416 308L416 307L416 306L416 305L416 304L416 303L416 302L416 301L416 300L416 299L416 298L416 297L416 296L416 295L416 294L416 293L416 292L416 291L416 290L416 289L416 288L416 287L416 286L416 285L416 284L416 283L416 282L416 281L416 280L416 279L416 278L416 277L416 276L416 275L416 274L416 273L416 272L415 267M478 267L478 271L478 272L478 273L478 274L478 275L478 276L478 277L478 278L478 279L478 280L478 281L478 282L478 283L478 284L478 285L478 286L478 287L478 288L478 289L478 290L478 291L478 292L478 293L478 294L478 295L478 296L478 297L478 298L478 299L478 300L478 301L478 302L478 303L478 304L478 305L478 306L478 307L478 308L478 309L478 310L478 311L478 312L478 313L478 314L478 315L478 316L478 317L478 318L478 319L478 320L478 321L478 322L478 323L478 324L478 325L478 326L478 327L478 328L478 329L478 330L478 334L479 334L479 331L479 327L479 326L479 325L479 324L479 323L479 322L479 321L479 320L479 319L479 318L479 317L479 316L479 315L479 314L479 313L479 312L479 311L479 310L479 309L479 308L479 307L479 306L479 305L479 304L479 303L479 302L479 301L479 300L479 299L479 298L479 297L479 296L479 295L479 294L479 293L479 292L479 291L479 290L479 289L479 288L479 287L479 286L479 285L479 284L479 283L479 282L479 281L479 280L479 279L479 278L479 277L479 276L479 275L479 274L479 273L479 272L478 267M327 334L326 335L326 337L326 341L326 342L326 343L326 344L326 345L326 346L326 347L326 348L326 349L326 350L326 351L326 352L326 353L326 354L326 355L326 356L326 357L326 358L326 359L326 360L326 361L326 362L326 363L326 364L326 365L326 366L326 367L326 368L326 369L326 370L326 371L326 372L326 373L326 374L326 375L326 376L326 377L326 378L326 379L326 380L326 381L326 382L326 383L326 384L326 385L326 386L326 387L326 388L326 389L326 390L326 391L326 392L326 393L326 394L326 395L326 396L326 403L330 403L330 407L330 408L330 409L330 410L330 411L330 412L330 413L330 414L330 415L330 416L330 417L330 418L330 419L330 420L330 421L330 422L330 423L330 424L330 425L330 426L330 427L330 428L330 429L330 430L330 431L330 432L330 433L330 434L330 435L330 436L330 437L330 438L330 439L330 440L330 441L330 442L330 443L330 444L330 445L330 446L330 447L330 448L330 449L330 450L330 451L330 452L330 453L330 454L330 455L330 456L330 457L330 458L330 459L330 460L330 461L330 462L330 463L330 464L330 465L330 466L330 472L327 472L327 473L327 477L327 478L327 479L327 480L327 481L327 482L327 483L327 484L327 485L327 486L327 487L327 488L327 489L327 490L327 491L327 492L327 493L327 494L327 495L327 496L327 497L327 498L327 499L327 500L327 501L327 502L327 503L327 504L327 505L327 506L327 507L327 508L327 509L327 510L327 511L327 512L327 513L327 514L327 515L327 516L327 517L327 518L327 519L327 520L327 521L327 522L327 523L327 524L327 525L327 526L327 527L327 528L327 529L327 530L327 531L327 532L327 533L327 534L327 535L327 536L327 540L326 540L326 543L326 547L326 548L326 549L326 550L326 551L326 552L326 553L326 554L326 555L326 556L326 557L326 558L326 559L326 560L326 561L326 562L326 563L326 564L326 565L326 566L326 567L326 568L326 569L326 570L326 571L326 572L326 573L326 574L326 575L326 576L326 577L326 578L326 579L326 580L326 581L326 582L326 583L326 584L326 585L326 586L326 587L326 588L326 589L326 590L326 591L326 592L326 593L326 594L326 595L326 596L326 597L326 598L326 599L326 600L326 601L326 602L326 608L331 608L331 612L331 613L331 614L331 615L331 616L331 617L331 618L331 619L331 620L331 621L331 622L331 623L331 624L331 625L331 626L331 627L331 628L331 629L331 630L331 631L331 632L331 633L331 634L331 635L331 636L331 637L331 638L331 639L331 640L331 641L331 642L331 643L331 644L331 645L331 646L331 647L331 648L331 649L331 650L331 651L331 652L331 653L331 654L331 655L331 656L331 657L331 658L331 659L331 660L331 661L331 662L331 663L331 664L331 665L331 666L331 667L331 668L331 669L331 670L331 671L331 677L330 677L330 680L330 684L330 685L330 686L330 687L330 688L330 689L330 690L330 691L330 692L330 693L330 694L330 695L330 696L330 697L330 698L330 699L330 700L330 701L330 702L330 703L330 704L330 705L330 706L330 707L330 708L330 709L330 710L330 711L330 712L330 713L330 714L330 715L330 716L330 717L330 718L330 719L330 720L330 721L330 722L330 723L330 724L330 725L330 726L330 727L330 728L330 729L330 730L330 731L330 732L330 733L330 734L330 735L330 736L330 737L330 738L330 739L330 746L334 746L335 746L336 746L337 746L338 746L339 746L340 746L341 746L345 746L346 745L346 743L346 739L346 738L346 737L346 736L346 735L346 734L346 733L346 732L346 731L346 730L346 729L346 728L346 727L346 726L346 725L346 724L346 723L346 722L346 721L346 720L346 719L346 718L346 717L346 716L346 715L346 714L346 713L346 712L346 711L346 710L346 709L346 708L346 707L346 706L346 705L346 704L346 703L346 702L346 701L346 700L346 699L346 698L346 697L346 696L346 695L346 694L346 693L346 692L346 691L346 690L346 689L346 688L346 687L346 686L346 685L346 684L346 683L346 682L346 681L346 680L346 679L346 678L346 677L346 676L346 675L346 674L346 673L346 672L346 671L346 670L346 669L346 668L346 667L346 666L346 665L346 664L346 663L346 662L346 661L346 660L346 659L346 658L346 657L346 656L346 655L346 654L346 653L346 652L346 651L346 650L346 649L346 648L346 647L346 646L346 645L346 644L346 643L346 642L346 641L346 640L346 639L346 638L346 637L346 636L346 635L346 634L346 633L346 632L346 631L346 630L346 629L346 628L346 627L346 626L346 625L346 624L346 623L346 622L346 621L346 620L346 619L346 618L346 617L346 616L346 615L346 614L346 613L346 612L346 611L346 610L346 609L346 608L346 607L346 606L346 605L346 604L346 603L346 602L346 601L346 600L346 599L346 598L346 597L346 596L346 595L346 594L346 593L346 592L346 591L346 590L346 589L346 588L346 587L346 586L346 585L346 584L346 583L346 582L346 581L346 580L346 579L346 578L346 577L346 576L346 575L346 574L346 573L346 572L346 571L346 570L346 569L346 568L346 567L346 566L346 565L346 564L346 563L346 562L346 561L346 560L346 559L346 558L346 557L346 556L346 555L346 554L346 553L346 552L346 551L346 550L346 549L346 548L346 547L346 546L346 545L346 544L346 543L346 542L346 541L346 540L346 539L346 538L346 537L346 536L346 535L346 534L346 533L346 532L346 531L346 530L346 529L346 528L346 527L346 526L346 525L346 524L346 523L346 522L346 521L346 520L346 519L346 518L346 517L346 516L346 515L346 514L346 513L346 512L346 511L346 510L346 509L346 508L346 507L346 506L346 505L346 504L346 503L346 502L346 501L346 500L346 499L346 498L346 497L346 496L346 495L346 494L346 493L346 492L346 491L346 490L346 489L346 488L346 487L346 486L346 485L346 484L346 483L346 482L346 481L346 480L346 479L346 478L346 477L346 476L346 475L346 474L346 473L346 472L346 471L346 470L346 469L346 468L346 467L346 466L346 465L346 464L346 463L346 462L346 461L346 460L346 459L346 458L346 457L346 456L346 455L346 454L346 453L346 452L346 451L346 450L346 449L346 448L346 447L346 446L346 445L346 444L346 443L346 442L346 441L346 440L346 439L346 438L346 437L346 436L346 435L346 434L346 433L346 432L346 431L346 430L346 429L346 428L346 427L346 426L346 425L346 424L346 423L346 422L346 421L346 420L346 419L346 418L346 417L346 416L346 415L346 414L346 413L346 412L346 411L346 410L346 409L346 408L346 407L346 406L346 405L346 404L346 403L346 402L346 401L346 400L346 399L346 398L346 397L346 396L346 395L346 394L346 393L346 392L346 391L346 390L346 389L346 388L346 387L346 386L346 385L346 384L346 383L346 382L346 381L346 380L346 379L346 378L346 377L346 376L346 375L346 374L346 373L346 372L346 371L346 370L346 369L346 368L346 367L346 366L346 365L346 364L346 363L346 362L346 361L346 360L346 359L346 358L346 357L346 356L346 355L346 354L346 353L346 352L346 351L346 350L346 349L346 348L346 347L346 346L346 345L346 344L346 343L346 342L346 341L346 340L346 335L345 334L343 334L339 334L338 334L337 334L336 334L335 334L334 334L333 334L332 334L327 334M380 334L379 335L379 337L379 341L379 342L379 343L379 344L379 345L379 346L379 347L379 348L379 349L379 350L379 351L379 352L379 353L379 354L379 355L379 356L379 357L379 358L379 359L379 360L379 361L379 362L379 363L379 364L379 365L379 366L379 367L379 368L379 369L379 370L379 371L379 372L379 373L379 374L379 375L379 376L379 377L379 378L379 379L379 380L379 381L379 382L379 383L379 384L379 385L379 386L379 387L379 388L379 389L379 390L379 391L379 392L379 393L379 394L379 395L379 396L379 397L379 398L379 399L379 400L379 401L379 402L379 403L379 404L379 405L379 406L379 407L379 408L379 409L379 410L379 411L379 412L379 413L379 414L379 415L379 416L379 417L379 418L379 419L379 420L379 421L379 422L379 423L379 424L379 425L379 426L379 427L379 428L379 429L379 430L379 431L379 432L379 433L379 434L379 435L379 436L379 437L379 438L379 439L379 440L379 441L379 442L379 443L379 444L379 445L379 446L379 447L379 448L379 449L379 450L379 451L379 452L379 453L379 454L379 455L379 456L379 457L379 458L379 459L379 460L379 461L379 462L379 463L379 464L379 465L379 466L379 467L379 468L379 469L379 470L379 471L379 472L379 473L379 474L379 475L379 476L379 477L379 478L379 479L379 480L379 481L379 482L379 483L379 484L379 485L379 486L379 487L379 488L379 489L379 490L379 491L379 492L379 493L379 494L379 495L379 496L379 497L379 498L379 499L379 500L379 501L379 502L379 503L379 504L379 505L379 506L379 507L379 508L379 509L379 510L379 511L379 512L379 513L379 514L379 515L379 516L379 517L379 518L379 519L379 520L379 521L379 522L379 523L379 524L379 525L379 526L379 527L379 528L379 529L379 530L379 531L379 532L379 533L379 534L379 535L379 536L379 537L379 538L379 539L379 540L379 541L379 542L379 543L379 544L379 545L379 546L379 547L379 548L379 549L379 550L379 551L379 552L379 553L379 554L379 555L379 556L379 557L379 558L379 559L379 560L379 561L379 562L379 563L379 564L379 565L379 566L379 567L379 568L379 569L379 570L379 571L379 572L379 573L379 574L379 575L379 576L379 577L379 578L379 579L379 580L379 581L379 582L379 583L379 584L379 585L379 586L379 587L379 588L379 589L379 590L379 591L379 592L379 593L379 594L379 595L379 596L379 597L379 598L379 599L379 600L379 601L379 602L379 603L379 604L379 605L379 606L379 607L379 608L379 609L379 610L379 611L379 612L379 613L379 614L379 615L379 616L379 617L379 618L379 619L379 620L379 621L379 622L379 623L379 624L379 625L379 626L379 627L379 628L379 629L379 630L379 631L379 632L379 633L379 634L379 635L379 636L379 637L379 638L379 639L379 640L379 641L379 642L379 643L379 644L379 645L379 646L379 647L379 648L379 649L379 650L379 651L379 652L379 653L379 654L379 655L379 656L379 657L379 658L379 659L379 660L379 661L379 662L379 663L379 664L379 665L379 666L379 667L379 668L379 669L379 670L379 671L379 672L379 673L379 674L379 675L379 676L379 677L379 678L379 679L379 680L379 681L379 682L379 683L379 684L379 685L379 686L379 687L379 688L379 689L379 690L379 691L379 692L379 693L379 694L379 695L379 696L379 697L379 698L379 699L379 700L379 701L379 702L379 703L379 704L379 705L379 706L379 707L379 708L379 709L379 710L379 711L379 712L379 713L379 714L379 715L379 716L379 717L379 718L379 719L379 720L379 721L379 722L379 723L379 724L379 725L379 726L379 727L379 728L379 729L379 730L379 731L379 732L379 733L379 734L379 735L379 736L379 737L379 738L379 739L379 740L379 745L380 746L382 746L386 746L387 746L388 746L389 746L390 746L391 746L392 746L393 746L397 746L398 745L398 743L398 739L398 738L398 737L398 736L398 735L398 734L398 733L398 732L398 731L398 730L398 729L398 728L398 727L398 726L398 725L398 724L398 723L398 722L398 721L398 720L398 719L398 718L398 717L398 716L398 715L398 714L398 713L398 712L398 711L398 710L398 709L398 708L398 707L398 706L398 705L398 704L398 703L398 702L398 701L398 700L398 699L398 698L398 697L398 696L398 695L398 694L398 693L398 692L398 691L398 690L398 689L398 688L398 687L398 686L398 685L398 684L398 678L397 678L397 675L397 671L397 670L397 669L397 668L397 667L397 666L397 665L397 664L397 663L397 662L397 661L397 660L397 659L397 658L397 657L397 656L397 655L397 654L397 653L397 652L397 651L397 650L397 649L397 648L397 647L397 646L397 645L397 644L397 643L397 642L397 641L397 640L397 639L397 638L397 637L397 636L397 635L397 634L397 633L397 632L397 631L397 630L397 629L397 628L397 627L397 626L397 625L397 624L397 623L397 622L397 621L397 620L397 619L397 618L397 617L397 616L397 615L397 614L397 613L397 612L397 608L400 608L400 607L400 603L400 602L400 601L400 600L400 599L400 598L400 597L400 596L400 595L400 594L400 593L400 592L400 591L400 590L400 589L400 588L400 587L400 586L400 585L400 584L400 583L400 582L400 581L400 580L400 579L400 578L400 577L400 576L400 575L400 574L400 573L400 572L400 571L400 570L400 569L400 568L400 567L400 566L400 565L400 564L400 563L400 562L400 561L400 560L400 559L400 558L400 557L400 556L400 555L400 554L400 553L400 552L400 551L400 550L400 549L400 548L400 547L400 546L400 545L400 544L400 540L398 540L398 538L398 534L398 533L398 532L398 531L398 530L398 529L398 528L398 527L398 526L398 525L398 524L398 523L398 522L398 521L398 520L398 519L398 518L398 517L398 516L398 515L398 514L398 513L398 512L398 511L398 510L398 509L398 508L398 507L398 506L398 505L398 504L398 503L398 502L398 501L398 500L398 499L398 498L398 497L398 496L398 495L398 494L398 493L398 492L398 491L398 490L398 489L398 488L398 487L398 486L398 485L398 484L398 483L398 482L398 481L398 480L398 479L398 472L397 472L397 469L397 465L397 464L397 463L397 462L397 461L397 460L397 459L397 458L397 457L397 456L397 455L397 454L397 453L397 452L397 451L397 450L397 449L397 448L397 447L397 446L397 445L397 444L397 443L397 442L397 441L397 440L397 439L397 438L397 437L397 436L397 435L397 434L397 433L397 432L397 431L397 430L397 429L397 428L397 427L397 426L397 425L397 424L397 423L397 422L397 421L397 420L397 419L397 418L397 417L397 416L397 415L397 414L397 413L397 412L397 411L397 410L397 403L400 403L400 402L400 398L400 397L400 396L400 395L400 394L400 393L400 392L400 391L400 390L400 389L400 388L400 387L400 386L400 385L400 384L400 383L400 382L400 381L400 380L400 379L400 378L400 377L400 376L400 375L400 374L400 373L400 372L400 371L400 370L400 369L400 368L400 367L400 366L400 365L400 364L400 363L400 362L400 361L400 360L400 359L400 358L400 357L400 356L400 355L400 354L400 353L400 352L400 351L400 350L400 349L400 348L400 347L400 346L400 345L400 344L400 343L400 342L400 341L400 340L400 339L400 335L399 334L397 334L393 334L392 334L391 334L390 334L389 334L388 334L387 334L386 334L380 334z"/>
</svg>
