<?xml version="1.0" standalone="yes"?>
<svg width="900" height="900">
<path style="fill:#101010; stroke:none;" d="M230 266L230 270L230 271L230 272L230 273L230 274L230 275L230 276L230 277L230 278L230 279L230 280L230 281L230 282L230 283L230 284L230 285L230 286L230 287L230 288L230 289L230 290L230 291L230 292L230 293L230 294L230 295L230 296L230 297L230 298L230 299L230 300L230 301L230 302L230 303L230 304L230 305L230 306L230 307L230 308L230 309L230 310L230 311L230 312L230 313L230 314L230 315L230 316L230 317L230 318L230 319L230 320L230 321L230 322L230 323L230 324L230 325L230 326L230 327L230 328L230 329L230 334L227 335L227 339L227 340L227 341L227 342L227 343L227 344L227 345L227 346L227 347L227 348L227 349L227 350L227 351L227 352L227 353L227 354L227 355L227 356L227 357L227 358L227 359L227 360L227 361L227 362L227 363L227 364L227 365L227 366L227 367L227 368L227 369L227 370L227 371L227 372L227 373L227 374L227 375L227 376L227 377L227 378L227 379L227 380L227 381L227 382L227 383L227 384L227 385L227 386L227 387L227 388L227 389L227 390L227 391L227 392L227 393L227 394L227 395L227 396L227 397L227 398L227 403L224 403L224 404L224 408L224 409L224 410L224 411L224 412L224 413L224 414L224 415L224 416L224 417L224 418L224 419L224 420L224 421L224 422L224 423L224 424L224 425L224 426L224 427L224 428L224 429L224 430L224 431L224 432L224 433L224 434L224 435L224 436L224 437L224 438L224 439L224 440L224 441L224 442L224 443L224 444L224 445L224 446L224 447L224 448L224 449L224 450L224 451L224 452L224 453L224 454L224 455L224 456L224 457L224 458L224 459L224 460L224 461L224 462L224 463L224 464L224 465L224 466L224 467L224 472L218 472L218 476L218 477L218 478L218 479L218 480L218 481L218 482L218 483L218 484L218 485L218 486L218 487L218 488L218 489L218 490L218 491L218 492L218 493L218 494L218 495L218 496L218 497L218 498L218 499L218 500L218 501L218 502L218 503L218 504L218 505L218 506L218 507L218 508L218 509L218 510L218 511L218 512L218 513L218 514L218 515L218 516L218 517L218 518L218 519L218 520L218 521L218 522L218 523L218 524L218 525L218 526L218 527L218 528L218 529L218 530L218 531L218 532L218 533L218 534L218 535L218 536L218 537L218 538L218 539L218 540L218 541L218 542L218 543L218 544L218 545L218 546L218 547L218 548L218 549L218 550L218 551L218 552L218 553L218 554L218 555L218 556L218 557L218 558L218 559L218 560L218 561L218 562L218 563L218 564L218 565L218 566L218 567L218 568L218 569L218 570L218 571L218 572L218 573L218 574L218 575L218 576L218 577L218 578L218 579L218 580L218 581L218 582L218 583L218 584L218 585L218 586L218 587L218 588L218 589L218 590L218 591L218 592L218 593L218 594L218 595L218 596L218 597L218 598L218 599L218 600L218 601L218 602L218 603L218 608L219 608L219 605L219 601L219 600L219 599L219 598L219 597L219 596L219 595L219 594L219 593L219 592L219 591L219 590L219 589L219 588L219 587L219 586L219 585L219 584L219 583L219 582L219 581L219 580L219 579L219 578L219 577L219 576L219 575L219 574L219 573L219 572L219 571L219 570L219 569L219 568L219 567L219 566L219 565L219 564L219 563L219 562L219 561L219 560L219 559L219 558L219 557L219 556L219 555L219 554L219 553L219 552L219 551L219 550L219 549L219 548L219 547L219 546L219 540L223 540L224 540L225 540L226 540L230 540L230 536L230 535L230 534L230 533L230 532L230 531L230 530L230 529L230 528L230 527L230 526L230 525L230 524L230 523L230 522L230 521L230 520L230 519L230 518L230 517L230 516L230 515L230 514L230 513L230 512L230 511L230 510L230 509L230 508L230 507L230 506L230 505L230 504L230 503L230 502L230 501L230 500L230 499L230 498L230 497L230 496L230 495L230 494L230 493L230 492L230 491L230 490L230 489L230 488L230 487L230 486L230 485L230 484L230 483L230 482L230 481L230 480L230 479L230 478L230 477L230 476L230 475L230 474L230 473L230 472L230 471L230 470L230 469L230 468L230 467L230 466L230 465L230 464L230 463L230 462L230 461L230 460L230 459L230 458L230 457L230 456L230 455L230 454L230 453L230 452L230 451L230 450L230 449L230 448L230 447L230 446L230 445L230 444L230 443L230 442L230 441L230 440L230 439L230 438L230 437L230 436L230 435L230 434L230 433L230 432L230 431L230 430L230 429L230 428L230 427L230 426L230 425L230 424L230 423L230 422L230 421L230 420L230 419L230 418L230 417L230 416L230 415L230 414L230 413L230 412L230 411L230 410L230 409L230 408L230 407L230 406L230 405L230 404L230 403L230 402L230 401L230 400L230 399L230 398L230 397L230 396L230 395L230 394L230 393L230 392L230 391L230 390L230 389L230 388L230 387L230 386L230 385L230 384L230 383L230 382L230 381L230 380L230 379L230 378L230 377L230 376L230 375L230 374L230 373L230 372L230 371L230 370L230 369L230 368L230 367L230 366L230 365L230 364L230 363L230 362L230 361L230 360L230 359L230 358L230 357L230 356L230 355L230 354L230 353L230 352L230 351L230 350L230 349L230 348L230 347L230 346L230 345L230 344L230 343L230 342L230 341L230 335L233 334L233 330L233 329L233 328L233 327L233 326L233 325L233 324L233 323L233 322L233 321L233 320L233 319L233 318L233 317L233 316L233 315L233 314L233 313L233 312L233 311L233 310L233 309L233 308L233 307L233 306L233 305L233 304L233 303L233 302L233 301L233 300L233 299L233 298L233 297L233 296L233 295L233 294L233 293L233 292L233 291L233 290L233 289L233 288L233 287L233 286L233 285L233 284L233 283L233 282L233 281L233 280L233 279L233 278L233 277L233 276L233 275L233 274L233 273L233 272L233 271L232 266L230 266M305 266L305 270L305 271L305 272L305 273L305 274L305 275L305 276L305 277L305 278L305 279L305 280L305 281L305 282L305 283L305 284L305 285L305 286L305 287L305 288L305 289L305 290L305 291L305 292L305 293L305 294L305 295L305 296L305 297L305 298L305 299L305 300L305 301L305 302L305 303L305 304L305 305L305 306L305 307L305 308L305 309L305 310L305 311L305 312L305 313L305 314L305 315L305 316L305 317L305 318L305 319L305 320L305 321L305 322L305 323L305 324L305 325L305 326L305 327L305 328L305 329L305 334L295 334L295 338L295 339L295 340L295 341L295 342L295 343L295 344L295 345L295 346L295 347L295 348L295 349L295 350L295 351L295 352L295 353L295 354L295 355L295 356L295 357L295 358L295 359L295 360L295 361L295 362L295 363L295 364L295 365L295 366L295 367L295 368L295 369L295 370L295 371L295 372L295 373L295 374L295 375L295 376L295 377L295 378L295 379L295 380L295 381L295 382L295 383L295 384L295 385L295 386L295 387L295 388L295 389L295 390L295 391L295 392L295 393L295 394L295 395L295 396L295 397L295 403L290 403L290 407L290 408L290 409L290 410L290 411L290 412L290 413L290 414L290 415L290 416L290 417L290 418L290 419L290 420L290 421L290 422L290 423L290 424L290 425L290 426L290 427L290 428L290 429L290 430L290 431L290 432L290 433L290 434L290 435L290 436L290 437L290 438L290 439L290 440L290 441L290 442L290 443L290 444L290 445L290 446L290 447L290 448L290 449L290 450L290 451L290 452L290 453L290 454L290 455L290 456L290 457L290 458L290 459L290 460L290 461L290 462L290 463L290 464L290 465L290 466L290 472L291 472L291 475L291 479L291 480L291 481L291 482L291 483L291 484L291 485L291 486L291 487L291 488L291 489L291 490L291 491L291 492L291 493L291 494L291 495L291 496L291 497L291 498L291 499L291 500L291 501L291 502L291 503L291 504L291 505L291 506L291 507L291 508L291 509L291 510L291 511L291 512L291 513L291 514L291 515L291 516L291 517L291 518L291 519L291 520L291 521L291 522L291 523L291 524L291 525L291 526L291 527L291 528L291 529L291 530L291 531L291 532L291 533L291 534L291 540L295 540L295 544L295 545L295 546L295 547L295 548L295 549L295 550L295 551L295 552L295 553L295 554L295 555L295 556L295 557L295 558L295 559L295 560L295 561L295 562L295 563L295 564L295 565L295 566L295 567L295 568L295 569L295 570L295 571L295 572L295 573L295 574L295 575L295 576L295 577L295 578L295 579L295 580L295 581L295 582L295 583L295 584L295 585L295 586L295 587L295 588L295 589L295 590L295 591L295 592L295 593L295 594L295 595L295 596L295 597L295 598L295 599L295 600L295 601L295 602L295 603L295 608L305 608L305 604L305 603L305 602L305 601L305 600L305 599L305 598L305 597L305 596L305 595L305 594L305 593L305 592L305 591L305 590L305 589L305 588L305 587L305 586L305 585L305 584L305 583L305 582L305 581L305 580L305 579L305 578L305 577L305 576L305 575L305 574L305 573L305 572L305 571L305 570L305 569L305 568L305 567L305 566L305 565L305 564L305 563L305 562L305 561L305 560L305 559L305 558L305 557L305 556L305 555L305 554L305 553L305 552L305 551L305 550L305 549L305 548L305 547L305 546L305 545L305 544L305 543L305 542L305 541L305 540L305 539L305 538L305 537L305 536L305 535L305 534L305 533L305 532L305 531L305 530L305 529L305 528L305 527L305 526L305 525L305 524L305 523L305 522L305 521L305 520L305 519L305 518L305 517L305 516L305 515L305 514L305 513L305 512L305 511L305 510L305 509L305 508L305 507L305 506L305 505L305 504L305 503L305 502L305 501L305 500L305 499L305 498L305 497L305 496L305 495L305 494L305 493L305 492L305 491L305 490L305 489L305 488L305 487L305 486L305 485L305 484L305 483L305 482L305 481L305 480L305 479L305 478L305 477L305 476L305 475L305 474L305 473L305 472L305 471L305 470L305 469L305 468L305 467L305 466L305 465L305 464L305 463L305 462L305 461L305 460L305 459L305 458L305 457L305 456L305 455L305 454L305 453L305 452L305 451L305 450L305 449L305 448L305 447L305 446L305 445L305 444L305 443L305 442L305 441L305 440L305 439L305 438L305 437L305 436L305 435L305 434L305 433L305 432L305 431L305 430L305 429L305 428L305 427L305 426L305 425L305 424L305 423L305 422L305 421L305 420L305 419L305 418L305 417L305 416L305 415L305 414L305 413L305 412L305 411L305 410L305 409L305 408L305 407L305 406L305 405L305 404L305 403L305 402L305 401L305 400L305 399L305 398L305 397L305 396L305 395L305 394L305 393L305 392L305 391L305 390L305 389L305 388L305 387L305 386L305 385L305 384L305 383L305 382L305 381L305 380L305 379L305 378L305 377L305 376L305 375L305 374L305 373L305 372L305 371L305 370L305 369L305 368L305 367L305 366L305 365L305 364L305 363L305 362L305 361L305 360L305 359L305 358L305 357L305 356L305 355L305 354L305 353L305 352L305 351L305 350L305 349L305 348L305 347L305 346L305 345L305 344L305 343L305 342L305 341L305 335L306 335L306 332L306 328L306 327L306 326L306 325L306 324L306 323L306 322L306 321L306 320L306 319L306 318L306 317L306 316L306 315L306 314L306 313L306 312L306 311L306 310L306 309L306 308L306 307L306 306L306 305L306 304L306 303L306 302L306 301L306 300L306 299L306 298L306 297L306 296L306 295L306 294L306 293L306 292L306 291L306 290L306 289L306 288L306 287L306 286L306 285L306 284L306 283L306 282L306 281L306 280L306 279L306 278L306 277L306 276L306 275L306 274L306 273L305 266M326 266L326 270L326 271L326 272L326 273L326 274L326 275L326 276L326 277L326 278L326 279L326 280L326 281L326 282L326 283L326 284L326 285L326 286L326 287L326 288L326 289L326 290L326 291L326 292L326 293L326 294L326 295L326 296L326 297L326 298L326 299L326 300L326 301L326 302L326 303L326 304L326 305L326 306L326 307L326 308L326 309L326 310L326 311L326 312L326 313L326 314L326 315L326 316L326 317L326 318L326 319L326 320L326 321L326 322L326 323L326 324L326 325L326 326L326 327L326 328L326 329L326 334L327 334L327 331L327 327L327 326L327 325L327 324L327 323L327 322L327 321L327 320L327 319L327 318L327 317L327 316L327 315L327 314L327 313L327 312L327 311L327 310L327 309L327 308L327 307L327 306L327 305L327 304L327 303L327 302L327 301L327 300L327 299L327 298L327 297L327 296L327 295L327 294L327 293L327 292L327 291L327 290L327 289L327 288L327 287L327 286L327 285L327 284L327 283L327 282L327 281L327 280L327 279L327 278L327 277L327 276L327 275L327 274L327 273L327 272L326 266M480 266L480 270L480 271L480 272L480 273L480 274L480 275L480 276L480 277L480 278L480 279L480 280L480 281L480 282L480 283L480 284L480 285L480 286L480 287L480 288L480 289L480 290L480 291L480 292L480 293L480 294L480 295L480 296L480 297L480 298L480 299L480 300L480 301L480 302L480 303L480 304L480 305L480 306L480 307L480 308L480 309L480 310L480 311L480 312L480 313L480 314L480 315L480 316L480 317L480 318L480 319L480 320L480 321L480 322L480 323L480 324L480 325L480 326L480 327L480 328L480 329L480 335L481 335L482 333L482 329L482 328L482 327L482 326L482 325L482 324L482 323L482 322L482 321L482 320L482 319L482 318L482 317L482 316L482 315L482 314L482 313L482 312L482 311L482 310L482 309L482 308L482 307L482 306L482 305L482 304L482 303L482 302L482 301L482 300L482 299L482 298L482 297L482 296L482 295L482 294L482 293L482 292L482 291L482 290L482 289L482 288L482 287L482 286L482 285L482 284L482 283L482 282L482 281L482 280L482 279L482 278L482 277L482 276L482 275L482 274L480 266M524 266L524 270L524 271L524 272L524 273L524 274L524 275L524 276L524 277L524 278L524 279L524 280L524 281L524 282L524 283L524 284L524 285L524 286L524 287L524 288L524 289L524 290L524 291L524 292L524 293L524 294L524 295L524 296L524 297L524 298L524 299L524 300L524 301L524 302L524 303L524 304L524 305L524 306L524 307L524 308L524 309L524 310L524 311L524 312L524 313L524 314L524 315L524 316L524 317L524 318L524 319L524 320L524 321L524 322L524 323L524 324L524 325L524 326L524 327L524 328L524 329L524 334L525 335L531 335L531 339L531 340L531 341L531 342L531 343L531 344L531 345L531 346L531 347L531 348L531 349L531 350L531 351L531 352L531 353L531 354L531 355L531 356L531 357L531 358L531 359L531 360L531 361L531 362L531 363L531 364L531 365L531 366L531 367L531 368L531 369L531 370L531 371L531 372L531 373L531 374L531 375L531 376L531 377L531 378L531 379L531 380L531 381L531 382L531 383L531 384L531 385L531 386L531 387L531 388L531 389L531 390L531 391L531 392L531 393L531 394L531 395L531 396L531 397L531 398L531 403L532 403L532 400L532 396L532 395L532 394L532 393L532 392L532 391L532 390L532 389L532 388L532 387L532 386L532 385L532 384L532 383L532 382L532 381L532 380L532 379L532 378L532 377L532 376L532 375L532 374L532 373L532 372L532 371L532 370L532 369L532 368L532 367L532 366L532 365L532 364L532 363L532 362L532 361L532 360L532 359L532 358L532 357L532 356L532 355L532 354L532 353L532 352L532 351L532 350L532 349L532 348L532 347L532 346L532 345L532 344L532 343L532 342L532 341L532 335L533 335L533 332L533 328L533 327L533 326L533 325L533 324L533 323L533 322L533 321L533 320L533 319L533 318L533 317L533 316L533 315L533 314L533 313L533 312L533 311L533 310L533 309L533 308L533 307L533 306L533 305L533 304L533 303L533 302L533 301L533 300L533 299L533 298L533 297L533 296L533 295L533 294L533 293L533 292L533 291L533 290L533 289L533 288L533 287L533 286L533 285L533 284L533 283L533 282L533 281L533 280L533 279L533 278L533 277L533 276L533 275L533 274L533 273L533 266L524 266M415 267L415 271L415 272L415 273L415 274L415 275L415 276L415 277L415 278L415 279L415 280L415 281L415 282L415 283L415 284L415 285L415 286L415 287L415 288L415 289L415 290L415 291L415 292L415 293L415 294L415 295L415 296L415 297L415 298L415 299L415 300L415 301L415 302L415 303L415 304L415 305L415 306L415 307L415 308L415 309L415 310L415 311L415 312L415 313L415 314L415 315L415 316L415 317L415 318L415 319L415 320L415 321L415 322L415 323L415 324L415 325L415 326L415 327L415 328L415 329L415 330L415 334L416 334L416 331L416 327L416 326L416 325L416 324L416 323L416 322L416 321L416 320L416 319L416 318L416 317L416 316L416 315L416 314L416 313L416 312L416 311L416 310L416 309L416 308L416 307L416 306L416 305L416 304L416 303L416 302L416 301L416 300L416 299L416 298L416 297L416 296L416 295L416 294L416 293L416 292L416 291L416 290L416 289L416 288L416 287L416 286L416 285L416 284L416 283L416 282L416 281L416 280L416 279L416 278L416 277L416 276L416 275L416 274L416 273L416 272L415 267M478 267L478 271L478 272L478 273L478 274L478 275L478 276L478 277L478 278L478 279L478 280L478 281L478 282L478 283L478 284L478 285L478 286L478 287L478 288L478 289L478 290L478 291L478 292L478 293L478 294L478 295L478 296L478 297L478 298L478 299L478 300L478 301L478 302L478 303L478 304L478 305L478 306L478 307L478 308L478 309L478 310L478 311L478 312L478 313L478 314L478 315L478 316L478 317L478 318L478 319L478 320L478 321L478 322L478 323L478 324L478 325L478 326L478 327L478 328L478 329L478 330L478 334L479 334L479 331L479 327L479 326L479 325L479 324L479 323L479 322L479 321L479 320L479 319L479 318L479 317L479 316L479 315L479 314L479 313L479 312L479 311L479 310L479 309L479 308L479 307L479 306L479 305L479 304L479 303L479 302L479 301L479 300L479 299L479 298L479 297L479 296L479 295L479 294L479 293L479 292L479 291L479 290L479 289L479 288L479 287L479 286L479 285L479 284L479 283L479 282L479 281L479 280L479 279L479 278L479 277L479 276L479 275L479 274L479 273L479 272L478 267M441 334L440 335L440 337L440 341L440 342L440 343L440 344L440 345L440 346L440 347L440 348L440 349L440 350L440 351L440 352L440 353L440 354L440 355L440 356L440 357L440 358L440 359L440 360L440 361L440 362L440 363L440 364L440 365L440 366L440 367L440 368L440 369L440 370L440 371L440 372L440 373L440 374L440 375L440 376L440 377L440 378L440 379L440 380L440 381L440 382L440 383L440 384L440 385L440 386L440 387L440 388L440 389L440 390L440 391L440 392L440 393L440 394L440 395L440 396L440 397L440 398L440 399L440 400L440 401L440 402L440 403L440 404L440 405L440 406L440 407L440 408L440 409L440 410L440 411L440 412L440 413L440 414L440 415L440 416L440 417L440 418L440 419L440 420L440 421L440 422L440 423L440 424L440 425L440 426L440 427L440 428L440 429L440 430L440 431L440 432L440 433L440 434L440 435L440 436L440 437L440 438L440 439L440 440L440 441L440 442L440 443L440 444L440 445L440 446L440 447L440 448L440 449L440 450L440 451L440 452L440 453L440 454L440 455L440 456L440 457L440 458L440 459L440 460L440 461L440 462L440 463L440 464L440 465L440 466L440 467L440 468L440 469L440 470L440 471L440 472L440 473L440 474L440 475L440 476L440 477L440 478L440 479L440 480L440 481L440 482L440 483L440 484L440 485L440 486L440 487L440 488L440 489L440 490L440 491L440 492L440 493L440 494L440 495L440 496L440 497L440 498L440 499L440 500L440 501L440 502L440 503L440 504L440 505L440 506L440 507L440 508L440 509L440 510L440 511L440 512L440 513L440 514L440 515L440 516L440 517L440 518L440 519L440 520L440 521L440 522L440 523L440 524L440 525L440 526L440 527L440 528L440 529L440 530L440 531L440 532L440 533L440 534L440 535L440 536L440 537L440 538L440 539L440 540L440 541L440 542L440 543L440 544L440 545L440 546L440 547L440 548L440 549L440 550L440 551L440 552L440 553L440 554L440 555L440 556L440 557L440 558L440 559L440 560L440 561L440 562L440 563L440 564L440 565L440 566L440 567L440 568L440 569L440 570L440 571L440 572L440 573L440 574L440 575L440 576L440 577L440 578L440 579L440 580L440 581L440 582L440 583L440 584L440 585L440 586L440 587L440 588L440 589L440 590L440 591L440 592L440 593L440 594L440 595L440 596L440 597L440 598L440 599L440 600L440 601L440 602L440 603L440 604L440 605L440 606L440 607L440 608L440 609L440 610L440 611L440 612L440 613L440 614L440 615L440 616L440 617L440 618L440 619L440 620L440 621L440 622L440 623L440 624L440 625L440 626L440 627L440 628L440 629L440 630L440 631L440 632L440 633L440 634L440 635L440 636L440 637L440 638L440 639L440 640L440 641L440 642L440 643L440 644L440 645L440 646L440 647L440 648L440 649L440 650L440 651L440 652L440 653L440 654L440 655L440 656L440 657L440 658L440 659L440 660L440 661L440 662L440 663L440 664L440 665L440 666L440 667L440 668L440 669L440 670L440 671L440 672L440 673L440 674L440 675L440 676L440 677L440 678L440 679L440 680L440 681L440 682L440 683L440 684L440 685L440 686L440 687L440 688L440 689L440 690L440 691L440 692L440 693L440 694L440 695L440 696L440 697L440 698L440 699L440 700L440 701L440 702L440 703L440 704L440 705L440 706L440 707L440 708L440 709L440 710L440 711L440 712L440 713L440 714L440 715L440 716L440 717L440 718L440 719L440 720L440 721L440 722L440 723L440 724L440 725L440 726L440 727L440 728L440 729L440 730L440 731L440 732L440 733L440 734L440 735L440 736L440 737L440 738L440 739L440 740L440 745L441 746L443 746L450 746L450 742L450 741L450 740L450 739L450 738L450 737L450 736L450 735L450 734L450 733L450 732L450 731L450 730L450 729L450 728L450 727L450 726L450 725L450 724L450 723L450 722L450 721L450 720L450 719L450 718L450 717L450 716L450 715L450 714L450 713L450 712L450 711L450 710L450 709L450 708L450 707L450 706L450 705L450 704L450 703L450 702L450 701L450 700L450 699L450 698L450 697L450 696L450 695L450 694L450 693L450 692L450 691L450 690L450 689L450 688L450 687L450 686L450 685L450 684L450 683L450 682L450 681L450 680L450 679L450 678L450 677L450 676L450 675L450 674L450 673L450 672L450 671L450 670L450 669L450 668L450 667L450 666L450 665L450 664L450 663L450 662L450 661L450 660L450 659L450 658L450 657L450 656L450 655L450 654L450 653L450 652L450 651L450 650L450 649L450 648L450 647L450 646L450 645L450 644L450 643L450 642L450 641L450 640L450 639L450 638L450 637L450 636L450 635L450 634L450 633L450 632L450 631L450 630L450 629L450 628L450 627L450 626L450 625L450 624L450 623L450 622L450 621L450 620L450 619L450 618L450 617L450 616L450 615L450 614L450 613L450 612L450 611L450 610L450 609L450 608L450 607L450 606L450 605L450 604L450 603L450 602L450 601L450 600L450 599L450 598L450 597L450 596L450 595L450 594L450 593L450 592L450 591L450 590L450 589L450 588L450 587L450 586L450 585L450 584L450 583L450 582L450 581L450 580L450 579L450 578L450 577L450 576L450 575L450 574L450 573L450 572L450 571L450 570L450 569L450 568L450 567L450 566L450 565L450 564L450 563L450 562L450 561L450 560L450 559L450 558L450 557L450 556L450 555L450 554L450 553L450 552L450 551L450 550L450 549L450 548L450 547L450 546L450 545L450 544L450 543L450 542L450 541L450 540L450 539L450 538L450 537L450 536L450 535L450 534L450 533L450 532L450 531L450 530L450 529L450 528L450 527L450 526L450 525L450 524L450 523L450 522L450 521L450 520L450 519L450 518L450 517L450 516L450 515L450 514L450 513L450 512L450 511L450 510L450 509L450 508L450 507L450 506L450 505L450 504L450 503L450 502L450 501L450 500L450 499L450 498L450 497L450 496L450 495L450 494L450 493L450 492L450 491L450 490L450 489L450 488L450 487L450 486L450 485L450 484L450 483L450 482L450 481L450 480L450 479L450 478L450 477L450 476L450 475L450 474L450 473L450 472L450 471L450 470L450 469L450 468L450 467L450 466L450 465L450 464L450 463L450 462L450 461L450 460L450 459L450 458L450 457L450 456L450 455L450 454L450 453L450 452L450 451L450 450L450 449L450 448L450 447L450 446L450 445L450 444L450 443L450 442L450 441L450 440L450 439L450 438L450 437L450 436L450 435L450 434L450 433L450 432L450 431L450 430L450 429L450 428L450 427L450 426L450 425L450 424L450 423L450 422L450 421L450 420L450 419L450 418L450 417L450 416L450 415L450 414L450 413L450 412L450 411L450 410L450 409L450 408L450 407L450 406L450 405L450 404L450 403L450 402L450 401L450 400L450 399L450 398L450 397L450 396L450 395L450 394L450 393L450 392L450 391L450 390L450 389L450 388L450 387L450 386L450 385L450 384L450 383L450 382L450 381L450 380L450 379L450 378L450 377L450 376L450 375L450 374L450 373L450 372L450 371L450 370L450 369L450 368L450 367L450 366L450 365L450 364L450 363L450 362L450 361L450 360L450 359L450 358L450 357L450 356L450 355L450 354L450 353L450 352L450 351L450 350L450 349L450 348L450 347L450 346L450 345L450 344L450 343L450 342L450 341L450 340L450 339L450 334L441 334M462 334L461 335L461 337L461 341L461 342L461 343L461 344L461 345L461 346L461 347L461 348L461 349L461 350L461 351L461 352L461 353L461 354L461 355L461 356L461 357L461 358L461 359L461 360L461 361L461 362L461 363L461 364L461 365L461 366L461 367L461 368L461 369L461 370L461 371L461 372L461 373L461 374L461 375L461 376L461 377L461 378L461 379L461 380L461 381L461 382L461 383L461 384L461 385L461 386L461 387L461 388L461 389L461 390L461 391L461 392L461 393L461 394L461 395L461 396L461 397L461 398L461 399L461 400L461 401L461 402L461 403L461 404L461 405L461 406L461 407L461 408L461 409L461 410L461 411L461 412L461 413L461 414L461 415L461 416L461 417L461 418L461 419L461 420L461 421L461 422L461 423L461 424L461 425L461 426L461 427L461 428L461 429L461 430L461 431L461 432L461 433L461 434L461 435L461 436L461 437L461 438L461 439L461 440L461 441L461 442L461 443L461 444L461 445L461 446L461 447L461 448L461 449L461 450L461 451L461 452L461 453L461 454L461 455L461 456L461 457L461 458L461 459L461 460L461 461L461 462L461 463L461 464L461 465L461 466L461 467L461 468L461 469L461 470L461 471L461 472L461 473L461 474L461 475L461 476L461 477L461 478L461 479L461 480L461 481L461 482L461 483L461 484L461 485L461 486L461 487L461 488L461 489L461 490L461 491L461 492L461 493L461 494L461 495L461 496L461 497L461 498L461 499L461 500L461 501L461 502L461 503L461 504L461 505L461 506L461 507L461 508L461 509L461 510L461 511L461 512L461 513L461 514L461 515L461 516L461 517L461 518L461 519L461 520L461 521L461 522L461 523L461 524L461 525L461 526L461 527L461 528L461 529L461 530L461 531L461 532L461 533L461 534L461 535L461 536L461 537L461 538L461 539L461 540L461 541L461 542L461 543L461 544L461 545L461 546L461 547L461 548L461 549L461 550L461 551L461 552L461 553L461 554L461 555L461 556L461 557L461 558L461 559L461 560L461 561L461 562L461 563L461 564L461 565L461 566L461 567L461 568L461 569L461 570L461 571L461 572L461 573L461 574L461 575L461 576L461 577L461 578L461 579L461 580L461 581L461 582L461 583L461 584L461 585L461 586L461 587L461 588L461 589L461 590L461 591L461 592L461 593L461 594L461 595L461 596L461 597L461 598L461 599L461 600L461 601L461 602L461 603L461 604L461 605L461 606L461 607L461 608L461 609L461 610L461 611L461 612L461 613L461 614L461 615L461 616L461 617L461 618L461 619L461 620L461 621L461 622L461 623L461 624L461 625L461 626L461 627L461 628L461 629L461 630L461 631L461 632L461 633L461 634L461 635L461 636L461 637L461 638L461 639L461 640L461 641L461 642L461 643L461 644L461 645L461 646L461 647L461 648L461 649L461 650L461 651L461 652L461 653L461 654L461 655L461 656L461 657L461 658L461 659L461 660L461 661L461 662L461 663L461 664L461 665L461 666L461 667L461 668L461 669L461 670L461 671L461 672L461 673L461 674L461 675L461 676L461 677L461 678L461 679L461 680L461 681L461 682L461 683L461 684L461 685L461 686L461 687L461 688L461 689L461 690L461 691L461 692L461 693L461 694L461 695L461 696L461 697L461 698L461 699L461 700L461 701L461 702L461 703L461 704L461 705L461 706L461 707L461 708L461 709L461 710L461 711L461 712L461 713L461 714L461 715L461 716L461 717L461 718L461 719L461 720L461 721L461 722L461 723L461 724L461 725L461 726L461 727L461 728L461 729L461 730L461 731L461 732L461 733L461 734L461 735L461 736L461 737L461 738L461 739L461 740L461 745L462 746L464 746L473 746L473 742L473 741L473 740L473 739L473 738L473 737L473 736L473 735L473 734L473 733L473 732L473 731L473 730L473 729L473 728L473 727L473 726L473 725L473 724L473 723L473 722L473 721L473 720L473 719L473 718L473 717L473 716L473 715L473 714L473 713L473 712L473 711L473 710L473 709L473 708L473 707L473 706L473 705L473 704L473 703L473 702L473 701L473 700L473 699L473 698L473 697L473 696L473 695L473 694L473 693L473 692L473 691L473 690L473 689L473 688L473 687L473 686L473 685L473 684L473 683L473 677L471 677L471 675L471 671L471 670L471 669L471 668L471 667L471 666L471 665L471 664L471 663L471 662L471 661L471 660L471 659L471 658L471 657L471 656L471 655L471 654L471 653L471 652L471 651L471 650L471 649L471 648L471 647L471 646L471 645L471 644L471 643L471 642L471 641L471 640L471 639L471 638L471 637L471 636L471 635L471 634L471 633L471 632L471 631L471 630L471 629L471 628L471 627L471 626L471 625L471 624L471 623L471 622L471 621L471 620L471 619L471 618L471 617L471 616L471 615L471 614L471 613L471 612L471 608L476 608L476 612L476 613L476 614L476 615L476 616L476 617L476 618L476 619L476 620L476 621L476 622L476 623L476 624L476 625L476 626L476 627L476 628L476 629L476 630L476 631L476 632L476 633L476 634L476 635L476 636L476 637L476 638L476 639L476 640L476 641L476 642L476 643L476 644L476 645L476 646L476 647L476 648L476 649L476 650L476 651L476 652L476 653L476 654L476 655L476 656L476 657L476 658L476 659L476 660L476 661L476 662L476 663L476 664L476 665L476 666L476 667L476 668L476 669L476 670L476 671L476 677L477 677L477 674L477 670L477 669L477 668L477 667L477 666L477 665L477 664L477 663L477 662L477 661L477 660L477 659L477 658L477 657L477 656L477 655L477 654L477 653L477 652L477 651L477 650L477 649L477 648L477 647L477 646L477 645L477 644L477 643L477 642L477 641L477 640L477 639L477 638L477 637L477 636L477 635L477 634L477 633L477 632L477 631L477 630L477 629L477 628L477 627L477 626L477 625L477 624L477 623L477 622L477 621L477 620L477 619L477 618L477 617L477 616L477 615L477 608L476 608L476 605L476 601L476 600L476 599L476 598L476 597L476 596L476 595L476 594L476 593L476 592L476 591L476 590L476 589L476 588L476 587L476 586L476 585L476 584L476 583L476 582L476 581L476 580L476 579L476 578L476 577L476 576L476 575L476 574L476 573L476 572L476 571L476 570L476 569L476 568L476 567L476 566L476 565L476 564L476 563L476 562L476 561L476 560L476 559L476 558L476 557L476 556L476 555L476 554L476 553L476 552L476 551L476 550L476 549L476 548L476 547L476 546L476 545L476 544L476 543L476 542L476 541L476 540L476 539L476 538L476 537L476 536L476 535L476 534L476 533L476 532L476 531L476 530L476 529L476 528L476 527L476 526L476 525L476 524L476 523L476 522L476 521L476 520L476 519L476 518L476 517L476 516L476 515L476 514L476 513L476 512L476 511L476 510L476 509L476 508L476 507L476 506L476 505L476 504L476 503L476 502L476 501L476 500L476 499L476 498L476 497L476 496L476 495L476 494L476 493L476 492L476 491L476 490L476 489L476 488L476 487L476 486L476 485L476 484L476 483L476 482L476 481L476 480L476 479L476 478L476 472L475 472L475 475L475 479L475 480L475 481L475 482L475 483L475 484L475 485L475 486L475 487L475 488L475 489L475 490L475 491L475 492L475 493L475 494L475 495L475 496L475 497L475 498L475 499L475 500L475 501L475 502L475 503L475 504L475 505L475 506L475 507L475 508L475 509L475 510L475 511L475 512L475 513L475 514L475 515L475 516L475 517L475 518L475 519L475 520L475 521L475 522L475 523L475 524L475 525L475 526L475 527L475 528L475 529L475 530L475 531L475 532L475 533L475 534L475 540L471 540L471 536L471 535L471 534L471 533L471 532L471 531L471 530L471 529L471 528L471 527L471 526L471 525L471 524L471 523L471 522L471 521L471 520L471 519L471 518L471 517L471 516L471 515L471 514L471 513L471 512L471 511L471 510L471 509L471 508L471 507L471 506L471 505L471 504L471 503L471 502L471 501L471 500L471 499L471 498L471 497L471 496L471 495L471 494L471 493L471 492L471 491L471 490L471 489L471 488L471 487L471 486L471 485L471 484L471 483L471 482L471 481L471 480L471 479L471 478L471 477L471 476L471 475L471 474L471 473L471 472L471 471L471 470L471 469L471 468L471 467L471 466L471 465L471 464L471 463L471 462L471 461L471 460L471 459L471 458L471 457L471 456L471 455L471 454L471 453L471 452L471 451L471 450L471 449L471 448L471 447L471 446L471 445L471 444L471 443L471 442L471 441L471 440L471 439L471 438L471 437L471 436L471 435L471 434L471 433L471 432L471 431L471 430L471 429L471 428L471 427L471 426L471 425L471 424L471 423L471 422L471 421L471 420L471 419L471 418L471 417L471 416L471 415L471 414L471 413L471 412L471 411L471 410L471 409L471 408L471 407L471 406L471 405L471 404L471 403L471 402L471 401L471 400L471 399L471 398L471 397L471 396L471 395L471 394L471 393L471 392L471 391L471 390L471 389L471 388L471 387L471 386L471 385L471 384L471 383L471 382L471 381L471 380L471 379L471 378L471 377L471 376L471 375L471 374L471 373L471 372L471 371L471 370L471 369L471 368L471 367L471 366L471 365L471 364L471 363L471 362L471 361L471 360L471 359L471 358L471 357L471 356L471 355L471 354L471 353L471 352L471 351L471 350L471 349L471 348L471 347L471 346L471 345L471 344L471 343L471 342L471 341L471 334L462 334M516 334L515 337L515 341L515 342L515 343L515 344L515 345L515 346L515 347L515 348L515 349L515 350L515 351L515 352L515 353L515 354L515 355L515 356L515 357L515 358L515 359L515 360L515 361L515 362L515 363L515 364L515 365L515 366L515 367L515 368L515 369L515 370L515 371L515 372L515 373L515 374L515 375L515 376L515 377L515 378L515 379L515 380L515 381L515 382L515 383L515 384L515 385L515 386L515 387L515 388L515 389L515 390L515 391L515 392L515 393L515 394L515 395L515 396L515 397L515 398L515 399L515 400L515 401L515 402L515 403L515 404L515 405L515 406L515 407L515 408L515 409L515 410L515 411L515 412L515 413L515 414L515 415L515 416L515 417L515 418L515 419L515 420L515 421L515 422L515 423L515 424L515 425L515 426L515 427L515 428L515 429L515 430L515 431L515 432L515 433L515 434L515 435L515 436L515 437L515 438L515 439L515 440L515 441L515 442L515 443L515 444L515 445L515 446L515 447L515 448L515 449L515 450L515 451L515 452L515 453L515 454L515 455L515 456L515 457L515 458L515 459L515 460L515 461L515 462L515 463L515 464L515 465L515 466L515 467L515 468L515 469L515 470L515 471L515 472L515 473L515 474L515 475L515 476L515 477L515 478L515 479L515 480L515 481L515 482L515 483L515 484L515 485L515 486L515 487L515 488L515 489L515 490L515 491L515 492L515 493L515 494L515 495L515 496L515 497L515 498L515 499L515 500L515 501L515 502L515 503L515 504L515 505L515 506L515 507L515 508L515 509L515 510L515 511L515 512L515 513L515 514L515 515L515 516L515 517L515 518L515 519L515 520L515 521L515 522L515 523L515 524L515 525L515 526L515 527L515 528L515 529L515 530L515 531L515 532L515 533L515 534L515 535L515 536L515 537L515 538L515 539L515 540L515 541L515 542L515 543L515 544L515 545L515 546L515 547L515 548L515 549L515 550L515 551L515 552L515 553L515 554L515 555L515 556L515 557L515 558L515 559L515 560L515 561L515 562L515 563L515 564L515 565L515 566L515 567L515 568L515 569L515 570L515 571L515 572L515 573L515 574L515 575L515 576L515 577L515 578L515 579L515 580L515 581L515 582L515 583L515 584L515 585L515 586L515 587L515 588L515 589L515 590L515 591L515 592L515 593L515 594L515 595L515 596L515 597L515 598L515 599L515 600L515 601L515 602L515 603L515 604L515 605L515 606L515 607L515 608L515 609L515 610L515 611L515 612L515 613L515 614L515 615L515 616L515 617L515 618L515 619L515 620L515 621L515 622L515 623L515 624L515 625L515 626L515 627L515 628L515 629L515 630L515 631L515 632L515 633L515 634L515 635L515 636L515 637L515 638L515 639L515 640L515 641L515 642L515 643L515 644L515 645L515 646L515 647L515 648L515 649L515 650L515 651L515 652L515 653L515 654L515 655L515 656L515 657L515 658L515 659L515 660L515 661L515 662L515 663L515 664L515 665L515 666L515 667L515 668L515 669L515 670L515 671L515 672L515 673L515 674L515 675L515 676L515 677L515 678L515 679L515 680L515 681L515 682L515 683L515 684L515 685L515 686L515 687L515 688L515 689L515 690L515 691L515 692L515 693L515 694L515 695L515 696L515 697L515 698L515 699L515 700L515 701L515 702L515 703L515 704L515 705L515 706L515 707L515 708L515 709L515 710L515 711L515 712L515 713L515 714L515 715L515 716L515 717L515 718L515 719L515 720L515 721L515 722L515 723L515 724L515 725L515 726L515 727L515 728L515 729L515 730L515 731L515 732L515 733L515 734L515 735L515 736L515 737L515 738L515 739L515 740L515 745L516 746L518 746L521 746L523 746L524 745L524 743L524 739L524 738L524 737L524 736L524 735L524 734L524 733L524 732L524 731L524 730L524 729L524 728L524 727L524 726L524 725L524 724L524 723L524 722L524 721L524 720L524 719L524 718L524 717L524 716L524 715L524 714L524 713L524 712L524 711L524 710L524 709L524 708L524 707L524 706L524 705L524 704L524 703L524 702L524 701L524 700L524 699L524 698L524 697L524 696L524 695L524 694L524 693L524 692L524 691L524 690L524 689L524 688L524 687L524 686L524 685L524 684L524 678L523 677L518 677L518 673L518 672L518 671L518 670L518 669L518 668L518 667L518 666L518 665L518 664L518 663L518 662L518 661L518 660L518 659L518 658L518 657L518 656L518 655L518 654L518 653L518 652L518 651L518 650L518 649L518 648L518 647L518 646L518 645L518 644L518 643L518 642L518 641L518 640L518 639L518 638L518 637L518 636L518 635L518 634L518 633L518 632L518 631L518 630L518 629L518 628L518 627L518 626L518 625L518 624L518 623L518 622L518 621L518 620L518 619L518 618L518 617L518 616L518 615L518 614L518 613L518 612L518 611L518 610L518 609L518 608L518 607L518 606L518 605L518 604L518 603L518 602L518 601L518 600L518 599L518 598L518 597L518 596L518 595L518 594L518 593L518 592L518 591L518 590L518 589L518 588L518 587L518 586L518 585L518 584L518 583L518 582L518 581L518 580L518 579L518 578L518 577L518 576L518 575L518 574L518 573L518 572L518 571L518 570L518 569L518 568L518 567L518 566L518 565L518 564L518 563L518 562L518 561L518 560L518 559L518 558L518 557L518 556L518 555L518 554L518 553L518 552L518 551L518 550L518 549L518 548L518 547L518 546L518 545L518 544L518 543L518 542L518 541L518 540L518 539L518 538L518 537L518 536L518 535L518 534L518 533L518 532L518 531L518 530L518 529L518 528L518 527L518 526L518 525L518 524L518 523L518 522L518 521L518 520L518 519L518 518L518 517L518 516L518 515L518 514L518 513L518 512L518 511L518 510L518 509L518 508L518 507L518 506L518 505L518 504L518 503L518 502L518 501L518 500L518 499L518 498L518 497L518 496L518 495L518 494L518 493L518 492L518 491L518 490L518 489L518 488L518 487L518 486L518 485L518 484L518 483L518 482L518 481L518 480L518 479L518 478L518 477L518 476L518 475L518 474L518 473L518 472L518 471L518 470L518 469L518 468L518 467L518 466L518 465L518 464L518 463L518 462L518 461L518 460L518 459L518 458L518 457L518 456L518 455L518 454L518 453L518 452L518 451L518 450L518 449L518 448L518 447L518 446L518 445L518 444L518 443L518 442L518 441L518 440L518 439L518 438L518 437L518 436L518 435L518 434L518 433L518 432L518 431L518 430L518 429L518 428L518 427L518 426L518 425L518 424L518 423L518 422L518 421L518 420L518 419L518 418L518 417L518 416L518 415L518 414L518 413L518 412L518 411L518 410L518 409L518 408L518 407L518 406L518 405L518 404L518 403L518 402L518 401L518 400L518 399L518 398L518 397L518 396L518 395L518 394L518 393L518 392L518 391L518 390L518 389L518 388L518 387L518 386L518 385L518 384L518 383L518 382L518 381L518 380L518 379L518 378L518 377L518 376L518 375L518 374L518 373L518 372L518 371L518 370L518 369L518 368L518 367L518 366L518 365L518 364L518 363L518 362L518 361L518 360L518 359L518 358L518 357L518 356L518 355L518 354L518 353L518 352L518 351L518 350L518 349L518 348L518 347L518 346L518 345L518 344L518 343L518 342L518 341L518 340L518 339L518 338L518 334L516 334M213 335L213 339L213 340L213 341L213 342L213 343L213 344L213 345L213 346L213 347L213 348L213 349L213 350L213 351L213 352L213 353L213 354L213 355L213 356L213 357L213 358L213 359L213 360L213 361L213 362L213 363L213 364L213 365L213 366L213 367L213 368L213 369L213 370L213 371L213 372L213 373L213 374L213 375L213 376L213 377L213 378L213 379L213 380L213 381L213 382L213 383L213 384L213 385L213 386L213 387L213 388L213 389L213 390L213 391L213 392L213 393L213 394L213 395L213 396L213 397L213 398L213 403L214 403L214 400L214 396L214 395L214 394L214 393L214 392L214 391L214 390L214 389L214 388L214 387L214 386L214 385L214 384L214 383L214 382L214 381L214 380L214 379L214 378L214 377L214 376L214 375L214 374L214 373L214 372L214 371L214 370L214 369L214 368L214 367L214 366L214 365L214 364L214 363L214 362L214 361L214 360L214 359L214 358L214 357L214 356L214 355L214 354L214 353L214 352L214 351L214 350L214 349L214 348L214 347L214 346L214 345L214 344L214 343L214 342L214 341L213 335M223 335L223 339L223 340L223 341L223 342L223 343L223 344L223 345L223 346L223 347L223 348L223 349L223 350L223 351L223 352L223 353L223 354L223 355L223 356L223 357L223 358L223 359L223 360L223 361L223 362L223 363L223 364L223 365L223 366L223 367L223 368L223 369L223 370L223 371L223 372L223 373L223 374L223 375L223 376L223 377L223 378L223 379L223 380L223 381L223 382L223 383L223 384L223 385L223 386L223 387L223 388L223 389L223 390L223 391L223 392L223 393L223 394L223 395L223 396L223 397L223 398L223 402L224 402L224 399L224 395L224 394L224 393L224 392L224 391L224 390L224 389L224 388L224 387L224 386L224 385L224 384L224 383L224 382L224 381L224 380L224 379L224 378L224 377L224 376L224 375L224 374L224 373L224 372L224 371L224 370L224 369L224 368L224 367L224 366L224 365L224 364L224 363L224 362L224 361L224 360L224 359L224 358L224 357L224 356L224 355L224 354L224 353L224 352L224 351L224 350L224 349L224 348L224 347L224 346L224 345L224 344L224 343L224 342L224 341L224 340L223 335M274 335L274 339L274 340L274 341L274 342L274 343L274 344L274 345L274 346L274 347L274 348L274 349L274 350L274 351L274 352L274 353L274 354L274 355L274 356L274 357L274 358L274 359L274 360L274 361L274 362L274 363L274 364L274 365L274 366L274 367L274 368L274 369L274 370L274 371L274 372L274 373L274 374L274 375L274 376L274 377L274 378L274 379L274 380L274 381L274 382L274 383L274 384L274 385L274 386L274 387L274 388L274 389L274 390L274 391L274 392L274 393L274 394L274 395L274 396L274 397L274 398L274 403L269 403L269 407L269 408L269 409L269 410L269 411L269 412L269 413L269 414L269 415L269 416L269 417L269 418L269 419L269 420L269 421L269 422L269 423L269 424L269 425L269 426L269 427L269 428L269 429L269 430L269 431L269 432L269 433L269 434L269 435L269 436L269 437L269 438L269 439L269 440L269 441L269 442L269 443L269 444L269 445L269 446L269 447L269 448L269 449L269 450L269 451L269 452L269 453L269 454L269 455L269 456L269 457L269 458L269 459L269 460L269 461L269 462L269 463L269 464L269 465L269 466L269 472L270 472L270 475L270 479L270 480L270 481L270 482L270 483L270 484L270 485L270 486L270 487L270 488L270 489L270 490L270 491L270 492L270 493L270 494L270 495L270 496L270 497L270 498L270 499L270 500L270 501L270 502L270 503L270 504L270 505L270 506L270 507L270 508L270 509L270 510L270 511L270 512L270 513L270 514L270 515L270 516L270 517L270 518L270 519L270 520L270 521L270 522L270 523L270 524L270 525L270 526L270 527L270 528L270 529L270 530L270 531L270 532L270 533L270 534L270 540L274 540L274 544L274 545L274 546L274 547L274 548L274 549L274 550L274 551L274 552L274 553L274 554L274 555L274 556L274 557L274 558L274 559L274 560L274 561L274 562L274 563L274 564L274 565L274 566L274 567L274 568L274 569L274 570L274 571L274 572L274 573L274 574L274 575L274 576L274 577L274 578L274 579L274 580L274 581L274 582L274 583L274 584L274 585L274 586L274 587L274 588L274 589L274 590L274 591L274 592L274 593L274 594L274 595L274 596L274 597L274 598L274 599L274 600L274 601L274 602L274 603L274 608L275 608L275 605L275 601L275 600L275 599L275 598L275 597L275 596L275 595L275 594L275 593L275 592L275 591L275 590L275 589L275 588L275 587L275 586L275 585L275 584L275 583L275 582L275 581L275 580L275 579L275 578L275 577L275 576L275 575L275 574L275 573L275 572L275 571L275 570L275 569L275 568L275 567L275 566L275 565L275 564L275 563L275 562L275 561L275 560L275 559L275 558L275 557L275 556L275 555L275 554L275 553L275 552L275 551L275 550L275 549L275 548L275 547L275 546L275 545L275 544L275 543L275 542L275 541L275 540L275 539L275 538L275 537L275 536L275 535L275 534L275 533L275 532L275 531L275 530L275 529L275 528L275 527L275 526L275 525L275 524L275 523L275 522L275 521L275 520L275 519L275 518L275 517L275 516L275 515L275 514L275 513L275 512L275 511L275 510L275 509L275 508L275 507L275 506L275 505L275 504L275 503L275 502L275 501L275 500L275 499L275 498L275 497L275 496L275 495L275 494L275 493L275 492L275 491L275 490L275 489L275 488L275 487L275 486L275 485L275 484L275 483L275 482L275 481L275 480L275 479L275 478L275 477L275 476L275 475L275 474L275 473L275 472L275 471L275 470L275 469L275 468L275 467L275 466L275 465L275 464L275 463L275 462L275 461L275 460L275 459L275 458L275 457L275 456L275 455L275 454L275 453L275 452L275 451L275 450L275 449L275 448L275 447L275 446L275 445L275 444L275 443L275 442L275 441L275 440L275 439L275 438L275 437L275 436L275 435L275 434L275 433L275 432L275 431L275 430L275 429L275 428L275 427L275 426L275 425L275 424L275 423L275 422L275 421L275 420L275 419L275 418L275 417L275 416L275 415L275 414L275 413L275 412L275 411L275 410L275 409L275 408L275 407L275 406L275 405L275 404L275 403L275 402L275 401L275 400L275 399L275 398L275 397L275 396L275 395L275 394L275 393L275 392L275 391L275 390L275 389L275 388L275 387L275 386L275 385L275 384L275 383L275 382L275 381L275 380L275 379L275 378L275 377L275 376L275 375L275 374L275 373L275 372L275 371L275 370L275 369L275 368L275 367L275 366L275 365L275 364L275 363L275 362L275 361L275 360L275 359L275 358L275 357L275 356L275 355L275 354L275 353L275 352L275 351L275 350L275 349L275 348L275 347L275 346L275 345L275 344L275 343L275 342L274 335M265 472L265 476L265 477L265 478L265 479L265 480L265 481L265 482L265 483L265 484L265 485L265 486L265 487L265 488L265 489L265 490L265 491L265 492L265 493L265 494L265 495L265 496L265 497L265 498L265 499L265 500L265 501L265 502L265 503L265 504L265 505L265 506L265 507L265 508L265 509L265 510L265 511L265 512L265 513L265 514L265 515L265 516L265 517L265 518L265 519L265 520L265 521L265 522L265 523L265 524L265 525L265 526L265 527L265 528L265 529L265 530L265 531L265 532L265 533L265 534L265 535L265 536L265 537L265 538L265 539L265 540L265 541L265 542L265 543L265 544L265 545L265 546L265 547L265 548L265 549L265 550L265 551L265 552L265 553L265 554L265 555L265 556L265 557L265 558L265 559L265 560L265 561L265 562L265 563L265 564L265 565L265 566L265 567L265 568L265 569L265 570L265 571L265 572L265 573L265 574L265 575L265 576L265 577L265 578L265 579L265 580L265 581L265 582L265 583L265 584L265 585L265 586L265 587L265 588L265 589L265 590L265 591L265 592L265 593L265 594L265 595L265 596L265 597L265 598L265 599L265 600L265 601L265 602L265 603L265 608L266 608L266 605L266 601L266 600L266 599L266 598L266 597L266 596L266 595L266 594L266 593L266 592L266 591L266 590L266 589L266 588L266 587L266 586L266 585L266 584L266 583L266 582L266 581L266 580L266 579L266 578L266 577L266 576L266 575L266 574L266 573L266 572L266 571L266 570L266 569L266 568L266 567L266 566L266 565L266 564L266 563L266 562L266 561L266 560L266 559L266 558L266 557L266 556L266 555L266 554L266 553L266 552L266 551L266 550L266 549L266 548L266 547L266 546L266 545L266 544L266 543L266 542L266 541L266 540L266 539L266 538L266 537L266 536L266 535L266 534L266 533L266 532L266 531L266 530L266 529L266 528L266 527L266 526L266 525L266 524L266 523L266 522L266 521L266 520L266 519L266 518L266 517L266 516L266 515L266 514L266 513L266 512L266 511L266 510L266 509L266 508L266 507L266 506L266 505L266 504L266 503L266 502L266 501L266 500L266 499L266 498L266 497L266 496L266 495L266 494L266 493L266 492L266 491L266 490L266 489L266 488L266 487L266 486L266 485L266 484L266 483L266 482L266 481L266 480L266 479L266 478L265 472M286 472L286 476L286 477L286 478L286 479L286 480L286 481L286 482L286 483L286 484L286 485L286 486L286 487L286 488L286 489L286 490L286 491L286 492L286 493L286 494L286 495L286 496L286 497L286 498L286 499L286 500L286 501L286 502L286 503L286 504L286 505L286 506L286 507L286 508L286 509L286 510L286 511L286 512L286 513L286 514L286 515L286 516L286 517L286 518L286 519L286 520L286 521L286 522L286 523L286 524L286 525L286 526L286 527L286 528L286 529L286 530L286 531L286 532L286 533L286 534L286 535L286 536L286 537L286 538L286 539L286 540L286 541L286 542L286 543L286 544L286 545L286 546L286 547L286 548L286 549L286 550L286 551L286 552L286 553L286 554L286 555L286 556L286 557L286 558L286 559L286 560L286 561L286 562L286 563L286 564L286 565L286 566L286 567L286 568L286 569L286 570L286 571L286 572L286 573L286 574L286 575L286 576L286 577L286 578L286 579L286 580L286 581L286 582L286 583L286 584L286 585L286 586L286 587L286 588L286 589L286 590L286 591L286 592L286 593L286 594L286 595L286 596L286 597L286 598L286 599L286 600L286 601L286 602L286 603L286 608L287 608L287 605L287 601L287 600L287 599L287 598L287 597L287 596L287 595L287 594L287 593L287 592L287 591L287 590L287 589L287 588L287 587L287 586L287 585L287 584L287 583L287 582L287 581L287 580L287 579L287 578L287 577L287 576L287 575L287 574L287 573L287 572L287 571L287 570L287 569L287 568L287 567L287 566L287 565L287 564L287 563L287 562L287 561L287 560L287 559L287 558L287 557L287 556L287 555L287 554L287 553L287 552L287 551L287 550L287 549L287 548L287 547L287 546L287 545L287 544L287 543L287 542L287 541L287 540L287 539L287 538L287 537L287 536L287 535L287 534L287 533L287 532L287 531L287 530L287 529L287 528L287 527L287 526L287 525L287 524L287 523L287 522L287 521L287 520L287 519L287 518L287 517L287 516L287 515L287 514L287 513L287 512L287 511L287 510L287 509L287 508L287 507L287 506L287 505L287 504L287 503L287 502L287 501L287 500L287 499L287 498L287 497L287 496L287 495L287 494L287 493L287 492L287 491L287 490L287 489L287 488L287 487L287 486L287 485L287 484L287 483L287 482L287 481L287 480L287 479L287 478L286 472M526 472L526 476L526 477L526 478L526 479L526 480L526 481L526 482L526 483L526 484L526 485L526 486L526 487L526 488L526 489L526 490L526 491L526 492L526 493L526 494L526 495L526 496L526 497L526 498L526 499L526 500L526 501L526 502L526 503L526 504L526 505L526 506L526 507L526 508L526 509L526 510L526 511L526 512L526 513L526 514L526 515L526 516L526 517L526 518L526 519L526 520L526 521L526 522L526 523L526 524L526 525L526 526L526 527L526 528L526 529L526 530L526 531L526 532L526 533L526 534L526 535L526 540L527 540L527 537L527 533L527 532L527 531L527 530L527 529L527 528L527 527L527 526L527 525L527 524L527 523L527 522L527 521L527 520L527 519L527 518L527 517L527 516L527 515L527 514L527 513L527 512L527 511L527 510L527 509L527 508L527 507L527 506L527 505L527 504L527 503L527 502L527 501L527 500L527 499L527 498L527 497L527 496L527 495L527 494L527 493L527 492L527 491L527 490L527 489L527 488L527 487L527 486L527 485L527 484L527 483L527 482L527 481L527 480L527 479L527 478L526 472M268 540L268 544L268 545L268 546L268 547L268 548L268 549L268 550L268 551L268 552L268 553L268 554L268 555L268 556L268 557L268 558L268 559L268 560L268 561L268 562L268 563L268 564L268 565L268 566L268 567L268 568L268 569L268 570L268 571L268 572L268 573L268 574L268 575L268 576L268 577L268 578L268 579L268 580L268 581L268 582L268 583L268 584L268 585L268 586L268 587L268 588L268 589L268 590L268 591L268 592L268 593L268 594L268 595L268 596L268 597L268 598L268 599L268 600L268 601L268 602L268 603L268 608L269 608L269 605L269 601L269 600L269 599L269 598L269 597L269 596L269 595L269 594L269 593L269 592L269 591L269 590L269 589L269 588L269 587L269 586L269 585L269 584L269 583L269 582L269 581L269 580L269 579L269 578L269 577L269 576L269 575L269 574L269 573L269 572L269 571L269 570L269 569L269 568L269 567L269 566L269 565L269 564L269 563L269 562L269 561L269 560L269 559L269 558L269 557L269 556L269 555L269 554L269 553L269 552L269 551L269 550L269 549L269 548L269 547L269 546L268 540M288 540L288 544L288 545L288 546L288 547L288 548L288 549L288 550L288 551L288 552L288 553L288 554L288 555L288 556L288 557L288 558L288 559L288 560L288 561L288 562L288 563L288 564L288 565L288 566L288 567L288 568L288 569L288 570L288 571L288 572L288 573L288 574L288 575L288 576L288 577L288 578L288 579L288 580L288 581L288 582L288 583L288 584L288 585L288 586L288 587L288 588L288 589L288 590L288 591L288 592L288 593L288 594L288 595L288 596L288 597L288 598L288 599L288 600L288 601L288 602L288 603L288 608L289 608L289 605L289 601L289 600L289 599L289 598L289 597L289 596L289 595L289 594L289 593L289 592L289 591L289 590L289 589L289 588L289 587L289 586L289 585L289 584L289 583L289 582L289 581L289 580L289 579L289 578L289 577L289 576L289 575L289 574L289 573L289 572L289 571L289 570L289 569L289 568L289 567L289 566L289 565L289 564L289 563L289 562L289 561L289 560L289 559L289 558L289 557L289 556L289 555L289 554L289 553L289 552L289 551L289 550L289 549L289 548L289 547L289 546L288 540M478 540L478 544L478 545L478 546L478 547L478 548L478 549L478 550L478 551L478 552L478 553L478 554L478 555L478 556L478 557L478 558L478 559L478 560L478 561L478 562L478 563L478 564L478 565L478 566L478 567L478 568L478 569L478 570L478 571L478 572L478 573L478 574L478 575L478 576L478 577L478 578L478 579L478 580L478 581L478 582L478 583L478 584L478 585L478 586L478 587L478 588L478 589L478 590L478 591L478 592L478 593L478 594L478 595L478 596L478 597L478 598L478 599L478 600L478 601L478 602L478 603L478 608L479 608L479 605L479 601L479 600L479 599L479 598L479 597L479 596L479 595L479 594L479 593L479 592L479 591L479 590L479 589L479 588L479 587L479 586L479 585L479 584L479 583L479 582L479 581L479 580L479 579L479 578L479 577L479 576L479 575L479 574L479 573L479 572L479 571L479 570L479 569L479 568L479 567L479 566L479 565L479 564L479 563L479 562L479 561L479 560L479 559L479 558L479 557L479 556L479 555L479 554L479 553L479 552L479 551L479 550L479 549L479 548L479 547L479 546L478 540M481 540L481 544L481 545L481 546L481 547L481 548L481 549L481 550L481 551L481 552L481 553L481 554L481 555L481 556L481 557L481 558L481 559L481 560L481 561L481 562L481 563L481 564L481 565L481 566L481 567L481 568L481 569L481 570L481 571L481 572L481 573L481 574L481 575L481 576L481 577L481 578L481 579L481 580L481 581L481 582L481 583L481 584L481 585L481 586L481 587L481 588L481 589L481 590L481 591L481 592L481 593L481 594L481 595L481 596L481 597L481 598L481 599L481 600L481 601L481 602L481 603L481 608L482 608L482 605L482 601L482 600L482 599L482 598L482 597L482 596L482 595L482 594L482 593L482 592L482 591L482 590L482 589L482 588L482 587L482 586L482 585L482 584L482 583L482 582L482 581L482 580L482 579L482 578L482 577L482 576L482 575L482 574L482 573L482 572L482 571L482 570L482 569L482 568L482 567L482 566L482 565L482 564L482 563L482 562L482 561L482 560L482 559L482 558L482 557L482 556L482 555L482 554L482 553L482 552L482 551L482 550L482 549L482 548L482 547L482 546L481 540M523 540L523 544L523 545L523 546L523 547L523 548L523 549L523 550L523 551L523 552L523 553L523 554L523 555L523 556L523 557L523 558L523 559L523 560L523 561L523 562L523 563L523 564L523 565L523 566L523 567L523 568L523 569L523 570L523 571L523 572L523 573L523 574L523 575L523 576L523 577L523 578L523 579L523 580L523 581L523 582L523 583L523 584L523 585L523 586L523 587L523 588L523 589L523 590L523 591L523 592L523 593L523 594L523 595L523 596L523 597L523 598L523 599L523 600L523 601L523 602L523 603L523 608L524 608L524 605L524 601L524 600L524 599L524 598L524 597L524 596L524 595L524 594L524 593L524 592L524 591L524 590L524 589L524 588L524 587L524 586L524 585L524 584L524 583L524 582L524 581L524 580L524 579L524 578L524 577L524 576L524 575L524 574L524 573L524 572L524 571L524 570L524 569L524 568L524 567L524 566L524 565L524 564L524 563L524 562L524 561L524 560L524 559L524 558L524 557L524 556L524 555L524 554L524 553L524 552L524 551L524 550L524 549L524 548L524 547L524 546L523 540M481 678L481 682L481 683L481 684L481 685L481 686L481 687L481 688L481 689L481 690L481 691L481 692L481 693L481 694L481 695L481 696L481 697L481 698L481 699L481 700L481 701L481 702L481 703L481 704L481 705L481 706L481 707L481 708L481 709L481 710L481 711L481 712L481 713L481 714L481 715L481 716L481 717L481 718L481 719L481 720L481 721L481 722L481 723L481 724L481 725L481 726L481 727L481 728L481 729L481 730L481 731L481 732L481 733L481 734L481 735L481 736L481 737L481 738L481 739L481 740L481 741L481 745L482 745L482 742L482 738L482 737L482 736L482 735L482 734L482 733L482 732L482 731L482 730L482 729L482 728L482 727L482 726L482 725L482 724L482 723L482 722L482 721L482 720L482 719L482 718L482 717L482 716L482 715L482 714L482 713L482 712L482 711L482 710L482 709L482 708L482 707L482 706L482 705L482 704L482 703L482 702L482 701L482 700L482 699L482 698L482 697L482 696L482 695L482 694L482 693L482 692L482 691L482 690L482 689L482 688L482 687L482 686L482 685L482 684L482 683L481 678z"/>
</svg>
