<?xml version="1.0" standalone="yes"?>
<svg width="900" height="900">
<path style="fill:#0d0d0d; stroke:none;" d="M215 266L215 270L215 271L215 272L215 273L215 274L215 275L215 276L215 277L215 278L215 279L215 280L215 281L215 282L215 283L215 284L215 285L215 286L215 287L215 288L215 289L215 290L215 291L215 292L215 293L215 294L215 295L215 296L215 297L215 298L215 299L215 300L215 301L215 302L215 303L215 304L215 305L215 306L215 307L215 308L215 309L215 310L215 311L215 312L215 313L215 314L215 315L215 316L215 317L215 318L215 319L215 320L215 321L215 322L215 323L215 324L215 325L215 326L215 327L215 328L215 329L215 334L216 334L216 331L216 327L216 326L216 325L216 324L216 323L216 322L216 321L216 320L216 319L216 318L216 317L216 316L216 315L216 314L216 313L216 312L216 311L216 310L216 309L216 308L216 307L216 306L216 305L216 304L216 303L216 302L216 301L216 300L216 299L216 298L216 297L216 296L216 295L216 294L216 293L216 292L216 291L216 290L216 289L216 288L216 287L216 286L216 285L216 284L216 283L216 282L216 281L216 280L216 279L216 278L216 277L216 276L216 275L216 274L216 273L216 272L215 266M264 266L264 270L264 271L264 272L264 273L264 274L264 275L264 276L264 277L264 278L264 279L264 280L264 281L264 282L264 283L264 284L264 285L264 286L264 287L264 288L264 289L264 290L264 291L264 292L264 293L264 294L264 295L264 296L264 297L264 298L264 299L264 300L264 301L264 302L264 303L264 304L264 305L264 306L264 307L264 308L264 309L264 310L264 311L264 312L264 313L264 314L264 315L264 316L264 317L264 318L264 319L264 320L264 321L264 322L264 323L264 324L264 325L264 326L264 327L264 328L264 329L264 334L265 334L265 331L265 327L265 326L265 325L265 324L265 323L265 322L265 321L265 320L265 319L265 318L265 317L265 316L265 315L265 314L265 313L265 312L265 311L265 310L265 309L265 308L265 307L265 306L265 305L265 304L265 303L265 302L265 301L265 300L265 299L265 298L265 297L265 296L265 295L265 294L265 293L265 292L265 291L265 290L265 289L265 288L265 287L265 286L265 285L265 284L265 283L265 282L265 281L265 280L265 279L265 278L265 277L265 276L265 275L265 274L265 273L265 272L264 266M285 266L285 270L285 271L285 272L285 273L285 274L285 275L285 276L285 277L285 278L285 279L285 280L285 281L285 282L285 283L285 284L285 285L285 286L285 287L285 288L285 289L285 290L285 291L285 292L285 293L285 294L285 295L285 296L285 297L285 298L285 299L285 300L285 301L285 302L285 303L285 304L285 305L285 306L285 307L285 308L285 309L285 310L285 311L285 312L285 313L285 314L285 315L285 316L285 317L285 318L285 319L285 320L285 321L285 322L285 323L285 324L285 325L285 326L285 327L285 328L285 329L285 334L286 334L286 331L286 327L286 326L286 325L286 324L286 323L286 322L286 321L286 320L286 319L286 318L286 317L286 316L286 315L286 314L286 313L286 312L286 311L286 310L286 309L286 308L286 307L286 306L286 305L286 304L286 303L286 302L286 301L286 300L286 299L286 298L286 297L286 296L286 295L286 294L286 293L286 292L286 291L286 290L286 289L286 288L286 287L286 286L286 285L286 284L286 283L286 282L286 281L286 280L286 279L286 278L286 277L286 276L286 275L286 274L286 273L286 272L285 266M470 266L470 270L470 271L470 272L470 273L470 274L470 275L470 276L470 277L470 278L470 279L470 280L470 281L470 282L470 283L470 284L470 285L470 286L470 287L470 288L470 289L470 290L470 291L470 292L470 293L470 294L470 295L470 296L470 297L470 298L470 299L470 300L470 301L470 302L470 303L470 304L470 305L470 306L470 307L470 308L470 309L470 310L470 311L470 312L470 313L470 314L470 315L470 316L470 317L470 318L470 319L470 320L470 321L470 322L470 323L470 324L470 325L470 326L470 327L470 328L470 329L470 334L472 334L472 332L472 328L472 327L472 326L472 325L472 324L472 323L472 322L472 321L472 320L472 319L472 318L472 317L472 316L472 315L472 314L472 313L472 312L472 311L472 310L472 309L472 308L472 307L472 306L472 305L472 304L472 303L472 302L472 301L472 300L472 299L472 298L472 297L472 296L472 295L472 294L472 293L472 292L472 291L472 290L472 289L472 288L472 287L472 286L472 285L472 284L472 283L472 282L472 281L472 280L472 279L472 278L472 277L472 276L472 275L472 274L472 273L472 266L470 266M213 335L213 339L213 340L213 341L213 342L213 343L213 344L213 345L213 346L213 347L213 348L213 349L213 350L213 351L213 352L213 353L213 354L213 355L213 356L213 357L213 358L213 359L213 360L213 361L213 362L213 363L213 364L213 365L213 366L213 367L213 368L213 369L213 370L213 371L213 372L213 373L213 374L213 375L213 376L213 377L213 378L213 379L213 380L213 381L213 382L213 383L213 384L213 385L213 386L213 387L213 388L213 389L213 390L213 391L213 392L213 393L213 394L213 395L213 396L213 397L213 398L213 403L214 403L214 400L214 396L214 395L214 394L214 393L214 392L214 391L214 390L214 389L214 388L214 387L214 386L214 385L214 384L214 383L214 382L214 381L214 380L214 379L214 378L214 377L214 376L214 375L214 374L214 373L214 372L214 371L214 370L214 369L214 368L214 367L214 366L214 365L214 364L214 363L214 362L214 361L214 360L214 359L214 358L214 357L214 356L214 355L214 354L214 353L214 352L214 351L214 350L214 349L214 348L214 347L214 346L214 345L214 344L214 343L214 342L214 341L213 335M227 335L227 339L227 340L227 341L227 342L227 343L227 344L227 345L227 346L227 347L227 348L227 349L227 350L227 351L227 352L227 353L227 354L227 355L227 356L227 357L227 358L227 359L227 360L227 361L227 362L227 363L227 364L227 365L227 366L227 367L227 368L227 369L227 370L227 371L227 372L227 373L227 374L227 375L227 376L227 377L227 378L227 379L227 380L227 381L227 382L227 383L227 384L227 385L227 386L227 387L227 388L227 389L227 390L227 391L227 392L227 393L227 394L227 395L227 396L227 397L227 398L227 403L224 403L224 404L224 408L224 409L224 410L224 411L224 412L224 413L224 414L224 415L224 416L224 417L224 418L224 419L224 420L224 421L224 422L224 423L224 424L224 425L224 426L224 427L224 428L224 429L224 430L224 431L224 432L224 433L224 434L224 435L224 436L224 437L224 438L224 439L224 440L224 441L224 442L224 443L224 444L224 445L224 446L224 447L224 448L224 449L224 450L224 451L224 452L224 453L224 454L224 455L224 456L224 457L224 458L224 459L224 460L224 461L224 462L224 463L224 464L224 465L224 466L224 467L224 472L218 472L218 476L218 477L218 478L218 479L218 480L218 481L218 482L218 483L218 484L218 485L218 486L218 487L218 488L218 489L218 490L218 491L218 492L218 493L218 494L218 495L218 496L218 497L218 498L218 499L218 500L218 501L218 502L218 503L218 504L218 505L218 506L218 507L218 508L218 509L218 510L218 511L218 512L218 513L218 514L218 515L218 516L218 517L218 518L218 519L218 520L218 521L218 522L218 523L218 524L218 525L218 526L218 527L218 528L218 529L218 530L218 531L218 532L218 533L218 534L218 535L218 536L218 537L218 538L218 539L218 540L218 541L218 542L218 543L218 544L218 545L218 546L218 547L218 548L218 549L218 550L218 551L218 552L218 553L218 554L218 555L218 556L218 557L218 558L218 559L218 560L218 561L218 562L218 563L218 564L218 565L218 566L218 567L218 568L218 569L218 570L218 571L218 572L218 573L218 574L218 575L218 576L218 577L218 578L218 579L218 580L218 581L218 582L218 583L218 584L218 585L218 586L218 587L218 588L218 589L218 590L218 591L218 592L218 593L218 594L218 595L218 596L218 597L218 598L218 599L218 600L218 601L218 602L218 603L218 608L227 608L227 612L227 613L227 614L227 615L227 616L227 617L227 618L227 619L227 620L227 621L227 622L227 623L227 624L227 625L227 626L227 627L227 628L227 629L227 630L227 631L227 632L227 633L227 634L227 635L227 636L227 637L227 638L227 639L227 640L227 641L227 642L227 643L227 644L227 645L227 646L227 647L227 648L227 649L227 650L227 651L227 652L227 653L227 654L227 655L227 656L227 657L227 658L227 659L227 660L227 661L227 662L227 663L227 664L227 665L227 666L227 667L227 668L227 669L227 670L227 671L227 677L223 677L223 681L223 682L223 683L223 684L223 685L223 686L223 687L223 688L223 689L223 690L223 691L223 692L223 693L223 694L223 695L223 696L223 697L223 698L223 699L223 700L223 701L223 702L223 703L223 704L223 705L223 706L223 707L223 708L223 709L223 710L223 711L223 712L223 713L223 714L223 715L223 716L223 717L223 718L223 719L223 720L223 721L223 722L223 723L223 724L223 725L223 726L223 727L223 728L223 729L223 730L223 731L223 732L223 733L223 734L223 735L223 736L223 737L223 738L223 739L223 740L223 745L230 745L230 741L230 740L230 739L230 738L230 737L230 736L230 735L230 734L230 733L230 732L230 731L230 730L230 729L230 728L230 727L230 726L230 725L230 724L230 723L230 722L230 721L230 720L230 719L230 718L230 717L230 716L230 715L230 714L230 713L230 712L230 711L230 710L230 709L230 708L230 707L230 706L230 705L230 704L230 703L230 702L230 701L230 700L230 699L230 698L230 697L230 696L230 695L230 694L230 693L230 692L230 691L230 690L230 689L230 688L230 687L230 686L230 685L230 684L230 683L230 682L230 681L230 680L230 679L230 678L230 677L230 676L230 675L230 674L230 673L230 672L230 671L230 670L230 669L230 668L230 667L230 666L230 665L230 664L230 663L230 662L230 661L230 660L230 659L230 658L230 657L230 656L230 655L230 654L230 653L230 652L230 651L230 650L230 649L230 648L230 647L230 646L230 645L230 644L230 643L230 642L230 641L230 640L230 639L230 638L230 637L230 636L230 635L230 634L230 633L230 632L230 631L230 630L230 629L230 628L230 627L230 626L230 625L230 624L230 623L230 622L230 621L230 620L230 619L230 618L230 617L230 616L230 615L230 614L230 613L230 612L230 611L230 610L230 609L230 608L230 607L230 606L230 605L230 604L230 603L230 602L230 601L230 600L230 599L230 598L230 597L230 596L230 595L230 594L230 593L230 592L230 591L230 590L230 589L230 588L230 587L230 586L230 585L230 584L230 583L230 582L230 581L230 580L230 579L230 578L230 577L230 576L230 575L230 574L230 573L230 572L230 571L230 570L230 569L230 568L230 567L230 566L230 565L230 564L230 563L230 562L230 561L230 560L230 559L230 558L230 557L230 556L230 555L230 554L230 553L230 552L230 551L230 550L230 549L230 548L230 547L230 546L230 545L230 544L230 543L230 542L230 541L230 540L230 539L230 538L230 537L230 536L230 535L230 534L230 533L230 532L230 531L230 530L230 529L230 528L230 527L230 526L230 525L230 524L230 523L230 522L230 521L230 520L230 519L230 518L230 517L230 516L230 515L230 514L230 513L230 512L230 511L230 510L230 509L230 508L230 507L230 506L230 505L230 504L230 503L230 502L230 501L230 500L230 499L230 498L230 497L230 496L230 495L230 494L230 493L230 492L230 491L230 490L230 489L230 488L230 487L230 486L230 485L230 484L230 483L230 482L230 481L230 480L230 479L230 478L230 472L234 472L235 472L236 472L237 472L238 472L239 472L240 472L241 472L246 472L246 468L246 467L246 466L246 465L246 464L246 463L246 462L246 461L246 460L246 459L246 458L246 457L246 456L246 455L246 454L246 453L246 452L246 451L246 450L246 449L246 448L246 447L246 446L246 445L246 444L246 443L246 442L246 441L246 440L246 439L246 438L246 437L246 436L246 435L246 434L246 433L246 432L246 431L246 430L246 429L246 428L246 427L246 426L246 425L246 424L246 423L246 422L246 421L246 420L246 419L246 418L246 417L246 416L246 415L246 414L246 413L246 412L246 411L246 410L246 409L246 403L242 403L241 403L240 403L239 403L238 403L237 403L236 403L235 403L230 403L230 399L230 398L230 397L230 396L230 395L230 394L230 393L230 392L230 391L230 390L230 389L230 388L230 387L230 386L230 385L230 384L230 383L230 382L230 381L230 380L230 379L230 378L230 377L230 376L230 375L230 374L230 373L230 372L230 371L230 370L230 369L230 368L230 367L230 366L230 365L230 364L230 363L230 362L230 361L230 360L230 359L230 358L230 357L230 356L230 355L230 354L230 353L230 352L230 351L230 350L230 349L230 348L230 347L230 346L230 345L230 344L230 343L230 342L230 341L230 340L230 335L227 335M295 335L295 339L295 340L295 341L295 342L295 343L295 344L295 345L295 346L295 347L295 348L295 349L295 350L295 351L295 352L295 353L295 354L295 355L295 356L295 357L295 358L295 359L295 360L295 361L295 362L295 363L295 364L295 365L295 366L295 367L295 368L295 369L295 370L295 371L295 372L295 373L295 374L295 375L295 376L295 377L295 378L295 379L295 380L295 381L295 382L295 383L295 384L295 385L295 386L295 387L295 388L295 389L295 390L295 391L295 392L295 393L295 394L295 395L295 396L295 397L295 398L295 403L290 403L290 407L290 408L290 409L290 410L290 411L290 412L290 413L290 414L290 415L290 416L290 417L290 418L290 419L290 420L290 421L290 422L290 423L290 424L290 425L290 426L290 427L290 428L290 429L290 430L290 431L290 432L290 433L290 434L290 435L290 436L290 437L290 438L290 439L290 440L290 441L290 442L290 443L290 444L290 445L290 446L290 447L290 448L290 449L290 450L290 451L290 452L290 453L290 454L290 455L290 456L290 457L290 458L290 459L290 460L290 461L290 462L290 463L290 464L290 465L290 466L290 472L291 472L291 475L291 479L291 480L291 481L291 482L291 483L291 484L291 485L291 486L291 487L291 488L291 489L291 490L291 491L291 492L291 493L291 494L291 495L291 496L291 497L291 498L291 499L291 500L291 501L291 502L291 503L291 504L291 505L291 506L291 507L291 508L291 509L291 510L291 511L291 512L291 513L291 514L291 515L291 516L291 517L291 518L291 519L291 520L291 521L291 522L291 523L291 524L291 525L291 526L291 527L291 528L291 529L291 530L291 531L291 532L291 533L291 534L291 540L290 540L290 543L290 547L290 548L290 549L290 550L290 551L290 552L290 553L290 554L290 555L290 556L290 557L290 558L290 559L290 560L290 561L290 562L290 563L290 564L290 565L290 566L290 567L290 568L290 569L290 570L290 571L290 572L290 573L290 574L290 575L290 576L290 577L290 578L290 579L290 580L290 581L290 582L290 583L290 584L290 585L290 586L290 587L290 588L290 589L290 590L290 591L290 592L290 593L290 594L290 595L290 596L290 597L290 598L290 599L290 600L290 601L290 602L290 608L295 608L295 612L295 613L295 614L295 615L295 616L295 617L295 618L295 619L295 620L295 621L295 622L295 623L295 624L295 625L295 626L295 627L295 628L295 629L295 630L295 631L295 632L295 633L295 634L295 635L295 636L295 637L295 638L295 639L295 640L295 641L295 642L295 643L295 644L295 645L295 646L295 647L295 648L295 649L295 650L295 651L295 652L295 653L295 654L295 655L295 656L295 657L295 658L295 659L295 660L295 661L295 662L295 663L295 664L295 665L295 666L295 667L295 668L295 669L295 670L295 671L295 677L293 677L293 679L293 683L293 684L293 685L293 686L293 687L293 688L293 689L293 690L293 691L293 692L293 693L293 694L293 695L293 696L293 697L293 698L293 699L293 700L293 701L293 702L293 703L293 704L293 705L293 706L293 707L293 708L293 709L293 710L293 711L293 712L293 713L293 714L293 715L293 716L293 717L293 718L293 719L293 720L293 721L293 722L293 723L293 724L293 725L293 726L293 727L293 728L293 729L293 730L293 731L293 732L293 733L293 734L293 735L293 736L293 737L293 738L293 745L297 745L298 745L299 745L300 745L305 745L305 741L305 740L305 739L305 738L305 737L305 736L305 735L305 734L305 733L305 732L305 731L305 730L305 729L305 728L305 727L305 726L305 725L305 724L305 723L305 722L305 721L305 720L305 719L305 718L305 717L305 716L305 715L305 714L305 713L305 712L305 711L305 710L305 709L305 708L305 707L305 706L305 705L305 704L305 703L305 702L305 701L305 700L305 699L305 698L305 697L305 696L305 695L305 694L305 693L305 692L305 691L305 690L305 689L305 688L305 687L305 686L305 685L305 684L305 683L305 682L305 681L305 680L305 679L305 678L305 677L305 676L305 675L305 674L305 673L305 672L305 671L305 670L305 669L305 668L305 667L305 666L305 665L305 664L305 663L305 662L305 661L305 660L305 659L305 658L305 657L305 656L305 655L305 654L305 653L305 652L305 651L305 650L305 649L305 648L305 647L305 646L305 645L305 644L305 643L305 642L305 641L305 640L305 639L305 638L305 637L305 636L305 635L305 634L305 633L305 632L305 631L305 630L305 629L305 628L305 627L305 626L305 625L305 624L305 623L305 622L305 621L305 620L305 619L305 618L305 617L305 616L305 615L305 614L305 613L305 612L305 611L305 610L305 609L305 608L305 607L305 606L305 605L305 604L305 603L305 602L305 601L305 600L305 599L305 598L305 597L305 596L305 595L305 594L305 593L305 592L305 591L305 590L305 589L305 588L305 587L305 586L305 585L305 584L305 583L305 582L305 581L305 580L305 579L305 578L305 577L305 576L305 575L305 574L305 573L305 572L305 571L305 570L305 569L305 568L305 567L305 566L305 565L305 564L305 563L305 562L305 561L305 560L305 559L305 558L305 557L305 556L305 555L305 554L305 553L305 552L305 551L305 550L305 549L305 548L305 547L305 546L305 545L305 544L305 543L305 542L305 541L305 540L305 539L305 538L305 537L305 536L305 535L305 534L305 533L305 532L305 531L305 530L305 529L305 528L305 527L305 526L305 525L305 524L305 523L305 522L305 521L305 520L305 519L305 518L305 517L305 516L305 515L305 514L305 513L305 512L305 511L305 510L305 509L305 508L305 507L305 506L305 505L305 504L305 503L305 502L305 501L305 500L305 499L305 498L305 497L305 496L305 495L305 494L305 493L305 492L305 491L305 490L305 489L305 488L305 487L305 486L305 485L305 484L305 483L305 482L305 481L305 480L305 479L305 478L305 472L309 472L310 472L311 472L312 472L313 472L314 472L315 472L316 472L317 472L318 472L319 472L320 472L321 472L322 472L323 472L324 472L325 472L326 472L327 472L328 472L329 472L330 472L331 472L332 472L336 472L336 468L336 467L336 466L336 465L336 464L336 463L336 462L336 461L336 460L336 459L336 458L336 457L336 456L336 455L336 454L336 453L336 452L336 451L336 450L336 449L336 448L336 447L336 446L336 445L336 444L336 443L336 442L336 441L336 440L336 439L336 438L336 437L336 436L336 435L336 434L336 433L336 432L336 431L336 430L336 429L336 428L336 427L336 426L336 425L336 424L336 423L336 422L336 421L336 420L336 419L336 418L336 417L336 416L336 415L336 414L336 413L336 412L336 411L336 410L336 409L336 403L332 403L331 403L330 403L329 403L328 403L327 403L326 403L325 403L324 403L323 403L322 403L321 403L320 403L319 403L318 403L317 403L316 403L315 403L314 403L313 403L312 403L311 403L310 403L309 403L305 403L305 399L305 398L305 397L305 396L305 395L305 394L305 393L305 392L305 391L305 390L305 389L305 388L305 387L305 386L305 385L305 384L305 383L305 382L305 381L305 380L305 379L305 378L305 377L305 376L305 375L305 374L305 373L305 372L305 371L305 370L305 369L305 368L305 367L305 366L305 365L305 364L305 363L305 362L305 361L305 360L305 359L305 358L305 357L305 356L305 355L305 354L305 353L305 352L305 351L305 350L305 349L305 348L305 347L305 346L305 345L305 344L305 343L305 342L305 341L305 340L305 335L295 335M356 335L356 339L356 340L356 341L356 342L356 343L356 344L356 345L356 346L356 347L356 348L356 349L356 350L356 351L356 352L356 353L356 354L356 355L356 356L356 357L356 358L356 359L356 360L356 361L356 362L356 363L356 364L356 365L356 366L356 367L356 368L356 369L356 370L356 371L356 372L356 373L356 374L356 375L356 376L356 377L356 378L356 379L356 380L356 381L356 382L356 383L356 384L356 385L356 386L356 387L356 388L356 389L356 390L356 391L356 392L356 393L356 394L356 395L356 396L356 397L356 398L356 403L366 403L366 399L366 398L366 397L366 396L366 395L366 394L366 393L366 392L366 391L366 390L366 389L366 388L366 387L366 386L366 385L366 384L366 383L366 382L366 381L366 380L366 379L366 378L366 377L366 376L366 375L366 374L366 373L366 372L366 371L366 370L366 369L366 368L366 367L366 366L366 365L366 364L366 363L366 362L366 361L366 360L366 359L366 358L366 357L366 356L366 355L366 354L366 353L366 352L366 351L366 350L366 349L366 348L366 347L366 346L366 345L366 344L366 343L366 342L366 341L366 340L366 335L356 335M410 335L410 339L410 340L410 341L410 342L410 343L410 344L410 345L410 346L410 347L410 348L410 349L410 350L410 351L410 352L410 353L410 354L410 355L410 356L410 357L410 358L410 359L410 360L410 361L410 362L410 363L410 364L410 365L410 366L410 367L410 368L410 369L410 370L410 371L410 372L410 373L410 374L410 375L410 376L410 377L410 378L410 379L410 380L410 381L410 382L410 383L410 384L410 385L410 386L410 387L410 388L410 389L410 390L410 391L410 392L410 393L410 394L410 395L410 396L410 397L410 398L410 403L414 403L415 403L416 403L417 403L421 403L421 399L421 398L421 397L421 396L421 395L421 394L421 393L421 392L421 391L421 390L421 389L421 388L421 387L421 386L421 385L421 384L421 383L421 382L421 381L421 380L421 379L421 378L421 377L421 376L421 375L421 374L421 373L421 372L421 371L421 370L421 369L421 368L421 367L421 366L421 365L421 364L421 363L421 362L421 361L421 360L421 359L421 358L421 357L421 356L421 355L421 354L421 353L421 352L421 351L421 350L421 349L421 348L421 347L421 346L421 345L421 344L421 343L421 342L421 341L421 340L421 335L417 335L416 335L415 335L414 335L410 335M274 402L269 403L269 407L269 408L269 409L269 410L269 411L269 412L269 413L269 414L269 415L269 416L269 417L269 418L269 419L269 420L269 421L269 422L269 423L269 424L269 425L269 426L269 427L269 428L269 429L269 430L269 431L269 432L269 433L269 434L269 435L269 436L269 437L269 438L269 439L269 440L269 441L269 442L269 443L269 444L269 445L269 446L269 447L269 448L269 449L269 450L269 451L269 452L269 453L269 454L269 455L269 456L269 457L269 458L269 459L269 460L269 461L269 462L269 463L269 464L269 465L269 466L269 472L270 472L270 475L270 479L270 480L270 481L270 482L270 483L270 484L270 485L270 486L270 487L270 488L270 489L270 490L270 491L270 492L270 493L270 494L270 495L270 496L270 497L270 498L270 499L270 500L270 501L270 502L270 503L270 504L270 505L270 506L270 507L270 508L270 509L270 510L270 511L270 512L270 513L270 514L270 515L270 516L270 517L270 518L270 519L270 520L270 521L270 522L270 523L270 524L270 525L270 526L270 527L270 528L270 529L270 530L270 531L270 532L270 533L270 534L270 540L269 540L269 543L269 547L269 548L269 549L269 550L269 551L269 552L269 553L269 554L269 555L269 556L269 557L269 558L269 559L269 560L269 561L269 562L269 563L269 564L269 565L269 566L269 567L269 568L269 569L269 570L269 571L269 572L269 573L269 574L269 575L269 576L269 577L269 578L269 579L269 580L269 581L269 582L269 583L269 584L269 585L269 586L269 587L269 588L269 589L269 590L269 591L269 592L269 593L269 594L269 595L269 596L269 597L269 598L269 599L269 600L269 601L269 602L269 608L275 609L275 605L275 604L275 603L275 602L275 601L275 600L275 599L275 598L275 597L275 596L275 595L275 594L275 593L275 592L275 591L275 590L275 589L275 588L275 587L275 586L275 585L275 584L275 583L275 582L275 581L275 580L275 579L275 578L275 577L275 576L275 575L275 574L275 573L275 572L275 571L275 570L275 569L275 568L275 567L275 566L275 565L275 564L275 563L275 562L275 561L275 560L275 559L275 558L275 557L275 556L275 555L275 554L275 553L275 552L275 551L275 550L275 549L275 548L275 547L275 546L275 545L275 544L275 543L275 542L275 541L275 540L275 539L275 538L275 537L275 536L275 535L275 534L275 533L275 532L275 531L275 530L275 529L275 528L275 527L275 526L275 525L275 524L275 523L275 522L275 521L275 520L275 519L275 518L275 517L275 516L275 515L275 514L275 513L275 512L275 511L275 510L275 509L275 508L275 507L275 506L275 505L275 504L275 503L275 502L275 501L275 500L275 499L275 498L275 497L275 496L275 495L275 494L275 493L275 492L275 491L275 490L275 489L275 488L275 487L275 486L275 485L275 484L275 483L275 482L275 481L275 480L275 479L275 478L275 477L275 476L275 475L275 474L275 473L275 472L275 471L275 470L275 469L275 468L275 467L275 466L275 465L275 464L275 463L275 462L275 461L275 460L275 459L275 458L275 457L275 456L275 455L275 454L275 453L275 452L275 451L275 450L275 449L275 448L275 447L275 446L275 445L275 444L275 443L275 442L275 441L275 440L275 439L275 438L275 437L275 436L275 435L275 434L275 433L275 432L275 431L275 430L275 429L275 428L275 427L275 426L275 425L275 424L275 423L275 422L275 421L275 420L275 419L275 418L275 417L275 416L275 415L275 414L275 413L275 412L275 411L275 410L275 409L275 408L275 407L275 406L274 402M373 403L373 407L373 408L373 409L373 410L373 411L373 412L373 413L373 414L373 415L373 416L373 417L373 418L373 419L373 420L373 421L373 422L373 423L373 424L373 425L373 426L373 427L373 428L373 429L373 430L373 431L373 432L373 433L373 434L373 435L373 436L373 437L373 438L373 439L373 440L373 441L373 442L373 443L373 444L373 445L373 446L373 447L373 448L373 449L373 450L373 451L373 452L373 453L373 454L373 455L373 456L373 457L373 458L373 459L373 460L373 461L373 462L373 463L373 464L373 465L373 466L373 472L377 472L378 472L379 472L380 472L381 472L382 472L383 472L384 472L388 472L388 468L388 467L388 466L388 465L388 464L388 463L388 462L388 461L388 460L388 459L388 458L388 457L388 456L388 455L388 454L388 453L388 452L388 451L388 450L388 449L388 448L388 447L388 446L388 445L388 444L388 443L388 442L388 441L388 440L388 439L388 438L388 437L388 436L388 435L388 434L388 433L388 432L388 431L388 430L388 429L388 428L388 427L388 426L388 425L388 424L388 423L388 422L388 421L388 420L388 419L388 418L388 417L388 416L388 415L388 414L388 413L388 412L388 411L388 410L388 409L388 403L384 403L383 403L382 403L381 403L380 403L379 403L378 403L377 403L373 403M337 472L337 476L337 477L337 478L337 479L337 480L337 481L337 482L337 483L337 484L337 485L337 486L337 487L337 488L337 489L337 490L337 491L337 492L337 493L337 494L337 495L337 496L337 497L337 498L337 499L337 500L337 501L337 502L337 503L337 504L337 505L337 506L337 507L337 508L337 509L337 510L337 511L337 512L337 513L337 514L337 515L337 516L337 517L337 518L337 519L337 520L337 521L337 522L337 523L337 524L337 525L337 526L337 527L337 528L337 529L337 530L337 531L337 532L337 533L337 534L337 535L337 540L341 540L342 540L343 540L344 540L345 540L346 540L347 540L348 540L349 540L350 540L351 540L352 540L356 540L356 536L356 535L356 534L356 533L356 532L356 531L356 530L356 529L356 528L356 527L356 526L356 525L356 524L356 523L356 522L356 521L356 520L356 519L356 518L356 517L356 516L356 515L356 514L356 513L356 512L356 511L356 510L356 509L356 508L356 507L356 506L356 505L356 504L356 503L356 502L356 501L356 500L356 499L356 498L356 497L356 496L356 495L356 494L356 493L356 492L356 491L356 490L356 489L356 488L356 487L356 486L356 485L356 484L356 483L356 482L356 481L356 480L356 479L356 478L356 477L356 472L352 472L351 472L350 472L349 472L348 472L347 472L346 472L345 472L344 472L343 472L342 472L341 472L337 472M390 472L390 476L390 477L390 478L390 479L390 480L390 481L390 482L390 483L390 484L390 485L390 486L390 487L390 488L390 489L390 490L390 491L390 492L390 493L390 494L390 495L390 496L390 497L390 498L390 499L390 500L390 501L390 502L390 503L390 504L390 505L390 506L390 507L390 508L390 509L390 510L390 511L390 512L390 513L390 514L390 515L390 516L390 517L390 518L390 519L390 520L390 521L390 522L390 523L390 524L390 525L390 526L390 527L390 528L390 529L390 530L390 531L390 532L390 533L390 534L390 535L390 540L394 540L395 540L396 540L397 540L398 540L399 540L400 540L401 540L406 540L406 536L406 535L406 534L406 533L406 532L406 531L406 530L406 529L406 528L406 527L406 526L406 525L406 524L406 523L406 522L406 521L406 520L406 519L406 518L406 517L406 516L406 515L406 514L406 513L406 512L406 511L406 510L406 509L406 508L406 507L406 506L406 505L406 504L406 503L406 502L406 501L406 500L406 499L406 498L406 497L406 496L406 495L406 494L406 493L406 492L406 491L406 490L406 489L406 488L406 487L406 486L406 485L406 484L406 483L406 482L406 481L406 480L406 479L406 478L406 477L406 472L402 472L401 472L400 472L399 472L398 472L397 472L396 472L395 472L390 472M288 540L288 544L288 545L288 546L288 547L288 548L288 549L288 550L288 551L288 552L288 553L288 554L288 555L288 556L288 557L288 558L288 559L288 560L288 561L288 562L288 563L288 564L288 565L288 566L288 567L288 568L288 569L288 570L288 571L288 572L288 573L288 574L288 575L288 576L288 577L288 578L288 579L288 580L288 581L288 582L288 583L288 584L288 585L288 586L288 587L288 588L288 589L288 590L288 591L288 592L288 593L288 594L288 595L288 596L288 597L288 598L288 599L288 600L288 601L288 602L288 603L288 608L289 608L289 605L289 601L289 600L289 599L289 598L289 597L289 596L289 595L289 594L289 593L289 592L289 591L289 590L289 589L289 588L289 587L289 586L289 585L289 584L289 583L289 582L289 581L289 580L289 579L289 578L289 577L289 576L289 575L289 574L289 573L289 572L289 571L289 570L289 569L289 568L289 567L289 566L289 565L289 564L289 563L289 562L289 561L289 560L289 559L289 558L289 557L289 556L289 555L289 554L289 553L289 552L289 551L289 550L289 549L289 548L289 547L289 546L288 540M366 540L366 544L366 545L366 546L366 547L366 548L366 549L366 550L366 551L366 552L366 553L366 554L366 555L366 556L366 557L366 558L366 559L366 560L366 561L366 562L366 563L366 564L366 565L366 566L366 567L366 568L366 569L366 570L366 571L366 572L366 573L366 574L366 575L366 576L366 577L366 578L366 579L366 580L366 581L366 582L366 583L366 584L366 585L366 586L366 587L366 588L366 589L366 590L366 591L366 592L366 593L366 594L366 595L366 596L366 597L366 598L366 599L366 600L366 601L366 602L366 603L366 608L373 608L373 604L373 603L373 602L373 601L373 600L373 599L373 598L373 597L373 596L373 595L373 594L373 593L373 592L373 591L373 590L373 589L373 588L373 587L373 586L373 585L373 584L373 583L373 582L373 581L373 580L373 579L373 578L373 577L373 576L373 575L373 574L373 573L373 572L373 571L373 570L373 569L373 568L373 567L373 566L373 565L373 564L373 563L373 562L373 561L373 560L373 559L373 558L373 557L373 556L373 555L373 554L373 553L373 552L373 551L373 550L373 549L373 548L373 547L373 546L373 545L373 540L366 540M419 540L419 544L419 545L419 546L419 547L419 548L419 549L419 550L419 551L419 552L419 553L419 554L419 555L419 556L419 557L419 558L419 559L419 560L419 561L419 562L419 563L419 564L419 565L419 566L419 567L419 568L419 569L419 570L419 571L419 572L419 573L419 574L419 575L419 576L419 577L419 578L419 579L419 580L419 581L419 582L419 583L419 584L419 585L419 586L419 587L419 588L419 589L419 590L419 591L419 592L419 593L419 594L419 595L419 596L419 597L419 598L419 599L419 600L419 601L419 602L419 603L419 608L420 608L420 605L420 601L420 600L420 599L420 598L420 597L420 596L420 595L420 594L420 593L420 592L420 591L420 590L420 589L420 588L420 587L420 586L420 585L420 584L420 583L420 582L420 581L420 580L420 579L420 578L420 577L420 576L420 575L420 574L420 573L420 572L420 571L420 570L420 569L420 568L420 567L420 566L420 565L420 564L420 563L420 562L420 561L420 560L420 559L420 558L420 557L420 556L420 555L420 554L420 553L420 552L420 551L420 550L420 549L420 548L420 547L420 546L419 540M421 540L421 544L421 545L421 546L421 547L421 548L421 549L421 550L421 551L421 552L421 553L421 554L421 555L421 556L421 557L421 558L421 559L421 560L421 561L421 562L421 563L421 564L421 565L421 566L421 567L421 568L421 569L421 570L421 571L421 572L421 573L421 574L421 575L421 576L421 577L421 578L421 579L421 580L421 581L421 582L421 583L421 584L421 585L421 586L421 587L421 588L421 589L421 590L421 591L421 592L421 593L421 594L421 595L421 596L421 597L421 598L421 599L421 600L421 601L421 602L421 603L421 608L430 608L430 604L430 603L430 602L430 601L430 600L430 599L430 598L430 597L430 596L430 595L430 594L430 593L430 592L430 591L430 590L430 589L430 588L430 587L430 586L430 585L430 584L430 583L430 582L430 581L430 580L430 579L430 578L430 577L430 576L430 575L430 574L430 573L430 572L430 571L430 570L430 569L430 568L430 567L430 566L430 565L430 564L430 563L430 562L430 561L430 560L430 559L430 558L430 557L430 556L430 555L430 554L430 553L430 552L430 551L430 550L430 549L430 548L430 547L430 546L430 545L430 540L421 540M450 540L450 544L450 545L450 546L450 547L450 548L450 549L450 550L450 551L450 552L450 553L450 554L450 555L450 556L450 557L450 558L450 559L450 560L450 561L450 562L450 563L450 564L450 565L450 566L450 567L450 568L450 569L450 570L450 571L450 572L450 573L450 574L450 575L450 576L450 577L450 578L450 579L450 580L450 581L450 582L450 583L450 584L450 585L450 586L450 587L450 588L450 589L450 590L450 591L450 592L450 593L450 594L450 595L450 596L450 597L450 598L450 599L450 600L450 601L450 602L450 603L450 608L451 608L451 605L451 601L451 600L451 599L451 598L451 597L451 596L451 595L451 594L451 593L451 592L451 591L451 590L451 589L451 588L451 587L451 586L451 585L451 584L451 583L451 582L451 581L451 580L451 579L451 578L451 577L451 576L451 575L451 574L451 573L451 572L451 571L451 570L451 569L451 568L451 567L451 566L451 565L451 564L451 563L451 562L451 561L451 560L451 559L451 558L451 557L451 556L451 555L451 554L451 553L451 552L451 551L451 550L451 549L451 548L451 547L451 546L450 540M501 540L501 544L501 545L501 546L501 547L501 548L501 549L501 550L501 551L501 552L501 553L501 554L501 555L501 556L501 557L501 558L501 559L501 560L501 561L501 562L501 563L501 564L501 565L501 566L501 567L501 568L501 569L501 570L501 571L501 572L501 573L501 574L501 575L501 576L501 577L501 578L501 579L501 580L501 581L501 582L501 583L501 584L501 585L501 586L501 587L501 588L501 589L501 590L501 591L501 592L501 593L501 594L501 595L501 596L501 597L501 598L501 599L501 600L501 601L501 602L501 603L501 608L505 608L505 604L505 603L505 602L505 601L505 600L505 599L505 598L505 597L505 596L505 595L505 594L505 593L505 592L505 591L505 590L505 589L505 588L505 587L505 586L505 585L505 584L505 583L505 582L505 581L505 580L505 579L505 578L505 577L505 576L505 575L505 574L505 573L505 572L505 571L505 570L505 569L505 568L505 567L505 566L505 565L505 564L505 563L505 562L505 561L505 560L505 559L505 558L505 557L505 556L505 555L505 554L505 553L505 552L505 551L505 550L505 549L505 548L505 547L505 546L505 545L505 540L501 540M272 677L272 681L272 682L272 683L272 684L272 685L272 686L272 687L272 688L272 689L272 690L272 691L272 692L272 693L272 694L272 695L272 696L272 697L272 698L272 699L272 700L272 701L272 702L272 703L272 704L272 705L272 706L272 707L272 708L272 709L272 710L272 711L272 712L272 713L272 714L272 715L272 716L272 717L272 718L272 719L272 720L272 721L272 722L272 723L272 724L272 725L272 726L272 727L272 728L272 729L272 730L272 731L272 732L272 733L272 734L272 735L272 736L272 737L272 738L272 739L272 740L272 745L275 745L275 744L275 740L275 739L275 738L275 737L275 736L275 735L275 734L275 733L275 732L275 731L275 730L275 729L275 728L275 727L275 726L275 725L275 724L275 723L275 722L275 721L275 720L275 719L275 718L275 717L275 716L275 715L275 714L275 713L275 712L275 711L275 710L275 709L275 708L275 707L275 706L275 705L275 704L275 703L275 702L275 701L275 700L275 699L275 698L275 697L275 696L275 695L275 694L275 693L275 692L275 691L275 690L275 689L275 688L275 687L275 686L275 685L275 684L275 683L275 682L275 681L275 677L272 677z"/>
</svg>
