<?xml version="1.0" standalone="yes"?>
<svg width="900" height="900">
<path style="fill:#040404; stroke:none;" d="M419 134L359 143.87L334.637 147.988L326.579 164L310 208L347 199C340.538 222.625 330.82 244.632 326.424 269C314.685 334.086 327.141 411.779 385 452.279C425.301 480.488 500.19 467.913 520.525 523C522.43 528.158 517.222 533.168 514.37 537C507.181 546.662 492.645 557.209 488.121 568C486.365 572.189 489.771 577.926 490.844 582C493.042 590.342 493.994 599.395 494 608C504.308 604.035 513.817 594.314 522 587.05C539.753 571.292 555.528 553.585 573.093 537.674C578.967 532.354 584.605 526.876 591 522.156C593.532 520.287 597.985 518.294 598.498 514.816C599.036 511.158 596.478 506.4 595.333 503C591.626 492 586.745 480.968 580.799 471C578.938 467.879 576.086 460.47 571.907 460.037C564.004 459.218 551.923 478.856 549 485L547 485C533.002 457.578 500.951 438.67 472 431.475C455.316 427.329 438.035 427.434 422 420.573C398.99 410.726 381.451 390.491 371.312 368C347.119 314.335 362.012 252.307 384.861 201C392.184 184.557 400.896 168.599 409.85 153C412.778 147.9 419.985 140.028 419 134z"/>
</svg>
