<?xml version="1.0" standalone="yes"?>
<svg width="900" height="900">
<path style="fill:#010101; stroke:none;" d="M308 205L309 206L308 205M321 205L322 206L321 205M332 205L333 206L332 205M345 205L346 206L345 205M358 205L359 206L358 205M371 205L372 206L371 205M384 205L385 206L384 205M397 205L398 206L397 205M410 205L411 206L410 205M487 205L488 206L487 205M500 205L501 206L500 205M513 205L514 206L513 205M526 205L527 206L526 205M540 205L541 206L540 205M553 205L554 206L553 205M566 205L567 206L566 205M285 206L286 207L285 206M301 206L302 207L301 206M314 206L315 207L314 206M327 206L328 207L327 206M340 206L341 207L340 206M353 206L354 207L353 206M366 206L367 207L366 206M382 206L383 207L382 206M395 206L396 207L395 206M408 206L409 207L408 206M421 206L422 207L421 206M434 206L435 207L434 206M464 206L465 207L464 206M477 206L478 207L477 206M490 206L491 207L490 206M503 206L504 207L503 206M516 206L517 207L516 206M531 206L532 207L531 206M544 206L545 207L544 206M557 206L558 207L557 206M305 209L306 210L305 209M321 209L322 210L321 209M336 209L337 210L336 209M352 209L353 210L352 209M367 209L368 210L367 209M385 209L386 210L385 209M401 209L402 210L401 209M416 209L417 210L416 209M432.333 209.667L432.667 210.333L432.333 209.667M466.333 209.667L466.667 210.333L466.333 209.667M481 209L482 210L481 209M497 209L498 210L497 209M512 209L513 210L512 209M530 209L531 210L530 209M546 209L547 210L546 209M561 209L562 210L561 209M311 210L312 211L311 210M329 210L330 211L329 210M347 210L348 211L347 210M362 210L363 211L362 210M380 210L381 211L380 210M398 210L399 211L398 210M414 210L415 211L414 210M484 210L485 211L484 210M499 210L500 211L499 210M517 210L518 211L517 210M535 210L536 211L535 210M551 210L552 211L551 210M569 210L570 211L569 210M298 213L299 214L298 213M320 213L321 214L320 213M341 213L342 214L341 213M363 213L364 214L363 213M384 213L385 214L384 213M406 213L407 214L406 213M427 213L428 214L427 213M471 213L472 214L471 213M491 213L492 214L491 213M514 213L515 214L514 213M534 213L535 214L534 213M557 213L558 214L557 213M308 214L309 215L308 214M331 214L332 215L331 214M354 214L355 215L354 214M379 214L380 215L379 214M402 214L403 215L402 214M424 214L425 215L424 214M473 214L474 215L473 214M496 214L497 215L496 214M519 214L520 215L519 214M544 214L545 215L544 214M567 214L568 215L567 214M315 217L316 218L315 217M350 217L351 218L350 217M382 217L383 218L382 217M415 217L416 218L415 217M483 217L484 218L483 217M515 217L516 218L515 217M548 217L549 218L548 217M582 217L583 218L582 217M293 218L294 219L293 218M333 218L334 219L333 218M370 218L371 219L370 218M410 218L411 219L410 218M488 218L489 219L488 218M527 218L528 219L527 218M565 218L566 219L565 218M311 219L312 220L311 219M356 219L357 220L356 219M403 219L404 220L403 219M495 219L496 220L495 219M542 219L543 220L542 219M334 220L335 221L334 220M391 220L392 221L391 220M507 220L508 221L507 220M564 220L565 221L564 220M371 221L372 222L371 221M526 221L527 222L526 221M335 222L336 223L335 222M563 222L564 223L563 222M285 224L287 227L287 224L285 224M289 224L291 227L291 224L289 224M293 224L295 227L295 224L293 224M297 224L317 255L327.093 267.972L342 269L375 269L495 269L531 269L546.787 267.972L554 257L571 224L297 224M574.333 224.667L574.667 225.333L574.333 224.667M578.333 224.667L578.667 225.333L578.333 224.667M582.333 224.667L582.667 225.333L582.333 224.667M290 230L291 231L290 230M294 230L294 233L295 233L294 230M298 230L298 233L299 233L298 230M285 231L286 232L285 231M574.333 231.667L574.667 232.333L574.333 231.667M290 232L291 233L290 232M286 233L287 234L286 233M300 233L300 236L301 236L300 233M569 233L549 269C556.573 264.369 561.062 250.625 565.421 243C567.225 239.845 569.612 236.681 569 233M293 234L294 235L293 234M578 235L579 236L578 235M293 236L294 237L293 236M297 236L298 237L297 236M302 236L303 237L302 236M289 237L291 239L289 237M299 237L299 240L300 240L299 237M570 237L571 238L570 237M573 237L572 239L573 237M582.333 237.667L582.667 238.333L582.333 237.667M589 237L588 239L589 237M599.333 237.667L599.667 238.333L599.333 237.667M602 237L603 238L602 237M286 238L287 239L286 238M302 238L304 240L302 238M579 238L577 242L578 242L579 238M595 238L596 239L595 238M570 239L571 240L570 239M285 240L287 242L285 240M294 240L295 241L294 240M301 240L302 241L301 240M298 241L299 242L298 241M304 241L306 243L304 241M569 241L571 243L569 241M574.333 241.667L574.667 242.333L574.333 241.667M580 241L579 243L580 241M586 241L587 242L586 241M593 241L592 243L593 241M599 241L600 242L599 241M602 241L601 243L602 241M606 241L607 242L606 241M289 242L291 244L289 242M293 242L295 244L293 242M301 242L303 244L301 242M567 242L568 246L569 246L570 245L570 244L567 242M583 242L582 244L583 242M596 242L597 243L596 242M614 242L615 243L614 242M298 243L297 244L300 247L298 243M299 244L298 245L299 244M306 244L308 246L306 244M569 244L568 245L569 244M578 244L577 246L578 244M286 245L287 246L286 245M289 245L291 247L289 245M303 245L305 247L303 245M572 245L571 247L572 245M581 245L580 247L581 245M590 245L589 247L590 245M594 245L593 247L594 245M599 245L598 247L599 245M309 246L310 247L309 246M566 246L568 248L566 246M574 246L575 247L574 246M583 246L584 247L583 246M602 246L603 247L602 246M293 247L295 249L293 247M297 247L298 248L297 247M301 247L301 250L302 250L301 247M306 247L307 248L306 247M285 248L287 250L285 248M303 248L304 249L303 248M309 248L310 249L309 248M565 248L567 250L565 248M570 248L571 249L570 248M298 249L301 252L298 249M306 249L307 250L306 249M311 249L312 250L311 249M563 249L565 255L562 253L564 257L562 255L561 255L553 269L554 269L556 266L556 269L559 269C558.47 266.351 558.572 265.393 561 266L560 263L562 264C561.47 261.351 561.572 260.393 564 261L563 258L565 259C564.47 256.351 564.572 255.393 567 256L566 253L569 253L569 252L563 249M572 249L573 250L572 249M575 249L574 251L575 249M581 249L582 250L581 249M587 249L588 250L587 249M591 249L590 251L591 249M596 249L597 250L596 249M600 249L598 252L600 249M606 249L607 250L606 249M290 250L291 251L290 250M293 250L294 251L293 250M303 250L304 254L305 254L303 250M308 250L309 251L308 250M569 250L570 251L569 250M578 250L577 252L578 250M584 250L583 252L584 250M593 250L592 252L593 250M614 250L615 251L614 250M285 251L286 252L285 251M311 251L313 253L311 251M565 251L566 253L565 251M571 251L572 252L571 251M586 251L585 253L586 251M601 251L600 253L601 251M297 252L298 253L297 252M308 252L310 254L308 252M568 252L567 253L568 252M573 252L572 254L573 252M579 252L580 253L579 252M589 252L588 254L589 252M594 252L593 254L594 252M606 252L607 253L606 252M289 253L291 255L289 253M301 253L304 256L301 253M576 253L575 255L576 253M582 253L581 255L582 253M597 253L595 256L597 253M614 253L615 254L614 253M306 254L307 255L306 254M313 254L315 256L313 254M569 254L570 255L569 254M584 254L583 256L584 254M590 254L589 256L590 254M602 254L603 255L602 254M294 255L295 256L294 255M299 255L302 258L299 255M308 255L309 256L308 255M571 255L572 256L571 255M577 255L578 256L577 255M598 255L596 258L598 255M610 255L611 256L610 255M289 256L291 258L289 256M306 256L308 258L306 256M311 256L312 257L311 256M562 256L557 267L562 256M568 256L567 258L568 256M574 256L573 258L574 256M580 256L579 258L580 256M586 256L585 258L586 256M591 256L590 258L591 256M313 257L314 258L313 257M561 257L562 258L561 257M602 257L603 258L602 257M614 257L615 258L614 257M293 258L295 260L293 258M299 258L301 260L299 258M305 258L306 259L305 258M309 258L309 261L310 261L309 258M316 258L317 259L316 258M569 258L570 259L569 258M575 258L576 259L575 258M581 258L582 259L581 258M587 258L588 259L587 258M593 258L594 259L593 258M599 258L598 260L599 258M610 258L611 259L610 258M313 259L315 261L313 259M560 259L561 260L560 259M566 259L567 260L566 259M572 259L573 260L572 259M578 259L577 261L578 259M584 259L583 261L584 259M589 259L588 261L589 259M289 260L290 261L289 260M298 260L300 262L298 260M303 260L305 262L303 260M568 260L569 261L568 260M594 260L593 262L594 260M600 260L599 262L600 260M614 260L615 261L614 260M293 261L295 263L293 261M311 261L312 265L313 265L311 261M318 261L319 262L318 261M559 261L560 262L559 261M565 261L564 263L565 261M573 261L574 262L573 261M579 261L580 262L579 261M585 261L584 263L585 261M302 262L304 264L302 262M308 262L309 263L308 262M570 262L571 263L570 262M576 262L575 264L576 262M590 262L591 263L590 262M596 262L595 264L596 262M610 262L611 263L610 262M289 263L290 264L289 263M297 263L299 265L297 263M316 263L317 264L316 263M566 263L567 264L566 263M581 263L582 264L581 263M586 263L585 265L586 263M600 263L599 265L600 263M614 263L615 264L614 263M306 264L308 266L306 264M320 264L325 269L320 264M557 264L558 265L557 264M563 264L564 265L563 264M571 264L572 265L571 264M577 264L578 265L577 264M591 264L590 266L591 264M285 265L286 266L285 265M293 265L295 267L293 265M302 265L304 267L302 265M314 265L315 266L314 265M568 265L569 266L568 265M574 265L573 267L574 265M582 265L583 266L582 265M596 265L595 267L596 265M289 266L291 268L289 266M311 266L312 267L311 266M318 266L321 269L318 266M564 266L565 267L564 266M579 266L580 267L579 266M587 266L588 267L587 266M298 267L300 269L298 267M306 267L308 269L306 267M314 267L316 269L314 267M561 267L562 268L561 267M569 267L570 268L569 267M575 267L574 269L575 267M583 267L582 269L583 267M592 267L591 269L592 267M600 267L599 269L600 267M566 268L567 269L566 268M571 269L572 270L571 269M579 269L580 270L579 269M587 269L588 270L587 269M595 269L596 270L595 269M604 269L603 271L604 269M612 269L610 272L612 269M620 269L619 271L620 269M630 270L630 271L634 270L630 270M576 270L577 271L576 270M584 270L585 271L584 270M592 270L591 272L592 270M298 271L300 273L298 271M307 271L308 272L307 271M317 271L318 272L317 271M326 271L327 272L326 271M545 271L546 272L545 271M553 271L554 272L553 271M561 271L562 272L561 271M572 271L573 272L572 271M580 271L581 272L580 271M599 271L598 273L599 271M310 272L311 273L310 272M319 272L320 273L319 272M359 272L360 273L359 272M538 272L539 273L538 272M547 272L548 273L547 272M558 272L559 273L558 272M569 272L570 273L569 272M577 272L578 273L577 272M588 272L589 273L588 272M606 272L605 274L606 272M584 273L585 274L584 273M595 273L596 274L595 273M616 273L617 274L616 273M626 274L626 275L634 274L626 274M581 274L582 275L581 274M591 274L592 275L591 274M602 274L601 276L602 274M613 274L614 275L613 274M286 275L287 276L286 275M297 275L298 276L297 275M310 275L311 276L310 275M320 275L321 276L320 275M344 275L346 277L344 275M377.333 275.667L377.667 276.333L377.333 275.667M414.333 275.667L414.667 276.333L414.333 275.667M484.333 275.667L484.667 276.333L484.333 275.667M520.333 275.667L520.667 276.333L520.333 275.667M543 275L544 276L543 275M552.333 275.667L552.667 276.333L552.333 275.667M554 275L555 276L554 275M567 275L568 276L567 275M577 275L578 276L577 275M588 275L589 276L588 275M300 276L301 277L300 276M313 276L314 277L313 276M322 276L323 277L322 276M326 276L327 277L326 276M361 276L362 277L361 276M391 276L392 277L391 276M421 276L422 277L421 276M477 276L478 277L477 276M507 276L508 277L507 276M536 276L537 277L536 276M548 276L549 277L548 276M561 276L562 277L561 276M574 276L575 277L574 276M585 276L586 277L585 276M598 276L599 277L598 276M581 277L582 278L581 277M594 277L593 279L594 277M607 277L606 279L607 277M622 278L622 279L634 278L622 278M308 279L309 280L308 279M323 279L324 280L323 279M328 279L328 281L330 281L328 279M340 279L341 280L340 279M353 279L355 281L353 279M373.333 279.667L373.667 280.333L373.333 279.667M376.333 279.667L376.667 280.333L376.333 279.667M392.333 279.667L392.667 280.333L392.333 279.667M412.333 279.667L412.667 280.333L412.333 279.667M486.333 279.667L486.667 280.333L486.333 279.667M506.333 279.667L506.667 280.333L506.333 279.667M522.333 279.667L522.667 280.333L522.333 279.667M525.333 279.667L525.667 280.333L525.333 279.667M543 279L544 280L543 279M559 279L560 280L559 279M574 279L575 280L574 279M590 279L591 280L590 279M314 280L315 281L314 280M325 280L326 281L325 280M332 280L333 281L332 280M347 280L348 281L347 280M363 280L364 281L363 280M379 280L380 281L379 280M399 280L400 281L399 280M415 280L416 281L415 280M431 280L432 281L431 280M467 280L468 281L467 280M483 280L484 281L483 280M499 280L500 281L499 280M518 280L519 281L518 280M534 280L535 281L534 280M549 280L550 281L549 280M551 280L552 281L551 280M569 280L570 281L569 280M584 280L585 281L584 280M602 280L603 281L602 280M581 281L582 282L581 281M598 281L599 282L598 281M607 293L608 290L583 290L583 335L596 324L607 315L605 317L604 317L602 314C606.358 314.298 610.066 313.307 613 310L608 310C611.901 308.26 617.236 308.995 618 304C621.263 303.056 623.461 302.51 624 299L631 295L621 299L628 295L629 294L628 292L634 287L615 300L606 308C606 312.203 592.133 322.804 588 324L588 323C591.679 321.285 599.667 316.501 598 312L619 296L628 288L629 287L628 285L633 281C620.279 281.919 616.455 283.545 607 293M575 282L576 283L575 282M595 282L596 283L595 282M622 282C612.976 294.81 596.8 309.983 584 319C593.332 305.753 608.759 291.327 622 282M626 282C615.682 295.492 598.889 311.216 585 321C594.601 307.371 611.876 290.835 626 282M629 282L600.218 310.08L588 321C597.772 307.128 615.138 291.764 629 282M592 283L593 284L592 283M588 284L589 285L588 284M633 284L632 286L633 284M580 285L581 286L580 285M572 286L573 287L572 286M628 286L627 287L628 286M626 289L625 291L626 289M571 290L571 315L572 315L574 290L571 290M575 290L575 301L576 301L578 290L575 290M579 290L579 316C584.529 310.626 581.2 297.351 582 290L579 290M633 291L631 294L633 291M624 292L623 294L624 292M573 293L572 294L573 293M577 293L576 294L577 293M581 293L580 294L581 293M628 293L627 294L628 293M573 295L572 296L573 295M577 295L576 296L577 295M581 295L580 296L581 295M581 297L580 298L581 297M617 297L616 299L617 297M573 298L572 299L573 298M581 299L580 300L581 299M621 299L624 300L624 301L618 306L617 307L611 308L621 299M573 300L572 301L573 300M620 300L619 302L620 300M577 301L578 302L577 301M581 301L580 302L581 301M573 302L572 303L573 302M575 302L576 303L575 302M627 302L624 306L627 302M577 303L578 304L577 303M581 303L580 304L581 303M575 304L576 305L575 304M615 304L613 307L617 306L615 304M628 304L625 308L628 304M577 305L575 320C578.238 317.142 579.061 308.961 577 305M581 305L580 306L581 305M608 305L607 307L608 305M581 307L580 308L581 307M621 307L618 311L621 307M573 308L572 309L573 308M623 308L620 312L623 308M577 309L576 310L577 309M581 309L580 310L581 309M608 310L609 311L609 312L608 313L604 314L608 310M577 311L576 312L577 311M581 311L580 312L581 311M607 311L608 312L607 311M611 311L610 312L611 311M615 312L613 315L615 312M577 313L576 314L577 313M581 313L580 314L581 313M596 313L590 320L596 313M617 313L615 316L617 313M624 314L622 317L624 314M629 314L627 317L629 314M573 315L571 324C573.559 321.742 574.669 318.209 573 315M577 315L576 316L577 315M602 315L603 316L603 317L602 318L590 326L602 315M619 315L616 319L619 315M601 316L602 317L601 316M573 317L572 318L573 317M577 317L576 318L577 317M609 317L607 320L609 317M612 317L610 320L612 317M620 317L618 320L620 317M625 317L623 320L625 317M573 319L572 320L573 319M614 319L612 322L614 319M581 320L579 323L581 320M600 320L598 323L600 320M621 320L619 323L621 320M573 321L572 322L573 321M615 321L614 323L615 321M603 322L602 324L603 322M606 322L605 324L606 322M622 322L620 325L622 322M626 322L621 327L626 322M609 323L607 326L609 323M617 323L615 326L617 323M577 324L575 327L577 324M588 324L584 328L588 324M611 324L610 326L611 324M594 325L592 328L594 325M618 325L616 328L618 325M601 326L600 328L601 326M613 326L611 329L613 326M597 327L598 328L597 327M604 327L603 329L604 327M619 327L618 329L619 327M573 328L571 331L573 328M606 328L605 330L606 328M614 328L613 330L614 328M623 328L622 330L623 328M581 329L579 333L580 333L581 329M589 329L589 330L584 333L589 329M609 329L607 332L609 329M596 330L595 332L596 330M615 330L614 332L615 330M620 330L619 332L620 330M630 330L629 332L630 330M599 331L598 333L599 331M602 331L601 333L602 331M610 331L609 333L610 331M591 332L592 333L591 332M612 332L611 334L612 332M617 332L615 335L617 332M627 332L626 334L627 332M604 333L605 334L604 333M577 334L575 337L577 334M581 334C576.16 343.07 584.59 361.266 573 365L575 368L571 366L573 369L567 369L567 370L573 372L561 373L561 374L568 375L567 373L568 373L573 376L573 377L570 376L565 379L569 377L569 376L564 376L563 377L563 376L557 377L541 389L541 376C529.949 376 524.199 375.83 516 384L518 376L495 396L484 394L490 387C489.47 384.351 489.572 383.393 492 384L491 381L494 381L494 376L493 376L489 385L404 384L402 382L403 379L400 379L401 376L400 376L399 379L398 379L397 376L392 376L394 379L395 379L397 377L397 383L398 383L398 380L400 387L401 387L401 384L402 388L407 394L393 393.397L380 386C379.065 380.526 374.4 376.893 369 376L370 389L361 383L363 386L358 384L358 385L367 392L360 388L362 391L348 381C345.351 381.53 344.393 381.428 345 379C342.351 379.53 341.393 379.428 342 377L336 376L337 413L327 410L327 411L337 416C326.699 413.617 316.726 408.038 306 410L306 409L308 409L308 408L299 410L299 411L306 410L306 411L300 412L300 413L313 410L313 411L304 413L304 414L313 412L313 413L308 414L308 415L320 412L320 413L312 415L312 416L323 413L323 414L317 416L317 417L327 414L327 415L321 417L321 418L330 415L330 416L325 418L325 419L334 416L334 417L329 419L329 420L337 417L337 418L333 420L333 421L337 420L337 428L579 428L579 431L469 431L469 432L579 432L579 435L463 435L463 436L579 436L579 439L461 439L461 440L579 440L579 445L581 445L581 367L581 334M606 334L607 335L606 334M624 334L623 336L624 334M590 335L591 336L590 335M594 335L595 336L594 335M597 335L598 336L597 335M608 335L607 337L608 335M613 335L612 337L613 335M600 336L601 337L600 336M603 336L602 338L603 336M621 336L620 338L621 336M572 337L571 339L572 337M605 337L604 339L605 337M610 337L609 339L610 337M614 337L613 339L614 337M593 338L594 339L593 338M618 338L617 340L618 338M622 338L621 340L622 338M585 339L586 340L585 339M589 339L590 340L589 339M596 339L597 340L596 339M599 339L598 341L599 339M611 339L610 341L611 339M625 339L622 341L622 342L626 340L625 339M601 340L602 341L601 340M606 340L607 341L606 340M615 340L616 341L615 340M619 340L618 342L619 340M573 341L572 343L573 341M608 341L607 343L608 341M628 341L625 343L625 344L629 342L628 341M592 342L593 343L592 342M595 342L596 343L595 342M603 342L604 343L603 342M612 342L613 343L612 342M616 342L617 343L616 342M620 342L619 344L620 342M597 343L598 344L597 343M605 343L604 345L605 343M614 343L613 345L614 343M600 344L601 345L600 344M609 344L610 345L609 344M617 344L614 346L614 347L618 345L617 344M623 344L620 346L620 347L624 345L623 344M588 345L589 346L588 345M591 345L592 346L591 345M594 345L595 346L594 345M602 345L601 347L602 345M611 345L610 347L611 345M571 346L572 347L571 346M606 346L607 347L606 346M596 347L597 348L596 347M599 347L598 349L599 347M608 347L607 349L608 347M612 347L611 349L612 347M618 347L617 349L618 347M584 348L585 349L584 348M603 348L604 349L603 348M621 348L618 350L618 351L622 349L621 348M572 349L571 351L572 349M593 349L594 350L593 349M605 349L606 350L605 349M609 349L610 350L609 349M615 349L616 350L615 349M626 349L621 352L621 353L627 350L626 349M587 350L588 351L587 350M595 350L596 351L595 350M600 350L601 351L600 350M613 350L612 352L613 350M590 351L591 352L590 351M602 351L603 352L602 351M606 351L607 352L606 351M616 351L617 352L616 351M592 352L593 353L592 352M604 352L605 353L604 352M610 352L611 353L610 352M614 352L613 354L614 352M599 353L600 354L599 353M608 353L607 355L608 353M619 353L620 354L619 353M624 353L625 354L624 353M589 354L590 355L589 354M597 354L598 355L597 354M601 354L602 355L601 354M611 354L612 355L611 354M617 354L614 356L614 357L618 355L617 354M622 354L623 355L622 354M573 355L571 358L573 355M605 355L606 356L605 355M609 355L610 356L609 355M620 355L617 357L617 358L621 356L620 355M586 356L587 357L586 356M594 356L595 357L594 356M598 356L599 357L598 356M603 356L604 357L603 356M596 357L597 358L596 357M606 357L607 358L606 357M612 357L613 358L612 357M583 358L584 359L583 358M591 358L592 359L591 358M600 358L601 359L600 358M604 358L605 359L604 358M610 358L611 359L610 358M615 358L616 359L615 358M593 359L594 360L593 359M602 359L603 360L602 359M608 359L607 361L608 359M613 359L614 360L613 359M631 359L632 360L631 359M611 360L612 361L611 360M618 360L619 361L618 360M629 360L630 361L629 360M595 361L596 362L595 361M599 361L600 362L599 361M605 361L606 362L605 361M609 361L610 362L609 361M616 361L617 362L616 361M627 361L628 362L627 361M588 362L589 363L588 362M597 362L598 363L597 362M603 362L604 363L603 362M614 362L615 363L614 362M625 362L626 363L625 362M601 363L602 364L601 363M606 363L607 364L606 363M612 363L613 364L612 363M623 363L624 364L623 363M336 364L340 367L336 364M344 364L346 366L344 364M347 364L348 365L347 364M357 364L359 366L357 364M380 364L381 365L380 364M387 366L392 367L387 366M408 364L409 365L408 364M428 364L428 367L429 367L428 364M470 364L470 367L471 367L470 364M489 364L490 365L489 364M501 364L502 365L501 364M517 364L518 365L517 364M523 364L523 367L524 367L523 364M526 364L527 365L526 364M529 364L527 367L529 364M534 367L544 367L544 364L534 367M547 364L548 365L547 364M557 364L558 365L557 364M561 364L559 367L561 364M565 364L566 365L565 364M590 364L591 365L590 364M604 364L605 365L604 364M610 364L611 365L610 364M621 364L622 365L621 364M317 365L318 366L317 365M321 365L322 366L321 365M329 365L330 366L329 365M390 365L389 366L390 365M399 365L401 367L399 365M415.333 365.667L415.667 366.333L415.333 365.667M431.333 365.667L431.667 366.333L431.333 365.667M467.333 365.667L467.667 366.333L467.333 365.667M483.333 365.667L483.667 366.333L483.333 365.667M498 365L498 367L500 365L498 365M511 365L512 366L511 365M514 365L513 367L514 365M521 365L520 367L521 365M567 365L566 367L567 365M575 365L574 366L575 365M592 365L593 366L592 365M598 365L599 366L598 365M602 365L603 366L602 365M608 365L607 367L608 365M619 365L620 366L619 365M350 366L351 367L350 366M353 366L354 367L353 366M409 366L410 367L409 366M422 366L423 367L422 366M434 366L435 367L434 366M463 366L464 367L463 366M476 366L477 367L476 366M488 366L489 367L488 366M495 366L496 367L495 366M506 366L507 367L506 366M554 366L555 367L554 366M562 366L563 367L562 366M596 366L597 367L596 366M600 366L601 367L600 366M617 366L618 367L617 366M579 367L579 368L574 370L574 371L579 371L579 372L574 374L574 375L579 375L579 376L541 396L538 394L538 393L541 390L538 391L538 390L558 379.532L575 377L575 376L572 375L575 373L572 371L579 367M585 367L586 368L585 367M594 367L595 368L594 367M605 367L606 368L605 367M615 367L616 368L615 367M322 368L323 369L322 368M336 368C336.654 371.054 338.007 370.936 341 371L341 370L340 368L336 368M341 368L343 370L341 368M349 368L351 370L349 368M352 368L353 369L352 368M355 368L356 369L355 368M359 368L361 370L359 368M369 369L369 371L393 371C388.059 366.508 375.569 369 369 369M397 368L399 370L397 368M401 368L402 369L401 368M410 368L411 369L410 368M419.333 368.667L419.667 369.333L419.333 368.667M429 368L429 371L430 371L429 368M438 368L438 371L439 371L438 368M460 368L460 371L461 371L460 368M469 368L469 371L470 371L469 368M478.333 368.667L478.667 369.333L478.333 368.667M487 368L488 369L487 368M498 369L498 371C504.545 371 514.128 372.975 519 368L512 368L498 369M521 368L519 371L521 368M525 368L523 371L525 368M530 371C534.889 371 539.39 371.686 543 368C538.111 368 533.61 367.314 530 371M556 368L557 369L556 368M563 368L564 369L563 368M603 368L604 369L603 368M613 368L614 369L613 368M318 369L319 370L318 369M346 369L348 371L346 369M391 369L390 370L391 369M404 369L405 370L404 369M414 369L415 370L414 369M423.333 369.667L423.667 370.333L423.333 369.667M475.333 369.667L475.667 370.333L475.333 369.667M484 369L485 370L484 369M558 369L559 370L558 369M601 369L602 370L601 369M606 369L607 370L606 369M611 369L612 370L611 369M618 369L619 370L618 369M325 370L326 371L325 370M402 370L403 371L402 370M411 370L412 371L411 370M417 370L418 371L417 370M432 370L433 371L432 370M466 370L467 371L466 370M481 370L482 371L481 370M486 370L487 371L486 370M549 370L550 371L549 370M560 370L561 371L560 370M565 370L566 371L565 370M589 370L590 371L589 370M593 370L594 371L593 370M599 370L600 371L599 370M604 370L605 371L604 370M609 370L610 371L609 370M616 370L617 371L616 370M622 370L623 371L622 370M587 371L588 372L587 371M591 371L592 372L591 371M597 371L598 372L597 371M602 371L603 372L602 371M607 371L608 372L607 371M614 371L615 372L614 371M615 373L615 374L621 372L615 373M336 372C336.654 375.054 338.007 374.936 341 375L341 374L340 372L336 372M341 372L342 373L341 372M346 372L347 373L346 372M354 372L355 373L354 372M357 372L359 374L357 372M369 372L372 375L369 372M391 372L391 373L394 375L395 375L394 372L391 372M397 372L397 375L398 375L397 372M400 372L401 373L400 372M406 372L407 373L406 372M412 372L413 373L412 372M418.333 372.667L418.667 373.333L418.333 372.667M424.333 372.667L424.667 373.333L424.333 372.667M430.333 372.667L430.667 373.333L430.333 372.667M435 372L435 375L436 375L435 372M441 372L441 375L442 375L441 372M456 372L456 375L457 375L456 372M462 372L462 375L463 375L462 372M468.333 372.667L468.667 373.333L468.333 372.667M474.333 372.667L474.667 373.333L474.333 372.667M480.333 372.667L480.667 373.333L480.333 372.667M485 372L486 373L485 372M491 372L490 375L491 372M494 372L494 375L497 372L494 372M517 372L514 374L514 375L517 372M521 372L519 375L521 372M526 375L541 375L541 372C535.654 372 529.974 370.942 526 375M554 372L555 373L554 372M557 372L556 374L557 372M595 372L596 373L595 372M600 372L601 373L600 372M612 372L613 373L612 372M626 372L627 373L626 372M317 373L318 374L317 373M321 373L322 374L321 373M333 373L334 374L333 373M351 373L353 375L351 373M361 373L363 375L361 373M404 373L405 374L404 373M410 373L411 374L410 373M488 373L489 374L488 373M598 373L599 374L598 373M610 373L611 374L610 373M621 374L621 375L625 374L621 374M342 374L343 375L342 374M344 374L345 375L344 374M347 374L348 375L347 374M349 374L350 375L349 374M401 374L402 375L401 374M407 374L408 375L407 374M416 374L417 375L416 374M421 374L422 375L421 374M427 374L428 375L427 374M470 374L471 375L470 374M476 374L477 375L476 374M482 374L483 375L482 374M548 374L549 375L548 374M551 374L552 375L551 374M596 374L597 375L596 374M608 374L609 375L608 374M613 374L614 375L613 374M594 375L595 376L594 375M605 375L606 376L605 375M611 375L612 376L611 375M619 375L620 376L619 375M322 376L323 377L322 376M326 376L327 377L326 376M355 376L357 378L355 376M359 376L360 377L359 376M408 376L409 377L408 376M417 376L418 377L417 376M425 376L426 377L425 376M473 376L474 377L473 376M481 376L482 377L481 376M489 376L488 379L489 376M499 376L500 377L499 376M506 376L504 379L506 376M512 376L506 383L512 376M592 376L593 377L592 376M603 376L604 377L603 376M609 376L610 377L609 376M617 376L618 377L617 376M318 377L319 378L318 377M343 377L344 378L343 377M348 377L349 378L348 377M353 377L355 379L353 377M363 377L364 378L363 377M373 377L380 385L373 377M390 377L394 381L390 377M395 377L394 378L395 377M403 377L404 378L403 377M412 377L413 378L412 377M422 377L423 378L422 377M431 377L432 378L431 377M439.333 377.667L439.667 378.333L439.333 377.667M459.333 377.667L459.667 378.333L459.333 377.667M467 377L468 378L467 377M475 377L476 378L475 377M486 377L487 378L486 377M508 377L505 381L508 377M544 377L545 378L544 377M547 377L548 378L547 377M550 377L551 378L550 377M555 377L556 378L555 377M590 377L591 378L590 377M601 377L602 378L601 377M606.667 377.333L607.333 377.667L606.667 377.333M614.667 377.333L615.333 377.667L614.667 377.333M618 378L618 379L622 378L618 378M625 378L625 379L629 378L625 378M409 378L410 379L409 378M418 378L419 379L418 378M428 378L429 379L428 378M469 378L470 379L469 378M480 378L481 379L480 378M498 378L497 380L498 378M588 378L589 379L588 378M599 378L600 379L599 378M604 378L605 379L604 378M612 378L613 379L612 378M317 379L318 380L317 379M331 379L332 380L331 379M346 379L347 380L346 379M349 379L350 380L349 379M351 379L353 381L351 379M388 379L392 383L388 379M398 379L397 380L398 379M400 379L401 379L402 379L401 382L404 382L406 388L400 384L400 379M413 379L414 380L413 379M426 379L427 380L426 379M436 379L437 380L436 379M461 379L462 380L461 379M472 379L473 380L472 379M485 379L486 380L485 379M500 379L499 381L500 379M552 379L553 380L552 379M586 379L587 380L586 379M597 379L598 380L597 379M602 379L603 380L602 379M610 379L611 380L610 379M616 379L617 380L616 379M620 380L620 381L624 380L620 380M329 380L330 381L329 380M357 380L359 382L357 380M360 380L361 381L360 380M364 380L365 381L364 380M408 380L409 381L408 380M421 380L422 381L421 380M434 380L435 381L434 380M464 380L465 381L464 380M477 380L478 381L477 380M487 380L488 381L487 380M493 380L492 381L493 380M556 381L553 383L548 386L545 388L547 391L541 392L541 393C549.388 393.983 558.456 385.251 566 382L566 381L552 387L552 386L562 381L556 381M584 380L585 381L584 380M595 380L596 381L595 380M600 380L601 381L600 380M608 380L609 381L608 380M613.667 380.333L614.333 380.667L613.667 380.333M321 381L322 382L321 381M325 381L326 382L325 381M349 381L349 382L359 388L349 381M414 381L415 382L414 381M432 381L433 382L432 381M466 381L467 382L466 381M484 381L485 382L484 381M496 381L495 383L496 381M502 381L501 383L502 381M549 381L550 382L549 381M582 381L583 382L582 381M598 381L599 382L598 381M605 381L606 382L605 381M611 381L612 382L611 381M615 382L615 383L619 382L615 382M355 382L356 383L355 382M427 382L428 383L427 382M471 382L472 383L471 382M486 382L487 383L486 382M603 382L604 383L603 382M609 382L610 383L609 382M622 383L622 384L626 383L622 383M318 383L319 384L318 383M389 383L393 387L389 383M395 383L397 385L395 383M415 383L416 384L415 383M483 383L484 384L483 383M497 383L496 385L497 383M503 383L502 385L503 383M546 383L547 384L546 383M593 383L594 384L593 383M601 383L602 384L601 383M606.667 383.333L607.333 383.667L606.667 383.333M612.667 383.333L613.333 383.667L612.667 383.333M591 384L592 385L591 384M604 384L605 385L604 384M610 384L611 385L610 384M619.667 384.333L620.333 384.667L619.667 384.333M322 385L323 386L322 385M488 385L485 391L484 391L488 385M493 385L494 386L493 385M499 385L498 387L499 385M543 385L544 386L543 385M589 385L590 386L589 385M596 385L597 386L596 385M602 385L603 386L602 385M608 385L609 386L608 385M617 385L618 386L617 385M364 386L369 391L364 386M503 386L501 389L503 386M594 386L595 387L594 386M599 386L600 387L599 386M605 386L606 387L605 386M614.667 386.333L615.333 386.667L614.667 386.333M621.667 386.333L622.333 386.667L621.667 386.333M317 387L318 388L317 387M326 387L327 388L326 387M384 387L392 396L384 387M395 387L397 389L395 387M494 387L495 388L494 387M552 387L552 388L547 390L552 387M597 387L598 388L597 387M603 387L604 388L603 387M611.667 387.333L612.333 387.667L611.667 387.333M618.667 387.333L619.333 387.667L618.667 387.333M491 388L492 389L491 388M600 388L601 389L600 388M609 388L610 389L609 388M616 388L617 389L616 388M321 389L322 390L321 389M330 389L331 390L330 389M371 389L372 391L371 389M400 389L401 390L400 389M498 389L499 390L498 389M587 389L588 390L587 389M592 389L593 390L592 389M598 389L599 390L598 389M606.667 389.333L607.333 389.667L606.667 389.333M613.667 389.333L614.333 389.667L613.667 389.333M332 390L333 391L332 390M403 390L404 391L403 390M495 390L496 391L495 390M595 390L596 391L595 390M604 390L605 391L604 390M610.667 390.333L611.333 390.667L610.667 390.333M629.667 390.333L630.333 390.667L629.667 390.333M318 391L319 392L318 391M334 391L335 392L334 391M363 391L368 394L367 392L368 392L369 396L362 392L363 391M489 391L490 392L489 391M545 391L542 393L542 392L545 391M601 391L602 392L601 391M608 391L609 392L608 391M626.667 391.333L627.333 391.667L626.667 391.333M590 392L591 393L590 392M605 392L606 393L605 392M623.667 392.333L624.333 392.667L623.667 392.333M317 393L318 394L317 393M596 393L597 394L596 393M602 393L603 394L602 393M612.667 393.333L613.333 393.667L612.667 393.333M620.667 393.333L621.333 393.667L620.667 393.333M325 394L326 395L325 394M585 394L586 395L585 394M593 394L594 395L593 394M599 394L600 395L599 394M609.667 394.333L610.333 394.667L609.667 394.333M617.667 394.333L618.333 394.667L617.667 394.333M322 395L323 396L322 395M597 395L598 396L597 395M606.667 395.333L607.333 395.667L606.667 395.333M614 395L615 396L614 395M622.667 395.333L623.333 395.667L622.667 395.333M290 396L290 399L291 399L290 396M302.667 396.333L303.333 396.667L302.667 396.333M309.667 396.333L310.333 396.667L309.667 396.333M316 396L317 397L316 396M324 396L325 397L324 396M588 396L589 397L588 396M594 396L595 397L594 396M603.667 396.333L604.333 396.667L603.667 396.333M611 396L612 397L611 396M619.667 396.333L620.333 396.667L619.667 396.333M305.667 397.333L306.333 397.667L305.667 397.333M312 397L313 398L312 397M319 397L320 398L319 397M591 397L592 398L591 397M600.667 397.333L601.333 397.667L600.667 397.333M608 397L609 398L608 397M615 397L615 398L618 398L615 397M298 398L299 399L298 398M308 398L309 399L308 398M315 398L316 399L315 398M321 398L322 399L321 398M329 398L330 399L329 398M598 398L599 399L598 398M605 398L606 399L605 398M612.667 398.333L613.333 398.667L612.667 398.333M621 399L621 400L627 399L621 399M318 399L319 400L318 399M595 399L596 400L595 399M602 399L603 400L602 399M609.667 399.333L610.333 399.667L609.667 399.333M290 400L290 403L291 403L290 400M297 400L298 401L297 400M304 400L305 401L304 400M313.667 400.333L314.333 400.667L313.667 400.333M320 400L321 401L320 400M326 400L327 401L326 400M592 400L593 401L592 400M599 400L600 401L599 400M606.667 400.333L607.333 400.667L606.667 400.333M618.667 400.333L619.333 400.667L618.667 400.333M300 401L298 402L298 403L300 401M307 401L308 402L307 401M316.667 401.333L317.333 401.667L316.667 401.333M323 401L324 402L323 401M589 401L590 402L589 401M603 401L604 402L603 401M614 401L614 402L617 402L614 401M310 402L311 403L310 402M319 402L320 403L319 402M331 402L332 403L331 402M586 402L587 403L586 402M600 402L601 403L600 402M611.667 402.333L612.333 402.667L611.667 402.333M620 402L620 403L623 403L620 402M322 403L323 404L322 403M583 403L584 404L583 403M596 403L597 404L596 403M608 403L609 404L608 403M617.667 403.333L618.333 403.667L617.667 403.333M290 404L290 407L291 407L290 404M305.667 404.333L306.333 404.667L305.667 404.333M325 404L326 405L325 404M593 404L594 405L593 404M604.667 404.333L605.333 404.667L604.667 404.333M613.667 404.333L614.333 404.667L613.667 404.333M627 404L627 405L630 405L627 404M308.667 405.333L309.333 405.667L308.667 405.333M590 405L591 406L590 405M601 405L602 406L601 405M609.667 405.333L610.333 405.667L609.667 405.333M623 405L623 406L626 406L623 405M299.667 406.333L300.333 406.667L299.667 406.333M311.667 406.333L312.333 406.667L311.667 406.333M597.667 406.333L598.333 406.667L597.667 406.333M606.667 406.333L607.333 406.667L606.667 406.333M619 406L619 407L622 407L619 406M318 407L319 408L318 407M594 407L595 408L594 407M602.667 407.333L603.333 407.667L602.667 407.333M615 407L615 408L618 408L615 407M290 408L290 454L312 456L317 464L317 441L291 440L291 439L356 440L356 439L291 436L291 435L329 437L329 436L291 432L291 431L324 432L324 431L291 428L290 408M298 408L299 409L298 408M321 408L322 409L321 408M599 408L600 409L599 408M611 408L611 409L614 409L611 408M324 409L325 410L324 409M587 409L588 410L587 409M595 409L596 410L595 409M608.667 409.333L609.333 409.667L608.667 409.333M618 409L618 410L621 410L618 409M591 410L592 411L591 410M604 410L605 411L604 410M614 410L614 411L617 411L614 410M316 411L316 412L313 412L316 411M600 411L601 412L600 411M610.667 411.333L611.333 411.667L610.667 411.333M596 412L597 413L596 412M605 412L605 413L608 413L605 412M621 412L621 413L625 413L621 412M592 413L593 414L592 413M601.667 413.333L602.333 413.667L601.667 413.333M617 413L617 414L620 414L617 413M588 414L589 415L588 414M597.667 414.333L598.333 414.667L597.667 414.333M612 414L612 415L615 415L612 414M625 414L625 415L629 415L625 414M285 415L286 416L285 415M301 415L301 416L304 416L301 415M584 415L585 416L584 415M593 415L594 416L593 415M608.667 415.333L609.333 415.667L608.667 415.333M620 415L620 416L624 416L620 415M305 416L305 417L308 417L305 416M589 416L590 417L589 416M603.667 416.333L604.333 416.667L603.667 416.333M615 416L615 417L618 417L615 416M297 417L297 418L301 418L297 417M310.667 417.333L311.333 417.667L310.667 417.333M599 417L600 418L599 417M610 417L610 418L613 418L610 417M302 418L302 419L305 419L302 418M314 418L314 419L317 419L314 418M594 418L595 419L594 418M605 418L605 419L608 419L605 418M618 418L618 419L623 419L618 418M307 419L307 420L310 420L307 419M319.667 419.333L320.333 419.667L319.667 419.333M600.667 419.333L601.333 419.667L600.667 419.333M613 419L613 420L617 420L613 419M312.667 420.333L313.333 420.667L312.667 420.333M324 420L325 421L324 420M595.667 420.333L596.333 420.667L595.667 420.333M608 420L608 421L611 421L608 420M317.667 421.333L318.333 421.667L317.667 421.333M328 421L329 422L328 421M590 421L591 422L590 421M602 421L602 422L605 422L602 421M623 421L623 422L628 422L623 421M303 422L303 423L307 423L303 422M322.667 422.333L323.333 422.667L322.667 422.333M585 422L586 423L585 422M597.667 422.333L598.333 422.667L597.667 422.333M617 422L617 423L621 423L617 422M309 423L309 424L312 424L309 423M327 423L328 424L327 423M591.667 423.333L592.333 423.667L591.667 423.333M611 423L611 424L614 424L611 423M298 424L298 425L303 425L298 424M314 424L314 425L317 425L314 424M332 424L333 425L332 424M586 424L587 425L586 424M605 424L605 425L608 425L605 424M621 424L621 425L627 425L621 424M305 425L305 426L309 426L305 425M320.667 425.333L321.333 425.667L320.667 425.333M599.667 425.333L600.333 425.667L599.667 425.333M614 425L614 426L619 426L614 425M311 426L311 427L314 427L311 426M326 426L327 427L326 426M593 426L594 427L593 426M608 426L608 427L611 427L608 426M318.667 427.333L319.333 427.667L318.667 427.333M601 427L601 428L604 428L601 427M272.667 428.333L273.333 428.667L272.667 428.333M324 428L325 429L324 428M594.667 428.333L595.333 428.667L594.667 428.333M619 428L619 429L626 429L619 428M281 429L282 430L281 429M587 429L588 430L587 429M611 429L611 430L617 430L611 429M257.667 430.333L258.333 430.667L257.667 430.333M604 430L604 431L608 431L604 430M337 431L337 432L348 432L337 431M369 431L369 432L372 432L369 431M385 431L385 432L388 432L385 431M401.667 431.333L402.333 431.667L401.667 431.333M419 431L420 432L419 431M423 431L424 432L423 431M428 431L429 432L428 431M441 431L442 432L441 431M456 431L457 432L456 431M596 431L596 432L599 432L596 431M617 431L617 432L624 432L617 431M279.667 432.333L280.333 432.667L279.667 432.333M588.667 432.333L589.333 432.667L588.667 432.333M608 432L608 433L613 433L608 432M320 433L321 434L320 433M599 433L599 434L602 434L599 433M277.667 434.333L278.333 434.667L277.667 434.333M590 434L591 435L590 434M613 434L613 435L621 435L613 434M338.667 435.333L339.333 435.667L338.667 435.333M348.667 435.333L349.333 435.667L348.667 435.333M364 435L364 436L376 436L364 435M407 435L408 436L407 435M411 435L412 436L411 435M420 435L421 436L420 435M425 435L426 436L425 435M428 435L429 436L428 435M432 435L433 436L432 435M602 435L602 436L608 436L602 435M274 436L274 437L277 437L274 436M591 436L591 437L594 437L591 436M608 438L608 439L617 439L608 438M364 439L364 440L367 440L364 439M382 439L382 440L388 440L382 439M393 439L394 440L393 439M426 439L427 440L426 439M436 439L437 440L436 439M594 439L594 440L599 440L594 439M257.667 441.333L258.333 441.667L257.667 441.333M599 441L599 442L608 442L599 441M276 456L276 457L293 457L276 456M599 456L599 457L608 457L599 456M293 459L293 460L301 460L293 459M594 459L594 460L599 460L594 459M253.667 460.333L254.333 460.667L253.667 460.333M274 460L274 461L287 461L274 460M608 460L608 461L617 461L608 460M301 461L301 462L304 462L301 461M591 461L591 462L594 462L591 461M287 462L287 463L293 463L287 462M602 462L602 463L608 463L602 462M257.667 463.333L258.333 463.667L257.667 463.333M273 463L273 464L282 464L273 463M327.667 463.333L328.333 463.667L327.667 463.333M613 463L613 464L621 464L613 463M304 464L304 465L308 465L304 464M590 464L591 465L590 464M293 465L293 466L299 466L293 465M599 465L599 466L602 466L599 465M282 466L282 467L290 467L282 466M308 466L308 467L311 467L308 466M588.667 466.333L589.333 466.667L588.667 466.333M608 466L608 467L613 467L608 466M271 467L272 468L271 467M299 467L299 468L303 468L299 467M596 467L596 468L599 468L596 467M617 467L617 468L624 468L617 467M290 468L290 469L295 469L290 468M311 468L311 469L317 471C316.271 467.597 314.194 468.013 311 468M587 468L588 469L587 468M604 468L604 469L608 469L604 468M281 469L281 470L288 470L281 469M303 469L303 470L308 470L303 469M594.667 469.333L595.333 469.667L594.667 469.333M611 469L611 470L617 470L611 469M262 470L263 471L262 470M295 470L295 471L301 471L295 470M324 470L325 471L324 470M601 470L601 471L604 471L601 470M619 470L619 471L626 471L619 470M288 471L288 472L294 472L288 471M308 471L308 472L311 472L308 471M608 471L608 472L611 472L608 471M301 472L301 473L305 473L301 472M593 472L594 473L593 472M614 472L614 473L619 473L614 472M272 473L273 474L272 473M294 473L294 474L299 474L294 473M311 473L312 474L311 473M323.667 473.333L324.333 473.667L323.667 473.333M586 473L587 474L586 473M599.667 473.333L600.333 473.667L599.667 473.333M621 473L621 474L627 474L621 473M305.667 474.333L306.333 474.667L305.667 474.333M591.667 474.333L592.333 474.667L591.667 474.333M605 474L605 475L608 475L605 474M280 475L281 476L280 475M299.667 475.333L300.333 475.667L299.667 475.333M597.667 475.333L598.333 475.667L597.667 475.333M611 475L611 476L614 476L611 475M273.667 476.333L274.333 476.667L273.667 476.333M293 476L293 477L296 477L293 476M312.667 476.333L313.333 476.667L312.667 476.333M585 476L586 477L585 476M602 476L602 477L605 477L602 476M617 476L617 477L621 477L617 476M258 477L259 478L258 477M266 477L266 478L269 478L266 477M287 477L287 478L290 478L287 477M307.667 477.333L308.333 477.667L307.667 477.333M590 477L591 478L590 477M608 477L608 478L611 478L608 477M623 477L623 478L628 478L623 477M281 478L281 479L285 479L281 478M301 478L301 479L304 479L301 478M314 478L317 480L314 478M595.667 478.333L596.333 478.667L595.667 478.333M613 478L613 479L617 479L613 478M275 479L275 480L280 480L275 479M296 479L296 480L299 480L296 479M309 479L309 480L314 481L314 480L309 479M600.667 479.333L601.333 479.667L600.667 479.333M618 479L618 480L623 480L618 479M253.667 480.333L254.333 480.667L253.667 480.333M262 480L263 481L262 480M290 480L290 481L294 481L290 480M304.667 480.333L305.333 480.667L304.667 480.333M327.667 480.333L328.333 480.667L327.667 480.333M594 480L595 481L594 480M605 480L605 481L608 481L605 480M285 481L285 482L289 482L285 481M299 481L299 482L302 482L299 481M589 481L590 482L589 481M599 481L600 482L599 481M610 481L610 482L613 482L610 481M280 482L280 483L284 483L280 482M294 482L294 483L298 484L298 483L294 482M593 482L594 483L593 482M603.667 482.333L604.333 482.667L603.667 482.333M615 482L615 483L618 483L615 482M289 483L289 484L294 485L289 483M314 483L315 484L314 483M584 483L585 484L584 483M597.667 483.333L598.333 483.667L597.667 483.333M608.667 483.333L609.333 483.667L608.667 483.333M620 483L620 484L624 484L620 483M261.667 484.333L262.333 484.667L261.667 484.333M284 484L284 485L289 486L284 484M310 484L311 485L310 484M588 484L589 485L588 484M601.667 484.333L602.333 484.667L601.667 484.333M612 484L612 485L615 485L612 484M625 484L625 485L629 485L625 484M306 485L307 486L306 485M315.667 485.333L316.333 485.667L315.667 485.333M592 485L593 486L592 485M605 485L605 486L608 486L605 485M617 485L617 486L620 486L617 485M283.667 486.333L284.333 486.667L283.667 486.333M302 486L303 487L302 486M311 486L311 487L314 487L311 486M596 486L597 487L596 486M610.667 486.333L611.333 486.667L610.667 486.333M621 486L621 487L625 487L621 486M258 487L259 488L258 487M269 487L270 488L269 487M279.667 487.333L280.333 487.667L279.667 487.333M298 487L299 488L298 487M591 487L592 488L591 487M600 487L601 488L600 487M614 487L614 488L617 488L614 487M274 488L274 489L277 489L274 488M294 488L295 489L294 488M595 488L596 489L595 488M604 488L605 489L604 488M618 488L618 489L621 489L618 488M270 489L270 490L273 490L270 489M289.667 489.333L290.333 489.667L289.667 489.333M310 489L311 490L310 489M587 489L588 490L587 489M599 489L600 490L599 489M608.667 489.333L609.333 489.667L608.667 489.333M254 490L255 491L254 490M265 490L265 491L269 491L265 490M285 490L285 491L288 491L285 490M295 490L296 491L295 490M602.667 490.333L603.333 490.667L602.667 490.333M611 490L611 491L614 491L611 490M281 491L281 492L284 492L281 491M291 491L292 492L291 491M303 491L304 492L303 491M594 491L595 492L594 491M606.667 491.333L607.333 491.667L606.667 491.333M615 491L615 492L618 492L615 491M277 492L277 493L280 493L277 492M288 492L289 493L288 492M299.667 492.333L300.333 492.667L299.667 492.333M307 492L308 493L307 492M590 492L591 493L590 492M597.667 492.333L598.333 492.667L597.667 492.333M609.667 492.333L610.333 492.667L609.667 492.333M619 492L619 493L622 493L619 492M273 493L273 494L276 494L273 493M284 493L285 494L284 493M296 493L297 494L296 493M304 493L305 494L304 493M593 493L594 494L593 493M601 493L602 494L601 493M613.667 493.333L614.333 493.667L613.667 493.333M623 493L623 494L626 494L623 493M257.667 494.333L258.333 494.667L257.667 494.333M269 494L269 495L272 495L269 494M280 494L281 495L280 494M292.667 494.333L293.333 494.667L292.667 494.333M301 494L302 495L301 494M596 494L597 495L596 494M604.667 494.333L605.333 494.667L604.667 494.333M617.667 494.333L618.333 494.667L617.667 494.333M627 494L627 495L630 495L627 494M276.667 495.333L277.333 495.667L276.667 495.333M289 495L290 496L289 495M297 495L298 496L297 495M314 495L315 496L314 495M583 495L584 496L583 495M600 495L601 496L600 495M608 495L609 496L608 495M620 495L620 496L623 496L620 495M272.667 496.333L273.333 496.667L272.667 496.333M285.667 496.333L286.333 496.667L285.667 496.333M294 496L295 497L294 496M311 496L312 497L311 496M586 496L587 497L586 496M603 496L604 497L603 496M611.667 496.333L612.333 496.667L611.667 496.333M268 497L268 498L271 498L268 497M281 497L281 498L284 498L281 497M290.667 497.333L291.333 497.667L290.667 497.333M308 497L309 498L308 497M589 497L590 498L589 497M606.667 497.333L607.333 497.667L606.667 497.333M614 497L614 498L617 498L614 497M278.667 498.333L279.333 498.667L278.667 498.333M287.667 498.333L288.333 498.667L287.667 498.333M298 498L299 499L298 498M305 498L306 499L305 498M592 498L593 499L592 498M599 498L600 499L599 498M609.667 498.333L610.333 498.667L609.667 498.333M618.667 498.333L619.333 498.667L618.667 498.333M271 500L271 501L277 500L271 500M284.667 499.333L285.333 499.667L284.667 499.333M295 499L296 500L295 499M302 499L303 500L302 499M595 499L596 500L595 499M602 499L603 500L602 499M612.667 499.333L613.333 499.667L612.667 499.333M621 499L621 500L627 501L627 500L621 499M280 500L280 501L283 501L280 500M292 500L293 501L292 500M299 500L300 501L299 500M306 500L307 501L306 500M591 500L592 501L591 500M598 500L599 501L598 500M605 500L606 501L605 500M615 500L615 501L618 501L615 500M254 501L255 502L254 501M277.667 501.333L278.333 501.667L277.667 501.333M289 501L290 502L289 501M296.667 501.333L297.333 501.667L296.667 501.333M303 501L304 502L303 501M594 501L595 502L594 501M600.667 501.333L601.333 501.667L600.667 501.333M608 501L609 502L608 501M619.667 501.333L620.333 501.667L619.667 501.333M274.667 502.333L275.333 502.667L274.667 502.333M286 502L287 503L286 502M293.667 502.333L294.333 502.667L293.667 502.333M300 502L301 503L300 502M309 502L310 503L309 502M588 502L589 503L588 502M597 502L598 503L597 502M603.667 502.333L604.333 502.667L603.667 502.333M611 502L612 503L611 502M622.667 502.333L623.333 502.667L622.667 502.333M283 503L284 504L283 503M290.667 503.333L291.333 503.667L290.667 503.333M298 503L299 504L298 503M312 503L313 504L312 503M585 503L586 504L585 503M599 503L600 504L599 503M606.667 503.333L607.333 503.667L606.667 503.333M614 503L615 504L614 503M279.667 504.333L280.333 504.667L279.667 504.333M287.667 504.333L288.333 504.667L287.667 504.333M295 504L296 505L295 504M304 504L305 505L304 504M593 504L594 505L593 504M602 504L603 505L602 504M609.667 504.333L610.333 504.667L609.667 504.333M617.667 504.333L618.333 504.667L617.667 504.333M276.667 505.333L277.333 505.667L276.667 505.333M284.667 505.333L285.333 505.667L284.667 505.333M292 505L293 506L292 505M301 505L302 506L301 505M307 505L308 506L307 505M590 505L591 506L590 505M596 505L597 506L596 505M605 505L606 506L605 505M612.667 505.333L613.333 505.667L612.667 505.333M620.667 505.333L621.333 505.667L620.667 505.333M273.667 506.333L274.333 506.667L273.667 506.333M289 506L290 507L289 506M608 506L609 507L608 506M623.667 506.333L624.333 506.667L623.667 506.333M270.667 507.333L271.333 507.667L270.667 507.333M286.667 507.333L287.333 507.667L286.667 507.333M296 507L297 508L296 507M302 507L303 508L302 507M595 507L596 508L595 507M601 507L602 508L601 507M610.667 507.333L611.333 507.667L610.667 507.333M626.667 507.333L627.333 507.667L626.667 507.333M254 508L255 509L254 508M267.667 508.333L268.333 508.667L267.667 508.333M283.667 508.333L284.333 508.667L283.667 508.333M293 508L294 509L293 508M299 508L300 509L299 508M328 508L329 509L328 508M598 508L599 509L598 508M604 508L605 509L604 508M613.667 508.333L614.333 508.667L613.667 508.333M629.667 508.333L630.333 508.667L629.667 508.333M281 509L282 510L281 509M290.667 509.333L291.333 509.667L290.667 509.333M297 509L298 510L297 509M305 509L306 510L305 509M310 509L311 510L310 509M587 509L588 510L587 509M592 509L593 510L592 509M600 509L601 510L600 509M606.667 509.333L607.333 509.667L606.667 509.333M616 509L617 510L616 509M278.667 510.333L279.333 510.667L278.667 510.333M288 510L289 511L288 510M294 510L295 511L294 510M603 510L604 511L603 510M609 510L610 511L609 510M618.667 510.333L619.333 510.667L618.667 510.333M253.667 511.333L254.333 511.667L253.667 511.333M275.667 511.333L276.333 511.667L275.667 511.333M285.667 511.333L286.333 511.667L285.667 511.333M292 511L293 512L292 511M300 511L301 512L300 511M320 511L321 512L320 511M324 511L325 512L324 511M571 511L572 512L571 511M575 511L576 512L575 511M597 511L598 512L597 511M605 511L606 512L605 511M611.667 511.333L612.333 511.667L611.667 511.333M621.667 511.333L622.333 511.667L621.667 511.333M282.667 512.333L283.333 512.667L282.667 512.333M289 512L290 513L289 512M298 512L299 513L298 512M303 512L304 513L303 512M308 512L309 513L308 512M589 512L590 513L589 512M594 512L595 513L594 512M599 512L600 513L599 512M608 512L609 513L608 512M614.667 512.333L615.333 512.667L614.667 512.333M280 513L281 514L280 513M287 513L288 514L287 513M295 513L296 514L295 513M301 513L302 514L301 513M306 513L307 514L306 513M591 513L592 514L591 513M596 513L597 514L596 513M602 513L603 514L602 513M610 513L611 514L610 513M617 513L618 514L617 513M277.667 514.333L278.333 514.667L277.667 514.333M284.667 514.333L285.333 514.667L284.667 514.333M293 514L294 515L293 514M304 514L305 515L304 514M579 514L580 515L579 514M593 514L594 515L593 514M604 514L605 515L604 514M612.667 514.333L613.333 514.667L612.667 514.333M619.667 514.333L620.333 514.667L619.667 514.333M272 516L272 517L276 516L272 516M279 516L279 517L283 516L279 516M290.667 515.333L291.333 515.667L290.667 515.333M296 515L297 516L296 515M601 515L602 516L601 515M606.667 515.333L607.333 515.667L606.667 515.333M615 515L615 516L619 517L619 516L615 515M622 515L622 516L626 517L626 516L622 515M288 516L289 517L288 516M294 516L295 517L294 516M299 516L300 517L299 516M598 516L599 517L598 516M603 516L604 517L603 516M609 516L610 517L609 516M274 518L274 519L278 518L274 518M286 517L287 518L286 517M292 517L293 518L292 517M297 517L298 518L297 517M315 517L316 518L315 517M600 517L601 518L600 517M605 517L606 518L605 517M611 517L612 518L611 517M620 517L620 518L624 519L624 518L620 517M254 518L255 519L254 518M283.667 518.333L284.333 518.667L283.667 518.333M289 518L290 519L289 518M295 518L296 519L295 518M302 518L303 519L302 518M313 518L314 519L313 518M584 518L585 519L584 518M595 518L596 519L595 518M602 518L603 519L602 518M608 518L609 519L608 518M613.667 518.333L614.333 518.667L613.667 518.333M269 520L269 521L273 520L269 520M281 519L282 520L281 519M287 519L288 520L287 519M293 519L294 520L293 519M300 519L301 520L300 519M311 519L312 520L311 519M586 519L587 520L586 519M597 519L598 520L597 519M604 519L605 520L604 519M610 519L611 520L610 519M616 519L617 520L616 519M625 519L625 520L629 521L629 520L625 519M276 521L276 522L280 521L276 521M285 520L286 521L285 520M290.667 520.333L291.333 520.667L290.667 520.333M298 520L299 521L298 520M309 520L310 521L309 520M588 520L589 521L588 520M599 520L600 521L599 520M606.667 520.333L607.333 520.667L606.667 520.333M612 520L613 521L612 520M618 520L618 521L622 522L622 521L618 520M282.667 521.333L283.333 521.667L282.667 521.333M288 521L289 522L288 521M296 521L297 522L296 521M307 521L308 522L307 521M590 521L591 522L590 521M601 521L602 522L601 521M609 521L610 522L609 521M614.667 521.333L615.333 521.667L614.667 521.333M280 522L281 523L280 522M286 522L287 523L286 522M294 522L295 523L294 522M305 522L306 523L305 522M592 522L593 523L592 522M603 522L604 523L603 522M611 522L612 523L611 522M617 522L618 523L617 522M278 523L279 524L278 523M284 523L285 524L284 523M292 523L293 524L292 523M303 523L304 524L303 523M594 523L595 524L594 523M605 523L606 524L605 523M613 523L614 524L613 523M619 523L620 524L619 523M273 525L273 526L277 525L273 525M277 526L277 527L283 525L277 526M289 524L290 525L289 524M301 524L302 525L301 524M596 524L597 525L596 524M608 524L609 525L608 524M615 524L615 525L621 527L621 526L615 524M621 524L621 525L625 526L625 525L621 524M253 525L254 526L253 525M287 525L288 526L287 525M299 525L300 526L299 525M598 525L599 526L598 525M610 525L611 526L610 525M271 526L272 527L271 526M285 526L286 527L285 526M290 526L291 527L290 526M297 526L298 527L297 526M302 526L303 527L302 526M306 526L307 527L306 526M591 526L592 527L591 526M595 526L596 527L595 526M600 526L601 527L600 526M607 526L608 527L607 526M612 526L613 527L612 526M626 526L627 527L626 526M275 527L276 528L275 527M283 527L284 528L283 527M288 527L289 528L288 527M295 527L296 528L295 527M300 527L301 528L300 527M304 527L305 528L304 527M310 527L311 528L310 527M587 527L588 528L587 527M593 527L594 528L593 527M597 527L598 528L597 527M602 527L603 528L602 527M609 527L610 528L609 527M614 527L615 528L614 527M622 527L623 528L622 527M254 528L255 529L254 528M281 528L282 529L281 528M286 528L287 529L286 528M293 528L294 529L293 528M298 528L299 529L298 528M308 528L309 529L308 528M589 528L590 529L589 528M599 528L600 529L599 528M604 528L605 529L604 528M611 528L612 529L611 528M616 528L617 529L616 528M279 529L280 530L279 529M284 529L285 530L284 529M291 529L292 530L291 529M296 529L297 530L296 529M601 529L602 530L601 529M606 529L607 530L606 529M613 529L614 530L613 529M618 529L619 530L618 529M282 530L283 531L282 530M294 530L295 531L294 530M603 530L604 531L603 530M615 530L616 531L615 530M280 531L281 532L280 531M292 531L293 532L292 531M297 531L298 532L297 531M303 531L304 532L303 531M312 531L313 532L312 531M585 531L586 532L585 531M594 531L595 532L594 531M600 531L601 532L600 531M605 531L606 532L605 531M617 531L618 532L617 531M278 532L279 533L278 532M290 532L289 534L290 532M295 532L296 533L295 532M301 532L302 533L301 532M305 532L306 533L305 532M592 532L593 533L592 532M596 532L597 533L596 532M602 532L603 533L602 532M607 532L609 534L607 532M619 532L620 533L619 532M276 533L277 534L276 533M293 533L294 534L293 533M299 533L300 534L299 533M598 533L599 534L598 533M604 533L605 534L604 533M621 533L622 534L621 533M274 534L275 535L274 534M287 534L288 535L287 534M291 534L292 535L291 534M307 534L308 535L307 534M590 534L591 535L590 534M606 534L607 535L606 534M610 534L611 535L610 534M623 534L624 535L623 534M272 535L273 536L272 535M285 535L286 536L285 535M296 535L297 536L296 535M300 535L301 536L300 535M309 535L310 536L309 535M588 535L589 536L588 535M597 535L598 536L597 535M601 535L602 536L601 535M612 535L613 536L612 535M625 535L626 536L625 535M270 536L271 537L270 536M283 536L284 537L283 536M288 536L289 537L288 536M294 536L295 537L294 536M298 536L299 537L298 536M599 536L600 537L599 536M603 536L604 537L603 536M609 536L610 537L609 536M614 536L615 537L614 536M627 536L628 537L627 536M268 537L269 538L268 537M281 537L282 538L281 537M286 537L287 538L286 537M292 537L293 538L292 537M302 537L303 538L302 537M595 537L596 538L595 537M605 537L606 538L605 537M611 537L612 538L611 537M616 537L617 538L616 537M629 537L630 538L629 537M266 538L267 539L266 538M279 538L280 539L279 538M284 538L285 539L284 538M290 538L289 540L290 538M295 538L296 539L295 538M304 538L305 539L304 538M593 538L594 539L593 538M602 538L603 539L602 538M607 538L609 540L607 538M613 538L614 539L613 538M618 538L619 539L618 538M631 538L632 539L631 538M282 539L283 540L282 539M293 539L294 540L293 539M314 539L315 540L314 539M583 539L584 540L583 539M604 539L605 540L604 539M615 539L616 540L615 539M280 540L277 542L277 543L281 541L280 540M287 540L288 541L287 540M291 540L292 541L291 540M297 540L298 541L297 540M301 540L302 541L301 540M306 540L307 541L306 540M591 540L592 541L591 540M596 540L597 541L596 540M600 540L601 541L600 540M606 540L607 541L606 540M610 540L611 541L610 540M617 540L617 541L621 543L621 542L617 540M285 541L286 542L285 541M299 541L300 542L299 541M311 541L312 542L311 541M586 541L587 542L586 541M598 541L599 542L598 541M612 541L613 542L612 541M253 542L254 543L253 542M262 542L263 543L262 542M283 542L280 544L280 545L284 543L283 542M288 542L289 543L288 542M294 542L295 543L294 542M303 542L304 543L303 542M594 542L595 543L594 542M603 542L604 543L603 542M609 542L610 543L609 542M614 542L614 543L618 545L618 544L614 542M275 543L276 544L275 543M286 543L287 544L286 543M292 543L293 544L292 543M296 543L297 544L296 543M308 543L309 544L308 543M589 543L590 544L589 543M601 543L602 544L601 543M605 543L606 544L605 543M611 543L612 544L611 543M622 543L623 544L622 543M273 544L274 545L273 544M284 544L283 546L284 544M290 544L289 546L290 544M300 544L301 545L300 544M597 544L598 545L597 544M607 544L609 546L607 544M613 544L615 546L613 544M624 544L625 545L624 544M258 545L259 546L258 545M278 545L279 546L278 545M293 545L294 546L293 545M298 545L299 546L298 545M305 545L306 546L305 545M592 545L593 546L592 545M599 545L600 546L599 545M604 545L605 546L604 545M619 545L620 546L619 545M276 546L271 549L271 550L277 547L276 546M281 546L282 547L281 546M287 546L288 547L287 546M291 546L292 547L291 546M606 546L607 547L606 546M610 546L611 547L610 546M616 546L617 547L616 546M621 546L621 547L627 550L627 549L621 546M279 547L276 549L276 550L280 548L279 547M285 547L284 549L285 547M295 547L296 548L295 547M302 547L303 548L302 547M307 547L308 548L307 547M310 547L311 548L310 547M587 547L588 548L587 547M590 547L591 548L590 547M595 547L596 548L595 547M602 547L603 548L602 547M612 547L614 549L612 547M618 547L618 548L622 550L622 549L618 547M288 548L289 549L288 548M297 548L298 549L297 548M316 548L317 549L316 548M600 548L601 549L600 548M609 548L610 549L609 548M282 549L283 550L282 549M286 549L285 551L286 549M292 549L293 550L292 549M299 549L298 551L299 549M304 549L305 550L304 549M593 549L594 550L593 549M598 549L600 551L598 549M605 549L606 550L605 549M611 549L613 551L611 549M615 549L616 550L615 549M280 550L279 552L280 550M290 550L289 552L290 550M294 550L295 551L294 550M313 550L312 552L313 550M584 550L585 551L584 550M603 550L604 551L603 550M607 550L609 552L607 550M617 550L619 552L617 550M283 551L280 553L280 554L284 552L283 551M296 551L295 553L296 551M301 551L302 552L301 551M315 551L314 552L314 553L315 554L316 554L317 553L317 552L315 551M596 551L597 552L596 551M601 551L603 553L601 551M614 551L614 552L618 554L618 553L614 551M254 552L255 553L254 552M277 552L274 554L274 555L278 553L277 552M287 552L286 554L287 552M291 552L292 553L291 552M303 552L304 553L303 552M316 552L315 553L316 552M594 552L595 553L594 552M606 552L607 553L606 552M610 552L612 554L610 552M620 552L620 553L624 555L624 554L620 552M293 553L292 555L293 553M306 553L307 554L306 553M309 553L308 555L309 553M588 553L589 554L588 553M591 553L592 554L591 553M604 553L606 555L604 553M278 554L277 556L278 554M284 554L283 556L284 554M288 554L289 555L288 554M297 554L298 555L297 554M300 554L301 555L300 554M310 555L310 556L315 556L310 555M597 554L598 555L597 554M600 554L601 555L600 554M609 554L610 555L609 554M613 554L615 556L613 554M619 554L621 556L619 554M253 555L254 556L253 555M272 555L269 557L269 558L273 556L272 555M290 555L289 557L290 555M312 555L311 556L312 555M314 555L313 556L314 555M607 555L609 557L607 555M625 555L625 556L629 558L629 557L625 555M275 556L272 558L272 559L276 557L275 556M281 556L282 557L281 556M285 556L286 557L285 556M294 556L295 557L294 556M302 556L303 557L302 556M305 556L304 558L305 556M316 556L315 558L316 556M592 556L593 557L592 556M595 556L596 557L595 556M603 556L604 557L603 556M612 556L613 557L612 556M616 556L617 557L616 556M622 556L622 557L626 559L626 558L622 556M279 557L278 559L279 557M287 557L286 559L287 557M296 557L297 558L296 557M307 557L306 559L307 557M601 557L602 558L601 557M610 557L612 559L610 557M618 557L620 559L618 557M282 558L283 559L282 558M291 558L292 559L291 558M299 558L298 560L299 558M310 558L308 561L310 558M585 558L586 559L585 558M598 558L600 560L598 558M606 558L607 559L606 558M615 558L616 559L615 558M254 559L255 560L254 559M276 559L275 561L276 559M280 559L279 561L280 559M284 559L283 561L284 559M293 559L292 561L293 559M301 559L300 561L301 559M312 559L310 562L312 559M314 559L315 560L314 559M589 559L590 560L589 559M593 559L594 560L593 559M596 559L597 560L596 559M604 559L606 561L604 559M613 559L615 561L613 559M617 559L619 561L617 559M621 559L623 561L621 559M288 560L287 562L288 560M303 560L302 562L303 560M609 560L611 562L609 560M277 561L276 563L277 561M290 561L289 563L290 561M295 561L294 563L295 561M316 561L311 565L316 561M602 561L604 563L602 561M607 561L609 563L607 561M620 561L622 563L620 561M285 562L284 564L285 562M297 562L296 564L297 562M305 562L303 565L305 562M590 562L591 563L590 562M597 562L598 563L597 562M600 562L601 563L600 562M612 562L614 564L612 562M274 563L273 565L274 563M299 563L298 565L299 563M307 563L305 566L307 563M309 563L310 564L309 563M594 563L595 564L594 563M623 563L625 565L623 563M282 564L280 567L282 564M286 564L285 566L286 564M291 564L292 565L291 564M301 564L302 565L301 564M316 564L315 566L316 564M586 564L587 565L586 564M606 564L607 565L606 564M611 564L613 566L611 564M615 564L618 567L615 564M271 565L270 567L271 565M293 565L294 566L293 565M308 565L309 566L308 565M313 565L304 571L313 565M601 565L603 567L601 565M604 565L605 566L604 565M626 565L628 567L626 565M283 566L282 568L283 566M288 566L287 568L288 566M295 566L294 568L295 566M300 566L299 568L300 566M591 566L592 567L591 566M595 566L597 568L595 566M598 566L600 568L598 566M609 566L611 568L609 566M614 566L616 568L614 566M268 567L267 569L268 567M278 567L277 569L278 567M290 567L289 569L290 567M292 567L293 568L292 567M297 567L298 568L297 567M300 570L305 568L300 570M296 575L296 576L297 577L298 577L317 567L296 575M607 567L610 570L607 567M619 567L621 569L619 567M629 567L631 569L629 567M315 568L314 569L315 568M587 568L588 569L587 568M605 568L607 570L605 568M275 569L274 571L275 569M279 569L278 571L279 569M284 569L283 571L284 569M291 569L290 571L291 569M293 569L294 570L293 569M296 569L294 572L296 569M298 569L299 570L298 569M592 569L594 571L592 569M613 569L615 571L613 569M618 569L620 571L618 569M622 569L624 571L622 569M286 570L285 572L286 570M288 570L289 571L288 570M302 570L303 571L302 570M311 570L310 571L311 570M600 570L602 572L600 570M603 570L605 572L603 570M611 570L614 573L611 570M276 571L271 576L276 571M281 571L279 574L281 571M292 571L293 572L292 571M295 574L300 572L295 574M308 571L307 572L308 571M313 571L294 581L295 582C300.789 578.929 311.217 578.34 313 571M316 571L311 577L316 571M328 571L327 584L328 584L328 571M588 571L589 572L588 571M597 571L598 572L597 571M616 571L619 574L616 571M621 571L627 576L621 571M287 572L286 574L287 572M289 572L290 573L289 572M610 572L612 574L610 572M282 573L281 575L282 573M284 573L285 574L284 573M291 573L287 575L287 576L291 573M293 573L294 574L293 573M302 573L301 574L302 573M304 573L303 574L304 573M607 573L610 576L607 573M615 573L618 576L615 573M277 574L275 577L277 574M310 574L305 577L305 576L310 574M571 574L571 586L415 586L375 586L357 588L357 586L356 586L356 588L351 588C346.088 584.235 342.642 588.817 340 593L343 591L336 599L333 603L331 614C331.53 616.649 331.428 617.607 329 617L329 649L330 649L353.4 609L364.21 593.028L379 592L415 592L533 592L565 592L580 593.028L594.089 607L634 649C634 644.67 634.913 639.112 633.397 635C628.783 622.486 609.389 609.389 600 600C597.074 597.074 586.927 583.87 583 586L582 586L579 581L579 586L578 586L575 577L575 586L574 586L571 574M589 574L591 576L589 574M594 574L596 576L594 574M598 574L601 577L598 574M605 574L607 576L605 574M620 574L623 577L620 574M283 575L282 577L283 575M285 575L286 576L285 575M290 578L295 575L290 578M298 575L297 576L298 575M324 575L323 586L321 586L321 578L320 578L319 586L316 584C304.893 595.107 297 600.847 297 617C307.13 609.805 329.752 588.709 324 575M602 575L604 577L602 575M614 575L616 577L614 575M278 576L277 578L278 576M280 576L281 577L280 576M293 576L292 577L293 576M619 576L622 579L619 576M283 578L283 579L287 578L283 578M288 577L289 578L288 577M303 577L303 578L299 579L303 577M612 577L615 580L612 577M278 579L278 580L282 579L278 579M596 578L598 580L596 578M610 578L613 581L610 578M618 578L621 581L618 578M274 579L273 581L274 579M276 579L277 580L276 579M274 582L274 583L292 580L274 582M297 579L295 581L297 579M591 579L594 582L591 579M604 579L607 582L604 579M607 579L610 582L607 579M623 579L626 582L623 579M288 580L287 581L288 580M601 580L604 583L601 580M616 580L620 584L616 580M300 581L296 586L300 581M622 581L625 584L622 581M270 582L269 584L270 582M272 582L273 583L272 582M598 582L602 586L598 582M615 582L618 585L615 582M627 582L630 585L627 582M270 585L270 586C275.56 585.32 282.967 587.429 287 583L270 585M294 583L292 586L294 583M283 584L282 585L283 584M285 584L284 585L285 584M289 584L288 586L289 584M594 584L598 588L594 584M610 584L614 588L610 584M613 584L616 587L613 584M254 585L255 586L254 585M258 585L259 586L258 585M262 585L263 586L262 585M266 585L267 586L266 585M268 585L269 586L268 585M604 585L607 588L604 585M607 585L611 589L607 585M333 586L334 587L333 586M341 586L342 587L341 586M620 586L624 590L620 586M330 587L328 590L330 587M338 587L339 588L338 587M346 587L346 589L347 589L347 587L351 588L350 591L351 591L353 587L357 588L331 629L330 629L340 612L339 612L331 625L330 625L336 611L334 612L335 609L333 610L346 587M335 588L333 591L335 588M349 588L348 591L345 589L344 590L347 595L344 593L343 598L340 598L340 602L337 602L338 605L335 605L331 622L332 622L339 610L341 612C345.339 605.568 354.484 595.965 354 588L353 588L354 591L350 592L349 588M618 588L622 592L618 588M339 589L338 591L339 589M602 589L607 594L602 589M616 589L621 594L616 589M324 590L322 593L324 590M346 590L349 591L350 594L351 594L352 591L353 591L341 610L340 610L341 607L340 607L338 611L337 611L338 608L336 609L336 605L338 602L341 598L344 594L345 594L345 598L346 598L349 592L346 590M607 590L613 596L607 590M625 590L629 594L625 590M329 591L328 593L329 591M335 591L334 593L335 591M598 591L607 600L598 591M611 591L616 596L611 591M614 591L619 596L614 591M325 593L322 597L325 593M331 593L329 596L331 593M336 593L334 596L336 593M376 593L377 594L376 593M521 593L522 594L521 593M624 593L628 597L624 593M349 594L346 600L344 598L338 608L342 607L349 594M400 594L401 595L400 594M497 594L498 595L497 594M547 594L548 595L547 594M338 595L336 598L338 595M375 595L376 596L375 595M412 595L413 596L412 595M485 595L486 596L485 595M522 595L523 596L522 595M560 595L561 596L560 595M325 596L322 600L325 596M331 596L330 598L331 596M390 596L391 597L390 596M420 596L421 597L420 596M478 596L479 597L478 596M508 596L509 597L508 596M538 596L539 597L538 596M568 596L569 597L568 596M607 596L616 605L607 596M318 597L314 602L318 597M374 597L375 598L374 597M399 597L400 598L399 597M424 597L425 598L424 597M473 597L474 598L473 597M498 597L499 598L498 597M523 597L524 598L523 597M549 597L550 598L549 597M574 597L575 598L574 597M621 597L627 603L621 597M327 598L324 602L327 598M332 598L331 600L332 598M363 598L364 599L363 598M384 598L385 599L384 598M406 598L407 599L406 598M427 598L428 599L427 598M471 598L472 599L471 598M491 598L492 599L491 598M514 598L515 599L514 598M534 598L535 599L534 598M557 598L558 599L557 598M577 598L578 599L577 598M616 598L624 606L616 598M619 598L625 604L619 598M373 599L374 600L373 599M391 599L392 600L391 599M411 599L412 600L411 599M429 599L430 600L429 599M468 599L469 600L468 599M486 599L487 600L486 599M507 599L508 600L507 599M524 599L525 600L524 599M542 599L543 600L542 599M563 599L564 600L563 599M581 599L582 600L581 599M613 599L621 607L613 599M319 600L316 604L319 600M328 600L326 603L328 600M334 600L333 602L334 600M345 600L342 606L341 606L345 600M365 600L366 601L365 600M380 600L381 601L380 600M398 600L399 601L398 600M414 600L415 601L414 600M432 600L433 601L432 600M466 600L467 601L466 600M484 600L485 601L484 600M499 600L500 601L499 600M517 600L518 601L517 600M533 600L534 601L533 600M551 600L552 601L551 600M566 600L567 601L566 600M584 600L585 601L584 600M372 601L373 602L372 601M388 601L389 602L388 601M403 601L404 602L403 601M419 601L420 602L419 601M434.333 601.667L434.667 602.333L434.333 601.667M464.333 601.667L464.667 602.333L464.333 601.667M479 601L480 602L479 601M495 601L496 602L495 601M510 601L511 602L510 601M525 601L526 602L525 601M541 601L542 602L541 601M556 601L557 602L556 601M572 601L573 602L572 601M587 601L589 603L587 601M320 602L317 606L320 602M329 602L327 605L329 602M364 602L365 603L364 602M379 602L380 603L379 602M392 602L393 603L392 602M405 602L406 603L405 602M421 602L422 603L421 602M477 602L478 603L477 602M492 602L493 603L492 602M505 602L506 603L505 602M518 602L519 603L518 602M534 602L535 603L534 602M547 602L548 603L547 602M560 602L561 603L560 602M575 602L576 603L575 602M323 603L320 607L323 603M358 603L359 604L358 603M371 603L372 604L371 603M384 603L385 604L384 603M397 603L398 604L397 603M410 603L411 604L410 603M423.333 603.667L423.667 604.333L423.333 603.667M436 603L436 606L437 606L436 603M461 603L461 606L462 606L461 603M474.333 603.667L474.667 604.333L474.333 603.667M487 603L488 604L487 603M500 603L501 604L500 603M513 603L514 604L513 603M526 603L527 604L526 603M540 603L541 604L540 603M553 603L554 604L553 603M566 603L567 604L566 603M579 603L581 605L579 603M312 604L307 610L312 604M331 604L330 606L331 604M365 604L366 605L365 604M376 604L377 605L376 604M389 604L390 605L389 604M400 604L401 605L400 604M413 604L414 605L413 604M485 604L486 605L485 604M498 604L499 605L498 604M509 604L510 605L509 604M522 604L523 605L522 604M532 604L533 605L532 604M545 604L546 605L545 604M556 604L557 605L556 604M569 604L570 605L569 604M324 605L322 608L324 605M359 605L360 606L359 605M370 605L371 606L370 605M381 605L382 606L381 605M391 605L392 606L391 605M404 605L405 606L404 605M415 605L416 606L415 605M426 605L427 606L426 605M472 605L473 606L472 605M482 605L483 606L482 605M493 605L494 606L493 605M506 605L507 606L506 605M517 605L518 606L517 605M527 605L528 606L527 605M538 605L539 606L538 605M549 605L550 606L549 605M562 605L563 606L562 605M573 605L574 606L573 605M583 605L584 606L583 605M286 606L285 608L286 606M294 606L293 617L294 617L294 606M314 606L310 611L314 606M327 606L328 607L327 606M364 606L365 607L364 606M375 606L376 607L375 606M386 606L387 607L386 606M396 606L397 607L396 606M407 606L408 607L407 606M418.333 606.667L418.667 607.333L418.333 606.667M428.333 606.667L428.667 607.333L428.333 606.667M439 606L439 611L440 611L439 606M459 606L459 611L460 611L459 606M469.333 606.667L469.667 607.333L469.333 606.667M480.333 606.667L480.667 607.333L480.333 606.667M491 606L492 607L491 606M501 606L502 607L501 606M512 606L513 607L512 606M523 606L524 607L523 606M533 606L534 607L533 606M544 606L545 607L544 606M555 606L556 607L555 606M565 606L566 607L565 606M576 606L578 608L576 606M587 606L589 608L587 606M316 607L312 612L316 607M325 607L324 609L325 607M330 607L331 608L330 607M358 607L359 608L358 607M369 607L370 608L369 607M380 607L381 608L380 607M388 607L389 608L388 607M399 607L400 608L399 607M409 607L410 608L409 607M488 607L489 608L488 607M499 607L500 608L499 607M510 607L511 608L510 607M518 607L519 608L518 607M528 607L529 608L528 607M539 607L540 608L539 607M547 607L548 608L547 607M558 607L559 608L558 607M569 607L570 608L569 607M328 608L327 610L328 608M355 608L356 609L355 608M363 608L364 609L363 608M374 608L375 609L374 608M382 608L383 609L382 608M393 608L394 609L393 608M401 608L402 609L401 608M412.333 608.667L412.667 609.333L412.333 608.667M420 608L421 609L420 608M431 608L431 611L432 611L431 608M467 608L467 611L468 611L467 608M478 608L479 609L478 608M486.333 608.667L486.667 609.333L486.333 608.667M497 608L498 609L497 608M505 608L506 609L505 608M515 608L516 609L515 608M524 608L525 609L524 608M534 608L535 609L534 608M543 608L544 609L543 608M553 608L554 609L553 608M561 608L562 609L561 608M572 608L574 610L572 608M580 608L581 609L580 608M591 608L594 611L591 608M290 609L289 617L290 617L290 609M321 609L318 613L321 609M360 609L361 610L360 609M368 609L369 610L368 609M376 609L377 610L376 609M387 609L388 610L387 609M395 609L396 610L395 609M403 609L404 610L403 609M422.333 609.667L422.667 610.333L422.333 609.667M475.333 609.667L475.667 610.333L475.333 609.667M494 609L495 610L494 609M502 609L503 610L502 609M511 609L512 610L511 609M521 609L522 610L521 609M529 609L530 610L529 609M538 609L539 610L538 609M548 609L549 610L548 609M557 609L558 610L557 609M565 609L566 610L565 609M584 609L586 611L584 609M324 610L325 611L324 610M330 610L330 613L331 613L330 610M354 610L355 611L354 610M362 610L363 611L362 610M373 610L374 611L373 610M381 610L382 611L381 610M389 610L390 611L389 610M398 610L399 611L398 610M406 610L407 611L406 610M414 610L415 611L414 610M483 610L484 611L483 610M492 610L493 611L492 610M500 610L501 611L500 610M508 610L509 611L508 610M516 610L517 611L516 610M525 610L526 611L525 610M535 610L536 611L535 610M544 610L545 611L544 610M552 610L553 611L552 610M560 610L561 611L560 610M568 610L569 611L568 610M577 610L578 611L577 610M322 611L320 616L321 616L322 611M327 611L328 612L327 611M359 611L360 612L359 611M367 611L368 612L367 611M375 611L376 612L375 611M384 611L385 612L384 611M392 611L393 612L392 611M400 611L401 612L400 611M408.333 611.667L408.667 612.333L408.333 611.667M417.333 611.667L417.667 612.333L417.333 611.667M425 611L425 614L426 614L425 611M433 611L433 615L434 615L433 611M441 611L441 621L442 621L441 611M456 611L456 621L457 621L456 611M465 611L465 615L466 615L465 611M473 611L473 614L474 614L473 611M481.333 611.667L481.667 612.333L481.333 611.667M489.333 611.667L489.667 612.333L489.333 611.667M498 611L499 612L498 611M506 611L507 612L506 611M514 611L515 612L514 611M522 611L523 612L522 611M530 611L531 612L530 611M539 611L540 612L539 611M547 611L548 612L547 611M555 611L556 612L555 611M563 611L564 612L563 611M572 611L574 613L572 611M580 611L582 613L580 611M588 611L591 614L588 611M596 611L600 615L596 611M286 612L285 617L286 617L286 612M325 612L324 614L325 612M355 612L356 613L355 612M364 612L365 613L364 612M370 612L371 613L370 612M378 612L379 613L378 612M386 612L387 613L386 612M394 612L395 613L394 612M402.333 612.667L402.667 613.333L402.333 612.667M495.333 612.667L495.667 613.333L495.333 612.667M503 612L504 613L503 612M512 612L513 613L512 612M520 612L521 613L520 612M528 612L529 613L528 612M534 612L535 613L534 612M542 612L543 613L542 612M550 612L551 613L550 612M559 612L560 613L559 612M567 612L569 614L567 612M328 613L327 617L328 617L328 613M352 613L353 614L352 613M358 613L359 614L358 613M366 613L367 614L366 613M374 613L375 614L374 613M380 613L381 614L380 613M388 613L389 614L388 613M397 613L398 614L397 613M411 613L412 614L411 613M419.333 613.667L419.667 614.333L419.333 613.667M479.333 613.667L479.667 614.333L479.333 613.667M487 613L488 614L487 613M501 613L502 614L501 613M509 613L510 614L509 613M517 613L518 614L517 613M523 613L524 614L523 613M531 613L532 614L531 613M540 613L541 614L540 613M546 613L547 614L546 613M554 613L555 614L554 613M562 613L563 614L562 613M576 613L577 614L576 613M584 613L586 615L584 613M354 614L355 615L354 614M363 614L364 615L363 614M369 614L370 615L369 614M377 614L378 615L377 614M383 614L384 615L383 614M391 614L392 615L391 614M399.333 614.667L399.667 615.333L399.333 614.667M405 614L406 615L405 614M413.333 614.667L413.667 615.333L413.333 614.667M427 614L427 617L428 617L427 614M470 614L470 617L471 617L470 614M484.333 614.667L484.667 615.333L484.333 614.667M493 614L494 615L493 614M499.333 614.667L499.667 615.333L499.333 614.667M507 614L508 615L507 614M515 614L516 615L515 614M521 614L522 615L521 614M529 614L530 615L529 614M535 614L536 615L535 614M543 614L544 615L543 614M549 614L550 615L549 614M557 614L558 615L557 614M565 614L567 616L565 614M571 614L572 615L571 614M580 614L582 616L580 614M594 614L597 617L594 614M324 615L325 616L324 615M351 615L352 616L351 615M359 615L360 616L359 615M365 615L366 616L365 615M371 615L372 616L371 615M379 615L380 616L379 615M385 615L386 616L385 615M393 615L394 616L393 615M407.333 615.667L407.667 616.333L407.333 615.667M421 615L421 618L422 618L421 615M435 615L435 621L436 621L435 615M462 615L462 621L463 621L462 615M476 615L476 618L477 618L476 615M490.333 615.667L490.667 616.333L490.333 615.667M504 615L505 616L504 615M513 615L514 616L513 615M518 615L519 616L518 615M527 615L528 616L527 615M532 615L533 616L532 615M538 615L539 616L538 615M547 615L548 616L547 615M552 615L553 616L552 615M561 615L562 616L561 615M575 615L577 617L575 615M589 615L592 618L589 615M318 616L317 649L318 649C319.911 640.974 321.444 623.619 318 616M322 616L321 649L322 649C323.938 640.861 325.339 623.739 322 616M353 616L354 617L353 616M362 616L363 617L362 616M368 616L369 617L368 616M376 616L377 617L376 616M382 616L383 617L382 616M387 616L388 617L387 616M396.333 616.667L396.667 617.333L396.333 616.667M401 616L402 617L401 616M416.333 616.667L416.667 617.333L416.333 616.667M482.333 616.667L482.667 617.333L482.333 616.667M496 616L497 617L496 616M502.333 616.667L502.667 617.333L502.333 616.667M510 616L511 617L510 616M516 616L517 617L516 616M522 616L523 617L522 616M530 616L531 617L530 616M536 616L537 617L536 616M544 616L545 617L544 616M550 616L551 617L550 616M556 616L557 617L556 616M564 616L566 618L564 616M570 616L571 617L570 616M584 616L586 618L584 616M325 617L325 649L326 649C327.801 641.434 329.552 623.471 325 617M350 617L349 619L350 617M358 617L359 618L358 617M364 617L365 618L364 617M370 617L371 618L370 617M378.333 617.667L378.667 618.333L378.333 617.667M384 617L385 618L384 617M390 617L391 618L390 617M404.333 617.667L404.667 618.333L404.333 617.667M410.333 617.667L410.667 618.333L410.333 617.667M430 617L430 621L431 621L430 617M468 617L468 621L469 621L468 617M488.333 617.667L488.667 618.333L488.333 617.667M494.333 617.667L494.667 618.333L494.333 617.667M508 617L509 618L508 617M514 617L515 618L514 617M519.333 617.667L519.667 618.333L519.333 617.667M528 617L529 618L528 617M533 617L534 618L533 617M539 617L540 618L539 617M548 617L550 619L548 617M553 617L554 618L553 617M559 617L560 618L559 617M573 617L575 619L573 617M579 617L581 619L579 617M599 617L603 621L599 617M355 618L356 619L355 618M361 618L362 619L361 618M367 618L368 619L367 618M372 618L373 619L372 618M386.333 618.667L386.667 619.333L386.333 618.667M392 618L393 619L392 618M398 618L399 619L398 618M418 618L418 621L419 621L418 618M424 618L424 621L425 621L424 618M474 618L474 621L475 621L474 618M480 618L480 621L481 621L480 618M500 618L501 619L500 618M505 618L506 619L505 618M511.333 618.667L511.667 619.333L511.333 618.667M525 618L526 619L525 618M531 618L532 619L531 618M537 618L538 619L537 618M543 618L544 619L543 618M557 618L559 620L557 618M563 618L564 619L563 618M568 618L569 619L568 618M588 618L591 621L588 618M594 618L597 621L594 618M351 619L352 620L351 619M357 619L358 620L357 619M363 619L364 620L363 619M369 619L370 620L369 619M375 619L376 620L375 619M381 619L382 620L381 619M395.333 619.667L395.667 620.333L395.333 619.667M400.333 619.667L400.667 620.333L400.333 619.667M406.333 619.667L406.667 620.333L406.333 619.667M412.333 619.667L412.667 620.333L412.333 619.667M485.333 619.667L485.667 620.333L485.333 619.667M491.333 619.667L491.667 620.333L491.333 619.667M497.333 619.667L497.667 620.333L497.333 619.667M503.333 619.667L503.667 620.333L503.333 619.667M517 619L518 620L517 619M523 619L524 620L523 619M529 619L530 620L529 619M534 619L535 620L534 619M540 619L541 620L540 619M546 619L547 620L546 619M552 619L553 620L552 619M566 619L568 621L566 619M572 619L574 621L572 619M578 619L580 621L578 619M584 619L586 621L584 619M348 620L349 621L348 620M354 620L355 621L354 620M360 620L361 621L360 620M366 620L367 621L366 620M371 620L372 621L371 620M377 620L378 621L377 620M383 620L384 621L383 620M389 620L390 621L389 620M509 620L510 621L509 620M515 620L516 621L515 620M520 620L521 621L520 620M526 620L527 621L526 620M532 620L533 621L532 620M538 620L539 621L538 620M544 620L545 621L544 620M550 620L551 621L550 620M555 620L556 621L555 620M561 620L562 621L561 620M350 621L351 622L350 621M356 621L357 622L356 621M362 621L363 622L362 621M368 621L369 622L368 621M374 621L375 622L374 621M380 621L381 622L380 621M385 621L386 622L385 621M391.333 621.667L391.667 622.333L391.333 621.667M397.333 621.667L397.667 622.333L397.333 621.667M403.333 621.667L403.667 622.333L403.333 621.667M409.333 621.667L409.667 622.333L409.333 621.667M415 621L415 624L416 624L415 621M420 621L420 624L421 624L420 621M426 621L426 625L427 625L426 621M432 621L432 627L433 627L432 621M438 621L438 631L439 631L438 621M460 621L460 631L461 631L460 621M466 621L466 627L467 627L466 621M471 621L471 625L472 625L471 621M477 621L477 624L478 624L477 621M483 621L483 624L484 624L483 621M489.333 621.667L489.667 622.333L489.333 621.667M495.333 621.667L495.667 622.333L495.333 621.667M501.333 621.667L501.667 622.333L501.333 621.667M506.333 621.667L506.667 622.333L506.333 621.667M512 621L513 622L512 621M518 621L519 622L518 621M524 621L525 622L524 621M530 621L531 622L530 621M535 621L536 622L535 621M541 621L542 622L541 621M547 621L548 622L547 621M553 621L554 622L553 621M559 621L560 622L559 621M565 621L567 623L565 621M570 621L572 623L570 621M576 621L578 623L576 621M582 621L584 623L582 621M588 621L591 624L588 621M594 621L597 624L594 621M600 621L604 625L600 621M605 621L611 627L605 621M347 622L348 623L347 622M353 622L354 623L353 622M359 622L360 623L359 622M365 622L366 623L365 622M370 622L371 623L370 622M376 622L377 623L376 622M382.333 622.667L382.667 623.333L382.333 622.667M388.333 622.667L388.667 623.333L388.333 622.667M510.333 622.667L510.667 623.333L510.333 622.667M516.333 622.667L516.667 623.333L516.333 622.667M521 622L522 623L521 622M527 622L528 623L527 622M533 622L534 623L533 622M539 622L540 623L539 622M545 622L546 623L545 622M551 622L552 623L551 622M556 622L558 624L556 622M562 622L564 624L562 622M349 623L348 625L349 623M355 623L356 624L355 623M361 623L362 624L361 623M367 623L368 624L367 623M373.333 623.667L373.667 624.333L373.333 623.667M379.333 623.667L379.667 624.333L379.333 623.667M394 623L395 624L394 623M399.333 623.667L399.667 624.333L399.333 623.667M405.333 623.667L405.667 624.333L405.333 623.667M411 623L411 626L412 626L411 623M486 623L486 626L487 626L486 623M492.333 623.667L492.667 624.333L492.333 623.667M498.333 623.667L498.667 624.333L498.333 623.667M504 623L505 624L504 623M519.333 623.667L519.667 624.333L519.333 623.667M525.333 623.667L525.667 624.333L525.333 623.667M531 623L532 624L531 623M536 623L537 624L536 623M542 623L543 624L542 623M548 623L550 625L548 623M554 623L556 625L554 623M569 623L570 624L569 623M575 623L577 625L575 623M581 623L583 625L581 623M587 623L590 626L587 623M352 624L350 628L351 628L352 624M358 624L359 625L358 624M364 624L365 625L364 624M369 624L368 628L369 628L369 624M384 624L385 625L384 624M390.333 624.667L390.667 625.333L390.333 624.667M396.333 624.667L396.667 625.333L396.333 624.667M417 624L417 627L418 627L417 624M423 624L423 628L424 628L423 624M475 624L475 628L476 628L475 624M481 624L481 627L482 627L481 624M502.333 624.667L502.667 625.333L502.333 624.667M507.333 624.667L507.667 625.333L507.333 624.667M513 624L514 625L513 624M528 624L529 628L530 628L528 624M534 624L535 625L534 624M540 624L541 625L540 624M546 624L548 628L549 628L546 624M561 624L562 625L561 624M567 624L569 626L567 624M572 624L574 626L572 624M593 624L596 627L593 624M599 624L603 628L599 624M345 625L346 626L345 625M354 625L355 626L354 625M360 625L361 626L360 625M366 625L367 626L366 625M375 625L376 626L375 625M381 625L382 626L381 625M387.333 625.667L387.667 626.333L387.333 625.667M402.333 625.667L402.667 626.333L402.333 625.667M408 625L408 628L409 628L408 625M429 625L429 631L430 631L429 625M469 625L469 631L470 631L469 625M490 625L490 628L491 628L490 625M496.333 625.667L496.667 626.333L496.333 625.667M511.333 625.667L511.667 626.333L511.333 625.667M517 625L518 626L517 625M522 625L523 626L522 625M532 625L533 626L532 625M537 625L538 626L537 625M543 625L544 626L543 625M553 625L554 626L553 625M558 625L559 626L558 625M564 625L566 627L564 625M579 625L581 627L579 625M585 625L588 628L585 625M606 625L612 631L606 625M347 626L348 627L347 626M357 626L358 627L357 626M363 626L364 627L363 626M372 626L373 627L372 626M378 626L379 627L378 626M383.333 626.667L383.667 627.333L383.333 626.667M393.333 626.667L393.667 627.333L393.333 626.667M398.333 626.667L398.667 627.333L398.333 626.667M414 626L414 629L415 629L414 626M484 626L484 629L485 629L484 626M499.333 626.667L499.667 627.333L499.333 626.667M505.333 626.667L505.667 627.333L505.333 626.667M514.333 626.667L514.667 627.333L514.333 626.667M520 626L521 627L520 626M526 626L527 627L526 626M535 626L536 627L535 626M541 626L542 627L541 626M550 626L551 627L550 626M556 626L557 627L556 626M562 626L564 628L562 626M571 626L573 628L571 626M577 626L579 628L577 626M592 626L595 629L592 626M344 627L345 628L344 627M353 627L351 631L352 631L353 627M359 627L360 628L359 627M365 627L364 631L365 631L365 627M374 627L375 628L374 627M380.333 627.667L380.667 628.333L380.333 627.667M389.333 627.667L389.667 628.333L389.333 627.667M404.333 627.667L404.667 628.333L404.333 627.667M419 627L419 631L420 631L419 627M434 627L434 636L435 636L434 627M463 627L463 636L464 636L463 627M478 627L478 631L479 631L478 627M493.333 627.667L493.667 628.333L493.333 627.667M508.333 627.667L508.667 628.333L508.333 627.667M518.333 627.667L518.667 628.333L518.333 627.667M523 627L524 628L523 627M533 627L534 631L535 631L533 627M538 627L539 628L538 627M544 627L546 631L547 631L544 627M554 627L555 628L554 627M559 627L561 629L559 627M569 627L571 629L569 627M584 627L586 629L584 627M599 627L603 631L599 627M346 628L347 629L346 628M356 628L357 629L356 628M362 628L363 629L362 628M371 628L372 629L371 628M377.333 628.667L377.667 629.333L377.333 628.667M386.333 628.667L386.667 629.333L386.333 628.667M395.333 628.667L395.667 629.333L395.333 628.667M401 628L401 631L402 631L401 628M410 628L410 631L411 631L410 628M425 628L425 634L426 634L425 628M472 628L472 634L473 634L472 628M487 628L487 631L488 631L487 628M497 628L497 631L498 631L497 628M503.333 628.667L503.667 629.333L503.333 628.667M512.333 628.667L512.667 629.333L512.333 628.667M521.333 628.667L521.667 629.333L521.333 628.667M527 628L528 629L527 628M536 628L537 629L536 628M542 628L543 629L542 628M551 628L552 629L551 628M557 628L559 630L557 628M566 628L568 630L566 628M575 628L577 630L575 628M581 628L584 631L581 628M591 628L594 631L591 628M606 628L612 634L606 628M343 629L342 631L343 629M349 629L350 630L349 629M358 629L359 630L358 629M367 629L368 630L367 629M373.333 629.667L373.667 630.333L373.333 629.667M382.333 629.667L382.667 630.333L382.333 629.667M392.333 629.667L392.667 630.333L392.333 629.667M407 629L407 632L408 632L407 629M416 629L416 633L417 633L416 629M482 629L482 633L483 633L482 629M491 629L491 632L492 632L491 629M506.333 629.667L506.667 630.333L506.333 629.667M515.333 629.667L515.667 630.333L515.333 629.667M524.333 629.667L524.667 630.333L524.333 629.667M530 629L531 630L530 629M539 629L540 630L539 629M549 629L550 630L549 629M555 629L557 631L555 629M564 629L566 631L564 629M573 629L575 631L573 629M588 629L591 632L588 629M597 629L601 633L597 629M345 630L343 634L344 634L345 630M370 630L369 634L370 634L370 630M379.333 630.667L379.667 631.333L379.333 630.667M388.333 630.667L388.667 631.333L388.333 630.667M397.333 630.667L397.667 631.333L397.333 630.667M500.333 630.667L500.667 631.333L500.333 630.667M509.333 630.667L509.667 631.333L509.333 630.667M519.333 630.667L519.667 631.333L519.333 630.667M528 630L529 634L530 634L528 630M552 630L554 634L555 634L552 630M561 630L563 632L561 630M571 630L573 632L571 630M580 630L582 632L580 630M348 631L349 632L348 631M357 631L358 632L357 631M366 631L367 632L366 631M376 631L375 635L376 635L376 631M385.333 631.667L385.667 632.333L385.333 631.667M394.333 631.667L394.667 632.333L394.333 631.667M403 631L403 634L404 634L403 631M413 631L413 634L414 634L413 631M422 631L422 636L423 636L422 631M431 631L431 639L432 639L431 631M467 631L467 639L468 639L467 631M476 631L476 636L477 636L476 631M485 631L485 634L486 634L485 631M494 631L494 634L495 634L494 631M504.333 631.667L504.667 632.333L504.333 631.667M513.333 631.667L513.667 632.333L513.333 631.667M522 631L523 635L524 635L522 631M531 631L532 632L531 631M540 631L541 632L540 631M550 631L551 632L550 631M559 631L561 635L562 635L559 631M568 631L570 633L568 631M577 631L579 633L577 631M587 631L590 634L587 631M596 631L599 634L596 631M605 631L610 636L605 631M614 631L622 639L614 631M341 632L342 633L341 632M350 632L351 633L350 632M363 632L364 633L363 632M372 632L373 633L372 632M381 632L380 636L381 636L381 632M391.333 632.667L391.667 633.333L391.333 632.667M400 632L400 635L401 635L400 632M409 632L409 636L410 636L409 632M488 632L488 636L489 636L488 632M498 632L498 635L499 635L498 632M507.333 632.667L507.667 633.333L507.333 632.667M516 632L517 636L518 636L516 632M525 632L526 633L525 632M535 632L536 633L535 632M547 632L548 633L547 632M557 632L558 633L557 632M566 632L568 636L569 636L566 632M575 632L577 634L575 632M584 632L587 635L584 632M594 632L598 636L594 632M347 633L344 639L345 639L347 633M356 633L357 634L356 633M365 633L363 639L364 639L365 633M378 633L379 634L378 633M387.333 633.667L387.667 634.333L387.333 633.667M396 633L396 636L397 636L396 633M418 633L418 637L419 637L418 633M479 633L479 637L480 637L479 633M501 633L501 636L502 636L501 633M510.333 633.667L510.667 634.333L510.333 633.667M520 633L521 634L520 633M532 633L534 639L535 639L532 633M541 633L542 634L541 633M551 633L554 639L555 639L551 633M563 633L564 634L563 633M573 633L575 635L573 633M582 633L585 636L582 633M604 633L608 637L604 633M340 634L338 638L339 638L340 634M349 634L350 635L349 634M362 634L363 635L362 634M371 634L370 638L371 638L371 634M393 634L392 640L393 640L393 634M406 634L406 637L407 637L406 634M415 634L415 639L416 639L415 634M428 634L428 641L429 641L428 634M470 634L470 641L471 641L470 634M483 634L483 639L484 639L483 634M492 634L492 637L493 637L492 634M505 634L506 640L507 640L505 634M526 634L527 638L528 638L526 634M536 634L537 635L536 634M548 634L549 635L548 634M558 634L560 638L561 638L558 634M579 634L584 640L579 634M592 634L595 637L592 634M601 634L606 639L601 634M614 634L621 641L614 634M342 635L343 636L342 635M355 635L356 636L355 635M368 635L369 636L368 635M377.333 635.667L377.667 636.333L377.333 635.667M390.333 635.667L390.667 636.333L390.333 635.667M402 635L402 638L403 638L402 635M495 635L495 638L496 638L495 635M508.333 635.667L508.667 636.333L508.333 635.667M521.333 635.667L521.667 636.333L521.333 635.667M530 635L531 636L530 635M542 635L543 636L542 635M555 635L556 636L555 635M564 635L566 637L564 635M577 635L579 637L577 635M590 635L593 638L590 635M348 636L349 637L348 636M361 636L362 637L361 636M374 636L373 640L374 640L374 636M386.333 636.667L386.667 637.333L386.333 636.667M412 636L412 640L413 640L412 636M424 636L424 642L425 642L424 636M473 636L473 642L474 642L473 636M486 636L486 640L487 640L486 636M511.333 636.667L511.667 637.333L511.333 636.667M524 636L525 640L526 640L524 636M537 636L538 637L537 636M549 636L550 637L549 636M562 636L564 640L565 640L562 636M575 636L577 638L575 636M600 636L604 640L600 636M613 636L619 642L613 636M341 637L338 643L339 643L341 637M354 637L355 638L354 637M367 637L365 643L366 643L367 637M379.333 637.667L379.667 638.333L379.333 637.667M395.333 637.667L395.667 638.333L395.333 637.667M421 637L421 643L422 643L421 637M477 637L477 643L478 643L477 637M502.333 637.667L502.667 638.333L502.333 637.667M518.333 637.667L518.667 638.333L518.333 637.667M531 637L533 643L534 643L531 637M543 637L544 638L543 637M556 637L559 643L560 643L556 637M569 637L571 639L569 637M585 637L587 639L585 637M610 637L616 643L610 637M376 638L375 642L376 642L376 638M405 638L405 641L406 641L405 638M493 638L493 641L494 641L493 638M522 638L523 642L524 642L522 638M566 638L568 642L569 642L566 638M595 638L598 641L595 638M353 639L354 640L353 639M385.333 639.667L385.667 640.333L385.333 639.667M401 639L401 642L402 642L401 639M417 639L417 644L418 644L417 639M480 639L480 644L481 644L480 639M496 639L496 642L497 642L496 639M512.333 639.667L512.667 640.333L512.333 639.667M544 639L545 640L544 639M577 639L579 641L577 639M593 639L596 642L593 639M609 639L614 644L609 639M343 640L344 641L343 640M362 640L363 641L362 640M394 640L394 643L395 643L394 640M503 640L503 643L504 643L503 640M535 640L536 641L535 640M555 640L556 641L555 640M587 640L590 643L587 640M352 641L353 642L352 641M372 641L371 645L372 645L372 641M411 641L411 645L412 645L411 641M487 641L487 645L488 645L487 641M526 641L527 645L528 645L526 641M545 641L546 642L545 641M565 641L567 645L568 645L565 641M604 641L608 645L604 641M384.333 642.667L384.667 643.333L384.333 642.667M513.333 642.667L513.667 643.333L513.333 642.667M579 642L581 644L579 642M351 643L352 644L351 643M400 643L400 646L401 646L400 643M497 643L497 646L498 646L497 643M546 643L547 644L546 643M596 643L599 646L596 643M350 645L351 646L350 645M383.333 645.667L383.667 646.333L383.333 645.667M514.333 645.667L514.667 646.333L514.333 645.667M547 645L548 646L547 645M581 645L583 647L581 645M349 647L350 648L349 647M548 647L549 648L548 647z"/>
</svg>
