<?xml version="1.0" standalone="yes"?>
<svg width="900" height="900">
<path style="fill:#050505; stroke:none;" d="M479 253C470.367 255.576 460.844 255.625 452 257.651C429.509 262.804 407.348 270.304 387 281.309C372.932 288.917 359.546 297.571 346 306.05C338.966 310.453 329.672 316.793 321 316.641C315.233 316.54 310.936 312.294 306 310L291 363L285 351L284 351C279.62 368.779 280 386.838 280 405L279 405L271 385L270 385C270 448.09 289.647 506.334 340 547.385C351.37 556.655 364.043 564.383 377 571.219C385.95 575.942 396.638 579.927 403.956 587.093C414.705 597.619 402.667 607.492 393 613L393 614L448 607L431 619L431 620C447.658 618.639 463.782 611.327 479 605L455 624L455 625C511.997 613.085 547.056 567.683 579.76 524C588.287 512.61 598.295 506.27 608 520L609 520C613.44 501.352 608.573 479.422 605 461L606 461L616 477L617 477C616.254 459.66 609.182 442.938 603 427L620 448L621 448C615.886 425.897 604.12 403.873 590.349 386C585.404 379.583 579.874 371.735 572.985 367.324C549.417 352.235 522.806 351 496 351L496 353C529.625 355.747 558.899 381.064 579 406C571.132 402.441 553.299 392.486 547.318 404.044C544.753 409.001 546.958 415.869 548.004 421C550.57 433.588 554.029 446.13 554.911 459C557.909 502.786 539.827 551.062 503 577C507.811 568.216 522.442 538.803 506.985 532.897C499.359 529.984 487.975 536.41 481 539.2C465.488 545.404 448.783 550.226 432 550.961C357.287 554.233 304.278 492.468 291 424L292 424C295.981 432.537 308.432 442.173 316.61 432.891C327.808 420.18 329.283 396.344 336.309 381C352.863 344.846 380.404 312.086 417 295C403.272 308.737 391.316 324.446 385 343L433 308.309L489 293.121L522 276L522 275L471 277L471 276L496 265L496 264L451 270L451 269L480 254L479 253M451 270L450 271L451 270M580 406L579 407L580 406M603 426L602 427L603 426M503 577L502 578L503 577M480 604L479 605L480 604M449 606L448 607L449 606z"/>
</svg>
