<?xml version="1.0" standalone="yes"?>
<svg width="468" height="481">
<path style="fill:#010101; stroke:none;" d="M9.6034 8.02777C6.64918 10.3676 8 17.6845 8 21L8 60L8 218L8 405L8 453C8 457.513 6.10491 467.706 9.02778 471.397C12.3982 475.652 28.902 473 34 473L109 473L368 473L434 473C439.657 473 453.85 475.573 458.397 471.972C461.351 469.632 460 462.316 460 459L460 420L460 262L460 75L460 27C460 22.487 461.895 12.2938 458.972 8.60339C455.602 4.34781 439.098 7 434 7L359 7L100 7L34 7C28.3433 7 14.15 4.42679 9.6034 8.02777z"/>
</svg>
