<?xml version="1.0" standalone="yes"?>
<svg width="900" height="900">
<path style="fill:#040404; stroke:none;" d="M543 133C539.972 143.242 542 156.338 542 167C542 181.662 539.455 198.664 542.518 213C544.768 223.534 550.664 233.686 555.86 243C564.585 258.639 573.745 273.973 581.753 290C583.812 294.12 590.063 303.202 588.582 307.895C583.893 322.755 557.856 307.88 551 303.799C523.181 287.241 495.343 271.372 464 262.427C446.847 257.533 429.107 257.073 412 253L412 254L439 268L439 269L395 265L395 266L418 276L418 277C402.285 274.082 383.716 274.082 368 277L368 278C378.261 282.21 406.178 293.122 402.551 308C400.872 314.887 392.601 319.749 387 323.189C373.513 331.474 359.731 339.002 347 348.478C314.195 372.898 282.63 414.222 277 456L278 456L294 435C288.551 451.108 282.738 467.819 282 485L283 485L293 469L294 469L291 525C296.188 522.49 300.577 515.695 307 516.498C317.125 517.765 324.409 530.755 330.011 538C344.6 556.868 359.143 574.942 378 589.789C412.899 617.268 455.943 631.031 500 632.961C513.786 633.564 527.286 631.038 541 631C537.999 626.615 530.762 625.26 526 623.139C516.313 618.825 506.472 614.107 498.174 607.421C493.261 603.462 486.812 596.804 490.18 590C493.592 583.105 501.542 579.151 508 575.706C520.533 569.021 533.165 562.56 545 554.667C573.434 535.701 594.92 509.636 609.742 479C636.015 424.694 630.312 362.93 613.279 307C606.521 284.808 595.035 263.693 590.014 241C582.623 207.596 588 168.176 588 134L543 133M472 291C508.625 306.046 539.603 334.863 557.742 370C566.313 386.604 570.033 410.973 582.329 424.956C590.865 434.664 598.136 426.517 606 421C605.7 435.545 599.979 450.786 594.281 464C570.922 518.172 520.984 548.406 463 546.985C447.305 546.601 431.653 540.743 417 535.656C410.394 533.362 401.966 528.774 395.044 532.457C380.12 540.397 394.361 566.017 399 576C388.336 571.056 379.432 559.369 372.71 550C353.845 523.706 345.224 493.251 346.015 461C346.34 447.714 356.324 422.844 348.91 411.105C341.492 399.359 324.374 410.594 316 415C336.759 371.119 391.1 349.029 437 351.039C455.084 351.831 471.521 359.005 489 362.55C496.298 364.03 503.651 363.196 506.195 354.999C511.113 339.153 494.552 316.804 484.829 306C480.869 301.6 473.417 296.845 472 291M295 434L294 435L295 434z"/>
</svg>
