<?xml version="1.0" standalone="yes"?>
<svg width="900" height="900">
<path style="fill:#040404; stroke:none;" d="M330 289L320 325L306.589 322.132L303.75 331L300 358L286 350C286 396.038 286.628 438.017 306.309 481C321.672 514.552 357.652 550.104 345 589L384 591L377 605L414 603L402 619C433.506 618.35 466.884 607.346 495 593.742C523.899 579.759 548.144 563.589 581 565L585 526L599 531L598 494L613 504C611.715 493.834 612.888 477.896 607.143 469.093C600.302 458.612 582.229 453.592 571 450L582 486C547.018 481.579 532.959 511.404 511.91 534C488.655 558.965 457.756 579.014 424 586C429.115 563.688 425.505 544.489 403 533C430.056 521.007 460.438 506.466 461.961 472C462.815 452.652 450.967 435.008 458.465 416C476.67 369.841 532.705 375.221 571 384C562.77 364.901 543.95 347.557 546.171 325C547.315 313.37 554.142 304.598 558 294L522 291L533 277L498 277L512 261C481.037 261 449.829 266.133 420 274.424C390.875 282.52 360.584 294.678 330 289M483 295C476.511 308.719 465.592 321.622 468.326 338C469.358 344.183 473.149 349.152 475 355C447.057 368.24 421.964 389.3 415.211 421C410.908 441.198 418.085 468.678 402.907 484.996C394.919 493.583 373.086 504.888 361.001 498.821C352.484 494.545 345.785 482.711 340.667 475C318.331 441.346 313 404.487 313 365C318.647 365.446 324.325 367.376 330 366.557C352.207 363.353 370.072 345.754 388 333.67C414.747 315.641 449.723 295.687 483 295z"/>
</svg>
