<?xml version="1.0" standalone="yes"?>
<svg width="900" height="900">
<path style="fill:#040404; stroke:none;" d="M440 250L443 269L413 260L414 278L383 270C382.996 305.283 361.998 333.523 341.003 360C316.559 390.827 287.595 426.262 277 465L295 466L285 496L301 499L294 531C336.607 540.768 370.409 578.999 407 601C416.399 606.651 425.951 612.568 436 616.997C440.42 618.945 449.199 621.317 451.976 625.418C455.3 630.328 454.823 640.209 456.004 646C458.664 659.045 462.727 673.221 469 685C455.535 683.9 441.801 678.434 429 674.344C379.817 658.63 328.73 627.035 276 627C279.635 642.092 281.739 657.779 285 673C285.987 677.607 286.797 687.921 290.728 690.972C293.958 693.48 301.1 691.825 305 692.286C317.758 693.791 330.375 695.291 343 697.8C390.456 707.232 440.377 725.996 489 727L479 707L508 711L499 692L529 695C520.685 664.596 507.903 639.591 515.428 607C525.479 563.475 565.396 529.677 589.974 494C622.102 447.365 641 388.736 641 332C565.052 332 511.642 266.575 440 250M457 586C443.923 583.667 430.085 571.572 420 563.389C399.795 546.994 382.86 527.893 365.093 509.015C350.526 493.535 334.21 476.801 313 471C315.303 458.082 325.946 444.348 333.63 434C356.911 402.647 388.662 382.179 414.91 354C425.79 342.32 435.142 328.461 439.573 313C441.83 305.123 441.754 296.74 444 289C467.774 298.898 489.95 313.584 510 329.6C530.44 345.927 549.214 364.68 571 379.252C576.549 382.963 595.015 388.381 597.356 394.275C599.054 398.547 595.081 406.007 593.575 410C588.356 423.839 582.264 437.5 574.305 450C558.948 474.12 539.91 494.63 518 512.92C494.021 532.936 464.651 553.715 457 586z"/>
</svg>
