<?xml version="1.0" standalone="yes"?>
<svg width="900" height="900">
<path style="fill:#040404; stroke:none;" d="M351 118C355.209 130.38 371.118 141.254 379.715 151C407.591 182.606 447.38 222.651 441.816 269C437.354 306.164 389.682 321.07 362 336.873C322.871 359.21 289.325 389.203 266 428C258.523 440.436 249.15 455.442 247 470C257.179 468.11 266.04 469.945 276 472C297.797 419.647 342.718 382.351 396 365.344C435.591 352.708 501.811 356.596 503 299C532.095 319.495 552.285 358.018 565.999 390C575.349 411.804 585.34 442.082 609 452C588.15 496.074 536.585 524.902 491 535.349C465.373 541.222 434.386 540.434 413.015 557.669C400.508 567.755 385.46 598.603 394.028 614.961C396.649 619.965 403.542 623.612 408 626.848C420.907 636.217 439.063 649.159 455 652C444.326 608.673 483.031 587.894 516 571.691C554.758 552.644 591.418 527.889 617.625 493C625.313 482.765 635.354 470.396 639 458L624 457L640 422C620.743 420.427 632.106 404.7 634.989 392C635.785 388.496 637.81 383.799 634.667 380.966C625.405 372.619 614.067 367.279 605.015 358C584.417 336.886 567.651 312.258 546 292.089C536.769 283.491 527.124 275.163 517 267.63C511.58 263.597 503.938 259.97 499.702 254.674C493.054 246.364 490.863 231.685 485.892 222C472.015 194.966 453.918 170.983 434.13 148C427.643 140.465 419.786 127.745 410.985 123.013C406.528 120.616 400.851 121.289 396 120.714C381.142 118.956 365.934 118.641 351 118z"/>
</svg>
