<?xml version="1.0" standalone="yes"?>
<svg width="900" height="900">
<path style="fill:#040404; stroke:none;" d="M480 134L510.742 187L526.797 222L534.086 240.61L545 247.576L575 263C571.04 232.333 556.238 202.691 543.373 175C539.206 166.029 533.572 148.918 525.61 142.858C522.124 140.205 516.173 140.328 512 139.576C501.37 137.659 490.715 135.361 480 134M499 266C501.235 275.282 502.219 285.464 501.985 295C501.862 300.035 499.588 306.224 502.028 310.985C507.439 321.544 522.172 331.756 530.13 341C532.94 344.263 537.947 348.409 538.215 353C538.561 358.903 533.783 366.849 531.244 372C522.289 390.167 508.044 406.19 490 415.68C471.954 425.17 452.55 423.878 433 426.286C402.086 430.095 363.807 447.994 349 477C344.479 470.299 335.82 452.249 327.015 451.06C322.021 450.386 317.877 459.567 315.695 463C307.405 476.047 298.644 492.633 296 508C324.072 525.481 343.856 555.856 367 579C375.198 587.198 384.267 598.216 395 603C395.072 594.256 396.658 585.44 398.884 577C399.95 572.959 403.245 567.201 402.212 563C398.192 546.646 362.605 528.569 376.155 510C388.3 493.356 404.903 480.514 425 475.155C453.329 467.601 480.882 472.535 508 458.219C543.189 439.643 565.944 403.895 575.373 366C577.719 356.574 583.463 339.514 580.357 330.001C577.959 322.656 565.768 315.586 560 310.754C541.457 295.219 521.456 275.689 499 266z"/>
</svg>
