<?xml version="1.0" standalone="yes"?>
<svg width="900" height="900">
<path style="fill:#040404; stroke:none;" d="M374 237C374.175 258.179 377.429 276.966 371.576 298C360.232 338.761 330.806 371.239 309.603 407C285.856 447.053 271.586 488.429 263 534L298 538C303.382 496.327 323.437 454.748 349.211 422C371.325 393.902 401.325 370.597 418.688 339C427.346 323.245 430.753 307.428 434 290C452.866 297.319 471.055 306.954 488 318C492.716 321.074 501.977 324.646 504.532 329.899C506.041 333.002 503.899 337.909 503.127 341C500.442 351.739 496.706 362.091 491.752 372C468.745 418.014 418.261 431.296 387.665 470C371.926 489.911 360.773 513.421 354.627 538C353.122 544.016 348.29 555.641 350.643 561.674C352.111 565.439 357.801 567.665 361 569.681C370.273 575.526 379.316 581.846 389 587C395.452 552.266 402.72 521.691 427.514 494.718C444.352 476.401 467.926 467.017 487 451.54C515.767 428.199 536.485 393.313 544 357C559.169 368.66 576.81 378.071 595 384C584.637 420.519 567.534 453.655 543.385 483C525.181 505.121 503.02 523.764 486.152 547C473.855 563.94 464.467 584.898 463.025 606C462.695 610.825 460.423 618.02 462.603 622.606C464.665 626.943 472.896 628.029 477 629.344C490.984 633.825 505.401 638.115 520 640C520 583.378 555.139 543.31 584.308 498C605.354 465.307 622.117 428.191 630 390L614.693 387.258L618 357L601 354C602.176 347.671 606.793 329.952 602.971 324.513C600.341 320.769 591.161 319.79 587 318.308C573.751 313.588 560.476 307.695 548 301.216C491.338 271.792 436.93 248.857 374 237z"/>
</svg>
