<?xml version="1.0" standalone="yes"?>
<svg width="900" height="900">
<path style="fill:#040404; stroke:none;" d="M453 224C454.697 244.778 460.673 261.172 449.688 281C434.568 308.292 396.666 319.064 370 331.309C329.52 349.896 293.467 378.712 267.579 415C259.749 425.975 248.404 440.514 246 454C252.194 454 258.012 454.261 264 456.036C266.989 456.923 271.536 459.516 274.61 457.879C277.768 456.198 279.608 450.912 281.425 448C285.993 440.677 291.285 433.74 296.665 427C310.808 409.282 329.209 393.904 349 382.862C370.117 371.08 393.262 363.706 417 359.424C436.942 355.828 457.978 355.332 477 347.796C495.807 340.346 510.263 323.309 513 303C523.326 310.335 531.748 323.357 538.424 334C553.337 357.772 563.863 382.848 573.808 409C580.6 426.862 588.829 453.883 608 462C603.492 473.639 591.14 483.937 582 492.05C552.705 518.055 517.376 532.398 479 538.562C456.241 542.217 430.107 541.196 410 554.09C395.561 563.349 386.725 578.399 383.285 595C382.433 599.116 380.417 605.746 381.832 609.83C383.643 615.06 390.91 619.666 395 623.08C407.561 633.566 423.184 646.995 439 652C439 643.492 438.658 635.198 441.359 627C452.136 594.29 488.982 584.518 517 571.691C551.942 555.694 583.126 536.687 610.089 508.961C620.14 498.626 632.813 485.685 638 472L623 470C629.344 459.671 638.836 448.138 641 436C620.676 432.953 639.038 408.802 642 396C611.186 382.701 592.664 343.081 572.6 318C540.627 278.031 500.752 243.591 453 224z"/>
</svg>
