<?xml version="1.0" standalone="yes"?>
<svg width="900" height="900">
<path style="fill:#040404; stroke:none;" d="M418 226C426.449 255.996 421.433 284.216 400.115 307.572C376.183 333.792 343.436 351.201 318 376.015C265.641 427.094 235 499.804 235 573C235 596.71 236.561 619.524 239.87 643C240.678 648.736 240.975 664.191 245.738 667.972C250.746 671.947 268.202 669.733 275 671C274.79 660.887 271.104 650.95 269.435 641C266.663 624.476 264.771 607.712 264.039 591C262.557 557.146 271.488 526.471 279 494C300.4 501.894 316.657 521.836 330.611 539C347.846 560.198 365.329 581.295 386 599.282C394.308 606.51 403.603 616.001 414 620L416 602L444 619L447 604L478 619C486.519 589.428 519.961 570.413 543 553.127C580.556 524.947 626.064 484.298 639 437L625.816 434.397L627.573 426L636 402L622 399L630 364C597.968 350.664 574.565 322.669 549 300.285C512 267.889 466.706 237.166 418 226M608 429C604.636 440.437 595.985 451.589 588.87 461C566.604 490.456 536.587 512.181 503 527.139C472.967 540.514 436.202 551.042 422 584C378.156 554.02 368.047 499.316 338.24 459C330.846 448.999 321.705 442.46 312 435L312 434C330.639 412.651 350.881 393.926 376 380.309C416.134 358.551 473.765 346.728 481 293C493.032 296.129 504.473 310.47 513 319C534.012 340.02 549.67 364.97 566.86 389C577.78 404.266 590.211 421.323 608 429z"/>
</svg>
