<?xml version="1.0" standalone="yes"?>
<svg width="900" height="900">
<path style="fill:#040404; stroke:none;" d="M450 259C449.369 289.572 422.424 306.035 398 318.247C367.364 333.565 337.221 348.246 311 370.729C301.852 378.573 289.6 388.205 284 399L302 401C294.091 408.931 284.083 418.386 280 429L293 433L275 466C302.83 479.224 315.505 514.868 329.85 540C338.777 555.641 348.449 571.237 360.134 585C367.729 593.944 380.609 603.576 385.682 614C389.659 622.172 388.247 635.832 390.211 645C394.919 666.983 405.118 687.653 416.284 707C420.366 714.072 425.266 724.529 432.09 729.272C436.941 732.644 444.375 733.692 450 735.29C464.933 739.533 480.595 743.043 496 745C472.999 711.959 436.185 673.466 446.899 629C457.335 585.687 518.251 572.813 552 552.989C607.289 520.513 658.166 459.602 667 394C635.282 394 616.521 374.789 597.789 351C577.935 325.785 558.407 299.661 534 278.576C526.244 271.876 517.652 262.733 508 259L510 279L482 259L482 276L450 259M510 301C533.916 324.916 550.55 353.241 564.14 384C576.09 411.049 583.856 439.922 609 458C604.639 467.167 596.915 474.568 590.17 481.999C562.652 512.318 524.654 529.547 485 537.197C454.394 543.101 411.704 541.996 396 575L394 575C377.655 552.245 365.139 529.055 357.427 502C347.548 467.339 346.832 433.188 318 408L318 407C344.173 381.954 378.117 368.075 413 360.424C436.283 355.318 462.469 355.471 483 341.896C492.289 335.754 499.14 327.089 503.688 317C506.012 311.845 506.729 305.586 510 301z"/>
</svg>
