<?xml version="1.0" standalone="yes"?>
<svg width="900" height="900">
<path style="fill:#040404; stroke:none;" d="M381 235C382.957 250.483 383.654 265.577 380.551 281C371.458 326.194 338.818 360.92 313.745 398C296.217 423.923 281.894 452.318 272 482C267.283 496.15 261.311 511.959 261 527L294 533C299.051 521.26 300.887 508.033 305.425 496C314.777 471.203 327.459 448.006 343.651 427C357.595 408.911 373.889 393.112 390 377C400.24 366.759 412.715 355.227 419 342C425.167 344.657 436.378 355.749 442.896 354.967C447.818 354.376 451.8 344.077 453 340L476 356L483 338L504 353L510 332C538.695 352.628 564.8 378.264 599 389.667C605.613 391.872 625.11 399.54 631.436 394.968C634.822 392.521 635.202 383.837 635.997 380C639.108 364.976 641.998 349.37 642 334C611.017 334 581.73 320.148 555 305.691C541.847 298.578 528.427 288.156 514 284L513 307L491 295L489 316L465 303C464.492 306.933 464.076 316.773 460.436 319.122C456.937 321.38 438.856 310.356 437.201 306.787C435.324 302.737 438.651 294.345 439.271 290C440.876 278.742 443.06 263.158 439.427 252.133C437.74 247.011 429.441 246.341 425 244.975C410.998 240.67 395.719 235.632 381 235z"/>
</svg>
