<?xml version="1.0" standalone="yes"?>
<svg width="900" height="900">
<path style="fill:#040404; stroke:none;" d="M286 369C278.856 372.701 273.194 378.84 266 382.677C255.017 388.534 244.122 389 232 389C235.681 406.833 241.515 424.293 248.719 441C250.925 446.116 253.491 455.847 258.39 458.972C262.826 461.802 271.279 459.392 276 458.335C286.015 456.092 295.621 451.141 302.985 443.96C305.17 441.83 309.17 435.084 312.83 436.207C319.485 438.249 327.87 453.902 333.001 458.996C346.885 472.782 363.687 483.663 382 490.575C400.829 497.682 420.989 499.837 441 498.961C458.371 498.2 475.832 494.583 493 499.428C510.226 504.29 518.802 516.359 532 527L541 502L555 522L564 500L577 526L578 526C594.081 495.787 614.676 466 652 466C647.236 449.462 636.668 433.064 626.974 419C623.919 414.566 620.046 406.714 614.829 404.604C608.074 401.873 596.105 406.919 590 409.782C564.973 421.515 552.557 449.588 549 476C542.385 472.423 537.195 466.351 531 462.039C518.899 453.616 504.652 448.086 490 446.286C467.859 443.567 450.205 454.11 429 456.714C400.375 460.229 372.826 446.826 353 427C346.407 420.407 332.092 407.125 331.809 397C331.599 389.494 339.451 378.605 342.753 372C351.236 355.033 361.209 338.962 372.885 324C378.383 316.954 386.813 310.672 391.218 303C393.442 299.128 392.002 293.312 392 289C391.996 278.764 392.718 269.138 394 259C373.075 270.922 354.207 290.276 338.17 308C329.786 317.265 322.126 329.717 312 337C312 293.395 316.284 253.848 333.424 213C343.472 189.055 359.072 167.719 369 144C358.265 146.461 336.917 147.885 328.39 154.738C324.685 157.717 322.828 163.85 320.753 168C314.878 179.751 309.6 191.778 304.797 204C284.836 254.8 272.007 314.918 286 369z"/>
</svg>
