<?xml version="1.0" standalone="yes"?>
<svg width="900" height="900">
<path style="fill:#040404; stroke:none;" d="M307 309L270 313C270 389.999 299.423 456.886 329.576 526C336.613 542.13 343.299 558.218 348.656 575C350.031 579.309 350.723 591.343 354.589 593.883C359.595 597.172 375.343 591.097 381 590L384 609L411 602L413 622C485.323 607.033 549.459 552.008 625 552C624.789 475.659 577.344 409.201 552.692 340C541.213 307.777 538.996 277.702 539 244C525.612 245.057 512.156 247.764 499 250.4C495.337 251.134 487.448 251.413 485.028 254.589C482.721 257.616 484 264.404 484 268C484 279.788 484.006 291.334 485.92 303C494.524 355.452 525.967 396.59 551.139 442C558.729 455.692 564.653 470.387 570.192 485C571.668 488.894 576.407 497.602 574.647 501.697C572.751 506.106 559.297 508.312 555 510.15C537.332 517.711 520.531 526.6 504 536.397C481.443 549.764 458.38 562.84 434 572.6C428.71 574.718 414.795 582.906 409.279 580.644C405.097 578.928 403.646 567.939 402.333 564C397.189 548.57 389.893 534.097 381.85 520C368.353 496.345 353.137 473.55 341.258 449C320.496 406.09 307.396 356.821 307 309z"/>
</svg>
