<?xml version="1.0" standalone="yes"?>
<svg width="900" height="900">
<path style="fill:#050505; stroke:none;" d="M484 227C488.312 245.112 479.009 259.119 476 276C482.028 280.242 497.781 291.081 498.473 299C498.951 304.473 490.42 307.29 492.137 313C494.869 322.089 504.829 330.18 509 339L495 346L506 376L489 379L493 407C482.576 406.999 472.234 405.306 462 403.389C458.6 402.752 453.232 402.584 450.988 399.567C447.025 394.238 450.35 383.188 444.487 379.028C438.089 374.487 426.977 381.309 420.418 376.972C414.857 373.295 415.394 363.345 408.816 360.117C400.877 356.222 390.147 365.713 382 363.306C375.535 361.397 372.848 352.763 366 351.538C356.775 349.888 347.78 360.502 339 361.644C331.921 362.564 326.271 353.35 319 355.299C311.902 357.201 304.685 364.466 299 368.884C281.264 382.668 254.276 405.055 247 427C257.433 426.601 265.893 434.226 275 438C289.442 418.517 307.631 401.805 328 388.692C333.6 385.087 343.166 377.185 349.999 376.955C357.396 376.707 358.03 388.609 365.043 388.526C372.732 388.436 382.15 380.075 389.867 382.694C396.203 384.844 393.295 394.527 397.738 397.968C401.945 401.226 419.305 398 425 398L426.028 417.397L449 423L434 468L413 464L411 490L392 491L394.307 519.301L380 527C381.572 533.793 392.128 549.662 389.759 555.83C388.264 559.723 382.92 562.928 380.174 566C373.169 573.836 363.21 587.886 363.318 599C363.377 605.039 370.193 610.931 374.035 615C385.427 627.064 397.456 640.633 412 649C413.291 639.002 416.799 629.493 422.24 621C424.476 617.509 430.848 612.307 430.797 608C430.714 601.023 414.397 588.835 410 583L424 575C421.317 570.291 406.34 553.827 409.828 548.513C412.235 544.847 421.051 544.51 425 544L416 517L436 517L432 492L466 498.575L479.486 500.858L485 519L514 515L523 531C532.069 529.773 543.019 520.896 551.714 521.508C558.037 521.953 560.611 532.414 568 530.701C577.536 528.491 583.762 517.702 593 515.529C598.891 514.144 603.97 521.587 610 519.651C617.632 517.2 623.784 507.561 629.036 502C645.317 484.758 668.703 457.106 673 433L647 423C633.797 445.62 620.81 466.41 602 484.996C598.1 488.85 586.036 502.743 580.09 501.458C576.108 500.598 573.105 494.095 571 491L542 505L537 489L509 497L508 478C502.591 478.427 487.767 483.004 483.694 478.397C481.479 475.891 483.601 470.818 484.21 468C485.868 460.328 487.544 439.71 493.434 434.603C497.195 431.342 507.984 431.973 513 431L513.773 404.499L530 396C529.062 388.737 521.465 374.132 523.626 367.514C525.477 361.842 535.275 359.94 535.045 353C534.729 343.476 522.082 335.281 522.542 326C522.776 321.275 527.665 316.271 529.561 312C533.874 302.283 536.801 291.595 537.83 281C538.177 277.432 538.974 272.26 537.227 269C534.42 263.765 528.405 259.551 524 255.718C512.603 245.801 498.649 231.668 484 227z"/>
</svg>
