<?xml version="1.0" standalone="yes"?>
<svg width="900" height="900">
<path style="fill:#040404; stroke:none;" d="M504 258C504 330.894 529.693 395.518 550.974 464C557.025 483.469 560.905 503.307 566 523L454 555.975L387 574C381.554 552.951 377.446 531.825 370.975 511C349.074 440.525 322.207 371.038 322 296L281 300C281 354.954 292.75 411.208 307.424 464C318.031 502.156 332.842 542.319 336 582L361 578L364 599L390 595L392 616C453.225 608.093 511.547 578.891 573 574L576 650C546.132 657.193 514.317 659.956 484 665.424C445.524 672.364 405.195 682.191 366 683L362 726C411.098 725.865 461.366 715.617 510 709.282C523.971 707.462 537.984 705.57 552 704.169C557.097 703.659 565.101 704.527 569.697 702.258C576.647 698.826 571.124 684.111 575.027 678.318C578.87 672.614 589.751 678.001 594.258 673.397C599.327 668.217 593.894 657.355 596.603 651.148C599.026 645.6 612.004 647 617 647C617 591.663 613.762 537.168 601.349 483C583.736 406.144 555 331.844 555 252L504 258z"/>
</svg>
