<?xml version="1.0" standalone="yes"?>
<svg width="900" height="900">
<path style="fill:#040404; stroke:none;" d="M227 416C229.534 432.919 240.731 450.56 249.4 465C252.168 469.612 255.735 478.378 261.093 480.382C273.168 484.898 293.688 469.152 300.7 460.999C319.845 438.739 325.794 407.636 336.449 381C342.881 364.919 353.112 350.081 359 334L360 334C361.695 339.885 368.619 346.954 368.088 353C367.348 361.422 357.19 370.264 359.068 379C360.643 386.325 371.533 388.601 372.243 396.004C372.938 403.248 366.418 412.617 369.604 419.621C372.882 426.828 385.179 425.091 388.258 432.133C390.969 438.336 386.079 447.922 390.028 453.487C394.733 460.118 407.117 454.504 412.411 459.603C417.249 464.264 413.2 473.579 417.028 478.397C420.882 483.247 436.608 478.232 442 478L442 499L464 497L458 521L478 522L466 549L483 554L464 580L474.369 589.089L468.999 596.424L451 611C459.855 624.401 467.861 636.262 468 653C483.064 649.462 498.905 633.289 510 623.086C544.068 591.756 566.558 552.67 585.691 511C598.507 483.09 616.314 444.631 652 443C648.361 427.507 632.263 410.55 621.83 399C618.454 395.262 613.338 388.193 608 387.502C594.373 385.739 576.061 402.179 569.04 412C550.752 437.579 550.877 472.483 543.116 502C535.958 529.221 521.808 550.15 510 575L508 575C505.884 571.115 499.534 566.577 499.828 562C500.592 550.112 521.23 538.95 504.002 530.248C501.695 529.084 499.383 527.992 497 527C498.767 521.769 507.497 503.624 502.393 499.14C498.442 495.669 489.94 496.19 485 495C486.319 490.539 488.575 473.19 484.397 470.042C480.551 467.146 469.274 470.894 465 472C464.056 466.99 463.385 451.652 457.722 449.708C452.688 447.979 441.989 454.376 437 456L431 432C426.062 433.217 414.793 436.586 410.603 432.397C406.299 428.092 408.993 413.423 410 408C405.029 406.428 396.199 406.809 392.643 402.49C388.37 397.3 396.159 380.659 398 375C395.367 373.462 392.585 372.152 390.001 370.532C374.824 361.017 396.924 349.423 395.898 338C395.413 332.598 387.601 329.808 388.157 324C389.124 313.91 403.871 308.263 406.699 299C408.431 293.328 400.207 287.915 403.697 282.17C409.04 273.371 424.542 270.008 428.382 260.675C431.746 252.499 427.816 236.366 429 227C415.89 231.15 402.915 241.953 392 250.127C357.375 276.055 330.831 309.254 307 345C286.647 375.529 266.772 410.947 227 416z"/>
</svg>
