<?xml version="1.0" standalone="yes"?>
<svg width="900" height="900">
<path style="fill:#010101; stroke:none;" d="M253 251L255 254L253 251M257 251L258 260L259 260L257 251M261 251L261 255L261 256L261 257L261 258L262 264L263 264L263 260L263 259L263 258L263 257L261 251M265 251L265 255L265 256L265 257L265 258L265 259L265 260L265 261L265 262L265 266L267 268L268 268L268 269L269 269L269 270L270 270L270 271L271 271L271 272L272 272L272 273L273 273L273 274L274 274L274 275L275 275L275 276L276 276L276 277L277 277L277 278L278 278L278 279L279 279L279 280L280 280L280 281L281 281L281 282L282 282L282 283L283 283L283 284L284 284L284 285L285 285L285 286L286 286L286 287L287 287L287 288L288 288L288 289L289 289L289 290L290 290L290 291L291 291L291 292L292 292L292 293L293 293L293 294L294 294L294 295L295 295L295 296L296 296L296 297L297 297L297 298L298 298L298 299L299 299L299 300L300 300L300 301L301 301L301 302L302 302L302 303L303 303L303 304L304 304L304 305L305 305L305 306L306 306L306 307L307 307L307 308L308 308L308 309L309 309L309 310L310 310L310 311L311 311L311 312L312 312L312 313L313 313L313 314L314 314L314 315L315 315L317 317L317 313L317 312L317 311L317 310L317 306L315 304L314 304L314 303L313 303L311 298L310 297L308 298L307 295L305 293L304 293L304 292L303 292L301 290L302 288L301 287L300 286L297 286L296 283L292 280L293 278L292 277L286 274L283 270L284 268L283 267L281 265L280 265L280 264L279 264L275 262L274 259L272 257L271 257L271 256L270 256L270 255L269 255L269 254L268 254L265 251M319 251L319 255L319 256L319 257L319 258L319 259L319 260L319 261L319 262L319 263L319 264L319 265L319 266L319 267L319 268L319 269L319 270L319 271L319 272L319 273L319 274L319 275L319 276L319 277L319 278L319 279L319 280L319 281L319 282L319 283L319 284L319 285L319 286L319 287L319 288L319 289L319 290L319 291L319 292L319 293L319 294L319 295L319 296L319 297L319 298L319 299L319 300L319 301L319 302L319 303L319 304L319 305L319 306L319 307L319 308L319 309L319 310L319 311L319 312L319 313L319 314L320 322L321 322L321 318L321 317L321 316L321 315L321 314L321 313L321 312L321 311L321 310L321 309L321 308L321 307L321 306L321 305L321 304L321 303L321 302L321 301L321 300L321 299L321 298L321 297L321 296L321 295L321 294L321 293L321 292L321 291L321 290L321 289L321 288L321 287L321 286L321 285L321 284L321 283L321 282L321 281L321 280L321 279L321 278L321 277L321 276L321 275L321 274L321 273L321 272L321 271L321 270L321 269L321 268L321 267L321 266L321 265L321 264L321 263L321 262L321 261L321 260L321 259L319 251M323 251L323 255L323 256L323 257L323 258L323 259L323 260L323 261L323 262L323 263L323 264L323 265L323 266L323 267L323 268L323 269L323 270L323 271L323 272L323 273L323 274L323 275L323 276L323 277L323 278L323 279L323 280L323 281L323 282L323 283L323 284L323 285L323 286L323 287L323 288L323 289L323 290L323 291L323 292L323 293L323 294L323 295L323 296L323 297L323 298L323 299L323 300L323 301L323 302L323 303L323 304L323 305L323 306L323 307L323 308L323 309L323 310L323 311L323 312L323 313L323 314L323 315L323 316L323 317L323 318L324 325L325 325L325 321L325 320L325 319L325 318L325 317L325 316L325 315L325 314L325 313L325 312L325 311L325 310L325 309L325 308L325 307L325 306L325 305L325 304L325 303L325 302L325 301L325 300L325 299L325 298L325 297L325 296L325 295L325 294L325 293L325 292L325 291L325 290L325 289L325 288L325 287L325 286L325 285L325 284L325 283L325 282L325 281L325 280L325 279L325 278L325 277L325 276L325 275L325 274L325 273L325 272L325 271L325 270L325 269L325 268L325 267L325 266L325 265L325 264L325 263L325 262L325 261L325 260L325 259L325 258L323 251M327 251L327 255L327 256L327 257L327 258L327 259L327 260L327 261L327 262L327 263L327 264L327 265L327 266L327 267L327 268L327 269L327 270L327 271L327 272L327 273L327 274L327 275L327 276L327 277L327 278L327 279L327 280L327 281L327 282L327 283L327 284L327 285L327 286L327 287L327 288L327 289L327 290L327 291L327 292L327 293L327 294L327 295L327 296L327 297L327 298L327 299L327 300L327 301L327 302L327 303L327 304L327 305L327 306L327 307L327 308L327 309L327 310L327 311L327 312L327 313L327 314L327 315L327 316L327 317L327 318L327 319L327 320L327 321L327 322L328 329L329 329L329 325L329 324L329 323L329 322L329 321L329 320L329 319L329 318L329 317L329 316L329 315L329 314L329 313L329 312L329 311L329 310L329 309L329 308L329 307L329 306L329 305L329 304L329 303L329 302L329 301L329 300L329 299L329 298L329 297L329 296L329 295L329 294L329 293L329 292L329 291L329 290L329 289L329 288L329 287L329 286L329 285L329 284L329 283L329 282L329 281L329 280L329 279L329 278L329 277L329 276L329 275L329 274L329 273L329 272L329 271L329 270L329 269L329 268L329 267L329 266L329 265L329 264L329 263L329 262L329 261L329 260L329 259L329 258L327 251M573 251L571 254L571 258L571 259L571 260L571 261L571 262L571 263L571 264L571 265L571 266L571 267L571 268L571 269L571 270L571 271L571 272L571 273L571 274L571 275L571 276L571 277L571 278L571 279L571 280L571 281L571 282L571 283L571 284L571 285L571 286L571 287L571 288L571 289L571 290L571 291L571 292L571 293L571 294L571 295L571 296L571 297L571 298L571 299L571 300L571 301L571 302L571 303L571 304L571 305L571 306L571 307L571 308L571 309L571 310L571 311L571 312L571 313L571 314L571 315L571 316L571 317L571 318L571 319L571 320L571 321L571 326L574 324L574 320L574 319L574 318L574 317L574 316L574 315L574 314L574 313L574 312L574 311L574 310L574 309L574 308L574 307L574 306L574 305L574 304L574 303L574 302L574 301L574 300L574 299L574 298L574 297L574 296L574 295L574 294L574 293L574 292L574 291L574 290L574 289L574 288L574 287L574 286L574 285L574 284L574 283L574 282L574 281L574 280L574 279L574 278L574 277L574 276L574 275L574 274L574 273L574 272L574 271L574 270L574 269L574 268L574 267L574 266L574 265L574 264L574 263L574 262L574 261L574 260L574 259L574 258L574 257L573 251M577 251L575 254L575 258L575 259L575 260L575 261L575 262L575 263L575 264L575 265L575 266L575 267L575 268L575 269L575 270L575 271L575 272L575 273L575 274L575 275L575 276L575 277L575 278L575 279L575 280L575 281L575 282L575 283L575 284L575 285L575 286L575 287L575 288L575 289L575 290L575 291L575 292L575 293L575 294L575 295L575 296L575 297L575 298L575 299L575 300L575 301L575 302L575 303L575 304L575 305L575 306L575 307L575 308L575 309L575 310L575 311L575 312L575 313L575 314L575 315L575 316L575 317L575 323L578 321L578 317L578 316L578 315L578 314L578 313L578 312L578 311L578 310L578 309L578 308L578 307L578 306L578 305L578 304L578 303L578 302L578 301L578 300L578 299L578 298L578 297L578 296L578 295L578 294L578 293L578 292L578 291L578 290L578 289L578 288L578 287L578 286L578 285L578 284L578 283L578 282L578 281L578 280L578 279L578 278L578 277L578 276L578 275L578 274L578 273L578 272L578 271L578 270L578 269L578 268L578 267L578 266L578 265L578 264L578 263L578 262L578 261L578 260L578 259L578 258L577 251M581 251L579 254L579 258L579 259L579 260L579 261L579 262L579 263L579 264L579 265L579 266L579 267L579 268L579 269L579 270L579 271L579 272L579 273L579 274L579 275L579 276L579 277L579 278L579 279L579 280L579 281L579 282L579 283L579 284L579 285L579 286L579 287L579 288L579 289L579 290L579 291L579 292L579 293L579 294L579 295L579 296L579 297L579 298L579 299L579 300L579 301L579 302L579 303L579 304L579 305L579 306L579 307L579 308L579 309L579 310L579 311L579 312L579 313L579 319L582 317L582 313L582 312L582 311L582 310L582 309L582 308L582 307L582 306L582 305L582 304L582 303L582 302L582 301L582 300L582 299L582 298L582 297L582 296L582 295L582 294L582 293L582 292L582 291L582 290L582 289L582 288L582 287L582 286L582 285L582 284L582 283L582 282L582 281L582 280L582 279L582 278L582 277L582 276L582 275L582 274L582 273L582 272L582 271L582 270L582 269L582 268L582 267L582 266L582 265L582 264L582 263L582 262L582 261L582 260L582 259L582 258L581 251M633 251L631 253L631 254L630 254L630 255L629 255L629 256L628 256L628 257L627 257L627 258L626 258L626 259L624 260L624 262L623 263L621 265L620 265L620 266L619 266L619 267L618 267L618 268L617 268L617 269L616 269L616 270L615 270L613 272L613 274L612 275L610 277L609 277L609 278L608 278L608 279L607 279L607 280L606 280L606 281L605 281L605 282L604 282L602 284L602 286L601 287L599 289L598 289L598 290L597 290L597 291L596 291L596 292L595 292L595 293L594 293L594 294L593 294L591 296L591 298L590 299L588 301L587 301L587 302L586 302L583 305L583 309L583 310L583 311L583 312L583 316L585 314L586 314L586 313L587 313L587 312L588 312L588 311L589 311L589 310L590 310L590 309L591 309L591 308L592 308L592 307L593 307L593 306L594 306L594 305L595 305L595 304L596 304L596 303L597 303L597 302L598 302L598 301L599 301L599 300L600 300L600 299L601 299L601 298L602 298L602 297L603 297L603 296L604 296L604 295L605 295L605 294L606 294L606 293L607 293L607 292L608 292L608 291L609 291L609 290L610 290L610 289L611 289L611 288L612 288L612 287L613 287L613 286L614 286L614 285L615 285L615 284L616 284L616 283L617 283L617 282L618 282L618 281L619 281L619 280L620 280L620 279L621 279L621 278L622 278L622 277L623 277L623 276L624 276L624 275L625 275L625 274L626 274L626 273L627 273L627 272L628 272L628 271L629 271L629 270L630 270L630 269L631 269L634 266L634 262L634 261L634 260L634 259L634 258L634 257L634 256L634 255L633 251M316 253L317 254L316 253M300 254L303 257L300 254M598 254L596 257L598 254M291 255L295 259L291 255M607 255L604 259L607 255M285 256L290 261L285 256M613 256L609 261L613 256M282 257L284 259L284 260L285 260L285 261L288 263L286 261L286 260L285 260L285 259L282 257M309 257L312 260L309 257M589 257L587 260L589 257M615 257L613 259L613 260L612 260L612 261L610 263L612 261L613 261L613 260L614 260L615 257M280 258L282 260L282 261L283 261L283 262L286 264L284 262L284 261L283 261L283 260L280 258M303 258L306 261L303 258M595 258L593 261L595 258M618 258L616 260L616 261L615 261L615 262L613 264L615 262L616 262L616 261L617 261L618 258M278 259L280 261L280 262L281 262L281 263L285 266L283 264L283 263L282 263L282 262L278 259M300 259L303 262L300 259M597 259L595 262L597 259M620 259L618 261L618 262L617 262L617 263L614 266L616 264L617 264L617 263L618 263L620 259M295 260L299 264L295 260M314 260L316 264L317 264L314 260M583 260L584 261L583 260M603 260L600 264L603 260M292 261L297 266L292 261M312 261L314 263L312 261M586 261L585 263L586 261M605 261L601 266L605 261M621 261L619 263L619 264L618 264L618 265L617 265L617 266L616 266L616 267L614 269L616 267L617 267L617 266L618 266L618 265L619 265L619 264L620 264L621 261M277 262L279 264L279 265L280 265L280 266L283 269L281 267L280 267L280 266L279 266L277 262M306 262L309 265L306 262M592 262L590 265L592 262M291 263L295 267L291 263M303 263L306 266L303 263M594 263L592 266L594 263M607 263L604 267L607 263M288 264L293 269L288 264M301 264L305 268L301 264M314 264L317 267L314 264M584 264L583 266L584 264M597 264L594 268L597 264M609 264L605 269L609 264M311 265L314 268L311 265M586 265L584 268L586 265M287 266L289 268L289 269L290 269L290 270L293 272L291 270L291 269L290 269L290 268L287 266M300 266L303 269L300 266M309 266L312 269L309 266M589 266L587 269L589 266M598 266L596 269L598 266M611 266L609 268L609 269L608 269L608 270L606 272L608 270L609 270L609 269L610 269L611 266M297 267L301 271L297 267M600 267L597 271L600 267M307 268L310 271L307 268M590 268L588 271L590 268M253 269L255 271L253 269M287 269L289 271L289 272L290 272L290 273L293 275L291 273L291 272L290 272L290 271L287 269M296 269L300 273L296 269M305 269L308 272L305 269M314 269L317 272L314 269M583 269L584 270L583 269M593 269L591 272L593 269M602 269L599 273L602 269M611 269L609 271L609 272L608 272L608 273L606 275L608 273L609 273L609 272L610 272L611 269M304 271L307 274L304 271M313 271L315 273L313 271M585 271L584 273L585 271M594 271L592 274L594 271M295 272L299 276L295 272M310 272L313 275L310 272M587 272L585 275L587 272M602 272L599 276L602 272M302 273L305 276L302 273M595 273L593 276L595 273M610 273L608 275L608 276L607 276L607 277L605 279L607 277L608 277L608 276L609 276L610 273M288 274L292 279L288 274M309 274L312 277L309 274M589 274L587 277L589 274M295 275L299 279L295 275M316 275L317 276L316 275M603 275L600 279L603 275M302 276L305 279L302 276M308 276L311 279L308 276M590 276L588 279L590 276M596 276L594 279L596 276M314 277L316 279L314 277M583 277L584 278L583 277M296 279L300 283L296 279M301 279L304 282L301 279M307 279L310 282L307 279M313 279L315 281L313 279M585 279L584 281L585 279M590 279L588 282L590 279M596 279L594 282L596 279M602 279L599 283L602 279M307 282L310 285L307 282M313 282L315 284L313 282M585 282L584 284L585 282M591 282L589 285L591 282M302 283L305 286L302 283M596 283L594 286L596 283M312 285L314 287L312 285M585 285L584 287L585 285M599 285L596 289L599 285M299 286L301 289L299 286M307 286L310 289L307 286M590 286L588 289L590 286M305 289L308 292L305 289M313 289L315 291L313 289M585 289L584 291L585 289M593 289L591 292L593 289M253 292L255 294L253 292M310 292L312 294L310 292M588 292L587 294L588 292M277 293L279 295L279 296L280 296L280 297L281 297L281 298L282 298L282 299L285 301L283 299L283 298L282 298L282 297L281 297L281 296L280 296L280 295L277 293M620 293L618 295L618 296L617 296L617 297L616 297L616 298L615 298L615 299L613 301L615 299L616 299L616 298L617 298L617 297L618 297L618 296L619 296L620 293M274 294L276 296L276 297L277 297L277 298L278 298L278 299L279 299L279 300L282 302L280 300L280 299L279 299L279 298L278 298L278 297L277 297L277 296L274 294M314 294L315 295L314 294M583 294L584 295L583 294M623 294L621 296L621 297L620 297L620 298L619 298L619 299L618 299L618 300L616 302L618 300L619 300L619 299L620 299L620 298L621 298L621 297L622 297L623 294M282 295L284 297L284 298L285 298L285 299L286 299L286 300L287 300L287 301L291 304L289 302L289 301L288 301L288 300L287 300L287 299L286 299L286 298L282 295M615 295L613 297L613 298L612 298L612 299L611 299L611 300L610 300L610 301L607 304L609 302L610 302L610 301L611 301L611 300L612 300L612 299L613 299L615 295M273 296L275 298L275 299L276 299L276 300L279 302L277 300L277 299L276 299L276 298L273 296M624 296L622 298L622 299L621 299L621 300L619 302L621 300L622 300L622 299L623 299L624 296M271 297L273 299L273 300L274 300L274 301L277 303L275 301L275 300L274 300L274 299L271 297M588 297L587 299L588 297M626 297L624 299L624 300L623 300L623 301L621 303L623 301L624 301L624 300L625 300L626 297M310 298L309 299L310 298M314 299L315 300L314 299M584 299L585 300L584 299M291 300L293 302L293 303L294 303L294 304L295 304L295 305L296 305L296 306L300 309L298 307L298 306L297 306L297 305L296 305L296 304L295 304L295 303L291 300M606 300L604 302L604 303L603 303L603 304L602 304L602 305L601 305L601 306L598 309L600 307L601 307L601 306L602 306L602 305L603 305L603 304L604 304L606 300M270 303L274 307L270 303M627 303L624 307L627 303M279 304L284 309L279 304M282 304L287 309L282 304M285 304L287 306L287 307L288 307L288 308L291 310L289 308L289 307L288 307L288 306L285 304M612 304L610 306L610 307L609 307L609 308L607 310L609 308L610 308L610 307L611 307L612 304M615 304L611 309L615 304M618 304L614 309L618 304M269 306L273 310L269 306M277 306L282 311L277 306M291 306L296 311L291 306M606 306L602 311L606 306M620 306L616 311L620 306M628 306L625 310L628 306M276 308L280 312L276 308M621 308L618 312L621 308M274 310L278 314L274 310M623 310L620 314L623 310M287 311L291 315L287 311M610 311L607 315L610 311M284 312L288 316L284 312M291 312L294 315L291 312M300 312L304 316L300 312M597 312L594 316L597 312M606 312L604 315L606 312M613 312L610 316L613 312M282 313L285 316L282 313M615 313L613 316L615 313M296 314L300 318L296 314M601 314L598 318L601 314M268 315L271 318L268 315M280 315L283 318L280 315M617 315L615 318L617 315M629 315L627 318L629 315M273 316L276 319L273 316M278 316L282 320L278 316M619 316L616 320L619 316M624 316L622 319L624 316M294 317L297 320L294 317M603 317L601 320L603 317M272 318L275 321L272 318M288 318L291 321L288 318M291 318L294 321L291 318M304 318L307 321L304 318M593 318L591 321L593 318M606 318L604 321L606 318M609 318L607 321L609 318M625 318L623 321L625 318M277 319L280 322L277 319M285 319L288 322L285 319M612 319L610 322L612 319M620 319L618 322L620 319M283 320L286 323L283 320M300 320L302 322L300 320M597 320L596 322L597 320M614 320L612 323L614 320M276 321L279 324L276 321M621 321L619 324L621 321M275 323L278 326L275 323M282 323L284 325L282 323M294 323L296 325L294 323M297 323L300 326L297 323M600 323L598 326L600 323M603 323L602 325L603 323M615 323L614 325L615 323M622 323L620 326L622 323M271 324L273 327L275 327L277 329L275 326L273 326L271 324M280 324L283 327L280 324M288 324L291 327L288 324M291 324L293 326L291 324M302 324L304 326L302 324M307 324L309 326L307 324M590 324L589 326L590 324M595 324L594 326L595 324M606 324L605 326L606 324M609 324L607 327L609 324M617 324L615 327L617 324M626 324L621 329L623 327L625 327L626 324M279 326L282 329L279 326M286 326L288 328L286 326M611 326L610 328L611 326M618 326L616 329L618 326M284 327L287 330L284 327M613 327L611 330L613 327M293 328L295 330L293 328M296 328L298 330L296 328M300 328L301 329L300 328M309 328L310 329L309 328M588 328L589 329L588 328M597 328L598 329L597 328M601 328L600 330L601 328M604 328L603 330L604 328M274 329L276 331L274 329M278 329L280 331L278 329M283 329L285 331L283 329M304 329L306 331L304 329M593 329L592 331L593 329M614 329L613 331L614 329M619 329L618 331L619 329M623 329L622 331L623 329M288 330L291 333L288 330M291 330L293 332L291 330M606 330L605 332L606 330M609 330L607 333L609 330M267 331L269 333L267 331M277 331L279 333L277 331M310 331L311 332L310 331M587 331L588 332L587 331M620 331L619 333L620 331M630 331L629 333L630 331M282 332L284 334L282 332M287 332L289 334L287 332M298 332L300 334L298 332M301 332L303 334L301 332M596 332L595 334L596 332M599 332L598 334L599 332M610 332L609 334L610 332M615 332L614 334L615 332M270 333L272 335L270 333M280 333L283 336L280 333M295 333L297 335L295 333M306 333L307 334L306 333M591 333L592 334L591 333M602 333L601 335L602 333M617 333L615 336L617 333M627 333L626 335L627 333M285 334L287 336L285 334M293 334L294 335L293 334M604 334L605 335L604 334M612 334L611 336L612 334M273 335L275 337L273 335M291 335L292 336L291 335M311 335L312 336L311 335M586 335L587 336L586 335M606 335L607 336L606 335M624 335L623 337L624 335M284 336L286 338L284 336M303 336L304 337L303 336M594 336L595 337L594 336M613 336L612 338L613 336M276 337L278 339L276 337M289 337L291 339L289 337M294 337L296 339L294 337M297 337L298 338L297 337M300 337L301 338L300 337M307 337L308 338L307 337M590 337L591 338L590 337M597 337L598 338L597 337M600 337L601 338L600 337M603 337L602 339L603 337M608 337L607 339L608 337M621 337L620 339L621 337M287 338L289 340L287 338M610 338L609 340L610 338M275 339L277 341L275 339M279 339L281 341L279 339M283 339L285 341L283 339M292 339L294 341L292 339M605 339L604 341L605 339M614 339L613 341L614 339M618 339L617 341L618 339M622 339L621 341L622 339M254 340L255 341L254 340M298 340L300 342L298 340M301 340L302 341L301 340M304 340L305 341L304 340M308 340L309 341L308 340M589 340L590 341L589 340M593 340L594 341L593 340M596 340L597 341L596 340M599 340L598 342L599 340M272 341L272 342L276 344L276 343L272 341M278 341L280 343L278 341M282 341L283 342L282 341M286 341L288 343L286 341M291 341L292 342L291 341M312 341L313 342L312 341M585 341L586 342L585 341M606 341L607 342L606 341M611 341L610 343L611 341M615 341L616 342L615 341M619 341L618 343L619 341M625 341L622 343L622 344L626 342L625 341M269 342L269 343L273 345L273 344L269 342M296 342L297 343L296 342M601 342L602 343L601 342M628 342L625 344L625 345L629 343L628 342M281 343L282 344L281 343M285 343L286 344L285 343M289 343L291 345L289 343M294 343L295 344L294 343M302 343L303 344L302 343M305 343L306 344L305 343M592 343L593 344L592 343M595 343L596 344L595 343M603 343L604 344L603 343M608 343L607 345L608 343M612 343L613 344L612 343M616 343L617 344L616 343M253 344L254 345L253 344M277 344L279 346L277 344M283 344L285 346L283 344M614 344L613 346L614 344M620 344L619 346L620 344M274 345L274 346L278 348L278 347L274 345M288 345L289 346L288 345M292 345L294 347L292 345M297 345L298 346L297 345M300 345L301 346L300 345M597 345L598 346L597 345M600 345L601 346L600 345M605 345L604 347L605 345M609 345L610 346L609 345M623 345L620 347L620 348L624 346L623 345M280 346L280 347L284 349L284 348L280 346M286 346L288 348L286 346M306 346L307 347L306 346M309 346L310 347L309 346M588 346L589 347L588 346M591 346L592 347L591 346M611 346L610 348L611 346M617 346L614 348L614 349L618 347L617 346M254 347L255 348L254 347M291 347L292 348L291 347M295 347L297 349L295 347M303 347L304 348L303 347M594 347L595 348L594 347M602 347L601 349L602 347M606 347L607 348L606 347M279 348L281 350L279 348M289 348L291 350L289 348M301 348L302 349L301 348M596 348L597 349L596 348M608 348L607 350L608 348M618 348L617 350L618 348M285 349L287 351L285 349M294 349L295 350L294 349M298 349L300 351L298 349M313 349L314 350L313 349M584 349L585 350L584 349M599 349L598 351L599 349M603 349L604 350L603 349M612 349L611 351L612 349M271 350L271 351L274 352L274 353L276 353L277 354L277 353L274 352L274 351L272 351L271 350M276 350L276 351L280 353L280 352L276 350M282 350L283 351L282 350M292 350L293 351L292 350M304 350L305 351L304 350M593 350L594 351L593 350M605 350L606 351L605 350M615 350L616 351L615 350M621 350L618 352L618 353L622 351L621 350M626 350L621 353L621 354L627 351L626 350M284 351L286 353L284 351M288 351L289 352L288 351M297 351L298 352L297 351M600 351L601 352L600 351M609 351L610 352L609 351M613 351L612 353L613 351M295 352L296 353L295 352M302 352L303 353L302 352M307 352L308 353L307 352M310 352L311 353L310 352M587 352L588 353L587 352M590 352L591 353L590 352M595 352L596 353L595 352M602 352L603 353L602 352M281 353L282 354L281 353M287 353L288 354L287 353M291 353L292 354L291 353M606 353L607 354L606 353M610 353L611 354L610 353M616 353L617 354L616 353M258 354L259 355L258 354M278 354L279 355L278 354M283 354L285 356L283 354M289 354L291 356L289 354M293 354L294 355L293 354M298 354L299 355L298 354M305 354L306 355L305 354M592 354L593 355L592 354M599 354L600 355L599 354M604 354L605 355L604 354M608 354L607 356L608 354M614 354L613 356L614 354M619 354L620 355L619 354M273 355L274 356L273 355M280 355L280 356L284 358L284 357L280 355M300 355L301 356L300 355M597 355L598 356L597 355M617 355L614 357L614 358L618 356L617 355M624 355L625 356L624 355M275 356L276 357L275 356M286 356L287 357L286 356M292 356L293 357L292 356M296 356L297 357L296 356M308 356L309 357L308 356M589 356L590 357L589 356M601 356L602 357L601 356M605 356L606 357L605 356M611 356L612 357L611 356M622 356L623 357L622 356M253 357L254 358L253 357M262 357L263 358L262 357M277 357L277 358L281 360L281 359L277 357M288 357L289 358L288 357M294 357L295 358L294 357M303 357L304 358L303 357M594 357L595 358L594 357M603 357L604 358L603 357M609 357L610 358L609 357M620 357L617 359L617 360L621 358L620 357M285 358L286 359L285 358M299 358L300 359L299 358M311 358L312 359L311 358M586 358L587 359L586 358M598 358L599 359L598 358M612 358L613 359L612 358M287 359L288 360L287 359M291 359L292 360L291 359M297 359L298 360L297 359M301 359L302 360L301 359M306 359L307 360L306 359M591 359L592 360L591 359M596 359L597 360L596 359M600 359L601 360L600 359M606 359L607 360L606 359M610 359L611 360L610 359M282 360L283 361L282 360M289 360L291 362L289 360M293 360L294 361L293 360M314 360L315 361L314 360M583 360L584 361L583 360M604 360L605 361L604 360M608 360L607 362L608 360M615 360L616 361L615 360M266 361L267 362L266 361M279 361L280 362L279 361M284 361L285 362L284 361M295 361L296 362L295 361M304 361L305 362L304 361M593 361L594 362L593 361M602 361L603 362L602 361M613 361L614 362L613 361M618 361L619 362L618 361M631 361L632 362L631 361M268 362L269 363L268 362M281 362L282 363L281 362M286 362L287 363L286 362M292 362L293 363L292 362M302 362L303 363L302 362M595 362L596 363L595 362M605 362L606 363L605 362M611 362L612 363L611 362M616 362L617 363L616 362M629 362L630 363L629 362M270 363L271 364L270 363M283 363L284 364L283 363M288 363L289 364L288 363M294 363L295 364L294 363M298 363L299 364L298 363M599 363L600 364L599 363M603 363L604 364L603 363M609 363L610 364L609 363M614 363L615 364L614 363M627 363L628 364L627 363M272 364L273 365L272 364M285 364L286 365L285 364M296 364L297 365L296 364M300 364L301 365L300 364M309 364L310 365L309 364M588 364L589 365L588 364M597 364L598 365L597 364M601 364L602 365L601 364M612 364L613 365L612 364M625 364L626 365L625 364M274 365L275 366L274 365M287 365L288 366L287 365M291 365L292 366L291 365M307 365L308 366L307 365M590 365L591 366L590 365M606 365L607 366L606 365M610 365L611 366L610 365M623 365L624 366L623 365M276 366L277 367L276 366M289 366L291 368L289 366M293 366L294 367L293 366M299 366L300 367L299 366M598 366L599 367L598 366M604 366L605 367L604 366M608 366L607 368L608 366M621 366L622 367L621 366M278 367L279 368L278 367M295 367L296 368L295 367M301 367L302 368L301 367M305 367L306 368L305 367M592 367L593 368L592 367M596 367L597 368L596 367M602 367L603 368L602 367M619 367L620 368L619 367M280 368L281 369L280 368M292 368L293 369L292 368M297 368L298 369L297 368M303 368L304 369L303 368M312 368L313 369L312 368M585 368L586 369L585 368M594 368L595 369L594 368M600 368L601 369L600 368M605 368L606 369L605 368M617 368L618 369L617 368M282 369L283 370L282 369M294 369L295 370L294 369M603 369L604 370L603 369M615 369L616 370L615 369M279 370L280 371L279 370M284 370L285 371L284 370M291 370L292 371L291 370M296 370L297 371L296 370M601 370L602 371L601 370M606 370L607 371L606 370M613 370L614 371L613 370M618 370L619 371L618 370M254 371L255 372L254 371M281 371L282 372L281 371M286 371L287 372L286 371M293 371L294 372L293 371M298 371L299 372L298 371M308 371L309 372L308 371M589 371L590 372L589 371M599 371L600 372L599 371M604 371L605 372L604 371M611 371L612 372L611 371M616 371L617 372L616 371M275 372L276 373L275 372M283 372L284 373L283 372M288 372L289 373L288 372M295 372L296 373L295 372M300 372L301 373L300 372M304 372L305 373L304 372M310 372L311 373L310 372M587 372L588 373L587 372M593 372L594 373L593 372M597 372L598 373L597 372M602 372L603 373L602 372M609 372L610 373L609 372M614 372L615 373L614 372M622 372L623 373L622 372M271 373L272 374L271 373M277 373L277 374L283 376L283 375L277 373M285 373L286 374L285 373M290 373L291 374L290 373M297 373L298 374L297 373M302 373L303 374L302 373M306 373L307 374L306 373M591 373L592 374L591 373M595 373L596 374L595 373M600 373L601 374L600 373M607 373L608 374L607 373M612 373L613 374L612 373M619 373L615 375L615 376L621 374L619 373M626 373L627 374L626 373M253 374L254 375L253 374M273 374L273 375L277 376L277 375L273 374M287 374L288 375L287 374M299 374L300 375L299 374M598 374L599 375L598 374M610 374L611 375L610 374M621 375L621 376L625 375L621 375M289 375L290 376L289 375M301 375L302 376L301 375M596 375L597 376L596 375M608 375L609 376L608 375M278 376L279 377L278 376M284 376L285 377L284 376M292 376L293 377L292 376M303 376L304 377L303 376M594 376L595 377L594 376M605 376L606 377L605 376M613 376L614 377L613 376M619 376L620 377L619 376M280 377L281 378L280 377M286 377L287 378L286 377M294 377L295 378L294 377M305 377L306 378L305 377M592 377L593 378L592 377M603 377L604 378L603 377M611 377L612 378L611 377M617 377L618 378L617 377M276 378L276 379L280 380L280 379L276 378M282.667 378.333L283.333 378.667L282.667 378.333M288 378L289 379L288 378M296 378L297 379L296 378M307 378L308 379L307 378M590 378L591 379L590 378M601 378L602 379L601 378M609 378L610 379L609 378M614.667 378.333L615.333 378.667L614.667 378.333M618 379L618 380L622 379L618 379M269 379L269 380L273 381L273 380L269 379M285 379L286 380L285 379M290.667 379.333L291.333 379.667L290.667 379.333M298 379L299 380L298 379M309 379L310 380L309 379M588 379L589 380L588 379M599 379L600 380L599 379M606.667 379.333L607.333 379.667L606.667 379.333M612 379L613 380L612 379M625 380L625 381L629 380L625 380M281 380L282 381L281 380M287 380L288 381L287 380M293 380L294 381L293 380M300 380L301 381L300 380M311 380L312 381L311 380M586 380L587 381L586 380M597 380L598 381L597 380M604 380L605 381L604 380M610 380L611 381L610 380M616 380L617 381L616 380M254 381L255 382L254 381M274 381L274 382L278 383L278 382L274 381M283.667 381.333L284.333 381.667L283.667 381.333M289 381L290 382L289 381M295 381L296 382L295 381M302 381L303 382L302 381M313 381L314 382L313 381M584 381L585 382L584 381M595 381L596 382L595 381M602 381L603 382L602 381M608 381L609 382L608 381M613.667 381.333L614.333 381.667L613.667 381.333M620 382L620 383L624 382L620 382M286 382L287 383L286 382M292 382L293 383L292 382M297 382L298 383L297 382M315 382L316 383L315 382M600 382L601 383L600 382M605 382L606 383L605 382M611 382L612 383L611 382M272 383L272 384L276 385L276 384L272 383M279 383L279 384L283 385L283 384L279 383M288 383L289 384L288 383M294 383L295 384L294 383M299 383L300 384L299 383M598 383L599 384L598 383M603 383L604 384L603 383M609 383L610 384L609 383M615 384L615 385L619 384L615 384M622 384L622 385L626 384L622 384M290.667 384.333L291.333 384.667L290.667 384.333M296 384L297 385L296 384M601 384L602 385L601 384M606.667 384.333L607.333 384.667L606.667 384.333M277.667 385.333L278.333 385.667L277.667 385.333M284.667 385.333L285.333 385.667L284.667 385.333M293 385L294 386L293 385M304 385L305 386L304 385M579 385L580 386L579 385M593 385L594 386L593 385M604 385L605 386L604 385M612.667 385.333L613.333 385.667L612.667 385.333M619.667 385.333L620.333 385.667L619.667 385.333M280 386L281 387L280 386M287 386L288 387L287 386M295 386L296 387L295 386M301 386L302 387L301 386M306 386L307 387L306 386M591 386L592 387L591 386M596 386L597 387L596 386M602 386L603 387L602 386M610 386L611 387L610 386M617 386L618 387L617 386M282.667 387.333L283.333 387.667L282.667 387.333M289 387L290 388L289 387M298 387L299 388L298 387M303 387L304 388L303 387M308 387L309 388L308 387M589 387L590 388L589 387M594 387L595 388L594 387M599 387L600 388L599 387M608 387L609 388L608 387M614.667 387.333L615.333 387.667L614.667 387.333M253.667 388.333L254.333 388.667L253.667 388.333M275.667 388.333L276.333 388.667L275.667 388.333M285.667 388.333L286.333 388.667L285.667 388.333M292 388L293 389L292 388M300 388L301 389L300 388M320 388L321 389L320 388M324 388L325 389L324 388M571 388L572 389L571 388M575 388L576 389L575 388M597 388L598 389L597 388M605 388L606 389L605 388M611.667 388.333L612.333 388.667L611.667 388.333M621.667 388.333L622.333 388.667L621.667 388.333M278.667 389.333L279.333 389.667L278.667 389.333M288 389L289 390L288 389M294 389L295 390L294 389M603 389L604 390L603 389M609 389L610 390L609 389M618.667 389.333L619.333 389.667L618.667 389.333M281 390L282 391L281 390M290.667 390.333L291.333 390.667L290.667 390.333M297 390L298 391L297 390M305 390L306 391L305 390M310 390L311 391L310 390M587 390L588 391L587 390M592 390L593 391L592 390M600 390L601 391L600 390M606.667 390.333L607.333 390.667L606.667 390.333M616 390L617 391L616 390M254 391L255 392L254 391M267.667 391.333L268.333 391.667L267.667 391.333M283.667 391.333L284.333 391.667L283.667 391.333M293 391L294 392L293 391M299 391L300 392L299 391M328 391L329 392L328 391M598 391L599 392L598 391M604 391L605 392L604 391M613.667 391.333L614.333 391.667L613.667 391.333M629.667 391.333L630.333 391.667L629.667 391.333M270.667 392.333L271.333 392.667L270.667 392.333M286.667 392.333L287.333 392.667L286.667 392.333M296 392L297 393L296 392M302 392L303 393L302 392M595 392L596 393L595 392M601 392L602 393L601 392M610.667 392.333L611.333 392.667L610.667 392.333M626.667 392.333L627.333 392.667L626.667 392.333M273.667 393.333L274.333 393.667L273.667 393.333M289 393L290 394L289 393M608 393L609 394L608 393M623.667 393.333L624.333 393.667L623.667 393.333M276.667 394.333L277.333 394.667L276.667 394.333M284.667 394.333L285.333 394.667L284.667 394.333M292 394L293 395L292 394M301 394L302 395L301 394M307 394L308 395L307 394M590 394L591 395L590 394M596 394L597 395L596 394M605 394L606 395L605 394M612.667 394.333L613.333 394.667L612.667 394.333M620.667 394.333L621.333 394.667L620.667 394.333M279.667 395.333L280.333 395.667L279.667 395.333M287.667 395.333L288.333 395.667L287.667 395.333M295 395L296 396L295 395M304 395L305 396L304 395M593 395L594 396L593 395M602 395L603 396L602 395M609.667 395.333L610.333 395.667L609.667 395.333M617.667 395.333L618.333 395.667L617.667 395.333M283 396L284 397L283 396M290.667 396.333L291.333 396.667L290.667 396.333M298 396L299 397L298 396M312 396L313 397L312 396M585 396L586 397L585 396M599 396L600 397L599 396M606.667 396.333L607.333 396.667L606.667 396.333M614 396L615 397L614 396M274.667 397.333L275.333 397.667L274.667 397.333M286 397L287 398L286 397M293.667 397.333L294.333 397.667L293.667 397.333M300 397L301 398L300 397M309 397L310 398L309 397M588 397L589 398L588 397M597 397L598 398L597 397M603.667 397.333L604.333 397.667L603.667 397.333M611 397L612 398L611 397M622.667 397.333L623.333 397.667L622.667 397.333M254 398L255 399L254 398M277.667 398.333L278.333 398.667L277.667 398.333M289 398L290 399L289 398M296.667 398.333L297.333 398.667L296.667 398.333M303 398L304 399L303 398M594 398L595 399L594 398M600.667 398.333L601.333 398.667L600.667 398.333M608 398L609 399L608 398M619.667 398.333L620.333 398.667L619.667 398.333M271 399L271 400L277 401L277 400L271 399M280 399L280 400L281 400L282 400L283 400L283 399L282 399L280 399M292 399L293 400L292 399M299 399L300 400L299 399M306 399L307 400L306 399M591 399L592 400L591 399M598 399L599 400L598 399M605 399L606 400L605 399M615 399L615 400L616 400L617 400L618 400L618 399L617 399L615 399M621 400L621 401L627 400L621 400M284.667 400.333L285.333 400.667L284.667 400.333M295 400L296 401L295 400M302 400L303 401L302 400M595 400L596 401L595 400M602 400L603 401L602 400M612.667 400.333L613.333 400.667L612.667 400.333M278.667 401.333L279.333 401.667L278.667 401.333M287.667 401.333L288.333 401.667L287.667 401.333M298 401L299 402L298 401M305 401L306 402L305 401M592 401L593 402L592 401M599 401L600 402L599 401M609.667 401.333L610.333 401.667L609.667 401.333M618.667 401.333L619.333 401.667L618.667 401.333M268 402L268 403L269 403L270 403L271 403L271 402L270 402L268 402M281 402L281 403L282 403L283 403L284 403L284 402L283 402L281 402M290.667 402.333L291.333 402.667L290.667 402.333M308 402L309 403L308 402M589 402L590 403L589 402M606.667 402.333L607.333 402.667L606.667 402.333M614 402L614 403L615 403L616 403L617 403L617 402L616 402L614 402M272.667 403.333L273.333 403.667L272.667 403.333M285.667 403.333L286.333 403.667L285.667 403.333M294 403L295 404L294 403M311 403L312 404L311 403M586 403L587 404L586 403M603 403L604 404L603 403M611.667 403.333L612.333 403.667L611.667 403.333M276.667 404.333L277.333 404.667L276.667 404.333M289 404L290 405L289 404M297 404L298 405L297 404M314 404L315 405L314 404M583 404L584 405L583 404M600 404L601 405L600 404M608 404L609 405L608 404M620 404L620 405L621 405L622 405L623 405L623 404L622 404L620 404M257.667 405.333L258.333 405.667L257.667 405.333M269 405L269 406L270 406L271 406L272 406L272 405L271 405L269 405M280 405L281 406L280 405M292.667 405.333L293.333 405.667L292.667 405.333M301 405L302 406L301 405M596 405L597 406L596 405M604.667 405.333L605.333 405.667L604.667 405.333M617.667 405.333L618.333 405.667L617.667 405.333M627 405L627 406L628 406L629 406L630 406L630 405L629 405L627 405M273 406L273 407L274 407L275 407L276 407L276 406L275 406L273 406M284 406L285 407L284 406M296 406L297 407L296 406M304 406L305 407L304 406M593 406L594 407L593 406M601 406L602 407L601 406M613.667 406.333L614.333 406.667L613.667 406.333M623 406L623 407L624 407L625 407L626 407L626 406L625 406L623 406M277 407L277 408L278 408L279 408L280 408L280 407L279 407L277 407M288 407L289 408L288 407M299.667 407.333L300.333 407.667L299.667 407.333M307 407L308 408L307 407M590 407L591 408L590 407M597.667 407.333L598.333 407.667L597.667 407.333M609.667 407.333L610.333 407.667L609.667 407.333M619 407L619 408L620 408L621 408L622 408L622 407L621 407L619 407M281 408L281 409L282 409L283 409L284 409L284 408L283 408L281 408M291 408L292 409L291 408M303 408L304 409L303 408M594 408L595 409L594 408M606.667 408.333L607.333 408.667L606.667 408.333M615 408L615 409L616 409L617 409L618 409L618 408L617 408L615 408M254 409L255 410L254 409M265 409L265 410L269 410L269 409L265 409M285 409L285 410L286 410L287 410L288 410L288 409L287 409L285 409M295 409L296 410L295 409M602.667 409.333L603.333 409.667L602.667 409.333M611 409L611 410L612 410L613 410L614 410L614 409L613 409L611 409M270 410L270 411L271 411L272 411L273 411L273 410L272 410L270 410M289.667 410.333L290.333 410.667L289.667 410.333M310 410L311 411L310 410M587 410L588 411L587 410M599 410L600 411L599 410M608.667 410.333L609.333 410.667L608.667 410.333M274 411L274 412L275 412L276 412L277 412L277 411L276 411L274 411M294 411L295 412L294 411M595 411L596 412L595 411M604 411L605 412L604 411M618 411L618 412L619 412L620 412L621 412L621 411L620 411L618 411M258 412L259 413L258 412M269 412L270 413L269 412M279.667 412.333L280.333 412.667L279.667 412.333M298 412L299 413L298 412M591 412L592 413L591 412M600 412L601 413L600 412M614 412L614 413L615 413L616 413L617 413L617 412L616 412L614 412M283.667 413.333L284.333 413.667L283.667 413.333M302 413L303 414L302 413M311 413L311 414L312 414L313 414L314 414L314 413L313 413L311 413M596 413L597 414L596 413M610.667 413.333L611.333 413.667L610.667 413.333M621 413L621 414L625 414L625 413L621 413M288 414L284 415L284 416L289 415L288 414M306 414L307 415L306 414M315.667 414.333L316.333 414.667L315.667 414.333M592 414L593 415L592 414M605 414L605 415L606 415L607 415L608 415L608 414L607 414L605 414M617 414L617 415L618 415L619 415L620 415L620 414L619 414L617 414M261.667 415.333L262.333 415.667L261.667 415.333M293 415L289 416L289 417L294 416L293 415M310 415L311 416L310 415M588 415L589 416L588 415M601.667 415.333L602.333 415.667L601.667 415.333M612 415L612 416L613 416L614 416L615 416L615 415L614 415L612 415M625 415L625 416L629 416L629 415L625 415M297 416L294 417L294 418L298 417L297 416M314 416L315 417L314 416M584 416L585 417L584 416M597.667 416.333L598.333 416.667L597.667 416.333M608.667 416.333L609.333 416.667L608.667 416.333M620 416L620 417L624 417L624 416L620 416M280 417L280 418L284 418L284 417L280 417M593 417L594 418L593 417M603.667 417.333L604.333 417.667L603.667 417.333M615 417L615 418L616 418L617 418L618 418L618 417L617 417L615 417M285 418L285 419L289 419L289 418L285 418M299 418L299 419L300 419L301 419L302 419L302 418L301 418L299 418M589 418L590 419L589 418M599 418L600 419L599 418M610 418L610 419L611 419L612 419L613 419L613 418L612 418L610 418M253.667 419.333L254.333 419.667L253.667 419.333M262 419L263 420L262 419M290 419L290 420L294 420L294 419L290 419M304.667 419.333L305.333 419.667L304.667 419.333M309 420L309 421L314 420L309 420M327.667 419.333L328.333 419.667L327.667 419.333M594 419L595 420L594 419M605 419L605 420L606 420L607 420L608 420L608 419L607 419L605 419M275 420L275 421L280 421L280 420L275 420M296 420L296 421L297 421L298 421L299 421L299 420L298 420L296 420M314 422L317 420L314 422M600.667 420.333L601.333 420.667L600.667 420.333M618 420L618 421L623 421L623 420L618 420M281 421L281 422L285 422L285 421L281 421M301 421L301 422L302 422L303 422L304 422L304 421L303 421L301 421M595.667 421.333L596.333 421.667L595.667 421.333M613 421L613 422L617 422L617 421L613 421M258 422L259 423L258 422M266 422L266 423L267 423L268 423L269 423L269 422L268 422L266 422M287 422L287 423L288 423L289 423L290 423L290 422L289 422L287 422M307.667 422.333L308.333 422.667L307.667 422.333M590 422L591 423L590 422M608 422L608 423L609 423L610 423L611 423L611 422L610 422L608 422M623 422L623 423L628 423L628 422L623 422M273.667 423.333L274.333 423.667L273.667 423.333M293 423L293 424L294 424L295 424L296 424L296 423L295 423L293 423M312.667 423.333L313.333 423.667L312.667 423.333M585 423L586 424L585 423M602 423L602 424L603 424L604 424L605 424L605 423L604 423L602 423M617 423L617 424L621 424L621 423L617 423M280 424L281 425L280 424M299.667 424.333L300.333 424.667L299.667 424.333M597.667 424.333L598.333 424.667L597.667 424.333M611 424L611 425L612 425L613 425L614 425L614 424L613 424L611 424M305.667 425.333L306.333 425.667L305.667 425.333M591.667 425.333L592.333 425.667L591.667 425.333M605 425L605 426L606 426L607 426L608 426L608 425L607 425L605 425M272 426L273 427L272 426M294 426L294 427L299 427L299 426L294 426M311 426L312 427L311 426M323.667 426.333L324.333 426.667L323.667 426.333M586 426L587 427L586 426M599.667 426.333L600.333 426.667L599.667 426.333M621 426L621 427L627 427L627 426L621 426M301 427L301 428L305 428L305 427L301 427M593 427L594 428L593 427M614 427L614 428L619 428L619 427L614 427M288 428L288 429L294 429L294 428L288 428M308 428L308 429L309 429L310 429L311 429L311 428L310 428L308 428M608 428L608 429L609 429L610 429L611 429L611 428L610 428L608 428M262 429L263 430L262 429M295 429L295 430L301 430L301 429L295 429M314 429L311 431L311 432C314.194 431.987 316.271 432.403 317 429L314 429M324 429L325 430L324 429M601 429L601 430L602 430L603 430L604 430L604 429L603 429L601 429M619 429L619 430L626 430L626 429L619 429M281 430L281 431L288 431L288 430L281 430M303 430L303 431L308 431L308 430L303 430M594.667 430.333L595.333 430.667L594.667 430.333M611 430L611 431L617 431L617 430L611 430M290 431L290 432L295 432L295 431L290 431M587 431L588 432L587 431M604 431L604 432L608 432L608 431L604 431M271 432L272 433L271 432M299 432L299 433L303 433L303 432L299 432M596 432L596 433L597 433L598 433L599 433L599 432L598 432L596 432M617 432L617 433L624 433L624 432L617 432M282 433L282 434L290 434L290 433L282 433M308 433L308 434L309 434L310 434L311 434L311 433L310 433L308 433M588.667 433.333L589.333 433.667L588.667 433.333M608 433L608 434L613 434L613 433L608 433M293 434L293 435L299 435L299 434L293 434M599 434L599 435L600 435L601 435L602 435L602 434L601 434L599 434M304 435L304 436L308 436L308 435L304 435M590 435L591 436L590 435M257.667 436.333L258.333 436.667L257.667 436.333M273 436L273 437L276 437L279 437L282 437L282 436L279 436L276 436L273 436M315 436L312 444L305 444L305 446L303 446L299 446L298 446L297 446L296 446L290 446L290 450L290 451L290 452L290 453L290 454L290 455L290 456L290 457L290 458L290 459L290 460L290 461L290 462L290 463L290 464L290 465L290 466L290 467L290 468L290 469L290 470L290 471L290 472L290 473L290 474L290 475L290 476L290 477L290 478L290 479L290 480L290 481L290 482L290 483L290 484L290 485L290 486L290 487L290 488L290 489L290 490L290 491L290 492L290 493L290 494L290 495L290 496L290 497L290 498L290 499L290 500L290 501L290 502L290 503L290 504L290 505L290 506L290 507L290 508L290 509L290 510L290 511L290 512L290 513L290 514L290 515L290 516L290 517L290 518L290 519L290 520L290 521L290 522L290 523L290 524L290 525L290 526L290 527L290 528L290 529L290 530L290 531L290 532L290 533L290 534L290 535L290 536L290 537L290 538L290 539L290 540L290 541L290 542L290 543L290 544L290 545L290 546L290 547L290 548L290 549L290 550L290 551L290 552L290 553L290 554L290 555L290 556L290 557L290 558L290 559L290 560L290 561L290 562L290 563L290 564L290 565L290 566L290 567L290 568L290 569L290 570L290 571L290 572L290 573L290 574L290 575L290 576L290 577L290 578L290 579L290 580L290 581L290 582L290 583L290 584L290 585L290 586L290 587L290 588L290 589L290 590L290 591L290 592L290 593L290 594L290 595L290 596L290 597L290 598L290 599L290 600L290 601L290 602L290 603L290 604L290 605L290 610L294 610L295 610L296 610L297 610L298 610L299 610L300 610L301 610L302 610L303 610L304 610L305 610L311 609L315 610L311 615L313 613L314 613L314 612L315 612L317 610L317 606L317 605L317 604L317 603L317 602L317 601L317 600L317 599L317 598L317 597L317 596L317 595L317 594L317 593L317 592L317 591L317 590L317 589L317 588L317 587L317 586L317 585L317 584L317 583L317 582L317 581L317 580L317 579L317 578L317 577L317 576L317 575L317 574L317 573L317 572L317 571L317 570L317 569L317 568L317 567L317 566L317 565L317 564L317 563L317 562L317 561L317 560L317 559L317 558L317 557L317 556L317 555L317 554L317 553L317 552L317 551L317 550L317 549L317 548L317 547L317 546L317 545L317 544L317 543L317 542L317 541L317 540L317 539L317 538L317 537L317 536L317 535L317 534L317 533L317 532L317 531L317 530L317 529L317 528L317 527L317 526L317 525L317 524L317 523L317 522L317 521L317 520L317 519L317 518L317 517L317 516L317 515L317 514L317 513L317 512L317 511L317 510L317 509L317 508L317 507L317 506L317 505L317 504L317 503L317 502L317 501L317 500L317 499L317 498L317 497L317 496L317 495L317 494L317 493L317 492L317 491L317 490L317 489L317 488L317 487L317 486L317 485L317 484L317 483L317 482L317 481L317 480L317 479L317 478L317 477L317 476L317 475L317 474L317 473L317 472L317 471L317 470L317 469L317 468L317 467L317 466L317 465L317 464L317 463L317 462L317 461L317 460L317 459L317 458L317 457L317 456L317 455L317 454L317 453L317 452L317 451L317 450L317 449L317 448L317 447L317 446L317 445L317 444L317 443L317 436L315 436M327.667 436.333L328.333 436.667L327.667 436.333M613 436L613 437L621 437L621 436L613 436M287 437L287 438L293 438L293 437L287 437M602 437L602 438L608 438L608 437L602 437M301 438L301 439L302 439L303 439L304 439L304 438L303 438L301 438M591 438L591 439L592 439L593 439L594 439L594 438L593 438L591 438M253.667 439.333L254.333 439.667L253.667 439.333M274 439L274 440L277 440L287 440L287 439L284 439L274 439M608 439L608 440L611 440L614 440L617 440L617 439L614 439L611 439L608 439M293 440L293 441L301 441L301 440L293 440M594 440L594 441L599 441L599 440L594 440M276 443L276 444L279 444L283 444L284 444L285 444L286 444L293 444L293 443L290 443L286 443L285 443L284 443L283 443L276 443M599 443L599 444L602 444L605 444L608 444L608 443L605 443L602 443L599 443M579 455L579 459L579 460L579 461L579 462L579 463L579 464L579 465L579 466L579 467L579 468L579 469L579 470L579 471L579 472L579 473L579 474L579 475L579 476L579 477L579 478L579 479L579 480L579 481L579 482L579 483L579 484L579 485L579 486L579 487L579 488L579 489L579 490L579 491L579 492L579 493L579 494L579 495L579 496L579 497L579 498L579 499L579 500L579 501L579 502L579 503L579 504L579 505L579 506L579 507L579 508L579 509L579 510L579 511L579 512L579 513L579 514L579 515L579 516L579 517L579 518L579 519L579 520L579 521L579 522L579 523L579 524L579 525L579 526L579 527L579 528L579 529L579 530L579 531L579 532L579 533L579 534L579 535L579 536L579 537L579 538L579 539L579 540L579 541L579 542L579 543L579 544L579 545L579 546L579 547L579 548L579 549L579 550L579 551L579 552L579 553L579 554L579 555L579 556L579 557L579 558L579 564L582 566L582 563L581 560L581 556L581 555L581 554L581 553L581 552L581 551L581 550L581 549L581 548L581 547L581 546L581 545L581 544L581 543L581 542L581 541L581 540L581 539L581 538L581 537L581 536L581 535L581 534L581 533L581 532L581 531L581 530L581 529L581 528L581 527L581 526L581 525L581 524L581 523L581 522L581 521L581 520L581 519L581 518L581 517L581 516L581 515L581 514L581 513L581 512L581 511L581 510L581 509L581 508L581 507L581 506L581 505L581 504L581 503L581 502L581 501L581 500L581 499L581 498L581 497L581 496L581 495L581 494L581 493L581 492L581 491L581 490L581 489L581 488L581 487L581 486L581 485L581 484L581 483L581 482L581 481L581 480L581 479L581 478L581 477L581 476L581 475L581 474L581 473L581 472L581 471L581 470L581 469L581 468L581 467L581 466L581 465L581 464L581 463L581 462L581 461L581 455L579 455M257.667 458.333L258.333 458.667L257.667 458.333M599 458L599 459L602 459L605 459L608 459L608 458L605 458L602 458L599 458M268 460L268 461L274 461L274 460L268 460M594 460L594 461L599 461L599 460L594 460M608 461L608 462L611 462L614 462L617 462L617 461L614 461L611 461L608 461M274 463L274 464L275 464L276 464L277 464L277 463L276 463L274 463M591 463L591 464L592 464L593 464L594 464L594 463L593 463L591 463M257.667 464.333L258.333 464.667L257.667 464.333M602 464L602 465L608 465L608 464L602 464M277.667 465.333L278.333 465.667L277.667 465.333M327.667 465.333L328.333 465.667L327.667 465.333M590 465L591 466L590 465M613 465L613 466L621 466L621 465L613 465M599 466L599 467L600 467L601 467L602 467L602 466L601 466L599 466M279.667 467.333L280.333 467.667L279.667 467.333M588.667 467.333L589.333 467.667L588.667 467.333M608 467L608 468L613 468L613 467L608 467M268 468L268 469L272 469L272 468L268 468M596 468L596 469L597 469L598 469L599 469L599 468L598 468L596 468M617 468L617 469L624 469L624 468L617 468M257.667 469.333L258.333 469.667L257.667 469.333M604 469L604 470L608 470L608 469L604 469M281 470L282 471L281 470M587 470L588 471L587 470M611 470L611 471L617 471L617 470L611 470M272.667 471.333L273.333 471.667L272.667 471.333M324 471L325 472L324 471M594.667 471.333L595.333 471.667L594.667 471.333M619 471L619 472L626 472L626 471L619 471M262 472L263 473L262 472M282 472L283 473L282 472M601 472L601 473L602 473L603 473L604 473L604 472L603 472L601 472M253.667 473.333L254.333 473.667L253.667 473.333M274.667 473.333L275.333 473.667L274.667 473.333M593 473L594 474L593 473M608 473L608 474L609 474L610 474L611 474L611 473L610 473L608 473M266.667 474.333L267.333 474.667L266.667 474.333M328 474L329 475L328 474M599.667 474.333L600.333 474.667L599.667 474.333M614 474L614 475L619 475L619 474L614 474M257.667 475.333L258.333 475.667L257.667 475.333M283 475L284 476L283 475M323.667 475.333L324.333 475.667L323.667 475.333M586 475L587 476L586 475M605 475L605 476L606 476L607 476L608 476L608 475L607 475L605 475M621 475L621 476L627 476L627 475L621 475M276 476L277 477L276 476M591.667 476.333L592.333 476.667L591.667 476.333M611 476L611 477L612 477L613 477L614 477L614 476L613 476L611 476M268 477L268 478L269 478L270 478L271 478L271 477L270 477L268 477M327.667 477.333L328.333 477.667L327.667 477.333M585 477L586 478L585 477M597.667 477.333L598.333 477.667L597.667 477.333M617 477L617 478L621 478L621 477L617 477M261.667 478.333L262.333 478.667L261.667 478.333M277 478L278 479L277 478M590 478L591 479L590 478M602 478L602 479L603 479L604 479L605 479L605 478L604 478L602 478M623 478L623 479L628 479L628 478L623 478M254 479L255 480L254 479M271 479L272 480L271 479M284 479L285 480L284 479M595.667 479.333L596.333 479.667L595.667 479.333M608 479L608 480L609 480L610 480L611 480L611 479L610 479L608 479M278 480L279 481L278 480M600.667 480.333L601.333 480.667L600.667 480.333M613 480L613 481L617 481L617 480L613 480M257.667 481.333L258.333 481.667L257.667 481.333M272.667 481.333L273.333 481.667L272.667 481.333M594 481L595 482L594 481M605 481L605 482L606 482L607 482L608 482L608 481L607 481L605 481M618 481L618 482L623 482L623 481L618 481M266.667 482.333L267.333 482.667L266.667 482.333M599 482L600 483L599 482M610 482L610 483L611 483L612 483L613 483L613 482L612 482L610 482M279 483L280 484L279 483M589 483L590 484L589 483M603.667 483.333L604.333 483.667L603.667 483.333M615 483L615 484L616 484L617 484L618 484L618 483L617 483L615 483M254 484L255 485L254 484M274 484L275 485L274 484M285 484L286 485L285 484M584 484L585 485L584 484M593 484L594 485L593 484M608.667 484.333L609.333 484.667L608.667 484.333M620 484L620 485L624 485L624 484L620 484M268.667 485.333L269.333 485.667L268.667 485.333M280 485L281 486L280 485M588 485L589 486L588 485M597.667 485.333L598.333 485.667L597.667 485.333M612 485L612 486L613 486L614 486L615 486L615 485L614 485L612 485M625 485L625 486L629 486L629 485L625 485M275 486L276 487L275 486M328 486L329 487L328 486M592 486L593 487L592 486M601.667 486.333L602.333 486.667L601.667 486.333M617 486L617 487L618 487L619 487L620 487L620 486L619 486L617 486M257.667 487.333L258.333 487.667L257.667 487.333M270.667 487.333L271.333 487.667L270.667 487.333M596 487L597 488L596 487M605 487L605 488L606 488L607 488L608 488L608 487L607 487L605 487M621 487L621 488L625 488L625 487L621 487M265.667 488.333L266.333 488.667L265.667 488.333M281 488L282 489L281 488M600 488L601 489L600 488M610.667 488.333L611.333 488.667L610.667 488.333M276 489L277 490L276 489M591 489L592 490L591 489M604 489L605 490L604 489M614 489L614 490L615 490L616 490L617 490L617 489L616 489L614 489M272 490L273 491L272 490M327.667 490.333L328.333 490.667L327.667 490.333M587 490L588 491L587 490M595 490L596 491L595 490M608.667 490.333L609.333 490.667L608.667 490.333M618 490L618 491L619 491L620 491L621 491L621 490L620 490L618 490M267 491L268 492L267 491M277 491L278 492L277 491M324 491L325 492L324 491M571 491L572 492L571 491M599 491L600 492L599 491M611 491L611 492L612 492L613 492L614 492L614 491L613 491L611 491M262 492L263 493L262 492M273 492L274 493L273 492M286 492L287 493L286 492M594 492L595 493L594 492M602.667 492.333L603.333 492.667L602.667 492.333M615 492L615 493L616 493L617 493L618 493L618 492L617 492L615 492M257.667 493.333L258.333 493.667L257.667 493.333M268.667 493.333L269.333 493.667L268.667 493.333M282 493L283 494L282 493M597.667 493.333L598.333 493.667L597.667 493.333M606.667 493.333L607.333 493.667L606.667 493.333M619 493L619 494L620 494L621 494L622 494L622 493L621 493L619 493M253.667 494.333L254.333 494.667L253.667 494.333M278 494L279 495L278 494M590 494L591 495L590 494M601 494L602 495L601 494M609.667 494.333L610.333 494.667L609.667 494.333M623 494L623 495L624 495L625 495L626 495L626 494L625 494L623 494M274 495L275 496L274 495M593 495L594 496L593 495M604.667 495.333L605.333 495.667L604.667 495.333M613.667 495.333L614.333 495.667L613.667 495.333M627 495L627 496L628 496L629 496L630 496L630 495L629 495L627 495M270 496L271 497L270 496M328 496L329 497L328 496M583 496L584 497L583 496M596 496L597 497L596 496M608 496L609 497L608 496M617.667 496.333L618.333 496.667L617.667 496.333M266 497L267 498L266 497M275 497L276 498L275 497M283 497L284 498L283 497M586 497L587 498L586 497M600 497L601 498L600 497M611.667 497.333L612.333 497.667L611.667 497.333M620 497L620 498L621 498L622 498L623 498L623 497L622 497L620 497M262 498L263 499L262 498M271 498L272 499L271 498M279 498L280 499L279 498M589 498L590 499L589 498M603 498L604 499L603 498M614 498L614 499L615 499L616 499L617 499L617 498L616 498L614 498M257.667 499.333L258.333 499.667L257.667 499.333M267 499L268 500L267 499M276 499L277 500L276 499M328 499L329 500L328 499M592 499L593 500L592 499M599 499L600 500L599 499M606.667 499.333L607.333 499.667L606.667 499.333M618.667 499.333L619.333 499.667L618.667 499.333M253.667 500.333L254.333 500.667L253.667 500.333M272 500L273 501L272 500M595 500L596 501L595 500M602 500L603 501L602 500M609.667 500.333L610.333 500.667L609.667 500.333M621 500L621 501L627 502L627 501L621 500M268.667 501.333L269.333 501.667L268.667 501.333M280 501L281 502L280 501M323.667 501.333L324.333 501.667L323.667 501.333M571.667 501.333L572.333 501.667L571.667 501.333M598 501L599 502L598 501M605 501L606 502L605 501M612.667 501.333L613.333 501.667L612.667 501.333M265 502L266 503L265 502M591 502L592 503L591 502M600.667 502.333L601.333 502.667L600.667 502.333M608 502L609 503L608 502M615 502L615 503L616 503L617 503L618 503L618 502L617 502L615 502M261.667 503.333L262.333 503.667L261.667 503.333M273 503L274 504L273 503M327.667 503.333L328.333 503.667L327.667 503.333M588 503L589 504L588 503M594 503L595 504L594 503M603.667 503.333L604.333 503.667L603.667 503.333M611 503L612 504L611 503M619.667 503.333L620.333 503.667L619.667 503.333M257.667 504.333L258.333 504.667L257.667 504.333M270 504L271 505L270 504M277 504L278 505L277 504M597 504L598 505L597 504M606.667 504.333L607.333 504.667L606.667 504.333M614 504L615 505L614 504M622.667 504.333L623.333 504.667L622.667 504.333M254 505L255 506L254 505M266 505L267 506L266 505M274 505L275 506L274 505M585 505L586 506L585 505M593 505L594 506L593 505M599 505L600 506L599 505M609.667 505.333L610.333 505.667L609.667 505.333M617.667 505.333L618.333 505.667L617.667 505.333M271 506L272 507L271 506M287 506L288 507L287 506M596 506L597 507L596 506M602 506L603 507L602 506M612.667 506.333L613.333 506.667L612.667 506.333M620.667 506.333L621.333 506.667L620.667 506.333M267 507L268 508L267 507M284 507L285 508L284 507M590 507L591 508L590 507M605 507L606 508L605 507M623.667 507.333L624.333 507.667L623.667 507.333M281 508L282 509L281 508M328 508L329 509L328 508M601 508L602 509L601 508M608 508L609 509L608 508M626.667 508.333L627.333 508.667L626.667 508.333M261 509L262 510L261 509M278 509L279 510L278 509M595 509L596 510L595 509M604 509L605 510L604 509M610.667 509.333L611.333 509.667L610.667 509.333M629.667 509.333L630.333 509.667L629.667 509.333M257.667 510.333L258.333 510.667L257.667 510.333M268 510L269 511L268 510M275 510L276 511L275 510M324 510L325 511L324 510M571 510L572 511L571 510M587 510L588 511L587 510M592 510L593 511L592 510M598 510L599 511L598 510M606.667 510.333L607.333 510.667L606.667 510.333M613.667 510.333L614.333 510.667L613.667 510.333M254 511L255 512L254 511M265 511L266 512L265 511M272 511L273 512L272 511M573 511L574 512L573 511M600 511L601 512L600 511M609 511L610 512L609 511M616 511L617 512L616 511M262 512L263 513L262 512M269 512L270 513L269 512M276 512L277 513L276 512M320 512L321 513L320 512M575 512L576 513L575 512M597 512L598 513L597 512M603 512L604 513L603 512M611.667 512.333L612.333 512.667L611.667 512.333M618.667 512.333L619.333 512.667L618.667 512.333M266.667 513.333L267.333 513.667L266.667 513.333M273 513L274 514L273 513M282 513L283 514L282 513M594 513L595 514L594 513M599 513L600 514L599 513M605 513L606 514L605 513M614.667 513.333L615.333 513.667L614.667 513.333M621.667 513.333L622.333 513.667L621.667 513.333M270 514L271 515L270 514M279 514L280 515L279 514M589 514L590 515L589 514M596 514L597 515L596 514M602 514L603 515L602 514M608 514L609 515L608 514M617 514L618 515L617 514M253 515L254 516L253 515M591 515L592 516L591 515M604 515L605 516L604 515M610 515L611 516L610 515M619.667 515.333L620.333 515.667L619.667 515.333M257.667 516.333L258.333 516.667L257.667 516.333M265 516L266 517L265 516M274 516L275 517L274 516M593 516L594 517L593 516M601 516L602 517L601 516M606.667 516.333L607.333 516.667L606.667 516.333M612.667 516.333L613.333 516.667L612.667 516.333M622 516L622 517L626 518L626 517L622 516M254 517L255 518L254 517M262 517L263 518L262 517M271 517L272 518L271 517M277 517L278 518L277 517M285 517L286 518L285 517M603 517L604 518L603 517M609 517L610 518L609 517M615 517L615 518L619 519L619 518L615 517M268 518L269 519L268 518M328 518L327 520L328 518M598 518L599 519L598 518M605 518L606 519L605 518M611 518L612 519L611 518M266 519L267 520L266 519M272 519L273 520L272 519M280 519L281 520L280 519M584 519L585 520L584 519M595 519L596 520L595 519M600 519L601 520L600 519M608 519L609 520L608 519M613.667 519.333L614.333 519.667L613.667 519.333M620 519L620 520L624 521L624 520L620 519M253.667 520.333L254.333 520.667L253.667 520.333M269 520L270 521L269 520M586 520L587 521L586 520M597 520L598 521L597 520M602 520L603 521L602 520M610 520L611 521L610 520M616 520L617 521L616 520M267 521L268 522L267 521M275 521L276 522L275 521M328 521L329 522L328 521M588 521L589 522L588 521M599 521L600 522L599 521M604 521L605 522L604 521M612 521L613 522L612 521M618 521L618 522L622 523L622 522L618 521M625 521L625 522L629 523L629 522L625 521M257.667 522.333L258.333 522.667L257.667 522.333M278 522L279 523L278 522M283 522L284 523L283 522M590 522L591 523L590 522M601 522L602 523L601 522M606.667 522.333L607.333 522.667L606.667 522.333M614.667 522.333L615.333 522.667L614.667 522.333M261.667 523.333L262.333 523.667L261.667 523.333M270 523L271 524L270 523M324 523L323 525L324 523M571 523L573 525L571 523M592 523L593 524L592 523M603 523L604 524L603 523M609 523L610 524L609 523M617 523L618 524L617 523M273 524L274 525L273 524M327.667 524.333L328.333 524.667L327.667 524.333M594 524L595 525L594 524M605 524L606 525L605 524M611 524L612 525L611 524M619 524L620 525L619 524M265 525L266 526L265 525M271 525L272 526L271 525M276 525L277 526L276 525M596 525L597 526L596 525M608 525L609 526L608 525M613 525L614 526L613 525M621 525L621 526L625 527L625 526L621 525M254 526L255 527L254 526M268 526L269 527L268 526M274 526L275 527L274 526M281 526L282 527L281 526M598 526L599 527L598 526M610 526L611 527L610 526M615 526L615 527L621 529L621 528L615 526M266 527L267 528L266 527M595 527L596 528L595 527M600 527L601 528L600 527M612 527L613 528L612 527M626 527L627 528L626 527M257.667 528.333L258.333 528.667L257.667 528.333M269 528L270 529L269 528M587 528L588 529L587 528M591 528L592 529L591 528M597 528L598 529L597 528M602 528L603 529L602 528M607 528L608 529L607 528M614 528L615 529L614 528M261 529L262 530L261 529M267 529L268 530L267 529M279 529L280 530L279 529M589 529L590 530L589 529M593 529L594 530L593 529M599 529L600 530L599 529M604 529L605 530L604 529M609 529L610 530L609 529M616 529L617 530L616 529M622 529L623 530L622 529M272 530L273 531L272 530M277 530L278 531L277 530M328 530L327 532L328 530M601 530L602 531L601 530M606 530L607 531L606 530M611 530L612 531L611 530M618 530L619 531L618 530M262 531L263 532L262 531M270 531L271 532L270 531M275 531L276 532L275 531M603 531L604 532L603 531M613 531L614 532L613 531M254 532L255 533L254 532M585 532L586 533L585 532M594 532L595 533L594 532M605 532L606 533L605 532M615 532L616 533L615 532M257.667 533.333L258.333 533.667L257.667 533.333M265 533L266 534L265 533M288 533L289 534L288 533M324 533L325 534L324 533M571 533L572 534L571 533M596 533L597 534L596 533M600 533L601 534L600 533M607 533L609 535L607 533M617 533L618 534L617 533M268 534L269 535L268 534M286 534L287 535L286 534M328 534L329 535L328 534M573 534L574 535L573 534M592 534L593 535L592 534M598 534L599 535L598 534M602 534L603 535L602 534M619 534L620 535L619 534M253 535L254 536L253 535M261 535L262 536L261 535M266 535L267 536L266 535M273 535L274 536L273 535M284 535L285 536L284 535M590 535L591 536L590 535M604 535L605 536L604 535M610 535L611 536L610 535M621 535L622 536L621 535M271 536L272 537L271 536M282 536L283 537L282 536M601 536L602 537L601 536M606 536L607 537L606 536M612 536L613 537L612 536M623 536L624 537L623 536M262 537L263 538L262 537M269 537L270 538L269 537M280 537L281 538L280 537M327 537L328 538L327 537M588 537L589 538L588 537M597 537L598 538L597 537M603 537L604 538L603 537M614 537L615 538L614 537M625 537L626 538L625 537M254 538L255 539L254 538M267 538L268 539L267 538M278 538L279 539L278 538M595 538L596 539L595 538M599 538L600 539L599 538M605 538L606 539L605 538M609 538L610 539L609 538M616 538L617 539L616 538M627 538L628 539L627 538M257.667 539.333L258.333 539.667L257.667 539.333M265 539L266 540L265 539M276 539L277 540L276 539M328 539L327 541L328 539M607 539L609 541L607 539M611 539L612 540L611 539M618 539L619 540L618 539M629 539L630 540L629 539M274 540L275 541L274 540M593 540L594 541L593 540M602 540L603 541L602 540M613 540L614 541L613 540M631 540L632 541L631 540M253 541L254 542L253 541M261 541L262 542L261 541M272 541L273 542L272 541M583 541L584 542L583 541M591 541L592 542L591 541M600 541L601 542L600 541M604 541L605 542L604 541M610 541L611 542L610 541M615 541L616 542L615 541M270 542L271 543L270 542M324 542L323 544L324 542M571 542L574 545L571 542M596 542L597 543L596 542M606 542L607 543L606 542M612 542L613 543L612 542M617 542L617 543L621 545L621 544L617 542M268 543L269 544L268 543M273 543L274 544L273 543M277 543L278 544L277 543M328 543L327 545L328 543M586 543L587 544L586 543M594 543L595 544L594 543M598 543L599 544L598 543M603 543L604 544L603 543M614 543L614 544L618 546L618 545L614 543M254 544L255 545L254 544M266 544L267 545L266 544M271 544L272 545L271 544M275 544L276 545L275 544M281 544L282 545L281 544M605 544L606 545L605 544M609 544L610 545L609 544M257 545L258 546L257 545M269 545L270 546L269 545M279 545L280 546L279 545M283 545L284 546L283 545M589 545L590 546L589 545M597 545L598 546L597 545M601 545L602 546L601 545M607 545L609 547L607 545M611 545L612 546L611 545M622 545L623 546L622 545M262 546L263 547L262 546M267 546L268 547L267 546M328 546L329 547L328 546M599 546L600 547L599 546M613 546L615 548L613 546M619 546L620 547L619 546M624 546L625 547L624 546M253 547L254 548L253 547M265 547L266 548L265 547M592 547L593 548L592 547M604 547L605 548L604 547M610 547L611 548L610 547M621 547L621 548L624 549L624 550L626 550L627 551L627 550L624 549L624 548L622 548L621 547M258 548L259 549L258 548M590 548L591 549L590 548M602 548L603 549L602 548M606 548L607 549L606 548M612 548L614 550L612 548M616 548L617 549L616 548M261 549L262 550L261 549M266 549L267 550L266 549M272 549L273 550L272 549M276 549L277 550L276 549M285 549L286 550L285 549M324 549L323 551L324 549M571 549L573 551L571 549M587 549L588 550L587 549M595 549L596 550L595 549M600 549L601 550L600 549M618 549L618 550L622 552L622 551L618 549M270 550L271 551L270 550M274 550L275 551L274 550M327 550L328 551L327 550M593 550L594 551L593 550M605 550L606 551L605 550M609 550L610 551L609 550M615 550L616 551L615 550M257 551L258 552L257 551M262 551L263 552L262 551M268 551L269 552L268 551M278 551L279 552L278 551M584 551L585 552L584 551M598 551L600 553L598 551M603 551L604 552L603 551M607 551L609 553L607 551M611 551L613 553L611 551M617 551L619 553L617 551M280 552L281 553L280 552M328 552L327 554L328 552M596 552L597 553L596 552M254 553L255 554L254 553M258 553L259 554L258 553M265 553L266 554L265 553M269 553L270 554L269 553M324 553L325 554L324 553M571 553L572 554L571 553M601 553L603 555L601 553M606 553L607 554L606 553M610 553L612 555L610 553M614 553L614 554L618 556L618 555L614 553M620 553L620 554L624 556L624 555L620 553M267 554L268 555L267 554M273 554L274 555L273 554M588 554L589 555L588 554M591 554L592 555L591 554M594 554L595 555L594 554M261 555L262 556L261 555M271 555L272 556L271 555M275 555L276 556L275 555M600 555L601 556L600 555M604 555L606 557L604 555M609 555L610 556L609 555M613 555L615 557L613 555M253 556L254 557L253 556M277 556L278 557L277 556M282 556L283 557L282 556M328 556L327 558L328 556M597 556L598 557L597 556M619 556L621 558L619 556M625 556L625 557L629 559L629 558L625 556M257 557L258 558L257 557M262 557L263 558L262 557M572 557L574 559L572 557M592 557L593 558L592 557M595 557L596 558L595 557M603 557L604 558L603 557M607 557L609 559L607 557M612 557L613 558L612 557M616 557L617 558L616 557M266 558L267 559L266 558M270 558L271 559L270 558M618 558L620 560L618 558M622 558L622 559L626 561L626 560L622 558M254 559L255 560L254 559M258 559L259 560L258 559M268 559L269 560L268 559M272 559L273 560L272 559M598 559L600 561L598 559M601 559L602 560L601 559M606 559L607 560L606 559M610 559L612 561L610 559M615 559L616 560L615 559M279 560L280 561L279 560M287 560L288 561L287 560M585 560L586 561L585 560M589 560L590 561L589 560M596 560L597 561L596 560M617 560L619 562L617 560M621 560L623 562L621 560M261 561L262 562L261 561M265 561L266 562L265 561M269 561L270 562L269 561M274 561L275 562L274 561M571 561L573 563L571 561M593 561L594 562L593 561M604 561L606 563L604 561M609 561L611 563L609 561M613 561L615 563L613 561M253 562L254 563L253 562M267 562L268 563L267 562M276 562L277 563L276 562M284 562L285 563L284 562M602 562L604 564L602 562M620 562L622 564L620 562M257 563L258 564L257 563M271 563L272 564L271 563M575 563L578 566L575 563M600 563L601 564L600 563M607 563L609 565L607 563M612 563L614 565L612 563M273 564L274 565L273 564M281 564L282 565L281 564M590 564L591 565L590 564M594 564L595 565L594 564M597 564L598 565L597 564M623 564L625 566L623 564M254 565L255 566L254 565M258 565L259 566L258 565M262 565L261 567L262 565M583 565L584 571L584 572L583 574L584 580L584 581L583 583L583 587L583 588L583 589L583 590L583 591L583 592L583 593L583 594L583 595L583 596L583 597L583 598L583 599L583 600L583 601L583 602L583 603L583 604L583 605L583 606L583 610L587 610L588 610L589 610L590 610L591 610L592 610L593 610L594 610L595 610L596 610L597 610L598 610L599 610L600 610L601 610L602 610L608 610L607 607L609 609L610 609L610 610L611 610L611 611L612 611L612 612L613 612L613 613L614 613L614 614L615 614L615 615L616 615L616 616L617 616L619 619L622 618L623 618L626 618L633 619L628 615L628 612L625 612L623 610L623 609L622 609L622 608L619 604L616 604L614 602L614 601L613 601L613 600L610 597L608 597L607 596L605 594L605 593L604 593L604 592L603 592L603 591L602 591L602 590L598 588L600 586L597 585L595 583L595 582L594 582L594 581L593 581L593 580L592 580L592 579L588 577L588 576L592 577L594 579L594 580L595 580L595 581L597 583L599 583L600 584L602 586L602 587L603 587L603 588L606 592L609 592L611 594L611 595L612 595L612 596L615 600L618 600L622 605L625 605L626 606L628 608L628 609L629 609L629 610L634 613L628 608L628 605L625 605L621 601L624 601L626 604L631 605L629 602L627 603L624 601L623 597L621 598L618 596L617 592L615 593L614 591L608 590L613 590L611 587L609 588L608 586L606 587L602 586L604 583L605 583L607 585L605 582L603 583L602 581L600 582L599 581L596 576L593 576L589 572L590 570L589 569L587 567L585 567L583 565M606 565L607 566L606 565M615 565L618 568L615 565M266 566L267 567L266 566M270 566L271 567L270 566M278 566L279 567L278 566M604 566L605 567L604 566M611 566L613 568L611 566M626 566L628 568L626 566M268 567L269 568L268 567M579 567L582 571L579 567M585 567L589 570L589 571L585 567M591 567L592 568L591 567M598 567L600 569L598 567M601 567L603 569L601 567M609 567L611 569L609 567M253 568L254 569L253 568M257 568L258 569L257 568M275 568L276 569L275 568M595 568L597 570L595 568M607 568L610 571L607 568M614 568L616 570L614 568M619 568L621 570L619 568M629 568L631 570L629 568M265 569L266 570L265 569M571 569L574 572L571 569M254 570L255 571L254 570M272 570L273 571L272 570M277 570L278 571L277 570M280 570L281 571L280 570M283 570L284 571L283 570M605 570L607 572L605 570M613 570L615 572L613 570M622 570L624 572L622 570M258 571L259 572L258 571M262 571L263 572L262 571M267 571L268 572L267 571M603 571L605 573L603 571M611 571L614 574L611 571M618 571L620 573L618 571M269 572L270 573L269 572M274 572L275 573L274 572M585 572L588 576L585 572M592 572L595 575L592 572M597 572L598 573L597 572M600 572L602 574L600 572M616 572L619 575L616 572M286 573L287 574L286 573M575 573L578 576L575 573M621 573L623 576L625 576L627 578L625 575L623 575L621 573M253 574L254 575L253 574M257 574L258 575L257 574M266 574L265 576L266 574M271 574L272 575L271 574M328 574L328 576L328 577L327 577L327 578L327 580L328 580L329 578L328 574M591 574L595 579L597 579L603 583L603 584L602 585L601 585L597 580L595 580L594 579L591 574M607 574L610 577L607 574M610 574L612 576L610 574M615 574L618 577L615 574M261 575L262 576L261 575M273 575L274 576L273 575M276 575L277 576L276 575M620 575L623 578L620 575M254 576L253 578L254 576M268 576L267 578L268 576M279 576L280 577L279 576M282 576L283 577L282 576M571 576L571 578L571 579L572 579L572 580L571 580L571 581L572 581L572 582L571 583L574 585L574 583L574 582L573 582L573 581L574 581L574 580L573 580L573 579L574 578L571 576M602 576L604 578L602 576M605 576L607 578L605 576M258 577L259 578L258 577M262 577L263 578L262 577M270 577L271 578L270 577M579 577L582 580L579 577M598 577L601 580L598 577M614 577L616 579L614 577M619 577L622 580L619 577M272 578L273 579L272 578M324 578L324 580L324 581L323 581L323 582L324 582L324 583L323 583L323 584L324 584L324 585L323 585L323 586L323 588L324 588L325 586L325 584L324 584L324 583L325 583L325 582L324 582L324 581L325 581L324 578M573 578L572 579L573 578M612 578L615 581L612 578M275 579L276 580L275 579M278 579L279 580L278 579M586 579L588 581L588 582L589 582L589 583L590 583L590 584L591 584L591 585L592 585L592 586L593 586L593 587L594 587L594 588L595 588L595 589L596 589L596 590L597 590L597 591L598 591L598 592L599 592L599 593L602 596L604 596L605 597L607 599L607 600L608 600L608 601L609 601L609 602L610 602L610 603L611 603L611 604L612 604L612 605L613 605L613 606L614 606L614 607L615 607L615 608L616 608L616 609L617 609L617 610L618 610L618 611L621 614L623 614L626 618L623 615L621 615L620 614L618 612L618 611L617 611L617 610L616 610L616 609L615 609L615 608L614 608L614 607L613 607L613 606L612 606L612 605L611 605L611 604L610 604L610 603L609 603L609 602L608 602L608 601L607 601L607 600L604 597L602 597L601 596L599 594L599 593L598 593L598 592L597 592L597 591L596 591L596 590L595 590L595 589L594 589L594 588L593 588L593 587L592 587L592 586L591 586L591 585L590 585L590 584L589 584L589 583L588 583L588 582L586 579M589 579L591 579L593 581L593 582L594 582L594 583L595 583L595 584L596 584L596 585L598 586L597 588L598 589L601 592L603 592L604 593L606 595L606 596L607 596L607 597L608 597L608 598L609 598L609 599L610 599L610 600L611 600L611 601L612 601L612 602L613 602L613 603L615 605L617 605L618 606L620 608L620 609L621 609L621 610L622 610L622 611L623 611L623 612L624 612L624 613L625 613L625 614L626 614L626 615L627 615L627 616L629 618L627 616L626 616L626 615L625 615L625 614L624 614L624 613L623 613L623 612L622 612L622 611L621 611L621 610L620 610L620 609L619 609L617 606L615 606L614 605L612 603L612 602L611 602L611 601L610 601L610 600L609 600L609 599L608 599L608 598L607 598L607 597L606 597L606 596L605 596L605 595L603 593L601 593L600 592L598 590L598 589L597 589L597 588L596 588L596 587L595 587L595 586L594 586L594 585L593 585L593 584L592 584L592 583L591 583L591 582L589 579M257 580L258 581L257 580M266 580L267 581L266 580M269 580L270 581L269 580M573 580L572 581L573 580M575 580L575 582L575 583L576 583L576 584L575 584L575 585L576 585L576 586L575 586L575 587L576 587L576 588L575 588L575 589L576 589L576 590L575 591L577 592L577 595L578 595L578 593L578 592L577 592L577 591L578 591L578 590L577 590L577 589L578 589L578 588L577 588L577 587L578 587L578 586L577 586L577 585L578 585L578 584L577 584L577 583L578 582L575 580M590 580L592 582L592 583L593 583L593 584L597 587L595 585L595 584L594 584L594 583L590 580M607 580L610 583L607 580M610 580L613 583L610 580M618 580L621 583L618 580M623 580L626 583L623 580M261 581L262 582L261 581M285 581L286 582L285 581M328 581L328 583L328 584L327 584L327 585L328 585L328 586L327 586L327 587L327 589L328 589L329 587L329 585L328 585L328 584L329 584L328 581M585 581L587 583L587 584L588 584L588 585L589 585L589 586L590 586L590 587L591 587L591 588L592 588L592 589L593 589L593 590L594 590L594 591L595 591L595 592L596 592L596 593L597 593L597 594L598 594L598 595L599 595L599 596L600 596L600 597L601 597L601 598L602 598L602 599L603 599L603 600L604 600L604 601L605 601L605 602L606 602L606 603L608 605L610 605L611 606L613 608L613 609L614 609L614 610L615 610L615 611L616 611L616 612L617 612L617 613L618 613L618 614L619 614L619 615L620 615L620 616L622 618L620 616L619 616L619 615L618 615L618 614L617 614L617 613L616 613L616 612L615 612L615 611L614 611L614 610L613 610L613 609L612 609L610 606L608 606L607 605L605 603L605 602L604 602L604 601L603 601L603 600L602 600L602 599L601 599L601 598L600 598L600 597L599 597L599 596L598 596L598 595L597 595L597 594L596 594L596 593L595 593L595 592L594 592L594 591L593 591L593 590L592 590L592 589L591 589L591 588L590 588L590 587L589 587L589 586L588 586L588 585L587 585L587 584L586 584L586 583L585 581M616 581L620 585L616 581M254 582L253 584L254 582M271 582L272 583L271 582M274 582L275 583L274 582M281 582L282 583L281 582M320 582L320 584L320 585L319 585L319 586L320 586L320 587L319 587L319 588L320 588L320 589L319 589L319 590L320 590L320 591L319 591L319 592L320 592L320 593L319 593L319 594L320 594L320 595L319 595L319 596L320 596L320 597L319 597L319 598L320 598L320 599L319 599L319 600L320 600L320 601L319 601L319 602L320 602L320 603L319 603L319 604L319 606L320 606L321 604L321 602L320 602L320 601L321 601L321 600L320 600L320 599L321 599L321 598L320 598L320 597L321 597L321 596L320 596L320 595L321 595L321 594L320 594L320 593L321 593L321 592L320 592L320 591L321 591L321 590L320 590L320 589L321 589L321 588L320 588L320 587L321 587L321 586L320 586L320 585L321 585L320 582M573 582L572 583L573 582M577 582L576 583L577 582M258 583L259 584L258 583M265 583L266 584L265 583M277 583L278 584L277 583M601 583L602 584L601 583M622 583L625 586L622 583M627 583L630 586L627 583M268 584L267 586L268 584M577 584L576 585L577 584M579 584L579 586L579 587L580 587L580 588L579 588L579 589L580 589L580 590L579 590L579 591L580 591L580 592L579 592L579 593L580 593L580 594L579 594L579 595L580 595L580 596L579 596L579 597L580 597L580 598L579 598L579 599L580 599L580 600L579 600L579 601L580 601L580 602L579 602L579 603L580 603L580 604L580 606C578.645 608.412 579.351 609.432 582 610L581 607L581 605L582 605L582 604L581 604L581 603L582 603L582 602L581 602L581 601L582 601L582 600L581 600L581 599L582 599L582 598L581 598L581 597L582 597L582 596L581 596L581 595L582 595L582 594L581 594L581 593L582 593L582 592L581 592L581 591L582 591L582 590L581 590L581 589L582 589L582 588L581 588L582 586L579 584M615 584L618 587L615 584M262 585L261 587L262 585M270 585L271 586L270 585M280 585L281 586L280 585M571 585L571 587L571 588L572 588L572 589L571 589L571 590L572 590L572 591L571 592L573 593L573 594C571.604 594.698 571.604 594.302 573 595L573 596L571 597L571 598L572 600L572 604C570.604 604.698 570.604 604.302 572 605L572 606C570.645 608.412 571.351 609.432 574 610L573 607C574.396 606.302 574.396 606.698 573 606L573 605L573 602L573 600L574 600L574 599L573 599L573 598L574 598L574 597L573 597L573 596L574 596L574 595L573 595L573 594L574 594L574 593L573 593L574 591L572 590L572 589L571 585M613 585L616 588L613 585M254 586L255 587L254 586M257 586L258 587L257 586M273 586L274 587L273 586M276 586L277 587L276 586M577 586L576 587L577 586M581 586L580 587L581 586M605 586L609 588L609 589L608 590L607 590L605 586M258 588L259 589L258 588M266 588L267 589L266 588M577 588L576 589L577 588M581 588L580 589L581 588M607 588L608 589L607 588M611 588L610 589L611 588M620 588L624 592L620 588M253 589L254 590L253 589M269 589L270 590L269 589M272 589L273 590L272 589M275 589L276 590L275 589M323 589L324 590L323 589M618 589L622 593L618 589M284 590L285 591L284 590M328 590L329 591L328 590M577 590L576 591L577 590M581 590L580 591L581 590M254 591L255 592L254 591M262 591L263 592L262 591M279 591L280 592L279 591M323 591L324 592L323 591M573 591L572 592L573 591M257 592L258 593L257 592M265 592L266 593L265 592M268 592L267 594L268 592M271 592L270 594L271 592M328 592L329 593L328 592M581 592L580 593L581 592M612 592L614 592L615 594L617 593L618 594L617 596L624 599L624 600L621 601L620 601L617 597L615 597L614 596L612 592M625 592L629 596L625 592M274 593L275 594L274 593M283 593L284 594L283 593M324 593L325 594L324 593M607 593L609 595L607 593M613 593L617 595L617 594L613 593M258 594L259 595L258 594M328 594L327 596L328 594M581 594L580 595L581 594M624 594L628 598L624 594M253 595L254 596L253 595M261 595L262 596L261 595M278 595L277 597L278 595M324 595L324 597L324 598L323 598L323 599L323 601L324 601L325 599L324 595M575 595L576 596L575 595M266 596L265 598L266 596M273 596L274 597L273 596M282 596L283 597L282 596M577 596L578 597L577 596M581 596L580 597L581 596M254 597L253 599L254 597M262 597L263 598L262 597M269 597L270 598L269 597M328 597L329 598L328 597M573 597L572 598L573 597M575 597L576 598L575 597M257 598L258 599L257 598M577 598L578 599L577 598M581 598L580 599L581 598M619 598L621 600L619 598M276 599L277 600L276 599M573 599L572 600L573 599M575 599L576 604C574.604 604.698 574.604 604.302 576 605L576 606C574.645 608.412 575.351 609.432 578 610L577 607L578 604L575 599M258 600L259 601L258 600M261 600L262 601L261 600M268 600L267 602L268 600M272 600L271 602L272 600M281 600L282 601L281 600M327 600L328 601L327 600M581 600L580 601L581 600M573 601L572 602L573 601M616 601L618 603L616 601M275 602L274 604L275 602M324 602L323 604L324 602M327 602L328 603L327 602M581 602L580 603L581 602M254 603L253 605L254 603M257 603L258 604L257 603M280 603L281 604L280 603M270 604L269 606L270 604M573 604L572 605L573 604M577 604L576 605L577 604M581 604L580 605L581 604M262 605L261 607L262 605M266 605L265 607L266 605M323 605L324 606L323 605M258 606L259 607L258 606M573 606L572 607L573 606M577 606L576 607L577 606M581 606L580 607L581 606M623 606L625 608L623 606M628 606L627 607L628 606M631 606L634 609L631 606M273 607L272 609L273 607M279 607L277 610L279 607M320 607L319 609L320 607M323 607L324 608L323 607M268 608L266 611L268 608M254 609L253 611L254 609M257 609L258 610L257 609M328 609L329 610L328 609M625 609L627 611L625 609M319 610L320 611L319 610M262 611L261 613L262 611M271 611L269 614L271 611M327 611L328 612L327 611M258 612L259 613L258 612M276 612L274 615L276 612M316 612L314 614L314 616L313 617L311 618L310 619L310 621L309 622L305 625L305 627L304 628L302 629L301 630L301 632L300 633L296 636L296 638L295 639L293 640L292 641L292 643L291 644L287 647L287 649L286 650L284 651L283 652L283 654L282 655L278 658L278 660L277 661L275 662L274 663L274 665L273 666L269 669L269 671L268 672L266 673L265 676L269 676L270 676L271 676L272 676L273 676L274 676L275 676L276 676L277 676L278 676L279 676L280 676L281 676L282 676L283 676L284 676L285 676L286 676L287 676L288 676L289 676L290 676L291 676L292 676L293 676L294 676L295 676L296 676L297 676L298 676L299 676L300 676L301 676L302 676L303 676L304 676L305 676L306 676L307 676L308 676L309 676L310 676L311 676L312 676L313 676L314 676L315 676L316 676L317 676L318 676L319 676L320 676L321 676L322 676L323 676L324 676L325 676L326 676L327 676L328 676L329 676L330 676L331 676L332 676L333 676L334 676L335 676L336 676L337 676L338 676L339 676L340 676L341 676L342 676L343 676L344 676L345 676L346 676L347 676L348 676L349 676L350 676L351 676L352 676L353 676L354 676L355 676L356 676L357 676L358 676L359 676L360 676L361 676L362 676L363 676L364 676L365 676L366 676L367 676L368 676L369 676L370 676L371 676L372 676L373 676L374 676L375 676L376 676L377 676L378 676L379 676L380 676L381 676L382 676L383 676L384 676L385 676L386 676L387 676L388 676L389 676L390 676L391 676L392 676L393 676L394 676L395 676L396 676L397 676L398 676L399 676L400 676L401 676L402 676L403 676L404 676L405 676L406 676L407 676L408 676L409 676L410 676L411 676L412 676L413 676L414 676L415 676L416 676L417 676L418 676L419 676L420 676L421 676L422 676L423 676L424 676L425 676L426 676L427 676L428 676L429 676L430 676L431 676L432 676L433 676L434 676L435 676L436 676L437 676L438 676L439 676L440 676L441 676L442 676L443 676L444 676L445 676L446 676L447 676L448 676L449 676L450 676L451 676L452 676L453 676L454 676L455 676L456 676L457 676L458 676L459 676L460 676L461 676L462 676L463 676L464 676L465 676L466 676L467 676L468 676L469 676L470 676L471 676L472 676L473 676L474 676L475 676L476 676L477 676L478 676L479 676L480 676L481 676L482 676L483 676L484 676L485 676L486 676L487 676L488 676L489 676L490 676L491 676L492 676L493 676L494 676L495 676L496 676L497 676L498 676L499 676L500 676L501 676L502 676L503 676L504 676L505 676L506 676L507 676L508 676L509 676L510 676L511 676L512 676L513 676L514 676L515 676L516 676L517 676L518 676L519 676L520 676L521 676L522 676L523 676L524 676L525 676L526 676L527 676L528 676L529 676L530 676L531 676L532 676L533 676L534 676L535 676L536 676L537 676L538 676L539 676L540 676L541 676L542 676L543 676L544 676L545 676L546 676L547 676L548 676L549 676L550 676L551 676L552 676L553 676L554 676L555 676L556 676L557 676L558 676L559 676L560 676L561 676L562 676L563 676L564 676L571 676L570 672L569 672L569 670L568 670L568 668L567 668L567 666L565 665L565 663L564 663L564 661L563 661L563 659L562 659L561 655L559 654L559 652L558 652L558 650L557 650L557 648L556 648L555 644L553 643L553 641L552 641L552 639L551 639L551 637L550 637L547 631L543 631L542 631L541 631L540 631L539 631L538 631L537 631L536 631L535 631L534 631L533 631L532 631L531 631L530 631L529 631L528 631L527 631L526 631L525 631L524 631L523 631L522 631L521 631L520 631L519 631L518 631L517 631L516 631L515 631L514 631L513 631L512 631L511 631L510 631L509 631L508 631L507 631L506 631L505 631L504 631L503 631L502 631L501 631L500 631L499 631L498 631L497 631L496 631L495 631L494 631L493 631L492 631L491 631L490 631L489 631L488 631L487 631L486 631L485 631L484 631L483 631L482 631L481 631L480 631L479 631L478 631L477 631L476 631L475 631L474 631L473 631L472 631L471 631L470 631L469 631L468 631L467 631L466 631L465 631L464 631L463 631L462 631L461 631L460 631L459 631L458 631L457 631L456 631L455 631L454 631L453 631L452 631L451 631L450 631L449 631L448 631L447 631L446 631L445 631L444 631L443 631L442 631L441 631L440 631L439 631L438 631L437 631L436 631L435 631L434 631L433 631L432 631L431 631L430 631L429 631L428 631L427 631L426 631L425 631L424 631L423 631L422 631L421 631L420 631L419 631L418 631L417 631L416 631L415 631L414 631L413 631L412 631L411 631L410 631L409 631L408 631L407 631L406 631L405 631L404 631L403 631L402 631L401 631L400 631L399 631L398 631L397 631L396 631L395 631L394 631L393 631L392 631L391 631L390 631L389 631L388 631L387 631L386 631L385 631L384 631L383 631L382 631L381 631L380 631L379 631L378 631L377 631L376 631L375 631L374 631L373 631L372 631L371 631L370 631L369 631L368 631L367 631L366 631L365 631L364 631L363 631L362 631L361 631L360 631L359 631L358 631L357 631L356 631L355 631L354 631L353 631L352 631L351 631L350 631L349 631L348 631L347 631L346 631L345 631L344 631L343 631L342 631L341 631L340 631L339 631L338 631L337 631L336 631L329 631L330 627L325 631L327 627L324 628L321 631L323 627L320 628L317 631L319 628L319 624L317 621L321 616L320 616L317 619L316 612M319 612L320 613L319 612M328 613L327 615L328 613M572 613L573 614L572 613M628 613L627 614L628 613M265 614L266 615L265 614M319 614L320 615L319 614M580 614L581 615L580 614M632 614L634 616L632 614M254 615L253 617L254 615M257 615L258 616L257 615M307 615L306 617L307 615M324 615L323 617L324 615M588 615L589 616L588 615M592 616L593 617L592 616M258 617L259 618L258 617M262 617L263 618L262 617M268 617L265 621L268 617M303 617L304 618L303 617M575 617L576 618L575 617M595 617L596 618L595 617M254 618L255 619L254 618M273 618L269 623L273 618M299 618L300 619L299 618M324 618L325 619L324 618M328 618L329 619L328 618M581 618L582 619L581 618M598 618L599 619L598 618M296 619L297 620L296 619M321 619L319 622L321 619M326 619L327 620L326 619M331 619L332 620L331 619M335 619L336 620L335 619M347 619L348 620L347 619M354 619L353 621L354 619M363 619L364 620L363 619M373.333 619.667L373.667 620.333L373.333 619.667M376.333 619.667L376.667 620.333L376.333 619.667M379 619L380 620L379 619M392.333 619.667L392.667 620.333L392.333 619.667M399 619L400 620L399 619M412.333 619.667L412.667 620.333L412.333 619.667M415 619L416 620L415 619M431 619L432 620L431 619M467 619L468 620L467 619M483 619L484 620L483 619M486.333 619.667L486.667 620.333L486.333 619.667M499 619L500 620L499 619M506.333 619.667L506.667 620.333L506.333 619.667M518 619L519 620L518 619M522.333 619.667L522.667 620.333L522.333 619.667M525.333 619.667L525.667 620.333L525.333 619.667M534 619L535 620L534 619M549 619L550 620L549 619M551 619L552 620L551 619M569 619L570 620L569 619M584 619L585 620L584 619M602 619L603 620L602 619M261 620L262 621L261 620M292 620L290 623L292 620M306 620L307 621L306 620M323 620L324 621L323 620M329 620L330 621L329 620M333 620L334 621L333 620M340 620L341 621L340 620M543 620L544 621L543 620M559 620L560 621L559 620M574 620L575 621L574 620M590 620L591 621L590 620M253 621L254 622L253 621M257 621L258 622L257 621M302 621L300 624L302 621M593 621L595 623L593 621M606 621L608 623L606 621M622 621L622 622L626 622L627 622L630 622L631 622L634 623L634 622L630 622L629 622L626 622L625 622L622 621M581 622L582 623L581 622M258 623L259 624L258 623M287 623L285 626L287 623M321 623L319 626L321 623M327 623L327 626L328 626L327 623M331 623L332 624L331 623M345 623L344 625L345 623M361 623L362 624L361 623M377.333 623.667L377.667 624.333L377.333 623.667M391 623L392 624L391 623M414.333 623.667L414.667 624.333L414.333 623.667M421 623L422 624L421 623M477 623L478 624L477 623M484.333 623.667L484.667 624.333L484.333 623.667M507 623L508 624L507 623M520.333 623.667L520.667 624.333L520.333 623.667M536 623L537 624L536 623M548 623L549 624L548 623M552.333 623.667L552.667 624.333L552.333 623.667M561 623L562 624L561 623M574 623L575 624L574 623M585 623L586 624L585 623M598 623L599 624L598 623M254 624L253 626L254 624M298 624L299 625L298 624M324 624L323 626L324 624M543 624L544 625L543 624M554 624L555 625L554 624M567 624L568 625L567 624M577 624L578 625L577 624M588 624L589 625L588 624M601 624L603 626L601 624M262 625L261 627L262 625M268 625L265 629L268 625M296 625L297 626L296 625M581 625L582 626L581 625M591 625L592 626L591 625M613 625L614 626L613 625M626 625L626 626L630 626L631 626L634 627L634 626L630 626L629 626L626 625M281 626L277 631L281 626M292 626L291 628L292 626M301 626L302 627L301 626M584 626L585 627L584 626M595 626L596 627L595 626M605 626L607 628L605 626M616 626L617 627L616 626M257 627L258 628L257 627M298 627L299 628L298 627M359 627L360 628L359 627M538 627L539 628L538 627M547 627L548 628L547 627M558 627L559 628L558 627M569 627L570 628L569 627M577 627L578 628L577 627M588 627L589 628L588 627M598 627L600 629L598 627M288 628L286 631L288 628M296 628L294 631L296 628M545 628L546 629L545 628M553 628L554 629L553 628M561 628L562 629L561 628M572 628L573 629L572 628M580 628L581 629L580 628M591 628L593 630L591 628M610 628L613 631L610 628M258 629L259 630L258 629M576 629L577 630L576 629M584 629L585 630L584 629M603 629L605 631L603 629M619 629L621 631L619 629M630 629L630 630L634 631L634 630L630 629M254 630L253 632L254 630M571 630L572 631L571 630M579 630L580 631L579 630M587 630L588 631L587 630M595 630L596 631L595 630M262 631L261 633L262 631M274 631L272 633L272 634L271 634L271 635L270 635L270 636L269 636L269 637L268 637L268 638L267 638L267 639L265 641L267 639L268 639L268 638L269 638L269 637L270 637L270 636L271 636L271 635L272 635L272 634L273 634L274 631M282 631L278 636L282 631M292 631L291 633L292 631M298 631L299 632L298 631M549 631L551 633L552 637L553 637L553 639L554 639L554 641L555 641L555 643L557 644L557 646L558 646L558 648L559 648L559 650L560 650L561 654L563 655L563 657L564 657L564 659L565 659L565 661L566 661L570 667L569 663L568 663L568 661L567 659L565 658L565 656L564 656L564 654L563 652L561 651L561 649L560 649L560 647L559 647L559 645L558 645L558 643L556 642L556 640L555 640L555 638L554 638L554 636L553 636L553 634L549 631M553 631L555 634L556 638L557 638L557 640L558 642L561 645L562 645L564 643L562 647L565 645L563 648L563 651L569 648L569 647L566 647L567 644L565 641L563 642L564 639L562 636L560 637L561 634L559 631L556 631L556 634L553 631M566 631L567 632L566 631M574 631L576 633L574 631M582 631L584 633L582 631M591 631L593 633L591 631M599 631L601 633L599 631M296 632L297 633L296 632M561 632L562 633L561 632M569 632L570 633L569 632M257 633L258 634L257 633M289 633L290 634L289 633M293 633L294 634L293 633M558 633L559 637L561 638L561 640L562 640L562 644L560 641L559 641L559 639L558 633M564 633L565 634L564 633M573 633L575 635L573 633M579 633L580 634L579 633M587 633L588 634L587 633M595 633L597 635L595 633M285 634L282 638L285 634M291 634L287 638L287 641L288 641L288 638L291 634M568 634L569 635L568 634M582 634L583 635L582 634M590 634L592 636L590 634M258 635L259 636L258 635M557 635L558 636L557 635M563 635L564 636L563 635M571 635L572 636L571 635M577 635L578 636L577 635M585 635L587 637L585 635M599 635L601 637L599 635M254 636L253 638L254 636M275 636L273 638L273 639L272 639L272 640L270 642L272 640L273 640L273 639L274 639L275 636M566 636L567 637L566 636M575 636L577 638L575 636M581 636L582 637L581 636M595 636L597 638L595 636M614 636L615 637L614 636M293 637L294 638L293 637M564 637L566 639L564 637M570 637L571 638L570 637M584 637L586 639L584 637M590 637L591 638L590 637M610 637L611 638L610 637M279 638L276 642L279 638M291 638L292 639L291 638M559 638L560 639L559 638M573 638L574 639L573 638M579 638L580 639L579 638M593 638L595 640L593 638M599 638L601 640L599 638M285 639L285 642L281 646L282 647L283 647L284 646L286 642L285 639M568 639L569 640L568 639M577 639L579 641L577 639M583 639L585 641L583 639M588 639L590 641L588 639M614 639L615 640L614 639M560 640L561 641L560 640M566 640L567 641L566 640M572 640L573 641L572 640M598 640L600 642L598 640M282 641L283 642L282 641M569 641L570 642L569 641M575 641L576 642L575 641M581 641L582 642L581 641M587 641L588 642L587 641M593 641L594 642L593 641M610 641L611 642L610 641M266 642L265 644L266 642M272 642L270 644L270 645L269 645L269 646L266 649L268 647L269 647L269 646L270 646L272 642M278 642L274 647L278 642M289 642L288 644L289 642M561 642L562 643L561 642M567 642L569 644L567 642M573 642L575 644L573 642M579 642L581 644L579 642M585 642L587 644L585 642M590 642L592 644L590 642M596 642L599 645L596 642M602 642L603 643L602 642M614 642L615 643L614 642M286 644L287 645L286 644M571 644L572 645L571 644M577 644L578 645L577 644M583 644L585 646L583 644M589 644L591 646L589 644M595 644L598 647L595 644M610 644L611 645L610 644M283 645L282 646L283 645M569 645L570 646L569 645M575 645L577 647L575 645M581 645L583 647L581 645M602 645L603 646L602 645M262 646L261 648L262 646M279 646L277 648L278 650L275 653L276 654L279 652L278 650L281 647L279 646M572 646L574 648L572 646M588 646L590 648L588 646M593 646L595 648L593 646M614 646L615 647L614 646M271 647L269 649L269 650L268 650L268 651L266 653L268 651L269 651L269 650L270 650L271 647M280 647L278 649L280 647M566 647L564 649L566 647M568 647L567 648L568 647M579 647L580 648L579 647M585 647L587 649L585 647M600 647L602 649L600 647M606 647L607 648L606 647M284 648L283 650L284 648M571 648L572 649L571 648M577 648L579 650L577 648M583 648L585 650L583 648M592 648L594 650L592 648M598 648L601 651L598 648M275 649L274 651L275 649M569 649L570 650L569 649M574 649L576 651L574 649M590 649L592 651L590 649M614 649L615 650L614 649M258 650L257 652L258 650M262 650L261 652L262 650M281 650L282 651L281 650M566 650L565 652L566 650M572 650L573 651L572 650M581 650L582 651L581 650M587 650L588 651L587 650M596 650L597 651L596 650M606 650L607 651L606 650M270 651L268 653L268 654L267 654L267 655L265 657L267 655L268 655L268 654L269 654L270 651M278 651L276 653L278 651M570 651L571 652L570 651M567 652L566 654L567 652M262 653L261 655L262 653M273 653L270 657L273 653M280 653L278 656L280 653M571 653L573 655L571 653M574 653L575 654L574 653M580 653L582 655L580 653M583 653L584 654L583 653M589 653L591 655L589 653M593 653L595 655L593 653M598 653L600 655L598 653M602 653L603 654L602 653M258 654L257 656L258 654M568 654L567 658L570 655L568 654M577 654L579 656L577 654M569 655L568 656L569 655M276 656L277 657L276 656M582 656L584 658L582 656M258 657L257 659L258 657M262 657L261 659L262 657M268 657L267 659L268 657M273 657L271 660L273 657M570 657L569 659L570 657M574.333 657.667L574.667 658.333L574.333 657.667M579 657L581 659L579 657M592 657L594 659L592 657M596 657L597 658L596 657M601 657L603 659L601 657M614 657L615 658L614 657M254 658L255 659L254 658M577 658L579 662L580 662L577 658M586 658L587 659L586 658M599 658L600 659L599 658M606 658L607 659L606 658M275 659L273 662L275 659M262 660L261 662L262 660M268 660L269 661L268 660M570 660L571 661L570 660M254 661L255 662L254 661M258 661L257 663L258 661M266 661L265 663L266 661M572 661L574 663L572 661M582.333 661.667L582.667 662.333L582.333 661.667M588 661L590 663L588 661M595 661L596 662L595 661M599.333 661.667L599.667 662.333L599.333 661.667M271 662L272 663L271 662M570 662L571 663L570 662M602 662L603 663L602 662M268 663L265 667L268 663M258 664L257 666L258 664M271 664L268 668L271 664M578 664L579 665L578 664M261 665L262 666L261 665M262.333 667.667L262.667 668.333L262.333 667.667M574.333 667.667L574.667 668.333L574.333 667.667M266 668L267 669L266 668M258 670L257 672L258 670M262 670L261 672L262 670M266 670L265 672L266 670M254 673L253 676L254 673M258 673L257 676L258 673M262 673L261 676L262 673M574.333 674.667L574.667 675.333L574.333 674.667M578.333 674.667L578.667 675.333L578.333 674.667M582.333 674.667L582.667 675.333L582.333 674.667M335 677L336 678L335 677M563 677L564 678L563 677M295 678L296 679L295 678M371 678L372 679L371 678M526 678L527 679L526 678M278 679L279 680L278 679M334 679L335 680L334 679M391 679L392 680L391 679M507 679L508 680L507 679M564 679L565 680L564 679M265 680L266 681L265 680M311 680L312 681L311 680M356 680L357 681L356 680M403 680L404 681L403 680M495 680L496 681L495 680M542 680L543 681L542 680M293 681L294 682L293 681M333 681L334 682L333 681M370 681L371 682L370 681M410 681L411 682L410 681M488 681L489 682L488 681M527 681L528 682L527 681M565 681L566 682L565 681M283 682L284 683L283 682M315 682L316 683L315 682M350 682L351 683L350 682M382 682L383 683L382 682M415 682L416 683L415 682M483 682L484 683L483 682M515 682L516 683L515 682M548 682L549 683L548 682M582 682L583 683L582 682M261 685L262 686L261 685M283 685L284 686L283 685M308 685L309 686L308 685M331 685L332 686L331 685M354 685L355 686L354 685M379 685L380 686L379 685M402 685L403 686L402 685M424 685L425 686L424 685M473 685L474 686L473 685M496 685L497 686L496 685M519 685L520 686L519 685M544 685L545 686L544 685M567 685L568 686L567 685M277 686L278 687L277 686M298 686L299 687L298 686M320 686L321 687L320 686M341 686L342 687L341 686M363 686L364 687L363 686M384 686L385 687L384 686M406 686L407 687L406 686M427 686L428 687L427 686M471 686L472 687L471 686M491 686L492 687L491 686M514 686L515 687L514 686M534 686L535 687L534 686M557 686L558 687L557 686M278 689L279 690L278 689M296 689L297 690L296 689M311 689L312 690L311 689M329 689L330 690L329 689M347 689L348 690L347 689M362 689L363 690L362 689M380 689L381 690L380 689M398 689L399 690L398 689M414 689L415 690L414 689M432.333 689.667L432.667 690.333L432.333 689.667M466.333 689.667L466.667 690.333L466.333 689.667M484 689L485 690L484 689M499 689L500 690L499 689M517 689L518 690L517 689M535 689L536 690L535 689M551 689L552 690L551 689M569 689L570 690L569 689M257 690L258 691L257 690M272 690L273 691L272 690M287 690L288 691L287 690M305 690L306 691L305 690M321 690L322 691L321 690M336 690L337 691L336 690M352 690L353 691L352 690M367 690L368 691L367 690M385 690L386 691L385 690M401 690L402 691L401 690M416 690L417 691L416 690M481 690L482 691L481 690M497 690L498 691L497 690M512 690L513 691L512 690M530 690L531 691L530 690M546 690L547 691L546 690M561 690L562 691L561 690M272 693L273 694L272 693M285 693L286 694L285 693M301 693L302 694L301 693M314 693L315 694L314 693M327 693L328 694L327 693M340 693L341 694L340 693M353 693L354 694L353 693M366 693L367 694L366 693M382 693L383 694L382 693M395 693L396 694L395 693M408 693L409 694L408 693M421 693L422 694L421 693M434 693L435 694L434 693M464 693L465 694L464 693M477 693L478 694L477 693M490 693L491 694L490 693M503 693L504 694L503 693M516 693L517 694L516 693M531 693L532 694L531 693M544 693L545 694L544 693M557 693L558 694L557 693M269 694L270 695L269 694M282 694L283 695L282 694M295 694L296 695L295 694M308 694L309 695L308 694M321 694L322 695L321 694M332 694L333 695L332 694M345 694L346 695L345 694M358 694L359 695L358 694M371 694L372 695L371 694M384 694L385 695L384 694M397 694L398 695L397 694M410 694L411 695L410 694M487 694L488 695L487 694M500 694L501 695L500 694M513 694L514 695L513 694M526 694L527 695L526 694M540 694L541 695L540 694M553 694L554 695L553 694M566 694L567 695L566 694z"/>
</svg>
