<?xml version="1.0" standalone="yes"?>
<svg width="900" height="900">
<path style="fill:#010101; stroke:none;" d="M253 251L255 254L253 251M257 251L258 260L259 260L257 251M261 251L261 255L261 256L261 257L261 258L262 264L263 264L263 260L263 259L263 258L263 257L261 251M265 251L265 255L265 256L265 257L265 258L265 259L265 260L265 261L265 262L265 266L267 268L268 268L268 269L269 269L269 270L270 270L270 271L271 271L271 272L272 272L272 273L273 273L273 274L274 274L274 275L275 275L275 276L276 276L276 277L277 277L277 278L278 278L278 279L279 279L279 280L280 280L280 281L281 281L281 282L282 282L282 283L283 283L283 284L284 284L284 285L285 285L285 286L286 286L286 287L287 287L287 288L288 288L288 289L289 289L289 290L290 290L290 291L291 291L291 292L292 292L292 293L293 293L293 294L294 294L294 295L295 295L295 296L296 296L296 297L297 297L297 298L298 298L298 299L299 299L299 300L300 300L300 301L301 301L301 302L302 302L302 303L303 303L303 304L304 304L304 305L305 305L305 306L306 306L306 307L307 307L307 308L308 308L308 309L309 309L309 310L310 310L310 311L311 311L311 312L312 312L312 313L313 313L313 314L314 314L314 315L315 315L317 317L317 313L317 312L317 311L317 310L317 306L315 304L314 304L314 303L313 303L311 298L310 297L308 298L307 295L305 293L304 293L304 292L303 292L301 290L302 288L301 287L300 286L297 286L296 283L292 280L293 278L292 277L286 274L283 270L284 268L283 267L281 265L280 265L280 264L279 264L275 262L274 259L272 257L271 257L271 256L270 256L270 255L269 255L269 254L268 254L265 251M319 251L319 255L319 256L319 257L319 258L319 259L319 260L319 261L319 262L319 263L319 264L319 265L319 266L319 267L319 268L319 269L319 270L319 271L319 272L319 273L319 274L319 275L319 276L319 277L319 278L319 279L319 280L319 281L319 282L319 283L319 284L319 285L319 286L319 287L319 288L319 289L319 290L319 291L319 292L319 293L319 294L319 295L319 296L319 297L319 298L319 299L319 300L319 301L319 302L319 303L319 304L319 305L319 306L319 307L319 308L319 309L319 310L319 311L319 312L319 313L319 314L320 322L321 322L321 318L321 317L321 316L321 315L321 314L321 313L321 312L321 311L321 310L321 309L321 308L321 307L321 306L321 305L321 304L321 303L321 302L321 301L321 300L321 299L321 298L321 297L321 296L321 295L321 294L321 293L321 292L321 291L321 290L321 289L321 288L321 287L321 286L321 285L321 284L321 283L321 282L321 281L321 280L321 279L321 278L321 277L321 276L321 275L321 274L321 273L321 272L321 271L321 270L321 269L321 268L321 267L321 266L321 265L321 264L321 263L321 262L321 261L321 260L321 259L319 251M323 251L323 255L323 256L323 257L323 258L323 259L323 260L323 261L323 262L323 263L323 264L323 265L323 266L323 267L323 268L323 269L323 270L323 271L323 272L323 273L323 274L323 275L323 276L323 277L323 278L323 279L323 280L323 281L323 282L323 283L323 284L323 285L323 286L323 287L323 288L323 289L323 290L323 291L323 292L323 293L323 294L323 295L323 296L323 297L323 298L323 299L323 300L323 301L323 302L323 303L323 304L323 305L323 306L323 307L323 308L323 309L323 310L323 311L323 312L323 313L323 314L323 315L323 316L323 317L323 318L324 325L325 325L325 321L325 320L325 319L325 318L325 317L325 316L325 315L325 314L325 313L325 312L325 311L325 310L325 309L325 308L325 307L325 306L325 305L325 304L325 303L325 302L325 301L325 300L325 299L325 298L325 297L325 296L325 295L325 294L325 293L325 292L325 291L325 290L325 289L325 288L325 287L325 286L325 285L325 284L325 283L325 282L325 281L325 280L325 279L325 278L325 277L325 276L325 275L325 274L325 273L325 272L325 271L325 270L325 269L325 268L325 267L325 266L325 265L325 264L325 263L325 262L325 261L325 260L325 259L325 258L323 251M327 251L327 255L327 256L327 257L327 258L327 259L327 260L327 261L327 262L327 263L327 264L327 265L327 266L327 267L327 268L327 269L327 270L327 271L327 272L327 273L327 274L327 275L327 276L327 277L327 278L327 279L327 280L327 281L327 282L327 283L327 284L327 285L327 286L327 287L327 288L327 289L327 290L327 291L327 292L327 293L327 294L327 295L327 296L327 297L327 298L327 299L327 300L327 301L327 302L327 303L327 304L327 305L327 306L327 307L327 308L327 309L327 310L327 311L327 312L327 313L327 314L327 315L327 316L327 317L327 318L327 319L327 320L327 321L327 322L328 329L329 329L329 325L329 324L329 323L329 322L329 321L329 320L329 319L329 318L329 317L329 316L329 315L329 314L329 313L329 312L329 311L329 310L329 309L329 308L329 307L329 306L329 305L329 304L329 303L329 302L329 301L329 300L329 299L329 298L329 297L329 296L329 295L329 294L329 293L329 292L329 291L329 290L329 289L329 288L329 287L329 286L329 285L329 284L329 283L329 282L329 281L329 280L329 279L329 278L329 277L329 276L329 275L329 274L329 273L329 272L329 271L329 270L329 269L329 268L329 267L329 266L329 265L329 264L329 263L329 262L329 261L329 260L329 259L329 258L327 251M316 253L317 254L316 253M300 254L303 257L300 254M291 255L295 259L291 255M285 256L290 261L285 256M282 257L284 259L284 260L285 260L285 261L288 263L286 261L286 260L285 260L285 259L282 257M309 257L312 260L309 257M280 258L282 260L282 261L283 261L283 262L286 264L284 262L284 261L283 261L283 260L280 258M303 258L306 261L303 258M278 259L280 261L280 262L281 262L281 263L285 266L283 264L283 263L282 263L282 262L278 259M300 259L303 262L300 259M295 260L299 264L295 260M314 260L316 264L317 264L314 260M292 261L297 266L292 261M312 261L314 263L312 261M277 262L279 264L279 265L280 265L280 266L283 269L281 267L280 267L280 266L279 266L277 262M306 262L309 265L306 262M291 263L295 267L291 263M303 263L306 266L303 263M288 264L293 269L288 264M301 264L305 268L301 264M314 264L317 267L314 264M311 265L314 268L311 265M287 266L289 268L289 269L290 269L290 270L293 272L291 270L291 269L290 269L290 268L287 266M300 266L303 269L300 266M309 266L312 269L309 266M297 267L301 271L297 267M307 268L310 271L307 268M253 269L255 271L253 269M287 269L289 271L289 272L290 272L290 273L293 275L291 273L291 272L290 272L290 271L287 269M296 269L300 273L296 269M305 269L308 272L305 269M314 269L317 272L314 269M304 271L307 274L304 271M313 271L315 273L313 271M295 272L299 276L295 272M310 272L313 275L310 272M302 273L305 276L302 273M288 274L292 279L288 274M309 274L312 277L309 274M295 275L299 279L295 275M316 275L317 276L316 275M302 276L305 279L302 276M308 276L311 279L308 276M314 277L316 279L314 277M296 279L300 283L296 279M301 279L304 282L301 279M307 279L310 282L307 279M313 279L315 281L313 279M307 282L310 285L307 282M313 282L315 284L313 282M302 283L305 286L302 283M312 285L314 287L312 285M299 286L301 289L299 286M307 286L310 289L307 286M305 289L308 292L305 289M313 289L315 291L313 289M253 292L255 294L253 292M310 292L312 294L310 292M277 293L279 295L279 296L280 296L280 297L281 297L281 298L282 298L282 299L285 301L283 299L283 298L282 298L282 297L281 297L281 296L280 296L280 295L277 293M274 294L276 296L276 297L277 297L277 298L278 298L278 299L279 299L279 300L282 302L280 300L280 299L279 299L279 298L278 298L278 297L277 297L277 296L274 294M314 294L315 295L314 294M282 295L284 297L284 298L285 298L285 299L286 299L286 300L287 300L287 301L291 304L289 302L289 301L288 301L288 300L287 300L287 299L286 299L286 298L282 295M273 296L275 298L275 299L276 299L276 300L279 302L277 300L277 299L276 299L276 298L273 296M271 297L273 299L273 300L274 300L274 301L277 303L275 301L275 300L274 300L274 299L271 297M310 298L309 299L310 298M314 299L315 300L314 299M291 300L293 302L293 303L294 303L294 304L295 304L295 305L296 305L296 306L300 309L298 307L298 306L297 306L297 305L296 305L296 304L295 304L295 303L291 300M270 303L274 307L270 303M279 304L284 309L279 304M282 304L287 309L282 304M285 304L287 306L287 307L288 307L288 308L291 310L289 308L289 307L288 307L288 306L285 304M269 306L273 310L269 306M277 306L282 311L277 306M291 306L296 311L291 306M276 308L280 312L276 308M274 310L278 314L274 310M287 311L291 315L287 311M284 312L288 316L284 312M291 312L294 315L291 312M300 312L304 316L300 312M282 313L285 316L282 313M296 314L300 318L296 314M268 315L271 318L268 315M280 315L283 318L280 315M273 316L276 319L273 316M278 316L282 320L278 316M294 317L297 320L294 317M272 318L275 321L272 318M288 318L291 321L288 318M291 318L294 321L291 318M304 318L307 321L304 318M277 319L280 322L277 319M285 319L288 322L285 319M283 320L286 323L283 320M300 320L302 322L300 320M276 321L279 324L276 321M275 323L278 326L275 323M282 323L284 325L282 323M294 323L296 325L294 323M297 323L300 326L297 323M271 324L273 327L275 327L277 329L275 326L273 326L271 324M280 324L283 327L280 324M288 324L291 327L288 324M291 324L293 326L291 324M302 324L304 326L302 324M307 324L309 326L307 324M279 326L282 329L279 326M286 326L288 328L286 326M284 327L287 330L284 327M293 328L295 330L293 328M296 328L298 330L296 328M300 328L301 329L300 328M309 328L310 329L309 328M274 329L276 331L274 329M278 329L280 331L278 329M283 329L285 331L283 329M304 329L306 331L304 329M288 330L291 333L288 330M291 330L293 332L291 330M267 331L269 333L267 331M277 331L279 333L277 331M310 331L311 332L310 331M282 332L284 334L282 332M287 332L289 334L287 332M298 332L300 334L298 332M301 332L303 334L301 332M270 333L272 335L270 333M280 333L283 336L280 333M295 333L297 335L295 333M306 333L307 334L306 333M285 334L287 336L285 334M293 334L294 335L293 334M273 335L275 337L273 335M291 335L292 336L291 335M311 335L312 336L311 335M284 336L286 338L284 336M303 336L304 337L303 336M276 337L278 339L276 337M289 337L291 339L289 337M294 337L296 339L294 337M297 337L298 338L297 337M300 337L301 338L300 337M307 337L308 338L307 337M287 338L289 340L287 338M275 339L277 341L275 339M279 339L281 341L279 339M283 339L285 341L283 339M292 339L294 341L292 339M254 340L255 341L254 340M298 340L300 342L298 340M301 340L302 341L301 340M304 340L305 341L304 340M308 340L309 341L308 340M272 341L272 342L276 344L276 343L272 341M278 341L280 343L278 341M282 341L283 342L282 341M286 341L288 343L286 341M291 341L292 342L291 341M312 341L313 342L312 341M269 342L269 343L273 345L273 344L269 342M296 342L297 343L296 342M281 343L282 344L281 343M285 343L286 344L285 343M289 343L291 345L289 343M294 343L295 344L294 343M302 343L303 344L302 343M305 343L306 344L305 343M253 344L254 345L253 344M277 344L279 346L277 344M283 344L285 346L283 344M274 345L274 346L278 348L278 347L274 345M288 345L289 346L288 345M292 345L294 347L292 345M297 345L298 346L297 345M300 345L301 346L300 345M280 346L280 347L284 349L284 348L280 346M286 346L288 348L286 346M306 346L307 347L306 346M309 346L310 347L309 346M254 347L255 348L254 347M291 347L292 348L291 347M295 347L297 349L295 347M303 347L304 348L303 347M279 348L281 350L279 348M289 348L291 350L289 348M301 348L302 349L301 348M285 349L287 351L285 349M294 349L295 350L294 349M298 349L300 351L298 349M313 349L314 350L313 349M271 350L271 351L274 352L274 353L276 353L277 354L277 353L274 352L274 351L272 351L271 350M276 350L276 351L280 353L280 352L276 350M282 350L283 351L282 350M292 350L293 351L292 350M304 350L305 351L304 350M284 351L286 353L284 351M288 351L289 352L288 351M297 351L298 352L297 351M295 352L296 353L295 352M302 352L303 353L302 352M307 352L308 353L307 352M310 352L311 353L310 352M281 353L282 354L281 353M287 353L288 354L287 353M291 353L292 354L291 353M258 354L259 355L258 354M278 354L279 355L278 354M283 354L285 356L283 354M289 354L291 356L289 354M293 354L294 355L293 354M298 354L299 355L298 354M305 354L306 355L305 354M273 355L274 356L273 355M280 355L280 356L284 358L284 357L280 355M300 355L301 356L300 355M275 356L276 357L275 356M286 356L287 357L286 356M292 356L293 357L292 356M296 356L297 357L296 356M308 356L309 357L308 356M253 357L254 358L253 357M262 357L263 358L262 357M277 357L277 358L281 360L281 359L277 357M288 357L289 358L288 357M294 357L295 358L294 357M303 357L304 358L303 357M285 358L286 359L285 358M299 358L300 359L299 358M311 358L312 359L311 358M287 359L288 360L287 359M291 359L292 360L291 359M297 359L298 360L297 359M301 359L302 360L301 359M306 359L307 360L306 359M282 360L283 361L282 360M289 360L291 362L289 360M293 360L294 361L293 360M314 360L315 361L314 360M266 361L267 362L266 361M279 361L280 362L279 361M284 361L285 362L284 361M295 361L296 362L295 361M304 361L305 362L304 361M268 362L269 363L268 362M281 362L282 363L281 362M286 362L287 363L286 362M292 362L293 363L292 362M302 362L303 363L302 362M270 363L271 364L270 363M283 363L284 364L283 363M288 363L289 364L288 363M294 363L295 364L294 363M298 363L299 364L298 363M272 364L273 365L272 364M285 364L286 365L285 364M296 364L297 365L296 364M300 364L301 365L300 364M309 364L310 365L309 364M274 365L275 366L274 365M287 365L288 366L287 365M291 365L292 366L291 365M307 365L308 366L307 365M276 366L277 367L276 366M289 366L291 368L289 366M293 366L294 367L293 366M299 366L300 367L299 366M278 367L279 368L278 367M295 367L296 368L295 367M301 367L302 368L301 367M305 367L306 368L305 367M280 368L281 369L280 368M292 368L293 369L292 368M297 368L298 369L297 368M303 368L304 369L303 368M312 368L313 369L312 368M282 369L283 370L282 369M294 369L295 370L294 369M279 370L280 371L279 370M284 370L285 371L284 370M291 370L292 371L291 370M296 370L297 371L296 370M254 371L255 372L254 371M281 371L282 372L281 371M286 371L287 372L286 371M293 371L294 372L293 371M298 371L299 372L298 371M308 371L309 372L308 371M275 372L276 373L275 372M283 372L284 373L283 372M288 372L289 373L288 372M295 372L296 373L295 372M300 372L301 373L300 372M304 372L305 373L304 372M310 372L311 373L310 372M271 373L272 374L271 373M277 373L277 374L283 376L283 375L277 373M285 373L286 374L285 373M290 373L291 374L290 373M297 373L298 374L297 373M302 373L303 374L302 373M306 373L307 374L306 373M253 374L254 375L253 374M273 374L273 375L277 376L277 375L273 374M287 374L288 375L287 374M299 374L300 375L299 374M289 375L290 376L289 375M301 375L302 376L301 375M278 376L279 377L278 376M284 376L285 377L284 376M292 376L293 377L292 376M303 376L304 377L303 376M280 377L281 378L280 377M286 377L287 378L286 377M294 377L295 378L294 377M305 377L306 378L305 377M276 378L276 379L280 380L280 379L276 378M282.667 378.333L283.333 378.667L282.667 378.333M288 378L289 379L288 378M296 378L297 379L296 378M307 378L308 379L307 378M269 379L269 380L273 381L273 380L269 379M285 379L286 380L285 379M290.667 379.333L291.333 379.667L290.667 379.333M298 379L299 380L298 379M309 379L310 380L309 379M281 380L282 381L281 380M287 380L288 381L287 380M293 380L294 381L293 380M300 380L301 381L300 380M311 380L312 381L311 380M254 381L255 382L254 381M274 381L274 382L278 383L278 382L274 381M283.667 381.333L284.333 381.667L283.667 381.333M289 381L290 382L289 381M295 381L296 382L295 381M302 381L303 382L302 381M313 381L314 382L313 381M286 382L287 383L286 382M292 382L293 383L292 382M297 382L298 383L297 382M315 382L316 383L315 382M272 383L272 384L276 385L276 384L272 383M279 383L279 384L283 385L283 384L279 383M288 383L289 384L288 383M294 383L295 384L294 383M299 383L300 384L299 383M290.667 384.333L291.333 384.667L290.667 384.333M296 384L297 385L296 384M277.667 385.333L278.333 385.667L277.667 385.333M284.667 385.333L285.333 385.667L284.667 385.333M293 385L294 386L293 385M304 385L305 386L304 385M280 386L281 387L280 386M287 386L288 387L287 386M295 386L296 387L295 386M301 386L302 387L301 386M306 386L307 387L306 386M282.667 387.333L283.333 387.667L282.667 387.333M289 387L290 388L289 387M298 387L299 388L298 387M303 387L304 388L303 387M308 387L309 388L308 387M253.667 388.333L254.333 388.667L253.667 388.333M275.667 388.333L276.333 388.667L275.667 388.333M285.667 388.333L286.333 388.667L285.667 388.333M292 388L293 389L292 388M300 388L301 389L300 388M320 388L321 389L320 388M324 388L325 389L324 388M278.667 389.333L279.333 389.667L278.667 389.333M288 389L289 390L288 389M294 389L295 390L294 389M281 390L282 391L281 390M290.667 390.333L291.333 390.667L290.667 390.333M297 390L298 391L297 390M305 390L306 391L305 390M310 390L311 391L310 390M254 391L255 392L254 391M267.667 391.333L268.333 391.667L267.667 391.333M283.667 391.333L284.333 391.667L283.667 391.333M293 391L294 392L293 391M299 391L300 392L299 391M328 391L329 392L328 391M270.667 392.333L271.333 392.667L270.667 392.333M286.667 392.333L287.333 392.667L286.667 392.333M296 392L297 393L296 392M302 392L303 393L302 392M273.667 393.333L274.333 393.667L273.667 393.333M289 393L290 394L289 393M276.667 394.333L277.333 394.667L276.667 394.333M284.667 394.333L285.333 394.667L284.667 394.333M292 394L293 395L292 394M301 394L302 395L301 394M307 394L308 395L307 394M279.667 395.333L280.333 395.667L279.667 395.333M287.667 395.333L288.333 395.667L287.667 395.333M295 395L296 396L295 395M304 395L305 396L304 395M283 396L284 397L283 396M290.667 396.333L291.333 396.667L290.667 396.333M298 396L299 397L298 396M312 396L313 397L312 396M274.667 397.333L275.333 397.667L274.667 397.333M286 397L287 398L286 397M293.667 397.333L294.333 397.667L293.667 397.333M300 397L301 398L300 397M309 397L310 398L309 397M254 398L255 399L254 398M277.667 398.333L278.333 398.667L277.667 398.333M289 398L290 399L289 398M296.667 398.333L297.333 398.667L296.667 398.333M303 398L304 399L303 398M271 399L271 400L277 401L277 400L271 399M280 399L280 400L281 400L282 400L283 400L283 399L282 399L280 399M292 399L293 400L292 399M299 399L300 400L299 399M306 399L307 400L306 399M284.667 400.333L285.333 400.667L284.667 400.333M295 400L296 401L295 400M302 400L303 401L302 400M278.667 401.333L279.333 401.667L278.667 401.333M287.667 401.333L288.333 401.667L287.667 401.333M298 401L299 402L298 401M305 401L306 402L305 401M268 402L268 403L269 403L270 403L271 403L271 402L270 402L268 402M281 402L281 403L282 403L283 403L284 403L284 402L283 402L281 402M290.667 402.333L291.333 402.667L290.667 402.333M308 402L309 403L308 402M272.667 403.333L273.333 403.667L272.667 403.333M285.667 403.333L286.333 403.667L285.667 403.333M294 403L295 404L294 403M311 403L312 404L311 403M276.667 404.333L277.333 404.667L276.667 404.333M289 404L290 405L289 404M297 404L298 405L297 404M314 404L315 405L314 404M257.667 405.333L258.333 405.667L257.667 405.333M269 405L269 406L270 406L271 406L272 406L272 405L271 405L269 405M280 405L281 406L280 405M292.667 405.333L293.333 405.667L292.667 405.333M301 405L302 406L301 405M273 406L273 407L274 407L275 407L276 407L276 406L275 406L273 406M284 406L285 407L284 406M296 406L297 407L296 406M304 406L305 407L304 406M277 407L277 408L278 408L279 408L280 408L280 407L279 407L277 407M288 407L289 408L288 407M299.667 407.333L300.333 407.667L299.667 407.333M307 407L308 408L307 407M281 408L281 409L282 409L283 409L284 409L284 408L283 408L281 408M291 408L292 409L291 408M303 408L304 409L303 408M254 409L255 410L254 409M265 409L265 410L269 410L269 409L265 409M285 409L285 410L286 410L287 410L288 410L288 409L287 409L285 409M295 409L296 410L295 409M270 410L270 411L271 411L272 411L273 411L273 410L272 410L270 410M289.667 410.333L290.333 410.667L289.667 410.333M310 410L311 411L310 410M274 411L274 412L275 412L276 412L277 412L277 411L276 411L274 411M294 411L295 412L294 411M258 412L259 413L258 412M269 412L270 413L269 412M279.667 412.333L280.333 412.667L279.667 412.333M298 412L299 413L298 412M283.667 413.333L284.333 413.667L283.667 413.333M302 413L303 414L302 413M311 413L311 414L312 414L313 414L314 414L314 413L313 413L311 413M288 414L284 415L284 416L289 415L288 414M306 414L307 415L306 414M315.667 414.333L316.333 414.667L315.667 414.333M261.667 415.333L262.333 415.667L261.667 415.333M293 415L289 416L289 417L294 416L293 415M310 415L311 416L310 415M297 416L294 417L294 418L298 417L297 416M314 416L315 417L314 416M280 417L280 418L284 418L284 417L280 417M285 418L285 419L289 419L289 418L285 418M299 418L299 419L300 419L301 419L302 419L302 418L301 418L299 418M253.667 419.333L254.333 419.667L253.667 419.333M262 419L263 420L262 419M290 419L290 420L294 420L294 419L290 419M304.667 419.333L305.333 419.667L304.667 419.333M309 420L309 421L314 420L309 420M327.667 419.333L328.333 419.667L327.667 419.333M275 420L275 421L280 421L280 420L275 420M296 420L296 421L297 421L298 421L299 421L299 420L298 420L296 420M314 422L317 420L314 422M281 421L281 422L285 422L285 421L281 421M301 421L301 422L302 422L303 422L304 422L304 421L303 421L301 421M258 422L259 423L258 422M266 422L266 423L267 423L268 423L269 423L269 422L268 422L266 422M287 422L287 423L288 423L289 423L290 423L290 422L289 422L287 422M307.667 422.333L308.333 422.667L307.667 422.333M273.667 423.333L274.333 423.667L273.667 423.333M293 423L293 424L294 424L295 424L296 424L296 423L295 423L293 423M312.667 423.333L313.333 423.667L312.667 423.333M280 424L281 425L280 424M299.667 424.333L300.333 424.667L299.667 424.333M305.667 425.333L306.333 425.667L305.667 425.333M272 426L273 427L272 426M294 426L294 427L299 427L299 426L294 426M311 426L312 427L311 426M323.667 426.333L324.333 426.667L323.667 426.333M301 427L301 428L305 428L305 427L301 427M288 428L288 429L294 429L294 428L288 428M308 428L308 429L309 429L310 429L311 429L311 428L310 428L308 428M262 429L263 430L262 429M295 429L295 430L301 430L301 429L295 429M314 429L311 431L311 432C314.194 431.987 316.271 432.403 317 429L314 429M324 429L325 430L324 429M281 430L281 431L288 431L288 430L281 430M303 430L303 431L308 431L308 430L303 430M290 431L290 432L295 432L295 431L290 431M271 432L272 433L271 432M299 432L299 433L303 433L303 432L299 432M282 433L282 434L290 434L290 433L282 433M308 433L308 434L309 434L310 434L311 434L311 433L310 433L308 433M293 434L293 435L299 435L299 434L293 434M304 435L304 436L308 436L308 435L304 435M257.667 436.333L258.333 436.667L257.667 436.333M273 436L273 437L276 437L279 437L282 437L282 436L279 436L276 436L273 436M315 436L312 444L305 444L305 446L303 446L299 446L298 446L297 446L296 446L290 446L290 450L290 451L290 452L290 453L290 454L290 455L290 456L290 457L290 458L290 459L290 460L290 461L290 462L290 463L290 464L290 465L290 466L290 467L290 468L290 469L290 470L290 471L290 472L290 473L290 474L290 475L290 476L290 477L290 478L290 479L290 480L290 481L290 482L290 483L290 484L290 485L290 486L290 487L290 488L290 489L290 490L290 491L290 492L290 493L290 494L290 495L290 496L290 497L290 498L290 499L290 500L290 501L290 502L290 503L290 504L290 505L290 506L290 507L290 508L290 509L290 510L290 511L290 512L290 513L290 514L290 515L290 516L290 517L290 518L290 519L290 520L290 521L290 522L290 523L290 524L290 525L290 526L290 527L290 528L290 529L290 530L290 531L290 532L290 533L290 534L290 535L290 536L290 537L290 538L290 539L290 540L290 541L290 542L290 543L290 544L290 545L290 546L290 547L290 548L290 549L290 550L290 551L290 552L290 553L290 554L290 555L290 556L290 557L290 558L290 559L290 560L290 561L290 562L290 563L290 564L290 565L290 566L290 567L290 568L290 569L290 570L290 571L290 572L290 573L290 574L290 575L290 576L290 577L290 578L290 579L290 580L290 581L290 582L290 583L290 584L290 585L290 586L290 587L290 588L290 589L290 590L290 591L290 592L290 593L290 594L290 595L290 596L290 597L290 598L290 599L290 600L290 601L290 602L290 603L290 604L290 605L290 610L294 610L295 610L296 610L297 610L298 610L299 610L300 610L301 610L302 610L303 610L304 610L305 610L311 609L315 610L311 615L313 613L314 613L314 612L315 612L317 610L317 606L317 605L317 604L317 603L317 598L320 600L320 602L320 603L319 603L319 604L320 604L320 605L319 605L319 606L319 608L320 608L321 606L321 604L320 604L320 603L321 603L321 602L320 602L320 601L321 601L322 598L322 597L320 595L323 595L323 594L321 593L319 598L317 595L319 593L320 593L320 592L321 592L324 589L324 587L325 586L327 584L328 584L328 583L329 583L332 580L332 578L333 577L335 575L336 575L336 574L337 574L339 571L337 573L336 573L336 574L335 574L335 575L334 575L334 576L333 576L331 578L331 580L330 581L328 583L327 583L327 584L326 584L324 586L323 587L323 589L320 590L317 593L318 590L320 588L321 588L321 587L322 587L322 586L323 586L323 585L324 585L324 584L325 584L325 583L326 583L329 580L329 578L330 577L332 575L333 575L333 574L334 574L334 573L335 573L335 572L336 572L336 571L337 571L337 570L338 570L338 569L339 569L339 568L340 568L342 566L342 564L343 563L345 561L346 561L346 560L347 560L350 556L348 558L347 558L347 559L346 559L346 560L345 560L345 561L344 561L344 562L343 562L343 563L342 563L342 564L341 564L341 565L340 565L338 567L338 569L337 570L335 572L334 572L334 573L333 573L333 574L332 574L332 575L331 575L331 576L330 576L330 577L329 577L329 578L328 578L328 579L327 579L327 580L326 580L326 581L325 581L325 582L324 582L324 583L323 583L323 584L322 584L322 585L321 585L320 586L319 587L317 589L318 586L320 584L321 584L321 583L322 583L322 582L323 582L323 581L324 581L324 580L325 580L325 579L326 579L326 578L327 578L327 577L328 577L328 576L329 576L329 575L330 575L330 574L331 574L331 573L332 573L332 572L333 572L333 571L334 571L336 569L336 567L337 566L339 564L340 564L340 563L341 563L341 562L342 562L342 561L343 561L343 560L344 560L344 559L345 559L345 558L346 558L346 557L347 557L349 555L349 551L349 550L349 549L349 548L349 547L349 546L349 545L349 544L349 543L349 542L349 541L349 540L349 536L345 536L344 536L343 536L342 536L341 536L340 536L339 536L338 536L337 536L336 536L335 536L334 536L328 534L324 534L322 536L317 536L321 532L321 531L317 532L321 528L321 527L317 528L321 524L321 523L317 524L317 520L317 519L317 518L317 517L317 516L317 515L317 514L317 513L317 512L317 511L317 510L317 509L317 508L317 507L317 506L317 505L317 504L317 503L317 502L317 501L317 500L317 499L317 498L317 497L317 496L317 495L317 494L317 493L317 492L317 491L317 490L317 489L317 488L317 487L317 486L317 485L317 484L317 483L317 482L317 481L317 480L317 479L317 478L317 477L317 476L317 475L317 474L317 473L317 472L317 471L317 470L317 469L317 468L317 467L317 466L317 465L317 464L317 463L317 462L317 461L317 460L317 459L317 458L317 457L317 456L317 455L317 454L317 453L317 452L317 451L317 450L317 449L317 448L317 447L317 446L317 445L317 444L317 443L317 442L317 441L317 436L315 436M327.667 436.333L328.333 436.667L327.667 436.333M287 437L287 438L293 438L293 437L287 437M301 438L301 439L302 439L303 439L304 439L304 438L303 438L301 438M253.667 439.333L254.333 439.667L253.667 439.333M274 439L274 440L277 440L287 440L287 439L284 439L274 439M293 440L293 441L301 441L301 440L293 440M276 443L276 444L279 444L283 444L284 444L285 444L286 444L293 444L293 443L290 443L286 443L285 443L284 443L283 443L276 443M257.667 458.333L258.333 458.667L257.667 458.333M268 460L268 461L274 461L274 460L268 460M274 463L274 464L275 464L276 464L277 464L277 463L276 463L274 463M257.667 464.333L258.333 464.667L257.667 464.333M277.667 465.333L278.333 465.667L277.667 465.333M327.667 465.333L328.333 465.667L327.667 465.333M279.667 467.333L280.333 467.667L279.667 467.333M268 468L268 469L272 469L272 468L268 468M257.667 469.333L258.333 469.667L257.667 469.333M281 470L282 471L281 470M272.667 471.333L273.333 471.667L272.667 471.333M324 471L325 472L324 471M262 472L263 473L262 472M282 472L283 473L282 472M253.667 473.333L254.333 473.667L253.667 473.333M274.667 473.333L275.333 473.667L274.667 473.333M266.667 474.333L267.333 474.667L266.667 474.333M328 474L329 475L328 474M257.667 475.333L258.333 475.667L257.667 475.333M283 475L284 476L283 475M323.667 475.333L324.333 475.667L323.667 475.333M276 476L277 477L276 476M268 477L268 478L269 478L270 478L271 478L271 477L270 477L268 477M327.667 477.333L328.333 477.667L327.667 477.333M261.667 478.333L262.333 478.667L261.667 478.333M277 478L278 479L277 478M254 479L255 480L254 479M271 479L272 480L271 479M284 479L285 480L284 479M278 480L279 481L278 480M257.667 481.333L258.333 481.667L257.667 481.333M272.667 481.333L273.333 481.667L272.667 481.333M266.667 482.333L267.333 482.667L266.667 482.333M279 483L280 484L279 483M254 484L255 485L254 484M274 484L275 485L274 484M285 484L286 485L285 484M268.667 485.333L269.333 485.667L268.667 485.333M280 485L281 486L280 485M275 486L276 487L275 486M328 486L329 487L328 486M257.667 487.333L258.333 487.667L257.667 487.333M270.667 487.333L271.333 487.667L270.667 487.333M265.667 488.333L266.333 488.667L265.667 488.333M281 488L282 489L281 488M276 489L277 490L276 489M272 490L273 491L272 490M327.667 490.333L328.333 490.667L327.667 490.333M267 491L268 492L267 491M277 491L278 492L277 491M324 491L325 492L324 491M262 492L263 493L262 492M273 492L274 493L273 492M286 492L287 493L286 492M257.667 493.333L258.333 493.667L257.667 493.333M268.667 493.333L269.333 493.667L268.667 493.333M282 493L283 494L282 493M253.667 494.333L254.333 494.667L253.667 494.333M278 494L279 495L278 494M274 495L275 496L274 495M270 496L271 497L270 496M328 496L329 497L328 496M266 497L267 498L266 497M275 497L276 498L275 497M283 497L284 498L283 497M262 498L263 499L262 498M271 498L272 499L271 498M279 498L280 499L279 498M257.667 499.333L258.333 499.667L257.667 499.333M267 499L268 500L267 499M276 499L277 500L276 499M328 499L329 500L328 499M253.667 500.333L254.333 500.667L253.667 500.333M272 500L273 501L272 500M268.667 501.333L269.333 501.667L268.667 501.333M280 501L281 502L280 501M323.667 501.333L324.333 501.667L323.667 501.333M265 502L266 503L265 502M261.667 503.333L262.333 503.667L261.667 503.333M273 503L274 504L273 503M327.667 503.333L328.333 503.667L327.667 503.333M257.667 504.333L258.333 504.667L257.667 504.333M270 504L271 505L270 504M277 504L278 505L277 504M254 505L255 506L254 505M266 505L267 506L266 505M274 505L275 506L274 505M271 506L272 507L271 506M287 506L288 507L287 506M267 507L268 508L267 507M284 507L285 508L284 507M281 508L282 509L281 508M328 508L329 509L328 508M261 509L262 510L261 509M278 509L279 510L278 509M257.667 510.333L258.333 510.667L257.667 510.333M268 510L269 511L268 510M275 510L276 511L275 510M324 510L325 511L324 510M254 511L255 512L254 511M265 511L266 512L265 511M272 511L273 512L272 511M262 512L263 513L262 512M269 512L270 513L269 512M276 512L277 513L276 512M320 512L321 513L320 512M266.667 513.333L267.333 513.667L266.667 513.333M273 513L274 514L273 513M282 513L283 514L282 513M270 514L271 515L270 514M279 514L280 515L279 514M253 515L254 516L253 515M257.667 516.333L258.333 516.667L257.667 516.333M265 516L266 517L265 516M274 516L275 517L274 516M254 517L255 518L254 517M262 517L263 518L262 517M271 517L272 518L271 517M277 517L278 518L277 517M285 517L286 518L285 517M268 518L269 519L268 518M328 518L327 520L328 518M266 519L267 520L266 519M272 519L273 520L272 519M280 519L281 520L280 519M253.667 520.333L254.333 520.667L253.667 520.333M269 520L270 521L269 520M267 521L268 522L267 521M275 521L276 522L275 521M257.667 522.333L258.333 522.667L257.667 522.333M278 522L279 523L278 522M283 522L284 523L283 522M328 522L329 523L328 522M261.667 523.333L262.333 523.667L261.667 523.333M270 523L271 524L270 523M273 524L274 525L273 524M323 526L326 525L323 526M327.667 524.333L328.333 524.667L327.667 524.333M333 524L334 525L333 524M337 524L338 525L337 524M339 524L340 525L339 524M343.667 524.333L344.333 524.667L343.667 524.333M351 524L352 525L351 524M356 524L357 525L356 524M360 524L361 525L360 524M265 525L266 526L265 525M271 525L272 526L271 525M276 525L277 526L276 525M254 526L255 527L254 526M268 526L269 527L268 526M274 526L275 527L274 526M281 526L282 527L281 526M266 527L267 528L266 527M257.667 528.333L258.333 528.667L257.667 528.333M269 528L270 529L269 528M331 528L332 529L331 528M333 528L334 529L333 528M337 528L338 529L337 528M342 528L343 529L342 528M344 528L345 529L344 528M346 528L347 529L346 528M351 528L352 529L351 528M355 528L356 529L355 528M360 528L361 529L360 528M261 529L262 530L261 529M267 529L268 530L267 529M279 529L280 530L279 529M272 530L273 531L272 530M277 530L278 531L277 530M328 530L329 531L328 530M262 531L263 532L262 531M270 531L271 532L270 531M275 531L276 532L275 531M254 532L255 533L254 532M324.667 532.333L325.333 532.667L324.667 532.333M327 532L328 533L327 532M331 532L332 533L331 532M335 532L336 533L335 532M337 532L338 533L337 532M346 532L347 533L346 532M348 532L349 533L348 532M352 532L353 533L352 532M257.667 533.333L258.333 533.667L257.667 533.333M265 533L266 534L265 533M288 533L289 534L288 533M268 534L269 535L268 534M286 534L287 535L286 534M253 535L254 536L253 535M261 535L262 536L261 535M266 535L267 536L266 535M273 535L274 536L273 535M284 535L285 536L284 535M271 536L272 537L271 536M282 536L283 537L282 536M262 537L263 538L262 537M269 537L270 538L269 537M280 537L281 538L280 537M254 538L255 539L254 538M267 538L268 539L267 538M278 538L279 539L278 538M257.667 539.333L258.333 539.667L257.667 539.333M265 539L266 540L265 539M276 539L277 540L276 539M274 540L275 541L274 540M253 541L254 542L253 541M261 541L262 542L261 541M272 541L273 542L272 541M270 542L271 543L270 542M360 542L360 544L360 545L359 545L359 546L360 546L360 547L359 547L359 548L360 548L360 549L359 549L359 550L360 550L360 551L359 551L359 552L360 552L360 553L359 553L359 554L358 556L358 557L360 558L360 559L358 561L359 562L360 562L361 561L361 559L361 558L360 558L360 557L361 557L361 556L360 556L360 555L361 555L361 554L360 554L360 553L361 553L361 552L360 552L360 551L361 551L361 550L360 550L360 549L361 549L361 548L360 548L360 547L361 547L361 546L360 546L360 545L360 542M268 543L269 544L268 543M273 543L274 544L273 543M277 543L278 544L277 543M254 544L255 545L254 544M266 544L267 545L266 544M271 544L272 545L271 544M275 544L276 545L275 544M281 544L282 545L281 544M257 545L258 546L257 545M269 545L270 546L269 545M279 545L280 546L279 545M283 545L284 546L283 545M262 546L263 547L262 546M267 546L268 547L267 546M356 546L356 549L356 550L354 556L354 560L354 561L355 568L352 567L354 564L351 566L352 571L350 569L349 569L346 572L346 576L343 576L342 577L341 578L341 582L337 583L337 586L339 584L341 585L343 583L343 579L347 578L347 574L352 572L349 576L349 578L345 582L349 579L349 582L352 580L352 579L350 578L352 575L352 578L356 576L354 578L355 580L353 581L354 584L354 588L353 591L356 590L354 588L357 586L357 593L358 593L360 589L358 590L358 589L360 585L362 587L364 584L364 582L366 579L369 579L368 576L370 577L372 574L375 570L374 573L376 574L376 575L374 577L374 579L372 581L372 577L373 577L373 575L374 574L373 574L371 579L369 580L368 584L366 585L363 588L363 591L366 591L365 596L366 596L366 592L369 592L368 596L367 596L367 598L366 600L364 601L364 603L363 603L363 605L361 610L363 608L364 608L365 610L369 610L370 610L371 610L372 610L373 610L374 610L375 610L376 610L377 610L378 610L379 610L380 610L381 610L382 610L383 610L384 610L385 610L386 610L387 610L388 610L389 610L390 610L391 610L392 610L393 610L394 610L395 610L396 610L397 610L398 610L399 610L400 610L401 610L402 610L403 610L404 610L405 610L406 610L407 610L408 610L412 610L412 606L412 605L412 604L412 603L412 599L408 599L407 599L406 599L405 599L404 599L403 599L402 599L401 599L400 599L399 599L398 599L397 599L392 596L391 596L391 599L388 599L388 596L387 596L387 599L384 599L384 596L383 596L380 599L380 595L380 594L380 593L380 592L380 591L380 590L380 589L380 588L380 587L380 586L380 585L380 584L379 580L379 579L379 574L379 573L379 568L378 568L376 574L377 569L371 570L369 568L367 568L361 569L361 565L360 565L357 568L357 564L357 563L357 562L357 561L357 560L357 559L357 558L357 557L357 556L357 555L357 554L357 553L356 546M253 547L254 548L253 547M265 547L266 548L265 547M258 548L259 549L258 548M261 549L262 550L261 549M266 549L267 550L266 549M272 549L273 550L272 549M276 549L277 550L276 549M285 549L286 550L285 549M270 550L271 551L270 550M274 550L275 551L274 550M352 550L351 552L352 550M257 551L258 552L257 551M262 551L263 552L262 551M268 551L269 552L268 551M278 551L279 552L278 551M280 552L281 553L280 552M254 553L255 554L254 553M258 553L259 554L258 553M265 553L266 554L265 553M269 553L270 554L269 553M352 553L351 555L352 553M267 554L268 555L267 554M273 554L274 555L273 554M261 555L262 556L261 555M271 555L272 556L271 555M275 555L276 556L275 555M253 556L254 557L253 556M277 556L278 557L277 556M282 556L283 557L282 556M360 556L359 557L360 556M363 556L364 557L363 556M367 556L368 557L367 556M375 556L376 557L375 556M378 556L379 557L378 556M383 556L384 557L383 556M257 557L258 558L257 557M262 557L263 558L262 557M266 558L267 559L266 558M270 558L271 559L270 558M352 558L350 561L352 558M254 559L255 560L254 559M258 559L259 560L258 559M268 559L269 560L268 559M272 559L273 560L272 559M279 560L280 561L279 560M287 560L288 561L287 560M360 560L359 561L360 560M374 560L375 561L374 560M377 560L378 561L377 560M261 561L262 562L261 561M265 561L266 562L265 561M269 561L270 562L269 561M274 561L275 562L274 561M253 562L254 563L253 562M267 562L268 563L267 562M276 562L277 563L276 562M284 562L285 563L284 562M346 562L344 565L346 562M352 562L350 565L352 562M257 563L258 564L257 563M271 563L272 564L271 563M273 564L274 565L273 564M281 564L282 565L281 564M373 564L374 565L373 564M377 564L378 565L377 564M254 565L255 566L254 565M258 565L259 566L258 565M262 565L261 567L262 565M346 565L344 567L344 568L343 568L343 569L341 571L343 569L344 569L344 568L345 568L346 565M266 566L267 567L266 566M270 566L271 567L270 566M278 566L279 567L278 566M268 567L269 568L268 567M348 567L345 571L348 567M253 568L254 569L253 568M257 568L258 569L257 568M275 568L276 569L275 568M353 568L352 569L353 568M265 569L266 570L265 569M355 569L352 572L355 569M361 569L360 572L357 576L356 576L361 569M368 569L371 570L370 573L368 574L368 576L366 577L366 579L364 580L364 582L362 585L358 587L357 584L359 581L361 580L361 578L363 577L363 575L365 574L365 572L368 569M376 569L375 570L376 569M254 570L255 571L254 570M272 570L273 571L272 570M277 570L278 571L277 570M280 570L281 571L280 570M283 570L284 571L283 570M350 570L351 571L348 574L347 573L350 570M369 570L370 571L369 570M258 571L259 572L258 571M262 571L263 572L262 571M267 571L268 572L267 571M343 571L344 572L343 571M349 571L348 573L349 571M367 571L366 572L366 573L367 574L368 574L369 573L369 572L367 571M391 571L392 572L391 571M269 572L270 573L269 572M274 572L275 573L274 572M341 572L340 574L341 572M355 572L354 576L353 576L352 575L352 574L355 572M368 572L367 573L368 572M286 573L287 574L286 573M343 573L339 578L343 573M253 574L254 575L253 574M257 574L258 575L257 574M266 574L265 576L266 574M271 574L272 575L271 574M338 574L334 578L335 580L333 582L336 580L335 578L336 577L338 576L338 574M353 574L354 575L353 574M365 574L364 575L364 576L365 577L366 577L367 576L367 575L365 574M379 574L378 578L377 578L377 580L376 582L374 583L374 585L373 585L373 587L372 587L372 589L371 589L370 592L369 592L370 589L371 589L371 587L372 587L372 585L373 585L373 583L375 582L375 580L376 580L376 578L377 578L377 576L379 574M261 575L262 576L261 575M273 575L274 576L273 575M276 575L277 576L276 575M366 575L365 576L366 575M254 576L253 578L254 576M268 576L267 578L268 576M279 576L280 577L279 576M282 576L283 577L282 576M345 576L346 577L346 578L345 579L342 579L345 576M258 577L259 578L258 577M262 577L263 578L262 577M270 577L271 578L270 577M344 577L345 578L344 577M363 577L362 578L362 579L363 580L364 580L365 579L365 578L363 577M272 578L273 579L272 578M337 578L338 579L337 578M350 578L351 580L350 578M364 578L363 579L364 578M368 578L367 579L368 578M391 578L392 579L391 578M275 579L276 580L275 579M278 579L279 580L278 579M339 579L340 580L339 579M257 580L258 581L257 580M266 580L267 581L266 580M269 580L270 581L269 580M337 580L334 583L335 587L336 587L335 583L337 580M361 580L360 581L360 582L361 583L362 583L363 582L363 581L361 580M371 580L371 584L370 584L369 586L370 588L368 592L365 590L367 585L369 584L371 580M379 580L378 584L377 584L377 586L376 588L374 589L374 591L373 591L373 593L372 593L372 595L371 595L370 599L368 600L368 602L367 602L367 604L366 604L366 606L365 608L364 608L365 604L366 604L366 602L367 600L369 599L369 597L370 597L370 595L371 595L371 593L372 593L373 589L375 588L375 586L376 586L376 584L377 584L377 582L379 580M261 581L262 582L261 581M285 581L286 582L285 581M355 581L354 582L355 581M362 581L361 582L362 581M254 582L253 584L254 582M271 582L272 583L271 582M274 582L275 583L274 582M281 582L282 583L281 582M331 582L327 586L328 588L325 591L329 588L328 586L329 585L331 584L331 582M342 582L342 583L338 584L342 582M347 582L346 586L349 583L347 582M351 582L352 583L351 582M258 583L259 584L258 583M265 583L266 584L265 583M277 583L278 584L277 583M348 583L347 584L348 583M355 583L354 584L355 583M359 583L358 585L359 583M268 584L267 586L268 584M332 584L330 587L333 587L332 584M343 584L342 586L343 584M351 584L350 588L351 588L351 584M383 584L384 585L383 584M262 585L261 587L262 585M270 585L271 586L270 585M280 585L281 586L280 585M368 585L369 586L368 585M254 586L255 587L254 586M257 586L258 587L257 586M273 586L274 587L273 586M276 586L277 587L276 586M340 586L341 587L340 586M344 586L345 587L344 586M348 586L349 587L348 586M355 586L354 587L355 586M368 587L369 588L368 587M387 587L388 588L387 587M391 587L392 588L391 587M393 587L395 589L393 587M402.333 587.667L402.667 588.333L402.333 587.667M409 587L410 588L409 587M419.333 587.667L419.667 588.333L419.333 587.667M258 588L259 589L258 588M266 588L267 589L266 588M381 588L382 589L381 588M383 588L384 589L383 588M253 589L254 590L253 589M269 589L270 590L269 589M272 589L273 590L272 589M275 589L276 590L275 589M328 590L328 591L331 591L328 590M332 589L334 591L332 589M335 589L336 590L335 589M339 589L338 591L339 589M345 589L345 591L347 589L345 589M349 589L348 591L349 589M367 589L368 590L367 589M284 590L285 591L284 590M341 590L342 591L341 590M254 591L255 592L254 591M262 591L263 592L262 591M279 591L280 592L279 591M323 591L324 592L323 591M389.333 591.667L389.667 592.333L389.333 591.667M391.333 591.667L391.667 592.333L391.333 591.667M393 591L394 592L393 591M401 591L402 592L401 591M257 592L258 593L257 592M265 592L266 593L265 592M268 592L267 594L268 592M271 592L270 594L271 592M328 592L327 595L327 598L328 598L328 592M381 592L382 593L381 592M385 592L386 593L385 592M415 592L416 593L415 592M274 593L275 594L274 593M283 593L284 594L283 593M324 593L323 596L323 598L323 599L324 599L324 600L323 603L324 603L326 599L326 598L324 597L324 596L327 593L324 593M333 593L334 594L333 593M336 593L335 595L336 593M342 593L343 594L342 593M351 593L352 594L351 593M360 593L361 594L360 593M258 594L259 595L258 594M331 594L332 595L331 594M338 594L339 595L338 594M349 594L349 597L350 597L349 594M356 594L357 595L356 594M253 595L254 596L253 595M261 595L262 596L261 595M278 595L277 597L278 595M266 596L265 598L266 596M273 596L274 597L273 596M282 596L283 597L282 596M357 596L358 597L357 596M363 596L365 598L363 596M254 597L253 599L254 597M262 597L263 598L262 597M269 597L270 598L269 597M321 597L319 599L321 597M330 597L329 599L330 597M333 597L332 599L333 597M339 597L340 598L339 597M343 597L343 598L346 598L346 597L343 597M347 597L349 599L347 597M354 597L355 598L354 597M361 597L361 601L362 601L364 600L361 597M257 598L258 599L257 598M325 598L324 599L325 598M335 598L336 599L335 598M341 598L342 599L341 598M357 598L358 599L357 598M276 599L277 600L276 599M327 599L328 600L327 599M354 599L355 600L354 599M415 599L416 600L415 599M423 599L424 600L423 599M258 600L259 601L258 600M261 600L262 601L261 600M268 600L267 602L268 600M272 600L271 602L272 600M281 600L282 601L281 600M357 600L358 601L357 600M327 601L328 602L327 601M354.333 601.667L354.667 602.333L354.333 601.667M275 602L274 604L275 602M358 602L359 603L358 602M361 602L362 603L361 602M254 603L253 605L254 603M257 603L258 604L257 603M280 603L281 604L280 603M328 603L329 604L328 603M350 603L351 604L350 603M270 604L269 606L270 604M323 604L324 605L323 604M354 604L355 605L354 604M358 604L357 610L358 610L359 610L359 608L358 604M419 604L419 610L420 610L419 604M262 605L261 607L262 605M266 605L265 607L266 605M328 605L329 606L328 605M350 605L351 606L350 605M415 605L415 610L416 610L415 605M258 606L259 607L258 606M323 606L324 607L323 606M354 606L355 607L354 606M273 607L272 609L273 607M279 607L277 610L279 607M328 607L327 609L328 607M349 607L349 611L350 611L349 607M268 608L266 611L268 608M324 608L325 609L324 608M354 608L353 611L354 608M254 609L253 611L254 609M257 609L258 610L257 609M319 609L320 610L319 609M324 610L325 611L324 610M327 610L328 611L327 610M262 611L261 613L262 611M271 611L269 614L271 611M319 611L320 612L319 611M358 611L359 612L358 611M366 611L367 612L366 611M258 612L259 613L258 612M276 612L274 615L276 612M316 612L314 614L314 616L313 617L311 618L310 619L310 621L309 622L305 625L305 627L304 628L302 629L301 630L301 632L300 633L296 636L296 638L295 639L293 640L292 641L292 643L291 644L287 647L287 649L286 650L284 651L283 652L283 654L282 655L278 658L278 660L277 661L275 662L274 663L274 665L273 666L269 669L269 671L268 672L266 673L265 676L269 676L270 676L271 676L272 676L273 676L274 676L275 676L276 676L277 676L278 676L279 676L280 676L281 676L282 676L283 676L284 676L285 676L286 676L287 676L288 676L289 676L290 676L291 676L292 676L293 676L294 676L295 676L296 676L297 676L298 676L299 676L300 676L301 676L302 676L303 676L304 676L305 676L306 676L307 676L308 676L309 676L310 676L311 676L312 676L317 676L317 672L317 671L317 670L317 669L317 668L317 667L317 666L317 665L317 664L317 663L317 662L317 661L317 660L317 659L317 658L317 657L317 656L317 655L317 654L317 653L317 652L317 651L317 650L317 649L317 648L317 647L317 646L317 645L317 644L317 643L317 642L317 641L317 640L317 639L317 638L317 637L317 636L317 635L317 634L317 633L317 632L317 631L317 630L317 629L317 628L317 627L317 626L317 625L317 624L317 623L317 622L317 621L317 620L317 619L317 618L317 617L316 612M324 612L325 613L324 612M328 612L329 613L328 612M349 612L350 613L349 612M393 612L394 613L393 612M423 612L423 616L424 616L423 612M319 613L320 614L319 613M365 613L366 614L365 613M407 613L408 614L407 613M265 614L266 615L265 614M324 614L325 615L324 614M328 614L329 615L328 614M349 614L351 616L349 614M382 614L383 615L382 614M415 614L416 615L415 614M254 615L253 617L254 615M257 615L258 616L257 615M307 615L306 617L307 615M319 615L320 616L319 615M364 615L365 616L364 615M392 615L393 616L392 615M324 616L323 620L324 620L324 616M328 616L329 617L328 616M353 616L354 617L353 616M377 616L378 617L377 616M402 616L403 617L402 616M258 617L259 618L258 617M262 617L263 618L262 617M268 617L265 621L268 617M303 617L304 618L303 617M319 617L320 618L319 617M363 617L364 618L363 617M386 617L387 618L386 617M406 617L407 618L406 617M254 618L255 619L254 618M273 618L269 623L273 618M299 618L300 619L299 618M354 618L355 619L354 618M373 618L374 619L373 618M391 618L392 619L391 618M411 618L412 619L411 618M296 619L297 620L296 619M319 619L320 620L319 619M380 619L381 620L380 619M398 619L399 620L398 619M414 619L415 620L414 619M424 619L425 620L424 619M431 619L432 620L431 619M467 619L468 620L467 619M483 619L484 620L483 619M486.333 619.667L486.667 620.333L486.333 619.667M499 619L500 620L499 619M506.333 619.667L506.667 620.333L506.333 619.667M518 619L519 620L518 619M522.333 619.667L522.667 620.333L522.333 619.667M525.333 619.667L525.667 620.333L525.333 619.667M534 619L535 620L534 619M543 619L545 621L543 619M550 619L551 620L550 619M563 619L565 621L563 619M570 619L571 620L570 619M576 619L578 621L576 619M582 619L584 621L582 619M586 619L587 620L586 619M602 619L603 620L602 619M620 619L620 620L622 621L625 621L625 620L620 619M626 619L629 621L628 619L626 619M630 619L633 621L632 619L630 619M261 620L262 621L261 620M292 620L290 623L292 620M306 620L307 621L306 620M385 620L386 621L385 620M401 620L402 621L401 620M416 620L417 621L416 620M557 620L558 621L557 620M590 620L591 621L590 620M605 620L606 621L605 620M253 621L254 622L253 621M257 621L258 622L257 621M302 621L300 624L302 621M320 621L321 622L320 621M323 621L324 622L323 621M327 621L328 622L327 621M353 621L354 622L353 621M361 621L362 622L361 621M377 621L378 622L377 621M390 621L391 622L390 621M405 621L406 622L405 621M419 621L420 622L419 621M369 622L370 623L369 622M382 622L383 623L382 622M395 622L396 623L395 622M408 622L409 623L408 622M258 623L259 624L258 623M287 623L285 626L287 623M320 623L321 624L320 623M323 623L324 624L323 623M327 623L328 624L327 623M400 623L401 624L400 623M410 623L411 624L410 623M420 623L421 624L420 623M423 623L423 627L424 627L423 623M425 623L426 624L425 623M477 623L478 624L477 623M484.333 623.667L484.667 624.333L484.333 623.667M507 623L508 624L507 623M520.333 623.667L520.667 624.333L520.333 623.667M536 623L537 624L536 623M552 623L554 625L552 623M566 623L567 624L566 623M579 623L581 625L579 623M589 623L591 625L589 623M598 623L599 624L598 623M611 623L613 625L611 623M624 623L624 624L626 625L629 625L629 624L624 623M630 623L633 625L632 623L630 623M254 624L253 626L254 624M298 624L299 625L298 624M389 624L390 625L389 624M402 624L403 625L402 624M413 624L414 625L413 624M601 624L602 625L601 624M262 625L261 627L262 625M268 625L265 629L268 625M296 625L297 626L296 625M320 625L321 626L320 625M323 625L324 626L323 625M328 625L329 626L328 625M373 625L374 626L373 625M383 625L384 626L383 625M394 625L395 626L394 625M404 625L405 626L404 625M415 625L416 626L415 625M281 626L277 631L281 626M292 626L291 628L292 626M301 626L302 627L301 626M364 626L365 627L364 626M375 626L376 627L375 626M386 626L387 627L386 626M396 626L397 627L396 626M407 626L408 627L407 626M257 627L258 628L257 627M298 627L299 628L298 627M320 627L321 628L320 627M324 627L325 628L324 627M328 627L329 628L328 627M380 627L381 628L380 627M388 627L389 628L388 627M399 627L400 628L399 627M409 627L410 628L409 627M418 627L419 630L420 630L418 627M421.333 627.667L421.667 628.333L421.333 627.667M427 627L428 628L427 627M538 627L539 628L538 627M598 627L600 629L598 627M606 627L607 628L606 627M617 627L619 629L617 627M628 627L628 628L630 629L633 629L633 628L628 627M288 628L286 631L288 628M296 628L294 631L296 628M382 628L383 629L382 628M393 628L394 629L393 628M401 628L402 629L401 628M610 628L611 629L610 628M258 629L259 630L258 629M320 629L321 630L320 629M324 629L325 630L324 629M357 629L358 630L357 629M368 629L369 630L368 629M376 629L377 630L376 629M385 629L386 630L385 629M395 629L396 630L395 629M403 629L404 630L403 629M254 630L253 632L254 630M354 630L355 631L354 630M362 630L363 631L362 630M371 630L372 631L371 630M379 630L380 631L379 630M387 630L388 631L387 630M398.333 630.667L398.667 631.333L398.333 630.667M406.333 630.667L406.667 631.333L406.333 630.667M262 631L261 633L262 631M274 631L272 633L272 634L271 634L271 635L270 635L270 636L269 636L269 637L268 637L268 638L267 638L267 639L265 641L267 639L268 639L268 638L269 638L269 637L270 637L270 636L271 636L271 635L272 635L272 634L273 634L274 631M282 631L278 636L282 631M292 631L291 633L292 631M298 631L299 632L298 631M320 631L321 632L320 631M324 631L325 632L324 631M381 631L382 632L381 631M389 631L390 632L389 631M414 631L415 632L414 631M420 631L420 636L419 636L418 632L417 632L421 636L421 640L422 640L423 648L424 648L423 645L423 640L422 640L422 636L421 636L420 631M422 631L423 634L423 639L424 639L422 631M424 631L425 632L424 631M426 631L426 638L427 638L427 641L427 644L427 647L426 647L426 639L425 639L425 647L426 647L426 650L426 657L425 657L425 660L425 663L425 666L424 666L424 669L424 676L428 676L429 676L430 676L431 676L432 676L433 676L434 676L435 676L436 676L437 676L438 676L439 676L440 676L441 676L442 676L443 676L444 676L445 676L446 676L447 676L448 676L449 676L450 676L451 676L452 676L453 676L454 676L455 676L456 676L457 676L458 676L459 676L460 676L461 676L462 676L463 676L464 676L465 676L466 676L467 676L468 676L469 676L470 676L471 676L472 676L473 676L474 676L475 676L476 676L477 676L478 676L479 676L480 676L481 676L482 676L483 676L484 676L485 676L486 676L487 676L488 676L489 676L490 676L491 676L492 676L493 676L494 676L495 676L496 676L497 676L498 676L499 676L500 676L501 676L502 676L503 676L504 676L505 676L506 676L507 676L508 676L509 676L510 676L511 676L512 676L513 676L514 676L515 676L516 676L517 676L518 676L519 676L520 676L521 676L522 676L523 676L524 676L525 676L526 676L527 676L528 676L529 676L530 676L531 676L532 676L533 676L534 676L535 676L536 676L537 676L538 676L539 676L540 676L541 676L542 676L543 676L544 676L545 676L546 676L547 676L548 676L549 676L550 676L551 676L552 676L553 676L554 676L555 676L556 676L557 676L558 676L559 676L560 676L561 676L562 676L563 676L564 676L565 676L566 676L567 676L568 676L569 676L570 676L571 676L572 676L573 676L574 676L575 676L576 676L577 676L578 676L579 676L580 676L581 676L582 676L583 676L584 676L585 676L586 676L587 676L588 676L589 676L590 676L591 676L592 676L593 676L594 676L595 676L596 676L597 676L598 676L599 676L600 676L601 676L602 676L603 676L604 676L605 676L606 676L607 676L608 676L609 676L610 676L611 676L612 676L613 676L614 676L615 676L616 676L617 676L618 676L619 676L620 676L621 676L622 676L623 676L624 676L625 676L626 676L627 676L634 676L633 673L631 672L630 671L631 668L625 665L626 662L621 660L621 656L616 654L616 650L612 649L610 646L611 644L607 643L606 638L605 637L603 638L601 632L600 631L598 632L595 631L591 631L590 631L589 631L588 631L587 631L586 631L585 631L584 631L583 631L582 631L581 631L580 631L579 631L578 631L577 631L576 631L575 631L574 631L573 631L572 631L571 631L570 631L569 631L568 631L567 631L566 631L565 631L564 631L563 631L562 631L561 631L560 631L559 631L558 631L557 631L556 631L555 631L554 631L553 631L552 631L551 631L550 631L549 631L548 631L547 631L546 631L545 631L544 631L543 631L542 631L541 631L540 631L539 631L538 631L537 631L536 631L535 631L534 631L533 631L532 631L531 631L530 631L529 631L528 631L527 631L526 631L525 631L524 631L523 631L522 631L521 631L520 631L519 631L518 631L517 631L516 631L515 631L514 631L513 631L512 631L511 631L510 631L509 631L508 631L507 631L506 631L505 631L504 631L503 631L502 631L501 631L500 631L499 631L498 631L497 631L496 631L495 631L494 631L493 631L492 631L491 631L490 631L489 631L488 631L487 631L486 631L485 631L484 631L483 631L482 631L481 631L480 631L479 631L478 631L477 631L476 631L475 631L474 631L473 631L472 631L471 631L470 631L469 631L468 631L467 631L466 631L465 631L464 631L463 631L462 631L461 631L460 631L459 631L458 631L457 631L456 631L455 631L454 631L453 631L452 631L451 631L450 631L449 631L448 631L447 631L446 631L445 631L444 631L443 631L442 631L441 631L440 631L439 631L438 631L437 631L436 631L435 631L434 631L433 631L432 631L428 631L428 638L427 638L426 631M607 631L610 634L607 631M615 631L620 636L615 631M624 631L626 633L626 634L627 634L627 635L628 635L628 636L629 636L629 637L630 637L630 638L631 638L631 639L634 641L632 639L632 638L631 638L631 637L630 637L630 636L629 636L629 635L628 635L628 634L627 634L627 633L624 631M296 632L297 633L296 632M327 632L328 633L327 632M386.333 632.667L386.667 633.333L386.333 632.667M392 632L393 633L392 632M400 632L401 633L400 632M408 632L409 633L408 632M600 632L599 633L600 632M257 633L258 634L257 633M289 633L290 634L289 633M293 633L294 634L293 633M320 633L321 634L320 633M324 633L325 634L324 633M380 633L381 634L380 633M394 633L395 634L394 633M402 633L403 634L402 633M411.333 633.667L411.667 634.333L411.333 633.667M603 633L606 636L603 633M285 634L282 638L285 634M291 634L287 638L287 641L288 641L288 638L291 634M328 634L329 635L328 634M388 634L389 635L388 634M397 634L398 635L397 634M405.333 634.667L405.667 635.333L405.333 634.667M612 634L616 638L612 634M258 635L259 636L258 635M320 635L321 636L320 635M385.333 635.667L385.667 636.333L385.333 635.667M399.333 635.667L399.667 636.333L399.333 635.667M413.333 635.667L413.667 636.333L413.333 635.667M254 636L253 638L254 636M275 636L273 638L273 639L272 639L272 640L270 642L272 640L273 640L273 639L274 639L275 636M328 636L329 637L328 636M393 636L394 637L393 636M407.333 636.667L407.667 637.333L407.333 636.667M609 636L612 639L609 636M623 636L625 638L625 639L626 639L626 640L629 642L627 640L627 639L626 639L626 638L623 636M293 637L294 638L293 637M320 637L321 638L320 637M382 637L383 638L382 637M396.333 637.667L396.667 638.333L396.333 637.667M401 637L402 638L401 637M416 637L418 643L419 643L416 637M279 638L276 642L279 638M291 638L292 639L291 638M323 638L324 639L323 638M328 638L329 639L328 638M384.333 638.667L384.667 639.333L384.333 638.667M390 638L391 639L390 638M404.333 638.667L404.667 639.333L404.333 638.667M410.333 638.667L410.667 639.333L410.333 638.667M605 638L604 639L605 638M619 638L623 642L619 638M285 639L285 642L281 646L282 647L283 647L284 646L286 642L285 639M320 639L321 640L320 639M392.333 639.667L392.667 640.333L392.333 639.667M398.333 639.667L398.667 640.333L398.333 639.667M608 639L611 642L608 639M614 639L617 642L614 639M323 640L324 641L323 640M381 640L382 641L381 640M386 640L387 641L386 640M406 640L406 643L407 643L407 642L407 641L406 640M412 640L412 643L413 643L413 642L413 641L412 640M282 641L283 642L282 641M389.333 641.667L389.667 642.333L389.333 641.667M395.333 641.667L395.667 642.333L395.333 641.667M400.333 641.667L400.667 642.333L400.333 641.667M266 642L265 644L266 642M272 642L270 644L270 645L269 645L269 646L266 649L268 647L269 647L269 646L270 646L272 642M278 642L274 647L278 642M289 642L288 644L289 642M323 642L324 643L323 642M614 642L618 646L614 642M619 642L624 647L619 642M625 642L627 644L627 645L628 645L628 646L632 649L630 647L630 646L629 646L629 645L625 642M631 642L634 645L631 642M327 643L328 644L327 643M380 643L381 644L380 643M385 643L386 644L385 643M397 643L398 644L397 643M403.333 643.667L403.667 644.333L403.333 643.667M409.333 643.667L409.667 644.333L409.333 643.667M415 643L417 649L418 649L415 643M420 643L420 647L421 647L420 643M609 643L610 645L609 643M286 644L287 645L286 644M319 644L320 645L319 644M324 644L325 645L324 644M382.333 644.667L382.667 645.333L382.333 644.667M388.333 644.667L388.667 645.333L388.333 644.667M394.333 644.667L394.667 645.333L394.333 644.667M399 644L399 647L400 647L400 646L400 645L399 644M283 645L282 646L283 645M327 645L328 646L327 645M405.333 645.667L405.667 646.333L405.333 645.667M411 645L411 648L412 648L412 647L412 646L411 645M613 645L617 649L613 645M262 646L261 648L262 646M279 646L277 648L278 650L275 653L276 654L279 652L278 650L281 647L279 646M319 646L320 647L319 646M324 646L325 647L324 646M384 646L385 647L384 646M390.333 646.667L390.667 647.333L390.333 646.667M396.333 646.667L396.667 647.333L396.333 646.667M620 646L625 651L620 646M271 647L269 649L269 650L268 650L268 651L266 653L268 651L269 651L269 650L270 650L271 647M280 647L278 649L280 647M328 647L329 648L328 647M381.333 647.667L381.667 648.333L381.333 647.667M402.333 647.667L402.667 648.333L402.333 647.667M408 647L408 650L409 650L409 649L409 648L408 647M627 647L629 649L629 650L630 650L630 651L633 653L631 651L631 650L630 650L630 649L627 647M284 648L283 650L284 648M319 648L320 649L319 648M393.333 648.667L393.667 649.333L393.333 648.667M398 648L398 651L399 651L399 650L399 649L398 648M414 648L414 652L415 652L414 648M275 649L274 651L275 649M389.333 649.667L389.667 650.333L389.333 649.667M614 649L615 651L614 649M620 649L624 653L620 649M258 650L257 652L258 650M262 650L261 652L262 650M281 650L282 651L281 650M319 650L320 651L319 650M270 651L268 653L268 654L267 654L267 655L265 657L267 655L268 655L268 654L269 654L270 651M278 651L276 653L278 651M618 651L623 656L618 651M627 651L629 653L629 654L630 654L630 655L633 657L631 655L631 654L630 654L630 653L627 651M319 652L320 653L319 652M262 653L261 655L262 653M273 653L270 657L273 653M280 653L278 656L280 653M382 653L383 654L382 653M388.333 653.667L388.667 654.333L388.333 653.667M392 653L393 654L392 653M397.333 653.667L397.667 654.333L397.333 653.667M401 653L402 654L401 653M407.333 653.667L407.667 654.333L407.333 653.667M410 653L411 654L410 653M415 653L416 656L417 656L415 653M419 653L420 654L419 653M626 653L628 655L628 656L629 656L629 657L632 659L630 657L630 656L629 656L629 655L626 653M258 654L257 656L258 654M319 654L320 655L319 654M327 654L328 655L327 654M413 654L413 658L414 658L414 664L413 664L413 659L412 659L412 664L413 664L413 670L412 670L412 676L415 676L415 675L415 671L415 670L415 669L415 668L416 662L416 661L413 654M422 654L422 661L421 661L421 668L420 668L420 676L423 676L423 675L423 671L423 670L423 669L423 668L423 667L423 666L423 665L423 664L423 663L423 662L423 661L423 660L422 654M618 654L620 657L618 654M276 656L277 657L276 656M319 656L320 657L319 656M418 656L418 662L417 662L417 669L416 669L416 676L419 676L419 675L419 671L419 670L419 669L419 668L419 667L419 666L419 665L419 664L419 663L419 662L419 661L419 660L418 656M626 656L631 661L626 656M258 657L257 659L258 657M262 657L261 659L262 657M268 657L267 659L268 657M273 657L271 660L273 657M384.333 657.667L384.667 658.333L384.333 657.667M396.333 657.667L396.667 658.333L396.333 657.667M400 657L401 658L400 657M409.333 657.667L409.667 658.333L409.333 657.667M623 657L628 662L623 657M254 658L255 659L254 658M319 658L320 659L319 658M328 658L329 659L328 658M275 659L273 662L275 659M323 659L324 660L323 659M262 660L261 662L262 660M268 660L269 661L268 660M319 660L320 661L319 660M327 660L328 661L327 660M623 660L625 663L623 660M254 661L255 662L254 661M258 661L257 663L258 661M266 661L265 663L266 661M323 661L324 662L323 661M386 661L387 662L386 661M395.333 661.667L395.667 662.333L395.333 661.667M399 661L400 662L399 661M633 661L634 662L633 661M271 662L272 663L271 662M319 662L320 663L319 662M631 662L634 665L631 662M268 663L265 667L268 663M258 664L257 666L258 664M271 664L268 668L271 664M320 664L321 665L320 664M261 665L262 666L261 665M324 665L325 666L324 665M328 665L329 666L328 665M627 665L630 669L627 665M320 666L321 667L320 666M262.333 667.667L262.667 668.333L262.333 667.667M323 667L324 668L323 667M266 668L267 669L266 668M320 668L321 669L320 668M258 670L257 672L258 670M262 670L261 672L262 670M266 670L265 672L266 670M320 672L319 676L320 672M324 672L323 676L324 672M328 672L327 676L328 672M254 673L253 676L254 673M258 673L257 676L258 673M262 673L261 676L262 673M563 677L564 678L563 677M295 678L296 679L295 678M526 678L527 679L526 678M602 678L603 679L602 678M278 679L279 680L278 679M507 679L508 680L507 679M564 679L565 680L564 679M620 679L621 680L620 679M265 680L266 681L265 680M311 680L312 681L311 680M495 680L496 681L495 680M542 680L543 681L542 680M586 680L587 681L586 680M633 680L634 681L633 680M293 681L294 682L293 681M488 681L489 682L488 681M527 681L528 682L527 681M565 681L566 682L565 681M604 681L605 682L604 681M283 682L284 683L283 682M315 682L316 683L315 682M483 682L484 683L483 682M515 682L516 683L515 682M548 682L549 683L548 682M582 682L583 683L582 682M615 682L616 683L615 682M261 685L262 686L261 685M283 685L284 686L283 685M308 685L309 686L308 685M424 685L425 686L424 685M473 685L474 686L473 685M496 685L497 686L496 685M519 685L520 686L519 685M544 685L545 686L544 685M567 685L568 686L567 685M589 685L590 686L589 685M614 685L615 686L614 685M277 686L278 687L277 686M298 686L299 687L298 686M320 686L321 687L320 686M427 686L428 687L427 686M471 686L472 687L471 686M491 686L492 687L491 686M514 686L515 687L514 686M534 686L535 687L534 686M557 686L558 687L557 686M577 686L578 687L577 686M600 686L601 687L600 686M620 686L621 687L620 686M278 689L279 690L278 689M296 689L297 690L296 689M311 689L312 690L311 689M414 689L415 690L414 689M432.333 689.667L432.667 690.333L432.333 689.667M466.333 689.667L466.667 690.333L466.333 689.667M484 689L485 690L484 689M499 689L500 690L499 689M517 689L518 690L517 689M535 689L536 690L535 689M551 689L552 690L551 689M569 689L570 690L569 689M586 689L587 690L586 689M602 689L603 690L602 689M620 689L621 690L620 689M257 690L258 691L257 690M272 690L273 691L272 690M287 690L288 691L287 690M305 690L306 691L305 690M416 690L417 691L416 690M481 690L482 691L481 690M497 690L498 691L497 690M512 690L513 691L512 690M530 690L531 691L530 690M546 690L547 691L546 690M561 690L562 691L561 690M577 690L578 691L577 690M592 690L593 691L592 690M610 690L611 691L610 690M626 690L627 691L626 690M272 693L273 694L272 693M285 693L286 694L285 693M301 693L302 694L301 693M314 693L315 694L314 693M327 693L328 694L327 693M421 693L422 694L421 693M434 693L435 694L434 693M464 693L465 694L464 693M477 693L478 694L477 693M490 693L491 694L490 693M503 693L504 694L503 693M516 693L517 694L516 693M531 693L532 694L531 693M544 693L545 694L544 693M557 693L558 694L557 693M571 693L572 694L571 693M584 693L585 694L584 693M597 693L598 694L597 693M612 693L613 694L612 693M625 693L626 694L625 693M269 694L270 695L269 694M282 694L283 695L282 694M295 694L296 695L295 694M308 694L309 695L308 694M487 694L488 695L487 694M500 694L501 695L500 694M513 694L514 695L513 694M526 694L527 695L526 694M540 694L541 695L540 694M553 694L554 695L553 694M566 694L567 695L566 694M576 694L577 695L576 694M589 694L590 695L589 694M602 694L603 695L602 694M616 694L617 695L616 694M629 694L630 695L629 694z"/>
</svg>
