<?xml version="1.0" standalone="yes"?>
<svg width="900" height="900">
<path style="fill:#010101; stroke:none;" d="M633 251L631 253L631 254L630 254L630 255L629 255L629 256L628 256L628 257L627 257L627 258L626 258L626 259L624 260L624 262L623 263L621 265L620 265L620 266L619 266L619 267L618 267L618 268L617 268L617 269L616 269L616 270L615 270L613 272L613 274L612 275L610 277L609 277L609 278L608 278L608 279L607 279L607 280L606 280L606 281L605 281L605 282L604 282L602 284L602 286L601 287L599 289L598 289L598 290L597 290L597 291L596 291L596 292L595 292L595 293L594 293L594 294L593 294L591 296L591 298L590 299L588 301L587 301L587 302L586 302L586 303L585 303L585 304L584 304L584 305L583 305L583 306L582 306L581 308L577 308L576 308L575 308L574 308L573 308L572 308L571 308L570 308L569 308L568 308L567 308L566 308L565 308L564 308L563 308L562 308L561 308L560 308L559 308L558 308L557 308L556 308L555 308L554 308L553 308L552 308L551 308L550 308L549 308L548 308L547 308L546 308L545 308L544 308L543 308L542 308L541 308L540 308L539 308L538 308L537 308L536 308L535 308L534 308L533 308L532 308L531 308L530 308L529 308L528 308L527 308L526 308L525 308L524 308L523 308L522 308L521 308L520 308L519 308L518 308L517 308L516 308L515 308L514 308L513 308L512 308L511 308L510 308L509 308L508 308L507 308L506 308L505 308L504 308L503 308L502 308L501 308L500 308L499 308L498 308L497 308L496 308L495 308L494 308L493 308L492 308L491 308L490 308L489 308L488 308L487 308L486 308L485 308L484 308L483 308L482 308L481 308L480 308L479 308L478 308L477 308L476 308L475 308L474 308L473 308L472 308L471 308L470 308L469 308L468 308L467 308L466 308L465 308L464 308L463 308L462 308L456 306L455 306L455 310L455 311L455 312L455 313L455 314L455 315L455 316L455 317L455 318L455 319L455 320L455 321L455 322L455 323L455 324L455 325L455 331L454 331L454 334L454 338L454 339L454 340L454 341L454 342L454 343L454 344L454 345L454 346L454 347L454 348L454 349L454 350L454 351L454 352L454 353L454 354L454 355L454 356L454 357L454 358L454 359L454 360L454 361L454 362L454 363L454 364L454 365L454 366L454 367L454 368L454 369L454 370L454 371L454 372L454 373L454 374L454 375L454 376L454 377L454 378L454 379L454 380L454 381L454 382L454 383L454 384L454 385L454 386L454 387L454 388L454 389L454 390L454 391L454 392L454 393L454 394L454 395L454 396L454 397L454 398L454 399L454 400L454 401L454 402L454 403L454 404L454 405L454 406L454 407L454 408L454 409L454 410L454 411L454 412L454 413L454 414L454 415L454 416L454 417L454 418L454 419L454 420L454 421L454 422L454 423L454 424L454 425L454 426L454 427L454 428L454 429L454 430L454 431L454 432L454 433L454 434L454 435L454 436L454 437L454 438L454 439L454 440L454 441L454 442L454 443L454 444L454 445L454 446L454 447L454 448L454 449L454 450L454 451L454 452L454 453L454 454L454 455L454 456L454 457L454 458L454 459L454 460L454 461L454 462L454 463L454 464L454 465L454 466L454 467L454 468L454 469L454 470L454 471L454 472L454 473L454 474L454 475L454 476L454 477L454 478L454 479L454 480L454 481L454 482L454 483L454 484L454 485L454 486L454 487L454 488L454 489L454 490L454 491L454 492L454 493L454 494L454 495L454 496L454 497L454 498L454 499L454 500L454 501L454 502L454 503L454 504L454 505L454 506L454 507L454 508L454 509L454 510L454 511L454 512L454 513L454 514L454 515L454 516L454 517L454 518L454 519L454 520L454 521L454 522L454 523L454 524L454 525L454 526L454 527L454 528L454 529L454 530L454 531L454 532L454 533L454 534L454 535L454 536L454 537L454 538L454 539L454 540L454 541L454 542L454 543L454 544L454 545L454 546L454 547L454 548L454 549L454 550L454 551L454 552L454 553L454 554L454 555L454 556L454 557L454 558L454 559L454 560L454 561L454 562L454 563L454 564L454 565L454 566L454 567L454 568L454 569L454 570L454 571L454 572L454 573L454 574L454 575L454 576L454 577L454 578L454 579L454 580L454 581L454 582L454 583L454 584L454 585L454 586L454 587L454 588L454 589L454 590L454 591L454 592L454 593L454 594L454 595L454 596L454 597L454 598L454 599L454 600L454 601L454 602L454 603L454 604L454 605L454 606L454 607L454 608L454 609L454 610L454 611L454 612L454 613L454 614L454 615L454 616L454 617L454 618L454 619L454 620L454 621L454 622L454 623L454 624L454 625L454 631L452 631L452 629L452 625L452 624L452 623L452 622L452 621L452 620L452 619L452 618L452 617L452 616L452 615L452 614L452 613L452 612L452 611L452 610L452 609L452 608L452 607L452 606L452 605L452 604L452 603L452 602L452 601L452 600L452 599L452 598L452 597L452 596L452 595L452 594L452 593L452 592L452 591L452 590L452 589L452 588L452 587L452 586L452 585L452 584L452 583L452 582L452 581L452 580L452 579L452 578L452 577L452 576L452 575L452 574L452 573L452 572L452 571L452 570L452 569L452 568L452 567L452 566L452 565L452 564L452 563L452 562L452 561L452 560L452 559L452 558L452 557L452 556L452 555L452 554L452 553L452 552L452 551L452 550L452 549L452 548L452 547L452 546L452 545L452 544L452 543L452 542L452 541L452 540L452 539L452 538L452 537L452 536L452 535L452 534L452 533L452 532L452 531L452 530L452 529L452 528L452 527L452 526L452 525L452 524L452 523L452 522L452 521L452 520L452 519L452 518L452 517L452 516L452 515L452 514L452 513L452 512L452 511L452 510L452 509L452 508L452 507L452 506L452 505L452 504L452 503L452 502L452 501L452 500L452 499L452 498L452 497L452 496L452 495L452 494L452 493L452 492L452 491L452 490L452 489L452 488L452 487L452 486L452 485L452 484L452 483L452 482L452 481L452 480L452 479L452 478L452 477L452 476L452 475L452 474L452 473L452 472L452 471L452 470L452 469L452 468L452 467L452 466L452 465L452 464L452 463L452 462L452 461L452 460L452 459L452 458L452 457L452 456L452 455L452 454L452 453L452 452L452 451L452 450L452 449L452 448L452 447L452 446L452 445L452 444L452 443L452 442L452 441L452 440L452 439L452 438L452 437L452 436L452 435L452 434L452 433L452 432L452 431L452 430L452 429L452 428L452 427L452 426L452 425L452 424L452 423L452 422L452 421L452 420L452 419L452 418L452 417L452 416L452 415L452 414L452 413L452 412L452 411L452 410L452 409L452 408L452 407L452 406L452 405L452 404L452 403L452 402L452 401L452 400L452 399L452 398L452 397L452 396L452 395L452 394L452 393L452 392L452 391L452 390L452 389L452 388L452 387L452 386L452 385L452 384L452 383L452 382L452 381L452 380L452 379L452 378L452 377L452 376L452 375L452 374L452 373L452 372L452 371L452 370L452 369L452 368L452 367L452 366L452 365L452 364L452 363L452 362L452 361L452 360L452 359L452 358L452 357L452 356L452 355L452 354L452 353L452 352L452 351L452 350L452 349L452 348L452 347L452 346L452 345L452 344L452 343L452 342L452 341L452 340L452 339L452 338L452 331L450 331L450 333L450 337L450 338L450 339L450 340L450 341L450 342L450 343L450 344L450 345L450 346L450 347L450 348L450 349L450 350L450 351L450 352L450 353L450 354L450 355L450 356L450 357L450 358L450 359L450 360L450 361L450 362L450 363L450 364L450 365L450 366L450 367L450 368L450 369L450 370L450 371L450 372L450 373L450 374L450 375L450 376L450 377L450 378L450 379L450 380L450 381L450 382L450 383L450 384L450 385L450 386L450 387L450 388L450 389L450 390L450 391L450 392L450 393L450 394L450 395L450 396L450 397L450 398L450 399L450 400L450 401L450 402L450 403L450 404L450 405L450 406L450 407L450 408L450 409L450 410L450 411L450 412L450 413L450 414L450 415L450 416L450 417L450 418L450 419L450 420L450 421L450 422L450 423L450 424L450 425L450 426L450 427L450 428L450 429L450 430L450 431L450 432L450 433L450 434L450 435L450 436L450 437L450 438L450 439L450 440L450 441L450 442L450 443L450 444L450 445L450 446L450 447L450 448L450 449L450 450L450 451L450 452L450 453L450 454L450 455L450 456L450 457L450 458L450 459L450 460L450 461L450 462L450 463L450 464L450 465L450 466L450 467L450 468L450 469L450 470L450 471L450 472L450 473L450 474L450 475L450 476L450 477L450 478L450 479L450 480L450 481L450 482L450 483L450 484L450 485L450 486L450 487L450 488L450 489L450 490L450 491L450 492L450 493L450 494L450 495L450 496L450 497L450 498L450 499L450 500L450 501L450 502L450 503L450 504L450 505L450 506L450 507L450 508L450 509L450 510L450 511L450 512L450 513L450 514L450 515L450 516L450 517L450 518L450 519L450 520L450 521L450 522L450 523L450 524L450 525L450 526L450 527L450 528L450 529L450 530L450 531L450 532L450 533L450 534L450 535L450 536L450 537L450 538L450 539L450 540L450 541L450 542L450 543L450 544L450 545L450 546L450 547L450 548L450 549L450 550L450 551L450 552L450 553L450 554L450 555L450 556L450 557L450 558L450 559L450 560L450 561L450 562L450 563L450 564L450 565L450 566L450 567L450 568L450 569L450 570L450 571L450 572L450 573L450 574L450 575L450 576L450 577L450 578L450 579L450 580L450 581L450 582L450 583L450 584L450 585L450 586L450 587L450 588L450 589L450 590L450 591L450 592L450 593L450 594L450 595L450 596L450 597L450 598L450 599L450 600L450 601L450 602L450 603L450 604L450 605L450 606L450 607L450 608L450 609L450 610L450 611L450 612L450 613L450 614L450 615L450 616L450 617L450 618L450 619L450 620L450 621L450 622L450 623L450 624L450 631L448 631L448 629L448 625L448 624L448 623L448 622L448 621L448 620L448 619L448 618L448 617L448 616L448 615L448 614L448 613L448 612L448 611L448 610L448 609L448 608L448 607L448 606L448 605L448 604L448 603L448 602L448 601L448 600L448 599L448 598L448 597L448 596L448 595L448 594L448 593L448 592L448 591L448 590L448 589L448 588L448 587L448 586L448 585L448 584L448 583L448 582L448 581L448 580L448 579L448 578L448 577L448 576L448 575L448 574L448 573L448 572L448 571L448 570L448 569L448 568L448 567L448 566L448 565L448 564L448 563L448 562L448 561L448 560L448 559L448 558L448 557L448 556L448 555L448 554L448 553L448 552L448 551L448 550L448 549L448 548L448 547L448 546L448 545L448 544L448 543L448 542L448 541L448 540L448 539L448 538L448 537L448 536L448 535L448 534L448 533L448 532L448 531L448 530L448 529L448 528L448 527L448 526L448 525L448 524L448 523L448 522L448 521L448 520L448 519L448 518L448 517L448 516L448 515L448 514L448 513L448 512L448 511L448 510L448 509L448 508L448 507L448 506L448 505L448 504L448 503L448 502L448 501L448 500L448 499L448 498L448 497L448 496L448 495L448 494L448 493L448 492L448 491L448 490L448 489L448 488L448 487L448 486L448 485L448 484L448 483L448 482L448 481L448 480L448 479L448 478L448 477L448 476L448 475L448 474L448 473L448 472L448 471L448 470L448 469L448 468L448 467L448 466L448 465L448 464L448 463L448 462L448 461L448 460L448 459L448 458L448 457L448 456L448 455L448 454L448 453L448 452L448 451L448 450L448 449L448 448L448 447L448 446L448 445L448 444L448 443L448 442L448 441L448 440L448 439L448 438L448 437L448 436L448 435L448 434L448 433L448 432L448 431L448 430L448 429L448 428L448 427L448 426L448 425L448 424L448 423L448 422L448 421L448 420L448 419L448 418L448 417L448 416L448 415L448 414L448 413L448 412L448 411L448 410L448 409L448 408L448 407L448 406L448 405L448 404L448 403L448 402L448 401L448 400L448 399L448 398L448 397L448 396L448 395L448 394L448 393L448 392L448 391L448 390L448 389L448 388L448 387L448 386L448 385L448 384L448 383L448 382L448 381L448 380L448 379L448 378L448 377L448 376L448 375L448 374L448 373L448 372L448 371L448 370L448 369L448 368L448 367L448 366L448 365L448 364L448 363L448 362L448 361L448 360L448 359L448 358L448 357L448 356L448 355L448 354L448 353L448 352L448 351L448 350L448 349L448 348L448 347L448 346L448 345L448 344L448 343L448 342L448 341L448 340L448 339L448 338L448 331L446 331L446 333L446 337L446 338L446 339L446 340L446 341L446 342L446 343L446 344L446 345L446 346L446 347L446 348L446 349L446 350L446 351L446 352L446 353L446 354L446 355L446 356L446 357L446 358L446 359L446 360L446 361L446 362L446 363L446 364L446 365L446 366L446 367L446 368L446 369L446 370L446 371L446 372L446 373L446 374L446 375L446 376L446 377L446 378L446 379L446 380L446 381L446 382L446 383L446 384L446 385L446 386L446 387L446 388L446 389L446 390L446 391L446 392L446 393L446 394L446 395L446 396L446 397L446 398L446 399L446 400L446 401L446 402L446 403L446 404L446 405L446 406L446 407L446 408L446 409L446 410L446 411L446 412L446 413L446 414L446 415L446 416L446 417L446 418L446 419L446 420L446 421L446 422L446 423L446 424L446 425L446 426L446 427L446 428L446 429L446 430L446 431L446 432L446 433L446 434L446 435L446 436L446 437L446 438L446 439L446 440L446 441L446 442L446 443L446 444L446 445L446 446L446 447L446 448L446 449L446 450L446 451L446 452L446 453L446 454L446 455L446 456L446 457L446 458L446 459L446 460L446 461L446 462L446 463L446 464L446 465L446 466L446 467L446 468L446 469L446 470L446 471L446 472L446 473L446 474L446 475L446 476L446 477L446 478L446 479L446 480L446 481L446 482L446 483L446 484L446 485L446 486L446 487L446 488L446 489L446 490L446 491L446 492L446 493L446 494L446 495L446 496L446 497L446 498L446 499L446 500L446 501L446 502L446 503L446 504L446 505L446 506L446 507L446 508L446 509L446 510L446 511L446 512L446 513L446 514L446 515L446 516L446 517L446 518L446 519L446 520L446 521L446 522L446 523L446 524L446 525L446 526L446 527L446 528L446 529L446 530L446 531L446 532L446 533L446 534L446 535L446 536L446 537L446 538L446 539L446 540L446 541L446 542L446 543L446 544L446 545L446 546L446 547L446 548L446 549L446 550L446 551L446 552L446 553L446 554L446 555L446 556L446 557L446 558L446 559L446 560L446 561L446 562L446 563L446 564L446 565L446 566L446 567L446 568L446 569L446 570L446 571L446 572L446 573L446 574L446 575L446 576L446 577L446 578L446 579L446 580L446 581L446 582L446 583L446 584L446 585L446 586L446 587L446 588L446 589L446 590L446 591L446 592L446 593L446 594L446 595L446 596L446 597L446 598L446 599L446 600L446 601L446 602L446 603L446 604L446 605L446 606L446 607L446 608L446 609L446 610L446 611L446 612L446 613L446 614L446 615L446 616L446 617L446 618L446 619L446 620L446 621L446 622L446 623L446 624L446 631L444 631L444 629L444 625L444 624L444 623L444 622L444 621L444 620L444 619L444 618L444 617L444 616L444 615L444 614L444 613L444 612L444 611L444 610L444 609L444 608L444 607L444 606L444 605L444 604L444 603L444 602L444 601L444 600L444 599L444 598L444 597L444 596L444 595L444 594L444 593L444 592L444 591L444 590L444 589L444 588L444 587L444 586L444 585L444 584L444 583L444 582L444 581L444 580L444 579L444 578L444 577L444 576L444 575L444 574L444 573L444 572L444 571L444 570L444 569L444 568L444 567L444 566L444 565L444 564L444 563L444 562L444 561L444 560L444 559L444 558L444 557L444 556L444 555L444 554L444 553L444 552L444 551L444 550L444 549L444 548L444 547L444 546L444 545L444 544L444 543L444 542L444 541L444 540L444 539L444 538L444 537L444 536L444 535L444 534L444 533L444 532L444 531L444 530L444 529L444 528L444 527L444 526L444 525L444 524L444 523L444 522L444 521L444 520L444 519L444 518L444 517L444 516L444 515L444 514L444 513L444 512L444 511L444 510L444 509L444 508L444 507L444 506L444 505L444 504L444 503L444 502L444 501L444 500L444 499L444 498L444 497L444 496L444 495L444 494L444 493L444 492L444 491L444 490L444 489L444 488L444 487L444 486L444 485L444 484L444 483L444 482L444 481L444 480L444 479L444 478L444 477L444 476L444 475L444 474L444 473L444 472L444 471L444 470L444 469L444 468L444 467L444 466L444 465L444 464L444 463L444 462L444 461L444 460L444 459L444 458L444 457L444 456L444 455L444 454L444 453L444 452L444 451L444 450L444 449L444 448L444 447L444 446L444 445L444 444L444 443L444 442L444 441L444 440L444 439L444 438L444 437L444 436L444 435L444 434L444 433L444 432L444 431L444 430L444 429L444 428L444 427L444 426L444 425L444 424L444 423L444 422L444 421L444 420L444 419L444 418L444 417L444 416L444 415L444 414L444 413L444 412L444 411L444 410L444 409L444 408L444 407L444 406L444 405L444 404L444 403L444 402L444 401L444 400L444 399L444 398L444 397L444 396L444 395L444 394L444 393L444 392L444 391L444 390L444 389L444 388L444 387L444 386L444 385L444 384L444 383L444 382L444 381L444 380L444 379L444 378L444 377L444 376L444 375L444 374L444 373L444 372L444 371L444 370L444 369L444 368L444 367L444 366L444 365L444 364L444 363L444 362L444 361L444 360L444 359L444 358L444 357L444 356L444 355L444 354L444 353L444 352L444 351L444 350L444 349L444 348L444 347L444 346L444 345L444 344L444 343L444 342L444 341L444 340L444 339L444 338L444 331L440 331L439 331L438 331L437 331L430 331L430 324L429 324L429 317L428 317L428 310L427 310L427 303L426 303L426 296L425 296L425 289L424 289L424 292L424 296L424 297L424 298L424 299L424 300L424 301L424 302L424 303L424 304L424 305L424 306L424 307L424 308L424 309L424 310L424 311L424 312L424 313L424 314L424 315L424 319L423 319L423 316L423 312L423 311L423 310L423 309L423 308L423 307L423 306L423 305L423 300L422 300L422 294L421 294L421 288L420 288L420 291L420 295L420 296L420 297L420 298L420 299L420 300L420 301L420 302L420 303L420 304L420 305L420 306L420 307L420 308L420 309L420 310L420 311L420 312L420 313L420 314L420 318L419 318L419 315L419 311L419 310L419 309L419 308L419 307L419 306L419 305L419 304L419 298L418 298L418 293L417 293L417 287L416 287L416 290L416 294L416 295L416 296L416 297L416 298L416 299L416 300L416 301L416 302L416 303L416 304L416 305L416 306L416 307L416 308L416 309L416 310L416 311L416 312L416 313L416 317L415 317L415 314L415 310L415 309L415 308L415 307L415 306L415 305L415 304L415 303L415 302L415 301L415 300L415 299L415 295L414 295L414 291L413 291L413 286L412 286L412 289L412 293L412 294L412 295L412 296L412 297L412 298L412 299L412 300L412 301L412 302L412 303L412 304L412 305L412 306L412 307L412 308L412 309L412 310L412 311L412 312L412 317L413 317L412 323L413 323L413 321L414 321L413 327L414 327L414 324L415 324L414 330L415 330L415 328L416 328L415 333L417 333L416 337L417 337L417 335L418 335L417 340L419 340L419 347L421 347L422 353L418 353L417 353L416 353L415 353L414 353L413 353L412 353L411 353L407 353L406 348L404 346L404 343L402 341L402 338L400 336L400 333L398 331L398 328L396 326L396 323L394 321L394 318L393 316L392 316L392 320L392 321L392 322L392 323L392 324L392 325L392 326L392 327L392 328L392 329L392 330L392 331L392 332L392 333L392 334L392 335L392 336L392 337L392 338L392 339L392 340L392 341L392 342L392 343L392 344L392 345L392 346L392 347L392 348L392 349L392 350L392 351L392 352L392 353L392 354L392 355L392 356L392 357L392 358L392 359L392 360L392 361L392 362L392 363L392 364L392 365L392 366L392 367L392 368L392 369L392 370L392 371L392 372L392 373L392 374L392 375L392 376L392 377L392 378L392 379L392 380L392 381L392 382L392 383L392 384L392 385L392 386L392 387L392 392L394 394L395 394L395 395L396 395L396 396L397 396L397 397L398 397L398 398L399 398L399 399L400 399L400 400L401 400L401 401L402 401L402 402L403 402L403 403L404 403L404 404L405 404L405 405L406 405L408 407L408 411L408 412L408 413L408 414L408 415L408 416L408 417L408 418L408 419L408 420L408 421L408 422L408 423L408 424L408 425L408 426L408 427L408 428L408 429L408 430L408 431L408 432L408 433L408 434L408 435L408 436L408 437L408 438L408 445L402 444L401 447L392 446L392 450L392 451L392 452L392 453L392 454L392 455L392 456L392 457L392 458L392 459L392 460L392 461L392 462L392 463L392 464L392 465L392 466L392 467L392 468L392 469L392 470L392 471L392 472L392 473L392 474L392 475L392 476L392 477L392 478L392 479L392 480L392 481L392 482L392 483L392 484L392 485L392 486L392 487L392 488L392 489L392 490L392 491L392 492L392 493L392 494L392 495L392 496L392 497L392 498L392 499L392 500L392 501L392 508L400 508L398 510L398 512L397 513L393 517L395 515L401 519L402 519L401 515L404 516L408 512L405 517C405.53 519.649 405.428 520.607 403 520C403.53 522.649 403.428 523.607 401 523C401.53 525.649 401.428 526.607 399 526C399.53 528.649 399.428 529.607 397 529C397.53 531.649 397.428 532.607 395 532C395.53 534.649 395.428 535.607 393 535L392 541L402 543L403 541L404 537L405 537L405 541L406 541L407 537L408 537L408 543L406 545L406 547L405 547L405 549L404 549L401 553L402 556L400 555L401 558L399 560L399 562L398 562L397 567L394 565L396 569L393 567L395 571L392 569L394 573L392 572L392 578L400 578L396 585C396.501 588.006 396.699 590.675 394 590L394 591L397 591L398 593L400 592C400.983 594.95 401.487 595.622 399 595C399.983 597.95 400.487 598.622 398 598C398.983 600.95 399.487 601.622 397 601L397 602L400 602L400 606L399 609L398 609L398 612L397 612L397 615L396 615L396 618L395 618L395 621L394 621L394 624L393 624L392 631L391 631L392 623L390 621L389 621L389 620L388 620L385 615L387 616L386 613L385 613L384 617L386 619L387 619L387 620L388 620L390 625L388 623L387 623L387 622L386 622L384 620L386 625L382 623L380 631L376 631L375 631L374 631L373 631L372 631L371 631L370 631L369 631L368 631L367 631L366 631L365 631L364 631L363 631L362 631L361 631L360 631L359 631L358 631L357 631L356 631L355 631L354 631L353 631L352 631L351 631L350 631L349 631L348 631L347 631L346 631L345 631L344 631L343 631L342 631L341 631L340 631L339 631L338 631L337 631L336 631L335 631L334 631L333 631L332 631L331 631L330 631L329 631L328 631L327 631L326 631L325 631L324 631L323 631L322 631L321 631L320 631L319 631L318 631L317 631L316 631L315 631L314 631L313 631L312 631L311 631L310 631L309 631L308 631L307 631L306 631L305 631L301 631L299 633L299 634L298 634L298 635L296 636L296 638L295 639L293 640L292 641L292 643L291 644L287 647L287 649L286 650L284 651L283 652L283 654L282 655L278 658L278 660L277 661L275 662L274 663L274 665L273 666L269 669L269 671L268 672L266 673L265 676L269 676L270 676L271 676L272 676L273 676L274 676L275 676L276 676L277 676L278 676L279 676L280 676L281 676L282 676L283 676L284 676L285 676L286 676L287 676L288 676L289 676L290 676L291 676L292 676L293 676L294 676L295 676L296 676L297 676L298 676L299 676L300 676L301 676L302 676L303 676L304 676L305 676L306 676L307 676L308 676L309 676L310 676L311 676L312 676L313 676L314 676L315 676L316 676L317 676L318 676L319 676L320 676L321 676L322 676L323 676L324 676L325 676L326 676L327 676L328 676L329 676L330 676L331 676L332 676L333 676L334 676L335 676L336 676L337 676L338 676L339 676L340 676L341 676L342 676L343 676L344 676L345 676L346 676L347 676L348 676L349 676L350 676L351 676L352 676L353 676L354 676L355 676L356 676L357 676L358 676L359 676L360 676L361 676L362 676L363 676L364 676L365 676L366 676L367 676L368 676L369 676L370 676L371 676L372 676L373 676L374 676L375 676L376 676L377 676L378 676L379 676L380 676L381 676L382 676L383 676L384 676L385 676L386 676L387 676L388 676L389 676L390 676L391 676L392 676L399 676L400 680L401 680L402 682L402 686L404 688L404 692L405 692L405 697L404 697L404 694L403 694L402 691L402 687L399 680L398 680L399 685L400 685L401 687L401 691L402 694L403 694L404 697L404 703L403 703L403 699L401 696L401 692L399 690L398 684L397 684L398 690L400 692L400 696L402 699L402 703L403 703L403 708L402 708L402 704L400 701L400 697L398 695L397 689L396 689L397 695L399 697L399 701L401 704L401 708L402 708L402 714L401 714L400 707L399 707L400 710L400 713L400 714L401 714L401 719L400 719L399 712L398 712L399 715L399 719L400 719L400 725L399 725L399 730L398 730L398 736L397 736L397 741L396 741L394 746L395 752L394 752L392 757L393 763L392 763L392 769L396 769L397 769L398 769L399 769L400 769L401 769L402 769L403 769L404 769L405 769L406 769L407 769L408 769L409 769L410 769L411 769L412 769L413 769L414 769L415 769L416 769L417 769L418 769L419 769L420 769L421 769L422 769L423 769L424 769L425 769L426 769L427 769L428 769L429 769L430 769L431 769L432 769L433 769L434 769L435 769L436 769L437 769L438 769L439 769L444 769L444 765L444 764L444 763L444 762L444 761L444 760L444 759L444 758L444 757L444 756L444 755L444 754L444 753L444 752L444 751L444 750L444 749L444 748L444 747L444 746L444 745L444 744L444 743L444 742L444 741L444 740L444 739L444 738L444 737L444 736L444 735L444 734L444 733L444 732L444 731L444 730L444 729L444 728L444 727L444 726L444 725L444 724L444 723L444 722L444 721L444 720L444 719L444 718L444 717L444 716L444 715L444 714L444 713L444 712L444 711L444 710L444 709L444 708L444 707L444 706L444 705L444 704L444 703L444 702L444 701L444 700L444 699L444 698L444 697L444 696L444 695L444 694L444 693L444 692L444 691L444 690L444 689L444 688L444 687L444 686L444 685L444 684L444 683L444 682L444 676L446 676L446 678L446 682L446 683L446 684L446 685L446 686L446 687L446 688L446 689L446 690L446 691L446 692L446 693L446 694L446 695L446 696L446 697L446 698L446 699L446 700L446 701L446 702L446 703L446 704L446 705L446 706L446 707L446 708L446 709L446 710L446 711L446 712L446 713L446 714L446 715L446 716L446 717L446 718L446 719L446 720L446 721L446 722L446 723L446 724L446 725L446 726L446 727L446 728L446 729L446 730L446 731L446 732L446 733L446 734L446 735L446 736L446 737L446 738L446 739L446 740L446 741L446 742L446 743L446 744L446 745L446 746L446 747L446 748L446 749L446 750L446 751L446 752L446 753L446 754L446 755L446 756L446 757L446 758L446 759L446 760L446 761L446 762L446 763L446 764L446 765L446 769L448 769L448 767L448 763L448 762L448 761L448 760L448 759L448 758L448 757L448 756L448 755L448 754L448 753L448 752L448 751L448 750L448 749L448 748L448 747L448 746L448 745L448 744L448 743L448 742L448 741L448 740L448 739L448 738L448 737L448 736L448 735L448 734L448 733L448 732L448 731L448 730L448 729L448 728L448 727L448 726L448 725L448 724L448 723L448 722L448 721L448 720L448 719L448 718L448 717L448 716L448 715L448 714L448 713L448 712L448 711L448 710L448 709L448 708L448 707L448 706L448 705L448 704L448 703L448 702L448 701L448 700L448 699L448 698L448 697L448 696L448 695L448 694L448 693L448 692L448 691L448 690L448 689L448 688L448 687L448 686L448 685L448 684L448 683L448 682L448 681L448 680L448 676L450 676L450 678L450 682L450 683L450 684L450 685L450 686L450 687L450 688L450 689L450 690L450 691L450 692L450 693L450 694L450 695L450 696L450 697L450 698L450 699L450 700L450 701L450 702L450 703L450 704L450 705L450 706L450 707L450 708L450 709L450 710L450 711L450 712L450 713L450 714L450 715L450 716L450 717L450 718L450 719L450 720L450 721L450 722L450 723L450 724L450 725L450 726L450 727L450 728L450 729L450 730L450 731L450 732L450 733L450 734L450 735L450 736L450 737L450 738L450 739L450 740L450 741L450 742L450 743L450 744L450 745L450 746L450 747L450 748L450 749L450 750L450 751L450 752L450 753L450 754L450 755L450 756L450 757L450 758L450 759L450 760L450 761L450 762L450 763L450 764L450 765L450 769L452 769L452 767L452 763L452 762L452 761L452 760L452 759L452 758L452 757L452 756L452 755L452 754L452 753L452 752L452 751L452 750L452 749L452 748L452 747L452 746L452 745L452 744L452 743L452 742L452 741L452 740L452 739L452 738L452 737L452 736L452 735L452 734L452 733L452 732L452 731L452 730L452 729L452 728L452 727L452 726L452 725L452 724L452 723L452 722L452 721L452 720L452 719L452 718L452 717L452 716L452 715L452 714L452 713L452 712L452 711L452 710L452 709L452 708L452 707L452 706L452 705L452 704L452 703L452 702L452 701L452 700L452 699L452 698L452 697L452 696L452 695L452 694L452 693L452 692L452 691L452 690L452 689L452 688L452 687L452 686L452 685L452 684L452 683L452 682L452 681L452 680L452 676L454 676L454 678L454 682L454 683L454 684L454 685L454 686L454 687L454 688L454 689L454 690L454 691L454 692L454 693L454 694L454 695L454 696L454 697L454 698L454 699L454 700L454 701L454 702L454 703L454 704L454 705L454 706L454 707L454 708L454 709L454 710L454 711L454 712L454 713L454 714L454 715L454 716L454 717L454 718L454 719L454 720L454 721L454 722L454 723L454 724L454 725L454 726L454 727L454 728L454 729L454 730L454 731L454 732L454 733L454 734L454 735L454 736L454 737L454 738L454 739L454 740L454 741L454 742L454 743L454 744L454 745L454 746L454 747L454 748L454 749L454 750L454 751L454 752L454 753L454 754L454 755L454 756L454 757L454 758L454 759L454 760L454 761L454 762L454 763L454 764L454 765L454 769L456 769L456 767L456 763L456 762L456 761L456 760L456 759L456 758L456 757L456 756L456 755L456 754L456 753L456 752L456 751L456 750L456 749L456 748L456 747L456 746L456 745L456 744L456 743L456 742L456 741L456 740L456 739L456 738L456 737L456 736L456 735L456 734L456 733L456 732L456 731L456 730L456 729L456 728L456 722L455 722L455 719L455 715L455 714L455 713L455 712L455 711L455 710L455 709L455 708L455 707L455 706L455 705L455 704L455 703L455 702L455 701L455 700L455 699L455 698L455 697L455 696L455 695L455 694L455 693L455 692L455 691L455 690L455 689L455 688L455 687L455 686L455 685L455 684L455 683L455 682L455 681L455 680L455 676L459 676L460 676L461 676L462 676L463 676L464 676L465 676L466 676L467 676L468 676L469 676L470 676L471 676L472 676L473 676L474 676L475 676L476 676L477 676L478 676L479 676L480 676L481 676L482 676L483 676L484 676L485 676L486 676L487 676L488 676L489 676L490 676L491 676L492 676L493 676L494 676L495 676L496 676L497 676L498 676L499 676L500 676L501 676L502 676L503 676L504 676L505 676L506 676L507 676L508 676L509 676L510 676L511 676L512 676L513 676L514 676L515 676L516 676L517 676L518 676L519 676L520 676L521 676L522 676L523 676L524 676L525 676L526 676L527 676L528 676L529 676L530 676L531 676L532 676L533 676L534 676L535 676L536 676L537 676L538 676L539 676L540 676L541 676L542 676L543 676L544 676L545 676L546 676L547 676L548 676L549 676L550 676L551 676L552 676L553 676L554 676L555 676L556 676L557 676L558 676L559 676L560 676L561 676L562 676L563 676L564 676L565 676L566 676L571 676L570 672L569 672L569 670L568 670L568 668L567 668L567 666L565 665L565 663L564 663L564 661L563 661L563 659L562 659L561 655L559 654L559 652L558 652L558 650L557 650L557 648L556 648L555 644L553 643L553 641L552 641L552 639L551 639L551 637L550 637L547 631L543 631L542 631L541 631L540 631L539 631L538 631L537 631L536 631L535 631L534 631L533 631L532 631L531 631L530 631L529 631L528 631L527 631L526 631L525 631L524 631L523 631L522 631L521 631L520 631L519 631L518 631L517 631L516 631L515 631L514 631L513 631L512 631L511 631L510 631L509 631L508 631L507 631L506 631L505 631L504 631L503 631L502 631L501 631L500 631L499 631L498 631L497 631L496 631L495 631L494 631L493 631L492 631L491 631L490 631L489 631L488 631L487 631L486 631L485 631L484 631L483 631L482 631L481 631L480 631L479 631L478 631L477 631L476 631L475 631L474 631L473 631L472 631L471 631L470 631L469 631L468 631L467 631L466 631L465 631L464 631L463 631L462 631L461 631L460 631L456 631L456 627L456 626L456 625L456 624L456 623L456 622L456 621L456 620L456 619L456 618L456 617L456 616L456 615L456 614L456 613L456 612L456 611L456 610L456 609L456 608L456 604L455 604L455 601L455 597L455 596L455 595L455 594L455 593L455 592L455 591L455 590L455 589L455 588L455 587L455 586L455 585L455 584L455 583L455 582L455 578L456 578L456 575L456 571L456 570L456 569L456 568L456 567L456 566L456 565L456 564L456 559L455 559L455 556L455 552L455 551L455 550L455 549L455 548L455 547L455 546L455 545L455 541L456 541L456 538L456 528L455 528L455 525L455 515L456 515L456 512L456 505L455 505L455 502L455 499L455 496L456 496L456 489L455 489L455 483L456 483L456 478L455 478L455 474L456 474L455 470L455 467L456 467L455 460L456 457L455 454L455 444L456 444L456 441L456 437L456 436L456 435L456 434L456 433L456 432L456 431L456 430L456 429L456 428L456 427L456 426L456 425L456 424L456 423L456 422L456 421L456 420L456 419L456 418L456 417L456 416L456 415L456 414L456 413L456 412L456 411L456 410L456 409L456 408L456 407L456 406L456 405L456 404L456 403L456 402L456 401L456 400L456 399L456 398L456 397L456 396L456 395L456 394L456 393L456 392L456 391L456 390L456 389L456 388L456 387L456 386L456 385L456 384L456 383L456 382L456 381L456 380L456 379L456 378L456 377L456 376L456 375L456 374L456 373L456 372L456 371L456 370L456 369L456 368L456 367L456 366L456 365L456 364L456 363L456 362L456 361L456 360L456 359L456 358L456 357L456 356L456 355L456 354L456 353L456 352L456 351L456 350L456 349L456 348L456 347L456 346L456 345L456 344L456 343L456 342L456 341L456 340L456 339L456 338L456 337L456 336L456 335L456 334L456 333L456 332L456 331L456 330L456 329L456 328L456 327L456 326L456 325L456 324L456 323L456 322L456 321L456 320L456 319L456 318L456 314L460 314L461 314L462 314L463 314L464 314L465 314L466 314L467 314L468 314L469 314L470 314L471 314L472 314L473 314L474 314L475 314L476 314L477 314L478 314L479 314L480 314L481 314L482 314L483 314L484 314L485 314L486 314L487 314L488 314L489 314L490 314L491 314L492 314L493 314L494 314L495 314L496 314L497 314L498 314L499 314L500 314L501 314L502 314L503 314L504 314L505 314L506 314L507 314L508 314L509 314L510 314L511 314L512 314L513 314L514 314L515 314L516 314L517 314L518 314L519 314L520 314L521 314L522 314L523 314L524 314L525 314L526 314L527 314L528 314L529 314L530 314L531 314L532 314L533 314L534 314L535 314L536 314L537 314L538 314L539 314L540 314L541 314L542 314L543 314L544 314L545 314L546 314L547 314L548 314L549 314L550 314L551 314L552 314L553 314L554 314L555 314L556 314L557 314L558 314L559 314L560 314L561 314L562 314L563 314L564 314L565 314L566 314L567 314L568 314L569 314L570 314L571 314L572 314L573 314L574 314L575 314L576 314L577 314L578 314L579 314L586 314L588 312L588 311L589 311L589 310L590 310L590 309L591 309L591 308L592 308L592 307L593 307L593 306L594 306L594 305L595 305L595 304L596 304L596 303L597 303L597 302L598 302L598 301L599 301L599 300L600 300L600 299L601 299L601 298L602 298L602 297L603 297L603 296L604 296L604 295L605 295L605 294L606 294L606 293L607 293L607 292L608 292L608 291L609 291L609 290L610 290L610 289L611 289L611 288L612 288L612 287L613 287L613 286L614 286L614 285L615 285L615 284L616 284L616 283L617 283L617 282L618 282L618 281L619 281L619 280L620 280L620 279L621 279L621 278L622 278L622 277L623 277L623 276L624 276L624 275L625 275L625 274L626 274L626 273L627 273L627 272L628 272L628 271L629 271L629 270L630 270L630 269L631 269L631 268L634 266L634 262L634 261L634 260L634 259L634 258L634 257L634 256L634 255L633 251M548 252L549 253L548 252M514.333 253.667L514.667 254.333L514.333 253.667M582 253L581 255L582 253M497 254L497 257L498 257L498 256L498 255L497 254M547 254L548 255L547 254M598 254L596 257L598 254M487 255L487 259L488 259L487 255M527 255L526 259L527 259L527 255M567 255L565 259L566 259L567 255M607 255L604 259L607 255M480 256L480 261L481 261L480 256M513.333 256.667L513.667 257.333L513.333 256.667M546 256L547 257L546 256M580 256L579 258L580 256M613 256L609 261L613 256M477 257L477 263L478 263L477 257M503 257L503 260L504 260L504 259L504 258L503 257M533 257L531 263L532 263L533 257M559 257L558 260L557 260L557 262L556 263L557 263L558 260L559 260L559 258C560.397 257.302 560.396 257.698 559 257M589 257L587 260L589 257M615 257L613 259L613 260L612 260L612 261L610 263L612 261L613 261L613 260L614 260L615 257M473 258L473 264L474 264L473 258M496 258L496 261L497 261L497 260L497 259L496 258M523 258L522 262L523 262L523 258M545 258L546 259L545 258M568 258L566 262L567 262L568 258M595 258L593 261L595 258M618 258L616 260L616 261L615 261L615 262L613 264L615 262L616 262L616 261L617 261L618 258M470 259L470 266L471 266L470 259M493 259L493 262L494 262L494 261L494 260L493 259M512.333 259.667L512.667 260.333L512.333 259.667M535 259L536 260L535 259M555 259L556 260L555 259M578 259L577 261L578 259M597 259L595 262L597 259M620 259L618 261L618 262L617 262L617 263L614 266L616 264L617 264L617 263L618 263L620 259M486 260L486 264L487 264L486 260M506 260L505 266L506 266L506 260M525 260L524 264L525 264L525 260M544 260L545 261L544 260M564 260L562 264L563 264L564 260M583 260L581 262L581 264L579 266L582 264L582 262L583 260M603 260L600 264L603 260M467 261L467 269L468 269L467 261M483 261L483 266L484 266L483 261M502.333 261.667L502.667 262.333L502.333 261.667M518.333 261.667L518.667 262.333L518.333 261.667M534 261L532 267L533 267L534 261M554 261L553 264L552 264L552 266L551 267L552 267L553 264L554 264L554 262C555.396 261.302 555.396 261.698 554 261M570 261L569 263L570 261M586 261L585 263L586 261M605 261L601 266L605 261M621 261L619 263L619 264L618 264L618 265L617 265L617 266L616 266L616 267L614 269L616 267L617 267L617 266L618 266L618 265L619 265L619 264L620 264L621 261M495 262L495 265L496 265L496 264L496 263L495 262M511.333 262.667L511.667 263.333L511.333 262.667M527 262L526 266L527 266L527 262M543 262L544 263L543 262M560 262L558 266L559 266L560 262M576 262L575 264L576 262M592 262L590 265L592 262M479 263L479 267L480 267L479 263M492 263L492 266L493 266L493 265L493 264L492 263M508.333 263.667L508.667 264.333L508.333 263.667M521.333 263.667L521.667 264.333L521.333 263.667M537 263L538 264L537 263M549 263L550 264L549 263M565 263L564 265L565 263M578 263L577 265L578 263M594 263L592 266L594 263M607 263L604 267L607 263M463 264L463 273L464 273L464 270L464 267L463 264M476 264L476 269L477 269L476 264M488 264L488 268L489 268L488 264M501 264L501 267L502 267L502 266L502 265L501 264M517 264L516 268L517 268L517 264M530 264L531 265L530 264M542 264L543 265L542 264M555 264L556 265L555 264M568 264L566 268L567 268L568 264M584 264L582 267L584 264M597 264L594 268L597 264M609 264L605 269L609 264M498 265L498 268L499 268L499 267L499 266L498 265M510.333 265.667L510.667 266.333L510.333 265.667M523 265L522 269L523 269L523 265M536 265L537 266L536 265M548 265L549 266L548 265M561 265L559 269L560 269L561 265M574 265L573 267L574 265M586 265L584 268L586 265M472 266L472 272L473 272L472 266M485 266L485 269L486 269L486 268L486 267L485 266M494 266L494 269L495 269L495 268L495 267L494 266M507.333 266.667L507.667 267.333L507.333 266.667M520 266L521 267L520 266M529 266L528 270L529 270L529 266M541 266L542 267L541 266M554 266L552 270L553 270L554 266M563 266L564 267L563 266M576 266L575 268L576 266M589 266L587 269L589 266M598 266L596 269L598 266M611 266L609 268L609 269L608 269L608 270L606 272L608 270L609 270L609 269L610 269L611 266M482 267L482 271L483 271L482 267M504.333 267.667L504.667 268.333L504.333 267.667M513.333 267.667L513.667 268.333L513.333 267.667M525 267L526 268L525 267M535 267L536 268L535 267M547 267L548 268L547 267M557 267L558 268L557 267M569 267L568 269L569 267M578 267L577 269L578 267M600 267L597 271L600 267M491 268L491 271L492 271L492 270L492 269L491 268M500.333 268.667L500.667 269.333L500.333 268.667M509.333 268.667L509.667 269.333L509.333 268.667M519.333 268.667L519.667 269.333L519.333 268.667M531 268L532 269L531 268M540 268L541 269L540 268M550 268L551 269L550 268M562 268L561 270L562 268M572 268L571 270L572 268M581 268L580 270L581 268M590 268L588 271L590 268M460 269L460 279L461 279L461 276L460 269M469 269L469 275L470 275L469 269M478 269L478 273L479 273L478 269M487 269L487 272L488 272L488 271L488 270L487 269M497 269L497 272L498 272L498 271L498 270L497 269M506.333 269.667L506.667 270.333L506.333 269.667M515.333 269.667L515.667 270.333L515.333 269.667M524.333 269.667L524.667 270.333L524.333 269.667M534 269L533 273L534 273L534 269M546 269L544 273L545 273L546 269M556 269L555 271L556 269M565 269L564 271L565 269M574 269L573 271L574 269M583 269L581 272L583 269M593 269L591 272L593 269M602 269L599 273L602 269M611 269L609 271L609 272L608 272L608 273L606 275L608 273L609 273L609 272L610 272L611 269M503.333 270.667L503.667 271.333L503.333 270.667M512.333 270.667L512.667 271.333L512.333 270.667M521.333 270.667L521.667 271.333L521.333 270.667M530 270L531 271L530 270M539 270L540 271L539 270M549 270L550 271L549 270M558 270L557 272L558 270M567 270L566 272L567 270M576 270L575 272L576 270M484 271L484 274L485 274L485 273L485 272L484 271M493.333 271.667L493.667 272.333L493.333 271.667M508.333 271.667L508.667 272.333L508.333 271.667M518.333 271.667L518.667 272.333L518.333 271.667M527 271L528 272L527 271M536 271L537 272L536 271M542 271L543 272L542 271M551 271L552 272L551 271M560 271L559 273L560 271M570 271L569 273L570 271M585 271L584 273L585 271M594 271L592 274L594 271M475 272L475 276L476 276L475 272M490 272L490 275L491 275L491 274L491 273L490 272M499.333 272.667L499.667 273.333L499.333 272.667M505.333 272.667L505.667 273.333L505.333 272.667M514.333 272.667L514.667 273.333L514.333 272.667M523 272L524 273L523 272M529 272L528 276L529 276L529 272M538 272L539 273L538 272M548 272L546 276L547 276L548 272M554 272L555 273L554 272M563 272L562 274L563 272M572 272L571 274L572 272M578 272L577 274L578 272M587 272L585 275L587 272M602 272L599 276L602 272M466 273L466 279L467 279L466 273M481 273L481 276L482 276L482 275L482 274L481 273M496.333 273.667L496.667 274.333L496.333 273.667M511.333 273.667L511.667 274.333L511.333 273.667M520 273L521 274L520 273M526 273L527 274L526 273M535 273L536 274L535 273M541 273L542 274L541 273M550 273L551 274L550 273M556 273L557 274L556 273M565 273L564 275L565 273M580 273L579 275L580 273M595 273L593 276L595 273M610 273L608 275L608 276L607 276L607 277L605 279L607 277L608 277L608 276L609 276L610 273M486 274L486 277L487 277L487 276L487 275L486 274M502.333 274.667L502.667 275.333L502.333 274.667M507.333 274.667L507.667 275.333L507.333 274.667M517 274L518 275L517 274M522 274L523 275L522 274M532 274L533 275L532 274M537 274L538 275L537 274M543 274L544 275L543 274M553 274L554 275L553 274M558 274L559 275L558 274M568 274L567 276L568 274M573 274L572 276L573 274M589 274L587 277L589 274M471 275L471 279L472 279L471 275M492.333 275.667L492.667 276.333L492.333 275.667M498.333 275.667L498.667 276.333L498.333 275.667M513 275L514 276L513 275M519.333 275.667L519.667 276.333L519.333 275.667M525.333 275.667L525.667 276.333L525.333 275.667M534 275L535 276L534 275M540 275L541 276L540 275M549 275L548 277L549 275M555 275L554 277L555 275M561 275L562 276L561 275M576 275L575 277L576 275M582 275L581 277L582 275M603 275L600 279L603 275M477 276L477 279L478 279L478 278L478 277L477 276M483 276L483 279L484 279L484 278L484 277L483 276M504 276L505 277L504 276M510.333 276.667L510.667 277.333L510.333 276.667M516.333 276.667L516.667 277.333L516.333 276.667M531 276L532 277L531 276M536 276L537 277L536 276M542 276L543 277L542 276M557 276L556 278L557 276M563 276L562 278L563 276M569 276L570 277L569 276M590 276L588 279L590 276M596 276L594 279L596 276M489.333 277.667L489.667 278.333L489.333 277.667M495.333 277.667L495.667 278.333L495.333 277.667M501.333 277.667L501.667 278.333L501.333 277.667M506.333 277.667L506.667 278.333L506.333 277.667M521 277L522 278L521 277M527 277L528 278L527 277M533 277L534 278L533 277M539 277L540 278L539 277M545 277L546 278L545 277M551 277L552 278L551 277M566 277L565 279L566 277M571 277L570 279L571 277M577 277L576 279L577 277M583 277L582 279L583 277M512 278L513 279L512 278M518 278L519 279L518 278M524 278L525 279L524 278M530 278L531 279L530 278M535 278L536 279L535 278M541 278L542 279L541 278M547 278L548 279L547 278M553 278L554 279L553 278M559 278L560 279L559 278M456 279L456 289L457 289L457 286L456 279M462 279L462 285L463 285L462 279M468 279L468 283L469 283L468 279M474 279L474 282L475 282L475 281L475 280L474 279M480 279L480 282L481 282L481 281L481 280L480 279M485.333 279.667L485.667 280.333L485.333 279.667M491.333 279.667L491.667 280.333L491.333 279.667M497.333 279.667L497.667 280.333L497.333 279.667M503.333 279.667L503.667 280.333L503.333 279.667M509 279L510 280L509 279M515 279L516 280L515 279M520 279L521 280L520 279M526 279L527 280L526 279M532 279L533 280L532 279M538 279L539 280L538 279M544 279L545 280L544 279M550 279L551 280L550 279M555 279L556 280L555 279M561 279L562 280L561 279M567 279L566 281L567 279M573 279L572 281L573 279M579 279L578 281L579 279M585 279L584 281L585 279M590 279L588 282L590 279M596 279L594 282L596 279M602 279L599 283L602 279M511.333 280.667L511.667 281.333L511.333 280.667M517 280L518 281L517 280M523 280L524 281L523 280M529 280L530 281L529 280M534 280L535 281L534 280M540 280L541 281L540 280M546 280L547 281L546 280M552 280L553 281L552 280M558 280L557 282L558 280M488.333 281.667L488.667 282.333L488.333 281.667M494.333 281.667L494.667 282.333L494.333 281.667M500 281L501 282L500 281M505 281L506 282L505 281M519.333 281.667L519.667 282.333L519.333 281.667M525 281L526 282L525 281M531 281L532 282L531 281M537 281L538 282L537 281M543 281L544 282L543 281M549 281L548 283L549 281M563 281L564 282L563 281M568 281L569 282L568 281M574 281L573 283L574 281M580 281L579 283L580 281M476 282L476 285L477 285L477 284L477 283L476 282M482.333 282.667L482.667 283.333L482.333 282.667M502.333 282.667L502.667 283.333L502.333 282.667M508 282L509 283L508 282M514 282L515 283L514 282M528 282L529 283L528 282M533 282L534 283L533 282M539 282L540 283L539 282M553 282L554 283L553 282M559 282L560 283L559 282M565 282L564 284L565 282M585 282L584 284L585 282M591 282L589 285L591 282M470 283L470 286L471 286L471 285L471 284L470 283M490.333 283.667L490.667 284.333L490.333 283.667M496 283L497 284L496 283M510 283L511 284L510 283M516 283L517 284L516 283M522 283L523 284L522 283M530 283L531 284L530 283M536 283L537 284L536 283M544 283L545 284L544 283M550 283L551 284L550 283M556 283L557 284L556 283M570 283L571 284L570 283M576 283L575 285L576 283M596 283L594 286L596 283M484.333 284.667L484.667 285.333L484.333 284.667M499.333 284.667L499.667 285.333L499.333 284.667M504 284L505 285L504 284M513 284L514 285L513 284M518 284L519 285L518 284M527 284L528 285L527 284M532 284L533 285L532 284M538 284L539 285L538 284M547 284L548 285L547 284M552 284L553 285L552 284M561 284L562 285L561 284M566 284L565 286L566 284M581 284L580 286L581 284M465 285L465 289L466 289L465 285M479.333 285.667L479.667 286.333L479.333 285.667M493 285L494 286L493 285M507 285L508 286L507 285M515 285L516 286L515 285M521 285L522 286L521 285M529 285L530 286L529 285M535 285L536 286L535 285M543 285L544 286L543 285M549 285L550 286L549 285M557 285L558 286L557 285M571 285L572 286L571 285M585 285L584 287L585 285M599 285L596 289L599 285M473 286L473 289L474 289L474 288L474 287L473 286M487 286L488 287L487 286M495.333 286.667L495.667 287.333L495.333 286.667M501 286L502 287L501 286M509 286L510 287L509 286M517 286L518 287L517 286M523 286L524 287L523 286M531 286L532 287L531 286M540 286L541 287L540 286M546 286L547 287L546 286M554 286L555 287L554 286M562 286L563 287L562 286M568 286L567 288L568 286M576 286L577 287L576 286M590 286L588 289L590 286M481.333 287.667L481.667 288.333L481.333 287.667M489.333 287.667L489.667 288.333L489.333 287.667M503 287L504 288L503 287M512 287L513 288L512 287M520 287L521 288L520 287M528 287L529 288L528 287M534 287L535 288L534 287M542 287L543 288L542 287M550 287L551 288L550 287M559 287L560 288L559 287M573 287L572 289L573 287M581 287L580 289L581 287M498 288L499 289L498 288M506 288L507 289L506 288M514 288L515 289L514 288M522 288L523 289L522 288M530 288L531 289L530 288M539 288L540 289L539 288M547 288L548 289L547 288M555 288L556 289L555 288M563 288L564 289L563 288M459 289L459 294L460 294L459 289M467 289L467 292L468 292L468 291L468 290L467 289M475.333 289.667L475.667 290.333L475.333 289.667M483 289L484 290L483 289M492 289L493 290L492 289M500 289L501 290L500 289M508 289L509 290L508 289M516 289L517 290L516 289M525 289L526 290L525 289M535 289L536 290L535 289M544 289L545 290L544 289M552 289L553 290L552 289M560 289L561 290L560 289M568 289L569 290L568 289M577 289L578 290L577 289M585 289L584 291L585 289M593 289L591 292L593 289M428 290L428 296L429 296L428 290M486.333 290.667L486.667 291.333L486.333 290.667M494 290L495 291L494 290M502 290L503 291L502 290M511 290L512 291L511 290M521 290L522 291L521 290M529 290L530 291L529 290M538 290L539 291L538 290M548 290L549 291L548 290M557 290L558 291L557 290M565 290L566 291L565 290M573 290L572 292L573 290M431 291L431 298L432 298L431 291M478 291L479 292L478 291M497 291L498 292L497 291M505 291L506 292L505 291M515 291L516 292L515 291M524 291L525 292L524 291M534 291L535 292L534 291M543 291L544 292L543 291M553 291L554 292L553 291M561 291L562 292L561 291M580 291L581 292L580 291M469.333 292.667L469.667 293.333L469.333 292.667M480.333 292.667L480.667 293.333L480.333 292.667M488 292L489 293L488 292M499 292L500 293L499 292M510 292L511 293L510 292M518 292L519 293L518 292M528 292L529 293L528 292M539 292L540 293L539 292M547 292L548 293L547 292M558 292L559 293L558 292M569 292L570 293L569 292M577 292L576 294L577 292M588 292L587 294L588 292M491 293L492 294L491 293M501 293L502 294L501 293M512 293L513 294L512 293M523 293L524 294L523 293M533 293L534 294L533 293M544 293L545 294L544 293M555 293L556 294L555 293M565 293L566 294L565 293M620 293L618 295L618 296L617 296L617 297L616 297L616 298L615 298L615 299L613 301L615 299L616 299L616 298L617 298L617 297L618 297L618 296L619 296L620 293M434 294L434 301L435 301L434 294M461 294L461 297L462 297L462 296L462 295L461 294M472 294L473 295L472 294M482 294L483 295L482 294M493 294L494 295L493 294M506 294L507 295L506 294M517 294L518 295L517 294M527 294L528 295L527 294M538 294L539 295L538 294M549 294L550 295L549 294M562 294L563 295L562 294M573 294L574 295L573 294M583 294L584 295L583 294M623 294L621 296L621 297L620 297L620 298L619 298L619 299L618 299L618 300L616 302L618 300L619 300L619 299L620 299L620 298L621 298L621 297L622 297L623 294M474.333 295.667L474.667 296.333L474.333 295.667M485 295L486 296L485 295M498 295L499 296L498 295M509 295L510 296L509 295M522 295L523 296L522 295M532 295L533 296L532 295M545 295L546 296L545 295M556 295L557 296L556 295M569 295L570 296L569 295M580 295L579 297L580 295M615 295L613 297L613 298L612 298L612 299L611 299L611 300L610 300L610 301L607 304L609 302L610 302L610 301L611 301L611 300L612 300L612 299L613 299L615 295M487 296L488 297L487 296M500 296L501 297L500 296M513 296L514 297L513 296M526 296L527 297L526 296M540 296L541 297L540 296M553 296L554 297L553 296M566 296L567 297L566 296M624 296L622 298L622 299L621 299L621 300L619 302L621 300L622 300L622 299L623 299L624 296M464.333 297.667L464.667 298.333L464.333 297.667M477 297L478 298L477 297M492 297L493 298L492 297M505 297L506 298L505 297M518 297L519 298L518 297M534 297L535 298L534 297M547 297L548 298L547 297M560 297L561 298L560 297M575 297L576 298L575 297M588 297L587 299L588 297M626 297L624 299L624 300L623 300L623 301L621 303L623 301L624 301L624 300L625 300L626 297M429 298L429 303L430 303L429 298M438 298L438 306L439 306L438 298M479 298L480 299L479 298M495 298L496 299L495 298M510 298L511 299L510 298M525 298L526 299L525 298M541 298L542 299L541 298M556 298L557 299L556 298M572 298L573 299L572 298M466 299L467 300L466 299M484 299L485 300L484 299M499 299L500 300L499 299M517 299L518 300L517 299M533 299L534 300L533 299M551 299L552 300L551 299M566 299L567 300L566 299M584 299L585 300L584 299M468 300L469 301L468 300M486 300L487 301L486 300M507 300L508 301L507 300M524 300L525 301L524 300M542 300L543 301L542 300M563 300L564 301L563 300M581 300L582 301L581 300M606 300L604 302L604 303L603 303L603 304L602 304L602 305L601 305L601 306L598 309L600 307L601 307L601 306L602 306L602 305L603 305L603 304L604 304L606 300M432 301L432 306L433 306L432 301M471 301L472 302L471 301M491 301L492 302L491 301M514 301L515 302L514 301M534 301L535 302L534 301M557 301L558 302L557 301M577 301L578 302L577 301M473 302L474 303L473 302M498 302L499 303L498 302M523 302L524 303L523 302M549 302L550 303L549 302M574 302L575 303L574 302M478 303L479 304L478 303M508 303L509 304L508 303M538 303L539 304L538 303M568 303L569 304L568 303M627 303L624 307L627 303M485 304L486 305L485 304M522 304L523 305L522 304M560 304L561 305L560 304M612 304L610 306L610 307L609 307L609 308L607 310L609 308L610 308L610 307L611 307L612 304M615 304L611 309L615 304M618 304L614 309L618 304M497 305L498 306L497 305M547 305L548 306L547 305M430 306L430 310L431 310L430 306M435 306L435 311L436 311L435 306M441 306L441 315L442 315L442 312L442 309L441 306M521 306L522 307L521 306M606 306L602 311L606 306M620 306L616 311L620 306M628 306L625 310L628 306M445 308L445 314L446 314L445 308M448 308L448 314L450 314L450 308L448 308M452 308L452 314L453 314L452 308M621 308L618 312L621 308M623 310L620 314L623 310M433 311L433 315L434 315L433 311M610 311L608 314L610 311M597 312L596 314L597 312M606 312L605 314L606 312M613 312L612 314L613 312M615 313L616 314L615 313M380 315L380 319L380 320L380 321L380 322L380 323L380 324L380 325L380 326L380 327L380 328L380 329L380 330L380 331L380 332L380 333L380 334L380 335L380 336L380 337L380 338L380 339L380 340L380 341L380 342L380 343L380 344L380 345L380 346L380 347L380 348L380 349L380 350L380 351L380 352L380 353L380 354L380 355L380 356L380 357L380 358L380 359L380 360L380 361L380 362L380 363L380 364L380 365L380 366L380 367L380 368L380 369L380 370L380 371L380 372L380 373L380 374L380 375L380 376L380 377L380 378L380 382L383 384L383 380L383 379L383 378L383 377L383 376L383 375L383 374L383 373L383 372L383 371L383 370L383 369L383 368L383 367L383 366L383 365L383 364L383 363L383 362L383 361L383 360L383 359L383 358L383 357L383 356L383 355L383 354L383 353L383 352L383 351L383 350L383 349L383 348L383 347L383 346L383 345L383 344L383 343L383 342L383 341L383 340L383 339L383 338L383 337L383 336L383 335L383 334L383 333L383 332L383 331L383 330L383 329L383 328L383 327L383 326L383 325L383 319L380 315M431.333 315.667L431.667 316.333L431.333 315.667M439 315L439 319L440 319L439 315M384 316L384 320L384 321L384 322L384 323L384 324L384 325L384 326L384 327L384 328L384 329L384 330L384 331L384 332L384 333L384 334L384 335L384 336L384 337L384 338L384 339L384 340L384 341L384 342L384 343L384 344L384 345L384 346L384 347L384 348L384 349L384 350L384 351L384 352L384 353L384 354L384 355L384 356L384 357L384 358L384 359L384 360L384 361L384 362L384 363L384 364L384 365L384 366L384 367L384 368L384 369L384 370L384 371L384 372L384 373L384 374L384 375L384 376L384 377L384 378L384 379L384 386L387 388L387 384L387 383L387 382L387 381L387 380L387 379L387 378L387 377L387 376L387 375L387 374L387 373L387 372L387 371L387 370L387 369L387 368L387 367L387 366L387 365L387 364L387 363L387 362L387 361L387 360L387 359L387 358L387 357L387 356L387 355L387 354L387 353L387 352L387 351L387 350L387 349L387 348L387 347L387 346L387 345L387 344L387 343L387 342L387 341L387 340L387 339L387 338L387 337L387 336L387 335L387 334L387 333L387 332L387 331L387 330L387 329L387 328L387 327L387 326L387 325L387 320L384 316M388 316L388 320L388 321L388 322L388 323L388 324L388 325L388 326L388 327L388 328L388 329L388 330L388 331L388 332L388 333L388 334L388 335L388 336L388 337L388 338L388 339L388 340L388 341L388 342L388 343L388 344L388 345L388 346L388 347L388 348L388 349L388 350L388 351L388 352L388 353L388 354L388 355L388 356L388 357L388 358L388 359L388 360L388 361L388 362L388 363L388 364L388 365L388 366L388 367L388 368L388 369L388 370L388 371L388 372L388 373L388 374L388 375L388 376L388 377L388 378L388 379L388 380L388 381L388 382L388 383L388 389L391 391L391 387L391 386L391 385L391 384L391 383L391 382L391 381L391 380L391 379L391 378L391 377L391 376L391 375L391 374L391 373L391 372L391 371L391 370L391 369L391 368L391 367L391 366L391 365L391 364L391 363L391 362L391 361L391 360L391 359L391 358L391 357L391 356L391 355L391 354L391 353L391 352L391 351L391 350L391 349L391 348L391 347L391 346L391 345L391 344L391 343L391 342L391 341L391 340L391 339L391 338L391 337L391 336L391 335L391 334L391 333L391 332L391 331L391 330L391 329L391 328L391 327L391 326L391 325L391 324L391 320L388 316M404.333 317.667L404.667 318.333L404.333 317.667M417 317L417 321L418 321L418 325L419 325L419 329L420 329L420 333L421 333L421 337L422 337L422 341L423 341L423 345L424 345L424 349L425 349L425 353L424 353L424 349L423 349L423 345L422 345L422 341L421 341L421 337L420 337L420 333L419 333L419 329L418 329L418 325L417 325L417 321L416 321L417 317M421 318L421 322L422 322L422 327L423 327L423 331L424 331L424 336L425 336L425 340L426 340L426 345L427 345L427 349L428 349L428 353L427 353L427 349L426 349L426 345L425 345L425 340L424 340L424 336L423 336L423 331L422 331L422 327L421 327L421 322L420 322L421 318M398 319L399 323L400 323L398 319M425 319L425 325L426 325L426 331L427 331L427 336L428 336L428 342L429 342L429 348L430 348L430 353L429 353L429 348L428 348L428 342L427 342L427 336L426 336L426 331L425 331L425 325L424 325L425 319M436.333 319.667L436.667 320.333L436.333 319.667M405.333 320.667L405.667 321.333L405.333 320.667M434.333 321.667L434.667 322.333L434.333 321.667M402.333 322.667L402.667 323.333L402.333 322.667M406.333 323.667L406.667 324.333L406.333 323.667M432 323L433 324L432 323M400.333 324.667L400.667 325.333L400.333 324.667M403.333 325.667L403.667 326.333L403.333 325.667M407.333 326.667L407.667 327.333L407.333 326.667M401 327L402 328L401 327M410.333 327.667L410.667 328.333L410.333 327.667M404 328L405 329L404 328M402.333 329.667L402.667 330.333L402.333 329.667M408.333 329.667L408.667 330.333L408.333 329.667M411.333 330.667L411.667 331.333L411.333 330.667M405 331L406 332L405 331M403 332L404 333L403 332M409 332L410 333L409 332M406.333 333.667L406.667 334.333L406.333 333.667M412.333 333.667L412.667 334.333L412.333 333.667M404 335L405 336L404 335M410 335L411 336L410 335M407 336L408 337L407 336M405 337L406 338L405 337M413 337L414 338L413 337M411 338L412 339L411 338M408 339L409 340L408 339M406 340L407 341L406 340M414 340L415 341L414 340M412 341L413 342L412 341M409 342L410 343L409 342M415 343L416 344L415 343M413 344L414 345L413 344M408 345L409 346L408 345M414 347L415 348L414 347M415 350L416 351L415 350M380 395L383 398L380 395M380 402L382 404L380 402M382 406L383 407L382 406M397 408L400 411L397 408M400 408L403 411L400 408M396 411L398 413L396 411M395 413L397 415L395 413M403 413L404 414L403 413M400 414L402 416L400 414M381 415L382 416L381 415M398 415L400 417L398 415M397 417L399 419L397 417M404 417L405 418L404 417M402 418L403 419L402 418M382 419L383 420L382 419M386 419L387 420L386 419M400 419L401 420L400 419M405 420L406 421L405 420M403 421L404 422L403 421M380.667 422.333L381.333 422.667L380.667 422.333M390 422L391 423L390 422M394 422L395 423L394 422M399 422L400 423L399 422M396 423L397 424L396 423M401 423L402 424L401 423M398 424L399 425L398 424M400 425L401 426L400 425M382 426L383 427L382 426M402 426L403 427L402 426M404 427L405 428L404 427M399 428L400 429L399 428M406 428L407 429L406 428M381 429L382 430L381 429M401 429L402 430L401 429M397.667 430.333L398.333 430.667L397.667 430.333M400 431L401 432L400 431M382 432L383 433L382 432M395.667 432.333L396.333 432.667L395.667 432.333M403 432L404 433L403 432M398.667 433.333L399.333 433.667L398.667 433.333M402 434L403 435L402 434M405 435L406 436L405 435M380.667 436.333L381.333 436.667L380.667 436.333M388 436L388 437L389 437L390 437L391 437L391 436L390 436L388 436M396.667 436.333L397.333 436.667L396.667 436.333M400.667 437.333L401.333 437.667L400.667 437.333M404 438L405 439L404 438M381.667 439.333L382.333 439.667L381.667 439.333M390 439L391 440L390 439M397 439L397 440L398 440L399 440L400 440L400 439L399 439L397 439M403 440L404 441L403 440M393 443L393 444L397 444L397 443L393 443M381.667 458.333L382.333 458.667L381.667 458.333M385.667 460.333L386.333 460.667L385.667 460.333M381.667 464.333L382.333 464.667L381.667 464.333M388 465L389 466L388 465M385 468L386 469L385 468M381.667 469.333L382.333 469.667L381.667 469.333M389 470L390 471L389 470M386 471L387 472L386 471M384 474L385 475L384 474M381 475L382 476L381 475M385 477L386 478L385 477M382 478L383 479L382 478M380 479L381 480L380 479M390 479L391 480L390 479M388 480L389 481L388 480M381 481L382 482L381 481M386 481L387 482L386 481M384 482L385 483L384 482M382 483L383 484L382 483M380 484L381 485L380 484M381 487L382 488L381 487M385 487L386 488L385 487M382 489L383 490L382 489M380 490L381 491L380 490M389 490L390 491L389 490M384 491L385 492L384 491M386 492L387 493L386 492M381 493L382 494L381 493M380 496L381 497L380 496M385 496L386 497L385 496M388 496L389 497L388 496M382 498L381 500L382 498M384 499L385 500L384 499M380 502L381 503L380 502M382 503L381 505L382 503M386 503L385 505L386 503M402 506L400 508L402 506M384 507L385 508L384 507M380 508L381 509L380 508M382 509L381 511L382 509M402 513L400 515L402 513M405 513L403 515L405 513M390 517L388 520L389 522L388 523L391 521L390 517M398 518L397 520L398 518M390 520L389 521L390 520M399 521L400 522L399 521M386 522L384 525L384 528L387 526L386 522M395 522L394 524L395 522M397 524L398 525L397 524M386 525L385 526L386 525M395 525L396 526L395 525M392 526L393 527L392 526M382 527L380 531C382.649 530.432 383.355 529.412 382 527M390 527L391 528L390 527M395 527L394 529L395 527M388 528L389 529L388 528M390 529L389 531L390 529M394 530L395 531L394 530M392 531L393 532L392 531M385 532L384 534L385 532M390 532L391 533L390 532M392 533L393 534L392 533M386 534L387 535L386 534M390 534L391 535L390 534M384 535L385 536L384 535M388 535L389 536L388 535M386 536L384 537L384 541C387.012 540.354 387.498 538.613 386 536M390 536L388 537L388 541C391.012 540.354 391.498 538.613 390 536M382 537L380 541C382.649 540.432 383.355 539.412 382 537M402 538L401 541L400 541L402 538M398 542L401 545L398 542M397 544L400 547L397 544M385 546L386 547L385 546M396 546L399 549L396 546M392 547L393 548L392 547M395 548L394 551L393 551L392 553L392 557L395 557L393 553L396 555L394 551L397 553L395 549L398 551L395 548M380 550L381 551L380 550M388 550L389 551L388 550M385 551L386 552L385 551M381 552L382 553L381 552M389 552L390 553L389 552M386 553L387 554L386 553M388 554L389 555L388 554M385 555L386 556L385 555M382 556L381 558L382 556M390 556L389 559L390 556M386 557L387 558L386 557M398 557L399 558L398 557M393 558L394 559L393 558M380 559L381 560L380 559M385 559L386 560L385 559M397 559L398 560L397 559M382 560L381 562L382 560M392 560L393 561L392 560M384 561L385 562L384 561M396 561L397 562L396 561M380 563L381 564L380 563M386 563L387 564L386 563M395 563L396 564L395 563M382 564L383 565L382 564M390 564L391 565L390 564M385 565L386 566L385 565M381 566L380 569L381 569L381 566M389 566L390 567L389 566M384 567L385 568L384 567M388 568L389 569L388 568M390 571L388 578L391 577L390 571M382 572L380 578L383 577L382 572M386 572L384 578L387 577L386 572M402 573L401 578L404 573L405 573L404 578L407 573L408 573L407 578L408 578L408 581L407 584L406 584L406 587L405 587L405 590L404 590L404 593L403 593L403 596L402 596L401 602L400 602L401 599L401 596L402 593L400 589L399 589L398 592L397 589L398 586L399 586L399 583L400 583L401 580L401 578L402 573M403 578L405 584L404 584L402 580L401 580L404 587L403 587L401 583L400 583L401 586L400 588L400 589L402 593L403 593L403 590L404 590L404 587L405 587L405 584L406 584L407 578L406 578L405 581L403 578M382 581L383 582L382 581M394 582L395 583L394 582M381 583L382 584L381 583M380 585L381 586L380 585M388 586L389 587L388 586M402 586L403 590L402 590L402 586M392 587L393 588L392 587M384 588L385 589L384 588M389 589L390 590L389 589M388 591L389 592L388 591M382 592L383 593L382 592M390 592L391 593L390 592M385 593L386 594L385 593M393 593L394 594L393 593M381 594L382 595L381 594M389 594L390 595L389 594M396 594L397 595L396 594M384 595L385 596L384 595M392 595L394 597L392 595M386 596L387 597L386 596M388 597L389 598L388 597M395 597L396 598L395 597M385 598L386 599L385 598M392 599L393 600L392 599M382 600L383 601L382 600M390 600L391 601L390 600M395 600L396 601L395 600M384 601L385 602L384 601M381 602L382 603L381 602M386 602L387 603L386 602M392 602L393 603L392 602M389 603L391 605L389 603M394 603L395 604L394 603M380 604L381 605L380 604M385 604L386 605L385 604M396 604L398 606L396 604M382 605L383 606L382 605M388 605L390 608L388 605M392 605L394 607L392 605M384.333 606.667L384.667 607.333L384.333 606.667M381.333 607.667L381.667 608.333L381.333 607.667M395 607L397 609L395 607M388 609L390 611L388 609M392 609L393 610L392 609M380 610L381 611L380 610M386.333 610.667L386.667 611.333L386.333 610.667M394 610L396 612L394 610M382.333 611.667L382.667 612.333L382.333 611.667M392 612L395 615L392 612M388 613L389 614L388 613M381 614L382 615L381 614M390 614L391 615L390 614M380.333 616.667L380.667 617.333L380.333 616.667M392 616L394 618L392 616M389 617L393 621L389 617M266 619L265 621L266 619M272 619L271 621L272 619M296 619L297 620L296 619M312 619L313 620L312 619M315 619L314 621L315 619M322 619L321 621L322 619M328 619L329 620L328 619M335 619L334 621L335 619M347 619L348 620L347 619M354 619L353 621L354 619M363 619L364 620L363 619M373.333 619.667L373.667 620.333L373.333 619.667M376.333 619.667L376.667 620.333L376.333 619.667M379 619L380 620L379 619M467 619L468 620L467 619M483 619L484 620L483 619M486.333 619.667L486.667 620.333L486.333 619.667M499 619L500 620L499 619M506.333 619.667L506.667 620.333L506.333 619.667M518 619L519 620L518 619M522.333 619.667L522.667 620.333L522.333 619.667M525.333 619.667L525.667 620.333L525.333 619.667M534 619L535 620L534 619M549 619L550 620L549 619M551 619L552 620L551 619M569 619L570 620L569 619M261 620L262 621L261 620M292 620L293 621L292 620M306 620L307 621L306 620M340 620L341 621L340 620M543 620L544 621L543 620M559 620L560 621L559 620M574 620L575 621L574 620M258 623L259 624L258 623M287 623L286 625L287 623M300 623L301 624L300 623M309 623L308 625L309 623M319 623L318 625L319 623M332 623L333 624L332 623M345 623L344 625L345 623M361 623L362 624L361 623M377.333 623.667L377.667 624.333L377.333 623.667M477 623L478 624L477 623M484.333 623.667L484.667 624.333L484.333 623.667M507 623L508 624L507 623M520.333 623.667L520.667 624.333L520.333 623.667M536 623L537 624L536 623M548 623L549 624L548 623M552.333 623.667L552.667 624.333L552.333 623.667M561 623L562 624L561 623M574 623L575 624L574 623M254 624L255 625L254 624M298 624L299 625L298 624M384 624L384 631L383 631L384 628L384 627L384 624M388 624L388 631L387 631L388 628L388 627L388 624M543 624L544 625L543 624M554 624L555 625L554 624M567 624L568 625L567 624M257 627L258 628L257 627M266 627L265 629L266 627M280 627L279 629L280 627M291 627L292 628L291 627M298 627L299 628L298 627M359 627L360 628L359 627M538 627L539 628L538 627M547 627L548 628L547 627M558 627L559 628L558 627M569 627L570 628L569 627M288 628L289 629L288 628M296 628L297 629L296 628M545 628L546 629L545 628M553 628L554 629L553 628M561 628L562 629L561 628M253 631L254 632L253 631M262 631L261 633L262 631M274 631L272 633L272 634L271 634L271 635L270 635L270 636L269 636L269 637L268 637L268 638L267 638L267 639L265 641L267 639L268 639L268 638L269 638L269 637L270 637L270 636L271 636L271 635L272 635L272 634L273 634L274 631M282 631L278 636L282 631M292 631L291 633L292 631M298 631L299 632L298 631M549 631L551 633L552 637L553 637L553 639L554 639L554 641L555 641L555 643L557 644L557 646L558 646L558 648L559 648L559 650L560 650L561 654L563 655L563 657L564 657L564 659L565 659L565 661L566 661L570 667L569 663L568 663L568 661L567 659L565 658L565 656L564 656L564 654L563 652L561 651L561 649L560 649L560 647L559 647L559 645L558 645L558 643L556 642L556 640L555 640L555 638L554 638L554 636L553 636L553 634L549 631M553 631L555 634L556 638L557 638L557 640L558 642L561 645L562 645L564 643L562 647L565 645L563 648L563 651L569 648L569 647L566 647L567 644L565 641L563 642L564 639L562 636L560 637L561 634L559 631L556 631L556 634L553 631M566 631L567 632L566 631M574 631L575 632L574 631M582 631L583 632L582 631M296 632L297 633L296 632M561 632L562 633L561 632M569 632L570 633L569 632M257 633L258 634L257 633M289 633L290 634L289 633M293 633L294 634L293 633M558 633L559 637L561 638L561 640L562 640L562 644L560 641L559 641L559 639L558 633M564 633L565 634L564 633M285 634L282 638L285 634M291 634L287 638L287 641L288 641L288 638L291 634M568 634L569 635L568 634M574 634L575 635L574 634M582 634L583 635L582 634M258 635L259 636L258 635M557 635L558 636L557 635M563 635L564 636L563 635M254 636L253 638L254 636M275 636L273 638L273 639L272 639L272 640L270 642L272 640L273 640L273 639L274 639L275 636M566 636L567 637L566 636M293 637L294 638L293 637M564 637L566 639L564 637M570 637L571 638L570 637M279 638L276 642L279 638M291 638L292 639L291 638M559 638L560 639L559 638M285 639L285 642L281 646L282 647L283 647L284 646L286 642L285 639M568 639L569 640L568 639M560 640L561 641L560 640M566 640L567 641L566 640M578 640L579 641L578 640M282 641L283 642L282 641M569 641L570 642L569 641M266 642L265 644L266 642M272 642L270 644L270 645L269 645L269 646L266 649L268 647L269 647L269 646L270 646L272 642M278 642L274 647L278 642M289 642L288 644L289 642M561 642L562 643L561 642M567 642L569 644L567 642M574 643L575 644L574 643M286 644L287 645L286 644M283 645L282 646L283 645M569 645L570 646L569 645M262 646L261 648L262 646M279 646L277 648L278 650L275 653L276 654L279 652L278 650L281 647L279 646M582 646L583 647L582 646M271 647L269 649L269 650L268 650L268 651L266 653L268 651L269 651L269 650L270 650L271 647M280 647L278 649L280 647M566 647L564 649L566 647M568 647L567 648L568 647M284 648L283 650L284 648M275 649L274 651L275 649M569 649L570 650L569 649M574 649L575 650L574 649M578 649L579 650L578 649M258 650L257 652L258 650M262 650L261 652L262 650M281 650L282 651L281 650M566 650L565 652L566 650M270 651L268 653L268 654L267 654L267 655L265 657L267 655L268 655L268 654L269 654L270 651M278 651L276 653L278 651M567 652L566 654L567 652M262 653L261 655L262 653M273 653L270 657L273 653M280 653L278 656L280 653M574 653L575 654L574 653M258 654L257 656L258 654M568 654L567 658L570 655L568 654M569 655L568 656L569 655M578 655L579 656L578 655M276 656L277 657L276 656M582 656L583 657L582 656M258 657L257 659L258 657M262 657L261 659L262 657M268 657L267 659L268 657M273 657L271 660L273 657M570 657L569 659L570 657M574.333 657.667L574.667 658.333L574.333 657.667M254 658L255 659L254 658M275 659L273 662L275 659M578.333 659.667L578.667 660.333L578.333 659.667M262 660L261 662L262 660M268 660L269 661L268 660M570 660L571 661L570 660M254 661L255 662L254 661M258 661L257 663L258 661M266 661L265 663L266 661M582.333 661.667L582.667 662.333L582.333 661.667M271 662L272 663L271 662M570 662L571 663L570 662M268 663L265 667L268 663M258 664L257 666L258 664M271 664L268 668L271 664M578 664L579 665L578 664M261 665L262 666L261 665M262.333 667.667L262.667 668.333L262.333 667.667M574.333 667.667L574.667 668.333L574.333 667.667M266 668L267 669L266 668M405 668L405 672L404 672L405 678L406 678L406 673L407 673L407 668L408 668L407 673L407 676L408 676L408 681L407 681L407 686L406 686L406 692L405 692L405 688L403 686L403 682L400 678L400 673L401 673L401 669L402 669L402 677L403 677L403 672L404 672L405 668M258 670L257 672L258 670M262 670L261 672L262 670M266 670L265 672L266 670M254 673L253 676L254 673M258 673L257 676L258 673M262 673L261 676L262 673M574.333 674.667L574.667 675.333L574.333 674.667M578.333 674.667L578.667 675.333L578.333 674.667M582.333 674.667L582.667 675.333L582.333 674.667M335 677L336 678L335 677M403 677L403 681L405 686L406 686L403 677M563 677L564 678L563 677M295 678L296 679L295 678M371 678L372 679L371 678M406 678L406 681L407 681L407 680L407 679L406 678M526 678L527 679L526 678M278 679L279 680L278 679M334 679L335 680L334 679M391 679L392 680L391 679M507 679L508 680L507 679M564 679L565 680L564 679M265 680L266 681L265 680M311 680L312 681L311 680M356 680L357 681L356 680M495 680L496 681L495 680M542 680L543 681L542 680M293 681L294 682L293 681M333 681L334 682L333 681M370 681L371 682L370 681M488 681L489 682L488 681M527 681L528 682L527 681M565 681L566 682L565 681M283 682L284 683L283 682M315 682L316 683L315 682M350 682L351 683L350 682M382 682L383 683L382 682M483 682L484 683L483 682M515 682L516 683L515 682M548 682L549 683L548 682M582 682L583 683L582 682M390 683L391 684L390 683M261 685L262 686L261 685M283 685L284 686L283 685M308 685L309 686L308 685M331 685L332 686L331 685M354 685L355 686L354 685M379 685L380 686L379 685M473 685L474 686L473 685M496 685L497 686L496 685M519 685L520 686L519 685M544 685L545 686L544 685M567 685L568 686L567 685M277 686L278 687L277 686M298 686L299 687L298 686M320 686L321 687L320 686M341 686L342 687L341 686M363 686L364 687L363 686M384 686L385 687L384 686M471 686L472 687L471 686M491 686L492 687L491 686M514 686L515 687L514 686M534 686L535 687L534 686M557 686L558 687L557 686M389 687L390 688L389 687M393 688L394 689L393 688M278 689L279 690L278 689M296 689L297 690L296 689M311 689L312 690L311 689M329 689L330 690L329 689M347 689L348 690L347 689M362 689L363 690L362 689M380 689L381 690L380 689M466.333 689.667L466.667 690.333L466.333 689.667M484 689L485 690L484 689M499 689L500 690L499 689M517 689L518 690L517 689M535 689L536 690L535 689M551 689L552 690L551 689M569 689L570 690L569 689M257 690L258 691L257 690M272 690L273 691L272 690M287 690L288 691L287 690M305 690L306 691L305 690M321 690L322 691L321 690M336 690L337 691L336 690M352 690L353 691L352 690M367 690L368 691L367 690M385 690L386 691L385 690M481 690L482 691L481 690M497 690L498 691L497 690M512 690L513 691L512 690M530 690L531 691L530 690M546 690L547 691L546 690M561 690L562 691L561 690M388 691L389 692L388 691M392 692L393 693L392 692M272 693L273 694L272 693M285 693L286 694L285 693M301 693L302 694L301 693M314 693L315 694L314 693M327 693L328 694L327 693M340 693L341 694L340 693M353 693L354 694L353 693M366 693L367 694L366 693M382 693L383 694L382 693M395 693L395 697L397 702L398 702L395 693M464 693L465 694L464 693M477 693L478 694L477 693M490 693L491 694L490 693M503 693L504 694L503 693M516 693L517 694L516 693M531 693L532 694L531 693M544 693L545 694L544 693M557 693L558 694L557 693M269 694L270 695L269 694M282 694L283 695L282 694M295 694L296 695L295 694M308 694L309 695L308 694M321 694L322 695L321 694M332 694L333 695L332 694M345 694L346 695L345 694M358 694L359 695L358 694M371 694L372 695L371 694M384 694L385 695L384 694M487 694L488 695L487 694M500 694L501 695L500 694M513 694L514 695L513 694M526 694L527 695L526 694M540 694L541 695L540 694M553 694L554 695L553 694M566 694L567 695L566 694M389 696L390 697L389 696M381 697L382 698L381 697M394 698L394 702L393 702L393 706L394 706L395 712L396 712L395 706L394 706L394 702L395 702L396 707L397 707L394 698M386 699L387 700L386 699M388 700L389 701L388 700M380 701L381 702L380 701M390 701L391 702L390 701M382 702L383 703L382 702M385 703L386 704L385 703M381.333 705.667L381.667 706.333L381.333 705.667M389.333 705.667L389.667 706.333L389.333 705.667M384 707L385 708L384 707M386 708L387 709L386 708M380 709L381 710L380 709M388.333 709.667L388.667 710.333L388.333 709.667M393 711L394 717L395 717L393 711M385.333 712.667L385.667 713.333L385.333 712.667M382.333 714.667L382.667 715.333L382.333 714.667M390 715L391 716L390 715M384.333 716.667L384.667 717.333L384.333 716.667M392 716L393 722L394 722L392 716M397 717L397 720L398 720L398 719L398 718L397 717M381.333 718.667L381.667 719.333L381.333 718.667M386.333 718.667L386.667 719.333L386.333 718.667M389 720L390 721L389 720M380.333 722.667L380.667 723.333L380.333 722.667M385.333 722.667L385.667 723.333L385.333 722.667M396 722L396 725L397 725L397 724L397 723L396 722M382.333 724.667L382.667 725.333L382.333 724.667M388 724L389 725L388 724M392 724L392 727L393 727L393 726L393 725L392 724M390 725L390 729L391 729L390 725M384 726L384 729L385 729L385 728L385 727L384 726M395 727L395 730L396 730L396 729L396 728L395 727M381.333 728.667L381.667 729.333L381.333 728.667M389 730L390 737L391 737L389 730M380 732L380 735L381 735L381 734L381 733L380 732M394 732L394 736L395 736L394 732M386.333 733.667L386.667 734.333L386.333 733.667M382 735L382 738L383 738L383 737L383 736L382 735M388 735L389 742L390 742L388 735M392 737L393 741L394 741L392 737M385 738L387 740L385 738M381 739L381 742L382 742L382 741L382 740L381 739M384.333 742.667L384.667 743.333L384.333 742.667M380 743L380 746L381 746L381 745L381 744L380 743M392 743L392 746L393 746L393 745L393 744L392 743M388 744L388 747L389 747L389 746L389 745L388 744M390 747L391 748L390 747M382 751L382 755L381 755L381 758L381 761L381 764L380 764L380 769L383 769L383 768L383 764L383 763L383 762L383 761L383 760L383 759L383 758L383 757L382 751M392 751L393 752L392 751M389 752C390.024 755.073 391.055 757.764 388 757L389 763L388 763L388 769L391 769L391 768L391 764L391 763L391 762L391 761L391 760L391 759L391 758L391 757L389 752M386 754L386 759L385 759L385 764L384 764L384 769L387 769L387 768L387 764L387 763L387 762L387 761L386 754M395 774L396 775L395 774M403 775L404 776L403 775M407 776L408 777L407 776M412 777L413 778L412 777M382 778L383 779L382 778M415 778L416 779L415 778M390 779L391 780L390 779M420 779L421 780L420 779M394 780L395 781L394 780M422.333 780.667L422.667 781.333L422.333 780.667M397 781L398 782L397 781M402 782L403 783L402 782M424 782L425 783L424 782M381 783L382 784L381 783M404 783L405 784L404 783M427.333 783.667L427.667 784.333L427.333 783.667M386 784L387 785L386 784M406 784L407 785L406 784M389 785L390 786L389 785M409 785L410 786L409 785M429.333 785.667L429.667 786.333L429.333 785.667M393 786L394 787L393 786M411 786L412 787L411 786M396 787L397 788L396 787M414.333 787.667L414.667 788.333L414.333 787.667M432 787L432 790L433 790L433 789L433 788L432 787M380 788L381 789L380 788M398 788L399 789L398 788M385 789L386 790L385 789M401 789L402 790L401 789M416 789L417 790L416 789M388 790L389 791L388 790M403.333 790.667L403.667 791.333L403.333 790.667M419.333 790.667L419.667 791.333L419.333 790.667M434 790L434 795L435 795L434 790M390 791L391 792L390 791M392 792L393 793L392 792M405 792L406 793L405 792M421 792L421 795L422 795L422 794L422 793L421 792M395.333 793.667L395.667 794.333L395.333 793.667M408.333 793.667L408.667 794.333L408.333 793.667M382 794L383 795L382 794M384 795L385 796L384 795M397 795L398 796L397 795M410.333 795.667L410.667 796.333L410.333 795.667M423 795L423 798L424 798L424 797L424 796L423 795M436 795L436 801L437 801L436 795M400.333 796.667L400.667 797.333L400.333 796.667M389 797L390 798L389 797M413.333 797.667L413.667 798.333L413.333 797.667M402 798L403 799L402 798M426 798L426 801L427 801L427 800L427 799L426 798M381 799L382 800L381 799M404.333 799.667L404.667 800.333L404.333 799.667M415.333 799.667L415.667 800.333L415.333 799.667M394 800L395 801L394 800M386.333 801.667L386.667 802.333L386.333 801.667M396.333 801.667L396.667 802.333L396.333 801.667M407.333 801.667L407.667 802.333L407.333 801.667M418 801L418 804L419 804L419 803L419 802L418 801M428 801L428 806L429 806L428 801M439 801L439 805L439 806L439 807L439 808L439 812L440 812L440 809L439 801M388 803L389 804L388 803M399.333 803.667L399.667 804.333L399.333 803.667M409 803L409 806L410 806L410 805L410 804L409 803M380 804L381 805L380 804M390.333 804.667L390.667 805.333L390.333 804.667M420 804L420 808L421 808L420 804M382.333 805.667L382.667 806.333L382.333 805.667M401.333 805.667L401.667 806.333L401.333 805.667M393.333 806.667L393.667 807.333L393.333 806.667M412 806L412 809L413 809L413 808L413 807L412 806M431 806L431 812L432 812L431 806M385 807L386 808L385 807M403.333 807.667L403.667 808.333L403.333 807.667M395.333 808.667L395.667 809.333L395.333 808.667M422 808L422 812L423 812L422 808M406 809L406 812L407 812L407 811L407 810L406 809M414 809L414 812L415 812L415 811L415 810L414 809M381.333 810.667L381.667 811.333L381.333 810.667M389.333 810.667L389.667 811.333L389.333 810.667M398.333 810.667L398.667 811.333L398.333 810.667M384.333 812.667L384.667 813.333L384.333 812.667M392.333 812.667L392.667 813.333L392.333 812.667M400 812L400 815L401 815L401 814L401 813L400 812M408 812L408 815L409 815L409 814L409 813L408 812M417 812L417 816L418 816L417 812M425 812L425 818L426 818L425 812M433 812L433 821L434 821L434 818L434 815L433 812M441 812L441 816L441 817L441 818L441 819L441 820L441 821L441 822L441 823L441 824L441 825L441 826L441 827L441 834L442 834L442 831L442 827L442 826L442 825L442 824L442 823L442 822L442 821L442 820L442 819L442 818L442 817L442 816L441 812M386.333 814.667L386.667 815.333L386.333 814.667M394 814L394 817L395 817L395 816L395 815L394 814M402 815L402 818L403 818L403 817L403 816L402 815M411 815L411 819L412 819L411 815M380.333 816.667L380.667 817.333L380.333 816.667M388.333 816.667L388.667 817.333L388.333 816.667M419 816L419 821L420 821L419 816M397.333 817.667L397.667 818.333L397.333 817.667M405 818L405 821L406 821L406 820L406 819L405 818M427 818L427 825L428 825L427 818M399 819L399 822L400 822L400 821L400 820L399 819M413 819L413 823L414 823L413 819M385.333 820.667L385.667 821.333L385.333 820.667M393 821L393 824L394 824L394 823L394 822L393 821M407 821L407 825L408 825L407 821M421 821L421 827L422 827L421 821M435 821L435 825L435 826L435 827L435 828L435 834L436 834L436 831L435 821M401 822L401 826L402 826L401 822M382.333 823.667L382.667 824.333L382.333 823.667M416 823L416 828L417 828L416 823M396 824L396 827L397 827L397 826L397 825L396 824M384 825L384 828L385 828L385 827L385 826L384 825M390.333 825.667L390.667 826.333L390.333 825.667M410 825L410 829L411 829L410 825M430 825L430 834L431 834L431 831L431 828L430 825M404 826L404 830L405 830L404 826M392 827L392 831L393 831L392 827M398 827L398 830L399 830L399 829L399 828L398 827M424 827L424 834L425 834L424 827M386 828L386 831L387 831L387 830L387 829L386 828M418 828L418 834L419 834L418 828M381.333 829.667L381.667 830.333L381.333 829.667M412 829L412 834L413 834L412 829M400 830L400 834L401 834L400 830M406 830L406 834L407 834L406 830M389 831L389 834L390 834L390 833L390 832L389 831M395 831L395 834L396 834L396 833L396 832L395 831M380 834L380 837L381 837L381 836L381 835L380 834M385 834L385 837L386 837L386 836L386 835L385 834M397 834L397 838L398 838L397 834M403 834L403 838L404 838L403 834M409 834L409 839L410 839L409 834M415 834L415 840L416 840L415 834M420 834L420 841L421 841L420 834M426 834L426 843L427 843L427 840L427 837L426 834M432 834L432 838L432 839L432 840L432 841L432 847L433 847L433 844L432 834M438 834L438 838L438 839L438 840L438 841L438 842L438 843L438 844L438 845L438 846L438 847L438 848L438 849L438 856L439 856L439 853L439 849L439 848L439 847L439 846L439 845L439 844L439 843L439 842L439 841L439 840L439 839L439 838L438 834M382 837L382 840L383 840L383 839L383 838L382 837M388 837L388 841L389 841L388 837M394 837L394 841L395 841L394 837M399 838L399 842L400 842L399 838M405 838L405 843L406 843L405 838M411 839L411 845L412 845L411 839M384 840L384 843L385 843L385 842L385 841L384 840M417 840L417 847L418 847L417 840M390 841L390 844L391 844L391 843L391 842L390 841M396 841L396 846L397 846L396 841M423 841L423 850L424 850L424 847L424 844L423 841M402 842L402 847L403 847L402 842M381 843L381 846L382 846L382 845L382 844L381 843M408 843L408 849L409 849L408 843M429 843L429 847L429 848L429 849L429 850L429 856L430 856L430 853L429 843M393 844L393 849L394 849L393 844M414 845L414 852L415 852L414 845M398 846L398 850L399 850L398 846M389 847L389 851L390 851L389 847M404 847L404 853L405 853L404 847M419 847L419 856L420 856L420 853L420 850L419 847M434 847L434 851L434 852L434 853L434 854L434 855L434 856L434 857L434 858L434 859L434 860L434 861L434 862L434 867L435 867L435 864L435 860L435 859L435 858L435 857L435 856L435 855L435 854L435 853L434 847M380 848L380 852L381 852L380 848M395 849L395 853L396 853L395 849M410 849L410 856L411 856L410 849M386 850L386 854L387 854L386 850M401 850L401 856L402 856L401 850M425 850L425 854L425 855L425 856L425 857L425 862L426 862L426 859L425 850M392 851L392 856L393 856L392 851M382 852L382 856L383 856L382 852M416 852L416 860L417 860L416 852M397 853L397 859L398 859L397 853M407 853L407 859L408 859L407 853M388 854L388 858L389 858L388 854M385 856L385 860L386 860L385 856M394 856L394 861L395 861L394 856M403 856L403 862L404 862L403 856M413 856L413 864L414 864L413 856M422 856L422 860L422 861L422 862L422 863L422 867L423 867L423 864L422 856M431 856L431 860L431 861L431 862L431 863L431 864L431 865L431 866L431 867L431 873L432 873L432 870L432 866L432 865L432 864L432 863L431 856M381 858L381 862L382 862L381 858M400 859L400 865L401 865L400 859M409 859L409 867L410 867L409 859M418 860L418 870L419 870L419 867L418 860M396 861L396 867L397 867L396 861M384 862L384 867L385 867L384 862M406 862L406 869L407 869L406 862M393 863L393 869L394 869L393 863M380 864L380 868L381 868L380 864M415 864L415 873L416 873L416 870L416 867L415 864M390 865L390 870L391 870L390 865M402 865L402 871L403 871L402 865M386 867L386 872L387 872L386 867M399 867L399 873L400 873L399 867z"/>
</svg>
