<?xml version="1.0" standalone="yes"?>
<svg width="900" height="900">
<path style="fill:#050505; stroke:none;" d="M275 311L275 376L305 376L305 311L275 311M328 311L328 376L347 376L347 311L328 311M512 311L512 376L542 376L542 311L512 311M573 311L573 376L584 376L584 311L573 311M321 377L321 526L328 526L328 377L321 377M362 377L362 526L393 526L393 377L362 377M424 377L424 526L450 526L450 377L424 377M466 377L466 526L496 526L496 377L466 377M275 527L275 592L305 592L305 527L275 527M328 527L328 592L347 592L347 527L328 527M512 527L512 592L542 592L542 527L512 527M573 527L573 592L584 592L584 527L573 527z"/>
</svg>
