<?xml version="1.0" standalone="yes"?>
<svg width="900" height="900">
<path style="fill:#010101; stroke:none;" d="M253 251L255 254L253 251M257 251L258 260L259 260L257 251M261 251L261 255L261 256L261 257L261 258L262 264L263 264L263 260L263 259L263 258L263 257L261 251M265 251L265 255L265 256L265 257L265 258L265 259L265 260L265 261L265 262L265 266L267 268L268 268L268 269L269 269L269 270L270 270L270 271L271 271L271 272L272 272L272 273L273 273L273 274L274 274L274 275L275 275L275 276L276 276L276 277L277 277L277 278L278 278L278 279L279 279L279 280L280 280L280 281L281 281L281 282L282 282L282 283L283 283L283 284L284 284L284 285L285 285L285 286L286 286L286 287L287 287L287 288L288 288L288 289L289 289L289 290L290 290L290 291L291 291L291 292L292 292L292 293L293 293L293 294L294 294L294 295L295 295L295 296L296 296L296 297L297 297L297 298L298 298L298 299L299 299L299 300L300 300L300 301L301 301L301 302L302 302L302 303L303 303L303 304L304 304L304 305L305 305L305 306L306 306L306 307L307 307L307 308L308 308L308 309L309 309L309 310L310 310L310 311L311 311L311 312L312 312L312 313L313 313L313 314L314 314L314 315L315 315L317 317L317 313L317 312L317 311L317 310L317 306L315 304L314 304L314 303L313 303L311 298L310 297L308 298L307 295L305 293L304 293L304 292L303 292L301 290L302 288L301 287L300 286L297 286L296 283L292 280L293 278L292 277L286 274L283 270L284 268L283 267L281 265L280 265L280 264L279 264L275 262L274 259L272 257L271 257L271 256L270 256L270 255L269 255L269 254L268 254L265 251M319 251L319 255L319 256L319 257L319 258L319 259L319 260L319 261L319 262L319 263L319 264L319 265L319 266L319 267L319 268L319 269L319 270L319 271L319 272L319 273L319 274L319 275L319 276L319 277L319 278L319 279L319 280L319 281L319 282L319 283L319 284L319 285L319 286L319 287L319 288L319 289L319 290L319 291L319 292L319 293L319 294L319 295L319 296L319 297L319 298L319 299L319 300L319 301L319 302L319 303L319 304L319 305L319 306L319 307L319 308L319 309L319 310L319 311L319 312L319 313L319 314L320 322L321 322L321 318L321 317L321 316L321 315L321 314L321 313L321 312L321 311L321 310L321 309L321 308L321 307L321 306L321 305L321 304L321 303L321 302L321 301L321 300L321 299L321 298L321 297L321 296L321 295L321 294L321 293L321 292L321 291L321 290L321 289L321 288L321 287L321 286L321 285L321 284L321 283L321 282L321 281L321 280L321 279L321 278L321 277L321 276L321 275L321 274L321 273L321 272L321 271L321 270L321 269L321 268L321 267L321 266L321 265L321 264L321 263L321 262L321 261L321 260L321 259L319 251M323 251L323 255L323 256L323 257L323 258L323 259L323 260L323 261L323 262L323 263L323 264L323 265L323 266L323 267L323 268L323 269L323 270L323 271L323 272L323 273L323 274L323 275L323 276L323 277L323 278L323 279L323 280L323 281L323 282L323 283L323 284L323 285L323 286L323 287L323 288L323 289L323 290L323 291L323 292L323 293L323 294L323 295L323 296L323 297L323 298L323 299L323 300L323 301L323 302L323 303L323 304L323 305L323 306L323 307L323 308L323 309L323 310L323 311L323 312L323 313L323 314L323 315L323 316L323 317L323 318L324 325L325 325L325 321L325 320L325 319L325 318L325 317L325 316L325 315L325 314L325 313L325 312L325 311L325 310L325 309L325 308L325 307L325 306L325 305L325 304L325 303L325 302L325 301L325 300L325 299L325 298L325 297L325 296L325 295L325 294L325 293L325 292L325 291L325 290L325 289L325 288L325 287L325 286L325 285L325 284L325 283L325 282L325 281L325 280L325 279L325 278L325 277L325 276L325 275L325 274L325 273L325 272L325 271L325 270L325 269L325 268L325 267L325 266L325 265L325 264L325 263L325 262L325 261L325 260L325 259L325 258L323 251M327 251L327 255L327 256L327 257L327 258L327 259L327 260L327 261L327 262L327 263L327 264L327 265L327 266L327 267L327 268L327 269L327 270L327 271L327 272L327 273L327 274L327 275L327 276L327 277L327 278L327 279L327 280L327 281L327 282L327 283L327 284L327 285L327 286L327 287L327 288L327 289L327 290L327 291L327 292L327 293L327 294L327 295L327 296L327 297L327 298L327 299L327 300L327 301L327 302L327 303L327 304L327 305L327 306L327 307L327 308L327 309L327 310L327 311L327 312L327 313L327 314L327 315L327 316L327 317L327 318L327 319L327 320L327 321L327 322L328 329L329 329L329 325L329 324L329 323L329 322L329 321L329 320L329 319L329 318L329 317L329 316L329 315L329 314L329 313L329 312L329 311L329 310L329 309L329 308L329 307L329 306L329 305L329 304L329 303L329 302L329 301L329 300L329 299L329 298L329 297L329 296L329 295L329 294L329 293L329 292L329 291L329 290L329 289L329 288L329 287L329 286L329 285L329 284L329 283L329 282L329 281L329 280L329 279L329 278L329 277L329 276L329 275L329 274L329 273L329 272L329 271L329 270L329 269L329 268L329 267L329 266L329 265L329 264L329 263L329 262L329 261L329 260L329 259L329 258L327 251M573 251L571 254L571 258L571 259L571 260L571 261L571 262L571 263L571 264L571 265L571 266L571 267L571 268L571 269L571 270L571 271L571 272L571 273L571 274L571 275L571 276L571 277L571 278L571 279L571 280L571 281L571 282L571 283L571 284L571 285L571 286L571 287L571 288L571 289L571 290L571 291L571 292L571 293L571 294L571 295L571 296L571 297L571 298L571 299L571 300L571 301L571 302L571 303L571 304L571 305L571 306L571 307L571 308L571 309L571 310L571 311L571 312L571 313L571 314L571 315L571 316L571 317L571 318L571 319L571 320L571 321L571 326L574 324L574 320L574 319L574 318L574 317L574 316L574 315L574 314L574 313L574 312L574 311L574 310L574 309L574 308L574 307L574 306L574 305L574 304L574 303L574 302L574 301L574 300L574 299L574 298L574 297L574 296L574 295L574 294L574 293L574 292L574 291L574 290L574 289L574 288L574 287L574 286L574 285L574 284L574 283L574 282L574 281L574 280L574 279L574 278L574 277L574 276L574 275L574 274L574 273L574 272L574 271L574 270L574 269L574 268L574 267L574 266L574 265L574 264L574 263L574 262L574 261L574 260L574 259L574 258L574 257L573 251M577 251L575 254L575 258L575 259L575 260L575 261L575 262L575 263L575 264L575 265L575 266L575 267L575 268L575 269L575 270L575 271L575 272L575 273L575 274L575 275L575 276L575 277L575 278L575 279L575 280L575 281L575 282L575 283L575 284L575 285L575 286L575 287L575 288L575 289L575 290L575 291L575 292L575 293L575 294L575 295L575 296L575 297L575 298L575 299L575 300L575 301L575 302L575 303L575 304L575 305L575 306L575 307L575 308L575 309L575 310L575 311L575 312L575 313L575 314L575 315L575 316L575 317L575 323L578 321L578 317L578 316L578 315L578 314L578 313L578 312L578 311L578 310L578 309L578 308L578 307L578 306L578 305L578 304L578 303L578 302L578 301L578 300L578 299L578 298L578 297L578 296L578 295L578 294L578 293L578 292L578 291L578 290L578 289L578 288L578 287L578 286L578 285L578 284L578 283L578 282L578 281L578 280L578 279L578 278L578 277L578 276L578 275L578 274L578 273L578 272L578 271L578 270L578 269L578 268L578 267L578 266L578 265L578 264L578 263L578 262L578 261L578 260L578 259L578 258L577 251M581 251L579 254L579 258L579 259L579 260L579 261L579 262L579 263L579 264L579 265L579 266L579 267L579 268L579 269L579 270L579 271L579 272L579 273L579 274L579 275L579 276L579 277L579 278L579 279L579 280L579 281L579 282L579 283L579 284L579 285L579 286L579 287L579 288L579 289L579 290L579 291L579 292L579 293L579 294L579 295L579 296L579 297L579 298L579 299L579 300L579 301L579 302L579 303L579 304L579 305L579 306L579 307L579 308L579 309L579 310L579 311L579 312L579 313L579 319L582 317L582 313L582 312L582 311L582 310L582 309L582 308L582 307L582 306L582 305L582 304L582 303L582 302L582 301L582 300L582 299L582 298L582 297L582 296L582 295L582 294L582 293L582 292L582 291L582 290L582 289L582 288L582 287L582 286L582 285L582 284L582 283L582 282L582 281L582 280L582 279L582 278L582 277L582 276L582 275L582 274L582 273L582 272L582 271L582 270L582 269L582 268L582 267L582 266L582 265L582 264L582 263L582 262L582 261L582 260L582 259L582 258L581 251M633 251L631 253L631 254L630 254L630 255L629 255L629 256L628 256L628 257L627 257L627 258L626 258L626 259L624 260L624 262L623 263L621 265L620 265L620 266L619 266L619 267L618 267L618 268L617 268L617 269L616 269L616 270L615 270L613 272L613 274L612 275L610 277L609 277L609 278L608 278L608 279L607 279L607 280L606 280L606 281L605 281L605 282L604 282L602 284L602 286L601 287L599 289L598 289L598 290L597 290L597 291L596 291L596 292L595 292L595 293L594 293L594 294L593 294L591 296L591 298L590 299L588 301L587 301L587 302L586 302L583 305L583 309L583 310L583 311L583 312L583 316L585 314L586 314L586 313L587 313L587 312L588 312L588 311L589 311L589 310L590 310L590 309L591 309L591 308L592 308L592 307L593 307L593 306L594 306L594 305L595 305L595 304L596 304L596 303L597 303L597 302L598 302L598 301L599 301L599 300L600 300L600 299L601 299L601 298L602 298L602 297L603 297L603 296L604 296L604 295L605 295L605 294L606 294L606 293L607 293L607 292L608 292L608 291L609 291L609 290L610 290L610 289L611 289L611 288L612 288L612 287L613 287L613 286L614 286L614 285L615 285L615 284L616 284L616 283L617 283L617 282L618 282L618 281L619 281L619 280L620 280L620 279L621 279L621 278L622 278L622 277L623 277L623 276L624 276L624 275L625 275L625 274L626 274L626 273L627 273L627 272L628 272L628 271L629 271L629 270L630 270L630 269L631 269L634 266L634 262L634 261L634 260L634 259L634 258L634 257L634 256L634 255L633 251M316 253L317 254L316 253M300 254L303 257L300 254M598 254L596 257L598 254M291 255L295 259L291 255M607 255L604 259L607 255M285 256L290 261L285 256M613 256L609 261L613 256M282 257L284 259L284 260L285 260L285 261L288 263L286 261L286 260L285 260L285 259L282 257M309 257L312 260L309 257M589 257L587 260L589 257M615 257L613 259L613 260L612 260L612 261L610 263L612 261L613 261L613 260L614 260L615 257M280 258L282 260L282 261L283 261L283 262L286 264L284 262L284 261L283 261L283 260L280 258M303 258L306 261L303 258M595 258L593 261L595 258M618 258L616 260L616 261L615 261L615 262L613 264L615 262L616 262L616 261L617 261L618 258M278 259L280 261L280 262L281 262L281 263L285 266L283 264L283 263L282 263L282 262L278 259M300 259L303 262L300 259M597 259L595 262L597 259M620 259L618 261L618 262L617 262L617 263L614 266L616 264L617 264L617 263L618 263L620 259M295 260L299 264L295 260M314 260L316 264L317 264L314 260M583 260L584 261L583 260M603 260L600 264L603 260M292 261L297 266L292 261M312 261L314 263L312 261M586 261L585 263L586 261M605 261L601 266L605 261M621 261L619 263L619 264L618 264L618 265L617 265L617 266L616 266L616 267L614 269L616 267L617 267L617 266L618 266L618 265L619 265L619 264L620 264L621 261M277 262L279 264L279 265L280 265L280 266L283 269L281 267L280 267L280 266L279 266L277 262M306 262L309 265L306 262M592 262L590 265L592 262M291 263L295 267L291 263M303 263L306 266L303 263M594 263L592 266L594 263M607 263L604 267L607 263M288 264L293 269L288 264M301 264L305 268L301 264M314 264L317 267L314 264M584 264L583 266L584 264M597 264L594 268L597 264M609 264L605 269L609 264M311 265L314 268L311 265M586 265L584 268L586 265M287 266L289 268L289 269L290 269L290 270L293 272L291 270L291 269L290 269L290 268L287 266M300 266L303 269L300 266M309 266L312 269L309 266M589 266L587 269L589 266M598 266L596 269L598 266M611 266L609 268L609 269L608 269L608 270L606 272L608 270L609 270L609 269L610 269L611 266M297 267L301 271L297 267M600 267L597 271L600 267M307 268L310 271L307 268M590 268L588 271L590 268M253 269L255 271L253 269M287 269L289 271L289 272L290 272L290 273L293 275L291 273L291 272L290 272L290 271L287 269M296 269L300 273L296 269M305 269L308 272L305 269M314 269L317 272L314 269M583 269L584 270L583 269M593 269L591 272L593 269M602 269L599 273L602 269M611 269L609 271L609 272L608 272L608 273L606 275L608 273L609 273L609 272L610 272L611 269M304 271L307 274L304 271M313 271L315 273L313 271M585 271L584 273L585 271M594 271L592 274L594 271M295 272L299 276L295 272M310 272L313 275L310 272M587 272L585 275L587 272M602 272L599 276L602 272M302 273L305 276L302 273M595 273L593 276L595 273M610 273L608 275L608 276L607 276L607 277L605 279L607 277L608 277L608 276L609 276L610 273M288 274L292 279L288 274M309 274L312 277L309 274M589 274L587 277L589 274M295 275L299 279L295 275M316 275L317 276L316 275M603 275L600 279L603 275M302 276L305 279L302 276M308 276L311 279L308 276M590 276L588 279L590 276M596 276L594 279L596 276M314 277L316 279L314 277M583 277L584 278L583 277M296 279L300 283L296 279M301 279L304 282L301 279M307 279L310 282L307 279M313 279L315 281L313 279M585 279L584 281L585 279M590 279L588 282L590 279M596 279L594 282L596 279M602 279L599 283L602 279M307 282L310 285L307 282M313 282L315 284L313 282M585 282L584 284L585 282M591 282L589 285L591 282M302 283L305 286L302 283M596 283L594 286L596 283M312 285L314 287L312 285M585 285L584 287L585 285M599 285L596 289L599 285M299 286L301 289L299 286M307 286L310 289L307 286M590 286L588 289L590 286M305 289L308 292L305 289M313 289L315 291L313 289M585 289L584 291L585 289M593 289L591 292L593 289M253 292L255 294L253 292M310 292L312 294L310 292M588 292L587 294L588 292M277 293L279 295L279 296L280 296L280 297L281 297L281 298L282 298L282 299L285 301L283 299L283 298L282 298L282 297L281 297L281 296L280 296L280 295L277 293M620 293L618 295L618 296L617 296L617 297L616 297L616 298L615 298L615 299L613 301L615 299L616 299L616 298L617 298L617 297L618 297L618 296L619 296L620 293M274 294L276 296L276 297L277 297L277 298L278 298L278 299L279 299L279 300L282 302L280 300L280 299L279 299L279 298L278 298L278 297L277 297L277 296L274 294M314 294L315 295L314 294M583 294L584 295L583 294M623 294L621 296L621 297L620 297L620 298L619 298L619 299L618 299L618 300L616 302L618 300L619 300L619 299L620 299L620 298L621 298L621 297L622 297L623 294M282 295L284 297L284 298L285 298L285 299L286 299L286 300L287 300L287 301L291 304L289 302L289 301L288 301L288 300L287 300L287 299L286 299L286 298L282 295M615 295L613 297L613 298L612 298L612 299L611 299L611 300L610 300L610 301L607 304L609 302L610 302L610 301L611 301L611 300L612 300L612 299L613 299L615 295M273 296L275 298L275 299L276 299L276 300L279 302L277 300L277 299L276 299L276 298L273 296M624 296L622 298L622 299L621 299L621 300L619 302L621 300L622 300L622 299L623 299L624 296M271 297L273 299L273 300L274 300L274 301L277 303L275 301L275 300L274 300L274 299L271 297M588 297L587 299L588 297M626 297L624 299L624 300L623 300L623 301L621 303L623 301L624 301L624 300L625 300L626 297M310 298L309 299L310 298M314 299L315 300L314 299M584 299L585 300L584 299M291 300L293 302L293 303L294 303L294 304L295 304L295 305L296 305L296 306L300 309L298 307L298 306L297 306L297 305L296 305L296 304L295 304L295 303L291 300M606 300L604 302L604 303L603 303L603 304L602 304L602 305L601 305L601 306L598 309L600 307L601 307L601 306L602 306L602 305L603 305L603 304L604 304L606 300M270 303L274 307L270 303M627 303L624 307L627 303M279 304L284 309L279 304M282 304L287 309L282 304M285 304L287 306L287 307L288 307L288 308L291 310L289 308L289 307L288 307L288 306L285 304M612 304L610 306L610 307L609 307L609 308L607 310L609 308L610 308L610 307L611 307L612 304M615 304L611 309L615 304M618 304L614 309L618 304M269 306L273 310L269 306M277 306L282 311L277 306M291 306L296 311L291 306M606 306L602 311L606 306M620 306L616 311L620 306M628 306L625 310L628 306M276 308L280 312L276 308M621 308L618 312L621 308M274 310L278 314L274 310M623 310L620 314L623 310M287 311L291 315L287 311M610 311L607 315L610 311M284 312L288 316L284 312M291 312L294 315L291 312M300 312L304 316L300 312M597 312L594 316L597 312M606 312L604 315L606 312M613 312L610 316L613 312M282 313L285 316L282 313M615 313L613 316L615 313M296 314L300 318L296 314M601 314L598 318L601 314M268 315L271 318L268 315M280 315L283 318L280 315M617 315L615 318L617 315M629 315L627 318L629 315M273 316L276 319L273 316M278 316L282 320L278 316M619 316L616 320L619 316M624 316L622 319L624 316M294 317L297 320L294 317M603 317L601 320L603 317M272 318L275 321L272 318M288 318L291 321L288 318M291 318L294 321L291 318M304 318L307 321L304 318M593 318L591 321L593 318M606 318L604 321L606 318M609 318L607 321L609 318M625 318L623 321L625 318M277 319L280 322L277 319M285 319L288 322L285 319M612 319L610 322L612 319M620 319L618 322L620 319M283 320L286 323L283 320M300 320L302 322L300 320M597 320L596 322L597 320M614 320L612 323L614 320M276 321L279 324L276 321M621 321L619 324L621 321M275 323L278 326L275 323M282 323L284 325L282 323M294 323L296 325L294 323M297 323L300 326L297 323M600 323L598 326L600 323M603 323L602 325L603 323M615 323L614 325L615 323M622 323L620 326L622 323M271 324L273 327L275 327L277 329L275 326L273 326L271 324M280 324L283 327L280 324M288 324L291 327L288 324M291 324L293 326L291 324M302 324L304 326L302 324M307 324L309 326L307 324M590 324L589 326L590 324M595 324L594 326L595 324M606 324L605 326L606 324M609 324L607 327L609 324M617 324L615 327L617 324M626 324L621 329L623 327L625 327L626 324M279 326L282 329L279 326M286 326L288 328L286 326M611 326L610 328L611 326M618 326L616 329L618 326M284 327L287 330L284 327M613 327L611 330L613 327M293 328L295 330L293 328M296 328L298 330L296 328M300 328L301 329L300 328M309 328L310 329L309 328M588 328L589 329L588 328M597 328L598 329L597 328M601 328L600 330L601 328M604 328L603 330L604 328M274 329L276 331L274 329M278 329L280 331L278 329M283 329L285 331L283 329M304 329L306 331L304 329M593 329L592 331L593 329M614 329L613 331L614 329M619 329L618 331L619 329M623 329L622 331L623 329M288 330L291 333L288 330M291 330L293 332L291 330M606 330L605 332L606 330M609 330L607 333L609 330M267 331L269 333L267 331M277 331L279 333L277 331M310 331L311 332L310 331M587 331L588 332L587 331M620 331L619 333L620 331M630 331L629 333L630 331M282 332L283 333L282 332M287 332L288 333L287 332M298 332L300 334L298 332M301 332L303 334L301 332M596 332L595 334L596 332M599 332L598 334L599 332M610 332L611 333L610 332M615 332L616 333L615 332M306 333L307 334L306 333M317 333L317 334L321 336L317 333M591 333L592 334L591 333M281 334L282 335L281 334M285 334L286 335L285 334M291 334L292 335L291 334M296 334L299 338L301 338L303 341L305 341L307 344L309 344L311 347L313 347L314 348L318 353L320 353L322 356L324 356L326 359L328 359L329 361L331 361L333 364L335 364L337 367L339 367L341 370L337 368L342 374L342 379C344.649 378.47 345.607 378.572 345 381C347.649 380.47 348.607 380.572 348 383C350.649 382.47 351.607 382.572 351 385C353.649 384.47 354.607 384.572 354 387C356.649 386.47 357.607 386.572 357 389L360 391L357 390L357 391L360 394L357 393L356 391L354 391L353 389L351 388L348 389L345 387L345 388L351 389L351 392L354 391L353 393L356 392L355 394C357.649 393.47 358.607 393.572 358 396L361 398L357 399L357 396L356 396L354 399L354 400L357 399L357 402L353 403L354 401L351 402L351 403L355 405L352 406L352 407L354 408L358 407L358 410L359 410L358 408L359 408L362 409L362 410L364 410L364 411L366 411L366 412L368 412L368 413L370 413L375 414L375 413L372 414L373 412L370 413L372 410L375 411L375 412L377 412L382 412L383 416L383 417L381 419L385 420L385 429L390 430L391 430C393.64 429.12 393.566 428.735 393 431C395.95 430.017 396.622 429.513 396 432C398.95 431.017 399.622 430.513 399 433C401.95 432.017 402.622 431.513 402 434L406 433L406 434L402 435L402 436L399 436L399 437L396 437L396 438L393 438L387 440L387 441L391 442L393 439L396 438L399 438L402 437L402 438L400 439L398 439L396 441L403 442L403 443L408 443L408 445L406 445L402 444L401 447L392 446L392 450L392 451L392 452L392 453L392 454L392 455L392 456L392 457L392 458L392 459L392 460L392 461L392 462L392 463L392 464L392 465L392 466L392 467L392 468L392 469L392 470L392 471L392 472L392 473L392 474L392 475L392 476L392 477L393 481L393 482L392 484L392 490L396 489L396 490L392 493L396 491L393 495L397 491L399 491L402 488L400 492L404 488L406 489L408 487L407 491L405 493L404 493L404 494L403 494L401 497L399 497L398 498L396 500L396 501L395 501L395 502L390 502L386 502L382 502L378 505L377 505L372 504L371 504L368 504L365 507L363 507L361 510L364 510L365 507L371 506L368 510L373 508L373 509L366 513L366 514L370 515L366 520L368 518L370 519L371 515L374 513L376 514L377 513L378 511L380 510L379 513L374 515L373 516L374 518L372 520L371 520L371 521L370 521L370 522L369 522L369 523L368 523L365 524L363 527L361 530L361 533L363 531L364 531L364 530L365 530L365 529L366 529L366 528L367 528L369 523L373 521L374 522L373 524L371 526L370 526L370 527L369 527L369 528L368 528L368 529L367 529L367 530L366 530L366 531L365 531L365 532L364 532L364 533L363 533L358 535L360 532L358 536L355 534L351 536L351 532L348 532L350 535L347 536L337 536L337 540L337 541L337 542L337 543L338 548L338 552L336 554L337 557L335 559L334 559L334 560L333 560L333 561L332 561L332 562L331 562L329 565L331 563L332 563L332 562L333 562L333 561L334 561L334 560L335 560L335 559L336 559L336 558L337 558L340 555L339 558L337 560L336 560L336 561L335 561L335 562L334 562L334 563L333 563L333 564L332 564L332 565L331 565L331 566L330 566L330 567L329 567L329 568L328 568L328 569L327 569L327 570L326 570L326 571L325 571L325 572L324 572L324 573L323 573L323 574L322 574L322 575L321 575L319 578L317 578L316 579L314 581L314 582L313 582L313 583L312 583L312 584L311 584L311 585L310 585L310 586L309 586L309 587L308 587L308 588L307 588L307 589L306 589L306 590L305 590L305 591L304 591L304 592L303 592L303 593L302 593L302 594L301 594L301 595L300 595L300 596L299 596L299 597L295 599L297 597L298 596L299 595L299 594L300 594L300 593L301 593L301 592L302 592L302 591L303 591L303 590L304 590L304 589L305 589L305 588L306 588L306 587L307 587L307 586L308 586L308 585L309 585L309 584L310 584L310 583L311 583L311 582L312 582L312 581L313 581L313 580L314 580L314 579L317 576L319 576L320 575L322 573L322 572L323 572L323 571L324 571L324 570L325 570L325 569L327 567L323 571L321 571L320 572L318 574L318 575L317 575L317 576L316 576L316 577L315 577L315 578L314 578L314 579L313 579L313 580L312 580L312 581L311 581L311 582L308 585L306 585L305 586L303 588L303 589L302 589L302 590L301 590L301 591L300 591L300 592L299 592L299 593L298 593L298 594L297 594L297 595L296 595L296 596L291 599L294 596L295 593L298 592L300 590L300 589L301 589L301 588L302 588L302 587L303 587L303 586L306 583L308 583L309 582L311 580L311 579L312 579L312 578L313 578L313 577L314 577L314 576L315 576L315 575L316 575L316 574L317 574L317 573L318 573L318 572L320 570L321 569L323 567L321 569L320 569L320 570L319 570L319 571L318 571L318 572L317 572L316 574L314 574L313 575L311 577L311 578L310 578L310 579L309 579L309 580L308 580L308 581L307 581L307 582L306 582L306 583L304 585L302 585L301 586L299 588L299 589L298 589L298 590L297 590L297 591L296 591L296 592L291 595L294 592L295 589L298 588L302 583L304 583L305 582L307 580L307 579L308 579L308 578L309 578L309 577L310 577L310 576L311 576L311 575L312 575L312 574L314 572L316 572L317 571L318 570L319 567L317 569L316 569L316 570L315 570L315 571L314 571L314 572L313 572L311 575L309 575L308 576L306 578L306 579L305 579L305 580L302 583L300 583L299 584L297 586L297 587L296 587L296 588L291 591L295 585L291 587L291 583L291 582L291 581L291 580L291 579L291 578L291 577L291 576L291 575L291 574L291 573L291 572L291 568L290 568L290 571L290 575L290 576L290 577L290 578L290 579L290 580L290 581L290 582L290 583L290 584L290 585L290 586L290 587L290 588L290 589L290 590L290 591L290 592L290 593L290 594L290 595L290 596L290 597L290 598L290 599L290 600L290 601L290 602L290 603L290 604L290 605L290 606L290 610L294 610L295 610L296 610L297 610L298 610L299 610L300 610L301 610L302 610L303 610L304 610L305 610L311 609L315 610L311 615L313 613L314 613L314 612L315 612L317 610L317 606L317 605L317 604L317 603L317 598L320 600L320 602L320 603L319 603L319 604L320 604L320 605L319 605L319 606L319 608L320 608L321 606L321 604L320 604L320 603L321 603L321 602L320 602L320 601L321 601L322 598L322 597L320 595L323 595L323 594L321 593L319 598L317 595L319 593L320 593L320 592L321 592L324 589L324 587L325 586L327 584L328 584L328 583L329 583L332 580L332 578L333 577L335 575L336 575L336 574L337 574L339 571L337 573L336 573L336 574L335 574L335 575L334 575L334 576L333 576L331 578L331 580L330 581L328 583L327 583L327 584L326 584L324 586L323 587L323 589L320 590L317 593L318 590L320 588L321 588L321 587L322 587L322 586L323 586L323 585L324 585L324 584L325 584L325 583L326 583L329 580L329 578L330 577L332 575L333 575L333 574L334 574L334 573L335 573L335 572L336 572L336 571L337 571L337 570L338 570L338 569L339 569L339 568L340 568L342 566L342 564L343 563L345 561L346 561L346 560L347 560L349 557L347 559L346 559L346 560L345 560L345 561L344 561L344 562L343 562L343 563L342 563L342 564L341 564L338 567L338 569L337 570L335 572L334 572L334 573L333 573L333 574L332 574L332 575L331 575L331 576L330 576L330 577L329 577L329 578L328 578L328 579L327 579L327 580L326 580L326 581L325 581L325 582L324 582L324 583L323 583L323 584L322 584L322 585L321 585L320 586L319 587L317 589L318 586L320 584L321 584L321 583L322 583L322 582L323 582L323 581L324 581L324 580L325 580L325 579L326 579L326 578L327 578L327 577L328 577L328 576L329 576L329 575L330 575L330 574L331 574L331 573L332 573L332 572L333 572L333 571L334 571L336 569L336 567L337 566L339 564L340 564L340 563L341 563L341 562L342 562L342 561L343 561L343 560L344 560L344 559L345 559L345 558L346 558L346 557L347 557L347 556L348 556L348 555L349 555L349 554L350 554L350 553L351 553L351 552L352 552L352 551L353 551L356 549L354 551L354 552L353 552L353 553L350 556L356 552L356 555L355 565L354 566L352 565L351 566L351 568L351 572L352 572L352 568L356 566L356 570L355 575L356 575L357 573L358 566L357 563L361 558L363 560L364 557L361 557L357 561L358 558L362 553L363 553L363 556L366 556L367 553L369 548L372 550L373 543L376 545L376 542L380 540L379 536L385 536L387 533L384 533L384 532L386 529L380 533L384 529L384 527L386 525L380 525L381 522L383 520L384 520L384 519L385 519L385 518L386 518L386 517L387 517L387 516L388 516L388 515L389 515L389 514L390 514L390 513L391 513L391 512L392 512L392 511L393 511L393 510L394 510L394 509L395 509L395 508L396 508L396 507L397 507L401 504L400 507L398 509L397 509L397 510L396 510L395 515L392 513L392 516L387 521L389 519L390 519L390 518L391 518L393 516L394 519L391 525L392 525L395 521L398 517L398 514L401 513L405 509L403 511L403 513L400 515L400 517L398 522L394 524L396 524L397 524L397 523L398 523L398 524L399 524L399 523L401 522L404 524L402 522L405 520C404.47 517.351 404.572 516.393 407 517L407 513L409 512L409 510L411 509L413 503L414 503L415 506L416 506L412 501L414 498L414 494L412 491L414 489L415 489L415 488L416 488L416 487L417 487L417 486L418 486L418 485L419 485L419 484L420 484L424 481L420 486L424 484L421 488L424 487L422 489L422 492L426 492L427 488L430 492L433 492L434 489L435 489L436 492L440 492L441 492L442 492L443 492L444 492L445 492L446 492L447 492L448 492L449 492L450 492L451 492L452 492L453 492L454 492L455 492L456 492L457 492L458 492L459 492L465 491L465 490L463 491L464 488C461.564 488 462.385 487.214 463 485L461 486L461 485L461 481L465 485L465 488L467 492L468 492L468 487L466 483L469 482L471 485L471 487L473 492L476 490L477 493L474 498L479 498L480 504L484 503L485 509L486 509L485 506L487 503L488 503L488 509L490 512L492 513L492 515L494 516L494 518L497 519L499 521L498 524L501 524L498 518L501 520L498 517L498 515L496 512L500 517L501 518L503 517L503 521L504 522L506 521L507 526L509 529L511 530L510 532L511 532L511 529L514 530L512 532L512 533L513 536L516 533L513 533L513 532L517 532L515 529L519 534L520 535L522 534L524 537L523 539L527 540L529 543L528 545L531 547L531 549L531 550L530 550L530 551L531 552L528 555L532 556L533 555L533 552L531 551L531 550C532.397 549.302 532.396 549.698 531 549L532 547L533 551L535 552L535 553L534 556L537 556L537 553L540 557L537 558L532 557L531 557L532 560L534 560L535 560L535 559L536 559L539 558L540 561L537 562L534 561C534.579 562.91 534.985 564.334 536 562L537 562L537 564L539 562L540 565L537 565C537.914 567.266 538.011 567.406 540 566C540.579 567.91 540.985 569.334 542 567L543 567L544 569L547 568L548 569L547 571L548 571L549 569L549 568L549 567L544 561L546 563L547 563L547 564L548 564L550 566L548 564L548 563L547 563L547 562L544 557L546 559L547 559L547 560L548 560L548 561L549 561L549 562L550 562L552 567L554 568L556 570L557 570L557 571L558 571L561 574L560 576L564 577L565 580L569 583L568 585L569 586L571 587L572 588L572 589L570 590L570 591L573 593L572 597L576 600L576 602L576 603L575 603L575 604L575 606L577 607L577 608L577 610L576 610L576 611L577 611L577 612L576 612L576 613L577 613L577 616L578 616L578 614L578 613L577 613L577 612L578 612L578 611L577 611L577 610L578 610L578 609L577 609L577 608L578 608L578 607L577 607L577 606L578 605L576 604L576 603L577 600L575 599L576 597L573 597L573 596L576 596L573 593L574 591L572 590L572 589L576 588L574 590L576 594L577 595L580 595L580 596L577 596L577 599L580 599L580 601L580 602L579 602L579 603L580 603L580 604L579 604L579 605L580 606L579 611L581 612L581 613L581 615L580 615L580 616L581 616L581 617L580 617L580 618L581 618L581 619L580 619L580 620L581 620L581 621L580 621L580 622L581 622L581 623L580 623L580 624L581 624L581 627L582 627L582 625L582 624L581 624L581 623L582 623L582 622L581 622L581 621L582 621L582 620L581 620L581 619L582 619L582 618L581 618L581 617L582 617L582 616L581 616L581 615L582 615L582 614L581 614L581 613L580 611L582 609L582 607L582 606L581 606L581 605L582 605L582 604L581 604L581 603L582 603L582 602L581 602L581 601L582 598L583 598L583 601L583 610L587 610L588 610L589 610L590 610L591 610L592 610L593 610L594 610L595 610L596 610L597 610L598 610L599 610L600 610L601 610L602 610L608 610L607 607L609 609L610 609L610 610L611 610L611 611L612 611L612 612L613 612L613 613L614 613L614 614L615 614L615 615L616 615L616 616L617 616L617 617L618 617L618 618L619 618L619 619L620 619L620 620L621 620L621 621L622 621L622 622L623 622L623 623L624 623L624 624L625 624L625 625L626 625L626 626L627 626L627 627L628 627L628 628L629 628L632 631L630 629L630 628L629 628L629 627L628 627L628 626L627 626L627 625L626 625L626 624L625 624L625 623L624 623L624 622L623 622L623 621L622 621L622 620L621 620L621 619L620 619L620 618L619 618L619 617L618 617L618 616L617 616L617 615L616 615L616 614L615 614L615 613L614 613L614 612L613 612L613 611L612 611L612 610L611 610L611 609L610 609L610 608L609 608L609 607L608 607L608 606L607 606L607 605L606 605L606 604L605 604L605 603L604 603L604 602L603 602L603 601L602 601L602 600L601 600L601 599L600 599L600 598L599 598L599 597L598 597L598 596L597 596L597 595L596 595L596 594L595 594L595 593L594 593L594 592L593 592L593 591L592 591L592 590L591 590L591 589L590 589L590 588L589 588L589 587L588 587L588 586L587 586L587 585L586 585L586 584L585 584L585 583L584 583L584 582L583 582L583 581L581 580L581 576L581 575L581 574L581 573L581 568L577 568L576 568L575 568L574 568L570 568L568 566L568 565L567 565L567 564L566 564L566 563L565 563L565 562L564 562L564 561L563 561L563 560L562 560L562 559L561 559L561 558L560 558L560 557L559 557L559 556L558 556L558 555L557 555L557 554L554 551L552 551L551 550L549 548L549 547L548 547L548 546L547 546L547 545L546 545L546 544L545 544L545 543L544 543L544 542L543 542L543 541L542 541L542 540L541 540L541 539L540 539L540 538L539 538L539 537L538 537L538 536L536 533L538 535L543 533L543 532L538 532L536 530L536 529L535 529L535 528L534 528L534 527L533 527L533 526L529 523L533 524L530 520L528 521L527 519L525 520L524 519L520 516L520 513L517 513L513 509L513 504L506 504L504 502L504 501L503 501L503 500L500 497L498 497L497 496L495 494L495 493L494 493L494 492L491 487L494 489L494 485L499 488L501 483L499 478L494 476L495 471L491 470L491 466L491 465L491 464L491 463L491 462L491 461L491 460L491 459L491 458L491 457L491 456L491 455L491 454L491 453L491 452L491 451L491 450L491 449L491 448L491 447L491 443L499 444L499 443L496 443L496 442L502 442L502 441L505 441L509 441L510 441L511 441L512 441L513 441L514 441L515 441L516 441L522 441L522 440L525 440L528 440L533 439L533 438L529 438L528 438L527 438L526 438L525 438L524 438L523 438L522 438L521 438L520 438L519 438L518 438L517 438L516 438L515 438L514 438L513 438L512 438L511 438L510 438L504 438L504 439L500 439L500 440L496 440L496 441L491 441L491 440L495 440L495 439L499 439L499 438L503 438L503 437L506 437L510 437L511 437L512 437L513 437L514 437L515 437L516 437L517 437L523 437L523 436L529 436L529 435L534 435L534 434L531 434L527 434L526 434L525 434L524 434L523 434L522 434L521 434L520 434L519 434L518 434L517 434L516 434L515 434L514 434L513 434L512 434L505 434L502 436L498 436L491 438L491 437L494 437L494 436L497 435L501 435L504 433L508 433L509 433L510 433L511 433L512 433L513 433L514 433L515 433L516 433L517 433L518 433L519 433L526 433L526 432L531 432L531 431L535 431L535 430L532 430L528 430L527 430L526 430L525 430L524 430L523 430L522 430L521 430L520 430L519 430L518 430L517 430L516 430L515 430L514 430L513 430L506 430L503 431L503 432L500 432L500 433L497 433L497 434L491 435L491 434L493 433L496 432L499 432L499 431L502 431L502 430L505 430L505 429L513 429L513 420L517 417L513 418L513 417L516 416L516 415L513 416L513 415L516 412L512 412L509 414L508 416L506 416L505 418L503 418L502 420L499 419L496 421L496 419L493 421L494 418L497 417L499 414L501 414L502 412L504 412L506 409L502 409L501 409L500 409L499 409L494 409L492 411L492 412L491 412L491 413L488 415L488 419L488 420L488 421L488 422L486 429L486 430C487.501 431.812 487.158 432.022 485 433L485 434L488 434L488 437L485 437L485 438L488 441L484 441L484 442L480 442L480 443L477 443L470 443L470 442L473 442L473 441L469 441L468 441L467 441L466 441L460 441L459 443L458 443L454 443L453 443L452 443L451 443L450 443L449 443L448 443L447 443L446 443L445 443L444 443L443 443L437 441L438 443L437 443L435 443L431 443L430 443L429 443L428 443L427 443L426 443L425 443L424 443L420 443L420 442L416 442L416 441L412 438L416 439L416 438L412 434L416 435L416 432L412 433L414 430L414 429L412 428L412 421L406 417L409 421L403 417L404 421L399 421L396 418L394 418L393 416L391 416L390 414L388 414L387 412L385 412L379 410L382 406L382 405L382 402L382 401L380 397L377 395L378 398L375 395L373 395L371 392L369 392L367 389L365 389L363 386L361 386L359 383L357 383L355 380L353 380L352 379L352 378L351 377L349 374L353 376L349 373L348 369L347 368L346 367L344 367L343 366L340 362L338 362L337 361L336 359L335 358L333 358L332 357L329 353L327 353L326 352L325 350L324 349L322 349L321 348L320 346L317 345L318 349L319 350L320 351L322 351L324 354L326 354L328 357L330 357L332 360L334 360L336 363L338 363L341 367L337 364L335 364L333 361L331 361L329 358L327 358L325 355L323 355L321 352L319 352L317 349L315 349L313 346L311 346L309 343L307 343L305 340L303 340L301 337L299 337L296 334M580 334L579 336L580 334M604 334L605 335L604 334M612 334L613 335L612 334M616 334L615 336L616 334M626 334L627 335L626 334M630 334L627 336L627 337L632 334L630 334M273 335L274 336L273 335M288 336L288 337L291 337L288 336M300 335L301 336L300 335M311 335L312 336L311 335M586 335L587 336L586 335M606 335L607 336L606 335M624 335L623 337L624 335M284 336L285 337L284 336M294 336L295 337L294 336M303 336L304 337L303 336M594 336L595 337L594 336M613 336L614 337L613 336M307 337L308 338L307 337M317 337L317 338L321 340L317 337M322 337L325 340L322 337M566 337L566 338L567 338L568 338L569 338L569 337L568 337L566 337M577 337L575 340L577 337M590 337L591 338L590 337M600 337L601 338L600 337M285 338L286 339L285 338M287 338L288 339L287 338M291 338L292 339L291 338M304 338L305 339L304 338M580 338L579 340L580 338M607 338L608 339L607 338M620 338L621 339L620 338M621 340L621 341L627 339L621 340M630 338L627 340L627 341L632 338L630 338M275 339L276 340L275 339M279 339L280 340L279 339M614 339L613 341L614 339M618 339L617 341L618 339M254 340L255 341L254 340M288 340L289 341L288 340M308 340L309 341L308 340M589 340L590 341L589 340M596 340L597 341L596 340M604 340L605 341L604 340M299 341L300 342L299 341M312 341L313 342L312 341M317 341L317 342L321 344L317 341M322 341L325 344L322 341M326 341L329 344L326 341M333 341L334 342L333 341M335 341L336 342L335 341M337 341L338 342L337 341M559 341L559 342L562 342L565 342L568 342L568 341L565 341L562 341L559 341M573 341L571 344L573 341M577 341L575 344L577 341M585 341L586 342L585 341M287 342L288 343L287 342M291 342L292 343L291 342M295 342L296 343L295 342M580 342L579 344L580 342M618 342L614 344L614 345L620 343L618 342M623 342L620 344L620 345L626 343L623 342M630 342L626 344L626 345L630 342M271 343L272 344L271 343M275 343L276 344L275 343M281 343L282 344L281 343M285 343L286 344L285 343M289 343L291 345L289 343M592 343L593 344L592 343M253 344L254 345L253 344M294 344L295 345L294 344M286 345L286 348L287 348L286 345M322 345L324 347L322 345M326 345L329 348L326 345M330 345L332 347L332 348L333 348L333 349L334 349L334 350L335 350L335 351L336 351L336 352L337 352L337 353L340 356L342 356L343 357L349 362L349 361L346 360L344 358L344 357L343 357L343 356L342 356L342 355L341 355L341 354L339 352L337 352L336 351L334 349L334 348L333 348L333 347L330 345M333 345L335 347L335 348L336 348L336 349L338 351L340 350L341 351L342 353L343 354L345 353L346 354L347 356L349 357L349 355L349 354L348 354L348 353L349 352L347 350L346 350L346 349L345 349L345 348L344 348L344 347L343 347L342 345L340 345L339 345L339 346L338 346L338 345L337 345L337 346L336 346L333 345M555 345L551 349L551 353L551 354L551 355L551 356L551 361L554 360L556 358L556 357L557 357L557 356L559 354L561 354L562 353L566 348L568 348L570 345L566 345L565 345L564 345L563 345L562 345L561 345L560 345L559 345L555 345M573 345L572 347L573 345M577 345L578 346L577 345M299 346L300 347L299 346M336 346L338 346L338 347L339 347L339 346L342 346L344 348L344 349L345 349L345 350L348 352L348 355L345 352L343 353L342 352L341 350L340 349L338 350L337 349L336 348L336 346M351 346L352 353L353 353L351 346M355 346L356 356L357 356L355 346M359 346L359 350L359 351L359 352L359 353L359 354L359 355L359 356L359 357L360 363L361 363L361 359L361 358L361 357L361 356L361 355L361 354L361 353L361 352L359 346M541 346L539 348L539 352L539 353L539 354L539 355L539 360L542 358L542 354L542 353L542 352L542 351L541 346M545 346L543 348L543 354L546 352L545 346M549 346L547 350L549 346M580 346L577 348L574 352L572 352L571 353L570 355L569 356L567 356L566 357L565 359L564 360L562 360L561 361L560 363L559 364L557 364L556 365L555 367L551 369L551 373L547 376L551 374L548 379L546 379L544 382L542 382L540 385L538 385L536 388L534 388L533 390L531 390L529 393L527 393L525 396L523 396L521 398L521 394L520 394L519 396L519 401L515 404L519 402L516 406L516 407L519 406L519 408L521 408L524 405L528 404L529 402L533 401L534 399L536 399L541 396L544 394L543 392L546 393L545 391L548 392L548 389L551 390L553 386L556 387L560 385L561 383L565 382L567 377L570 378L569 376L570 376L574 376L578 376L581 377L585 377L586 377L587 377L588 377L589 377L590 377L591 377L592 377L597 377L601 375L601 374L597 374L596 374L595 374L594 374L593 374L592 374L591 374L590 374L589 374L588 374L587 374L586 374L582 375L579 374L577 375L575 374L573 375L572 375L569 373L569 372L572 373L574 372L576 373L578 372L579 372L582 373L586 373L587 373L588 373L589 373L590 373L591 373L592 373L593 373L598 373L602 371L602 370L598 370L597 370L596 370L595 370L594 370L593 370L592 370L591 370L590 370L589 370L588 370L587 370L582 371L579 370L577 371L575 370L573 371L572 371L572 370L568 370L570 368L574 368L576 369L579 368L582 369L586 369L587 369L588 369L589 369L590 369L591 369L592 369L593 369L598 369L602 367L602 366L598 366L597 366L596 366L595 366L594 366L593 366L592 366L591 366L590 366L589 366L588 366L587 366L582 367L579 366L577 367L576 367L576 366L573 367L570 366L567 368L566 370L564 370L563 372L559 374L560 371L564 367L566 367L568 364L570 364L571 362L573 362L575 359L577 359L581 356L581 355L577 358L575 358L572 360L575 356L577 356L578 355L578 354L579 353L581 353L580 350L580 346M588 346L589 347L588 346M337 347L337 348L340 348L343 352L345 351L347 353L345 351L345 350L344 350L344 349L342 347L337 347M302 348L303 349L302 348M342 348L344 351L342 348M305 349L306 350L305 349M572 349L571 351L572 349M584 349L585 350L584 349M328 350L330 352L330 353L331 353L331 354L334 357L336 357L337 358L338 360L339 361L341 361L342 362L345 366L347 366L349 368L347 365L345 365L344 364L341 360L339 360L338 359L335 355L333 355L332 354L328 350M567 350L566 352L567 350M333 351L335 353L335 354L336 354L336 355L337 355L337 356L338 356L338 357L340 359L342 359L343 360L346 364L348 364L349 366L351 366L353 368L351 365L349 365L348 363L346 363L345 362L341 357L339 357L338 356L333 351M580 351L580 352L577 353L575 356L573 356L571 359L569 359L567 362L565 362L563 365L561 365L559 367L562 363L564 363L566 360L568 360L570 357L572 357L574 354L576 354L578 351L580 351M299 352L301 354L299 352M599 352L598 354L599 352M567 353L566 355L567 353M285 354L286 355L285 354M302 354L304 356L302 354M596 354L595 356L596 354M312 355L313 356L312 355M344 355L348 359L344 355M561 355L559 358L561 355M305 356L307 358L305 356M315 356L316 357L315 356M593 356L592 358L593 356M312 357L314 359L312 357M586 357L585 359L586 357M304 358L306 360L304 358M308 358L310 360L308 358M561 358L560 360L561 358M580 358L577 360L576 362L574 362L571 364L571 365L574 363L576 363L577 361L579 361L580 358M590 358L589 360L590 358M594 358L593 360L594 358M315 359L317 361L315 359M583 359L582 361L583 359M307 360L309 362L307 360M311 360L312 361L311 360M326 360L328 362L326 360M555 360L553 363L555 360M572 360L570 363L568 363L567 365L565 365L563 368L561 368L559 370L561 367L563 367L565 364L567 364L572 360M587 360L588 361L587 360M591 360L590 362L591 360M318 361L320 363L318 361M580 361L579 363L580 361M310 362L311 363L310 362M314 362L315 363L314 362M329 362L331 364L329 362M556 362L555 364L556 362M584 362L585 363L584 362M588 362L589 363L588 362M301 363L304 365L304 364L301 363M312 363L314 365L312 363M321 363L323 365L321 363M577 363L576 365L577 363M586 363L585 365L586 363M597 363L595 364L595 365L597 363M309 364L310 365L309 364M317 364L318 365L317 364M581 364L582 365L581 364M589 364L590 365L589 364M333 365L335 367L333 365M354 365L357 368L354 365M358 365L361 368L358 365M362 365L363 366L362 365M535 365L535 366L536 366L537 366L538 366L538 365L537 365L535 365M541 365L539 368L541 365M545 365L543 368L545 365M549 365L547 368L549 365M320 366L321 367L320 366M322 368L326 368L325 370L328 369L328 368L325 366L322 368M328 366L329 367L328 366M330 366L331 367L330 366M312 367L313 368L312 367M314 367L315 368L314 367M316 367L317 368L316 367M318 367L319 368L318 367M324 367L323 368L324 367M572 367.333C572.773 367.333 572.16 367.831 571.667 367.667L572 367.333M576 367L575 368L576 367M580 367L579 368L580 367M308 368L309 369L308 368M310 368L311 369L310 368M329 368L330 369L329 368M331 368L332 369L331 368M317 369L318 370L317 369M321 369L322 370L321 369M350 369L353 372L350 369M354 369L357 372L354 369M358 369L361 372L358 369M362 369L363 370L362 369M364 369L365 370L364 369M531 369L531 370L538 370L538 369L531 369M541 369L539 372L541 369M545 369L543 372L545 369M549 369L547 372L549 369M330 370L331 371L330 370M332 370L333 371L332 370M334 370L335 371L334 370M569 371L566 373L566 374L570 374L564 378L564 379L567 378L567 379L564 380L563 382L559 383L558 385L555 386L556 384L555 384L551 386L553 388L548 388L545 391L543 391L542 393L540 393L536 396L536 395L539 392L536 393L536 392L540 388L536 390L538 387L540 387L541 385L543 385L544 383L546 383L548 380L550 380L551 378L553 378L554 376L556 376L557 374L561 375L564 373L565 371L567 370L569 371M290 371L291 372L290 371M316 371L317 372L316 371M318 371L319 372L318 371M320 371L321 372L320 371M324 371L325 372L324 371M326 371L327 372L326 371M328 371L329 372L328 371M572 371L571 372L572 371M576 371L575 372L576 371M580 371L579 372L580 371M312 372L313 373L312 372M314 372L315 373L314 372M322 372L320 375L322 372M333 372L334 373L333 372M335 372L336 373L335 372M337 372L338 373L337 372M565 372L566 373L565 372M325 373L322 376L326 376L325 378L329 376L329 375L325 373M329 373L330 374L329 373M331 373L332 374L331 373M354 373L357 376L354 373M358 373L361 376L358 373M362 373L363 374L362 373M364 373L365 374L364 373M366 373L367 374L366 373M368 373L369 374L368 373M528 373L528 374L531 374L538 374L538 373L535 373L528 373M541 373L539 376L541 373M545 373L543 376L545 373M286 374L287 375L286 374M336 374L337 375L336 374M338 374L339 375L338 374M562 374L560 377L557 375L554 377L553 379L551 379L550 381L548 381L546 384L544 384L540 387L542 390L539 391L539 392L542 391L543 389L545 389L546 387L551 388L549 385L553 385L555 382L558 384L564 380L564 379L560 379L564 378L567 376L567 375L562 374M324 375L323 376L324 375M332 375L333 376L332 375M334 375L335 376L334 375M343 375L346 378L348 378L349 380L351 380L353 383L355 383L356 385L358 385L359 387L361 387L363 390L361 388L359 388L358 386L356 386L355 384L353 384L351 381L349 381L348 379L346 379L342 376L343 375M572 375L571 376L572 375M576 375L575 376L576 375M579 375.333C579.773 375.333 579.16 375.831 578.667 375.667L579 375.333M319 376L320 377L319 376M330 376L329 378L330 376M339 376L340 377L339 376M560 377L557 379L557 380L561 380L556 383L555 381L554 381L551 384L549 384L548 386L546 386L541 388L544 385L546 385L547 383L549 383L550 381L552 381L553 379L555 379L558 376L560 377M335 377L336 378L335 377M337 377L338 378L337 377M362 377L363 378L362 377M364 377L367 381L369 380L371 383L373 382L374 383L377 387L380 387L380 384L378 382L377 382L377 381L376 381L376 380L375 380L375 379L374 379L373 377L371 377L370 377L370 378L369 378L369 377L368 377L368 378L367 378L364 377M525 377L523 379L523 380L522 380L522 381L519 383L519 392L522 391L525 387L527 387L528 386L531 382L533 382L534 381L535 379L538 378L538 377L534 377L533 377L532 377L531 377L525 377M545 377L543 380L545 377M331 378L334 382L338 383L339 385L341 385L341 386L345 386L345 385C342.351 385.53 341.393 385.428 342 383C339.49 383.502 336.355 382.579 337 380C334.351 380.53 333.393 380.428 334 378L331 378M367 378L369 378L369 379L370 379L370 378L373 378L375 380L375 381L376 381L376 382L379 385L378 386L376 385L373 381L371 382L366 379L367 378M383 378L383 386L384 386L383 378M387 378L387 382L387 383L387 384L387 385L387 389L388 389L388 386L387 378M391 378L391 382L391 383L391 384L391 385L391 392L392 392L392 389L392 385L392 384L392 383L392 382L391 378M509 378L507 380L507 384L507 385L507 386L507 387L507 391L510 389L510 385L510 384L510 383L510 382L509 378M513 378L511 380L511 388L514 386L513 378M517 378L515 384L517 378M556 378L557 379L556 378M338 379L339 380L338 379M340 379L341 380L340 379M370 379L370 380L373 380L378 385L376 383L376 382L375 382L375 381L373 379L370 379M541 380L539 383L541 380M553 380L554 381L553 380M555.667 380.333L556.333 380.667L555.667 380.333M317 381L318 382L317 381M536 381L534 384L536 381M343 382L344 383L343 382M550 382L551 383L550 382M537 383L535 386L537 383M335 384L335 385L339 387L339 386L335 384M346 384L347 385L346 384M363 384L366 387L363 384M372 384L375 387L372 384M547 384L548 385L547 384M563 384L560 386L560 387L564 385L563 384M531 385L530 387L531 385M349 386L350 387L349 386M533 386L532 388L533 386M544 386L545 387L544 386M340 387L341 388L340 387M558 387L559 388L558 387M322 388L323 389L322 388M326 388L327 389L326 388M342 388L343 389L342 388M368 388L370 390L368 388M375 388L379 392L375 388M378 388L380 390L378 388M556 388L557 389L556 388M337 389L338 390L337 389M344 389L346 391L344 389M529 389L528 391L529 389M554 389L553 391L554 389M561 389L562 390L561 389M339 390L340 391L339 390M352 390L351 391L352 390M374 390L377 393L374 390M548 390L547 391L548 390M559 390L560 391L559 390M330 391L331 392L330 391M341 391L342 392L341 391M347 391L348 392L347 391M363 393L360 392L363 393M372 391L374 393L372 391M551 391L552 392L551 391M557 391L558 392L557 391M568 391L569 392L568 391M332 392L333 393L332 392M343 392L344 393L343 392M349 392L350 393L349 392M525 392L524 394L525 392M549 392L550 393L549 392M555 392L556 393L555 392M566 392L567 393L566 392M334 393L335 394L334 393M564 393L565 394L564 393M336 394L337 395L336 394M346 394L347 395L346 394M363 396L360 395L363 396M379 394L380 395L379 394M552 394L553 395L552 394M562 394L563 395L562 394M338 395L339 396L338 395M348 395L349 396L348 395M354 395L355 396L354 395M521 395L520 396L521 395M544 395L545 396L544 395M550 395L551 396L550 395M560 395L561 396L560 395M340 396L341 397L340 396M350 396L351 397L350 396M383 396L385 398L383 396M387 396L389 398L387 396M391 396L393 398L391 396M542 396L543 397L542 396M548 396L549 397L548 396M558 396L559 397L558 396M381 397L382 398L381 397M504.667 397.333L505.333 397.667L504.667 397.333M509 397L507 400L509 397M513 397L511 400L513 397M517 397L515 400L517 397M318 398L319 399L318 398M322 398L323 399L322 398M326 398L327 399L326 398M330 398L331 399L330 398M334 398L335 399L334 398M337 398L336 400L337 398M352 398L353 399L352 398M363 398L368 401L369 403L371 403L372 405L376 406L379 408L377 410L382 410L385 412L385 413L381 411L380 413L379 413L377 411L375 411L375 410L372 409L370 412L366 411L366 410L364 410L364 409L362 409L362 408L360 408L360 407L358 406L354 407L354 406L357 405L355 403L359 402L357 400L361 398L363 398M539 398L540 399L539 398M543 398L544 399L543 398M547 398L548 399L547 398M551 398L547 400L547 401L551 401L552 401L553 401L554 401L555 401L556 401L557 401L558 401L564 401L569 399L569 398L565 398L564 398L563 398L562 398L561 398L560 398L559 398L558 398L551 398M332 399L333 400L332 399M339 399L338 401L339 399M359 400L361 402L357 403L358 406L361 405L360 407L363 406L362 408L366 406L364 409L368 407L366 410L370 408L368 411L372 409L370 407C372.649 406.47 373.607 406.572 373 409L376 408L375 410L376 410L377 408L372 406L371 404L369 404L368 402L363 399L359 400M537 399L534 401L534 402L538 400L537 399M541 399L542 400L541 399M545 399L546 400L545 399M341 400L342 401L341 400M362 400L366 402L367 404L371 406L368 407L363 404L364 406L359 404L359 403L362 400M383 400L385 402L383 400M387 400L389 402L387 400M391 400L393 402L391 400M539 400L540 401L539 400M543 400L544 401L543 400M349 401L350 402L349 401M396 401L397 402L396 401M501 401L501 402L506 402L506 401L501 401M322 402L323 403L322 402M326 402L327 403L326 402M330 402L331 403L330 402M334 402L335 403L334 402M337 402L336 404L337 402M340 402L339 404L340 402M343 402L342 404L343 402M346 402L344 405L346 402M363 402L361 403L361 404L363 402M532 402L533 403L532 402M539 402L540 403L539 402M543 402L544 403L543 402M547 402L548 403L547 402M551 402L547 404L547 405L551 405L552 405L553 405L554 405L555 405L556 405L557 405L558 405L564 405L569 403L569 402L565 402L564 402L563 402L562 402L561 402L560 402L559 402L558 402L551 402M348 403L347 405L348 403M365 403L367 405L365 403M530 403L529 405L530 403M537 403L538 404L537 403M541 403L542 404L541 403M545 403L546 404L545 403M350 404L351 405L350 404M383 404L385 406L383 404M387 404L389 406L387 404M391 404L393 406L391 404M535 404L536 405L535 404M539 404L540 405L539 404M543 404L544 405L543 404M368 405L369 406L368 405M396 405L397 406L396 405M398 405L399 406L398 405M497 405L497 406L505 406L505 405L497 405M509 405L507 408L509 405M513 405L511 408L513 405M527 405L528 406L527 405M533 405L534 406L533 405M322 406L323 407L322 406M326 406L327 407L326 406M330 406L331 407L330 406M343 406L344 407L343 406M346 406L347 407L346 406M349 406L350 407L349 406M525 406L526 407L525 406M538 406L536 408L534 408L534 409L530 410L530 411L533 412L532 410L535 411L534 409L537 410L536 408L537 408L543 409L542 407L543 407L546 409L550 409L551 409L552 409L553 409L554 409L555 409L556 409L557 409L563 409L569 407L569 406L565 406L564 406L563 406L562 406L561 406L560 406L559 406L558 406L557 406L556 406L555 406L554 406L550 407L547 406L545 407L543 406L541 407L538 406M333 407L334 408L333 407M340 407L341 408L340 407M539 407.333C539.773 407.333 539.16 407.831 538.667 407.667L539 407.333M547 407.333C547.773 407.333 547.16 407.831 546.667 407.667L547 407.333M336 408L337 409L336 408M348 408L349 409L348 408M351 408L350 410L351 408M383 408L384 409L383 408M387 408L389 410L387 408M391 408L394 411L391 408M522 408L523 409L522 408M528 408L529 409L528 408M396 409L398 412L402 411L404 414L406 413L407 414L412 419L410 417L410 416L409 416L409 415L408 415L408 414L407 414L407 413L406 413L406 412L405 412L405 411L403 409L401 409L400 409L400 410L399 410L396 409M509 409L508 411L509 409M513 409L514 410L513 409M517 409L518 410L517 409M520 409L521 410L520 409M526 409L527 410L526 409M386 410L387 411L386 410M390 410L392 412L390 410M399 410L398 411L399 410M401 410L400 411L401 410M403 410L405 413L403 410M415 410L415 416L416 416L415 410M419 410L419 420L420 420L420 417L419 410M423 410L423 414L423 415L423 416L423 417L423 423L424 423L424 420L423 410M515 410L516 411L515 410M524 410L525 411L524 410M395 411L398 414L395 411M477 411L476 414L476 421L477 421L478 419L477 411M481 411L480 417L481 417L481 411M485 411L484 414L485 411M506 411L505 413L506 411M510 411L511 412L510 411M528 411L531 413L531 412L528 411M389 412L390 413L389 412M526 412L528 414L526 412M394 413L395 414L394 413M401 413L404 416L401 413M507 413L508 414L507 413M524 413L526 415L524 413M367 414L368 415L367 414M376 414L375 416L376 414M385 416L382 415L385 416M392 414L393 415L392 414M399 414L400 418L401 418L402 417L402 416L399 414M502 414L503 415L502 414M522 414L524 416L522 414M531 414L532 415L531 414M349 415L350 416L349 415M369 415L370 416L369 415M378 415L377 417L378 415M397 415L398 416L397 415M405 415L406 416L405 415M504 415L505 416L504 415M520 415L522 417L520 415M528.667 415.333L529.333 415.667L528.667 415.333M365 416L365 417L369 418L369 417L365 416M371 416L372 417L371 416M380 416L379 418L380 416M395 416L396 417L395 416M401 416L400 417L401 416M499 416L500 417L499 416M518 416L519 417L518 416M526 416L527 417L526 416M532.667 416.333L533.333 416.667L532.667 416.333M374 417L375 418L374 417M384 417.333C384.773 417.333 384.16 417.831 383.667 417.667L384 417.333M501 417L502 418L501 417M524 417L525 418L524 417M530 417L531 418L530 417M370 418L371 419L370 418M376 418L377 419L376 418M398 418L399 419L398 418M527.667 418.333L528.333 418.667L527.667 418.333M372.667 419.333L373.333 419.667L372.667 419.333M378 419L379 420L378 419M405 419L406 421L405 419M519 419L520 420L519 419M525 419L526 420L525 419M375 420L376 421L375 420M522 420L523 421L522 420M368.667 421.333L369.333 421.667L368.667 421.333M520 421L521 422L520 421M349.667 422.333L350.333 422.667L349.667 422.333M363.667 422.333L364.333 422.667L363.667 422.333M371 422L372 423L371 422M380 422L381 423L380 422M517 422L518 423L517 422M526.667 422.333L527.333 422.667L526.667 422.333M534.667 422.333L535.333 422.667L534.667 422.333M366.667 423.333L367.333 423.667L366.667 423.333M374 423L375 424L374 423M523.667 423.333L524.333 423.667L523.667 423.333M531.667 423.333L532.333 423.667L531.667 423.333M369.667 424.333L370.333 424.667L369.667 424.333M377 424L378 425L377 424M521 424L522 425L521 424M528 424L529 425L528 424M372.667 425.333L373.333 425.667L372.667 425.333M518 425L519 426L518 425M525 425L526 426L525 425M376 426L377 427L376 426M515 426L516 427L515 426M522 426L523 427L522 426M364 428L364 429L369 428L364 428M379 427L380 428L379 427M529 427L529 428L530 428L531 428L532 428L532 427L531 427L529 427M371 428L372 429L371 428M382 428L383 429L382 428M415 428L417 430L415 428M419 428L421 430L419 428M423 428L425 430L423 428M526.667 428.333L527.333 428.667L526.667 428.333M474 429L475 430L474 429M482 429L483 430L482 429M364 430L365 431L364 430M385.667 430.333L386.333 430.667L385.667 430.333M484 430L485 431L484 430M368 431L365 432L365 433L369 432L368 431M389 431L386 432L386 433L390 432L389 431M349 432L350 433L349 432M357.667 432.333L358.333 432.667L357.667 432.333M372 432L373 433L372 432M379 432L379 433L382 433L382 436L387 435L387 434L382 435L379 432M392 432L393 433L392 432M419 432L420 433L419 432M423 432L424 433L423 432M395 433L396 434L395 433M417 433L418 434L417 433M428 433L429 434L428 433M430 433L431 434L430 433M467 433L467 434L472 434L472 433L467 433M478 433L479 434L478 433M357.667 434.333L358.333 434.667L357.667 434.333M365.667 434.333L366.333 434.667L365.667 434.333M398 434L399 435L398 434M407 434.333C407.773 434.333 407.16 434.831 406.667 434.667L407 434.333M476 434L477 435L476 434M480 434L481 435L480 434M370.667 435.333L371.333 435.667L370.667 435.333M390 435L387 436L388 438L387 438L381 439L381 440L374 440L374 439L368 439L368 438L362 438L362 439L364 440L373 440L373 441L383 442L383 441L381 441L381 440L385 440L391 438L390 435M354 436L355 437L354 436M362 436L362 437L363 437L364 437L365 437L365 436L364 436L362 436M375.667 436.333L376.333 436.667L375.667 436.333M394 436L395 437L394 436M403 436L408 437L408 438L402 437L403 436M423 436L424 437L423 436M380.667 437.333L381.333 437.667L380.667 437.333M418 437L420 439L418 437M425 437L426 438L425 437M430 437L431 438L430 437M432 437L433 438L432 437M463 437L463 438L466 438L469 438L472 438L472 437L469 437L466 437L463 437M477 437L478 438L477 437M404 439L404 440L408 440L408 441L404 440L402 440L398 441L398 440L400 439L404 439M423 439L424 440L423 439M393 443L393 444L397 444L397 443L393 443M381.667 458.333L382.333 458.667L381.667 458.333M496 458L496 459L497 459L498 459L499 459L499 458L498 458L496 458M385.667 460.333L386.333 460.667L385.667 460.333M495 460L496 461L495 460M499 461L499 462L500 462L501 462L502 462L502 461L501 461L499 461M494 463L495 464L494 463M381.667 464.333L382.333 464.667L381.667 464.333M497.667 464.333L498.333 464.667L497.667 464.333M388 465L389 466L388 465M493 465L494 466L493 465M501.667 465.333L502.333 465.667L501.667 465.333M496 466L497 467L496 466M499.667 467.333L500.333 467.667L499.667 467.333M385 468L386 469L385 468M495 468L496 469L495 468M502.667 468.333L503.333 468.667L502.667 468.333M381.667 469.333L382.333 469.667L381.667 469.333M498 469L499 470L498 469M389 470L390 471L389 470M500.667 470.333L501.333 470.667L500.667 470.333M386 471L387 472L386 471M384 474L385 475L384 474M381 475L382 476L381 475M502 475L503 476L502 475M504 476L505 477L504 476M385 477L386 478L385 477M382 478L383 479L382 478M380 479L381 480L380 479M390 479L391 480L390 479M388 480L389 481L388 480M394 480L393 481L394 480M381 481L382 482L381 481M386 481L387 482L386 481M465.667 481.667L465.333 482.333L465.667 481.667M468 481L467 482L468 481M477 481L479 483L480 483L480 484L481 484L481 485L482 485L482 486L483 486L483 487L484 487L484 488L485 488L486 494L486 498L488 501L486 504L482 503L477 498L478 495L477 495L478 492L478 490L477 490L477 489L478 489L476 484L478 484L477 481M384 482L385 483L384 482M405 482L403 485L401 485L397 488L397 491L396 491L396 488L399 487L401 484L403 484L405 482M514 482L515 483L514 482M382 483L383 484L382 483M380 484L381 485L380 484M429 484L429 488L426 490L425 490L429 484M437 484L436 489L435 489L437 484M478 484L480 486L480 487L481 487L481 488L483 489L483 491L486 493L485 490L483 488L482 488L482 487L481 487L478 484M503 484L504 485L503 484M518 484L519 485L518 484M505 485L506 486L505 485M514 485L515 486L514 485M381 487L382 488L381 487M385 487L386 488L385 487M478 487L478 492L481 490L481 489L478 487M518 487L519 488L518 487M419 488L418 490L419 488M470 488L471 489L470 488M501 488L502 489L501 488M506 488L507 489L506 488M510 488L511 489L510 488M382 489L383 490L382 489M475 489L474 490L475 489M480 489L479 490L480 489M380 490L381 491L380 490M416 490L415 492L416 490M420 490L421 491L420 490M471 490L472 491L471 490M498 490L499 491L498 490M504 490L505 491L504 490M384 491L385 492L384 491M389 491L388 493L389 491M418 491L419 492L418 491M481 491L482 492L481 491M367 492L368 493L367 492M369.667 492.333L370.333 492.667L369.667 492.333M377 492L378 493L377 492M507 492L508 493L507 492M512 492L513 493L512 492M518 492L519 493L518 492M520.667 492.333L521.333 492.667L520.667 492.333M523.667 492.333L524.333 492.667L523.667 492.333M531 492L531 493L537 493L537 492L531 492M381 493L382 494L381 493M386 493L384 498L387 497L386 493M397 493L394 497L397 493M418 493L416 496L418 493M422 496L425 496L425 493L422 496M434 493L435 496L436 496L434 493M465 493L464 495L465 493M468 493L467 495L468 493M471 493L472 494L471 493M478 493L479 494L478 493M483 493L485 497L486 497L483 493M502 493L505 496L502 493M505 493L507 495L505 493M514 493L515 494L514 493M420 494L419 496L420 494M480 494L481 495L480 494M510 494L511 495L510 494M461 495L462 496L461 495M469 495L470 496L469 495M482 495L483 496L482 495M369.667 496.333L370.333 496.667L369.667 496.333M382 496L383 497L382 496M509 496L511 498L509 496M513 496L515 498L513 496M518 496L518 497L522 497L522 496L518 496M523.667 496.333L524.333 496.667L523.667 496.333M527.667 496.333L528.333 496.667L527.667 496.333M532 496L533 497L532 496M380 497L381 498L380 497M418 497L417 499L418 497M420 497L419 500L420 497M423 497L424 498L423 497M431 497L433 500L431 497M434 497L434 500L435 500L435 499L435 498L434 497M441 497L441 500L442 500L442 499L442 498L441 497M456 497L456 500L457 500L457 499L457 498L456 497M465 497L467 499L467 497L465 497M470 497L469 500L470 500L470 497M482 497L483 498L482 497M429.333 498.667L429.667 499.333L429.333 498.667M462.333 498.667L462.667 499.333L462.333 498.667M484 498L484 501L485 501L484 498M382 499L381 501L382 499M393 499L392 501L393 499M415 499L416 500L415 499M422 499L423 500L422 499M481 499L482 500L481 499M505 499L507 501L505 499M369.667 500.333L370.333 500.667L369.667 500.333M376 500L377 501L376 500M476 500L475 503L478 508L478 506L478 502L476 503L476 500M510 500L510 501L511 501L512 501L513 501L513 500L512 500L510 500M518 500L518 501L522 501L522 500L518 500M529 500L529 501L530 501L531 501L532 501L532 500L531 500L529 500M534.667 500.333L535.333 500.667L534.667 500.333M537 500L538 501L537 500M415 501L418 504L415 501M418 501L419 506L420 506L422 501L418 501M428 501L429 502L428 501M438 501L439 502L438 501M460 501L461 502L460 501M470 501L471 502L470 501M425 502L426 503L425 502M431 502L433 504L431 502M468.333 502.667L468.667 503.333L468.333 502.667M353 504L354 505L353 504M404 504L400 508L401 510L398 512L398 514L393 516L393 515L397 512L395 513L397 511L397 510L398 510L398 509L399 509L399 508L400 508L400 507L404 504M409 504L406 509L405 509L409 504M494 504L496 506L496 507L497 507L497 508L499 509L499 511L500 512L505 516L505 518L506 519L511 525L510 525L509 522L504 518L504 516L503 515L498 511L498 509L497 508L494 504M497 504L499 506L499 507L500 507L500 508L501 508L501 509L502 509L502 510L503 510L503 511L504 511L504 512L506 513L506 515L507 516L509 518L510 518L510 519L511 519L511 520L512 520L512 521L513 521L515 525L514 525L513 522L511 520L510 520L510 519L509 519L509 518L508 518L508 517L507 517L505 515L505 513L504 512L502 510L501 510L501 509L500 509L500 508L499 508L499 507L498 507L497 504M500 504L502 506L502 507L503 507L503 508L504 508L504 509L505 509L505 510L506 510L506 511L507 511L507 512L508 512L508 513L509 513L509 514L510 514L510 515L511 515L511 516L512 516L512 517L513 517L513 518L514 518L514 519L515 519L515 520L516 520L516 521L517 521L517 522L519 525L518 525L517 522L515 520L514 520L514 519L513 519L513 518L512 518L512 517L511 517L511 516L510 516L510 515L509 515L509 514L508 514L508 513L507 513L507 512L506 512L506 511L505 511L505 510L504 510L504 509L503 509L503 508L502 508L502 507L501 507L500 504M514 504L517 508L519 508L520 509L521 511L522 512L524 512L525 513L528 517L530 517L531 518L532 520L533 521L535 521L539 525L537 523L536 522L536 520L533 519L532 517L531 516L529 516L527 513L525 513L524 512L523 510L522 509L520 509L518 506L516 506L514 504M521 504L524 507L521 504M527 504L528 505L527 504M537.667 504.333L538.333 504.667L537.667 504.333M542 504L543 505L542 504M357 505L358 506L357 505M361 505L362 506L361 505M369 505L366 507L366 506L369 505M372 505L371 506L372 505M377 505L377 506L373 508L373 507L377 505M532 505L533 506L532 505M423.333 506.667L423.667 507.333L423.333 506.667M520 506L521 507L520 506M530 506L531 507L530 506M354 507L355 508L354 507M525 507L529 509L529 508L525 507M535 507L536 508L535 507M533 508L535 510L533 508M350 509L349 511L350 509M399 509L397 512L399 509M419 509L420 510L419 509M524 509L526 511L524 509M538 509L539 510L538 509M353 510L354 511L353 510M415 510L416 511L415 510M484 510L485 511L484 510M529 510L532 513L533 512L533 511L532 510L529 510M536 510L538 512L536 510M550 510L551 511L550 510M358 511L359 512L358 511M365 511L364 513L365 511M374 511L370 515L369 514L371 511L374 511M377 511L375 513L377 511M385 511L383 513L383 514L382 514L382 515L381 515L381 516L380 516L380 517L379 517L379 518L378 518L378 519L374 522L373 521L374 519L376 517L377 517L377 516L378 516L378 515L379 515L379 514L380 514L382 511L385 511M518 511L519 512L518 511M532 511L531 512L532 511M350 512L351 513L350 512M371 512L370 514L371 512M382 512L380 514L380 515L379 515L379 516L378 516L378 517L377 517L377 518L374 521L376 519L377 519L377 518L378 518L378 517L379 517L379 516L380 516L382 512M528 512L530 514L528 512M357 513L358 514L357 513M362 513L361 515L362 513M368 513L367 514L368 513M409 513L410 514L409 513M480 513L481 514L480 513M488 513L489 520L490 520L490 518L490 517L489 517L489 516L488 513M533 513L535 516L537 516L539 518L539 515C536.351 515.53 535.393 515.428 536 513L533 513M550 513L551 514L550 513M411 514L410 516L412 516L411 514M520 514L519 515L520 514M546 514L547 515L546 514M354 515L353 517L354 515M363 515L362 517L363 515M481 515L482 516L481 515M523 515L526 518L523 515M532 515L535 518L532 515M358 516L357 518L358 516M366 516L364 519L366 516M371 516L369 518L371 516M375 516L374 517L375 516M419 516L420 517L419 516M484 516L485 517L484 516M491 516L492 517L491 516M497 516L498 518L497 516M502 516L501 517L502 516M349 517L351 519L349 517M410 517L412 519L410 517M415 517L416 518L415 517M476 517L477 518L476 517M400 518L398 520L400 518M406 518L407 519L406 518M423 518L424 519L423 518M480 518L480 521L481 521L481 520L481 519L480 518M484 518L485 519L484 518M491 518L492 519L491 518M542 518L543 519L542 518M354 519L355 520L354 519M358 519L359 520L358 519M409 519L410 520L409 519M419 519L420 520L419 519M477 519L478 520L477 519M493 519L494 520L493 519M349.667 520.333L350.333 520.667L349.667 520.333M361 520L362 521L361 520M368 520L366 522L363 521L360 525L362 523L364 524L365 522L367 523L368 520M407 520L408 521L407 520M485 520L484 522L485 520M491 520L492 521L491 520M498 520L497 521L498 520M505 520L504 521L505 520M527 520L530 521L530 522L528 523L527 520M353 521L355 523L353 521M385 521L383 524L385 521M400 521L398 523L400 521M404 521L405 522L404 521M493 521L494 522L493 521M546 521L547 522L546 521M349.667 522.333L350.333 522.667L349.667 522.333M357 522L358 523L357 522M364 522L363 523L364 522M397 522L396 523L397 522M407 522L408 523L407 522M477 522L478 523L477 522M481.333 522.667L481.667 523.333L481.333 522.667M491 522L492 523L491 522M495 522L496 523L495 522M502 522L504 524L502 522M387 523L388 524L387 523M485 523L486 524L485 523M488 523L489 524L488 523M493 523L494 524L493 523M336 524L336 525L341 525L341 524L336 524M347 524L348 525L347 524M349 524L349 525L352 525L352 524L349 524M353 524L354 525L353 524M356 524L357 525L356 524M358 524L359 525L358 524M369 524L367 526L367 527L366 527L366 528L362 531L364 529L364 528L365 528L365 527L369 524M534 524L538 529L543 530L543 529L538 528L534 524M540 524L540 525L543 526L542 524L540 524M548 524L549 525L548 524M550 524L550 525L556 525L556 524L550 524M558 524L558 525L561 525L569 525L569 524L566 524L558 524M574 524L575 525L574 524M389 525L387 528L389 525M393 525L391 528L394 528L393 525M397 525L396 527L397 525M400 525L402 527L400 525M404 525L406 527L404 525M411 525L412 526L411 525M476 525L477 526L476 525M489 525L488 527L489 525M492 525L494 528L492 525M497 525L496 527L497 525M502 525L503 526L502 525M354 526L355 527L354 526M357 526L357 529L358 529L357 526M384 526L383 529L380 530L379 531L378 534L380 533L378 536L379 538L378 540L375 543L373 542L372 543L368 547L368 549L367 550L364 553L362 552L361 553L357 557L358 554L363 550L363 548L364 547L366 545L367 545L367 544L368 544L370 542L370 540L371 539L373 537L374 537L374 536L375 536L377 534L377 532L381 526L384 526M505 526L506 527L505 526M513 526L515 529L513 526M517 526L519 528L519 529L520 529L520 530L523 532L523 534L524 535L526 537L527 537L527 538L528 538L530 540L530 542L531 543L533 545L534 545L534 546L535 546L537 548L537 550L538 551L543 557L542 557L541 554L536 550L536 548L535 547L533 545L532 545L532 544L531 544L529 542L529 540L528 539L526 537L525 537L525 536L524 536L522 534L522 532L521 531L517 526M349 527L350 528L349 527M381 527L382 528L381 527M399 527L400 528L399 527M403 527L404 528L403 527M490 527L491 528L490 527M498 527L499 528L498 527M507 527L508 528L507 527M330 528L331 529L330 528M336 528L337 529L336 528M338 528L339 529L338 528M346 528L347 529L346 528M351 528L349 531L351 528M353 528L353 529L356 529L356 528L353 528M511 528L510 529L511 528M545.667 528.333L546.333 528.667L545.667 528.333M553 528L553 529L556 529L559 529L562 529L562 528L559 528L556 528L553 528M563 528L563 529L567 529L567 528L563 528M568.667 528.333L569.333 528.667L568.667 528.333M574 528L575 529L574 528M387 529L387 532L390 529L387 529M394 529L395 530L394 529M399 532L402 529L399 532M404 532L407 531L410 531L412 531L412 529L410 529L407 529L404 532M415.333 529.667L415.667 530.333L415.333 529.667M419.333 529.667L419.667 530.333L419.333 529.667M423.333 529.667L423.667 530.333L423.333 529.667M476 529L476 531L478 531L478 529L476 529M480 529L480 531L482 531L482 529L480 529M484 529L484 531L486 531L486 529L484 529M488 529L491 531L490 529L488 529M492 529L494 531L492 529M495 529L497 531L495 529M498 529L499 530L498 529M502 529L502 532L503 532L502 529M507 529L509 531L507 529M550 529L551 530L550 529M358 530L356 533L358 530M391 530L390 532L391 530M397 530L398 531L397 530M500 530L501 531L500 530M546 530L547 531L546 530M353 531L352 533L353 531M393 531L394 532L393 531M498 531L499 532L498 531M506 531L507 532L506 531M337 532L338 533L337 532M340 532L341 533L340 532M346 532L347 533L346 532M508 532L509 533L508 532M545 532L545 533L548 533L548 532L545 532M550.667 532.333L551.333 532.667L550.667 532.333M554 532L555 533L554 532M559 532L559 533L567 533L567 532L559 532M383.667 533.667L383.333 534.333L383.667 533.667M390 533L391 534L390 533M396 533L399 536L400 535L400 534L399 533L396 533M401 533L404 536L401 533M404 533L406 535L404 533M498 533L499 534L498 533M501.333 533.667L501.667 534.333L501.333 533.667M505 533L504 535L505 533M510 533L512 535L510 533M521 533L520 534L521 533M377 534L375 536L375 537L374 537L374 538L371 540L371 542L370 543L368 545L367 545L367 546L366 546L364 548L363 552L367 549L367 547L368 546L373 540L375 542L378 538L377 534M388 534L387 536L388 534M399 534L398 535L399 534M491 534L492 535L491 534M508 534L510 536L508 534M517 534L515 536L515 540L515 541L515 542L515 543L518 550L517 547L517 544L517 543L517 541L517 540L517 537L520 537L517 534M484 535L485 536L484 535M499 535L500 536L499 535M506 535L508 537L506 535M518 535L516 537L518 535M542 535L544 537L544 538L545 538L545 539L546 539L546 540L547 540L547 541L550 544L552 544L553 545L555 547L555 548L556 548L556 549L557 549L557 550L558 550L558 551L559 551L559 552L560 552L560 553L562 555L564 555L566 557L564 555L564 554L563 554L563 553L561 551L559 551L558 550L556 548L556 547L555 547L555 546L552 543L550 543L549 542L547 540L547 539L546 539L546 538L542 535M318 536L319 537L318 536M351 536L347 541L345 541L344 542L342 544L342 545L341 545L341 546L338 548L340 546L340 545L341 545L341 544L342 544L342 543L343 543L343 542L345 540L347 540L351 536M354 536L352 538L352 539L351 539L351 540L350 540L350 541L349 541L349 542L347 544L345 544L344 545L342 547L342 548L341 548L341 549L338 551L340 549L340 548L341 548L341 547L342 547L342 546L343 546L343 545L345 543L347 543L348 542L350 540L350 539L351 539L351 538L354 536M511 536L512 537L511 536M540 536L542 538L542 539L543 539L543 540L544 540L544 541L545 541L545 542L546 542L546 543L547 543L547 544L548 544L548 545L549 545L549 546L552 549L554 549L555 550L559 554L557 552L557 551L556 551L556 550L555 550L555 549L554 549L554 548L552 546L550 546L549 545L547 543L547 542L546 542L546 541L545 541L545 540L544 540L544 539L540 536M546 536L550 541L552 541L553 542L555 544L555 545L556 545L556 546L559 549L561 549L562 550L564 552L564 553L565 553L565 554L566 554L566 555L567 555L567 556L571 558L569 556L569 555L568 555L568 554L565 551L563 551L562 550L558 545L556 545L555 544L553 542L553 541L552 541L552 540L550 538L548 538L546 536M550 536L552 538L552 539L553 539L553 540L556 543L558 543L559 544L563 549L566 548L569 549L567 546L565 547L564 545L562 546L559 544L559 541L556 541L555 539L553 539L553 536L550 536M555 536L555 537L556 539L557 540L559 539L562 541L562 544L567 545L567 544L564 543L561 539L559 539L555 536M559 536L560 537L559 536M564 536L568 539L564 536M569.667 536.333L570.333 536.667L569.667 536.333M377 537L374 540L377 537M383 537L384 538L383 537M387 537L388 538L387 537M509 537L508 541L509 541L509 537M513 537L514 538L513 537M521 537L522 538L521 537M553 537L552 538L553 537M578 537L579 538L578 537M322 538L323 539L322 538M511 538L512 539L511 538M519 538L520 541L520 543L520 546L520 547L519 551L523 552L523 549L522 548L520 549L520 542L523 543L522 547L525 549L525 546L523 545L523 544L524 541L519 538M525 538L526 540L525 538M558 538L557 539L558 538M391 539L392 540L391 539M513 539L514 540L513 539M517 539L516 540L517 539M563 539L565 541L563 539M574 539L575 540L574 539M317 540L318 541L317 540M325 540L326 541L325 540M383.333 540.667L383.667 541.333L383.333 540.667M511 540L512 541L511 540M522 540L523 542L522 540M570 540L571 541L570 540M513 541L514 542L513 541M582 541L583 542L582 541M379 542L379 546L376 546L374 548L374 550L369 553L369 556L372 554L372 552L374 550L376 551L377 550L380 546L379 542M507 542L508 543L507 542M511 542L512 543L511 542M517 542L516 543L517 542M525 542L525 545L527 546L527 547C525.604 547.698 525.604 547.302 527 548L525 550L525 551L528 553L528 551L528 550L529 550L529 549L529 547L525 542M559 542L558 543L559 542M563 542L562 543L563 542M567 542L570 545L567 542M578 542L579 543L578 542M321 543L322 544L321 543M332 543L333 544L332 543M383 543L384 544L383 543M513 543L513 545L513 546L512 546L512 547L512 549L513 549L514 547L513 543M574 543L575 544L574 543M582 543L583 544L582 543M318 544L319 545L318 544M391 544L392 545L391 544M507 544L508 545L507 544M530 544L532 547L530 544M373 545L370 548L373 545M383.333 545.667L383.667 546.333L383.333 545.667M387 545L388 546L387 545M517 545L516 546L517 545M317 546L318 547L317 546M378 546L376 550L375 550L378 546M508 546L509 551L510 551L508 546M524 546L523 547L524 546M564 546L565 548L564 546M578 546L579 547L578 546M387 547L388 548L387 547M391 547L392 548L391 547M517 547L516 548L517 547M528 547L527 548L528 547M567 547L566 548L567 547M570 547L571 548L570 547M331 549L332 550L331 549M379 549L377 551L378 553L376 556L377 556L379 556L380 553L379 549M391.333 549.667L391.667 550.333L391.333 549.667M522 549L521 550L522 549M528 549L528 552L527 552L528 549M545 549L547 551L547 552L548 552L548 553L549 553L549 554L550 554L550 555L551 555L551 556L552 556L552 557L553 557L553 558L554 558L554 559L555 559L555 560L556 560L556 561L557 561L557 562L558 562L558 563L559 563L559 564L560 564L560 565L561 565L561 566L562 566L562 567L563 567L563 568L564 568L564 569L565 569L565 570L566 570L566 571L567 571L567 572L568 572L568 573L569 573L569 574L570 574L570 575L571 575L571 576L572 576L572 577L573 577L573 578L574 578L574 579L575 579L575 580L576 580L576 581L577 581L577 582L578 582L578 583L579 583L579 584L580 584L580 585L583 589L582 589L581 586L579 584L578 584L578 583L577 583L577 582L576 582L576 581L575 581L575 580L574 580L574 579L573 579L573 578L572 578L572 577L571 577L571 576L570 576L570 575L569 575L569 574L568 574L568 573L567 573L567 572L566 572L566 571L565 571L565 570L564 570L564 569L563 569L563 568L562 568L562 567L561 567L561 566L560 566L560 565L559 565L559 564L558 564L558 563L557 563L557 562L556 562L556 561L555 561L555 560L554 560L554 559L553 559L550 557L552 559L552 560L553 560L553 561L554 561L554 562L555 562L555 563L556 563L556 564L557 564L557 565L558 565L558 566L559 566L559 567L560 567L560 568L561 568L561 569L564 571L564 573L565 574L567 576L568 576L568 577L569 577L569 578L570 578L570 579L571 579L571 580L572 580L572 581L573 581L573 582L574 582L574 583L575 583L575 584L576 584L576 585L577 585L577 586L578 586L578 587L579 587L579 588L580 588L580 589L581 589L583 593L582 593L581 590L578 589L577 586L575 584L574 584L574 583L573 583L573 582L572 582L572 581L571 581L571 580L570 580L570 579L569 579L569 578L568 578L568 577L567 577L564 574L565 577L567 579L568 579L568 580L569 580L569 581L570 581L570 582L571 582L573 588L569 584L573 587L572 584L570 582L569 582L569 581L568 581L568 580L567 580L567 579L566 579L561 576L561 575L563 576L563 575L561 573L561 572L560 572L560 571L559 571L559 570L558 570L558 569L557 569L557 568L556 568L556 567L553 565L553 563L552 562L550 560L549 560L549 559L548 559L548 558L547 558L547 557L546 557L544 555L544 552L546 554L547 554L547 555L548 555L550 557L549 554L545 549M326 550L327 551L326 550M369 550L366 555L365 555L369 550M512 550C511.125 552.825 510.667 555.069 514 555L514 554L512 555L512 554L512 550M515 550L516 551L515 550M535 550L536 554L535 554L535 550M567 550L571 554L571 551L570 550L567 550M322 551L323 552L322 551M387 551L388 552L387 551M507 551L508 552L507 551M570 551L569 552L570 551M330 552L331 553L330 552M516 552L515 556L518 553L516 552M519 552L520 553L519 552M524 552L524 555L525 555L524 552M532 552L532 555L529 555L532 552M574 552L575 553L574 552M379 553L378 554L379 553M383 553L384 554L383 553M507 553L508 554L507 553M517 553L516 554L517 553M521 553L521 556L522 556L521 553M318 554L317 556L318 554M321 554L322 555L321 554M325 554L326 555L325 554M329 554L330 555L329 554M387 554L388 555L387 554M391 554L392 555L391 554M545 554L547 556L547 557L548 557L548 558L549 558L549 559L550 559L550 560L551 560L551 561L552 561L552 562L554 563L554 565L555 566L557 568L558 568L558 569L559 569L559 570L560 570L560 571L561 571L564 574L563 571L561 569L560 569L560 568L559 568L559 567L558 567L558 566L557 566L557 565L556 565L556 564L555 564L555 563L554 563L554 562L553 562L553 561L552 561L552 560L551 560L551 559L550 559L550 558L549 558L549 557L548 557L548 556L547 556L545 554M582 554L583 555L582 554M508 555L509 556L508 555M526 555L527 556L526 555M578 555L578 557L580 557L578 555M290 556L291 557L290 556M298 556L299 557L298 556M303 556L304 557L303 556M311 556L312 557L311 556M327.667 556.333L328.333 556.667L327.667 556.333M574 556L575 557L574 556M582 556L583 557L582 556M584 556L585 557L584 556M597 556L598 557L597 556M599 556L600 557L599 556M601 556L602 557L601 556M610 556L611 557L610 556M353 557L351 560L353 557M366 557L365 559L366 557M374 557L375 558L374 557M376 557L375 560L376 557M391 557L392 558L391 557M509 557L510 558L509 557M515 557L516 558L515 557M522 557L524 559L522 557M526 557L526 558L529 558L529 557L526 557M541 557L543 561L542 561L541 557M563 557L565 559L565 560L566 560L566 561L567 561L567 562L568 562L568 563L571 565L569 563L569 562L568 562L568 561L567 561L567 560L566 560L566 559L563 557M372 558L373 559L372 558M383 558L384 559L383 558M507 558L508 559L507 558M511 558L512 559L511 558M517 558L516 560L517 558M520 558L522 560L520 558M535 558L534 559L535 558M537 558L536 559L537 558M322 559L323 560L322 559M525 559L526 560L525 559M529 559L530 560L529 559M290 560L291 561L290 560M301 560L302 561L301 560M306 560L307 561L306 560M318 560L319 561L318 560M325 562L328 560L325 562M570 560L571 561L570 560M574 560L575 561L574 560M578 560L578 561L579 561L580 561L581 561L581 560L580 560L578 560M587 560L588 561L587 560M589 560L590 561L589 560M598 560L599 561L598 560M610 560L611 561L610 560M321 561L322 562L321 561M349 561L350 562L349 561M353 561L351 564L353 561M364 561L365 562L364 561M371 561L372 562L371 561M375 561L372 563L372 564L375 564L377 561L375 561M379 561L378 564L379 564L379 561M383 561L384 562L383 561M387.333 561.667L387.667 562.333L387.333 561.667M507 561L510 564L509 561L507 561M511 561L514 564L513 561L511 561M515 561L518 564L518 561L515 561M519 561L520 564L521 564L522 561L519 561M523 561L526 564L527 564L526 561L523 561M529 561L530 562L529 561M531.333 561.667L531.667 562.333L531.333 561.667M541 561L543 565L542 565L541 561M346 562L344 565L346 562M362 562L361 564L362 562M368 562L369 563L368 562M391.333 562.667L391.667 563.333L391.333 562.667M316 564L316 565L320 565L320 564L318 563L316 564M383 563L384 564L383 563M528 563L529 564L528 563M290 564L291 565L290 564M301 564L302 565L301 564M309 564L310 565L309 564M313 564L314 565L313 564M322 564L321 566L322 564M325 564L326 565L325 564M545 564L548 568L545 568L544 567L545 564M574 564L575 565L574 564M578 564L578 565L579 565L580 565L581 565L581 564L580 564L578 564M592 564L593 565L592 564M594 564L595 565L594 564M610 564L611 565L610 564M346 565L344 567L344 568L343 568L343 569L341 571L343 569L344 569L344 568L345 568L346 565M357 565L356 566L357 565M361 565L362 566L361 565M367 565L368 566L367 565M371 565L370 566L370 567L371 568L372 568L373 567L373 566L371 565M376 565L377 566L376 565M378 565L378 568L379 568L378 565M391 565L392 566L391 565M507 565L508 566L507 565M525 565L527 567L527 565L525 565M528 565L531 567L531 566L528 565M532 565L533 566L532 565M541 565L542 567L541 565M353 566L352 567L353 566M359 566L359 569L360 569L359 566M364 566L365 567L364 566M372 566L371 567L372 566M522 566L524 568L522 566M545 566L546 567L545 566M348 567L345 571L348 567M367 567L368 568L367 567M508 567L509 568L508 567M532 567L533 568L532 567M300 568L297 572L300 568M304 568L303 570L304 568M308 568L305 572L308 568M313 568L310 569L307 573L310 570L312 571L313 568M551 568L556 573L551 568M596 569L596 570L599 570L600 572L601 574L602 574L603 570C600.351 570.53 599.393 570.428 600 568L598 568L596 569M601 568L602 569L601 568M587 569L588 570L587 569M610 569L611 570L610 569M348 570L346 572L346 576L343 576L342 577L341 578L341 582L337 583L337 586L339 584L341 585L343 583L343 579L347 578C346.47 575.351 346.572 574.393 349 575L348 570M540 570L542 572L540 570M543 570L546 573L543 570M343 571L344 572L343 571M549 571L550 572L549 571M551 571L551 576L555 577L555 574L551 571M592 571L594 573L592 571M310 572L311 573L310 572M341 572L340 574L341 572M348 572L347 573L348 572M588 572L589 573L588 572M597 572L598 573L597 572M606 572L607 573L606 572M286 573L287 574L286 573M302 573L298 578L302 573M343 573L339 578L343 573M360 573L361 574L360 573M539 573L540 574L539 573M543 573L546 576L543 573M549 573L550 574L549 573M553 573L554 575L553 573M557 573L557 576L562 580L561 584L565 587L562 584L563 580L557 573M304 574L302 576L302 577L301 577L301 578L299 580L302 577L304 578L305 577L306 576L307 574L304 574M338 574L334 578L335 580L333 582L336 580L335 578L336 577L338 576L338 574M305 575L303 577L305 575M352 575L353 576L352 575M360 575L361 576L360 575M539 575L540 576L539 575M594 575L596 577L594 575M606 575L607 576L606 575M610 575L611 576L610 575M345 576L346 577L346 578L345 579L342 579L345 576M356 576L356 583L356 584L355 587L356 587L357 585L356 583L356 581L356 576M541 576L542 577L541 576M548 576L547 577L550 580L548 576M589 576L591 578L589 576M598 576L601 579L598 576M602 576L603 577L602 576M344 577L345 578L344 577M352 577L353 578L352 577M360 577L360 580L361 580L360 577M539 577L540 578L539 577M543 577L543 587L546 587L545 584L546 581L543 577M549 577L548 578L549 577M556 577L559 583L560 583L560 580L556 577M606 577L607 578L606 577M337 578L338 579L337 578M348 578L345 582L348 578M541 578L542 579L541 578M553 578L556 581L553 578M610 578L611 579L610 578M614 578L615 579L614 578M302 579L301 581L302 579M339 579L340 580L339 579M351 579L352 580L351 579M539 579L540 580L539 579M551 579L555 583L551 579M596 579L598 581L596 579M337 580L334 583L335 587L336 587L335 583L337 580M541 580L542 581L541 580M591 580L594 583L591 580M285 581L286 582L285 581M298 581L297 583L298 581M360 581L361 582L360 581M545 581L544 582L545 581M564 581L564 584L568 587L566 585L567 583L564 581M601 581L603 583L601 581M331 582L327 586L328 588L325 591L329 588L328 586L329 585L331 584L331 582M342 582L342 583L338 584L342 582M347 582L346 586L349 583L347 582M351 582L352 583L351 582M541 582L542 583L541 582M348 583L347 584L348 583M359 583L359 587L360 587L359 583M545 583L544 584L545 583M552 583L554 585L552 583M557 583L561 587L557 583M566 583L565 584L566 583M606 583L607 584L606 583M332 584L330 587L333 587L332 584M343 584L342 586L343 584M351 584L352 585L351 584M540 584L541 585L540 584M547 584L547 587L548 587L547 584M598 584L602 588L598 584M556 585L558 587L556 585M340 586L341 587L340 586M344 586L345 587L344 586M348 586L349 587L348 586M351 586L352 587L351 586M540 586L541 587L540 586M594 586L598 590L594 586M610 586L613 589L610 586M614 586L616 588L614 586M605 587L607 589L605 587M608 587L611 590L608 587M619 587L619 588L623 589L623 588L619 587M624 587L624 588L628 589L628 588L624 587M629 587L629 588L633 589L633 588L629 587M258 588L259 589L258 588M266 588L267 589L266 588M328 590L328 591L331 591L328 590M332 589L334 591L332 589M335 589L336 590L335 589M339 589L338 591L339 589M345 589L345 591L347 589L345 589M355 589L356 590L355 589M359 589L360 590L359 589M543 589L543 590L543 591L546 591L546 590L543 589M547 589L548 590L547 589M549 589L550 590L549 589M551 589L552 590L551 589M557 589L558 590L557 589M562 589L564 591L562 589M565 589L566 590L565 589M568 589L567 591L568 589M577 589L579 591L579 592L580 592L580 593L583 595L583 597L580 599L579 598L579 597L582 597L577 594L577 589M341 590L342 591L341 590M348 590L349 591L348 590M539 590L540 591L539 590M553 590L554 591L553 590M560 590L561 591L560 590M572 590L573 592L572 590M602 590L605 593L602 590M254 591L255 592L254 591M262 591L263 592L262 591M279 591L280 592L279 591M323 591L324 592L323 591M616 591L618 593L616 591M620 591L622 593L620 591M623 591L623 592L628 593L628 592L623 591M629 591L629 592L633 593L633 592L629 591M257 592L258 593L257 592M265 592L266 593L265 592M268 592L269 593L268 592M271 592L272 593L271 592M328 592L327 595L327 598L328 598L328 592M598 592L603 597L598 592M607 592L608 593L607 592M611 592L612 593L611 592M614 592L615 593L614 592M324 593L323 596L323 598L323 599L324 599L324 600L323 603L324 603L326 599L326 598L324 597L324 596L327 593L324 593M333 593L334 594L333 593M336 593L335 595L336 593M342 593L343 594L342 593M351 593L352 594L351 593M360 593L361 594L360 593M541 593L540 595L541 593M547 593L548 594L547 593M554 593L555 594L554 593M556 593L558 595L556 593M560 593L561 594L560 593M564 593L565 594L564 593M567 593L566 595L567 593M570 593L569 595L570 593M331 594L332 595L331 594M338 594L339 595L338 594M356 594L357 595L356 594M543 594L544 595L543 594M549 594L550 595L549 594M562 594L563 595L562 594M574 594L573 595L574 594M606 594L607 595L606 594M253 595L254 596L253 595M261 595L262 596L261 595M278 595L277 597L278 595M610 595L612 597L610 595M614 595L616 597L614 595M617 595L619 597L617 595M620 595L621 596L620 595M625 595L627 597L625 595M628 595L628 596L633 597L633 596L628 595M266 596L267 597L266 596M273 596L274 597L273 596M282 596L283 597L282 596M321 597L319 599L321 597M330 597L329 599L330 597M333 597L332 599L333 597M339 597L340 598L339 597M343 597L343 598L346 598L346 597L343 597M347 597L349 599L347 597M356 597L355 599L356 597M360 597L361 598L360 597M543 597L543 599L545 597L543 597M551 597L551 598L553 599L557 599L557 598L555 597L551 597M559 597L561 599L559 597M563 597L565 599L563 597M566 597L567 598L566 597M570 597L572 599L571 601L573 602L573 607L574 607L574 605L574 604L573 604L573 603L574 602L572 601L573 599L570 597M580 597L581 598L580 597M325 598L324 599L325 598M335 598L336 599L335 598M341 598L342 599L341 598M549 598L550 599L549 598M568 598L569 599L568 598M276 599L277 600L276 599M327 599L328 600L327 599M605 599L607 601L605 599M608 599L610 601L610 602L611 602L611 603L612 603L612 604L613 604L613 605L616 607L614 605L614 604L613 604L613 603L612 603L612 602L611 602L611 601L608 599M619 599L621 601L621 602L622 602L622 603L625 605L623 603L623 602L622 602L622 601L619 599M622 599L627 604L622 599M258 600L259 601L258 600M261 600L262 601L261 600M268 600L267 602L268 600M272 600L271 602L272 600M281 600L282 601L281 600M581 600L580 601L581 600M613 600L615 602L615 603L616 603L616 604L617 604L617 605L618 605L618 606L621 608L619 606L619 605L618 605L618 604L617 604L617 603L616 603L616 602L613 600M616 600L618 602L618 603L619 603L619 604L620 604L620 605L621 605L621 606L624 608L622 606L622 605L621 605L621 604L620 604L620 603L619 603L619 602L616 600M327 601L328 602L327 601M275 602L274 604L275 602M581 602L580 603L581 602M254 603L253 605L254 603M257 603L258 604L257 603M280 603L281 604L280 603M328 603L329 604L328 603M270 604L269 606L270 604M323 604L324 605L323 604M581 604L580 605L581 604M262 605L261 607L262 605M266 605L265 607L266 605M328 605L329 606L328 605M577 605L576 606L577 605M258 606L259 607L258 606M323 606L324 607L323 606M581 606L580 607L581 606M273 607L272 609L273 607M279 607L277 610L279 607M328 607L327 609L328 607M571 607L572 608L571 607M268 608L266 611L268 608M324 608L325 609L324 608M573 608L574 609L573 608M254 609L253 611L254 609M257 609L258 610L257 609M319 609L320 610L319 609M571 609L572 610L571 609M324 610L325 611L324 610M327 610L328 611L327 610M573 610L574 611L573 610M262 611L261 613L262 611M271 611L269 614L271 611M319 611L320 612L319 611M571 611L572 615L573 615L571 611M258 612L259 613L258 612M276 612L274 615L276 612M316 612L314 614L314 616L313 617L311 618L310 619L310 621L309 622L305 625L305 627L304 628L302 629L301 630L301 632L300 633L296 636L296 638L295 639L293 640L292 641L292 643L291 644L287 647L287 649L286 650L284 651L283 652L283 654L282 655L278 658L278 660L277 661L275 662L274 663L274 665L273 666L269 669L269 671L268 672L266 673L265 676L269 676L270 676L271 676L272 676L273 676L274 676L275 676L276 676L277 676L278 676L279 676L280 676L281 676L282 676L283 676L284 676L285 676L286 676L287 676L288 676L289 676L290 676L291 676L292 676L293 676L294 676L295 676L296 676L297 676L298 676L299 676L300 676L301 676L302 676L303 676L304 676L305 676L306 676L307 676L308 676L309 676L310 676L311 676L312 676L317 676L317 672L317 671L317 670L317 669L317 668L317 667L317 666L317 665L317 664L317 663L317 662L317 661L317 660L317 659L317 658L317 657L317 656L317 655L317 654L317 653L317 652L317 651L317 650L317 649L317 648L317 647L317 646L317 645L317 644L317 643L317 642L317 641L317 640L317 639L317 638L317 637L317 636L317 635L317 634L317 633L317 632L317 631L317 630L317 629L317 628L317 627L317 626L317 625L317 624L317 623L317 622L317 621L317 620L317 619L317 618L317 617L316 612M324 612L325 613L324 612M328 612L329 613L328 612M319 613L320 614L319 613M583 613L583 617L583 618L583 619L583 620L583 621L583 622L583 623L583 624L583 625L583 626L583 627L583 628L583 629L583 630L583 631L583 632L583 633L583 634L583 635L583 636L583 637L583 638L583 639L583 640L583 641L583 642L583 643L583 644L583 645L583 646L583 647L583 648L583 649L583 650L583 651L583 652L583 653L583 654L583 655L583 656L583 657L583 658L583 659L583 660L583 661L583 662L583 663L583 664L583 665L583 666L583 667L583 668L583 669L583 670L583 671L583 672L583 676L587 676L588 676L589 676L590 676L591 676L592 676L593 676L594 676L595 676L596 676L597 676L598 676L599 676L600 676L601 676L602 676L603 676L604 676L605 676L606 676L607 676L608 676L609 676L610 676L611 676L612 676L613 676L614 676L615 676L616 676L617 676L618 676L619 676L620 676L621 676L622 676L623 676L624 676L625 676L626 676L627 676L628 676L629 676L630 676L634 676L633 673L631 672L630 671L631 668L625 665L626 662L621 660L621 656L616 654L616 650L612 649L610 646L611 644L607 643L606 638L605 637L603 638L601 632L600 631L598 632L596 626L594 625L591 620L589 619L583 613M265 614L266 615L265 614M324 614L325 615L324 614M328 614L329 615L328 614M254 615L253 617L254 615M257 615L258 616L257 615M307 615L306 617L307 615M319 615L320 616L319 615M588 615L589 616L588 615M324 616L323 620L324 620L324 616M328 616L329 617L328 616M572 616L573 617L572 616M575 616L576 617L575 616M592 616L593 617L592 616M258 617L259 618L258 617M262 617L263 618L262 617M268 617L265 621L268 617M303 617L304 618L303 617M319 617L320 618L319 617M577 617L578 618L577 617M595 617L596 618L595 617M254 618L255 619L254 618M273 618L269 623L273 618M299 618L300 619L299 618M572 618L574 620L572 618M575 618L576 619L575 618M598 618L599 619L598 618M296 619L297 620L296 619M319 619L320 620L319 619M577 619L578 620L577 619M602 619L603 620L602 619M261 620L262 621L261 620M292 620L290 623L292 620M306 620L307 621L306 620M571 620L572 621L571 620M575 620L576 621L575 620M605 620L608 623L605 620M253 621L254 622L253 621M257 621L258 622L257 621M302 621L300 624L302 621M320 621L321 622L320 621M323 621L324 622L323 621M327 621L328 622L327 621M573 621L574 622L573 621M577 621L578 622L577 621M593 621L595 623L593 621M571 622L573 624L571 622M575 622L577 624L575 622M258 623L259 624L258 623M287 623L285 626L287 623M320 623L321 624L320 623M323 623L324 624L323 623M327 623L328 624L327 623M598 623L599 624L598 623M611 623L614 626L611 623M254 624L253 626L254 624M298 624L299 625L298 624M601 624L603 626L601 624M262 625L261 627L262 625M268 625L265 629L268 625M296 625L297 626L296 625M320 625L321 626L320 625M323 625L324 626L323 625M328 625L329 626L328 625M572 625L573 626L572 625M576 625L577 626L576 625M281 626L277 631L281 626M292 626L291 628L292 626M301 626L302 627L301 626M605 626L607 628L605 626M616 626L621 631L616 626M257 627L258 628L257 627M298 627L299 628L298 627M320 627L321 628L320 627M324 627L325 628L324 627M328 627L329 628L328 627M572 627L573 628L572 627M576 627L577 628L576 627M579 627L580 628L579 627M598 627L600 629L598 627M288 628L286 631L288 628M296 628L294 631L296 628M581 628L582 629L581 628M610 628L613 631L610 628M258 629L259 630L258 629M320 629L321 630L320 629M324 629L325 630L324 629M571 629L572 630L571 629M576 629L578 631L576 629M579 629L580 630L579 629M603 629L605 631L603 629M254 630L253 632L254 630M581 630L582 631L581 630M262 631L261 633L262 631M274 631L272 633L272 634L271 634L271 635L270 635L270 636L269 636L269 637L268 637L268 638L267 638L267 639L265 641L267 639L268 639L268 638L269 638L269 637L270 637L270 636L271 636L271 635L272 635L272 634L273 634L274 631M282 631L278 636L282 631M292 631L291 633L292 631M298 631L299 632L298 631M320 631L321 632L320 631M324 631L325 632L324 631M571 631L572 632L571 631M575 631L576 632L575 631M579 631L580 632L579 631M607 631L610 634L607 631M615 631L620 636L615 631M624 631L626 633L626 634L627 634L627 635L628 635L628 636L629 636L629 637L630 637L630 638L631 638L631 639L634 641L632 639L632 638L631 638L631 637L630 637L630 636L629 636L629 635L628 635L628 634L627 634L627 633L624 631M296 632L297 633L296 632M327 632L328 633L327 632M573 632L574 633L573 632M577 632L578 633L577 632M581 632L582 633L581 632M600 632L599 633L600 632M257 633L258 634L257 633M289 633L290 634L289 633M293 633L294 634L293 633M320 633L321 634L320 633M324 633L325 634L324 633M575 633L576 634L575 633M579 633L580 634L579 633M603 633L606 636L603 633M285 634L282 638L285 634M291 634L287 638L287 641L288 641L288 638L291 634M328 634L329 635L328 634M573 634L574 635L573 634M577 634L578 635L577 634M581 634L582 635L581 634M612 634L616 638L612 634M258 635L259 636L258 635M320 635L321 636L320 635M575 635L576 636L575 635M579 635L580 636L579 635M254 636L253 638L254 636M275 636L273 638L273 639L272 639L272 640L270 642L272 640L273 640L273 639L274 639L275 636M328 636L329 637L328 636M572 636L573 637L572 636M577 636L578 637L577 636M581 636L582 637L581 636M609 636L612 639L609 636M623 636L625 638L625 639L626 639L626 640L629 642L627 640L627 639L626 639L626 638L623 636M293 637L294 638L293 637M320 637L321 638L320 637M575 637L576 638L575 637M579 637L580 638L579 637M279 638L276 642L279 638M291 638L292 639L291 638M323 638L324 639L323 638M328 638L329 639L328 638M572 638L573 639L572 638M577 638L578 639L577 638M581 638L582 639L581 638M605 638L604 639L605 638M619 638L623 642L619 638M285 639L285 642L281 646L282 647L283 647L284 646L286 642L285 639M320 639L321 640L320 639M579 639L580 640L579 639M608 639L611 642L608 639M614 639L617 642L614 639M323 640L324 641L323 640M572 640L573 641L572 640M577 640L578 641L577 640M581 640L582 641L581 640M282 641L283 642L282 641M579 641L580 642L579 641M266 642L265 644L266 642M272 642L270 644L270 645L269 645L269 646L266 649L268 647L269 647L269 646L270 646L272 642M278 642L274 647L278 642M289 642L288 644L289 642M323 642L324 643L323 642M576 642L577 643L576 642M581 642L582 643L581 642M614 642L618 646L614 642M619 642L624 647L619 642M625 642L627 644L627 645L628 645L628 646L632 649L630 647L630 646L629 646L629 645L625 642M631 642L634 645L631 642M327 643L328 644L327 643M579 643L580 644L579 643M609 643L610 645L609 643M286 644L287 645L286 644M319 644L320 645L319 644M324 644L325 645L324 644M576 644L577 645L576 644M581 644L582 645L581 644M283 645L282 646L283 645M327 645L328 646L327 645M573 645L574 646L573 645M613 645L617 649L613 645M262 646L261 648L262 646M279 646L277 648L278 650L275 653L276 654L279 652L278 650L281 647L279 646M319 646L320 647L319 646M324 646L325 647L324 646M576 646L577 647L576 646M581 646L582 647L581 646M620 646L625 651L620 646M271 647L269 649L269 650L268 650L268 651L266 653L268 651L269 651L269 650L270 650L271 647M280 647L278 649L280 647M328 647L329 648L328 647M573 647L574 648L573 647M627 647L629 649L629 650L630 650L630 651L633 653L631 651L631 650L630 650L630 649L627 647M284 648L283 650L284 648M319 648L320 649L319 648M576 648L577 649L576 648M580 648L581 649L580 648M275 649L274 651L275 649M572 649L573 650L572 649M614 649L615 651L614 649M620 649L624 653L620 649M258 650L257 652L258 650M262 650L261 652L262 650M281 650L282 651L281 650M319 650L320 651L319 650M575 650L576 651L575 650M580 650L581 651L580 650M270 651L268 653L268 654L267 654L267 655L265 657L267 655L268 655L268 654L269 654L270 651M278 651L276 653L278 651M571 651L572 652L571 651M618 651L623 656L618 651M627 651L629 653L629 654L630 654L630 655L633 657L631 655L631 654L630 654L630 653L627 651M319 652L320 653L319 652M575 652L576 653L575 652M580 652L581 653L580 652M262 653L261 655L262 653M273 653L270 657L273 653M280 653L278 656L280 653M571 653L572 654L571 653M626 653L628 655L628 656L629 656L629 657L632 659L630 657L630 656L629 656L629 655L626 653M258 654L257 656L258 654M319 654L320 655L319 654M327 654L328 655L327 654M575 654L576 655L575 654M580 654L581 655L580 654M618 654L620 657L618 654M276 656L277 657L276 656M319 656L320 657L319 656M580 656L581 657L580 656M626 656L631 661L626 656M258 657L257 659L258 657M262 657L261 659L262 657M268 657L267 659L268 657M273 657L271 660L273 657M571 657L572 658L571 657M577 657L578 658L577 657M623 657L628 662L623 657M254 658L255 659L254 658M319 658L320 659L319 658M328 658L329 659L328 658M580 658L581 659L580 658M275 659L273 662L275 659M323 659L324 660L323 659M572 659L572 662L573 662L572 659M577 659L578 660L577 659M262 660L261 662L262 660M268 660L269 661L268 660M319 660L320 661L319 660M327 660L328 661L327 660M580 660L581 661L580 660M623 660L625 663L623 660M254 661L255 662L254 661M258 661L257 663L258 661M266 661L265 663L266 661M323 661L324 662L323 661M577 661L578 662L577 661M633 661L634 662L633 661M271 662L272 663L271 662M319 662L320 663L319 662M580 662L581 663L580 662M631 662L634 665L631 662M268 663L265 667L268 663M571 663L572 664L571 663M577 663L578 664L577 663M258 664L257 666L258 664M271 664L268 668L271 664M320 664L321 665L320 664M575 664L575 667L576 667L575 664M580 664L581 665L580 664M261 665L262 666L261 665M324 665L325 666L324 665M328 665L329 666L328 665M572 665L573 666L572 665M627 665L630 669L627 665M320 666L321 667L320 666M580 666L581 667L580 666M262.333 667.667L262.667 668.333L262.333 667.667M323 667L324 668L323 667M573 667L574 668L573 667M577 667L578 668L577 667M266 668L267 669L266 668M320 668L321 669L320 668M575 668L576 669L575 668M580 668L581 669L580 668M258 670L257 672L258 670M262 670L261 672L262 670M266 670L265 672L266 670M571 670C571.013 673.194 570.597 675.271 574 676L571 670M575 670C575.013 673.194 574.597 675.271 578 676L575 670M579 670C579.013 673.194 578.597 675.271 582 676L579 670M320 672L319 676L320 672M324 672L323 676L324 672M328 672L327 676L328 672M254 673L253 676L254 673M258 673L257 676L258 673M262 673L261 676L262 673M295 678L296 679L295 678M602 678L603 679L602 678M278 679L279 680L278 679M620 679L621 680L620 679M265 680L266 681L265 680M311 680L312 681L311 680M586 680L587 681L586 680M633 680L634 681L633 680M293 681L294 682L293 681M604 681L605 682L604 681M283 682L284 683L283 682M315 682L316 683L315 682M615 682L616 683L615 682M261 685L262 686L261 685M283 685L284 686L283 685M308 685L309 686L308 685M589 685L590 686L589 685M614 685L615 686L614 685M277 686L278 687L277 686M298 686L299 687L298 686M320 686L321 687L320 686M577 686L578 687L577 686M600 686L601 687L600 686M620 686L621 687L620 686M278 689L279 690L278 689M296 689L297 690L296 689M311 689L312 690L311 689M586 689L587 690L586 689M602 689L603 690L602 689M620 689L621 690L620 689M257 690L258 691L257 690M272 690L273 691L272 690M287 690L288 691L287 690M305 690L306 691L305 690M577 690L578 691L577 690M592 690L593 691L592 690M610 690L611 691L610 690M626 690L627 691L626 690M272 693L273 694L272 693M285 693L286 694L285 693M301 693L302 694L301 693M314 693L315 694L314 693M327 693L328 694L327 693M571 693L572 694L571 693M584 693L585 694L584 693M597 693L598 694L597 693M612 693L613 694L612 693M625 693L626 694L625 693M269 694L270 695L269 694M282 694L283 695L282 694M295 694L296 695L295 694M308 694L309 695L308 694M576 694L577 695L576 694M589 694L590 695L589 694M602 694L603 695L602 694M616 694L617 695L616 694M629 694L630 695L629 694z"/>
</svg>
