<?xml version="1.0" standalone="yes"?>
<svg width="900" height="900">
<path style="fill:#010101; stroke:none;" d="M380 252L380 256L380 257L380 258L380 259L380 260L380 261L380 262L380 263L380 264L380 265L380 266L380 267L380 268L380 269L380 270L380 271L380 272L380 273L380 274L380 275L380 276L380 277L380 278L380 279L380 280L380 281L380 282L380 283L380 284L380 285L380 286L380 287L380 288L380 289L380 290L380 291L380 292L380 293L380 294L380 295L380 296L380 297L380 298L380 299L380 300L380 301L380 302L380 303L380 304L380 305L380 306L380 307L380 308L380 309L380 310L380 311L380 312L380 313L380 314L380 315L380 316L380 317L380 318L380 319L380 320L380 321L380 322L380 323L380 324L380 325L380 326L380 327L380 328L380 329L380 330L380 331L380 332L380 333L380 334L380 335L380 336L380 337L380 338L380 339L380 340L380 341L380 342L380 343L380 344L380 345L380 346L380 347L380 348L380 349L380 350L380 351L380 352L380 353L380 354L380 355L380 356L380 357L380 358L380 359L380 360L380 361L380 362L380 363L380 364L380 365L380 366L380 367L380 368L380 369L380 370L380 371L380 372L380 373L380 374L380 375L380 382L383 384L383 380L383 379L383 378L383 377L383 376L383 375L383 374L383 373L383 372L383 371L383 370L383 369L383 368L383 367L383 366L383 365L383 364L383 363L383 362L383 361L383 360L383 359L383 358L383 357L383 356L383 355L383 354L383 353L383 352L383 351L383 350L383 349L383 348L383 347L383 346L383 345L383 344L383 343L383 342L383 341L383 340L383 339L383 338L383 337L383 336L383 335L383 334L383 333L383 332L383 331L383 330L383 329L383 328L383 327L383 326L383 325L383 324L383 323L383 322L383 321L383 320L383 319L383 318L383 317L383 316L383 315L383 314L383 313L383 312L383 311L383 310L383 309L383 308L383 307L383 306L383 305L383 304L383 303L383 302L383 301L383 300L383 299L383 298L383 297L383 296L383 295L383 294L383 293L383 292L383 291L383 290L383 289L383 288L383 287L383 286L383 285L383 284L383 283L383 282L383 281L383 280L383 279L383 278L383 277L383 276L383 275L383 274L383 273L383 272L383 271L383 270L383 269L383 268L383 267L383 266L383 265L383 258L380 252M384 253L384 257L384 258L384 259L384 260L384 261L384 262L384 263L384 264L384 265L384 266L384 267L384 268L384 269L384 270L384 271L384 272L384 273L384 274L384 275L384 276L384 277L384 278L384 279L384 280L384 281L384 282L384 283L384 284L384 285L384 286L384 287L384 288L384 289L384 290L384 291L384 292L384 293L384 294L384 295L384 296L384 297L384 298L384 299L384 300L384 301L384 302L384 303L384 304L384 305L384 306L384 307L384 308L384 309L384 310L384 311L384 312L384 313L384 314L384 315L384 316L384 317L384 318L384 319L384 320L384 321L384 322L384 323L384 324L384 325L384 326L384 327L384 328L384 329L384 330L384 331L384 332L384 333L384 334L384 335L384 336L384 337L384 338L384 339L384 340L384 341L384 342L384 343L384 344L384 345L384 346L384 347L384 348L384 349L384 350L384 351L384 352L384 353L384 354L384 355L384 356L384 357L384 358L384 359L384 360L384 361L384 362L384 363L384 364L384 365L384 366L384 367L384 368L384 369L384 370L384 371L384 372L384 373L384 374L384 375L384 376L384 377L384 378L384 379L384 380L384 386L387 388L387 384L387 383L387 382L387 381L387 380L387 379L387 378L387 377L387 376L387 375L387 374L387 373L387 372L387 371L387 370L387 369L387 368L387 367L387 366L387 365L387 364L387 363L387 362L387 361L387 360L387 359L387 358L387 357L387 356L387 355L387 354L387 353L387 352L387 351L387 350L387 349L387 348L387 347L387 346L387 345L387 344L387 343L387 342L387 341L387 340L387 339L387 338L387 337L387 336L387 335L387 334L387 333L387 332L387 331L387 330L387 329L387 328L387 327L387 326L387 325L387 324L387 323L387 322L387 321L387 320L387 319L387 318L387 317L387 316L387 315L387 314L387 313L387 312L387 311L387 310L387 309L387 308L387 307L387 306L387 305L387 304L387 303L387 302L387 301L387 300L387 299L387 298L387 297L387 296L387 295L387 294L387 293L387 292L387 291L387 290L387 289L387 288L387 287L387 286L387 285L387 284L387 283L387 282L387 281L387 280L387 279L387 278L387 277L387 276L387 275L387 274L387 273L387 272L387 271L387 270L387 269L387 268L387 267L387 266L387 265L387 259L384 253M388 253L388 257L388 258L388 259L388 260L388 261L388 262L388 263L388 264L388 265L388 266L388 267L388 268L388 269L388 270L388 271L388 272L388 273L388 274L388 275L388 276L388 277L388 278L388 279L388 280L388 281L388 282L388 283L388 284L388 285L388 286L388 287L388 288L388 289L388 290L388 291L388 292L388 293L388 294L388 295L388 296L388 297L388 298L388 299L388 300L388 301L388 302L388 303L388 304L388 305L388 306L388 307L388 308L388 309L388 310L388 311L388 312L388 313L388 314L388 315L388 316L388 317L388 318L388 319L388 320L388 321L388 322L388 323L388 324L388 325L388 326L388 327L388 328L388 329L388 330L388 331L388 332L388 333L388 334L388 335L388 336L388 337L388 338L388 339L388 340L388 341L388 342L388 343L388 344L388 345L388 346L388 347L388 348L388 349L388 350L388 351L388 352L388 353L388 354L388 355L388 356L388 357L388 358L388 359L388 360L388 361L388 362L388 363L388 364L388 365L388 366L388 367L388 368L388 369L388 370L388 371L388 372L388 373L388 374L388 375L388 376L388 377L388 378L388 379L388 380L388 381L388 382L388 383L388 384L388 389L391 391L391 387L391 386L391 385L391 384L391 383L391 382L391 381L391 380L391 379L391 378L391 377L391 376L391 375L391 374L391 373L391 372L391 371L391 370L391 369L391 368L391 367L391 366L391 365L391 364L391 363L391 362L391 361L391 360L391 359L391 358L391 357L391 356L391 355L391 354L391 353L391 352L391 351L391 350L391 349L391 348L391 347L391 346L391 345L391 344L391 343L391 342L391 341L391 340L391 339L391 338L391 337L391 336L391 335L391 334L391 333L391 332L391 331L391 330L391 329L391 328L391 327L391 326L391 325L391 324L391 323L391 322L391 321L391 320L391 319L391 318L391 317L391 316L391 315L391 314L391 313L391 312L391 311L391 310L391 309L391 308L391 307L391 306L391 305L391 304L391 303L391 302L391 301L391 300L391 299L391 298L391 297L391 296L391 295L391 294L391 293L391 292L391 291L391 290L391 289L391 288L391 287L391 286L391 285L391 284L391 283L391 282L391 281L391 280L391 279L391 278L391 277L391 276L391 275L391 274L391 273L391 272L391 271L391 270L391 269L391 268L391 267L391 266L391 265L391 264L391 259L388 253M392 253L392 257L392 258L392 259L392 260L392 261L392 262L392 263L392 264L392 265L392 266L392 267L392 268L392 269L392 270L392 271L392 272L392 273L392 274L392 275L392 276L392 277L392 278L392 279L392 280L392 281L392 282L392 283L392 284L392 285L392 286L392 287L392 288L392 289L392 290L392 291L392 292L392 293L392 294L392 295L392 296L392 297L392 298L392 299L392 300L392 301L392 302L392 303L392 304L392 305L392 306L392 307L392 308L392 309L392 310L392 311L392 312L392 313L392 314L392 315L392 316L392 317L392 318L392 319L392 320L392 321L392 322L392 323L392 324L392 325L392 326L392 327L392 328L392 329L392 330L392 331L392 332L392 333L392 334L392 335L392 336L392 337L392 338L392 339L392 340L392 341L392 342L392 343L392 344L392 345L392 346L392 347L392 348L392 349L392 350L392 351L392 352L392 353L392 354L392 355L392 356L392 357L392 358L392 359L392 360L392 361L392 362L392 363L392 364L392 365L392 366L392 367L392 368L392 369L392 370L392 371L392 372L392 373L392 374L392 375L392 376L392 377L392 378L392 379L392 380L392 381L392 382L392 383L392 384L392 385L392 386L392 387L392 388L392 392L394 394L395 394L395 395L396 395L396 396L397 396L397 397L398 397L398 398L399 398L399 399L400 399L400 400L401 400L401 401L402 401L402 402L403 402L403 403L404 403L404 404L405 404L405 405L406 405L408 407L408 411L408 412L408 413L408 414L408 415L408 416L408 417L408 418L408 419L408 420L408 421L408 422L408 423L408 424L408 425L408 426L408 427L408 428L408 429L408 430L408 431L408 432L408 433L408 434L408 435L408 436L408 437L408 438L408 445L402 444L401 447L392 446L392 450L392 451L392 452L392 453L392 454L392 455L392 456L392 457L392 458L392 459L392 460L392 461L392 462L392 463L392 464L392 465L392 466L392 467L392 468L392 469L392 470L392 471L392 472L392 473L392 474L392 475L392 476L392 477L392 478L392 479L392 480L392 481L392 482L392 483L392 484L392 485L392 486L392 487L392 488L392 489L392 490L392 491L392 492L392 493L392 494L392 495L392 496L392 497L392 498L392 499L392 500L392 501L392 508L400 508L398 510L398 512L397 513L393 517L395 515L401 519L402 519L401 515L404 516L408 512L405 517C405.53 519.649 405.428 520.607 403 520C403.53 522.649 403.428 523.607 401 523C401.53 525.649 401.428 526.607 399 526C399.53 528.649 399.428 529.607 397 529C397.53 531.649 397.428 532.607 395 532C395.53 534.649 395.428 535.607 393 535L392 541L402 543L403 541L404 537L405 537L405 541L406 541L407 537L408 537L408 543L406 545L406 547L405 547L405 549L404 549L401 553L402 556L400 555L401 558L399 560L399 562L398 562L397 567L394 565L396 569L393 567L395 571L392 569L394 573L392 572L392 578L400 578L396 585C396.501 588.006 396.699 590.675 394 590L394 591L397 591L398 593L400 592C400.983 594.95 401.487 595.622 399 595C399.983 597.95 400.487 598.622 398 598C398.983 600.95 399.487 601.622 397 601L397 602L400 602L400 606L399 609L398 609L398 612L397 612L397 615L396 615L396 618L395 618L395 621L394 621L394 624L393 624L392 631L391 631L392 623L390 621L389 621L389 620L388 620L385 615L387 616L386 613L385 613L384 617L386 619L387 619L387 620L388 620L390 625L388 623L387 623L387 622L386 622L384 620L386 625L382 623L380 631L376 631L375 631L374 631L373 631L372 631L371 631L370 631L369 631L368 631L367 631L366 631L365 631L364 631L363 631L362 631L361 631L360 631L359 631L358 631L357 631L356 631L355 631L354 631L353 631L352 631L351 631L350 631L349 631L348 631L347 631L346 631L345 631L344 631L343 631L342 631L341 631L340 631L339 631L338 631L337 631L336 631L335 631L334 631L333 631L332 631L331 631L330 631L329 631L328 631L327 631L326 631L325 631L324 631L323 631L322 631L321 631L320 631L319 631L318 631L317 631L316 631L315 631L314 631L313 631L312 631L311 631L310 631L309 631L308 631L307 631L306 631L305 631L301 631L299 633L299 634L298 634L298 635L296 636L296 638L295 639L293 640L292 641L292 643L291 644L287 647L287 649L286 650L284 651L283 652L283 654L282 655L278 658L278 660L277 661L275 662L274 663L274 665L273 666L269 669L269 671L268 672L266 673L265 676L269 676L270 676L271 676L272 676L273 676L274 676L275 676L276 676L277 676L278 676L279 676L280 676L281 676L282 676L283 676L284 676L285 676L286 676L287 676L288 676L289 676L290 676L291 676L292 676L293 676L294 676L295 676L296 676L297 676L298 676L299 676L300 676L301 676L302 676L303 676L304 676L305 676L306 676L307 676L308 676L309 676L310 676L311 676L312 676L313 676L314 676L315 676L316 676L317 676L318 676L319 676L320 676L321 676L322 676L323 676L324 676L325 676L326 676L327 676L328 676L329 676L330 676L331 676L332 676L333 676L334 676L335 676L336 676L337 676L338 676L339 676L340 676L341 676L342 676L343 676L344 676L345 676L346 676L347 676L348 676L349 676L350 676L351 676L352 676L353 676L354 676L355 676L356 676L357 676L358 676L359 676L360 676L361 676L362 676L363 676L364 676L365 676L366 676L367 676L368 676L369 676L370 676L371 676L372 676L373 676L374 676L375 676L376 676L377 676L378 676L379 676L380 676L381 676L382 676L383 676L384 676L385 676L386 676L387 676L388 676L389 676L390 676L391 676L392 676L399 676L400 680L401 680L402 682L402 686L404 688L404 692L405 692L405 697L404 697L404 694L403 694L402 691L402 687L399 680L398 680L399 685L400 685L401 687L401 691L402 694L403 694L404 697L404 703L403 703L403 699L401 696L401 692L399 690L398 684L397 684L398 690L400 692L400 696L402 699L402 703L403 703L403 708L402 708L402 704L400 701L400 697L398 695L397 689L396 689L397 695L399 697L399 701L401 704L401 708L402 708L402 714L401 714L400 707L399 707L400 710L400 713L400 714L401 714L401 719L400 719L399 712L398 712L399 715L399 719L400 719L400 725L399 725L399 730L398 730L398 736L397 736L397 741L396 741L394 746L395 752L394 752L392 757L393 763L392 763L392 769L396 769L397 769L398 769L399 769L400 769L401 769L402 769L403 769L404 769L405 769L406 769L407 769L408 769L409 769L410 769L411 769L412 769L413 769L414 769L415 769L416 769L417 769L418 769L419 769L420 769L421 769L422 769L423 769L424 769L425 769L426 769L427 769L428 769L429 769L430 769L431 769L432 769L433 769L434 769L435 769L436 769L437 769L438 769L439 769L444 769L444 765L444 764L444 763L444 762L444 761L444 760L444 759L444 758L444 757L444 756L444 755L444 754L444 753L444 752L444 751L444 750L444 749L444 748L444 747L444 746L444 745L444 744L444 743L444 742L444 741L444 740L444 739L444 738L444 737L444 736L444 735L444 734L444 733L444 732L444 731L444 730L444 729L444 728L444 727L444 726L444 725L444 724L444 723L444 722L444 721L444 720L444 719L444 718L444 717L444 716L444 715L444 714L444 713L444 712L444 711L444 710L444 709L444 708L444 707L444 706L444 705L444 704L444 703L444 702L444 701L444 700L444 699L444 698L444 697L444 696L444 695L444 694L444 693L444 692L444 691L444 690L444 689L444 688L444 687L444 686L444 685L444 684L444 683L444 682L444 676L446 676L446 678L446 682L446 683L446 684L446 685L446 686L446 687L446 688L446 689L446 690L446 691L446 692L446 693L446 694L446 695L446 696L446 697L446 698L446 699L446 700L446 701L446 702L446 703L446 704L446 705L446 706L446 707L446 708L446 709L446 710L446 711L446 712L446 713L446 714L446 715L446 716L446 717L446 718L446 719L446 720L446 721L446 722L446 723L446 724L446 725L446 726L446 727L446 728L446 729L446 730L446 731L446 732L446 733L446 734L446 735L446 736L446 737L446 738L446 739L446 740L446 741L446 742L446 743L446 744L446 745L446 746L446 747L446 748L446 749L446 750L446 751L446 752L446 753L446 754L446 755L446 756L446 757L446 758L446 759L446 760L446 761L446 762L446 763L446 764L446 765L446 769L448 769L448 767L448 763L448 762L448 761L448 760L448 759L448 758L448 757L448 756L448 755L448 754L448 753L448 752L448 751L448 750L448 749L448 748L448 747L448 746L448 745L448 744L448 743L448 742L448 741L448 740L448 739L448 738L448 737L448 736L448 735L448 734L448 733L448 732L448 731L448 730L448 729L448 728L448 727L448 726L448 725L448 724L448 723L448 722L448 721L448 720L448 719L448 718L448 717L448 716L448 715L448 714L448 713L448 712L448 711L448 710L448 709L448 708L448 707L448 706L448 705L448 704L448 703L448 702L448 701L448 700L448 699L448 698L448 697L448 696L448 695L448 694L448 693L448 692L448 691L448 690L448 689L448 688L448 687L448 686L448 685L448 684L448 683L448 682L448 681L448 680L448 676L450 676L450 678L450 682L450 683L450 684L450 685L450 686L450 687L450 688L450 689L450 690L450 691L450 692L450 693L450 694L450 695L450 696L450 697L450 698L450 699L450 700L450 701L450 702L450 703L450 704L450 705L450 706L450 707L450 708L450 709L450 710L450 711L450 712L450 713L450 714L450 715L450 716L450 717L450 718L450 719L450 720L450 721L450 722L450 723L450 724L450 725L450 726L450 727L450 728L450 729L450 730L450 731L450 732L450 733L450 734L450 735L450 736L450 737L450 738L450 739L450 740L450 741L450 742L450 743L450 744L450 745L450 746L450 747L450 748L450 749L450 750L450 751L450 752L450 753L450 754L450 755L450 756L450 757L450 758L450 759L450 760L450 761L450 762L450 763L450 764L450 765L450 769L452 769L452 767L452 763L452 762L452 761L452 760L452 759L452 758L452 757L452 756L452 755L452 754L452 753L452 752L452 751L452 750L452 749L452 748L452 747L452 746L452 745L452 744L452 743L452 742L452 741L452 740L452 739L452 738L452 737L452 736L452 735L452 734L452 733L452 732L452 731L452 730L452 729L452 728L452 727L452 726L452 725L452 724L452 723L452 722L452 721L452 720L452 719L452 718L452 717L452 716L452 715L452 714L452 713L452 712L452 711L452 710L452 709L452 708L452 707L452 706L452 705L452 704L452 703L452 702L452 701L452 700L452 699L452 698L452 697L452 696L452 695L452 694L452 693L452 692L452 691L452 690L452 689L452 688L452 687L452 686L452 685L452 684L452 683L452 682L452 681L452 680L452 676L454 676L454 678L454 682L454 683L454 684L454 685L454 686L454 687L454 688L454 689L454 690L454 691L454 692L454 693L454 694L454 695L454 696L454 697L454 698L454 699L454 700L454 701L454 702L454 703L454 704L454 705L454 706L454 707L454 708L454 709L454 710L454 711L454 712L454 713L454 714L454 715L454 716L454 717L454 718L454 719L454 720L454 721L454 722L454 723L454 724L454 725L454 726L454 727L454 728L454 729L454 730L454 731L454 732L454 733L454 734L454 735L454 736L454 737L454 738L454 739L454 740L454 741L454 742L454 743L454 744L454 745L454 746L454 747L454 748L454 749L454 750L454 751L454 752L454 753L454 754L454 755L454 756L454 757L454 758L454 759L454 760L454 761L454 762L454 763L454 764L454 765L454 769L456 769L456 767L456 763L456 762L456 761L456 760L456 759L456 758L456 757L456 756L456 755L456 754L456 753L456 752L456 751L456 750L456 749L456 748L456 747L456 746L456 745L456 744L456 743L456 742L456 741L456 740L456 739L456 738L456 737L456 736L456 735L456 734L456 733L456 732L456 731L456 730L456 729L456 728L456 722L455 722L455 719L455 715L455 714L455 713L455 712L455 711L455 710L455 709L455 708L455 707L455 706L455 705L455 704L455 703L455 702L455 701L455 700L455 699L455 698L455 697L455 696L455 695L455 694L455 693L455 692L455 691L455 690L455 689L455 688L455 687L455 686L455 685L455 684L455 683L455 682L455 681L455 680L455 676L459 676L460 676L461 676L462 676L463 676L464 676L465 676L466 676L467 676L468 676L469 676L470 676L471 676L472 676L473 676L474 676L475 676L476 676L477 676L478 676L479 676L480 676L481 676L482 676L483 676L484 676L485 676L486 676L487 676L488 676L489 676L490 676L491 676L492 676L493 676L494 676L495 676L496 676L497 676L498 676L499 676L500 676L501 676L502 676L503 676L504 676L505 676L506 676L507 676L508 676L509 676L510 676L511 676L512 676L513 676L514 676L515 676L516 676L517 676L518 676L519 676L520 676L521 676L522 676L523 676L524 676L525 676L526 676L527 676L528 676L529 676L530 676L531 676L532 676L533 676L534 676L535 676L536 676L537 676L538 676L539 676L540 676L541 676L542 676L543 676L544 676L545 676L546 676L547 676L548 676L549 676L550 676L551 676L552 676L553 676L554 676L555 676L556 676L557 676L558 676L559 676L560 676L561 676L562 676L563 676L564 676L565 676L566 676L571 676L570 672L569 672L569 670L568 670L568 668L567 668L567 666L565 665L565 663L564 663L564 661L563 661L563 659L562 659L561 655L559 654L559 652L558 652L558 650L557 650L557 648L556 648L555 644L553 643L553 641L552 641L552 639L551 639L551 637L550 637L547 631L543 631L542 631L541 631L540 631L539 631L538 631L537 631L536 631L535 631L534 631L533 631L532 631L531 631L530 631L529 631L528 631L527 631L526 631L525 631L524 631L523 631L522 631L521 631L520 631L519 631L518 631L517 631L516 631L515 631L514 631L513 631L512 631L511 631L510 631L509 631L508 631L507 631L506 631L505 631L504 631L503 631L502 631L501 631L500 631L499 631L498 631L497 631L496 631L495 631L494 631L493 631L492 631L491 631L490 631L489 631L488 631L487 631L486 631L485 631L484 631L483 631L482 631L481 631L480 631L479 631L478 631L477 631L476 631L475 631L474 631L473 631L472 631L471 631L470 631L469 631L468 631L467 631L466 631L465 631L464 631L463 631L462 631L461 631L460 631L456 631L456 627L456 626L456 625L456 624L456 623L456 622L456 621L456 620L456 619L456 618L456 617L456 616L456 615L456 614L456 613L456 612L456 611L456 610L456 609L456 608L456 604L455 604L455 601L455 597L455 596L455 595L455 594L455 593L455 592L455 591L455 590L455 589L455 588L455 587L455 586L455 585L455 584L455 583L455 582L455 578L456 578L456 575L456 571L456 570L456 569L456 568L456 567L456 566L456 565L456 564L456 559L455 559L455 556L455 552L455 551L455 550L455 549L455 548L455 547L455 546L455 545L455 541L456 541L456 538L456 528L455 528L455 525L455 515L456 515L456 512L456 505L455 505L455 502L455 499L455 496L456 496L456 489L455 489L455 483L456 483L456 478L455 478L455 474L456 474L455 470L455 467L456 467L455 460L456 457L455 454L455 444L456 444L456 441L456 437L456 436L456 435L456 434L456 433L456 432L456 431L456 430L456 429L456 428L456 427L456 426L456 425L456 424L456 423L456 422L456 421L456 420L456 419L456 418L456 417L456 416L456 415L456 414L456 413L456 412L456 411L456 410L456 409L456 408L456 407L456 406L456 405L456 404L456 403L456 402L456 401L456 400L456 399L456 398L456 397L456 396L456 395L456 394L456 393L456 392L456 391L456 390L456 389L456 388L456 387L456 386L456 385L456 384L456 383L456 382L456 381L456 380L456 379L456 378L456 377L456 376L456 375L456 374L456 373L456 372L456 371L456 370L456 369L456 368L456 367L456 366L456 365L456 364L456 363L456 362L456 361L456 360L456 359L456 358L456 357L456 356L456 355L456 354L456 353L456 352L456 351L456 350L456 349L456 348L456 347L456 346L456 345L456 344L456 343L456 342L456 341L456 340L456 339L456 338L456 337L456 336L456 335L456 334L456 333L456 332L456 331L456 330L456 329L456 328L456 327L456 326L456 325L456 324L456 323L456 322L456 321L456 320L456 319L456 318L456 317L456 316L456 315L456 314L456 313L456 312L456 311L456 310L456 309L456 308L456 307L456 306L456 305L456 304L456 303L456 302L456 301L456 300L456 299L456 298L456 297L456 296L456 295L456 294L456 293L456 292L456 291L456 290L456 289L456 288L456 287L456 286L456 279L455 279L455 282L455 286L455 287L455 288L455 289L455 290L455 291L455 292L455 293L455 294L455 295L455 296L455 297L455 298L455 299L455 300L455 301L455 308L454 308L454 311L454 315L454 316L454 317L454 318L454 319L454 320L454 321L454 322L454 323L454 324L454 325L454 326L454 327L454 328L454 329L454 330L454 331L454 332L454 333L454 334L454 335L454 336L454 337L454 338L454 339L454 340L454 341L454 342L454 343L454 344L454 345L454 346L454 347L454 348L454 349L454 350L454 351L454 352L454 353L454 354L454 355L454 356L454 357L454 358L454 359L454 360L454 361L454 362L454 363L454 364L454 365L454 366L454 367L454 368L454 369L454 370L454 371L454 372L454 373L454 374L454 375L454 376L454 377L454 378L454 379L454 380L454 381L454 382L454 383L454 384L454 385L454 386L454 387L454 388L454 389L454 390L454 391L454 392L454 393L454 394L454 395L454 396L454 397L454 398L454 399L454 400L454 401L454 402L454 403L454 404L454 405L454 406L454 407L454 408L454 409L454 410L454 411L454 412L454 413L454 414L454 415L454 416L454 417L454 418L454 419L454 420L454 421L454 422L454 423L454 424L454 425L454 426L454 427L454 428L454 429L454 430L454 431L454 432L454 433L454 434L454 435L454 436L454 437L454 438L454 439L454 440L454 441L454 442L454 443L454 444L454 445L454 446L454 447L454 448L454 449L454 450L454 451L454 452L454 453L454 454L454 455L454 456L454 457L454 458L454 459L454 460L454 461L454 462L454 463L454 464L454 465L454 466L454 467L454 468L454 469L454 470L454 471L454 472L454 473L454 474L454 475L454 476L454 477L454 478L454 479L454 480L454 481L454 482L454 483L454 484L454 485L454 486L454 487L454 488L454 489L454 490L454 491L454 492L454 493L454 494L454 495L454 496L454 497L454 498L454 499L454 500L454 501L454 502L454 503L454 504L454 505L454 506L454 507L454 508L454 509L454 510L454 511L454 512L454 513L454 514L454 515L454 516L454 517L454 518L454 519L454 520L454 521L454 522L454 523L454 524L454 525L454 526L454 527L454 528L454 529L454 530L454 531L454 532L454 533L454 534L454 535L454 536L454 537L454 538L454 539L454 540L454 541L454 542L454 543L454 544L454 545L454 546L454 547L454 548L454 549L454 550L454 551L454 552L454 553L454 554L454 555L454 556L454 557L454 558L454 559L454 560L454 561L454 562L454 563L454 564L454 565L454 566L454 567L454 568L454 569L454 570L454 571L454 572L454 573L454 574L454 575L454 576L454 577L454 578L454 579L454 580L454 581L454 582L454 583L454 584L454 585L454 586L454 587L454 588L454 589L454 590L454 591L454 592L454 593L454 594L454 595L454 596L454 597L454 598L454 599L454 600L454 601L454 602L454 603L454 604L454 605L454 606L454 607L454 608L454 609L454 610L454 611L454 612L454 613L454 614L454 615L454 616L454 617L454 618L454 619L454 620L454 621L454 622L454 623L454 624L454 625L454 626L454 631L452 631L452 629L452 625L452 624L452 623L452 622L452 621L452 620L452 619L452 618L452 617L452 616L452 615L452 614L452 613L452 612L452 611L452 610L452 609L452 608L452 607L452 606L452 605L452 604L452 603L452 602L452 601L452 600L452 599L452 598L452 597L452 596L452 595L452 594L452 593L452 592L452 591L452 590L452 589L452 588L452 587L452 586L452 585L452 584L452 583L452 582L452 581L452 580L452 579L452 578L452 577L452 576L452 575L452 574L452 573L452 572L452 571L452 570L452 569L452 568L452 567L452 566L452 565L452 564L452 563L452 562L452 561L452 560L452 559L452 558L452 557L452 556L452 555L452 554L452 553L452 552L452 551L452 550L452 549L452 548L452 547L452 546L452 545L452 544L452 543L452 542L452 541L452 540L452 539L452 538L452 537L452 536L452 535L452 534L452 533L452 532L452 531L452 530L452 529L452 528L452 527L452 526L452 525L452 524L452 523L452 522L452 521L452 520L452 519L452 518L452 517L452 516L452 515L452 514L452 513L452 512L452 511L452 510L452 509L452 508L452 507L452 506L452 505L452 504L452 503L452 502L452 501L452 500L452 499L452 498L452 497L452 496L452 495L452 494L452 493L452 492L452 491L452 490L452 489L452 488L452 487L452 486L452 485L452 484L452 483L452 482L452 481L452 480L452 479L452 478L452 477L452 476L452 475L452 474L452 473L452 472L452 471L452 470L452 469L452 468L452 467L452 466L452 465L452 464L452 463L452 462L452 461L452 460L452 459L452 458L452 457L452 456L452 455L452 454L452 453L452 452L452 451L452 450L452 449L452 448L452 447L452 446L452 445L452 444L452 443L452 442L452 441L452 440L452 439L452 438L452 437L452 436L452 435L452 434L452 433L452 432L452 431L452 430L452 429L452 428L452 427L452 426L452 425L452 424L452 423L452 422L452 421L452 420L452 419L452 418L452 417L452 416L452 415L452 414L452 413L452 412L452 411L452 410L452 409L452 408L452 407L452 406L452 405L452 404L452 403L452 402L452 401L452 400L452 399L452 398L452 397L452 396L452 395L452 394L452 393L452 392L452 391L452 390L452 389L452 388L452 387L452 386L452 385L452 384L452 383L452 382L452 381L452 380L452 379L452 378L452 377L452 376L452 375L452 374L452 373L452 372L452 371L452 370L452 369L452 368L452 367L452 366L452 365L452 364L452 363L452 362L452 361L452 360L452 359L452 358L452 357L452 356L452 355L452 354L452 353L452 352L452 351L452 350L452 349L452 348L452 347L452 346L452 345L452 344L452 343L452 342L452 341L452 340L452 339L452 338L452 337L452 336L452 335L452 334L452 333L452 332L452 331L452 330L452 329L452 328L452 327L452 326L452 325L452 324L452 323L452 322L452 321L452 320L452 319L452 318L452 317L452 316L452 315L452 314L452 308L450 308L450 310L450 314L450 315L450 316L450 317L450 318L450 319L450 320L450 321L450 322L450 323L450 324L450 325L450 326L450 327L450 328L450 329L450 330L450 331L450 332L450 333L450 334L450 335L450 336L450 337L450 338L450 339L450 340L450 341L450 342L450 343L450 344L450 345L450 346L450 347L450 348L450 349L450 350L450 351L450 352L450 353L450 354L450 355L450 356L450 357L450 358L450 359L450 360L450 361L450 362L450 363L450 364L450 365L450 366L450 367L450 368L450 369L450 370L450 371L450 372L450 373L450 374L450 375L450 376L450 377L450 378L450 379L450 380L450 381L450 382L450 383L450 384L450 385L450 386L450 387L450 388L450 389L450 390L450 391L450 392L450 393L450 394L450 395L450 396L450 397L450 398L450 399L450 400L450 401L450 402L450 403L450 404L450 405L450 406L450 407L450 408L450 409L450 410L450 411L450 412L450 413L450 414L450 415L450 416L450 417L450 418L450 419L450 420L450 421L450 422L450 423L450 424L450 425L450 426L450 427L450 428L450 429L450 430L450 431L450 432L450 433L450 434L450 435L450 436L450 437L450 438L450 439L450 440L450 441L450 442L450 443L450 444L450 445L450 446L450 447L450 448L450 449L450 450L450 451L450 452L450 453L450 454L450 455L450 456L450 457L450 458L450 459L450 460L450 461L450 462L450 463L450 464L450 465L450 466L450 467L450 468L450 469L450 470L450 471L450 472L450 473L450 474L450 475L450 476L450 477L450 478L450 479L450 480L450 481L450 482L450 483L450 484L450 485L450 486L450 487L450 488L450 489L450 490L450 491L450 492L450 493L450 494L450 495L450 496L450 497L450 498L450 499L450 500L450 501L450 502L450 503L450 504L450 505L450 506L450 507L450 508L450 509L450 510L450 511L450 512L450 513L450 514L450 515L450 516L450 517L450 518L450 519L450 520L450 521L450 522L450 523L450 524L450 525L450 526L450 527L450 528L450 529L450 530L450 531L450 532L450 533L450 534L450 535L450 536L450 537L450 538L450 539L450 540L450 541L450 542L450 543L450 544L450 545L450 546L450 547L450 548L450 549L450 550L450 551L450 552L450 553L450 554L450 555L450 556L450 557L450 558L450 559L450 560L450 561L450 562L450 563L450 564L450 565L450 566L450 567L450 568L450 569L450 570L450 571L450 572L450 573L450 574L450 575L450 576L450 577L450 578L450 579L450 580L450 581L450 582L450 583L450 584L450 585L450 586L450 587L450 588L450 589L450 590L450 591L450 592L450 593L450 594L450 595L450 596L450 597L450 598L450 599L450 600L450 601L450 602L450 603L450 604L450 605L450 606L450 607L450 608L450 609L450 610L450 611L450 612L450 613L450 614L450 615L450 616L450 617L450 618L450 619L450 620L450 621L450 622L450 623L450 624L450 625L450 631L448 631L448 629L448 625L448 624L448 623L448 622L448 621L448 620L448 619L448 618L448 617L448 616L448 615L448 614L448 613L448 612L448 611L448 610L448 609L448 608L448 607L448 606L448 605L448 604L448 603L448 602L448 601L448 600L448 599L448 598L448 597L448 596L448 595L448 594L448 593L448 592L448 591L448 590L448 589L448 588L448 587L448 586L448 585L448 584L448 583L448 582L448 581L448 580L448 579L448 578L448 577L448 576L448 575L448 574L448 573L448 572L448 571L448 570L448 569L448 568L448 567L448 566L448 565L448 564L448 563L448 562L448 561L448 560L448 559L448 558L448 557L448 556L448 555L448 554L448 553L448 552L448 551L448 550L448 549L448 548L448 547L448 546L448 545L448 544L448 543L448 542L448 541L448 540L448 539L448 538L448 537L448 536L448 535L448 534L448 533L448 532L448 531L448 530L448 529L448 528L448 527L448 526L448 525L448 524L448 523L448 522L448 521L448 520L448 519L448 518L448 517L448 516L448 515L448 514L448 513L448 512L448 511L448 510L448 509L448 508L448 507L448 506L448 505L448 504L448 503L448 502L448 501L448 500L448 499L448 498L448 497L448 496L448 495L448 494L448 493L448 492L448 491L448 490L448 489L448 488L448 487L448 486L448 485L448 484L448 483L448 482L448 481L448 480L448 479L448 478L448 477L448 476L448 475L448 474L448 473L448 472L448 471L448 470L448 469L448 468L448 467L448 466L448 465L448 464L448 463L448 462L448 461L448 460L448 459L448 458L448 457L448 456L448 455L448 454L448 453L448 452L448 451L448 450L448 449L448 448L448 447L448 446L448 445L448 444L448 443L448 442L448 441L448 440L448 439L448 438L448 437L448 436L448 435L448 434L448 433L448 432L448 431L448 430L448 429L448 428L448 427L448 426L448 425L448 424L448 423L448 422L448 421L448 420L448 419L448 418L448 417L448 416L448 415L448 414L448 413L448 412L448 411L448 410L448 409L448 408L448 407L448 406L448 405L448 404L448 403L448 402L448 401L448 400L448 399L448 398L448 397L448 396L448 395L448 394L448 393L448 392L448 391L448 390L448 389L448 388L448 387L448 386L448 385L448 384L448 383L448 382L448 381L448 380L448 379L448 378L448 377L448 376L448 375L448 374L448 373L448 372L448 371L448 370L448 369L448 368L448 367L448 366L448 365L448 364L448 363L448 362L448 361L448 360L448 359L448 358L448 357L448 356L448 355L448 354L448 353L448 352L448 351L448 350L448 349L448 348L448 347L448 346L448 345L448 344L448 343L448 342L448 341L448 340L448 339L448 338L448 337L448 336L448 335L448 334L448 333L448 332L448 331L448 330L448 329L448 328L448 327L448 326L448 325L448 324L448 323L448 322L448 321L448 320L448 319L448 318L448 317L448 316L448 315L448 314L448 308L446 308L446 310L446 314L446 315L446 316L446 317L446 318L446 319L446 320L446 321L446 322L446 323L446 324L446 325L446 326L446 327L446 328L446 329L446 330L446 331L446 332L446 333L446 334L446 335L446 336L446 337L446 338L446 339L446 340L446 341L446 342L446 343L446 344L446 345L446 346L446 347L446 348L446 349L446 350L446 351L446 352L446 353L446 354L446 355L446 356L446 357L446 358L446 359L446 360L446 361L446 362L446 363L446 364L446 365L446 366L446 367L446 368L446 369L446 370L446 371L446 372L446 373L446 374L446 375L446 376L446 377L446 378L446 379L446 380L446 381L446 382L446 383L446 384L446 385L446 386L446 387L446 388L446 389L446 390L446 391L446 392L446 393L446 394L446 395L446 396L446 397L446 398L446 399L446 400L446 401L446 402L446 403L446 404L446 405L446 406L446 407L446 408L446 409L446 410L446 411L446 412L446 413L446 414L446 415L446 416L446 417L446 418L446 419L446 420L446 421L446 422L446 423L446 424L446 425L446 426L446 427L446 428L446 429L446 430L446 431L446 432L446 433L446 434L446 435L446 436L446 437L446 438L446 439L446 440L446 441L446 442L446 443L446 444L446 445L446 446L446 447L446 448L446 449L446 450L446 451L446 452L446 453L446 454L446 455L446 456L446 457L446 458L446 459L446 460L446 461L446 462L446 463L446 464L446 465L446 466L446 467L446 468L446 469L446 470L446 471L446 472L446 473L446 474L446 475L446 476L446 477L446 478L446 479L446 480L446 481L446 482L446 483L446 484L446 485L446 486L446 487L446 488L446 489L446 490L446 491L446 492L446 493L446 494L446 495L446 496L446 497L446 498L446 499L446 500L446 501L446 502L446 503L446 504L446 505L446 506L446 507L446 508L446 509L446 510L446 511L446 512L446 513L446 514L446 515L446 516L446 517L446 518L446 519L446 520L446 521L446 522L446 523L446 524L446 525L446 526L446 527L446 528L446 529L446 530L446 531L446 532L446 533L446 534L446 535L446 536L446 537L446 538L446 539L446 540L446 541L446 542L446 543L446 544L446 545L446 546L446 547L446 548L446 549L446 550L446 551L446 552L446 553L446 554L446 555L446 556L446 557L446 558L446 559L446 560L446 561L446 562L446 563L446 564L446 565L446 566L446 567L446 568L446 569L446 570L446 571L446 572L446 573L446 574L446 575L446 576L446 577L446 578L446 579L446 580L446 581L446 582L446 583L446 584L446 585L446 586L446 587L446 588L446 589L446 590L446 591L446 592L446 593L446 594L446 595L446 596L446 597L446 598L446 599L446 600L446 601L446 602L446 603L446 604L446 605L446 606L446 607L446 608L446 609L446 610L446 611L446 612L446 613L446 614L446 615L446 616L446 617L446 618L446 619L446 620L446 621L446 622L446 623L446 624L446 625L446 631L444 631L444 629L444 625L444 624L444 623L444 622L444 621L444 620L444 619L444 618L444 617L444 616L444 615L444 614L444 613L444 612L444 611L444 610L444 609L444 608L444 607L444 606L444 605L444 604L444 603L444 602L444 601L444 600L444 599L444 598L444 597L444 596L444 595L444 594L444 593L444 592L444 591L444 590L444 589L444 588L444 587L444 586L444 585L444 584L444 583L444 582L444 581L444 580L444 579L444 578L444 577L444 576L444 575L444 574L444 573L444 572L444 571L444 570L444 569L444 568L444 567L444 566L444 565L444 564L444 563L444 562L444 561L444 560L444 559L444 558L444 557L444 556L444 555L444 554L444 553L444 552L444 551L444 550L444 549L444 548L444 547L444 546L444 545L444 544L444 543L444 542L444 541L444 540L444 539L444 538L444 537L444 536L444 535L444 534L444 533L444 532L444 531L444 530L444 529L444 528L444 527L444 526L444 525L444 524L444 523L444 522L444 521L444 520L444 519L444 518L444 517L444 516L444 515L444 514L444 513L444 512L444 511L444 510L444 509L444 508L444 507L444 506L444 505L444 504L444 503L444 502L444 501L444 500L444 499L444 498L444 497L444 496L444 495L444 494L444 493L444 492L444 491L444 490L444 489L444 488L444 487L444 486L444 485L444 484L444 483L444 482L444 481L444 480L444 479L444 478L444 477L444 476L444 475L444 474L444 473L444 472L444 471L444 470L444 469L444 468L444 467L444 466L444 465L444 464L444 463L444 462L444 461L444 460L444 459L444 458L444 457L444 456L444 455L444 454L444 453L444 452L444 451L444 450L444 449L444 448L444 447L444 446L444 445L444 444L444 443L444 442L444 441L444 440L444 439L444 438L444 437L444 436L444 435L444 434L444 433L444 432L444 431L444 430L444 429L444 428L444 427L444 426L444 425L444 424L444 423L444 422L444 421L444 420L444 419L444 418L444 417L444 416L444 415L444 414L444 413L444 412L444 411L444 410L444 409L444 408L444 407L444 406L444 405L444 404L444 403L444 402L444 401L444 400L444 399L444 398L444 397L444 396L444 395L444 394L444 393L444 392L444 391L444 390L444 389L444 388L444 387L444 386L444 385L444 384L444 383L444 382L444 381L444 380L444 379L444 378L444 377L444 376L444 375L444 374L444 373L444 372L444 371L444 370L444 369L444 368L444 367L444 366L444 365L444 364L444 363L444 362L444 361L444 360L444 359L444 358L444 357L444 356L444 355L444 354L444 353L444 352L444 351L444 350L444 349L444 348L444 347L444 346L444 345L444 344L444 343L444 342L444 341L444 340L444 339L444 338L444 337L444 336L444 335L444 334L444 333L444 332L444 331L444 330L444 329L444 328L444 327L444 326L444 325L444 324L444 323L444 322L444 321L444 320L444 319L444 318L444 317L444 316L444 315L444 314L444 308L440 308L439 308L438 308L437 308L436 308L435 308L434 308L433 308L432 308L431 308L430 308L429 308L428 308L427 308L426 308L425 308L424 308L423 308L422 308L421 308L420 308L419 308L418 308L417 308L416 308L415 308L414 308L413 308L407 308L406 305L406 301L405 301L405 297L403 294L403 290L402 290L402 286L400 283L400 279L399 279L399 275L397 272L397 268L396 268L396 264L394 261L394 257L393 257L392 253M400 254L400 257L401 257L401 256L401 255L400 254M411 255L411 259L412 259L411 255M417 256L417 261L418 261L417 256M421 257L421 263L422 263L421 257M401 258L401 261L402 261L402 260L402 259L401 258M424 258L424 264L425 264L424 258M405 259L405 262L406 262L406 261L406 260L405 259M428 259L428 266L429 266L428 259M412 260L412 264L413 264L412 260M415 261L415 266L416 266L415 261M431 261L431 269L432 269L431 261M402 262L402 265L403 265L403 264L403 263L402 262M406 263L406 266L407 266L407 265L407 264L406 263M418 263L418 267L419 267L418 263M409 264L409 268L410 268L409 264M422 264L422 269L423 269L422 264M434 264L434 273L435 273L435 270L435 267L434 264M400 265L400 268L401 268L401 267L401 266L400 265M403 266L403 269L404 269L404 268L404 267L403 266M413 266L413 269L414 269L414 268L414 267L413 266M425 266L425 272L426 272L425 266M416 267L416 271L417 271L416 267M407 268L407 271L408 271L408 270L408 269L407 268M401 269L401 272L402 272L402 271L402 270L401 269M410 269L410 272L411 272L411 271L411 270L410 269M419 269L419 273L420 273L419 269M429 269L429 275L430 275L429 269M438 269L438 279L439 279L439 276L438 269M404.333 271.667L404.667 272.333L404.333 271.667M414 271L414 274L415 274L415 273L415 272L414 271M408 272L408 275L409 275L409 274L409 273L408 272M423 272L423 276L424 276L423 272M402.333 273.667L402.667 274.333L402.333 273.667M417 273L417 276L418 276L418 275L418 274L417 273M432 273L432 279L433 279L432 273M411 274L411 277L412 277L412 276L412 275L411 274M405.333 275.667L405.667 276.333L405.333 275.667M426 275L426 279L427 279L426 275M415 276L415 279L416 279L416 278L416 277L415 276M420 276L420 279L421 279L421 278L421 277L420 276M403.333 277.667L403.667 278.333L403.333 277.667M409.333 277.667L409.667 278.333L409.333 277.667M406.333 279.667L406.667 280.333L406.333 279.667M412.333 279.667L412.667 280.333L412.333 279.667M418 279L418 282L419 282L419 281L419 280L418 279M424 279L424 282L425 282L425 281L425 280L424 279M430 279L430 283L431 283L430 279M435 279L435 285L436 285L435 279M441 279L441 289L442 289L442 286L441 279M404.333 281.667L404.667 282.333L404.333 281.667M410.333 281.667L410.667 282.333L410.333 281.667M416.333 282.667L416.667 283.333L416.333 282.667M421 282L421 285L422 285L422 284L422 283L421 282M407.333 283.667L407.667 284.333L407.333 283.667M427 283L427 286L428 286L428 285L428 284L427 283M413.333 284.667L413.667 285.333L413.333 284.667M405 285L406 286L405 285M419.333 285.667L419.667 286.333L419.333 285.667M433 285L433 289L434 289L433 285M411 286L412 287L411 286M425 286L425 289L426 289L426 288L426 287L425 286M408.333 287.667L408.667 288.333L408.333 287.667M417.333 287.667L417.667 288.333L417.333 287.667M406 289L407 290L406 289M414 289L415 290L414 289M422.333 289.667L422.667 290.333L422.333 289.667M431 289L431 292L432 292L432 291L432 290L431 289M439 289L439 294L440 294L439 289M412.333 290.667L412.667 291.333L412.333 290.667M420 291L421 292L420 291M409 292L410 293L409 292M418.333 292.667L418.667 293.333L418.333 292.667M428.333 292.667L428.667 293.333L428.333 292.667M407 293L408 294L407 293M415 294L416 295L415 294M426 294L427 295L426 294M436 294L436 297L437 297L437 296L437 295L436 294M413 295L414 296L413 295M423.333 295.667L423.667 296.333L423.333 295.667M410 296L411 297L410 296M421 297L422 298L421 297M434.333 297.667L434.667 298.333L434.333 297.667M419 298L420 299L419 298M414 299L415 300L414 299M432 299L433 300L432 299M411 300L412 301L411 300M429 300L430 301L429 300M427 301L428 302L427 301M424 302L425 303L424 302M420 303L421 304L420 303M412 304L413 305L412 304M380 395L383 398L380 395M380 402L382 404L380 402M382 406L383 407L382 406M397 408L400 411L397 408M400 408L403 411L400 408M396 411L398 413L396 411M395 413L397 415L395 413M403 413L404 414L403 413M400 414L402 416L400 414M381 415L382 416L381 415M398 415L400 417L398 415M397 417L399 419L397 417M404 417L405 418L404 417M402 418L403 419L402 418M382 419L383 420L382 419M386 419L387 420L386 419M400 419L401 420L400 419M405 420L406 421L405 420M403 421L404 422L403 421M380.667 422.333L381.333 422.667L380.667 422.333M390 422L391 423L390 422M394 422L395 423L394 422M399 422L400 423L399 422M396 423L397 424L396 423M401 423L402 424L401 423M398 424L399 425L398 424M400 425L401 426L400 425M382 426L383 427L382 426M402 426L403 427L402 426M404 427L405 428L404 427M399 428L400 429L399 428M406 428L407 429L406 428M381 429L382 430L381 429M401 429L402 430L401 429M397.667 430.333L398.333 430.667L397.667 430.333M400 431L401 432L400 431M382 432L383 433L382 432M395.667 432.333L396.333 432.667L395.667 432.333M403 432L404 433L403 432M398.667 433.333L399.333 433.667L398.667 433.333M402 434L403 435L402 434M405 435L406 436L405 435M380.667 436.333L381.333 436.667L380.667 436.333M388 436L388 437L389 437L390 437L391 437L391 436L390 436L388 436M396.667 436.333L397.333 436.667L396.667 436.333M400.667 437.333L401.333 437.667L400.667 437.333M404 438L405 439L404 438M381.667 439.333L382.333 439.667L381.667 439.333M390 439L391 440L390 439M397 439L397 440L398 440L399 440L400 440L400 439L399 439L397 439M403 440L404 441L403 440M393 443L393 444L397 444L397 443L393 443M381.667 458.333L382.333 458.667L381.667 458.333M385.667 460.333L386.333 460.667L385.667 460.333M381.667 464.333L382.333 464.667L381.667 464.333M388 465L389 466L388 465M385 468L386 469L385 468M381.667 469.333L382.333 469.667L381.667 469.333M389 470L390 471L389 470M386 471L387 472L386 471M384 474L385 475L384 474M381 475L382 476L381 475M385 477L386 478L385 477M382 478L383 479L382 478M380 479L381 480L380 479M390 479L391 480L390 479M388 480L389 481L388 480M381 481L382 482L381 481M386 481L387 482L386 481M384 482L385 483L384 482M382 483L383 484L382 483M380 484L381 485L380 484M381 487L382 488L381 487M385 487L386 488L385 487M382 489L383 490L382 489M380 490L381 491L380 490M389 490L390 491L389 490M384 491L385 492L384 491M386 492L387 493L386 492M381 493L382 494L381 493M380 496L381 497L380 496M385 496L386 497L385 496M388 496L389 497L388 496M382 498L381 500L382 498M384 499L385 500L384 499M380 502L381 503L380 502M382 503L381 505L382 503M386 503L385 505L386 503M402 506L400 508L402 506M384 507L385 508L384 507M380 508L381 509L380 508M382 509L381 511L382 509M402 513L400 515L402 513M405 513L403 515L405 513M390 517L388 520L389 522L388 523L391 521L390 517M398 518L397 520L398 518M390 520L389 521L390 520M399 521L400 522L399 521M386 522L384 525L384 528L387 526L386 522M395 522L394 524L395 522M397 524L398 525L397 524M386 525L385 526L386 525M395 525L396 526L395 525M392 526L393 527L392 526M382 527L380 531C382.649 530.432 383.355 529.412 382 527M390 527L391 528L390 527M395 527L394 529L395 527M388 528L389 529L388 528M390 529L389 531L390 529M394 530L395 531L394 530M392 531L393 532L392 531M385 532L384 534L385 532M390 532L391 533L390 532M392 533L393 534L392 533M386 534L387 535L386 534M390 534L391 535L390 534M384 535L385 536L384 535M388 535L389 536L388 535M386 536L384 537L384 541C387.012 540.354 387.498 538.613 386 536M390 536L388 537L388 541C391.012 540.354 391.498 538.613 390 536M382 537L380 541C382.649 540.432 383.355 539.412 382 537M402 538L401 541L400 541L402 538M398 542L401 545L398 542M397 544L400 547L397 544M385 546L386 547L385 546M396 546L399 549L396 546M392 547L393 548L392 547M395 548L394 551L393 551L392 553L392 557L395 557L393 553L396 555L394 551L397 553L395 549L398 551L395 548M380 550L381 551L380 550M388 550L389 551L388 550M385 551L386 552L385 551M381 552L382 553L381 552M389 552L390 553L389 552M386 553L387 554L386 553M388 554L389 555L388 554M385 555L386 556L385 555M382 556L381 558L382 556M390 556L389 559L390 556M386 557L387 558L386 557M398 557L399 558L398 557M393 558L394 559L393 558M380 559L381 560L380 559M385 559L386 560L385 559M397 559L398 560L397 559M382 560L381 562L382 560M392 560L393 561L392 560M384 561L385 562L384 561M396 561L397 562L396 561M380 563L381 564L380 563M386 563L387 564L386 563M395 563L396 564L395 563M382 564L383 565L382 564M390 564L391 565L390 564M385 565L386 566L385 565M381 566L380 569L381 569L381 566M389 566L390 567L389 566M384 567L385 568L384 567M388 568L389 569L388 568M390 571L388 578L391 577L390 571M382 572L380 578L383 577L382 572M386 572L384 578L387 577L386 572M402 573L401 578L404 573L405 573L404 578L407 573L408 573L407 578L408 578L408 581L407 584L406 584L406 587L405 587L405 590L404 590L404 593L403 593L403 596L402 596L401 602L400 602L401 599L401 596L402 593L400 589L399 589L398 592L397 589L398 586L399 586L399 583L400 583L401 580L401 578L402 573M403 578L405 584L404 584L402 580L401 580L404 587L403 587L401 583L400 583L401 586L400 588L400 589L402 593L403 593L403 590L404 590L404 587L405 587L405 584L406 584L407 578L406 578L405 581L403 578M382 581L383 582L382 581M394 582L395 583L394 582M381 583L382 584L381 583M380 585L381 586L380 585M388 586L389 587L388 586M402 586L403 590L402 590L402 586M392 587L393 588L392 587M384 588L385 589L384 588M389 589L390 590L389 589M388 591L389 592L388 591M382 592L383 593L382 592M390 592L391 593L390 592M385 593L386 594L385 593M393 593L394 594L393 593M381 594L382 595L381 594M389 594L390 595L389 594M396 594L397 595L396 594M384 595L385 596L384 595M392 595L394 597L392 595M386 596L387 597L386 596M388 597L389 598L388 597M395 597L396 598L395 597M385 598L386 599L385 598M392 599L393 600L392 599M382 600L383 601L382 600M390 600L391 601L390 600M395 600L396 601L395 600M384 601L385 602L384 601M381 602L382 603L381 602M386 602L387 603L386 602M392 602L393 603L392 602M389 603L391 605L389 603M394 603L395 604L394 603M380 604L381 605L380 604M385 604L386 605L385 604M396 604L398 606L396 604M382 605L383 606L382 605M388 605L390 608L388 605M392 605L394 607L392 605M384.333 606.667L384.667 607.333L384.333 606.667M381.333 607.667L381.667 608.333L381.333 607.667M395 607L397 609L395 607M388 609L390 611L388 609M392 609L393 610L392 609M380 610L381 611L380 610M386.333 610.667L386.667 611.333L386.333 610.667M394 610L396 612L394 610M382.333 611.667L382.667 612.333L382.333 611.667M392 612L395 615L392 612M388 613L389 614L388 613M381 614L382 615L381 614M390 614L391 615L390 614M380.333 616.667L380.667 617.333L380.333 616.667M392 616L394 618L392 616M389 617L393 621L389 617M266 619L265 621L266 619M272 619L271 621L272 619M296 619L297 620L296 619M312 619L313 620L312 619M315 619L314 621L315 619M322 619L321 621L322 619M328 619L329 620L328 619M335 619L334 621L335 619M347 619L348 620L347 619M354 619L353 621L354 619M363 619L364 620L363 619M373.333 619.667L373.667 620.333L373.333 619.667M376.333 619.667L376.667 620.333L376.333 619.667M379 619L380 620L379 619M467 619L468 620L467 619M483 619L484 620L483 619M486.333 619.667L486.667 620.333L486.333 619.667M499 619L500 620L499 619M506.333 619.667L506.667 620.333L506.333 619.667M518 619L519 620L518 619M522.333 619.667L522.667 620.333L522.333 619.667M525.333 619.667L525.667 620.333L525.333 619.667M534 619L535 620L534 619M549 619L550 620L549 619M551 619L552 620L551 619M569 619L570 620L569 619M261 620L262 621L261 620M292 620L293 621L292 620M306 620L307 621L306 620M340 620L341 621L340 620M543 620L544 621L543 620M559 620L560 621L559 620M574 620L575 621L574 620M258 623L259 624L258 623M287 623L286 625L287 623M300 623L301 624L300 623M309 623L308 625L309 623M319 623L318 625L319 623M332 623L333 624L332 623M345 623L344 625L345 623M361 623L362 624L361 623M377.333 623.667L377.667 624.333L377.333 623.667M477 623L478 624L477 623M484.333 623.667L484.667 624.333L484.333 623.667M507 623L508 624L507 623M520.333 623.667L520.667 624.333L520.333 623.667M536 623L537 624L536 623M548 623L549 624L548 623M552.333 623.667L552.667 624.333L552.333 623.667M561 623L562 624L561 623M574 623L575 624L574 623M254 624L255 625L254 624M298 624L299 625L298 624M384 624L384 631L383 631L384 628L384 627L384 624M388 624L388 631L387 631L388 628L388 627L388 624M543 624L544 625L543 624M554 624L555 625L554 624M567 624L568 625L567 624M257 627L258 628L257 627M266 627L265 629L266 627M280 627L279 629L280 627M291 627L292 628L291 627M298 627L299 628L298 627M359 627L360 628L359 627M538 627L539 628L538 627M547 627L548 628L547 627M558 627L559 628L558 627M569 627L570 628L569 627M288 628L289 629L288 628M296 628L297 629L296 628M545 628L546 629L545 628M553 628L554 629L553 628M561 628L562 629L561 628M253 631L254 632L253 631M262 631L261 633L262 631M274 631L272 633L272 634L271 634L271 635L270 635L270 636L269 636L269 637L268 637L268 638L267 638L267 639L265 641L267 639L268 639L268 638L269 638L269 637L270 637L270 636L271 636L271 635L272 635L272 634L273 634L274 631M282 631L278 636L282 631M292 631L291 633L292 631M298 631L299 632L298 631M549 631L551 633L552 637L553 637L553 639L554 639L554 641L555 641L555 643L557 644L557 646L558 646L558 648L559 648L559 650L560 650L561 654L563 655L563 657L564 657L564 659L565 659L565 661L566 661L570 667L569 663L568 663L568 661L567 659L565 658L565 656L564 656L564 654L563 652L561 651L561 649L560 649L560 647L559 647L559 645L558 645L558 643L556 642L556 640L555 640L555 638L554 638L554 636L553 636L553 634L549 631M553 631L555 634L556 638L557 638L557 640L558 642L561 645L562 645L564 643L562 647L565 645L563 648L563 651L569 648L569 647L566 647L567 644L565 641L563 642L564 639L562 636L560 637L561 634L559 631L556 631L556 634L553 631M566 631L567 632L566 631M574 631L575 632L574 631M582 631L583 632L582 631M296 632L297 633L296 632M561 632L562 633L561 632M569 632L570 633L569 632M257 633L258 634L257 633M289 633L290 634L289 633M293 633L294 634L293 633M558 633L559 637L561 638L561 640L562 640L562 644L560 641L559 641L559 639L558 633M564 633L565 634L564 633M285 634L282 638L285 634M291 634L287 638L287 641L288 641L288 638L291 634M568 634L569 635L568 634M574 634L575 635L574 634M582 634L583 635L582 634M258 635L259 636L258 635M557 635L558 636L557 635M563 635L564 636L563 635M254 636L253 638L254 636M275 636L273 638L273 639L272 639L272 640L270 642L272 640L273 640L273 639L274 639L275 636M566 636L567 637L566 636M293 637L294 638L293 637M564 637L566 639L564 637M570 637L571 638L570 637M279 638L276 642L279 638M291 638L292 639L291 638M559 638L560 639L559 638M285 639L285 642L281 646L282 647L283 647L284 646L286 642L285 639M568 639L569 640L568 639M560 640L561 641L560 640M566 640L567 641L566 640M578 640L579 641L578 640M282 641L283 642L282 641M569 641L570 642L569 641M266 642L265 644L266 642M272 642L270 644L270 645L269 645L269 646L266 649L268 647L269 647L269 646L270 646L272 642M278 642L274 647L278 642M289 642L288 644L289 642M561 642L562 643L561 642M567 642L569 644L567 642M574 643L575 644L574 643M286 644L287 645L286 644M283 645L282 646L283 645M569 645L570 646L569 645M262 646L261 648L262 646M279 646L277 648L278 650L275 653L276 654L279 652L278 650L281 647L279 646M582 646L583 647L582 646M271 647L269 649L269 650L268 650L268 651L266 653L268 651L269 651L269 650L270 650L271 647M280 647L278 649L280 647M566 647L564 649L566 647M568 647L567 648L568 647M284 648L283 650L284 648M275 649L274 651L275 649M569 649L570 650L569 649M574 649L575 650L574 649M578 649L579 650L578 649M258 650L257 652L258 650M262 650L261 652L262 650M281 650L282 651L281 650M566 650L565 652L566 650M270 651L268 653L268 654L267 654L267 655L265 657L267 655L268 655L268 654L269 654L270 651M278 651L276 653L278 651M567 652L566 654L567 652M262 653L261 655L262 653M273 653L270 657L273 653M280 653L278 656L280 653M574 653L575 654L574 653M258 654L257 656L258 654M568 654L567 658L570 655L568 654M569 655L568 656L569 655M578 655L579 656L578 655M276 656L277 657L276 656M582 656L583 657L582 656M258 657L257 659L258 657M262 657L261 659L262 657M268 657L267 659L268 657M273 657L271 660L273 657M570 657L569 659L570 657M574.333 657.667L574.667 658.333L574.333 657.667M254 658L255 659L254 658M275 659L273 662L275 659M578.333 659.667L578.667 660.333L578.333 659.667M262 660L261 662L262 660M268 660L269 661L268 660M570 660L571 661L570 660M254 661L255 662L254 661M258 661L257 663L258 661M266 661L265 663L266 661M582.333 661.667L582.667 662.333L582.333 661.667M271 662L272 663L271 662M570 662L571 663L570 662M268 663L265 667L268 663M258 664L257 666L258 664M271 664L268 668L271 664M578 664L579 665L578 664M261 665L262 666L261 665M262.333 667.667L262.667 668.333L262.333 667.667M574.333 667.667L574.667 668.333L574.333 667.667M266 668L267 669L266 668M405 668L405 672L404 672L405 678L406 678L406 673L407 673L407 668L408 668L407 673L407 676L408 676L408 681L407 681L407 686L406 686L406 692L405 692L405 688L403 686L403 682L400 678L400 673L401 673L401 669L402 669L402 677L403 677L403 672L404 672L405 668M258 670L257 672L258 670M262 670L261 672L262 670M266 670L265 672L266 670M254 673L253 676L254 673M258 673L257 676L258 673M262 673L261 676L262 673M574.333 674.667L574.667 675.333L574.333 674.667M578.333 674.667L578.667 675.333L578.333 674.667M582.333 674.667L582.667 675.333L582.333 674.667M335 677L336 678L335 677M403 677L403 681L405 686L406 686L403 677M563 677L564 678L563 677M295 678L296 679L295 678M371 678L372 679L371 678M406 678L406 681L407 681L407 680L407 679L406 678M526 678L527 679L526 678M278 679L279 680L278 679M334 679L335 680L334 679M391 679L392 680L391 679M507 679L508 680L507 679M564 679L565 680L564 679M265 680L266 681L265 680M311 680L312 681L311 680M356 680L357 681L356 680M495 680L496 681L495 680M542 680L543 681L542 680M293 681L294 682L293 681M333 681L334 682L333 681M370 681L371 682L370 681M488 681L489 682L488 681M527 681L528 682L527 681M565 681L566 682L565 681M283 682L284 683L283 682M315 682L316 683L315 682M350 682L351 683L350 682M382 682L383 683L382 682M483 682L484 683L483 682M515 682L516 683L515 682M548 682L549 683L548 682M582 682L583 683L582 682M390 683L391 684L390 683M261 685L262 686L261 685M283 685L284 686L283 685M308 685L309 686L308 685M331 685L332 686L331 685M354 685L355 686L354 685M379 685L380 686L379 685M473 685L474 686L473 685M496 685L497 686L496 685M519 685L520 686L519 685M544 685L545 686L544 685M567 685L568 686L567 685M277 686L278 687L277 686M298 686L299 687L298 686M320 686L321 687L320 686M341 686L342 687L341 686M363 686L364 687L363 686M384 686L385 687L384 686M471 686L472 687L471 686M491 686L492 687L491 686M514 686L515 687L514 686M534 686L535 687L534 686M557 686L558 687L557 686M389 687L390 688L389 687M393 688L394 689L393 688M278 689L279 690L278 689M296 689L297 690L296 689M311 689L312 690L311 689M329 689L330 690L329 689M347 689L348 690L347 689M362 689L363 690L362 689M380 689L381 690L380 689M466.333 689.667L466.667 690.333L466.333 689.667M484 689L485 690L484 689M499 689L500 690L499 689M517 689L518 690L517 689M535 689L536 690L535 689M551 689L552 690L551 689M569 689L570 690L569 689M257 690L258 691L257 690M272 690L273 691L272 690M287 690L288 691L287 690M305 690L306 691L305 690M321 690L322 691L321 690M336 690L337 691L336 690M352 690L353 691L352 690M367 690L368 691L367 690M385 690L386 691L385 690M481 690L482 691L481 690M497 690L498 691L497 690M512 690L513 691L512 690M530 690L531 691L530 690M546 690L547 691L546 690M561 690L562 691L561 690M388 691L389 692L388 691M392 692L393 693L392 692M272 693L273 694L272 693M285 693L286 694L285 693M301 693L302 694L301 693M314 693L315 694L314 693M327 693L328 694L327 693M340 693L341 694L340 693M353 693L354 694L353 693M366 693L367 694L366 693M382 693L383 694L382 693M395 693L395 697L397 702L398 702L395 693M464 693L465 694L464 693M477 693L478 694L477 693M490 693L491 694L490 693M503 693L504 694L503 693M516 693L517 694L516 693M531 693L532 694L531 693M544 693L545 694L544 693M557 693L558 694L557 693M269 694L270 695L269 694M282 694L283 695L282 694M295 694L296 695L295 694M308 694L309 695L308 694M321 694L322 695L321 694M332 694L333 695L332 694M345 694L346 695L345 694M358 694L359 695L358 694M371 694L372 695L371 694M384 694L385 695L384 694M487 694L488 695L487 694M500 694L501 695L500 694M513 694L514 695L513 694M526 694L527 695L526 694M540 694L541 695L540 694M553 694L554 695L553 694M566 694L567 695L566 694M389 696L390 697L389 696M381 697L382 698L381 697M394 698L394 702L393 702L393 706L394 706L395 712L396 712L395 706L394 706L394 702L395 702L396 707L397 707L394 698M386 699L387 700L386 699M388 700L389 701L388 700M380 701L381 702L380 701M390 701L391 702L390 701M382 702L383 703L382 702M385 703L386 704L385 703M381.333 705.667L381.667 706.333L381.333 705.667M389.333 705.667L389.667 706.333L389.333 705.667M384 707L385 708L384 707M386 708L387 709L386 708M380 709L381 710L380 709M388.333 709.667L388.667 710.333L388.333 709.667M393 711L394 717L395 717L393 711M385.333 712.667L385.667 713.333L385.333 712.667M382.333 714.667L382.667 715.333L382.333 714.667M390 715L391 716L390 715M384.333 716.667L384.667 717.333L384.333 716.667M392 716L393 722L394 722L392 716M397 717L397 720L398 720L398 719L398 718L397 717M381.333 718.667L381.667 719.333L381.333 718.667M386.333 718.667L386.667 719.333L386.333 718.667M389 720L390 721L389 720M380.333 722.667L380.667 723.333L380.333 722.667M385.333 722.667L385.667 723.333L385.333 722.667M396 722L396 725L397 725L397 724L397 723L396 722M382.333 724.667L382.667 725.333L382.333 724.667M388 724L389 725L388 724M392 724L392 727L393 727L393 726L393 725L392 724M390 725L390 729L391 729L390 725M384 726L384 729L385 729L385 728L385 727L384 726M395 727L395 730L396 730L396 729L396 728L395 727M381.333 728.667L381.667 729.333L381.333 728.667M389 730L390 737L391 737L389 730M380 732L380 735L381 735L381 734L381 733L380 732M394 732L394 736L395 736L394 732M386.333 733.667L386.667 734.333L386.333 733.667M382 735L382 738L383 738L383 737L383 736L382 735M388 735L389 742L390 742L388 735M392 737L393 741L394 741L392 737M385 738L387 740L385 738M381 739L381 742L382 742L382 741L382 740L381 739M384.333 742.667L384.667 743.333L384.333 742.667M380 743L380 746L381 746L381 745L381 744L380 743M392 743L392 746L393 746L393 745L393 744L392 743M388 744L388 747L389 747L389 746L389 745L388 744M390 747L391 748L390 747M382 751L382 755L381 755L381 758L381 761L381 764L380 764L380 769L383 769L383 768L383 764L383 763L383 762L383 761L383 760L383 759L383 758L383 757L382 751M392 751L393 752L392 751M389 752C390.024 755.073 391.055 757.764 388 757L389 763L388 763L388 769L391 769L391 768L391 764L391 763L391 762L391 761L391 760L391 759L391 758L391 757L389 752M386 754L386 759L385 759L385 764L384 764L384 769L387 769L387 768L387 764L387 763L387 762L387 761L386 754M395 774L396 775L395 774M403 775L404 776L403 775M407 776L408 777L407 776M412 777L413 778L412 777M382 778L383 779L382 778M415 778L416 779L415 778M390 779L391 780L390 779M420 779L421 780L420 779M394 780L395 781L394 780M422.333 780.667L422.667 781.333L422.333 780.667M397 781L398 782L397 781M402 782L403 783L402 782M424 782L425 783L424 782M381 783L382 784L381 783M404 783L405 784L404 783M427.333 783.667L427.667 784.333L427.333 783.667M386 784L387 785L386 784M406 784L407 785L406 784M389 785L390 786L389 785M409 785L410 786L409 785M429.333 785.667L429.667 786.333L429.333 785.667M393 786L394 787L393 786M411 786L412 787L411 786M396 787L397 788L396 787M414.333 787.667L414.667 788.333L414.333 787.667M432 787L432 790L433 790L433 789L433 788L432 787M380 788L381 789L380 788M398 788L399 789L398 788M385 789L386 790L385 789M401 789L402 790L401 789M416 789L417 790L416 789M388 790L389 791L388 790M403.333 790.667L403.667 791.333L403.333 790.667M419.333 790.667L419.667 791.333L419.333 790.667M434 790L434 795L435 795L434 790M390 791L391 792L390 791M392 792L393 793L392 792M405 792L406 793L405 792M421 792L421 795L422 795L422 794L422 793L421 792M395.333 793.667L395.667 794.333L395.333 793.667M408.333 793.667L408.667 794.333L408.333 793.667M382 794L383 795L382 794M384 795L385 796L384 795M397 795L398 796L397 795M410.333 795.667L410.667 796.333L410.333 795.667M423 795L423 798L424 798L424 797L424 796L423 795M436 795L436 801L437 801L436 795M400.333 796.667L400.667 797.333L400.333 796.667M389 797L390 798L389 797M413.333 797.667L413.667 798.333L413.333 797.667M402 798L403 799L402 798M426 798L426 801L427 801L427 800L427 799L426 798M381 799L382 800L381 799M404.333 799.667L404.667 800.333L404.333 799.667M415.333 799.667L415.667 800.333L415.333 799.667M394 800L395 801L394 800M386.333 801.667L386.667 802.333L386.333 801.667M396.333 801.667L396.667 802.333L396.333 801.667M407.333 801.667L407.667 802.333L407.333 801.667M418 801L418 804L419 804L419 803L419 802L418 801M428 801L428 806L429 806L428 801M439 801L439 805L439 806L439 807L439 808L439 812L440 812L440 809L439 801M388 803L389 804L388 803M399.333 803.667L399.667 804.333L399.333 803.667M409 803L409 806L410 806L410 805L410 804L409 803M380 804L381 805L380 804M390.333 804.667L390.667 805.333L390.333 804.667M420 804L420 808L421 808L420 804M382.333 805.667L382.667 806.333L382.333 805.667M401.333 805.667L401.667 806.333L401.333 805.667M393.333 806.667L393.667 807.333L393.333 806.667M412 806L412 809L413 809L413 808L413 807L412 806M431 806L431 812L432 812L431 806M385 807L386 808L385 807M403.333 807.667L403.667 808.333L403.333 807.667M395.333 808.667L395.667 809.333L395.333 808.667M422 808L422 812L423 812L422 808M414 809L414 812L415 812L415 811L415 810L414 809M459.333 810.667L459.667 811.333L459.333 810.667M467.333 810.667L467.667 811.333L467.333 810.667M475.333 810.667L475.667 811.333L475.333 810.667M483.333 810.667L483.667 811.333L483.333 810.667M492.333 810.667L492.667 811.333L492.333 810.667M500.333 810.667L500.667 811.333L500.333 810.667M508.333 810.667L508.667 811.333L508.333 810.667M516.333 810.667L516.667 811.333L516.333 810.667M527 810L528 811L527 810M535 810L536 811L535 810M544 810L545 811L544 810M552 810L553 811L552 810M560 810L561 811L560 810M568 810L569 811L568 810M577 810L578 811L577 810M585 810L586 811L585 810M595 810L596 811L595 810M604 810L605 811L604 810M612 810L613 811L612 810M620 810L621 811L620 810M628 810L629 811L628 810M525 811L526 812L525 811M533 811L534 812L533 811M541 811L542 812L541 811M549 811L550 812L549 811M558 811L559 812L558 811M566 811L567 812L566 811M574 811L575 812L574 811M582 811L583 812L582 811M591 811L592 812L591 811M599 811L600 812L599 811M607 811L608 812L607 811M615 811L616 812L615 811M624 811L625 812L624 811M417 812L417 816L418 816L417 812M425 812L425 818L426 818L425 812M433 812L433 821L434 821L434 818L434 815L433 812M441 812L441 816L441 817L441 818L441 819L441 820L441 821L441 822L441 823L441 824L441 825L441 826L441 827L441 834L442 834L442 831L442 827L442 826L442 825L442 824L442 823L442 822L442 821L442 820L442 819L442 818L442 817L442 816L441 812M547 812L548 813L547 812M555 812L556 813L555 812M563 812L564 813L563 812M572 812L573 813L572 812M580 812L581 813L580 812M588 812L589 813L588 812M596 812L597 813L596 812M605 812L606 813L605 812M613 812L614 813L613 812M621 812L622 813L621 812M629 812L630 813L629 812M384 813L385 814L384 813M392 813L393 814L392 813M481.333 814.667L481.667 815.333L481.333 814.667M489 814L490 815L489 814M498 814L499 815L498 814M503 814L503 817L504 817L504 816L504 815L503 814M512.333 814.667L512.667 815.333L512.333 814.667M520.333 814.667L520.667 815.333L520.333 814.667M528 814L529 815L528 814M536 814L537 815L536 814M545 814L546 815L545 814M553 814L554 815L553 814M559.333 814.667L559.667 815.333L559.333 814.667M567 814L568 815L567 814M575 814L576 815L575 814M583 814L584 815L583 814M592 814L593 815L592 814M600 814L601 815L600 814M606 814L607 815L606 814M614 814L615 815L614 814M622 814L623 815L622 814M630 814L631 815L630 814M526.333 815.667L526.667 816.333L526.333 815.667M534.333 815.667L534.667 816.333L534.333 815.667M542 815L543 816L542 815M550 815L551 816L550 815M564 815L565 816L564 815M573 815L574 816L573 815M581 815L582 816L581 815M589 815L590 816L589 815M595 815L596 816L595 815M603 815L604 816L603 815M611 815L612 816L611 815M620 815L621 816L620 815M628 815L629 816L628 815M548 816L549 817L548 816M556 816L557 817L556 816M570 816L571 817L570 816M579 816L580 817L579 816M587 816L588 817L587 816M593 816L594 817L593 816M601 816L602 817L601 816M609 816L610 817L609 816M617 816L618 817L617 816M623 816L624 817L623 816M631 816L632 817L631 816M380 817L381 818L380 817M388 817L389 818L388 817M402 817L403 818L402 817M427 818L427 825L428 825L427 818M465 818L465 821L466 821L466 820L466 819L465 818M479 818L479 821L480 821L480 820L480 819L479 818M487 818L488 819L487 818M493 818L493 821L494 821L494 820L494 819L493 818M501 818L502 819L501 818M507 818L507 821L508 821L508 820L508 819L507 818M515.333 818.667L515.667 819.333L515.333 818.667M523 818L524 819L523 818M529.333 818.667L529.667 819.333L529.333 818.667M537 818L538 819L537 818M546 818L547 819L546 818M551 818L552 819L551 818M560 818L561 819L560 818M565.333 818.667L565.667 819.333L565.333 818.667M574 818L575 819L574 818M582 818L583 819L582 818M588 818L589 819L588 818M596 818L597 819L596 818M604 818L605 819L604 818M610 818L611 819L610 818M618 818L619 819L618 818M624 818L625 819L624 818M632 818L633 819L632 818M413 819L413 823L414 823L413 819M521.333 819.667L521.667 820.333L521.333 819.667M535.333 819.667L535.667 820.333L535.333 819.667M543 819L544 820L543 819M549.333 819.667L549.667 820.333L549.333 819.667M557 819L558 820L557 819M571 819L572 820L571 819M580 819L581 820L580 819M585 819L586 820L585 819M594 819L595 820L594 819M599 819L600 820L599 819M608 819L609 820L608 819M616 819L617 820L616 819M622 819L623 820L622 819M630 819L631 820L630 819M563 820L564 821L563 820M577 820L578 821L577 820M583 820L584 821L583 820M591 820L592 821L591 820M597 820L598 821L597 820M605 820L606 821L605 820M611 820L612 821L611 820M619 820L620 821L619 820M625 820L626 821L625 820M633 820L634 821L633 820M385 821L386 822L385 821M399 821L400 822L399 821M421 821L421 827L422 827L421 821M435 821L435 825L435 826L435 827L435 828L435 834L436 834L436 831L435 821M456 822L456 826L456 827L456 828L456 829L456 834L457 834L457 831L456 822M462 822L462 826L462 827L462 828L462 829L462 834L463 834L463 831L462 822M470 822L470 825L471 825L471 824L471 823L470 822M476 822L476 827L477 827L476 822M484 822L485 823L484 822M490 822L490 825L491 825L491 824L491 823L490 822M496 822L496 826L497 826L496 822M504.333 822.667L504.667 823.333L504.333 822.667M510 822L510 825L511 825L511 824L511 823L510 822M518 822L519 823L518 822M524.333 822.667L524.667 823.333L524.333 822.667M532 822L533 823L532 822M538 822L539 823L538 822M544.333 822.667L544.667 823.333L544.333 822.667M552 822L553 823L552 822M558.333 822.667L558.667 823.333L558.333 822.667M566 822L567 823L566 822M572 822L573 823L572 822M581 822L582 823L581 822M586 822L587 823L586 822M592.333 822.667L592.667 823.333L592.333 822.667M600 822L601 823L600 822M606 822L607 823L606 822M614 822L615 823L614 822M620 822L621 823L620 822M629 822L630 823L629 822M416 823L416 828L417 828L416 823M482 823L482 828L483 828L482 823M516.333 823.667L516.667 824.333L516.333 823.667M530.333 823.667L530.667 824.333L530.333 823.667M536.333 823.667L536.667 824.333L536.333 823.667M550.333 823.667L550.667 824.333L550.333 823.667M564 823L565 824L564 823M570.333 823.667L570.667 824.333L570.333 823.667M578 823L579 824L578 823M584 823L585 824L584 823M598 823L599 824L598 823M604 823L605 824L604 823M612 823L613 824L612 823M618 823L619 824L618 823M624 823L625 824L624 823M632 823L633 824L632 823M502 824L502 827L503 827L503 826L503 825L502 824M522.333 824.667L522.667 825.333L522.333 824.667M542.333 824.667L542.667 825.333L542.333 824.667M556 824L557 825L556 824M562.333 824.667L562.667 825.333L562.333 824.667M576 824L577 825L576 824M582 824L583 825L582 824M590 824L591 825L590 824M596 824L597 825L596 824M601 824L602 825L601 824M610 824L611 825L610 824M615 824L616 825L615 824M621 824L622 825L621 824M630 824L631 825L630 824M430 825L430 834L431 834L431 831L431 828L430 825M468 825L468 834L469 834L469 831L469 828L468 825M488 825L488 829L489 829L488 825M508.333 825.667L508.667 826.333L508.333 825.667M514 825L514 828L515 828L515 827L515 826L514 825M528.333 825.667L528.667 826.333L528.333 825.667M533.333 825.667L533.667 826.333L533.333 825.667M548 825L549 826L548 825M553.333 825.667L553.667 826.333L553.333 825.667M567 825L568 826L567 825M573 825L574 826L573 825M579.333 825.667L579.667 826.333L579.333 825.667M587 825L588 826L587 825M593 825L594 826L593 825M599 825L600 826L599 825M607 825L608 826L607 825M613 825L614 826L613 825M619 825L620 826L619 825M627 825L628 826L627 825M633 825L634 826L633 825M494 826L494 830L495 830L494 826M519 826L519 829L520 829L520 828L520 827L519 826M539.333 826.667L539.667 827.333L539.333 826.667M545.333 826.667L545.667 827.333L545.333 826.667M559 826L560 827L559 826M565 826L566 827L565 826M571.333 826.667L571.667 827.333L571.333 826.667M585 826L586 827L585 826M591 826L592 827L591 826M597.333 826.667L597.667 827.333L597.333 826.667M605 826L606 827L605 826M611 826L612 827L611 826M616 826L617 827L616 826M622 826L623 827L622 826M631 826L632 827L631 826M424 827L424 834L425 834L424 827M474 827L474 834L475 834L474 827M500 827L500 830L501 830L501 829L501 828L500 827M505 827L505 831L506 831L505 827M525.333 827.667L525.667 828.333L525.333 827.667M531.333 827.667L531.667 828.333L531.333 827.667M551 827L552 828L551 827M557.333 827.667L557.667 828.333L557.333 827.667M563.333 827.667L563.667 828.333L563.333 827.667M577 827L578 828L577 827M583 827L584 828L583 827M588.333 827.667L588.667 828.333L588.333 827.667M602 827L603 828L602 827M608 827L609 828L608 827M614 827L615 828L614 827M620 827L621 828L620 827M628 827L629 828L628 827M418 828L418 834L419 834L418 828M480 828L480 834L481 834L480 828M511 828L511 831L512 831L512 830L512 829L511 828M537.333 828.667L537.667 829.333L537.333 828.667M543.333 828.667L543.667 829.333L543.333 828.667M549.333 828.667L549.667 829.333L549.333 828.667M568 828L569 829L568 828M574 828L575 829L574 828M580.333 828.667L580.667 829.333L580.333 828.667M594 828L595 829L594 828M600 828L601 829L600 828M606 828L607 829L606 828M612 828L613 829L612 828M617 828L618 829L617 828M626 828L627 829L626 828M632 828L633 829L632 828M412 829L412 834L413 834L412 829M485 829L485 834L486 834L485 829M517.333 829.667L517.667 830.333L517.333 829.667M523.333 829.667L523.667 830.333L523.333 829.667M529 829L529 832L530 832L530 831L530 830L529 829M554 829L555 830L554 829M560.333 829.667L560.667 830.333L560.333 829.667M566.333 829.667L566.667 830.333L566.333 829.667M572.333 829.667L572.667 830.333L572.333 829.667M586 829L587 830L586 829M592 829L593 830L592 829M598 829L599 830L598 829M603 829L604 830L603 829M609 829L610 830L609 829M615.333 829.667L615.667 830.333L615.333 829.667M623 829L624 830L623 829M629 829L630 830L629 829M491 830L491 834L492 834L491 830M497 830L497 834L498 834L497 830M534.333 830.667L534.667 831.333L534.333 830.667M540.333 830.667L540.667 831.333L540.333 830.667M546.333 830.667L546.667 831.333L546.333 830.667M552.333 830.667L552.667 831.333L552.333 830.667M578 830L579 831L578 830M584 830L585 831L584 830M589 830L590 831L589 830M595 830L596 831L595 830M601 830L602 831L601 830M607.333 830.667L607.667 831.333L607.333 830.667M621 830L622 831L621 830M627 830L628 831L627 830M633 830L634 831L633 830M503 831L503 834L504 834L504 833L504 832L503 831M509 831L509 834L510 834L510 833L510 832L509 831M515 831L515 834L516 834L516 833L516 832L515 831M520 831L520 834L521 834L521 833L521 832L520 831M558 831L559 832L558 831M564 831L565 832L564 831M569 831L570 832L569 831M575 831L576 832L575 831M581.333 831.667L581.667 832.333L581.333 831.667M587.333 831.667L587.667 832.333L587.333 831.667M593.333 831.667L593.667 832.333L593.333 831.667M599.333 831.667L599.667 832.333L599.333 831.667M613 831L614 832L613 831M618 831L619 832L618 831M624 831L625 832L624 831M630 831L631 832L630 831M526.333 832.667L526.667 833.333L526.333 832.667M532.333 832.667L532.667 833.333L532.333 832.667M538.333 832.667L538.667 833.333L538.333 832.667M544.333 832.667L544.667 833.333L544.333 832.667M550.333 832.667L550.667 833.333L550.333 832.667M555.333 832.667L555.667 833.333L555.333 832.667M561.333 832.667L561.667 833.333L561.333 832.667M567.333 832.667L567.667 833.333L567.333 832.667M573.333 832.667L573.667 833.333L573.333 832.667M604 832L605 833L604 832M610 832L611 833L610 832M616 832L617 833L616 832M622 832L623 833L622 832M628 832L629 833L628 832M579 833L580 834L579 833M585 833L586 834L585 833M590 833L591 834L590 833M596 833L597 834L596 833M602 833L603 834L602 833M608 833L609 834L608 833M614 833L615 834L614 833M619 833L620 834L619 833M625 833L626 834L625 833M631 833L632 834L631 833M420 834L420 841L421 841L420 834M460 834L460 838L460 839L460 840L460 841L460 842L460 843L460 844L460 845L460 846L460 847L460 848L460 849L460 856L461 856L461 853L461 849L461 848L461 847L461 846L461 845L461 844L461 843L461 842L461 841L461 840L461 839L461 838L460 834M466 834L466 838L466 839L466 840L466 841L466 847L467 847L467 844L466 834M471 834L471 843L472 843L472 840L472 837L471 834M477 834L477 841L478 841L477 834M483 834L483 840L484 840L483 834M489 834L489 839L490 839L489 834M495 834L495 838L496 838L495 834M501 834L501 838L502 838L501 834M506 834L506 837L507 837L507 836L507 835L506 834M512 834L512 837L513 837L513 836L513 835L512 834M518 834L518 837L519 837L519 836L519 835L518 834M524 834L524 837L525 837L525 836L525 835L524 834M530.333 834.667L530.667 835.333L530.333 834.667M535.333 834.667L535.667 835.333L535.333 834.667M541.333 834.667L541.667 835.333L541.333 834.667M547.333 834.667L547.667 835.333L547.333 834.667M553.333 834.667L553.667 835.333L553.333 834.667M559.333 834.667L559.667 835.333L559.333 834.667M565.333 834.667L565.667 835.333L565.333 834.667M570.333 834.667L570.667 835.333L570.333 834.667M576.333 834.667L576.667 835.333L576.333 834.667M582 834L583 835L582 834M588 834L589 835L588 834M594 834L595 835L594 834M600 834L601 835L600 834M605 834L606 835L605 834M611 834L612 835L611 834M617 834L618 835L617 834M623 834L624 835L623 834M629 834L630 835L629 834M580.333 835.667L580.667 836.333L580.333 835.667M586.333 835.667L586.667 836.333L586.333 835.667M591.333 835.667L591.667 836.333L591.333 835.667M597.333 835.667L597.667 836.333L597.333 835.667M603.333 835.667L603.667 836.333L603.333 835.667M609 835L610 836L609 835M615 835L616 836L615 835M620 835L621 836L620 835M626 835L627 836L626 835M632 835L633 836L632 835M527 836L527 839L528 839L528 838L528 837L527 836M533 836L533 839L534 839L534 838L534 837L533 836M539.333 836.667L539.667 837.333L539.333 836.667M545.333 836.667L545.667 837.333L545.333 836.667M551.333 836.667L551.667 837.333L551.333 836.667M556.333 836.667L556.667 837.333L556.333 836.667M562 836L563 837L562 836M568 836L569 837L568 836M574 836L575 837L574 836M606.333 836.667L606.667 837.333L606.333 836.667M612.333 836.667L612.667 837.333L612.333 836.667M618 836L619 837L618 836M624 836L625 837L624 836M630 836L631 837L630 836M504 837L504 841L505 841L504 837M510 837L510 841L511 841L510 837M516 837L516 840L517 840L517 839L517 838L516 837M521.333 837.667L521.667 838.333L521.333 837.667M560.333 837.667L560.667 838.333L560.333 837.667M566.333 837.667L566.667 838.333L566.333 837.667M571.333 837.667L571.667 838.333L571.333 837.667M577.333 837.667L577.667 838.333L577.333 837.667M583 837L584 838L583 837M589 837L590 838L589 837M595 837L596 838L595 837M601 837L602 838L601 837M616.333 837.667L616.667 838.333L616.333 837.667M621.333 837.667L621.667 838.333L621.333 837.667M627 837L628 838L627 837M633 837L634 838L633 837M492 838L492 843L493 843L492 838M498 838L498 842L499 842L498 838M536 838L536 841L537 841L537 840L537 839L536 838M542.333 838.667L542.667 839.333L542.333 838.667M548.333 838.667L548.667 839.333L548.333 838.667M554.333 838.667L554.667 839.333L554.333 838.667M581.333 838.667L581.667 839.333L581.333 838.667M587.333 838.667L587.667 839.333L587.333 838.667M592 838L593 839L592 838M598 838L599 839L598 838M604 838L605 839L604 838M610 838L611 839L610 838M625.333 838.667L625.667 839.333L625.333 838.667M631 838L632 839L631 838M486 839L486 845L487 845L486 839M519 839L519 843L520 843L519 839M525 839L525 842L526 842L526 841L526 840L525 839M531.333 839.667L531.667 840.333L531.333 839.667M557.333 839.667L557.667 840.333L557.333 839.667M563.333 839.667L563.667 840.333L563.333 839.667M569.333 839.667L569.667 840.333L569.333 839.667M575 839L576 840L575 839M590.333 839.667L590.667 840.333L590.333 839.667M596.333 839.667L596.667 840.333L596.333 839.667M602 839L603 840L602 839M607 839L608 840L607 839M613 839L614 840L613 839M619 839L620 840L619 839M628.333 839.667L628.667 840.333L628.333 839.667M481 840L481 847L482 847L481 840M513 840L513 843L514 843L514 842L514 841L513 840M540 840L540 843L541 843L541 842L541 841L540 840M546.333 840.667L546.667 841.333L546.333 840.667M552.333 840.667L552.667 841.333L552.333 840.667M572.333 840.667L572.667 841.333L572.333 840.667M578.333 840.667L578.667 841.333L578.333 840.667M584 840L585 841L584 840M599.333 840.667L599.667 841.333L599.333 840.667M605.333 840.667L605.667 841.333L605.333 840.667M611 840L612 841L611 840M617 840L618 841L617 840M622 840L623 841L622 840M632 840L633 844L634 844L632 840M475 841L475 850L476 850L476 847L476 844L475 841M502 841L502 846L503 846L502 841M507 841L507 844L508 844L508 843L508 842L507 841M528 841L528 844L529 844L529 843L529 842L528 841M534.333 841.667L534.667 842.333L534.333 841.667M555.333 841.667L555.667 842.333L555.333 841.667M561.333 841.667L561.667 842.333L561.333 841.667M567 841L568 842L567 841M582.333 841.667L582.667 842.333L582.333 841.667M588.333 841.667L588.667 842.333L588.333 841.667M593 841L594 842L593 841M608.333 841.667L608.667 842.333L608.333 841.667M614 841L615 842L614 841M620 841L621 842L620 841M626 841L627 842L626 841M496 842L496 847L497 847L496 842M522 842L522 845L523 845L523 844L523 843L522 842M543 842L543 845L544 845L544 844L544 843L543 842M549.333 842.667L549.667 843.333L549.333 842.667M564.333 842.667L564.667 843.333L564.333 842.667M570.333 842.667L570.667 843.333L570.333 842.667M576 842L577 843L576 842M591.333 842.667L591.667 843.333L591.333 842.667M597 842L598 843L597 842M603 842L604 843L603 842M612.333 842.667L612.667 843.333L612.333 842.667M618 842L619 843L618 842M623 842L624 843L623 842M629 842L630 843L629 842M469 843L469 847L469 848L469 849L469 850L469 856L470 856L470 853L469 843M490 843L490 849L491 849L490 843M511 843L511 847L512 847L511 843M517 843L517 846L518 846L518 845L518 844L517 843M532 843L532 846L533 846L533 845L533 844L532 843M537.333 843.667L537.667 844.333L537.333 843.667M553 843L553 846L554 846L554 845L554 844L553 843M558.333 843.667L558.667 844.333L558.333 843.667M573.333 843.667L573.667 844.333L573.333 843.667M579.333 843.667L579.667 844.333L579.333 843.667M585 843L586 844L585 843M594.333 843.667L594.667 844.333L594.333 843.667M600 843L601 844L600 843M606 843L607 844L606 843M615.333 843.667L615.667 844.333L615.333 843.667M621 843L622 844L621 843M627 843L628 844L627 843M505 844L505 849L506 849L505 844M526 844L526 847L527 847L527 846L527 845L526 844M547.333 844.667L547.667 845.333L547.333 844.667M562.333 844.667L562.667 845.333L562.333 844.667M568.333 844.667L568.667 845.333L568.333 844.667M583.333 844.667L583.667 845.333L583.333 844.667M589 844L590 845L589 844M598.333 844.667L598.667 845.333L598.333 844.667M604.333 844.667L604.667 845.333L604.333 844.667M609 844L610 845L609 844M619.333 844.667L619.667 845.333L619.333 844.667M624 844L625 845L624 844M630 844L631 845L630 844M484 845L484 852L485 852L484 845M520 845L520 848L521 848L521 847L521 846L520 845M535 845L535 848L536 848L536 847L536 846L535 845M541.333 845.667L541.667 846.333L541.333 845.667M556.333 845.667L556.667 846.333L556.333 845.667M571.333 845.667L571.667 846.333L571.333 845.667M577 845L578 846L577 845M586.333 845.667L586.667 846.333L586.333 845.667M592.333 845.667L592.667 846.333L592.333 845.667M607.333 845.667L607.667 846.333L607.333 845.667M613 845L614 846L613 845M622.333 845.667L622.667 846.333L622.333 845.667M628 845L629 846L628 845M499 846L499 850L500 850L499 846M514 846L514 850L515 850L514 846M529 846L529 849L530 849L530 848L530 847L529 846M544 846L544 849L545 849L545 848L545 847L544 846M550.333 846.667L550.667 847.333L550.333 846.667M559 846L559 849L560 849L560 848L560 847L559 846M565.333 846.667L565.667 847.333L565.333 846.667M574.333 846.667L574.667 847.333L574.333 846.667M580.333 846.667L580.667 847.333L580.333 846.667M595.333 846.667L595.667 847.333L595.333 846.667M601 846L602 847L601 846M610.333 846.667L610.667 847.333L610.333 846.667M616 846L617 847L616 846M625 846L626 850L627 850L625 846M631 846L632 847L631 846M463 847L463 851L463 852L463 853L463 854L463 855L463 856L463 857L463 858L463 859L463 860L463 861L463 862L463 867L464 867L464 864L464 860L464 859L464 858L464 857L464 856L464 855L464 854L464 853L463 847M478 847L478 856L479 856L479 853L479 850L478 847M493 847L493 853L494 853L493 847M508 847L508 851L509 851L508 847M523 847L523 850L524 850L524 849L524 848L523 847M538 847L538 850L539 850L539 849L539 848L538 847M554.333 847.667L554.667 848.333L554.333 847.667M569.333 847.667L569.667 848.333L569.333 847.667M584.333 847.667L584.667 848.333L584.333 847.667M590 847L591 848L590 847M599.333 847.667L599.667 848.333L599.333 847.667M605 847L606 848L605 847M614 847L615 851L616 851L614 847M620 847L621 848L620 847M629 847L630 848L629 847M518 848L518 852L519 852L518 848M533 848L533 851L534 851L534 850L534 849L533 848M548.333 848.667L548.667 849.333L548.333 848.667M563.333 848.667L563.667 849.333L563.333 848.667M572.333 848.667L572.667 849.333L572.333 848.667M578.333 848.667L578.667 849.333L578.333 848.667M587.333 848.667L587.667 849.333L587.333 848.667M593 848L594 849L593 848M602.333 848.667L602.667 849.333L602.333 848.667M608 848L609 849L608 848M617 848L618 849L617 848M623 848L624 849L623 848M632 848L633 849L632 848M487 849L487 856L488 856L487 849M503 849L503 853L504 853L503 849M527 849L527 852L528 852L528 851L528 850L527 849M542.333 849.667L542.667 850.333L542.333 849.667M551 849L551 852L552 852L552 851L552 850L551 849M557.333 849.667L557.667 850.333L557.333 849.667M566.333 849.667L566.667 850.333L566.333 849.667M581.333 849.667L581.667 850.333L581.333 849.667M591.333 849.667L591.667 850.333L591.333 849.667M596 849L597 850L596 849M606.333 849.667L606.667 850.333L606.333 849.667M611 849L612 850L611 849M621 849L622 850L621 849M630 849L631 853L632 853L630 849M472 850L472 854L472 855L472 856L472 857L472 862L473 862L473 859L472 850M497 850L497 856L498 856L497 850M512 850L512 854L513 854L512 850M521 850L521 854L522 854L521 850M536 850L536 853L537 853L537 852L537 851L536 850M545 850L545 853L546 853L546 852L546 851L545 850M560.333 850.667L560.667 851.333L560.333 850.667M570.333 850.667L570.667 851.333L570.333 850.667M575.333 850.667L575.667 851.333L575.333 850.667M585.333 850.667L585.667 851.333L585.333 850.667M594.333 850.667L594.667 851.333L594.333 850.667M600 850L601 851L600 850M609.333 850.667L609.667 851.333L609.333 850.667M618.333 850.667L618.667 851.333L618.333 850.667M624 850L625 851L624 850M633 850L634 851L633 850M506 851L506 856L507 856L506 851M530 851L530 854L531 854L531 853L531 852L530 851M539 851L539 854L540 854L540 853L540 852L539 851M555.333 851.667L555.667 852.333L555.333 851.667M564.333 851.667L564.667 852.333L564.333 851.667M579.333 851.667L579.667 852.333L579.333 851.667M588.333 851.667L588.667 852.333L588.333 851.667M597.333 851.667L597.667 852.333L597.333 851.667M603 851L604 852L603 851M612 851L613 855L614 855L612 851M622.333 851.667L622.667 852.333L622.333 851.667M627 851L628 852L627 851M482 852L482 860L483 860L482 852M515 852L515 856L516 856L515 852M524 852L524 856L525 856L524 852M549.333 852.667L549.667 853.333L549.333 852.667M558 852L558 855L559 855L559 854L559 853L558 852M567 852L567 855L568 855L568 854L568 853L567 852M573.333 852.667L573.667 853.333L573.333 852.667M582.333 852.667L582.667 853.333L582.333 852.667M592.333 852.667L592.667 853.333L592.333 852.667M601.333 852.667L601.667 853.333L601.333 852.667M607 852L608 853L607 852M616 852L617 853L616 852M625 852L626 856L627 856L625 852M491 853L491 859L492 859L491 853M500 853L500 859L501 859L500 853M534 853L534 856L535 856L535 855L535 854L534 853M543 853L543 856L544 856L544 855L544 854L543 853M552 853L552 856L553 856L553 855L553 854L552 853M561 853L561 856L562 856L562 855L562 854L561 853M576.333 853.667L576.667 854.333L576.333 853.667M586.333 853.667L586.667 854.333L586.333 853.667M595.333 853.667L595.667 854.333L595.333 853.667M604.333 853.667L604.667 854.333L604.333 853.667M610 853L611 854L610 853M619 853L620 854L619 853M628 853L629 854L628 853M509 854L509 858L510 858L509 854M519 854L519 858L520 858L519 854M528 854L528 858L529 858L528 854M537 854L537 857L538 857L538 856L538 855L537 854M546 854L546 857L547 857L547 856L547 855L546 854M571.333 854.667L571.667 855.333L571.333 854.667M580.333 854.667L580.667 855.333L580.333 854.667M589.333 854.667L589.667 855.333L589.333 854.667M598.333 854.667L598.667 855.333L598.333 854.667M608.333 854.667L608.667 855.333L608.333 854.667M617.333 854.667L617.667 855.333L617.333 854.667M623 854L624 855L623 854M632 854L633 855L632 854M556.333 855.667L556.667 856.333L556.333 855.667M565.333 855.667L565.667 856.333L565.333 855.667M574.333 855.667L574.667 856.333L574.333 855.667M583.333 855.667L583.667 856.333L583.333 855.667M593.333 855.667L593.667 856.333L593.333 855.667M602.333 855.667L602.667 856.333L602.333 855.667M611 855L612 859L613 859L611 855M620 855L621 859L622 859L620 855M629 855L630 859L631 859L629 855M467 856L467 860L467 861L467 862L467 863L467 864L467 865L467 866L467 867L467 873L468 873L468 870L468 866L468 865L468 864L468 863L467 856M476 856L476 860L476 861L476 862L476 863L476 867L477 867L477 864L476 856M485 856L485 864L486 864L485 856M494 856L494 862L495 862L494 856M504 856L504 861L505 861L504 856M513 856L513 860L514 860L513 856M522 856L522 860L523 860L522 856M531 856L531 859L532 859L532 858L532 857L531 856M540 856L540 859L541 859L541 858L541 857L540 856M550 856L550 859L551 859L551 858L551 857L550 856M559.333 856.667L559.667 857.333L559.333 856.667M568.333 856.667L568.667 857.333L568.333 856.667M577.333 856.667L577.667 857.333L577.333 856.667M587.333 856.667L587.667 857.333L587.333 856.667M596.333 856.667L596.667 857.333L596.333 856.667M605 856L606 860L607 860L605 856M614 856L615 857L614 856M624 856L625 857L624 856M633 856L634 857L633 856M535 857L535 861L536 861L535 857M544 857L544 860L545 860L545 859L545 858L544 857M553 857L553 860L554 860L554 859L554 858L553 857M562.333 857.667L562.667 858.333L562.333 857.667M572.333 857.667L572.667 858.333L572.333 857.667M581.333 857.667L581.667 858.333L581.333 857.667M590.333 857.667L590.667 858.333L590.333 857.667M599 857L600 861L601 861L599 857M609 857L610 858L609 857M618 857L619 858L618 857M627 857L628 858L627 857M507 858L507 863L508 863L507 858M516 858L516 862L517 862L516 858M525 858L525 861L526 861L526 860L526 859L525 858M557 858L557 861L558 861L558 860L558 859L557 858M566 858L566 861L567 861L567 860L567 859L566 858M575.333 858.667L575.667 859.333L575.333 858.667M584.333 858.667L584.667 859.333L584.333 858.667M594 858L595 862L596 862L594 858M603 858L604 859L603 858M615.333 858.667L615.667 859.333L615.333 858.667M625 858L626 862L627 862L625 858M488 859L488 867L489 867L488 859M498 859L498 865L499 865L498 859M529 859L529 863L530 863L529 859M538 859L538 862L539 862L539 861L539 860L538 859M547.333 859.667L547.667 860.333L547.333 859.667M560 859L560 862L561 862L561 861L561 860L560 859M569 859L569 862L570 862L570 861L570 860L569 859M578.333 859.667L578.667 860.333L578.333 859.667M588.333 859.667L588.667 860.333L588.333 859.667M597 859L598 860L597 859M610.333 859.667L610.667 860.333L610.333 859.667M619 859L620 863L621 863L619 859M628 859L629 860L628 859M479 860L479 870L480 870L480 867L479 860M510 860L510 865L511 865L510 860M520 860L520 864L521 864L520 860M541 860L541 863L542 863L542 862L542 861L541 860M551 860L551 863L552 863L552 862L552 861L551 860M573 860L574 866L575 866L573 860M582.333 860.667L582.667 861.333L582.333 860.667M591 860L593 867L594 867L591 860M604.333 860.667L604.667 861.333L604.333 860.667M613 860L614 864L615 864L613 860M622 860L623 861L622 860M631 860L632 861L631 860M501 861L501 867L502 867L501 861M523 861L523 865L524 865L523 861M532 861L532 864L533 864L533 863L533 862L532 861M545 861L545 865L546 865L545 861M554 861L554 864L555 864L555 863L555 862L554 861M563.333 861.667L563.667 862.333L563.333 861.667M576.333 861.667L576.667 862.333L576.333 861.667M585.333 861.667L585.667 862.333L585.333 861.667M598.333 861.667L598.667 862.333L598.333 861.667M607.333 861.667L607.667 862.333L607.333 861.667M616 861L617 862L616 861M629 861L630 865L631 865L629 861M492 862L492 869L493 869L492 862M514 862L514 867L515 867L514 862M536 862L536 866L537 866L536 862M558 862L558 865L559 865L559 864L559 863L558 862M567.333 862.667L567.667 863.333L567.333 862.667M579.333 862.667L579.667 863.333L579.333 862.667M589.333 862.667L589.667 863.333L589.333 862.667M601.333 862.667L601.667 863.333L601.333 862.667M611 862L612 866L613 866L611 862M623 862L624 866L625 866L623 862M632 862L633 863L632 862M505 863L505 869L506 869L505 863M526 863L526 867L527 867L526 863M539 863L539 867L540 867L539 863M548 863L548 866L549 866L549 865L549 864L548 863M561 863L561 866L562 866L562 865L562 864L561 863M570.333 863.667L570.667 864.333L570.333 863.667M583.333 863.667L583.667 864.333L583.333 863.667M596.333 863.667L596.667 864.333L596.333 863.667M605 863L606 867L607 867L605 863M617.333 863.667L617.667 864.333L617.333 863.667M627 863L628 864L627 863M483 864L483 873L484 873L484 870L484 867L483 864M517 864L517 868L518 868L517 864M530 864L530 868L531 868L530 864M552 864L552 867L553 867L553 866L553 865L552 864M564 864L564 867L565 867L565 866L565 865L564 864M577 864L577 867L578 867L578 866L578 865L577 864M586.333 864.667L586.667 865.333L586.333 864.667M599.333 864.667L599.667 865.333L599.333 864.667M608 864L609 865L608 864M621 864L622 868L623 868L621 864M633.333 864.667L633.667 865.333L633.333 864.667M495 865L495 871L496 871L495 865M508 865L508 870L509 870L508 865M521 865L521 870L522 870L521 865M542 865L542 868L543 868L543 867L543 866L542 865M555 865L555 868L556 868L556 867L556 866L555 865M568 865L569 871L570 871L568 865M580 865L581 871L582 871L580 865M602 865L603 869L604 869L602 865M615 865L616 869L617 869L615 865M628 865L629 869L630 869L628 865M533 866L533 869L534 869L534 868L534 867L533 866M546 866L546 869L547 869L547 868L547 867L546 866M559 866L559 869L560 869L560 868L560 867L559 866M571.333 866.667L571.667 867.333L571.333 866.667M584.333 866.667L584.667 867.333L584.333 866.667M597.333 866.667L597.667 867.333L597.333 866.667M609.333 866.667L609.667 867.333L609.333 866.667M618 866L619 867L618 866M631 866L632 867L631 866M499 867L499 873L500 873L499 867M511 867L511 872L512 872L511 867M524 867L524 871L525 871L524 867M537 867L537 870L538 870L538 869L538 868L537 867M549 867L549 870L550 870L550 869L550 868L549 867M562 867L563 873L564 873L562 867M575.333 867.667L575.667 868.333L575.333 867.667M587.333 867.667L587.667 868.333L587.333 867.667M600 867L601 872L602 872L600 867M613 867L614 871L615 871L613 867M625 867L627 873L628 873L625 867M515 868L515 873L516 873L515 868M527 868L527 872L528 872L527 868M540 868L540 871L541 871L541 870L541 869L540 868M553 868L553 871L554 871L554 870L554 869L553 868M565.333 868.667L565.667 869.333L565.333 868.667M578.333 868.667L578.667 869.333L578.333 868.667M594.333 868.667L594.667 869.333L594.333 868.667M607.333 868.667L607.667 869.333L607.333 868.667M619 868L620 872L621 872L619 868M632 868L633 872L634 872L632 868M531 869L531 873L532 873L531 869M543 869L543 872L544 872L544 871L544 870L543 869M556 869L556 872L557 872L557 871L557 870L556 869M572 869L572 872L573 872L573 871L573 870L572 869M585.333 869.667L585.667 870.333L585.333 869.667M598.333 869.667L598.667 870.333L598.333 869.667M610 869L611 873L612 873L610 869M623 869L624 870L623 869M547 870L547 873L548 873L548 872L548 871L547 870M560 870L560 873L561 873L561 872L561 871L560 870M576 870L576 873L577 873L577 872L577 871L576 870M588.333 870.667L588.667 871.333L588.333 870.667M604.333 870.667L604.667 871.333L604.333 870.667M617.333 870.667L617.667 871.333L617.333 870.667M630 870L631 871L630 870M579.333 871.667L579.667 872.333L579.333 871.667M595.333 871.667L595.667 872.333L595.333 871.667M608.333 871.667L608.667 872.333L608.333 871.667M624.333 871.667L624.667 872.333L624.333 871.667z"/>
</svg>
