<?xml version="1.0" standalone="yes"?>
<svg width="900" height="900">
<path style="fill:#010101; stroke:none;" d="M550 251L550 255L550 256L550 257L550 258L550 259L550 260L550 261L550 262L550 263L550 264L550 265L550 266L550 267L550 268L550 269L550 270L550 271L550 272L550 273L550 274L550 275L550 276L550 277L550 278L550 279L550 280L550 281L550 282L550 283L550 284L550 285L550 286L550 287L550 288L550 289L550 290L550 291L550 292L550 293L550 294L550 295L550 296L550 297L550 298L550 302L551 302L551 299L551 295L551 294L551 293L551 292L551 291L551 290L551 289L551 288L551 287L551 286L551 285L551 284L551 283L551 282L551 281L551 280L551 279L551 278L551 277L551 276L551 275L551 274L551 273L551 272L551 271L551 270L551 269L551 268L551 267L551 266L551 265L551 264L551 263L551 262L551 261L551 260L551 259L551 258L551 257L551 256L550 251M538 252L536 256L536 259L535 261L534 261L534 263L532 265L532 268L531 270L530 270L530 272L528 274L528 277L527 279L526 279L525 281L525 284L524 286L523 286L523 288L521 290L521 293L520 295L519 295L519 297L517 299L517 302L516 304L515 304L515 306L514 308L510 308L509 308L508 308L507 308L506 308L505 308L504 308L503 308L502 308L501 308L500 308L499 308L498 308L497 308L496 308L495 308L494 308L493 308L492 308L491 308L490 308L489 308L488 308L487 308L486 308L485 308L484 308L483 308L482 308L481 308L480 308L479 308L478 308L477 308L476 308L475 308L474 308L473 308L472 308L471 308L470 308L469 308L468 308L467 308L466 308L465 308L464 308L463 308L462 308L461 308L460 308L459 308L458 308L457 308L456 308L455 308L454 308L453 308L452 308L451 308L450 308L449 308L448 308L447 308L446 308L445 308L444 308L443 308L442 308L441 308L440 308L439 308L438 308L437 308L436 308L435 308L434 308L433 308L432 308L431 308L430 308L429 308L428 308L427 308L426 308L425 308L424 308L423 308L422 308L421 308L420 308L419 308L418 308L417 308L416 308L415 308L414 308L413 308L412 308L411 308L410 308L409 308L408 308L407 308L406 308L405 308L404 308L403 308L402 308L401 308L400 308L399 308L398 308L397 308L396 308L395 308L394 308L393 308L392 308L391 308L385 308L384 304L383 304L382 302L382 299L381 297L380 297L380 295L378 293L378 290L377 288L376 288L376 286L374 284L374 281L373 279L372 279L371 277L371 274L370 272L369 272L369 270L367 268L367 265L366 263L365 263L365 261L363 259L363 256L362 254L361 254L361 258L361 259L361 260L361 261L361 262L361 263L361 264L361 265L361 266L361 267L361 268L361 269L361 270L361 271L361 272L361 273L361 274L361 275L361 276L361 277L361 278L361 279L361 280L361 281L361 282L361 283L361 284L361 285L361 286L361 287L361 288L361 289L361 290L361 291L361 292L361 293L361 294L361 295L361 296L361 297L362 303L361 306L362 308L361 310L361 314L364 312L366 314L368 314L372 314L373 314L374 314L375 314L376 314L377 314L378 314L379 314L380 314L381 314L382 314L383 314L384 314L385 314L386 314L387 314L388 314L389 314L390 314L391 314L392 314L393 314L394 314L395 314L396 314L397 314L398 314L399 314L400 314L401 314L402 314L403 314L404 314L405 314L406 314L407 314L412 314L412 318L412 319L412 320L412 321L412 322L412 323L412 324L412 325L412 326L412 327L412 328L412 329L412 330L412 331L412 332L412 333L412 334L412 335L412 336L412 337L412 338L412 339L412 340L412 341L412 342L412 343L412 344L412 345L412 346L412 347L412 348L412 349L412 350L412 351L412 352L412 353L412 354L412 355L412 356L412 357L412 358L412 359L412 360L412 361L412 362L412 363L412 364L412 365L412 366L412 367L412 368L412 369L412 370L412 371L412 372L412 373L412 374L412 375L412 376L412 377L412 378L412 379L412 380L412 381L412 382L412 383L412 384L412 385L412 386L412 387L412 388L412 389L412 390L412 391L412 392L412 393L412 394L412 395L412 396L412 397L412 398L412 399L412 400L412 401L412 402L412 403L412 404L412 405L412 406L412 407L412 408L412 409L412 413L415 415L415 411L415 410L415 409L415 408L415 407L415 406L415 405L415 404L415 403L415 402L415 401L415 400L415 399L415 398L415 397L415 396L415 395L415 394L415 393L415 392L415 391L415 390L415 389L415 388L415 387L415 386L415 385L415 384L415 383L415 382L415 381L415 380L415 379L415 378L415 377L415 376L415 375L415 374L415 373L415 372L415 371L415 370L415 369L415 368L415 367L415 366L415 365L415 364L415 363L415 362L415 361L415 360L415 359L415 358L415 357L415 356L415 355L415 354L415 353L415 352L415 351L415 350L415 349L415 348L415 347L415 346L415 345L415 344L415 343L415 342L415 341L415 340L415 339L415 338L415 337L415 336L415 335L415 334L415 333L415 332L415 331L415 330L415 329L415 328L415 327L415 326L415 325L415 324L415 323L415 322L415 321L415 320L415 314L416 314L416 317L416 321L416 322L416 323L416 324L416 325L416 326L416 327L416 328L416 329L416 330L416 331L416 332L416 333L416 334L416 335L416 336L416 337L416 338L416 339L416 340L416 341L416 342L416 343L416 344L416 345L416 346L416 347L416 348L416 349L416 350L416 351L416 352L416 353L416 354L416 355L416 356L416 357L416 358L416 359L416 360L416 361L416 362L416 363L416 364L416 365L416 366L416 367L416 368L416 369L416 370L416 371L416 372L416 373L416 374L416 375L416 376L416 377L416 378L416 379L416 380L416 381L416 382L416 383L416 384L416 385L416 386L416 387L416 388L416 389L416 390L416 391L416 392L416 393L416 394L416 395L416 396L416 397L416 398L416 399L416 400L416 401L416 402L416 403L416 404L416 405L416 406L416 407L416 408L416 409L416 410L416 411L416 412L416 416L419 418L419 414L419 413L419 412L419 411L419 410L419 409L419 408L419 407L419 406L419 405L419 404L419 403L419 402L419 401L419 400L419 399L419 398L419 397L419 396L419 395L419 394L419 393L419 392L419 391L419 390L419 389L419 388L419 387L419 386L419 385L419 384L419 383L419 382L419 381L419 380L419 379L419 378L419 377L419 376L419 375L419 374L419 373L419 372L419 371L419 370L419 369L419 368L419 367L419 366L419 365L419 364L419 363L419 362L419 361L419 360L419 359L419 358L419 357L419 356L419 355L419 354L419 353L419 352L419 351L419 350L419 349L419 348L419 347L419 346L419 345L419 344L419 343L419 342L419 341L419 340L419 339L419 338L419 337L419 336L419 335L419 334L419 333L419 332L419 331L419 330L419 329L419 328L419 327L419 326L419 325L419 324L419 323L419 322L419 321L419 320L419 319L419 314L420 314L420 317L420 321L420 322L420 323L420 324L420 325L420 326L420 327L420 328L420 329L420 330L420 331L420 332L420 333L420 334L420 335L420 336L420 337L420 338L420 339L420 340L420 341L420 342L420 343L420 344L420 345L420 346L420 347L420 348L420 349L420 350L420 351L420 352L420 353L420 354L420 355L420 356L420 357L420 358L420 359L420 360L420 361L420 362L420 363L420 364L420 365L420 366L420 367L420 368L420 369L420 370L420 371L420 372L420 373L420 374L420 375L420 376L420 377L420 378L420 379L420 380L420 381L420 382L420 383L420 384L420 385L420 386L420 387L420 388L420 389L420 390L420 391L420 392L420 393L420 394L420 395L420 396L420 397L420 398L420 399L420 400L420 401L420 402L420 403L420 404L420 405L420 406L420 407L420 408L420 409L420 410L420 411L420 412L420 413L420 414L420 415L420 416L420 420L423 422L423 418L423 417L423 416L423 415L423 414L423 413L423 412L423 411L423 410L423 409L423 408L423 407L423 406L423 405L423 404L423 403L423 402L423 401L423 400L423 399L423 398L423 397L423 396L423 395L423 394L423 393L423 392L423 391L423 390L423 389L423 388L423 387L423 386L423 385L423 384L423 383L423 382L423 381L423 380L423 379L423 378L423 377L423 376L423 375L423 374L423 373L423 372L423 371L423 370L423 369L423 368L423 367L423 366L423 365L423 364L423 363L423 362L423 361L423 360L423 359L423 358L423 357L423 356L423 355L423 354L423 353L423 352L423 351L423 350L423 349L423 348L423 347L423 346L423 345L423 344L423 343L423 342L423 341L423 340L423 339L423 338L423 337L423 336L423 335L423 334L423 333L423 332L423 331L423 330L423 329L423 328L423 327L423 326L423 325L423 324L423 323L423 322L423 321L423 320L423 319L423 314L424 314L424 317L424 321L424 322L424 323L424 324L424 325L424 326L424 327L424 328L424 329L424 330L424 331L424 332L424 333L424 334L424 335L424 336L424 337L424 338L424 339L424 340L424 341L424 342L424 343L424 344L424 345L424 346L424 347L424 348L424 349L424 350L424 351L424 352L424 353L424 354L424 355L424 356L424 357L424 358L424 359L424 360L424 361L424 362L424 363L424 364L424 365L424 366L424 367L424 368L424 369L424 370L424 371L424 372L424 373L424 374L424 375L424 376L424 377L424 378L424 379L424 380L424 381L424 382L424 383L424 384L424 385L424 386L424 387L424 388L424 389L424 390L424 391L424 392L424 393L424 394L424 395L424 396L424 397L424 398L424 399L424 400L424 401L424 402L424 403L424 404L424 405L424 406L424 407L424 408L424 409L424 410L424 411L424 412L424 413L424 414L424 415L424 416L424 417L424 418L424 419L424 420L424 427L426 429L427 429L427 430L428 430L430 432L430 436L430 437L430 438L430 439L430 440L430 441L430 442L430 443L430 444L430 445L430 446L430 447L430 448L430 449L430 450L430 451L430 452L430 453L430 454L430 455L430 456L430 457L430 458L430 459L430 460L430 461L430 462L430 463L430 464L430 465L430 466L430 467L430 472L428 474L427 474L427 475L426 475L424 477L424 482L428 479L429 482L426 485L424 489L425 491L424 492L425 492L427 489L427 492L428 492L429 489L430 489L430 493L425 499L426 502L424 501L424 505L426 508L426 511L425 511L424 515L427 517L429 516L429 520L427 523L427 527L425 530L424 534L424 535L425 538L424 538L424 541L425 541L425 544L424 549L425 549L425 545L426 545L426 541L427 541L427 537L428 537L428 542L429 542L429 547L428 547L428 545L427 545L428 552L427 552L427 549L426 549L427 552L427 557L426 557L426 562L425 562L424 567L424 569L425 570L425 577L426 577L425 584L427 584L427 589L426 589L426 592L426 600L427 600L427 608L426 608L426 615L425 615L425 623L424 623L424 631L423 631L423 628L423 624L423 623L423 622L423 621L423 620L423 619L423 618L423 617L422 611L421 611L422 614L422 619L421 619L421 617L420 617L421 620L421 625L420 625L419 623L418 613L417 613L418 620L417 620L417 618L416 618L417 625L416 625L415 623L414 613L413 613L414 616L414 621L413 621L413 617L412 617L412 621L413 621L413 626L412 626L412 631L408 631L407 631L406 631L405 631L404 631L403 631L402 631L401 631L400 631L399 631L398 631L397 631L396 631L395 631L394 631L393 631L392 631L391 631L390 631L389 631L388 631L387 631L386 631L385 631L378 631L377 635L375 637L374 643L372 645L372 648L370 650L370 653L368 655L368 658L366 660L366 663L364 665L364 668L362 670L361 676L365 676L366 676L367 676L368 676L369 676L370 676L371 676L372 676L373 676L374 676L375 676L376 676L377 676L378 676L379 676L380 676L381 676L382 676L383 676L384 676L385 676L386 676L387 676L388 676L389 676L390 676L391 676L392 676L393 676L394 676L395 676L396 676L397 676L398 676L399 676L400 676L401 676L402 676L403 676L404 676L405 676L406 676L407 676L408 676L409 676L410 676L411 676L412 676L413 676L414 676L415 676L416 676L423 677L423 668L424 668L425 678L426 678L426 668L427 668C427.002 671.346 426.142 675.515 430 676L430 680L431 680L431 677L431 668L435 668L436 668L437 668L438 668L439 668L440 668L441 668L442 668L443 668L444 668L445 668L446 668L447 668L448 668L449 668L450 668L451 668L452 668L453 668L454 668L455 668L456 668L457 668L458 668L459 668L460 668L461 668L462 668L468 668L468 672L468 673L468 674L468 675L468 680L469 680L469 676L473 676L472 673L472 665L471 665L471 662L471 658L471 657L471 656L471 655L471 654L471 653L471 652L471 651L471 646L472 646L472 642L473 642L473 634L476 630L475 630L475 632L474 632L474 624L473 624L473 617L472 617L472 610L475 610L475 604L474 604L474 610L473 610L473 603L474 603L474 598L473 598L473 603L472 603L472 596L473 596L473 592L472 592L472 596L471 596L471 589L473 586L473 581L472 581L471 589L470 589L470 583L472 580L472 575L471 575L471 580L470 580L470 574L471 574L473 570L472 567L472 560L473 560L473 564L474 564L474 569L475 569L473 575L476 573L476 568L475 568L476 560L476 559L475 555L474 555L474 551L473 551L473 547L472 547L472 543L471 543L471 539L470 539L470 535L469 535L470 528L471 528L471 531L472 531L472 528L473 528L474 534L475 534L476 529L476 528L475 525L474 525L474 522L473 522L473 519L472 519L472 516L471 516L471 513L470 513L469 508L472 510L474 517L476 514L474 515L475 512L473 512L472 506L473 506L474 510L475 510L475 504L473 502L473 500L472 500L472 498L471 498L471 496L469 494L469 492L470 490L474 491L473 496L476 494L476 489L474 490L475 487L473 484L470 483L470 479L473 479L476 482L475 478L473 476L472 476L472 475L471 475L469 471L471 473L472 473L472 474L473 474L475 476L473 474L473 473L472 473L472 472L469 470L469 466L469 465L469 464L469 463L469 462L469 461L469 460L469 459L469 458L469 457L469 456L469 455L469 454L469 453L469 452L469 451L469 450L469 449L469 448L469 447L469 446L469 445L469 444L469 443L469 442L469 441L469 440L469 439L469 438L469 437L469 436L469 435L469 429L471 427L472 427L472 426L473 426L476 423L476 419L476 418L476 417L476 416L476 415L476 414L476 413L476 412L476 411L476 410L476 409L476 408L476 407L476 406L476 405L476 404L476 403L476 402L476 401L476 400L476 399L476 398L476 397L476 396L476 395L476 394L476 393L476 392L476 391L476 390L476 389L476 388L476 387L476 386L476 385L476 384L476 383L476 382L476 381L476 380L476 379L476 378L476 377L476 376L476 375L476 374L476 373L476 372L476 371L476 370L476 369L476 368L476 367L476 366L476 365L476 364L476 363L476 362L476 361L476 360L476 359L476 358L476 357L476 356L476 355L476 354L476 353L476 352L476 351L476 350L476 349L476 348L476 347L476 346L476 345L476 344L476 343L476 342L476 341L476 340L476 339L476 338L476 337L476 336L476 335L476 334L476 333L476 332L476 331L476 330L476 329L476 328L476 327L476 326L476 325L476 324L476 323L476 322L476 321L476 320L476 314L478 314L478 316L478 320L478 321L478 322L478 323L478 324L478 325L478 326L478 327L478 328L478 329L478 330L478 331L478 332L478 333L478 334L478 335L478 336L478 337L478 338L478 339L478 340L478 341L478 342L478 343L478 344L478 345L478 346L478 347L478 348L478 349L478 350L478 351L478 352L478 353L478 354L478 355L478 356L478 357L478 358L478 359L478 360L478 361L478 362L478 363L478 364L478 365L478 366L478 367L478 368L478 369L478 370L478 371L478 372L478 373L478 374L478 375L478 376L478 377L478 378L478 379L478 380L478 381L478 382L478 383L478 384L478 385L478 386L478 387L478 388L478 389L478 390L478 391L478 392L478 393L478 394L478 395L478 396L478 397L478 398L478 399L478 400L478 401L478 402L478 403L478 404L478 405L478 406L478 407L478 408L478 409L478 410L478 411L478 412L478 413L478 414L478 415L478 421L479 421L480 419L480 415L480 414L480 413L480 412L480 411L480 410L480 409L480 408L480 407L480 406L480 405L480 404L480 403L480 402L480 401L480 400L480 399L480 398L480 397L480 396L480 395L480 394L480 393L480 392L480 391L480 390L480 389L480 388L480 387L480 386L480 385L480 384L480 383L480 382L480 381L480 380L480 379L480 378L480 377L480 376L480 375L480 374L480 373L480 372L480 371L480 370L480 369L480 368L480 367L480 366L480 365L480 364L480 363L480 362L480 361L480 360L480 359L480 358L480 357L480 356L480 355L480 354L480 353L480 352L480 351L480 350L480 349L480 348L480 347L480 346L480 345L480 344L480 343L480 342L480 341L480 340L480 339L480 338L480 337L480 336L480 335L480 334L480 333L480 332L480 331L480 330L480 329L480 328L480 327L480 326L480 325L480 324L480 323L480 322L480 321L480 320L480 314L482 314L482 316L482 320L482 321L482 322L482 323L482 324L482 325L482 326L482 327L482 328L482 329L482 330L482 331L482 332L482 333L482 334L482 335L482 336L482 337L482 338L482 339L482 340L482 341L482 342L482 343L482 344L482 345L482 346L482 347L482 348L482 349L482 350L482 351L482 352L482 353L482 354L482 355L482 356L482 357L482 358L482 359L482 360L482 361L482 362L482 363L482 364L482 365L482 366L482 367L482 368L482 369L482 370L482 371L482 372L482 373L482 374L482 375L482 376L482 377L482 378L482 379L482 380L482 381L482 382L482 383L482 384L482 385L482 386L482 387L482 388L482 389L482 390L482 391L482 392L482 393L482 394L482 395L482 396L482 397L482 398L482 399L482 400L482 401L482 402L482 403L482 404L482 405L482 406L482 407L482 408L482 409L482 410L482 411L482 417L483 417L484 415L484 411L484 410L484 409L484 408L484 407L484 406L484 405L484 404L484 403L484 402L484 401L484 400L484 399L484 398L484 397L484 396L484 395L484 394L484 393L484 392L484 391L484 390L484 389L484 388L484 387L484 386L484 385L484 384L484 383L484 382L484 381L484 380L484 379L484 378L484 377L484 376L484 375L484 374L484 373L484 372L484 371L484 370L484 369L484 368L484 367L484 366L484 365L484 364L484 363L484 362L484 361L484 360L484 359L484 358L484 357L484 356L484 355L484 354L484 353L484 352L484 351L484 350L484 349L484 348L484 347L484 346L484 345L484 344L484 343L484 342L484 341L484 340L484 339L484 338L484 337L484 336L484 335L484 334L484 333L484 332L484 331L484 330L484 329L484 328L484 327L484 326L484 325L484 324L484 323L484 322L484 321L484 320L484 314L486 314L486 316L486 320L486 321L486 322L486 323L486 324L486 325L486 326L486 327L486 328L486 329L486 330L486 331L486 332L486 333L486 334L486 335L486 336L486 337L486 338L486 339L486 340L486 341L486 342L486 343L486 344L486 345L486 346L486 347L486 348L486 349L486 350L486 351L486 352L486 353L486 354L486 355L486 356L486 357L486 358L486 359L486 360L486 361L486 362L486 363L486 364L486 365L486 366L486 367L486 368L486 369L486 370L486 371L486 372L486 373L486 374L486 375L486 376L486 377L486 378L486 379L486 380L486 381L486 382L486 383L486 384L486 385L486 386L486 387L486 388L486 389L486 390L486 391L486 392L486 393L486 394L486 395L486 396L486 397L486 398L486 399L486 400L486 401L486 402L486 403L486 404L486 405L486 406L486 407L486 411L487 411L488 409L488 405L488 404L488 403L488 402L488 401L488 400L488 399L488 398L488 397L488 396L488 395L488 394L488 393L488 392L488 391L488 390L488 389L488 388L488 387L488 386L488 385L488 384L488 383L488 382L488 381L488 380L488 379L488 378L488 377L488 376L488 375L488 374L488 373L488 372L488 371L488 370L488 369L488 368L488 367L488 366L488 365L488 364L488 363L488 362L488 361L488 360L488 359L488 358L488 357L488 356L488 355L488 354L488 353L488 352L488 351L488 350L488 349L488 348L488 347L488 346L488 345L488 344L488 343L488 342L488 341L488 340L488 339L488 338L488 337L488 336L488 335L488 334L488 333L488 332L488 331L488 330L488 329L488 328L488 327L488 326L488 325L488 324L488 323L488 322L488 321L488 320L488 319L488 318L488 314L492 314L493 314L494 314L495 314L496 314L497 314L498 314L499 314L500 314L501 314L502 314L503 314L504 314L505 314L506 314L507 314L508 314L509 314L510 314L511 314L512 314L513 314L514 314L515 314L516 314L517 314L518 314L519 314L520 314L521 314L522 314L523 314L524 314L525 314L526 314L527 314L533 312L533 314L534 314L534 312L535 312L536 314L539 314L538 311L539 309L538 307L539 305L538 302L539 299L539 295L539 294L539 293L539 292L539 291L539 290L539 289L539 288L539 287L539 286L539 285L539 284L539 283L539 282L539 281L539 280L539 279L539 278L539 277L539 276L539 275L539 274L539 273L539 272L539 271L539 270L539 269L539 268L539 267L539 266L539 265L539 264L539 263L539 262L539 261L539 260L539 259L539 258L539 257L539 256L538 252M542 252L542 256L542 257L542 258L542 259L542 260L542 261L542 262L542 263L542 264L542 265L542 266L542 267L542 268L542 269L542 270L542 271L542 272L542 273L542 274L542 275L542 276L542 277L542 278L542 279L542 280L542 281L542 282L542 283L542 284L542 285L542 286L542 287L542 288L542 289L542 290L542 291L542 292L542 293L542 294L542 295L542 302L543 302L543 299L543 295L543 294L543 293L543 292L543 291L543 290L543 289L543 288L543 287L543 286L543 285L543 284L543 283L543 282L543 281L543 280L543 279L543 278L543 277L543 276L543 275L543 274L543 273L543 272L543 271L543 270L543 269L543 268L543 267L543 266L543 265L543 264L543 263L543 262L543 261L543 260L543 259L543 258L543 257L543 256L542 252M546 252L546 256L546 257L546 258L546 259L546 260L546 261L546 262L546 263L546 264L546 265L546 266L546 267L546 268L546 269L546 270L546 271L546 272L546 273L546 274L546 275L546 276L546 277L546 278L546 279L546 280L546 281L546 282L546 283L546 284L546 285L546 286L546 287L546 288L546 289L546 290L546 291L546 292L546 293L546 294L546 295L546 302L547 302L547 299L547 295L547 294L547 293L547 292L547 291L547 290L547 289L547 288L547 287L547 286L547 285L547 284L547 283L547 282L547 281L547 280L547 279L547 278L547 277L547 276L547 275L547 274L547 273L547 272L547 271L547 270L547 269L547 268L547 267L547 266L547 265L547 264L547 263L547 262L547 261L547 260L547 259L547 258L547 257L547 256L546 252M383.333 253.667L383.667 254.333L383.333 253.667M514.333 253.667L514.667 254.333L514.333 253.667M349 254L349 258L349 259L349 260L349 261L349 262L349 263L349 264L349 265L349 266L349 267L349 268L349 269L349 270L349 271L349 272L349 273L349 274L349 275L349 276L349 277L349 278L349 279L349 280L349 281L349 282L349 283L349 284L349 285L349 286L349 287L349 288L349 289L349 290L349 291L349 292L349 293L349 294L349 295L349 296L349 297L350 303L350 308L349 314L350 314L351 312L350 309L350 305L351 302L351 298L351 297L351 296L351 295L351 294L351 293L351 292L351 291L351 290L351 289L351 288L351 287L351 286L351 285L351 284L351 283L351 282L351 281L351 280L351 279L351 278L351 277L351 276L351 275L351 274L351 273L351 272L351 271L351 270L351 269L351 268L351 267L351 266L351 265L351 264L351 263L349 254M353 254L353 258L353 259L353 260L353 261L353 262L353 263L353 264L353 265L353 266L353 267L353 268L353 269L353 270L353 271L353 272L353 273L353 274L353 275L353 276L353 277L353 278L353 279L353 280L353 281L353 282L353 283L353 284L353 285L353 286L353 287L353 288L353 289L353 290L353 291L353 292L353 293L353 294L353 295L353 296L353 297L354 303L353 306L354 308L354 309L353 309L353 314L354 314L355 312L354 309L354 306L354 305L355 303L355 299L355 298L355 297L355 296L355 295L355 294L355 293L355 292L355 291L355 290L355 289L355 288L355 287L355 286L355 285L355 284L355 283L355 282L355 281L355 280L355 279L355 278L355 277L355 276L355 275L355 274L355 273L355 272L355 271L355 270L355 269L355 268L355 267L355 266L355 265L355 264L355 263L355 262L355 261L355 260L353 254M357 254L357 258L357 259L357 260L357 261L357 262L357 263L357 264L357 265L357 266L357 267L357 268L357 269L357 270L357 271L357 272L357 273L357 274L357 275L357 276L357 277L357 278L357 279L357 280L357 281L357 282L357 283L357 284L357 285L357 286L357 287L357 288L357 289L357 290L357 291L357 292L357 293L357 294L357 295L357 296L357 297L358 303L357 306L358 308L357 310L357 314L358 314L358 310L358 309L358 306L358 305L359 303L359 299L359 298L359 297L359 296L359 295L359 294L359 293L359 292L359 291L359 290L359 289L359 288L359 287L359 286L359 285L359 284L359 283L359 282L359 281L359 280L359 279L359 278L359 277L359 276L359 275L359 274L359 273L359 272L359 271L359 270L359 269L359 268L359 267L359 266L359 265L359 264L359 263L359 262L359 261L359 260L357 254M400 254L400 257L401 257L401 256L401 255L400 254M497 254L497 257L498 257L498 256L498 255L497 254M371 255L372 259L373 259L371 255M411 255L411 259L412 259L411 255M487 255L487 259L488 259L487 255M527 255L526 259L527 259L527 255M384.333 256.667L384.667 257.333L384.333 256.667M417 256L417 261L418 261L417 256M480 256L480 261L481 261L480 256M513.333 256.667L513.667 257.333L513.333 256.667M365 257L367 263L368 263L365 257M394 257L394 260L395 260L395 259L395 258L394 257M421 257L421 263L422 263L421 257M477 257L477 263L478 263L477 257M503 257L503 260L504 260L504 259L504 258L503 257M533 257L531 263L532 263L533 257M375 258L376 262L377 262L375 258M401 258L401 261L402 261L402 260L402 259L401 258M424 258L424 264L425 264L424 258M473 258L473 264L474 264L473 258M496 258L496 261L497 261L497 260L497 259L496 258M523 258L522 262L523 262L523 258M385.333 259.667L385.667 260.333L385.333 259.667M405 259L405 262L406 262L406 261L406 260L405 259M428 259L428 266L429 266L428 259M470 259L470 266L471 266L470 259M493 259L493 262L494 262L494 261L494 260L493 259M512.333 259.667L512.667 260.333L512.333 259.667M373 260L374 264L375 264L373 260M392 260L393 266L394 266L392 260M412 260L412 264L413 264L412 260M486 260L486 264L487 264L486 260M506 260L505 266L506 266L506 260M525 260L524 264L525 264L525 260M379.333 261.667L379.667 262.333L379.333 261.667M395.333 261.667L395.667 262.333L395.333 261.667M415 261L415 266L416 266L415 261M431 261L431 269L432 269L431 261M467 261L467 269L468 269L467 261M483 261L483 266L484 266L483 261M502.333 261.667L502.667 262.333L502.333 261.667M518.333 261.667L518.667 262.333L518.333 261.667M370 262L371 266L372 266L370 262M386.333 262.667L386.667 263.333L386.333 262.667M402 262L402 265L403 265L403 264L403 263L402 262M495 262L495 265L496 265L496 264L496 263L495 262M511.333 262.667L511.667 263.333L511.333 262.667M527 262L526 266L527 266L527 262M377.333 263.667L377.667 264.333L377.333 263.667M390.333 263.667L390.667 264.333L390.333 263.667M406 263L406 266L407 266L407 265L407 264L406 263M418 263L418 267L419 267L418 263M479 263L479 267L480 267L479 263M492 263L492 266L493 266L493 265L493 264L492 263M508.333 263.667L508.667 264.333L508.333 263.667M521.333 263.667L521.667 264.333L521.333 263.667M368 264L369 265L368 264M380 264L381 268L382 268L380 264M396 264L396 267L397 267L397 266L397 265L396 264M409 264L409 268L410 268L409 264M422 264L422 269L423 269L422 264M434 264L434 273L435 273L435 270L435 267L434 264M463 264L463 273L464 273L464 270L464 267L463 264M476 264L476 269L477 269L476 264M488 264L488 268L489 268L488 264M501 264L501 267L502 267L502 266L502 265L501 264M517 264L516 268L517 268L517 264M530 264L531 265L530 264M375 265L376 269L377 269L375 265M387.333 265.667L387.667 266.333L387.333 265.667M400 265L400 268L401 268L401 267L401 266L400 265M498 265L498 268L499 268L499 267L499 266L498 265M510.333 265.667L510.667 266.333L510.333 265.667M523 265L522 269L523 269L523 265M369 266L370 270L371 270L369 266M378 266L379 267L378 266M391.333 266.667L391.667 267.333L391.333 266.667M403 266L403 269L404 269L404 268L404 267L403 266M413 266L413 269L414 269L414 268L414 267L413 266M425 266L425 272L426 272L425 266M472 266L472 272L473 272L472 266M485 266L485 269L486 269L486 268L486 267L485 266M494 266L494 269L495 269L495 268L495 267L494 266M507.333 266.667L507.667 267.333L507.333 266.667M520 266L521 267L520 266M529 266L528 270L529 270L529 266M372 267L373 268L372 267M385.333 267.667L385.667 268.333L385.333 267.667M394.333 267.667L394.667 268.333L394.333 267.667M416 267L416 271L417 271L416 267M482 267L482 271L483 271L482 267M504.333 267.667L504.667 268.333L504.333 267.667M513.333 267.667L513.667 268.333L513.333 267.667M525 267L526 268L525 267M379.333 268.667L379.667 269.333L379.333 268.667M388.333 268.667L388.667 269.333L388.333 268.667M397.333 268.667L397.667 269.333L397.333 268.667M407 268L407 271L408 271L408 270L408 269L407 268M491 268L491 271L492 271L492 270L492 269L491 268M500.333 268.667L500.667 269.333L500.333 268.667M509.333 268.667L509.667 269.333L509.333 268.667M519.333 268.667L519.667 269.333L519.333 268.667M373.333 269.667L373.667 270.333L373.333 269.667M382.333 269.667L382.667 270.333L382.333 269.667M392.333 269.667L392.667 270.333L392.333 269.667M401 269L401 272L402 272L402 271L402 270L401 269M410 269L410 272L411 272L411 271L411 270L410 269M419 269L419 273L420 273L419 269M429 269L429 275L430 275L429 269M438 269L438 279L439 279L439 276L438 269M460 269L460 279L461 279L461 276L460 269M469 269L469 275L470 275L469 269M478 269L478 273L479 273L478 269M487 269L487 272L488 272L488 271L488 270L487 269M497 269L497 272L498 272L498 271L498 270L497 269M506.333 269.667L506.667 270.333L506.333 269.667M515.333 269.667L515.667 270.333L515.333 269.667M524.333 269.667L524.667 270.333L524.333 269.667M377.333 270.667L377.667 271.333L377.333 270.667M386.333 270.667L386.667 271.333L386.333 270.667M395.333 270.667L395.667 271.333L395.333 270.667M503.333 270.667L503.667 271.333L503.333 270.667M512.333 270.667L512.667 271.333L512.333 270.667M521.333 270.667L521.667 271.333L521.333 270.667M371 271L372 272L371 271M380.333 271.667L380.667 272.333L380.333 271.667M389.333 271.667L389.667 272.333L389.333 271.667M404.333 271.667L404.667 272.333L404.333 271.667M414 271L414 274L415 274L415 273L415 272L414 271M484 271L484 274L485 274L485 273L485 272L484 271M493.333 271.667L493.667 272.333L493.333 271.667M508.333 271.667L508.667 272.333L508.333 271.667M518.333 271.667L518.667 272.333L518.333 271.667M527 271L528 272L527 271M374 272L375 273L374 272M383.333 272.667L383.667 273.333L383.333 272.667M393.333 272.667L393.667 273.333L393.333 272.667M398.333 272.667L398.667 273.333L398.333 272.667M408 272L408 275L409 275L409 274L409 273L408 272M423 272L423 276L424 276L423 272M475 272L475 276L476 276L475 272M490 272L490 275L491 275L491 274L491 273L490 272M499.333 272.667L499.667 273.333L499.333 272.667M505.333 272.667L505.667 273.333L505.333 272.667M514.333 272.667L514.667 273.333L514.333 272.667M523 272L524 273L523 272M372 273L373 274L372 273M378 273L379 274L378 273M387.333 273.667L387.667 274.333L387.333 273.667M402.333 273.667L402.667 274.333L402.333 273.667M417 273L417 276L418 276L418 275L418 274L417 273M432 273L432 279L433 279L432 273M466 273L466 279L467 279L466 273M481 273L481 276L482 276L482 275L482 274L481 273M496.333 273.667L496.667 274.333L496.333 273.667M511.333 273.667L511.667 274.333L511.333 273.667M520 273L521 274L520 273M526 273L527 274L526 273M375 274L376 275L375 274M381 274L382 275L381 274M390.333 274.667L390.667 275.333L390.333 274.667M396.333 274.667L396.667 275.333L396.333 274.667M411 274L411 277L412 277L412 276L412 275L411 274M486 274L486 277L487 277L487 276L487 275L486 274M502.333 274.667L502.667 275.333L502.333 274.667M507.333 274.667L507.667 275.333L507.333 274.667M517 274L518 275L517 274M522 274L523 275L522 274M373.333 275.667L373.667 276.333L373.333 275.667M379.333 275.667L379.667 276.333L379.333 275.667M384 275L385 276L384 275M399.333 275.667L399.667 276.333L399.333 275.667M405.333 275.667L405.667 276.333L405.333 275.667M426 275L426 279L427 279L426 275M471 275L471 279L472 279L471 275M492.333 275.667L492.667 276.333L492.333 275.667M498.333 275.667L498.667 276.333L498.333 275.667M513 275L514 276L513 275M519.333 275.667L519.667 276.333L519.333 275.667M525.333 275.667L525.667 276.333L525.333 275.667M382.333 276.667L382.667 277.333L382.333 276.667M388.333 276.667L388.667 277.333L388.333 276.667M394 276L395 277L394 276M415 276L415 279L416 279L416 278L416 277L415 276M420 276L420 279L421 279L421 278L421 277L420 276M477 276L477 279L478 279L478 278L478 277L477 276M483 276L483 279L484 279L484 278L484 277L483 276M504 276L505 277L504 276M510.333 276.667L510.667 277.333L510.333 276.667M516.333 276.667L516.667 277.333L516.333 276.667M376 277L377 278L376 277M391.333 277.667L391.667 278.333L391.333 277.667M397.333 277.667L397.667 278.333L397.333 277.667M403.333 277.667L403.667 278.333L403.333 277.667M409.333 277.667L409.667 278.333L409.333 277.667M489.333 277.667L489.667 278.333L489.333 277.667M495.333 277.667L495.667 278.333L495.333 277.667M501.333 277.667L501.667 278.333L501.333 277.667M506.333 277.667L506.667 278.333L506.333 277.667M521 277L522 278L521 277M374 278L375 279L374 278M380 278L381 279L380 278M385 278L386 279L385 278M512 278L513 279L512 278M518 278L519 279L518 278M524 278L525 279L524 278M377 279L378 280L377 279M383 279L384 280L383 279M389 279L390 280L389 279M395.333 279.667L395.667 280.333L395.333 279.667M400.333 279.667L400.667 280.333L400.333 279.667M406.333 279.667L406.667 280.333L406.333 279.667M412.333 279.667L412.667 280.333L412.333 279.667M418 279L418 282L419 282L419 281L419 280L418 279M424 279L424 282L425 282L425 281L425 280L424 279M430 279L430 283L431 283L430 279M435 279L435 285L436 285L435 279M441 279L441 289L442 289L442 286L441 279M456 279L456 289L457 289L457 286L456 279M462 279L462 285L463 285L462 279M468 279L468 283L469 283L468 279M474 279L474 282L475 282L475 281L475 280L474 279M480 279L480 282L481 282L481 281L481 280L480 279M485.333 279.667L485.667 280.333L485.333 279.667M491.333 279.667L491.667 280.333L491.333 279.667M497.333 279.667L497.667 280.333L497.333 279.667M503.333 279.667L503.667 280.333L503.333 279.667M509 279L510 280L509 279M515 279L516 280L515 279M520 279L521 280L520 279M375 280L376 281L375 280M381 280L382 281L381 280M386.333 280.667L386.667 281.333L386.333 280.667M511.333 280.667L511.667 281.333L511.333 280.667M517 280L518 281L517 280M523 280L524 281L523 280M378.333 281.667L378.667 282.333L378.333 281.667M392 281L393 282L392 281M398 281L399 282L398 281M404.333 281.667L404.667 282.333L404.333 281.667M410.333 281.667L410.667 282.333L410.333 281.667M488.333 281.667L488.667 282.333L488.333 281.667M494.333 281.667L494.667 282.333L494.333 281.667M500 281L501 282L500 281M505 281L506 282L505 281M519.333 281.667L519.667 282.333L519.333 281.667M384 282L385 283L384 282M390 282L391 283L390 282M396.333 282.667L396.667 283.333L396.333 282.667M416.333 282.667L416.667 283.333L416.333 282.667M421 282L421 285L422 285L422 284L422 283L421 282M476 282L476 285L477 285L477 284L477 283L476 282M482.333 282.667L482.667 283.333L482.333 282.667M502.333 282.667L502.667 283.333L502.333 282.667M508 282L509 283L508 282M514 282L515 283L514 282M376 283L377 284L376 283M382 283L383 284L382 283M387 283L388 284L387 283M401 283L402 284L401 283M407.333 283.667L407.667 284.333L407.333 283.667M427 283L427 286L428 286L428 285L428 284L427 283M470 283L470 286L471 286L471 285L471 284L470 283M490.333 283.667L490.667 284.333L490.333 283.667M496 283L497 284L496 283M510 283L511 284L510 283M516 283L517 284L516 283M522 283L523 284L522 283M379 284L380 285L379 284M385 284L386 285L385 284M393 284L394 285L393 284M399.333 284.667L399.667 285.333L399.333 284.667M413.333 284.667L413.667 285.333L413.333 284.667M484.333 284.667L484.667 285.333L484.333 284.667M499.333 284.667L499.667 285.333L499.333 284.667M504 284L505 285L504 284M513 284L514 285L513 284M518 284L519 285L518 284M377 285L378 286L377 285M383 285L384 286L383 285M391 285L392 286L391 285M405 285L406 286L405 285M419.333 285.667L419.667 286.333L419.333 285.667M433 285L433 289L434 289L433 285M465 285L465 289L466 289L465 285M479.333 285.667L479.667 286.333L479.333 285.667M493 285L494 286L493 285M507 285L508 286L507 285M515 285L516 286L515 285M521 285L522 286L521 285M380 286L381 287L380 286M388 286L389 287L388 286M397 286L398 287L397 286M402.333 286.667L402.667 287.333L402.333 286.667M411 286L412 287L411 286M425 286L425 289L426 289L426 288L426 287L425 286M473 286L473 289L474 289L474 288L474 287L473 286M487 286L488 287L487 286M495.333 286.667L495.667 287.333L495.333 286.667M501 286L502 287L501 286M509 286L510 287L509 286M517 286L518 287L517 286M378 287L379 288L378 287M386 287L387 288L386 287M394 287L395 288L394 287M408.333 287.667L408.667 288.333L408.333 287.667M417.333 287.667L417.667 288.333L417.333 287.667M481.333 287.667L481.667 288.333L481.333 287.667M489.333 287.667L489.667 288.333L489.333 287.667M503 287L504 288L503 287M512 287L513 288L512 287M520 287L521 288L520 287M384 288L385 289L384 288M392 288L393 289L392 288M400 288L401 289L400 288M498 288L499 289L498 288M506 288L507 289L506 288M514 288L515 289L514 288M381 289L382 290L381 289M389 289L390 290L389 289M398 289L399 290L398 289M406 289L407 290L406 289M414 289L415 290L414 289M422.333 289.667L422.667 290.333L422.333 289.667M431 289L431 292L432 292L432 291L432 290L431 289M439 289L439 294L440 294L439 289M459 289L459 294L460 294L459 289M467 289L467 292L468 292L468 291L468 290L467 289M475.333 289.667L475.667 290.333L475.333 289.667M483 289L484 290L483 289M492 289L493 290L492 289M500 289L501 290L500 289M508 289L509 290L508 289M516 289L517 290L516 289M387 290L388 291L387 290M395 290L396 291L395 290M403 290L404 291L403 290M412.333 290.667L412.667 291.333L412.333 290.667M486.333 290.667L486.667 291.333L486.333 290.667M494 290L495 291L494 290M502 290L503 291L502 290M511 290L512 291L511 290M382 291L383 292L382 291M393 291L394 292L393 291M401 291L402 292L401 291M420 291L421 292L420 291M478 291L479 292L478 291M497 291L498 292L497 291M505 291L506 292L505 291M515 291L516 292L515 291M380 292L381 293L380 292M388 292L389 293L388 292M399 292L400 293L399 292M409 292L410 293L409 292M418.333 292.667L418.667 293.333L418.333 292.667M428.333 292.667L428.667 293.333L428.333 292.667M469.333 292.667L469.667 293.333L469.333 292.667M480.333 292.667L480.667 293.333L480.333 292.667M488 292L489 293L488 292M499 292L500 293L499 292M510 292L511 293L510 292M518 292L519 293L518 292M386 293L387 294L386 293M396 293L397 294L396 293M407 293L408 294L407 293M491 293L492 294L491 293M501 293L502 294L501 293M512 293L513 294L512 293M381 294L382 295L381 294M391 294L392 295L391 294M404 294L405 295L404 294M415 294L416 295L415 294M426 294L427 295L426 294M436 294L436 297L437 297L437 296L437 295L436 294M461 294L461 297L462 297L462 296L462 295L461 294M472 294L473 295L472 294M482 294L483 295L482 294M493 294L494 295L493 294M506 294L507 295L506 294M517 294L518 295L517 294M389 295L390 296L389 295M400 295L401 296L400 295M413 295L414 296L413 295M423.333 295.667L423.667 296.333L423.333 295.667M474.333 295.667L474.667 296.333L474.333 295.667M485 295L486 296L485 295M498 295L499 296L498 295M509 295L510 296L509 295M384 296L385 297L384 296M397 296L398 297L397 296M410 296L411 297L410 296M487 296L488 297L487 296M500 296L501 297L500 296M513 296L514 297L513 296M392 297L393 298L392 297M405 297L406 298L405 297M421 297L422 298L421 297M434.333 297.667L434.667 298.333L434.333 297.667M464.333 297.667L464.667 298.333L464.333 297.667M477 297L478 298L477 297M492 297L493 298L492 297M505 297L506 298L505 297M388 298L389 299L388 298M403 298L404 299L403 298M419 298L420 299L419 298M479 298L480 299L479 298M495 298L496 299L495 298M510 298L511 299L510 298M398 299L399 300L398 299M414 299L415 300L414 299M432 299L433 300L432 299M466 299L467 300L466 299M484 299L485 300L484 299M499 299L500 300L499 299M391 300L392 301L391 300M411 300L412 301L411 300M429 300L430 301L429 300M468 300L469 301L468 300M486 300L487 301L486 300M507 300L508 301L507 300M384 301L385 302L384 301M406 301L407 302L406 301M427 301L428 302L427 301M471 301L472 302L471 301M491 301L492 302L491 301M514 301L515 302L514 301M399 302L400 303L399 302M424 302L425 303L424 302M473 302L474 303L473 302M498 302L499 303L498 302M390 303L391 304L390 303M420 303L421 304L420 303M478 303L479 304L478 303M508 303L509 304L508 303M550 303L550 306L551 306L551 305L551 304L550 303M412 304L413 305L412 304M485 304L486 305L485 304M538 304L536 309L538 308L536 312L535 312L536 309L535 309L534 312L533 312L535 309L538 304M542.333 304.667L542.667 305.333L542.333 304.667M546.333 304.667L546.667 305.333L546.333 304.667M363 305L365 308L367 313L366 313L365 310L363 312L362 309L364 310L364 309L363 305M400 305L401 306L400 305M497 305L498 306L497 305M546 307L546 310L547 310L547 309L547 308L546 307M550 307L550 310L551 310L551 309L551 308L550 307M542.333 308.667L542.667 309.333L542.333 308.667M542 311L542 314L543 314L543 313L543 312L542 311M546 311L546 314L547 314L547 313L547 312L546 311M550 311L550 314L551 314L551 313L551 312L550 311M538 312L537 313L538 312M412 419L415 422L412 419M414 427L415 428L414 427M413 429L414 430L413 429M471 434L472 435L471 434M418 436L419 437L418 436M422 436L423 437L422 436M427 437L428 438L427 437M470 438L471 439L470 438M414 439L415 440L414 439M426 439L427 440L426 439M473 439L474 440L473 439M428 440L429 441L428 440M420.667 443.333L421.333 443.667L420.667 443.333M427 443L428 444L427 443M471.667 443.333L472.333 443.667L471.667 443.333M420 447L420 451L420 452L420 453L420 454L420 455L420 456L420 457L420 458L420 459L420 460L420 461L420 462L420 463L420 464L420 465L420 466L420 467L420 468L420 469L420 470L420 471L420 472L420 473L420 474L420 480L423 480L423 479L423 475L423 474L423 473L423 472L423 471L423 470L423 469L423 468L423 467L423 466L423 465L423 464L423 463L423 462L423 461L423 460L423 459L423 458L423 457L423 456L423 455L423 454L423 453L423 452L423 447L420 447M414 458L415 459L414 458M427 458L428 459L427 458M471.667 458.333L472.333 458.667L471.667 458.333M416 460L417 461L416 460M428 460L429 461L428 460M412.667 461.333L413.333 461.667L412.667 461.333M426 461L427 462L426 461M473 461L474 462L473 461M417 463L418 464L417 463M470 463L471 464L470 463M479 463L480 464L479 463M414 464L415 465L414 464M427 464L428 465L427 464M482 464L483 465L482 464M471 466L472 467L471 466M413 467L414 468L413 467M418 467L419 468L418 467M478 467L479 468L478 467M483 467L484 468L483 467M416 468L417 469L416 468M417 473L418 474L417 473M479 473L480 474L479 473M412 474L413 475L412 474M414 475L413 477L414 475M428 475L425 478L428 475M482 475L484 477L482 475M416 477L417 478L416 477M430 479L429 480L430 479M473 482L474 483L473 482M482 482L484 484L482 482M422 483L420 486L420 495L423 495L423 493L421 487L421 486L422 483M424 483L425 484L424 483M475 483L476 484L475 483M418 484L416 486L416 492L419 491L418 488L418 484M430 484L428 489L427 489L430 484M478 484L479 485L478 484M474 485L475 486L474 485M418 486L417 487L418 486M478 486L480 488L478 486M486 487L488 489L486 487M414 488L412 492C414.649 491.432 415.355 490.412 414 488M418 488L417 489L418 488M422 488L421 489L422 488M478 489L480 492L478 489M482 489L484 492L482 489M473 490L472 491L473 490M486 490L486 492L488 492L486 490M472 493L473 494L472 493M478.333 494.667L478.667 495.333L478.333 494.667M482 495L484 497L482 495M414 496L415 497L414 496M422 496L421 499L422 496M475 496L474 498L475 496M418 497L419 498L418 497M487 497L488 498L487 497M416 498L417 499L416 498M430 498L429 503L430 503L430 506L429 509L428 509L427 515L426 515L427 512L427 509L428 506L427 506L427 508L426 508L427 503L428 503L430 498M478 498L479 499L478 498M412 499L413 500L412 499M416 500L417 501L416 500M479 500L479 503L480 503L479 500M486 500L488 502L486 500M414 501L412 508L415 507L414 501M482 501L483 504L484 508L482 501M417 502L416 508L419 507L417 502M422 502C420.915 505.181 420.216 506.842 423 509L422 502M428 503L428 506L429 506L429 505L429 504L428 503M478 504L480 508L478 504M486 505L488 508L486 505M420 509L422 511L420 509M478 511L479 512L478 511M413 512L414 513L413 512M420 512L421 513L420 512M418 513L419 514L418 513M430 513L430 516L429 516L429 515L429 514L430 513M479 513L480 514L479 513M412 514L413 515L412 514M486 514L487 515L486 514M417 515L418 518L416 517L417 520L418 520L417 515M413 516L414 517L413 516M422 516L420 523L422 523L421 527L422 527L423 525L422 522L422 520L422 516M479 516L479 520L478 522L479 525L480 531L479 528L480 525L479 522L480 520L479 516M424 517L425 520L426 520L424 517M412 518L413 519L412 518M475 518L476 519L475 518M482 519L483 520L482 519M486 520L487 521L486 520M414 521L412 525L413 529L413 536L415 534L414 521M416 521L418 523L416 521M424.333 521.667L424.667 522.333L424.333 521.667M483 521L484 522L483 521M416 524L417 525L416 524M413.667 525.667L413.333 526.333L413.667 525.667M418 525L416 527L416 530L416 531L416 535L416 541L419 540L418 533L418 530L419 530L418 525M424 526L425 527L424 526M482 526L484 531L482 526M486 527L488 531L486 527M420 528L421 529L420 528M422 532L421 535L421 538L423 542L422 532M417.667 533.667L417.333 534.333L417.667 533.667M472 534L473 535L472 534M478 536L479 537L478 536M412 537L413 538L412 537M430 537L430 542L429 542L430 537M474 537L473 539L474 537M487 537L488 538L487 537M414 538L414 541L415 541L415 540L415 539L414 538M482 538L483 539L482 538M479 539L480 540L479 539M475 540L474 543L475 540M486 540L487 541L486 540M483 541L484 542L483 541M487 542L488 543L487 542M417 543L418 544L417 543M479 543L478 547L479 547L479 550L478 550L478 553L479 553L479 556L478 564L480 564L480 562L480 556L480 553L479 553L479 550L480 550L480 547L479 543M421 544L422 548L423 548L421 544M475.333 545.667L475.667 546.333L475.333 545.667M416 546L417 547L416 546M420 547L421 552L420 552L421 557L422 557C421.461 553.768 420.102 552.275 423 553L420 547M482.333 547.667L482.667 548.333L482.333 547.667M413 548L414 549L413 548M486.333 548.667L486.667 549.333L486.333 548.667M418 550L419 551L418 550M483 550L482 554L483 554L483 550M412 551L413 552L412 551M487.333 551.667L487.667 552.333L487.333 551.667M414 552L415 553L414 552M417 553L418 556L419 556L417 553M430 553L430 559L429 559L429 565L428 565L428 571L427 571L427 577L426 577L426 571L427 571L427 565L428 565L428 559L429 559L430 553M413 555L414 556L413 555M483 555L482 558L482 564L484 564L483 560L483 555M416 556L417 559L418 559L416 556M412 558L413 559L412 558M486 558L488 564L486 558M420.333 559.667L420.667 560.333L420.333 559.667M416.333 561.667L416.667 562.333L416.333 561.667M414.333 562.667L414.667 563.333L414.333 562.667M471 564L471 569L470 569L470 574L469 574L469 568L470 568L471 564M413 565L414 571L412 578L415 578L415 577L413 565M422 565L422 569L421 569L421 573L420 573L420 578L423 578L423 577L423 573L423 572L423 571L423 570L422 565M418 566L418 570L417 570L416 578L419 578L419 577L419 573L419 572L419 571L419 570L418 566M478 571L479 572L478 571M482 574L483 575L482 574M479 575L478 577L479 575M486 577L487 578L486 577M428 578L428 583L427 583L428 578M430 578L430 585L429 585L429 593L428 593L428 600L427 600L427 593L428 593L428 585L429 585L430 578M475 578L474 581L475 581L475 578M483 578L484 579L483 578M479 580L478 587L479 587L479 580M487 580L488 581L487 580M421 582L422 583L421 582M475 584L475 587L476 587L476 586L476 585L475 584M414 585L415 586L414 585M420 587L421 588L420 587M482 587L483 588L482 587M486.333 588.667L486.667 589.333L486.333 588.667M413 589L414 590L413 589M483 590L482 596L483 596L483 600L482 600L482 603L482 610L484 610L484 605L483 605L483 600L484 600L484 596L483 596L483 590M418 591L419 592L418 591M478 591L478 594L479 594L479 593L479 592L478 591M487.333 592.667L487.667 593.333L487.333 592.667M412 593L413 594L412 593M422 593L420 598L422 601L422 593M414 594L415 595L414 594M417 595L419 598L417 595M479 596L478 599L478 603L478 604L478 605L478 606L478 610L480 610L480 608L480 605L480 604L479 604L479 596M413.333 598.667L413.667 599.333L413.333 598.667M416 600L418 603L416 600M412.333 602.667L412.667 603.333L412.333 602.667M486 602L486 610L488 610L488 608L486 602M420.333 604.667L420.667 605.333L420.333 604.667M416.333 606.667L416.667 607.333L416.333 606.667M422 606L423 607L422 606M414 608L414 611L415 611L415 610L415 609L414 608M418 608L419 609L418 608M471 610L471 618L472 618L472 626L473 626L473 634L472 634L472 642L471 642L471 646L470 646L470 643L470 640L471 637L471 634L470 634L470 625L469 625L469 617L470 617L471 610M483 614L484 615L483 614M474 616L475 617L474 616M466 617L466 626L467 626L467 629L467 636L468 636L468 639L468 646L469 646L469 649L469 652L469 655L470 655L470 658L470 665L471 665L471 668L471 675L470 675L470 672L470 665L469 665L469 662L469 655L468 655L468 652L468 649L468 646L467 646L467 643L467 636L466 636L466 633L466 626L465 626L465 623L465 620L466 617M470 618L470 625L471 625L470 618M486 618L487 619L486 618M362 619L363 620L362 619M376 619L377 620L376 619M380 619L381 620L380 619M392.333 619.667L392.667 620.333L392.333 619.667M399 619L400 620L399 619M354 620L355 621L354 620M370 620L371 621L370 620M478.333 621.667L478.667 622.333L478.333 621.667M350 623L351 624L350 623M374 623L375 624L374 623M378.333 623.667L378.667 624.333L378.333 623.667M391 623L392 624L391 623M475 623L476 624L475 623M487 623L488 624L487 623M368 624L369 625L368 624M416 625L416 631L415 631L416 625M420 625L420 631L419 631L420 625M482 625L483 626L482 625M471 626L471 634L472 634L471 626M479 626L479 629L480 629L480 628L480 627L479 626M350 627L351 628L350 627M358 627L359 628L358 627M369 627L370 628L369 627M363 628L364 629L363 628M372 628L373 629L372 628M486.333 628.667L486.667 629.333L486.333 628.667M483.333 630.667L483.667 631.333L483.333 630.667M365 631L366 632L365 631M371 631L370 634L371 634L371 631M375 631L376 632L375 631M353 632L354 633L353 632M361 632L362 633L361 632M350 633L351 634L350 633M364 633L365 634L364 633M374 633L373 637L374 637L374 633M487.333 633.667L487.667 634.333L487.333 633.667M368 634L370 636L368 634M349 635L350 636L349 635M354 635L355 636L354 635M363 635L364 636L363 635M479 635L478 643L479 643L479 635M366 636L367 637L366 636M353 637L354 638L353 637M362 637L363 638L362 637M368 637L366 644L367 644L367 641L368 637M350 638L351 639L350 638M358 638L359 639L358 638M364 638L365 639L364 638M361 639L362 640L361 639M475 639L475 643L476 643L475 639M349 640L350 641L349 640M357 640L358 641L357 640M363 640L364 641L363 640M354 642L355 643L354 642M370 642L371 643L370 642M364 643L365 644L364 643M482 643L482 646L483 646L483 645L483 644L482 643M353 644L354 645L353 644M362 645L363 646L362 645M486 645L486 648L487 648L487 647L487 646L486 645M358 646L359 647L358 646M354 647L355 648L354 647M361 647L362 648L361 647M368 647L369 648L368 647M357 648L358 649L357 648M365 648L366 649L365 648M483 648L483 652L482 652L482 656L483 656L483 652L484 652L483 648M353 649L354 650L353 649M478 649L478 654L479 654L478 649M350 650L351 651L350 650M362 650L363 651L362 650M487 650L487 654L488 654L487 650M358 651L359 652L358 651M472 651L472 656L473 656L472 651M349 652L350 653L349 652M366 652L367 653L366 652M363 653L364 654L363 653M354 654L353 658L354 658L354 654M358 654L359 655L358 654M350 655L351 656L350 655M361 655L362 656L361 655M357 656L358 657L357 656M479 656L479 661L478 661L478 664L478 668L478 669L478 670L478 671L478 676L480 676L480 674L480 668L479 668L479 661L480 661L479 656M349 657L350 658L349 657M364 657L365 658L364 657M483 658L483 662L482 662L482 665L482 669L482 670L482 671L482 672L482 676L484 676L484 674L484 669L483 669L483 662L484 662L483 658M357 659L358 660L357 659M473 659L473 665L474 665L473 659M354 660L355 661L354 660M353 662L355 664L353 662M358 662L359 663L358 662M362 662L363 663L362 662M353 665L354 666L353 665M358 665L359 666L358 665M486 665L486 669L486 670L486 671L486 672L486 676L488 676L488 674L488 671L488 670L487 670L486 665M475 667L474 675L475 675L475 667M353 668L354 669L353 668M350 671L349 676L350 671M354 671L353 676L354 671M358 671L357 676L358 671M371 678L372 679L371 678M391 679L392 680L391 679M403 680L404 681L403 680M432 680L432 683L433 683L433 682L433 681L432 680M466 680L466 683L467 683L467 682L467 681L466 680M370 681L371 682L370 681M410 681L411 682L410 681M350 682L351 683L350 682M382 682L383 683L382 682M415 682L416 683L415 682M483 682L484 683L483 682M354 685L355 686L354 685M379 685L380 686L379 685M402 685L403 686L402 685M421 685L422 686L421 685M426 685L427 686L426 685M434 685L435 686L434 685M464 685L465 686L464 685M471.333 685.667L471.667 686.333L471.333 685.667M473 685L475 687L475 685L473 685M363 686L364 687L363 686M384 686L385 687L384 686M406 686L407 687L406 686M362 689L363 690L362 689M380 689L381 690L380 689M398 689L399 690L398 689M414 689L415 690L414 689M427 689L428 690L427 689M436 689L437 690L436 689M461 689L462 690L461 689M367 690L368 691L367 690M385 690L386 691L385 690M401 690L402 691L401 690M416 690L417 691L416 690M353 693L354 694L353 693M366 693L367 694L366 693M382 693L383 694L382 693M395 693L396 694L395 693M408 693L409 694L408 693M420.333 693.667L420.667 694.333L420.333 693.667M422 693L423 694L422 693M478 693L479 694L478 693M358 694L359 695L358 694M371 694L372 695L371 694M384 694L385 695L384 694M397 694L398 695L397 694M410 694L411 695L410 694M487 694L488 695L487 694M414 746L414 749L415 749L415 748L415 747L414 746M418.333 746.667L418.667 747.333L418.333 746.667M479.333 746.667L479.667 747.333L479.333 746.667M412.333 750.667L412.667 751.333L412.333 750.667M413 758L412 761L412 769L415 769L415 768L415 758L413 758M417 758L416 761L416 769L419 769L419 768L419 758L417 758M420 758L420 762L420 763L420 764L420 765L420 769L423 769L423 768L423 758L420 758M424 758L424 762L424 763L424 764L424 765L424 769L428 769L429 769L430 769L431 769L432 769L433 769L434 769L435 769L436 769L437 769L438 769L439 769L440 769L441 769L442 769L443 769L444 769L445 769L446 769L447 769L448 769L449 769L450 769L451 769L452 769L453 769L454 769L455 769L456 769L457 769L458 769L459 769L460 769L461 769L462 769L463 769L464 769L465 769L466 769L467 769L468 769L469 769L470 769L471 769L476 769L476 765L476 764L476 763L476 762L476 758L472 758L471 758L470 758L469 758L468 758L467 758L466 758L465 758L464 758L463 758L462 758L461 758L460 758L459 758L458 758L457 758L456 758L455 758L454 758L453 758L452 758L451 758L450 758L449 758L448 758L447 758L446 758L445 758L444 758L443 758L442 758L441 758L440 758L439 758L438 758L437 758L436 758L435 758L434 758L433 758L432 758L431 758L430 758L429 758L424 758M478 758L478 762L478 763L478 764L478 765L478 769L480 769L480 767L480 758L478 758M482 758L482 762L482 763L482 764L482 765L482 769L484 769L484 767L482 758M486 758L486 762L486 763L486 764L486 765L486 769L488 769L488 767L486 758M412 777L413 778L412 777M483 778L484 779L483 778M420 779L421 780L420 779M478 779L479 780L478 779M422.333 780.667L422.667 781.333L422.333 780.667M424 782L425 783L424 782M473 782L474 783L473 782M427.333 783.667L427.667 784.333L427.333 783.667M471.333 783.667L471.667 784.333L471.333 783.667M429.333 785.667L429.667 786.333L429.333 785.667M468.333 785.667L468.667 786.333L468.333 785.667M486 786L487 787L486 786M414.333 787.667L414.667 788.333L414.333 787.667M432 787L432 790L433 790L433 789L433 788L432 787M466 787L466 790L467 790L467 789L467 788L466 787M416 789L417 790L416 789M434 790L434 795L435 795L434 790M464 790L464 795L465 795L464 790M479.333 790.667L479.667 791.333L479.333 790.667M421 792L421 795L422 795L422 794L422 793L421 792M436 795L436 801L437 801L436 795M461 795L461 801L462 801L461 795M474 795L474 798L475 798L475 797L475 796L474 795M487.333 795.667L487.667 796.333L487.333 795.667M413.333 797.667L413.667 798.333L413.333 797.667M426 798L426 801L427 801L427 800L427 799L426 798M472 798L472 801L473 801L473 800L473 799L472 798M482.333 799.667L482.667 800.333L482.333 799.667M418 801L418 804L419 804L419 803L419 802L418 801M428 801L428 806L429 806L428 801M439 801L439 805L439 806L439 807L439 808L439 812L440 812L440 809L439 801M459 801L459 805L459 806L459 807L459 808L459 812L460 812L460 809L459 801M469 801L469 806L470 806L469 801M420 804L420 808L421 808L420 804M478 804L478 808L479 808L478 804M412 806L412 809L413 809L413 808L413 807L412 806M431 806L431 812L432 812L431 806M467 806L467 812L468 812L467 806M486 806L486 809L487 809L487 808L487 807L486 806M422 808L422 812L423 812L422 808M475 808L475 812L476 812L475 808M414 809L414 812L415 812L415 811L415 810L414 809M483 809L483 812L484 812L484 811L484 810L483 809M417 812L417 816L418 816L417 812M425 812L425 818L426 818L425 812M433 812L433 821L434 821L434 818L434 815L433 812M441 812L441 816L441 817L441 818L441 819L441 820L441 821L441 822L441 823L441 824L441 825L441 826L441 827L441 834L442 834L442 831L442 827L442 826L442 825L442 824L442 823L442 822L442 821L442 820L442 819L442 818L442 817L442 816L441 812M456 812L456 816L456 817L456 818L456 819L456 820L456 821L456 822L456 823L456 824L456 825L456 826L456 827L456 834L457 834L457 831L457 827L457 826L457 825L457 824L457 823L457 822L457 821L457 820L457 819L457 818L457 817L457 816L456 812M465 812L465 821L466 821L466 818L466 815L465 812M473 812L473 818L474 818L473 812M487 815L487 819L488 819L487 815M479 816L479 821L480 821L479 816M427 818L427 825L428 825L427 818M470 818L470 825L471 825L470 818M413 819L413 823L414 823L413 819M421 821L421 827L422 827L421 821M435 821L435 825L435 826L435 827L435 828L435 834L436 834L436 831L435 821M462 821L462 825L462 826L462 827L462 828L462 834L463 834L463 831L462 821M416 823L416 828L417 828L416 823M482 823L482 828L483 828L482 823M430 825L430 834L431 834L431 831L431 828L430 825M468 825L468 834L469 834L469 831L469 828L468 825M424 827L424 834L425 834L424 827M474 827L474 834L475 834L474 827M418 828L418 834L419 834L418 828M412 829L412 834L413 834L412 829M420 834L420 841L421 841L420 834M426 834L426 843L427 843L427 840L427 837L426 834M432 834L432 838L432 839L432 840L432 841L432 847L433 847L433 844L432 834M438 834L438 838L438 839L438 840L438 841L438 842L438 843L438 844L438 845L438 846L438 847L438 848L438 849L438 856L439 856L439 853L439 849L439 848L439 847L439 846L439 845L439 844L439 843L439 842L439 841L439 840L439 839L439 838L438 834M460 834L460 838L460 839L460 840L460 841L460 842L460 843L460 844L460 845L460 846L460 847L460 848L460 849L460 856L461 856L461 853L461 849L461 848L461 847L461 846L461 845L461 844L461 843L461 842L461 841L461 840L461 839L461 838L460 834M466 834L466 838L466 839L466 840L466 841L466 847L467 847L467 844L466 834M471 834L471 843L472 843L472 840L472 837L471 834M483 834L483 840L484 840L483 834M486 839L486 845L487 845L486 839M417 840L417 847L418 847L417 840M475 841L475 850L476 850L476 847L476 844L475 841M429 843L429 847L429 848L429 849L429 850L429 856L430 856L430 853L429 843M469 843L469 847L469 848L469 849L469 850L469 856L470 856L470 853L469 843M414 845L414 852L415 852L414 845M434 847L434 851L434 852L434 853L434 854L434 855L434 856L434 857L434 858L434 859L434 860L434 861L434 862L434 867L435 867L435 864L435 860L435 859L435 858L435 857L435 856L435 855L435 854L435 853L434 847M463 847L463 851L463 852L463 853L463 854L463 855L463 856L463 857L463 858L463 859L463 860L463 861L463 862L463 867L464 867L464 864L464 860L464 859L464 858L464 857L464 856L464 855L464 854L464 853L463 847M478 847L478 856L479 856L479 853L479 850L478 847M487 849L487 856L488 856L487 849M425 850L425 854L425 855L425 856L425 857L425 862L426 862L426 859L425 850M472 850L472 854L472 855L472 856L472 857L472 862L473 862L473 859L472 850M416 852L416 860L417 860L416 852M482 852L482 860L483 860L482 852M413 856L413 864L414 864L413 856M422 856L422 860L422 861L422 862L422 863L422 867L423 867L423 864L422 856M431 856L431 860L431 861L431 862L431 863L431 864L431 865L431 866L431 867L431 873L432 873L432 870L432 866L432 865L432 864L432 863L431 856M467 856L467 860L467 861L467 862L467 863L467 864L467 865L467 866L467 867L467 873L468 873L468 870L468 866L468 865L468 864L468 863L467 856M418 860L418 870L419 870L419 867L418 860M479 860L479 870L480 870L480 867L479 860M483 864L483 873L484 873L484 870L484 867L483 864z"/>
</svg>
