<?xml version="1.0" standalone="yes"?>
<svg width="900" height="900">
<path style="fill:#040404; stroke:none;" d="M309 291C298.78 314.055 288.843 347.531 291.059 373C292.26 386.809 313.669 394.561 325 389.906C344.752 381.791 359.108 354.719 374 340.004C397.861 316.425 426.376 301.29 458 291C449.816 300.868 441.336 309.9 436.453 322C434.198 327.589 435.151 336.627 432.111 341.334C428.317 347.208 420.024 350.907 415.17 356.039C400.423 371.63 389.188 391.488 386.289 413C384.272 427.963 385.405 442.32 388.884 457C391.463 467.882 397.355 480.893 393.387 492C387.59 508.221 367.736 507.038 354 507C361.056 515.723 372.927 522.297 383 527L383 528L352 525L352 526L375 542L375 543L338 536C347.616 549.813 371.65 564.889 369.801 584C369.229 589.909 365.709 594.905 363 600C377.278 604.22 393.389 601 408 601L397 613L439 607L422 623C459.551 621.383 497.416 600.031 527 578.575C541.67 567.936 561.176 544.596 581 545.471C596.698 546.163 602.865 561.522 615 568C616.058 554.616 619.371 541.467 619.961 528C621.914 483.4 612.824 437.725 587.997 400C578.091 384.948 566.566 370.896 553.985 358C544.806 348.59 533.424 339.749 527.124 328C518.242 311.436 532.395 296.604 545 287C534.49 280.704 514.916 284 503 284L519 272L519 271L480 273L480 272L500 257C474.745 261.689 449.877 262.396 425 270.344C407.315 275.994 390.222 283.112 373 290C361.532 294.587 348.629 300.203 336 299.871C326.127 299.612 317.822 294.673 309 291M586 455C579.699 453.281 573.651 450.715 567 452.638C559.418 454.831 554.866 462.156 551.876 469C545.562 483.449 541.797 498.811 534.752 513C517.64 547.468 490.236 574.942 454 589C456.993 581.81 462.022 574.096 461.736 566C461.019 545.733 429.55 541.094 414 539C418.922 535.024 425.586 533.302 431 529.934C444.804 521.349 458.227 506.149 458.74 489C459.317 469.697 441.279 464.668 430.428 452.91C413.864 434.961 413.883 408.849 424.785 388C430.149 377.741 441.996 361.29 454 358.444C464.502 355.955 482.868 362.86 493 365.975C525.138 375.857 552.289 394.713 570.996 423C577.149 432.303 584.324 443.817 586 455z"/>
</svg>



